<svg id="Calque_1" data-name="Calque 1" xmlns="http://www.w3.org/2000/svg" viewBox="0 0 708.66 1133.86"><path d="M460.28,271.21a16.63,16.63,0,0,0-10.94,17.53c1.82,16,5.94,43.82,13.41,56.14,10.8,17.83,37.81,31.22,38.52,42.87s-1.42,16.41-1.42,16.41,18.78-10.22-1-36.62-27.62-68.84-23.31-88.94C478.06,267.11,468.73,268.18,460.28,271.21Z" style="fill:#21242b"/><path d="M464.27,355.76l-6.06-3.47s-4.73,19.43-26,39.27-13.9,13.05-13.9,13.05L459.81,379Z" style="fill:#21242b"/><path d="M250.41,355.76l6.06-3.47s4.73,19.43,26,39.27,13.9,13.05,13.9,13.05l-14.67-10.16c-6.24-4.32-14-7.73-19.46-13.38C255.87,374.49,253.67,364.11,250.41,355.76Z" style="fill:#21242b"/><path d="M152.4,576.07c6.2-40.9,39.1-58.7,61.9-63,24.6-4.6,51.7-4.7,73.5-17.1s21.6-78.3,21.6-78.3h93.9s-3.5,62.1,18.3,74.5,56.1,14.7,76.8,20.9,55.7,22.1,61.9,63c5,32.8.22,73.32.22,73.32L356.2,683.47,163,619.41S147.4,608.77,152.4,576.07Z" style="fill:#b56441"/><path d="M407.5,468.17h0c-25.3-4.7-74.1-20.3-97.9-38.1v-12.4h93.9C403.4,417.57,401.8,446,407.5,468.17Z" style="fill:#a3573d"/><path d="M152.4,576.07c6.2-40.9,37.1-58.7,61.9-63,13.7-2.4,32.9-4.7,50-10.9,7.6-2.7,29-13.7,29-13.7l23.6,27h78.7l23.7-27s21.5,11,29,13.7c17.2,6.2,36.7,6.9,50,10.9,20.7,6.2,51,20.11,64.15,53.86C571.4,593.41,657,746.05,657,746.05l-79,16.48L505,657.82S488.1,770.27,507.9,875.47s41.3,123.4,14.6,131.6-259.8,29.5-291.1,24.7-18.1-41.5-11.7-100-18.8-266-18.8-266l-60.4,43.6S147.4,608.77,152.4,576.07Z" style="fill:#474b56"/><path d="M417.5,487.37c13.2,24.4,18.94,49.39-1,59.39-31.69,15.63-49.69-3.59-65.69-26.59Z" style="fill:#fff"/><path d="M298.4,479.47c-15,29.5-14.1,59.9,2.6,69.2s43.1-5.7,60.5-33.9Z" style="fill:#fff"/><g id="g18"><path id="path16" d="M476.71,283.19s17.7-75.4-2.9-117.4c-22.2-45.2-55.4-71.1-116.3-71.1s-94.1,25.8-116.3,71.1c-20.6,41.9-2.9,117.4-2.9,117.4-27.7-5.5-22.5,24.7-13.9,38.4,7.2,11.4,7.3,12.6,11.7,25.1,6.2,18,20.5,5.6,20.5,5.6,8.3,23.1,14.2,28.5,47.3,59.1,28.8,26.6,38.9,26.3,53.5,26.3s24.4.3,53.5-26.3c33.2-30.4,39-36,47.3-59.1,0,0,14.3,12.5,20.5-5.6,4.3-12.5,4.5-13.7,11.6-25.1C499.21,307.89,504.41,277.59,476.71,283.19Z" style="fill:#b56441"/></g><path id="mounth" d="M315.83,364c-13.43-4,22.69,23.65,43.89,23s47.95-25.3,30.34-17.9c-5.79,2.4-13.9-14.1-24.55-8.9-7.64,3.7-3.94,5.4-10.89-.2C345.24,354.39,344.84,372.84,315.83,364Z" style="fill:#7c1919"/><path id="eye" d="M304,261.82A23.2,23.2,0,1,1,280.8,285,23.22,23.22,0,0,1,304,261.82Z" style="fill:#fff"/><path id="pupill" d="M313.3,284.82a9.92,9.92,0,0,1-9.9,9.9,9.79,9.79,0,0,1-9-5.9,3.61,3.61,0,0,0,2,.6,4.1,4.1,0,1,0,0-8.2,3.85,3.85,0,0,0-2.4.8,9.9,9.9,0,0,1,9.4-7A9.71,9.71,0,0,1,313.3,284.82Z" style="fill:#3f2609"/><path id="eye-2" data-name="eye" d="M409,261.82A23.2,23.2,0,1,1,385.8,285,23.22,23.22,0,0,1,409,261.82Z" style="fill:#fff"/><path id="pupill-2" data-name="pupill" d="M418.3,284.82a9.92,9.92,0,0,1-9.9,9.9,9.79,9.79,0,0,1-9-5.9,3.61,3.61,0,0,0,2,.6,4.1,4.1,0,1,0,0-8.2,3.85,3.85,0,0,0-2.4.8,9.9,9.9,0,0,1,9.4-7A9.71,9.71,0,0,1,418.3,284.82Z" style="fill:#3f2609"/><path id="eyebrows" d="M303.6,232.72c-24.7.5-36.3,6.7-39.6,12.5-4.1,7.3,6.9,4,16.8.1s26.3-6.6,36.4-2.6,15.8,6.8,15.8,1.7C330.3,239.32,318.6,232.72,303.6,232.72Z" style="fill:#582d11"/><path id="eyebrows-2" data-name="eyebrows" d="M373.7,244.42c0,5.2,5.8,2.3,15.8-1.7s26.6-1.3,36.4,2.6,20.9,7.2,16.8-.1c-3.3-5.9-14.9-12-39.6-12.5C388.2,232.72,376.4,239.32,373.7,244.42Z" style="fill:#582d11"/><path d="M224.05,298.63c4.31,20.1-3.57,62.54-23.31,88.94s-1,36.62-1,36.62-2.14-4.76-1.43-16.41,27.73-25,38.53-42.87c7.47-12.33,11.58-40.15,13.41-56.15a16.64,16.64,0,0,0-11-17.53C230.91,288.21,221.58,287.14,224.05,298.63Z" style="fill:#21242b"/><path d="M432.2,203.76c1.28,3,26-4.08,27,2.43.94-1.94,7.8-6.72,8.64-8.71,6.5-15.38,11.27-25.66,17.89-41C474.08,151.93,445.12,138,424.9,139c0,0-31.85-33.79-102-31.35a115.3,115.3,0,0,0-97.73,57.47s-17.71,34.23-20.33,72.75-9.84,41-22.3,47.68-30.83,9.17-30.83,9.17a61.77,61.77,0,0,0,26.89,17.73c17.05,5.49,66.82,15.15,112-14.08s81.85-90.91,81.85-90.91l-19.52,58.83c42.84-60.25,46.73-84.5,52.08-90.2s6.22,9.29,6.22,9.29l15.29,15.78S425.25,187.82,432.2,203.76Z" style="fill:#443328"/><path d="M502.31,268.92c4.87-40.87,7.87-66.71-.37-90.81-5-14.64-12.42-26.28-27.3-32.67q-1.18,2.73-2.24,5.51c-5,13.14-8.36,27.1-14.86,39.62,3.48,24,6.11,67.81,14,91.62,10.12,30.39-2.25,59-2.25,59s-10.12,33.88-24.74,51.7-4.12,38.77-4.12,38.77.37-27.25,22.86-41.22,36.35-56.23,36.35-56.23l5.62,4.54S497.44,309.79,502.31,268.92Z" style="fill:#443328"/><path d="M495.84,242.68c.74-7-3-14.64-7.49-20.81a69.28,69.28,0,0,0-8.78-9.93,138.75,138.75,0,0,0-12-9.39c-8.51-6.33-17.21-12.44-25.48-19.06S426,169.76,419.49,161.62c-1.21-1.53-2.34-3.09-3.44-4.67-5.71,11.75-11.87,38.21,13.78,80.72a191.4,191.4,0,0,1,4.52-28.15c.65,8.75,6.84,22.45,29.76,41.55a15.35,15.35,0,0,1-2.24-18.18s7,36.7,22,48.91C485.88,278.32,494,246.22,495.84,242.68Z" style="fill:#443328"/><polygon points="461.62 1017.98 484.32 512.88 461.92 504.88 438.82 1020.18 461.62 1017.98" style="fill:#2c303a"/><path d="M466,1024.31h-34.7a1.11,1.11,0,0,1-1.1-1.1v-49.1a1.11,1.11,0,0,1,1.1-1.1H466a1.11,1.11,0,0,1,1.1,1.1v49.1A1.11,1.11,0,0,1,466,1024.31Z" style="fill:#ccc"/><path d="M138.22,576.67c11.11-34.47,40.52-50.16,60.81-57.59,13-4.79,46-14.1,29.84-5.51-8.75,4.67,16.89-4.77,17.15-4.89.87,19.25,2.78,34.75-.07,53.8a410.14,410.14,0,0,1-12.48,54.95c-5.2,17.71-11.24,35.15-17.35,52.56-3.16,9-6.33,18-9.42,27-3-20.58-5.65-33.07-5.65-33.07L134.48,772.85,54.59,761.13S130.87,603.65,138.22,576.67Z" style="fill:#474b56"/><polygon points="278.82 1033.28 304.02 1031.78 246.02 508.68 223.12 512.88 278.82 1033.28" style="fill:#2c303a"/><path d="M307.37,1035.41l-34.4,4.7a1.2,1.2,0,0,1-1.3-1l-6.6-48.7a1.2,1.2,0,0,1,1-1.3l34.4-4.7a1.2,1.2,0,0,1,1.3,1l6.6,48.7C308.37,1034.81,308,1035.41,307.37,1035.41Z" style="fill:#ccc"/><path id="sleeve" d="M140.82,803.42S203.47,947.82,244,990.28c25,62.25-45.9,36.35-45.9,36.35L107,897.78h0C102.08,885.07,140.82,803.42,140.82,803.42Z" style="fill:#b5694e"/><path id="hand" d="M180.67,994s1.89,63.87,12.87,74.21,28.86,28.14,43.76,22.52,53.5-40.15,48.81-58.38-62.33-69-62.33-69Z" style="fill:#b56441"/><path d="M160.47,932.11c-.19-1.05-.35-2-.46-2.76a5.23,5.23,0,0,1,0-1.8,7.54,7.54,0,0,1,.44-1.25,2.39,2.39,0,0,1,1-.86,1.82,1.82,0,0,1,1.13-.37,4.23,4.23,0,0,1,1.08.35,7.09,7.09,0,0,1,1.08.77l1.12.89a1.62,1.62,0,0,1,.37.29,4.44,4.44,0,0,0,1,.64,11,11,0,0,1,1.28,1c.54.38.91.68,1.45,1.06s.91.68,1.28,1a10.62,10.62,0,0,1,.95.81c.17.08.21.21.42.42l.16.5a.72.72,0,0,1-.13.46c-.09.17-.17.33-.3.37s-.21.21-.3.38-.21.2-.33.24l-.13,0a.84.84,0,0,1-.79.12,1.93,1.93,0,0,1-.67-.34l-7.52-6.61,1.66,8.21a1,1,0,0,1,0,.55c0,.29,0,.41-.09.58a1.81,1.81,0,0,1-.34.66,2.81,2.81,0,0,1-.51.58,1.73,1.73,0,0,1-.79.12c-.3-.05-.5-.26-.75-.59a3.2,3.2,0,0,1-.49-1.1c-.12-.37-.15-.92-.28-1.29,0-.55-.15-.93-.19-1.47A6.72,6.72,0,0,0,160.47,932.11Z" style="fill:#333"/><path d="M160.5,944.31a9.08,9.08,0,0,1,3.11-1.13,14.2,14.2,0,0,1,3.55-.17,12.59,12.59,0,0,1,3.62.92,9.32,9.32,0,0,1,3.32,2.12c.13-.87.27-1.75.45-2.5a11.51,11.51,0,0,1,1.84-4.2,5,5,0,0,1,1.39-1.27,14.24,14.24,0,0,1,2.19-1,9.9,9.9,0,0,1,2.09-.39,7.45,7.45,0,0,1,2,.06,11.66,11.66,0,0,1,1.84.52,12.1,12.1,0,0,1,1.53.9,6.88,6.88,0,0,1,1.07,1.18,5.72,5.72,0,0,1,.65,2,5.26,5.26,0,0,1-.61,2.42,12.65,12.65,0,0,1-2,2.73,24,24,0,0,1-3.71,2.72c-1.18.65-2.23,1.26-3.19,1.71s-2.06.94-3,1.39c0,.54-.05,1.13,0,1.67a11.71,11.71,0,0,1,0,1.8c0,.12,0,.29,0,.41s0,.42,0,.55,0,.29-.14.45l-.17.34-.25.08c-.12,0-.16-.09-.29,0l-.33-.17-.17-.08c-.16-.09-.2-.22-.41-.43a5.19,5.19,0,0,1-.61-1.47,12.39,12.39,0,0,1-.39-2.09c-1.39.44-2.81.76-4.11,1a23.4,23.4,0,0,1-3.64.33c-1.13-.05-2.13-.15-3.13-.24-.91-.26-1.79-.4-2.58-.7a5.89,5.89,0,0,1-1.91-1.19,5,5,0,0,1-1.28-1.39,4.27,4.27,0,0,1-.56-1.77,3.51,3.51,0,0,1,.27-1.75A5.21,5.21,0,0,1,158,946C159,945.34,159.7,944.84,160.5,944.31Zm1,3a3,3,0,0,0-1.35,1.4,1.2,1.2,0,0,0,.15,1.34,3.63,3.63,0,0,0,1.49,1.19,9.12,9.12,0,0,0,2.83.62,21,21,0,0,0,4.1-.21,24.24,24.24,0,0,0,5.36-1.44l0-.54a9.62,9.62,0,0,0-4.19-2.68,11.76,11.76,0,0,0-2.42-.62,7.66,7.66,0,0,0-2.38-.06,12.4,12.4,0,0,0-2.13.26C162.43,946.88,161.93,947,161.47,947.33Zm19-7.05a4.07,4.07,0,0,0-1.39,1.28,9,9,0,0,0-1,2,11.75,11.75,0,0,0-.61,2.42c-.14.87-.23,1.87-.33,2.88a34.75,34.75,0,0,0,3.11-1.56c1.06-.61,2.23-1.27,3.41-1.92a16.75,16.75,0,0,0,1.94-1.31,8.09,8.09,0,0,0,1.14-1.2,1.56,1.56,0,0,0,.35-1.08,1.16,1.16,0,0,0-.29-.89l-.62-.63a3.67,3.67,0,0,0-1-.39,2.75,2.75,0,0,0-1.17-.18h-1.25a3.6,3.6,0,0,0-1.18.24A3.55,3.55,0,0,0,180.43,940.28Z" style="fill:#333"/><path d="M190.28,970.55l-2.65.85a9.91,9.91,0,0,0-2,.94,2.46,2.46,0,0,0-.93,1c-.18.33-.05.71.23,1.17a1.2,1.2,0,0,0,.58.51,2.27,2.27,0,0,0,1,.51,4.64,4.64,0,0,0,1.41.52,17.59,17.59,0,0,0,2,.48l-.17.33a2.81,2.81,0,0,1-.51.58,4.26,4.26,0,0,0-.76,1.08,12.73,12.73,0,0,1-2.29-.65,8.75,8.75,0,0,1-2-.9,11.07,11.07,0,0,1-1.45-1.06,3.48,3.48,0,0,1-.9-1.1,2.72,2.72,0,0,1-.45-1.38,5.8,5.8,0,0,1,.1-1.42,3.93,3.93,0,0,1,.69-1.33,6.38,6.38,0,0,1,1.43-1.15c.25-.09.46-.29.84-.41a3.45,3.45,0,0,0,1.09-.49l1.39-.44,1.63-.53c-.7-.88-1.23-1.68-1.89-2.44a23.72,23.72,0,0,1-1.73-2.36c-.63.2-1.42.31-2,.52a8.14,8.14,0,0,1-1.84.31,6.56,6.56,0,0,0-1.55.36c-.51.16-.92.15-1.3.27a4.87,4.87,0,0,1-2.09,0,2.27,2.27,0,0,1-1-.51l-.16-.51c0-.12,0-.41,0-.54s0-.29.25-.5a.7.7,0,0,1,.43-.41l.37-.12a33.72,33.72,0,0,1,3.61-.88l3.39-.67a3.55,3.55,0,0,1-.49-1.09,3.87,3.87,0,0,1-.24-1.17,4.17,4.17,0,0,1,.18-1.17,5.86,5.86,0,0,1,.6-1.16c.13,0,.21-.21.34-.25s.21-.21.21-.21c.34-.24.5-.16.71,0a1,1,0,0,1,0,.55,3,3,0,0,1-.34,1.08,3.33,3.33,0,0,1,.57.92c.25.34.37.72.62,1.06l.57.92a14.11,14.11,0,0,0,2.22-.43c.79-.12,1.42-.32,2.09-.4l1.26-.4c.38-.12.71-.37,1.09-.49.21-.2.46-.29.68-.49a1.92,1.92,0,0,0,.38-.54,1,1,0,0,0,.09-.58l-.24-.76a1.84,1.84,0,0,0-.5-.67,3.93,3.93,0,0,0-.91-.68,6.47,6.47,0,0,0-1.2-.73,12.28,12.28,0,0,0-1.62-.72c-.17-.09-.46-.14-.5-.26a.48.48,0,0,1-.25-.34l.17-.33c.09-.17.34-.25.68-.49a1.84,1.84,0,0,1,1.13-.37,4.85,4.85,0,0,1,1.29.14,3.47,3.47,0,0,1,1.29.56,7.58,7.58,0,0,1,1.25.85,5.54,5.54,0,0,1,1,.93,4.58,4.58,0,0,1,.74,1,6.92,6.92,0,0,1,.61,1.47,2.7,2.7,0,0,1,.06,1.51,4.36,4.36,0,0,1-.64,1.45,5.5,5.5,0,0,1-2.74,1.85l-1.63.52-1.89.61c-.63.2-1.42.32-2.18.56.5.67,1,1.47,1.56,2.27a25.74,25.74,0,0,0,1.77,2.49c1.3-.28,2.72-.6,4.27-1s2.89-.51,4.44-.86a6.23,6.23,0,0,1,1.25,0,1.54,1.54,0,0,1,.92.68l.16.5a.48.48,0,0,1,0,.42c-.08.17,0,.29-.13.46s-.21.2-.42.41a6.32,6.32,0,0,1-.59.33l-.75.24a8.87,8.87,0,0,1-1.72.27c-.54,0-1.17.24-1.84.32a9.09,9.09,0,0,0-1.93.48c-.63.2-1.3.27-1.93.47.29.47.54.8.78,1.14a5,5,0,0,1,.5.68c0,.12,0,.12.2.21l.08.25c.09.25.25.34.17.5a.48.48,0,0,1,0,.42c0,.12-.08.17-.17.33s-.21.21-.34.25l-.37.12a.3.3,0,0,1-.34-.17l-.33-.17a.43.43,0,0,0-.2-.21,1.1,1.1,0,0,1-.25-.34c0-.13,0-.13-.17-.09l0-.12,0-.13a.43.43,0,0,0-.2-.21c-.05-.13-.21-.21-.29-.46s-.29-.47-.5-.68A8.06,8.06,0,0,0,190.28,970.55Z" style="fill:#333"/><path d="M194.21,987.6a10.93,10.93,0,0,1-1.15-1,7,7,0,0,0-1.25-.85c-.37-.3-.74-.6-1.12-.89a2.25,2.25,0,0,1-.7-.89,1.16,1.16,0,0,1-.28-.88,1,1,0,0,1,.34-.66c.26-.09.47-.29.63-.21.25-.08.42,0,.67-.07.17.08.42,0,.59.09s.29,0,.33.17l6.74,5.47-2.36-8.68c-.08-.25,0-.54-.12-.79.09-.17.13-.46.51-.58l.13,0,.38-.12.37-.12a.88.88,0,0,1,.55,0,.66.66,0,0,1,.45.13.7.7,0,0,1,.42.42l.16.51a3.42,3.42,0,0,1,.2,1c.12.38.15.92.31,1.43s.2,1,.24,1.59.15.92.19,1.46c.12.38.11.8.19,1s.12.38,0,.42A5.23,5.23,0,0,0,201,987a4,4,0,0,1,.11,1.21,6.34,6.34,0,0,1-.1,1,2.08,2.08,0,0,1-.72.79,4.85,4.85,0,0,1-1.21.53,2.41,2.41,0,0,1-1.3-.14,11.66,11.66,0,0,1-1.66-.86A9.82,9.82,0,0,0,194.21,987.6Z" style="fill:#333"/><path id="sleeve-2" data-name="sleeve" d="M652.67,756.6c-1.7,12-30.73,85.1-30.73,85.1L570.33,970.58s-55.37,36.64-46.7-21.73C549.61,904.24,576,746.1,576,746.1S654.28,744.72,652.67,756.6Z" style="fill:#b5694e"/><path d="M575.31,741.82S678.2,683.89,652.86,787c-5.49,22.34-33.52,87.28-33.52,87.28l-63.13-39.51h0Z" style="fill:#474b56"/><path id="handle" d="M535.85,876.56s21.24,19,30.55,23S615.67,906,615.67,906l23.88-55.36s-27-20.5-37.79-24S557.12,822,557.12,822Z" style="fill:#fff"/><path d="M129.31,757.58s-97.38-48.66-74,50.78c5.26,22.39,39.92,84.55,39.92,84.55l73-46.28-14.32-26.28Z" style="fill:#474b56"/><path id="handle-2" data-name="handle" d="M161.5,832.38s-33.71,3.6-44.18,7.94-35.89,26.79-35.89,26.79l27.93,53.43S149,915.07,158,910.42s28.76-25.18,28.76-25.18Z" style="fill:#fff"/><path id="hand-2" data-name="hand" d="M527.59,943.24s-53.68,29.66-57.69,43.57-11.33,37,0,47.24,57.76,28,71.26,16,31.49-83.47,31.49-83.47Z" style="fill:#b56441"/><path d="M498,168.33s-38.49-73.74-124.25-76c0,0-103.22-7.3-136.5,55.75,0,0,119.8-65.91,187.7-9.08C441.39,152.83,477.43,152.79,498,168.33Z" style="fill:#443328"/><path d="M449.34,137.52c-25.09-18.41-52.94-32.19-84.47-34.56-43-3.24-81.54,14.21-113.26,42.23a247,247,0,0,0-20.69,20.75c.6,1.23,5,.58,5.55,1.82,2.78-2.15.89-1.55,3.66-3.66,2.93-2.07,5.67-4.31,8.56-6.35s5.66-4.19,8.62-6.07c22.41-14.26,46-26.43,72.72-31,27-4.6,53.64-.44,78.77,10,24.32,10.14,25.31,8.72,67.1,41.13,5.57,4.32,11,8.84,16.52,13.41,2.76,2.28,5.45,4.64,8.13,7s3,2.6,5.68,5l-.65-4.6C488.65,169.41,472.6,154.58,449.34,137.52Z" style="fill:#21242b"/><path d="M213.16,44.16c-10.07,8,0,105.73,10.56,115.72s20.36-3.12,36.53-15.13,38.26-21,41.93-29.07C308.56,101.73,232.41,28.92,213.16,44.16Z" style="fill:#21242b"/><path d="M223.31,58.5c-10.5,7.81,2.4,81.61,10.66,89.07s19-12.29,29.39-17.22c15.75-7.44,27-8.78,27.88-19.92S234,50.58,223.31,58.5Z" style="fill:#f2b181"/><path d="M229.36,69.39c8.46-6.29,46.85,23.11,61.88,41.07v0c.88-11.14-57.28-59.85-67.93-51.93-10.5,7.81,2.4,81.61,10.66,89.07a7.34,7.34,0,0,0,1.21.89C227.81,126.12,220.79,75.77,229.36,69.39Z" style="fill:#eb9850"/><path d="M212.54,53.85q-.61,9.28-1.21,18.57c-.06,1,.1,2.24,1,2.44,1.71-2,2.15-4.78,2.51-7.4l1.17-8.29c.32-2.26.69-4.65,2.17-6.38s3.14-5.28-.95-5.68C213.67,46.76,212.7,51.24,212.54,53.85Z" style="fill:#fff;opacity:0.27"/><path d="M526.16,61.2c9.41,9.12-10.73,107.33-22.51,116.39s-20.34-5.24-35.54-19.08-36.69-25.26-39.6-33.77C423.46,109.93,508.17,43.78,526.16,61.2Z" style="fill:#21242b"/><path d="M514.39,74.73c9.86,9-10.74,82.59-19.89,89.32s-18-14.4-28.08-20.47c-15.22-9.15-26.51-11.66-26.27-23.06S504.39,65.6,514.39,74.73Z" style="fill:#f2b181"/><path d="M507.14,85.16c-7.94-7.24-49.9,18.69-67,35.4v0c.25-11.39,64.24-54.92,74.24-45.79s-10.74,82.59-19.89,89.32a7.18,7.18,0,0,1-1.31.78C502.94,142.91,515.19,92.51,507.14,85.16Z" style="fill:#eb9850"/><path d="M488.63,75.18c2.22-.81,4.26-2.05,6.42-3,5.32-2.32,11.27-2.82,17.07-2.51,1.88.1,3.86.27,5.56-.54s2.9-3,1.93-4.63c-.7-1.17-2.2-1.57-3.56-1.7C511,62.3,506,64,501.18,65.73l-12.5,4.43c-1.52.54-3.85,1.62-3.87,3.59S487.13,75.73,488.63,75.18Z" style="fill:#fff;opacity:0.27"/><path d="M453.47,151.28c11.8,7.54,25.66,18.41,33.49,29.82,11.06,16.13,10.76,37.79,9.46,56.51-2,28.94-3,56,4.24,84.39s19,55.09,30.74,81.69c-4.36-9.87-14.82-19.34-20.67-28.71a270.43,270.43,0,0,1-18-33.85c-10.3-23.28-15.26-45.62-14.64-71.2,1.07-43.6-3-92.85-37.42-124.75C445,149.12,448.52,148.12,453.47,151.28Z" style="fill:#5b4539"/><path d="M396.43,138.89c-17,2.43-32,14.19-42.64,27.28-14.8,18.3-24.86,41.4-33.15,63.26-7.77,20.49-15.48,42-32.67,56.66a94.31,94.31,0,0,1-18.64,12.37,124.9,124.9,0,0,1-20.53,7.69,171.35,171.35,0,0,1-42.45,5.62,254.17,254.17,0,0,0,40.2-12.21,120.53,120.53,0,0,0,18.25-9.22A93.57,93.57,0,0,0,280.42,278c18.77-20.05,26.14-48.56,36.33-73.51,10.62-26,25.36-54.5,48.83-71.07,12.51-8.83,26.8-12.78,44.69-7.11,12.71,4,7.52,0,43.2,25-12.75-4.46-38.2-13.16-51.75-12.83A44.22,44.22,0,0,0,396.43,138.89Z" style="fill:#5b4539"/><path d="M347.16,128.67a117.32,117.32,0,0,0-30.65,15.77L313,146.87c-1.16.81-2.19,1.83-3.29,2.73l-6.54,5.5-6,6.13-3,3-2.68,3.36-5.43,6.65c-1.75,2.26-3.22,4.77-4.85,7.14s-3.3,4.71-4.78,7.2l-4.14,7.66c-1.42,2.58-2.83,5-4.27,7.7l-4.4,8.29c-1.53,2.73-2.9,5.53-4.56,8.19l-4.94,8a213.18,213.18,0,0,1-22.75,29.93,147,147,0,0,1-28.5,24.5,106.3,106.3,0,0,1-16.54,8.75,56,56,0,0,1-17.89,4.53,55,55,0,0,0,8.12-4l3.83-2.31,3.68-2.54A122.89,122.89,0,0,0,197.72,276,191.37,191.37,0,0,0,221,249.48c1.85-2.27,3.4-4.82,5.09-7.23s3.44-4.76,4.94-7.33c3-5.12,6.4-9.92,9.13-15.22L244.5,212c1.47-2.56,2.7-5.29,4.07-7.93l4.08-7.92c1.38-2.66,3-5.58,4.5-8.35l4.67-8.36c1.67-2.72,3.6-5.31,5.42-8s3.64-5.28,5.69-7.76l6.4-7.22,3.23-3.58,3.58-3.25,7.23-6.39c2.6-1.9,5.23-3.75,7.86-5.59,1.34-.88,2.6-1.87,4-2.66l4.21-2.32a104.19,104.19,0,0,1,35.75-12.37c12.26-2,23.59-2,52,3.59C360,123.9,358.4,124.72,347.16,128.67Z" style="fill:#5b4539"/><path d="M214.78,203.69c5.42-12.07,12.7-23.44,20.46-34.25,8.29-11.53,19.84-20.34,32.05-27.38,13.93-8,29-14.77,44.76-18.38,12.58-2.9,26.92-6,39.91-4.65a17.21,17.21,0,0,0,2.2.33c-8.14.34-16.1,2.42-23.92,4.56C308.13,130,285,137.05,266.52,151.34c-12.21,9.43-22,21.68-30.34,34.54-2.33,3.58-4.55,7.22-6.7,10.91-11.51,19.76-22.43,40.82-27.27,63,2.94-13.47,3.09-27.45,6.91-40.76A117.09,117.09,0,0,1,214.78,203.69Z" style="fill:#5b4539"/><path d="M494.94,179.72l7-1.61s3,10,3.64,14.61Z" style="fill:#21242b"/><polygon points="429.75 118.46 424.06 126.88 432.6 134.15 429.75 118.46" style="fill:#21242b"/><path d="M236.47,167.76s-23.81,30.32-31,63.33c0,0,5.93-46.21,21.64-69.14Z" style="fill:#21242b"/><path d="M487,181.1s19.33,27.18,18.38,61.06c0,0,6.31-39.22-3.4-64Z" style="fill:#21242b"/><path d="M424.9,139s10.55,60.09,26.45,78.41c0,0,2.1-14.83-2.32-39.2l-1.27-25.82S441,142.1,424.9,139Z" style="fill:#5b4539"/><path d="M432.6,134.15l5.78-24.38s-44.48-37-140.32-8v17.67S367.57,94.94,432.6,134.15Z" style="fill:#21242b"/><g id="tie"><path id="tie-2" data-name="tie" d="M374.29,534.46s-84.08-48.85-91.4-18.49-15.44,53.44,6.92,57.69S374.29,534.46,374.29,534.46Z" style="fill:#3373aa"/><path id="tie-3" data-name="tie" d="M359.78,527.13c24.2-12.46,71.9-33.86,77.33-11.15,7.35,30.51,15.56,53.63-6.83,58-15.72,3-51-17.59-70.61-30.07C359.65,529.06,359.74,541.71,359.78,527.13Z" style="fill:#4189c6"/></g><path d="M353.78,697a9.18,9.18,0,1,0,9.18-9.18A9.15,9.15,0,0,0,353.78,697Z" style="fill:#2c303a"/><path d="M350.85,610.14A9.19,9.19,0,1,0,360,601,9.16,9.16,0,0,0,350.85,610.14Z" style="fill:#2c303a"/><path d="M353.78,870.78a9.18,9.18,0,1,0,9.18-9.19A9.15,9.15,0,0,0,353.78,870.78Z" style="fill:#2c303a"/><path d="M350.85,783.9a9.19,9.19,0,1,0,9.19-9.18A9.16,9.16,0,0,0,350.85,783.9Z" style="fill:#2c303a"/><path d="M353.78,957.66a9.18,9.18,0,1,0,9.18-9.19A9.15,9.15,0,0,0,353.78,957.66Z" style="fill:#2c303a"/><path d="M505.34,242.16c15.23-36.28,1.29-68.39,1.29-68.39L498,175.43Z" style="fill:#21242b"/><path d="M205.43,231.09c-6.72-45.16,17.28-84.85,17.28-84.85L234.55,162l-25.67,49.47Z" style="fill:#21242b"/><path d="M350.34,319.78c-2.08.1-4.46.44-5.59,2.18s-.39,4.29.83,6.08c2.24,3.25,5.71,5.43,9.07,7.51a5.09,5.09,0,0,0,2.49,1,4.72,4.72,0,0,0,2.53-1c3.47-2.25,6.43-4,8.88-7.3.88-1.19,2.06-2.36,1.83-3.82-.45-2.82-2.47-4-4.88-4.19A134.69,134.69,0,0,0,350.34,319.78Z" style="fill:#3d3534"/><path d="M380,325.93a.5.5,0,0,1-.21-1c.15-.07,15.56-7.24,28.11-8,13.7-.83,20.54.53,20.82.58a.51.51,0,0,1-.2,1c-.07,0-7-1.39-20.56-.57-12.36.75-27.59,7.83-27.74,7.91A.57.57,0,0,1,380,325.93Z" style="fill:#21242b"/><path d="M432.75,337.93a.65.65,0,0,1-.19,0,88.54,88.54,0,0,0-19.3-5.17c-8.7-1.2-22.27-.1-22.4-.08a.51.51,0,0,1-.55-.47.5.5,0,0,1,.46-.54c.14,0,13.82-1.13,22.63.08A90.42,90.42,0,0,1,433,337a.51.51,0,0,1-.2,1Z" style="fill:#21242b"/><path d="M338.65,325.26a.5.5,0,0,1-.24-.06c-.15-.08-15-8-27.27-9.43-13.47-1.58-20.48-.59-20.55-.58a.51.51,0,0,1-.58-.43.51.51,0,0,1,.43-.57c.29,0,7.19-1,20.82.57,12.49,1.46,27.48,9.47,27.63,9.55a.51.51,0,0,1,.2.69A.49.49,0,0,1,338.65,325.26Z" style="fill:#21242b"/><path d="M285.32,334.31a.51.51,0,0,1-.17-1A90.58,90.58,0,0,1,305,329.18c8.86-.73,22.46,1.15,22.6,1.17a.5.5,0,0,1-.14,1c-.13,0-13.63-1.88-22.38-1.16a89.06,89.06,0,0,0-19.55,4.09A.51.51,0,0,1,285.32,334.31Z" style="fill:#21242b"/></svg>