<?xml version="1.0" encoding="utf-8"?>
<!-- Generator: Adobe Illustrator 22.0.0, SVG Export Plug-In . SVG Version: 6.00 Build 0)  -->
<svg version="1.1" id="Calque_1" xmlns="http://www.w3.org/2000/svg" xmlns:xlink="http://www.w3.org/1999/xlink" x="0px" y="0px"
	 viewBox="0 0 526 532" style="enable-background:new 0 0 526 532;" xml:space="preserve">
<style type="text/css">
	.st0{fill:#E9C5AC;}
	.st1{fill:#FFFFFF;}
	.st2{fill:#F0F0F0;}
	.st3{fill:#F1C19F;}
	.st4{fill:#3D4251;}
	.st5{fill:#4188C5;}
	.st6{fill:#333333;}
	.st7{fill:#A2634D;}
	.st8{fill:#B17362;}
	.st9{fill:#3373A9;}
</style>
<g>
	<path class="st0" d="M470.2,514.1c15-2.3,29.9-4.8,44.9-7.5c-6.1-57.8-10-96.9-10-96.9S487.9,460.3,470.2,514.1z"/>
	<path class="st1" d="M209.2,453.6c2.5-10.7-35.1-35.9-35.1-35.9s-136.2-19.9-149.2-13c-12.9,7-18,22.8-12.2,61
		c1.2,7.7-2.5,23.8-9,44.4c19,7.9,38.2,13.3,58.8,15c49.1,4,98.1,6.3,146.9,6.8C208.9,488.6,208.4,456.9,209.2,453.6z"/>
	<path class="st2" d="M0,508.6c8.6,3.7,17.2,6.9,25.9,9.5c-7.9-46.6-15.2-87.2-15.2-87.2S9.7,464.8,0,508.6z"/>
	<g id="jacket_4_">
		<path class="st1" d="M312,483.7l166.1,2c0,0,1.3-34.1-24-56.1c-25.3-22-87.1-48.1-177.1-46.8C187,384.2,312,483.7,312,483.7z"/>
		<path class="st1" d="M142.8,485c47-0.6,103.3-1.3,103.3-1.3s125-99.6,35-101S129.2,407.5,104,429.5c-25.3,22-24,56.2-24,56.2
			S109,485.4,142.8,485z"/>
	</g>
	<path class="st1" d="M279,392.9c-110,0-199.1,42.5-199.1,94.9c0,14.3,6.6,27.8,18.5,40c124.7,8,248.1,5.2,371.9-13.7
		c5.1-8.4,7.8-17.2,7.8-26.3C478.2,435.4,389,392.9,279,392.9z"/>
	<path id="ear_3_" class="st3" d="M167.5,202c0,0-11.4-4.6-19.9,0.8c-8.6,5.4-11.8,28.9-4.5,39.2c7.4,10.3,14.9,22.7,22.8,23.7
		c7.9,1,17.1-1.6,17.1-1.6l-3.3-31.4L167.5,202z"/>
	<path id="ear_1_" class="st3" d="M384.9,202c0,0,11.4-4.6,20,0.8c8.6,5.4,11.8,28.8,4.5,39.1c-7.4,10.3-14.9,22.7-22.8,23.6
		c-7.9,1-17.1-1.6-17.1-1.6l3.3-31.3L384.9,202z"/>
	<path class="st1" d="M501.2,509.1c8-35.6,14.2-63.1,16-71.3c6.3-27.7-21.8-38.3-28.4-39.7c-21.3,0.7-157.1-8.6-157.1-8.6l-6,10.7
		l-7.3,55.3h-54.7l-62.5-32.7l-47,42.7L141,530.1C261.5,535.4,381.2,530,501.2,509.1z"/>
	<path class="st2" d="M489.6,511c12.2-2,24.3-4.2,36.5-6.5c-4.5-44.8-7.4-74.9-7.4-74.9S505.4,466.1,489.6,511z"/>
	<path class="st4" d="M470.8,394.2c-43.4-2.4-55.8-4.8-68.6-5.2l-81.6,140.5c47.4-2.6,94.8-7.2,142.2-14.2
		C470.1,448.5,470.8,394.2,470.8,394.2z"/>
	<path id="earring_1_" class="st5" d="M393.9,257.7c4,0,7.3,3.3,7.3,7.3s-3.3,7.3-7.3,7.3c-4,0-7.3-3.3-7.3-7.3
		S389.8,257.7,393.9,257.7z"/>
	<path id="neck_1_" class="st3" d="M330.8,344.9H221.2v82.5l54.8,24.8l54.7-24.8V344.9z"/>
	<path id="face_1_" class="st3" d="M270.9,44.8c69.1-1.1,108.3,34,124.6,85.9c20,63.8-9.3,136.4-33.4,177.5
		c-9.9,16.9-18.7,33.3-34.2,44.4c-10.5,7.4-25.3,12-40.3,14.7c-19,3.4-44.8-4-55.4-10.2c-37.6-22.2-67.1-95.1-78.2-145.3
		c-5-22.6-4-54.9,2-75.3c11.8-40.2,34-68.4,71.3-83.1c9.2-3.6,19.5-5.3,30.1-7.3C261.9,45.6,266.4,45.2,270.9,44.8z"/>
	<path id="eye_11_" class="st1" d="M225.5,188.1c12.7,0,23,10.3,23,23c0,12.7-10.3,23-23,23c-12.7,0-23-10.3-23-23
		C202.5,198.4,212.8,188.1,225.5,188.1z"/>
	<path id="pupill_11_" class="st6" d="M234.7,210.9c0,5.4-4.4,9.8-9.8,9.8c-4,0-7.4-2.4-8.9-5.8c0.6,0.3,1.3,0.5,2,0.5
		c2.2,0,4.1-1.8,4.1-4.1s-1.8-4.1-4.1-4.1c-0.9,0-1.7,0.3-2.4,0.8c1.2-4,4.9-6.9,9.3-6.9C230.3,201.1,234.7,205.5,234.7,210.9z"/>
	<path id="eye_10_" class="st1" d="M329.5,188.1c12.7,0,23,10.3,23,23c0,12.7-10.3,23-23,23c-12.7,0-23-10.3-23-23
		C306.5,198.4,316.8,188.1,329.5,188.1z"/>
	<path id="pupill_10_" class="st6" d="M338.7,210.9c0,5.4-4.4,9.8-9.8,9.8c-4,0-7.4-2.4-8.9-5.8c0.6,0.3,1.3,0.5,2,0.5
		c2.2,0,4.1-1.8,4.1-4.1s-1.8-4.1-4.1-4.1c-0.9,0-1.7,0.3-2.4,0.8c1.2-4,4.9-6.9,9.3-6.9C334.3,201.1,338.7,205.5,338.7,210.9z"/>
	<path id="glasses_5_" class="st5" d="M266,211.7h24.8v10.2H266V211.7z"/>
	<path id="glasses_4_" class="st5" d="M258.7,180h-66c-4.5,0-8.1,3.6-8.1,8.1v50.5c0,4.5,3.6,8.1,8.1,8.1h66c4.5,0,8.1-3.6,8.1-8.1
		v-50.5C266.8,183.6,263.2,180,258.7,180z M257,231.6c0,3.3-2.8,6-6.2,6H201c-3.4,0-6.2-2.7-6.2-6v-37.4c0-3.3,2.8-6,6.2-6h49.9
		c3.4,0,6.2,2.7,6.2,6V231.6z"/>
	<path id="glasses_3_" class="st5" d="M361.7,180h-66c-4.5,0-8.1,3.6-8.1,8.1v50.5c0,4.5,3.6,8.1,8.1,8.1h66c4.5,0,8.1-3.6,8.1-8.1
		v-50.5C369.8,183.6,366.2,180,361.7,180z M360,231.6c0,3.3-2.8,6-6.2,6H304c-3.4,0-6.2-2.7-6.2-6v-37.4c0-3.3,2.8-6,6.2-6h49.9
		c3.4,0,6.2,2.7,6.2,6V231.6z"/>
	<path id="eyebrows_11_" class="st7" d="M227.3,149.6c-24.5,0.5-38.6,8.5-38.6,16.8c0,8.3,13,5.9,22.8,2c9.8-3.9,22.7-3.6,28.1,0.4
		c5.4,4,17,5.1,17.5-3.3C257.5,157.2,235.6,149.4,227.3,149.6z"/>
	<path id="eyebrows_10_" class="st7" d="M327.1,149.4c24.5,0.5,38.7,8.4,38.7,16.7c0,8.2-13,5.9-22.8,2c-9.8-3.9-22.7-3.6-28.1,0.4
		c-5.4,4-17,5.1-17.5-3.3C296.9,157,318.7,149.3,327.1,149.4z"/>
	<path id="collar_3_" class="st1" d="M206.5,355.2l73.8,96.5L235,464.1l-50.4-62.4c0,0,0.1-18.1,4.1-26.7
		C192.7,366.5,206.5,355.2,206.5,355.2z"/>
	<path id="collar_2_" class="st1" d="M348.2,368.1l-76,85l44.3,11l49.3-55c0,0-0.1-16-4-23.5S348.2,368.1,348.2,368.1z"/>
	<path id="beard_2_" class="st7" d="M388.5,251c-7.6,22.1-12.3,56.7-20.9,76.2c-7,22.6-25.8,76.6-41.3,87.7
		c-10.5,7.4-25.3,12-40.3,14.6c-19,3.4-54.2-0.7-64.7-6.9c-27-15.9-38.8-123.5-53.6-164.5c0-2.8,0.1-5.5,0.7-7.8
		c0.4-0.1,0.8-0.3,1.2-0.4c6-2.3,12.2,4.1,15.5,6.5c11.8,8.8,20.3,19.9,30.9,29.7c-2.2-8.1,4.4-26.2,12.6-19.1
		c3.7,2.7,0.5,12.1,1.6,17.1c18,12.1,19.8-9.8,28.5-14.3c5.8-1.1,11.3,3.9,17.1,4.9c9.4,1.7,13.9-4.8,22-5.3
		c8.1,4.7,8.2,20,22.4,17.1c3.5-0.7,5.1-0.5,6.5-3.3c2.7-5.1-1.7-13.3,1.2-16.7c2.9-3.3,3.3-0.5,4.9-0.8c5.9,2.7,11.3,11.1,8.1,19.9
		c3.4-3.7,6.8-7.3,10.2-11c10.3-10.5,19.7-18.7,33.8-25.7c0.8,0.1,1.6,0.3,2.4,0.4C387.7,250.1,388.1,250.5,388.5,251z"/>
	<path id="mounth_4_" class="st3" d="M246.1,300.9c0,0,8.3,14.3,31.4,13.8c23.1-0.5,30.9-13.8,30.9-13.8s-15.1-4.9-27.3-4.9
		c-5.2,0-10.6,2.9-17.5,4.1C256.7,301.2,246.1,300.9,246.1,300.9z"/>
	<path id="hears_1_" class="st7" d="M151.6,193.8c0,0,6.1-16.9,6.5-23.6c0.4-6.8,5.1-46.5,19.5-66.4c9.3-14.3,22.9-17.3,36.2-14.2
		c13.4,3,28.9,11.1,44.8,9c15.9-2.1,56.3-22.4,72.9-14.7c16.6,7.7,44.5,21.3,47.6,46.8c3.1,25.6,21.2,66,21.2,66s9.4-65.2,9.4-82.6
		c0-17.4-45.3-68.5-54.6-78.6C345.9,25.4,316-0.9,298.2,0c-17.8,0.9-41.8,15.4-51.3,16.3c-9.5,0.9-15.7-3.6-26.1-1.6
		c-10.4,1.9-21.4,1.4-52.9,34.2c-31.5,32.8-28.3,82.1-26.1,109.5C144,185.9,151.6,193.8,151.6,193.8z"/>
	<path class="st8" d="M237.5,87.1c0,0-7.8-11.6,2-33c9.8-21.4,10.2-31.3,10.2-31.3s-5.5,13.8-13,31.3
		C229.2,71.7,237.5,87.1,237.5,87.1z"/>
	<path class="st8" d="M266,90.4c0,0,22-25.4,36.2-36.6c14.2-11.3,31.8-24,31.8-24s-13.8,3.4-34.6,21.2C278.6,68.7,266,90.4,266,90.4
		z"/>
	<path class="st8" d="M250.9,86.7c0,0-0.5-23.6,11-49.7C273.4,11,296.5,6.9,296.5,6.9s-16.9,7.7-28.9,30.9
		C255.7,61.1,250.9,86.7,250.9,86.7z"/>
	<g id="tie_18_">
		<path class="st9" d="M211.4,512.2c23.4,1.7,81.5-50,81.5-50s-91.6-39.9-95.4-8.1C193.7,485.9,188.1,510.5,211.4,512.2z"/>
		<path class="st5" d="M354.7,495.8c22.3-7.1,11.2-29.7,0.1-60c-8.2-22.4-54.4,5-77.5,20.6c1.7,14.9,0.1,2,1.8,17.1
			C300.6,483.9,339,500.8,354.7,495.8z"/>
	</g>
	<path class="st4" d="M58.9,402.6c0,0,2.5,58.8,8.6,122.9c50.1,3.9,100,6.2,149.8,6.4l-77.9-123.7
		C116.5,406.1,109.5,404.3,58.9,402.6z"/>
</g>
</svg>
