<svg xmlns="http://www.w3.org/2000/svg" xmlns:xlink="http://www.w3.org/1999/xlink" viewBox="0 0 410.1 622.4"><path d="M205 347.5c-2 1.3-4 35-5.5 69.5-1.5-34.6-3.5-68.2-5.5-69.5-4.2-2.8-142.6 4.1-142.6 4.1v134.9s56.9 6.5 148.1 5.8c91.2.7 148.1-5.8 148.1-5.8V351.6s-138.4-6.9-142.6-4.1z" fill="#0d0905"/><path d="M328.9 477.1c-18.5-5.5-49.1-7.6-68.5-18.6-19.4-11.1-16.3-66.5-16.3-66.5h-83.7s3.1 55.4-16.3 66.4c-19.4 11.1-50 13.1-68.5 18.6S26 496.7 20.4 533.1l-6.5 42.2c123.4 39.3 255.9 44.4 385.3 42.9-2.3-27.3-6-67-8.7-85.2-5.5-36.3-43.2-50.4-61.6-55.9zM14.7 592.7z" fill="#fca65b"/><path d="M156.8 437c0 .1 0 .1 0 0 22.5-4.2 66-18.1 87.2-33.9v-6.6c0-.4 0-.8.1-1.3V392h-83.7s1.4 25.2-3.6 45z" fill="#eb9449"/><path d="M321.866 253.234s17.7-75.4-2.9-117.4c-22.2-45.2-55.4-71.1-116.3-71.1s-94.1 25.8-116.3 71.1c-20.6 41.9-2.9 117.4-2.9 117.4-27.7-5.5-22.5 24.7-13.9 38.4 7.2 11.4 7.3 12.6 11.7 25.1 6.2 18 20.5 5.6 20.5 5.6 8.3 23.1 14.2 28.5 47.3 59.1 28.8 26.6 38.9 26.3 53.5 26.3s24.4.3 53.5-26.3c33.2-30.4 39-36 47.3-59.1 0 0 14.3 12.5 20.5-5.6 4.3-12.5 4.5-13.7 11.6-25.1 8.9-13.6 14.1-43.9-13.6-38.4z" fill="#f29b50"/><path d="M9.8 574.1a728.35 728.35 0 0 0 29.7 9L12.3 505l-2.5 69.1zm352.5 44.5l38.5-.2-4.7-97-33.8 97.2z" fill="#d31616"/><path d="M361.1 487.8c-13.4-2.5-13.5-4.3-42.5-6.6l-58.1-22.8s-1.2 67.1-60.6 67.1-62.7-64-62.7-64l-41 15.2-56.6 11.1c-35.8 6.5-33.3 39-31.8 73.2.2 3.7.7 8 1.4 12.9 118.7 38.8 246.2 45.4 371.2 44.6 9.6-35.1 17.4-61.4 17.6-68.1 1-33.4-4.2-56.6-36.9-62.6zm-186-148.1c-11.6-4 11 18.6 29.3 18s41.4-25.3 26.2-17.9c-5 2.4-12-14.1-21.2-8.9-6.6 3.7-3.4 5.4-9.4-.2-8.1-5.8-16.7 11.8-24.9 9z" fill="#ea1818"/><g fill="#1c140a"><use xlink:href="#B"/><use xlink:href="#B" x="103.8" y="-2.4"/></g><path d="M186.1 145.5s5.5 16.4 6.7 25.7c1.3 9.3 2.3 20.4 2.3 20.4s2.1-7-.3-20.9-8.7-25.2-8.7-25.2zm-40.6 56.8s-1.5-15.4 4.6-33.1 21.1-21.5 21.1-21.5-10.7 5.9-17.3 21.8-8.4 32.8-8.4 32.8zm92.3-13.4s-.7-13.8-8.5-28.5-21.5-16.1-21.5-16.1S218 148 226 161.1s11.8 27.8 11.8 27.8z" fill="#261e14"/><path d="M367.3 480.9c-31.3-4.9-48-7.4-92-19.3l-3.3-.3-20.1 44.3s32.5 36.9 41.2 86.6c.9 4.9 1.9 13.8 2.9 25.4 27.3.8 54.5 1 81.7.9 7.8-45.8 15.8-85.6 20.1-94.7 10.4-21.8-13-45.1-30.5-42.9z" fill="#3d4251"/><path d="M364.3 618.6l45.6-.4-10-104.3-35.6 104.7z" fill="#363a47"/><path d="M68.2 107.6c.1-.4-23.1 40 .2-1.2 13.1-31.2 178.2-53.9 260.2 0 23.8 25.1 39.9 101.5 23.6 109.1-5.8 2.7-25.3-25.7-55.4-46.8-8.4-5.9-33.2-23.6-98.1-23.6s-89.7 17.7-98.1 23.6c-30.1 21.1-43.4 52.1-49.3 49.3-16-7.4-9-66.6 16.9-110.4z" fill="#474b56"/><path d="M156.2 512.6l-20.1-44.3s-4.2-4.3-6.3-4.1c-44 11.9-57.7 18.8-89 23.7-17.5-2.2-40.9 21.1-30.6 42.9 2.7 5.7 6.8 23.4 11.5 47.1 30.6 9.4 61.6 16.7 93.1 22.3.1-.4.1-.7.2-1 8.7-49.7 41.2-86.6 41.2-86.6z" fill="#3d4251"/><path d="M.1 570.8c9.5 3.2 19 6.3 28.6 9.1L8.2 520.8l-8.1 50z" fill="#363a47"/><path d="M191.5,254.7h25.1V265h-25.1V254.7z" fill="#4189c6"/><path d="M71.7 586.2c1.2-7.3 2.3-20.1 2.3-20.1l2.1 19.6c5.5.4 12.9.7 18.5.2l.2-27.7 4.6 26.6c5.2-.7 17.2-2.1 22.1-3.1L121 569l4.8 11.9c19-4.7-9.1-359.4-9.1-359.4s17.6-.8 27.6-2l3.9-16 3.7 15.1 13.8-1.4 7.5-38.7 5.3 37.4c7.8-.6 19.9-1.4 24.6-1.4h.1l3-22.2 4.7 22.4c10.5.5 25.2 1.9 38.3 3.3l3-37.5L257 219c12.4 1.4 32.3 2.5 32.3 2.5s-21.8 352.7-6.3 355.7l9.9-33.3-4.5 34.3c6.8 1.2 14.2 2.2 21.8 2.8l6-20.5 2.1 20.9c12.5.4 82.3-278.9 29.6-378.8-6.1-11.5-4.2-24.6-6.9-34C306.6 48.5 203 48.5 203 48.5s-103.6 0-137.9 120.2c-2.9 10.1-.3 24.3-7.1 36.8-49.1 89.1 9.6 380.1 13.7 380.7z" fill="#1c140a"/><g fill="#4189c6"><use xlink:href="#C"/><use xlink:href="#C" x="104"/></g><path d="M76.8 99.8c.1-.4.1-.7.2-1.1 5.5-20.3 14.6-35.1 26.4-46.7.3-.4.6-.8 1-1.2 16-17.4 21-19.7 27.7-30.6 6.8-11 15.4-20.9 34.8-20.2 10.2.4 10.6 3.2 28.4 2.6 19.9-.6 30-2.9 36.3 0 10.7 4.9 8.3 8 38.7 29.6 6.3 4.5 13 9.7 18.6 16.2 19.6 19 30.5 50.2 30.5 50.2 24.7 40.7 34.4 96.6 19.3 103.6-5.4 2.5-20.9-26.2-48.9-45.8-7.8-5.5-30.9-21.9-91.4-21.9-60.4 0-83.6 16.4-91.4 21.9C79 176 68.9 204.6 63.4 202c-14.9-6.8-10.7-61.6 13.4-102.2z" fill="#3d4251"/><path d="M78.4 92.5c2.2-6.8 3.5-10.2 5.4-13.8 1-.4 11.5-5.4 12.6-5.8 34.9-14.4 83.8-15.5 98-15.5h8.5c13.9 0 61.7 0 109.3 24.3l4.3 9.3c1 2.2 1.4 3.4 2.2 5.4-3.1-8-22.5-14.2-33.1-18.6-31.7-13.1-61.2-12.4-82.7-13.6-2.4-.1-3.8 0-3.9 0h-4.5c-13.1 0-58.3 1-89.9 14.1-10.7 4.4-20.5 9.9-26.6 16.1" fill="#474b56"/><g fill="#d31616"><path d="M259 456.5c15.8 23.9 13.3 52.2-6.3 64.5s-49.1 4.1-67.6-18.1l73.9-46.4z"/><path d="M137.1 461.5c-12.3 30.7-8.8 60.9 8.7 68.7 17.5 7.9 42.4-9.5 57.2-39.1l-65.9-29.6z"/></g><path d="M214.9 515.5s-88.1-49.1-95.1-17.5-15.1 55.7 8.2 59.7 86.9-42.2 86.9-42.2z" fill="#3373aa"/><path d="M199.7 508.2c24.8-13.4 73.9-36.4 79.9-13 8.2 31.5 17.1 55.3-6 60.2-16.2 3.5-53.2-17.3-73.8-29.9-.2-15.3.1-2.2-.1-17.3z" fill="#4189c6"/><ellipse cx="153.762" cy="254.682" rx="23.678" ry="23.107" fill="#fff"/><g fill="#333"><use xlink:href="#D"/><use xlink:href="#D" x="100.417" y="0.57"/></g><ellipse ry="23.107" rx="23.678" cy="255.253" cx="254.179" fill="#fff"/><use xlink:href="#D" x="100.417" fill="#333"/><defs ><path id="B" d="M151.9 208.9c-12.5.7-30.6 11.6-33.8 20.8-3.9 11.3 10.3-6.3 20.3-10.7 8.5-7.9 24.8-4 34.5 2.2 9.6 6.1 11.6 15.2 11.6 7.2-2.6-7.9-22.5-19.5-32.6-19.5z"/><path id="C" d="M184.1 222.6h-66.6a8.24 8.24 0 0 0-8.2 8.2v51a8.24 8.24 0 0 0 8.2 8.2h66.6a8.24 8.24 0 0 0 8.2-8.2v-51c0-4.5-3.6-8.2-8.2-8.2zm-1.7 52.2c0 3.4-2.8 6.1-6.2 6.1h-50.4c-3.4 0-6.2-2.7-6.2-6.1V237c0-3.4 2.8-6.1 6.2-6.1h50.4c3.4 0 6.2 2.7 6.2 6.1v37.8z"/><path id="D" d="M162.123 257.512c-1.1 4.1-5.6 6.4-10.1 5.2-3.3-.9-5.6-3.5-6.1-6.4.4.4.9.7 1.5.9 1.8.5 3.7-.5 4.2-2.1.5-1.7-.6-3.5-2.5-4-.7-.2-1.5-.2-2.2.1 1.8-2.7 5.5-4.1 9.1-3.1 4.5 1 7.2 5.3 6.1 9.4z"/></defs></svg>