<?xml version="1.0" encoding="utf-8"?>
<!-- Generator: Adobe Illustrator 22.0.0, SVG Export Plug-In . SVG Version: 6.00 Build 0)  -->
<svg version="1.1" id="Calque_1" xmlns="http://www.w3.org/2000/svg" xmlns:xlink="http://www.w3.org/1999/xlink" x="0px" y="0px"
	 viewBox="0 0 460.9 710" style="enable-background:new 0 0 460.9 710;" xml:space="preserve">
<style type="text/css">
	.st0{fill:#D3410D;}
	.st1{fill:#F1B080;}
	.st2{fill:#EA9750;}
	.st3{fill:#F6F5F4;}
	.st4{fill:#E5511C;}
	.st5{fill:#4188C5;}
	.st6{fill:#E91818;}
	.st7{fill:#FFFFFF;}
	.st8{fill:#1C4911;}
	.st9{fill:#333333;}
	.st10{fill:#3373A9;}
</style>
<g>
	<path class="st0" d="M291.1,193.7c0,0,22.2,223.1-23.5,212.7c-27.6-6.3,8.8,0.1-69.6-41.2c-64.6-34-129.8-110.9-146.5-141
		C41.4,206,43,136.6,100,96.8C157,57,227.3,31.5,301.3,71L291.1,193.7z"/>
</g>
<g>
	<path class="st0" d="M275.1,141.6l-54.5,207.7l108.9,56.4c0,0,37.7-8.4,36.4-35.4c-1.3-26.9-13.7-18.4,12.9-61.9
		c26-42.7,17.9-78,13.4-122.4c-3.9-38.4-28.3-72.7-30.9-96.9c-2.7-24.2-29.6-76.7-86.1-76V141.6z"/>
</g>
<g>
	<path class="st1" d="M220.5,597.1l213.9-2.9c0,0-4.8-71.7-9.8-104.5c-6.2-40.9-41.2-56.7-61.9-63c-20.7-6.2-55.1-8.5-76.8-20.9
		c-21.7-12.4-18.3-74.5-18.3-74.5h-46.9h-47c0,0,0.1,65.9-21.6,78.3c-21.7,12.4-48.9,12.5-73.5,17.1c-22.9,4.3-55.7,22.1-61.9,63
		c-5,32.8-3.9,111.8-3.9,111.8L220.5,597.1z"/>
</g>
<g>
	<path class="st2" d="M271.7,381.8C271.7,381.8,271.7,381.8,271.7,381.8c-25.3-4.7-74.1-20.3-97.9-38.1c0-1.9,0-3.5,0-5.1
		c0-0.1,0-0.1,0-0.1c0-0.7,0-1.3,0-1.9c0-0.1,0-0.3,0-0.4c0-0.5,0-1,0-1.4c0-0.1,0-0.2,0-0.3c0-0.4,0-0.8,0-1.1c0-0.1,0-0.2,0-0.2
		c0-0.3,0-0.6,0-0.9c0,0,0-0.1,0-0.2c0-0.2,0-0.4,0-0.5c0-0.2,0-0.3,0-0.3h47h46.9C267.5,331.2,266,359.6,271.7,381.8z"/>
</g>
<g>
	<path class="st1" d="M86.9,176.1c0,0-20.1-31.2,3-78.3c24.8-50.7,59.9-84.7,128.3-84.7c68.3,0,107.8,34,132.7,84.7
		c23.1,47.1,3.4,78.3,3.4,78.3c31.1-6.2,25.3,27.8,15.5,43.1c-8,12.7-8.2,14.1-13.1,28.1c-6.9,20.2-23,6.2-23,6.2
		c-9.3,25.9-15.9,32-53.1,66.3c-32.4,29.8-43.7,29.5-60.1,29.5c-16.4,0-27.4,0.4-60.1-29.5c-37.3-34.1-43.8-40.4-53.1-66.3
		c0,0-16.1,14-23-6.2c-4.9-14-5-15.4-13.1-28.1C61.6,203.9,55.8,169.9,86.9,176.1z"/>
</g>
<g>
	<path class="st3" d="M4.6,623l2.3-1.7c-0.7-0.5-1.4-1-2.1-1.6C4.7,621.9,4.6,623,4.6,623z"/>
	<path class="st3" d="M362.6,426.7c-13.4-4-32.9-4.7-50-10.9c-7.5-2.7-29-13.7-29-13.7l-23.7,34.4h-78.7l-23.6-34.4
		c0,0-21.5,11-29,13.7c-17.2,6.2-36.3,8.6-50,10.9c-24.9,4.3-55.7,22.1-61.9,63C12.1,518.9,6.1,602.3,4.9,619.8
		c0.7,0.5,1.4,1,2.1,1.6l58-41.9c0,0,4.5,36.9,9.2,84c72.1,35.2,151.6,54.6,232,43.4c18.5-2.7,36.8-5.7,54.8-9.4
		c-3.2-57.3,1.6-95.1,1.6-95.1l15,91.6c28.5-6.5,56.3-14.6,83.3-25.4c-12.4-58.4-32.9-156.1-36.3-178.7
		C418.4,448.8,383.4,432.9,362.6,426.7z"/>
</g>
<g>
	<path class="st4" d="M169,87.2c0,0-1.3,22.6-21,42.3c-19.7,19.8-36,28.3-32.3,71.5c3.7,43.2,19.7,58,6.2,80.2
		c-13.6,22.2-24,28.4-16.3,48.1c7.7,19.8,5.1,27.2-3.5,40.7c-8.5,13.6,0,32.1,0,32.1s-15.9-18.5-11-37c4.9-18.5-19.8-25.9-18.5-50.6
		c1.2-24.7,17.3-53,1.2-83.9C63.6,211,37.5,157.6,49.1,118.3c6.6-22.2,17.5-44.2,32.1-61.2c8.2-9.6,28.8-48,87-44L169,87.2z"/>
</g>
<g>
	<path class="st3" d="M281.7,401c13.2,24.4,8.5,51.3-11.4,61.3c-19.9,10.1-47.7-0.4-63.7-23.4L281.7,401z"/>
</g>
<g>
	<path class="st3" d="M162.6,393.2c-15,29.5-14.1,59.9,2.6,69.2c16.7,9.4,43.1-5.7,60.5-33.9L162.6,393.2z"/>
</g>
<g>
	<path class="st4" d="M162.6,72.7c0,0-9.3,37.4,43.7,73.2c0,0-7.9-20.1-10.4-39.2c0,0-7,23.2,42.7,34.9c0,0-9.3-3-9.3-15
		c0,0,77,5.5,90,40.6c13,35.2,17.9,54.5-5.2,79.5c-23.1,25-5.6,47.2,0.9,77.7c6.4,30.6-2.4,38.6-10.2,50C293.4,391,307,412,307,412
		s-12.3-17.3,10.9-32.4c9.7-6.3,24.9-15.4,19.3-46.9c-5.6-31.5,0.9-57.4,12.9-68.5c12.1-11.1,41.7-29.6,32.4-71.2
		c-9.3-41.7-9.3-50-4.6-68.5c4.6-18.5-27.9-62-42.3-78.5c-32.4-37.1-119-62.8-167.5-32.9L162.6,72.7z"/>
</g>
<g>
	<path class="st5" d="M90,424.6l27.6,257.6c8.4,3.2,16.8,6.1,25.3,8.8l-30-270.6L90,424.6z"/>
</g>
<path id="mounth_1_" class="st6" d="M178.9,280c-2.5-1.4-1,0.8-0.6,1.3c3.4,3.6,19.8,16.6,43.2,16.2c24.1-0.4,34.9-9.9,37.8-13
	c0.4-0.4,0.2-1.1-0.4-1.3c-4.4-1.1-19.9-4.6-32.8-4.6c-6.5,0-13.3,2.9-21.8,4.1C197.5,283.6,188.7,285.4,178.9,280z"/>
<path id="eye_5_" class="st7" d="M169,173.2c12.8,0,23.2,10.4,23.2,23.2s-10.4,23.2-23.2,23.2s-23.2-10.4-23.2-23.2
	S156.2,173.2,169,173.2z"/>
<path id="pupill_5_" class="st8" d="M178.2,196.2c0,5.4-4.4,9.9-9.9,9.9c-4,0-7.5-2.4-9-5.9c0.6,0.4,1.3,0.6,2,0.6
	c2.3,0,4.1-1.8,4.1-4.1s-1.8-4.1-4.1-4.1c-0.9,0-1.8,0.3-2.4,0.8c1.2-4,5-7,9.4-7C173.8,186.4,178.2,190.8,178.2,196.2z"/>
<path id="eye_4_" class="st7" d="M274,173.2c12.8,0,23.2,10.4,23.2,23.2s-10.4,23.2-23.2,23.2s-23.2-10.4-23.2-23.2
	S261.2,173.2,274,173.2z"/>
<path id="pupill_4_" class="st8" d="M283.2,196.2c0,5.4-4.4,9.9-9.9,9.9c-4,0-7.5-2.4-9-5.9c0.6,0.4,1.3,0.6,2,0.6
	c2.3,0,4.1-1.8,4.1-4.1s-1.8-4.1-4.1-4.1c-0.9,0-1.8,0.3-2.4,0.8c1.2-4,5-7,9.4-7C278.8,186.4,283.2,190.8,283.2,196.2z"/>
<path class="st0" d="M176.8,53.3c0,0,28.6-7.8,44.6-9.1s35.1-2,35.1-2s-11.8-4.3-35.8-1.5C196.8,43.6,176.8,53.3,176.8,53.3z"/>
<path class="st0" d="M182,69.6c0,0,26.3-4.8,57.6,3.4c31.3,8.1,40,33.3,40,33.3s-11.7-17.6-39.9-26.8S182,69.6,182,69.6z"/>
<path id="eyebrows_5_" class="st4" d="M168.6,144.1c-24.7,0.5-36.3,6.7-39.6,12.5c-4.1,7.3,6.9,4,16.8,0.1
	c9.8-3.9,26.3-6.6,36.4-2.6c10,3.9,15.8,6.8,15.8,1.7C195.3,150.8,183.5,144.1,168.6,144.1z"/>
<path id="eyebrows_4_" class="st4" d="M238.7,155.8c0,5.2,5.8,2.3,15.8-1.7c10.1-4,26.6-1.3,36.4,2.6c9.8,3.9,20.9,7.2,16.8-0.1
	c-3.3-5.9-14.9-12-39.6-12.5C253.1,144.1,241.4,150.8,238.7,155.8z"/>
<g>
	<g>
		<path class="st9" d="M222.5,406c-0.8-0.1-1.5-0.2-2.1-0.3c-0.5-0.1-1-0.2-1.3-0.4c-0.3-0.2-0.6-0.4-0.8-0.6
			c-0.2-0.2-0.3-0.5-0.4-0.9c-0.1-0.3-0.1-0.6,0-0.9c0.1-0.2,0.3-0.5,0.5-0.7c0.2-0.2,0.5-0.4,0.8-0.6c0.3-0.2,0.6-0.4,0.9-0.6
			c0,0,0.1-0.1,0.3-0.2c0.2-0.1,0.4-0.3,0.7-0.6c0.3-0.2,0.6-0.5,1-0.7c0.4-0.3,0.7-0.5,1.1-0.8c0.4-0.3,0.7-0.5,1-0.7
			c0.3-0.2,0.6-0.4,0.8-0.5c0.1-0.1,0.2-0.1,0.4-0.2c0.2,0,0.3,0,0.4,0c0.1,0,0.2,0.1,0.3,0.2c0.1,0.1,0.2,0.2,0.2,0.3
			c0.1,0.1,0.1,0.2,0.2,0.3c0,0.1,0.1,0.2,0.1,0.3c0,0.1,0,0.1,0,0.1c0.1,0.2,0,0.4-0.1,0.6c-0.1,0.1-0.2,0.3-0.4,0.4l-6.5,3.9
			l6.3,0.7c0.1,0,0.2,0,0.4,0.1c0.2,0.1,0.3,0.1,0.4,0.2c0.1,0.1,0.3,0.2,0.4,0.4c0.1,0.1,0.2,0.3,0.3,0.5c0,0.2,0,0.4-0.1,0.6
			c-0.1,0.2-0.3,0.3-0.6,0.4c-0.3,0.1-0.5,0.1-0.9,0.1c-0.3,0-0.7-0.1-1-0.1c-0.4-0.1-0.7-0.1-1.1-0.2
			C223.3,406.1,222.9,406,222.5,406z"/>
		<path class="st9" d="M231.4,408.8c-0.2-0.8-0.2-1.6-0.1-2.5c0.1-0.9,0.4-1.8,0.7-2.6c0.4-0.9,0.9-1.7,1.5-2.4
			c0.6-0.8,1.4-1.4,2.3-1.9c-0.6-0.3-1.2-0.6-1.7-0.9c-0.5-0.3-1-0.7-1.5-1.1c-0.4-0.4-0.8-0.8-1.1-1.2c-0.3-0.4-0.5-0.9-0.6-1.3
			c-0.1-0.6-0.2-1.2-0.2-1.8c0-0.6,0.1-1.1,0.2-1.6c0.1-0.5,0.3-1,0.5-1.4c0.2-0.4,0.5-0.8,0.8-1.2c0.3-0.3,0.6-0.6,1-0.9
			c0.4-0.2,0.7-0.4,1.1-0.5c0.5-0.1,1.1-0.1,1.6,0c0.6,0.2,1.1,0.5,1.6,1c0.5,0.5,1,1.2,1.5,2.1s0.8,2,1.1,3.3
			c0.2,1,0.4,1.9,0.5,2.7c0.1,0.9,0.2,1.7,0.3,2.5c0.4,0.1,0.8,0.3,1.2,0.4c0.4,0.1,0.8,0.2,1.3,0.4c0.1,0,0.2,0.1,0.3,0.1
			c0.1,0,0.3,0.1,0.4,0.1c0.1,0,0.2,0.1,0.3,0.2c0.1,0.1,0.1,0.1,0.2,0.2c0,0.1,0,0.1,0,0.2c0,0.1-0.1,0.1-0.1,0.2
			c-0.1,0.1-0.1,0.1-0.2,0.2c-0.1,0.1-0.1,0.1-0.1,0.1c-0.1,0.1-0.2,0.1-0.4,0.2c-0.3,0.1-0.7,0.1-1.2,0.1c-0.5,0-1-0.1-1.6-0.2
			c0,1.1-0.1,2.2-0.2,3.2c-0.1,1-0.4,1.9-0.6,2.7c-0.3,0.8-0.6,1.5-0.9,2.2c-0.4,0.6-0.7,1.2-1.1,1.7c-0.4,0.5-0.8,0.8-1.3,1.1
			c-0.4,0.3-0.9,0.5-1.3,0.6c-0.5,0.1-0.9,0.1-1.4,0c-0.4-0.1-0.9-0.3-1.2-0.6c-0.4-0.3-0.7-0.7-1-1.2
			C231.8,410.2,231.5,409.6,231.4,408.8z M233.7,408.8c0.1,0.6,0.4,1,0.7,1.3c0.3,0.3,0.6,0.3,1,0.2c0.4-0.1,0.8-0.4,1.2-0.8
			c0.4-0.5,0.8-1.1,1.1-1.9c0.3-0.8,0.6-1.8,0.8-3c0.2-1.2,0.3-2.6,0.2-4.2l-0.4-0.1c-0.6,0.3-1.1,0.6-1.6,1
			c-0.5,0.4-0.9,0.9-1.3,1.4c-0.4,0.5-0.7,1-1,1.6c-0.3,0.6-0.5,1.1-0.6,1.7c-0.2,0.5-0.2,1.1-0.3,1.6
			C233.6,408,233.7,408.5,233.7,408.8z M233.1,393.6c0.1,0.5,0.3,0.9,0.6,1.3c0.3,0.4,0.7,0.8,1.2,1.2c0.5,0.4,1,0.7,1.6,1
			c0.6,0.3,1.3,0.6,2,0.9c-0.1-0.8-0.2-1.7-0.4-2.6c-0.2-0.9-0.4-1.9-0.6-2.9c-0.2-0.7-0.3-1.3-0.5-1.7c-0.2-0.5-0.4-0.8-0.6-1.1
			c-0.2-0.3-0.4-0.4-0.7-0.5c-0.2-0.1-0.5-0.1-0.7,0c-0.2,0.1-0.4,0.2-0.6,0.3c-0.2,0.2-0.4,0.4-0.5,0.6c-0.2,0.2-0.3,0.5-0.4,0.8
			c-0.1,0.3-0.2,0.6-0.3,0.9c-0.1,0.3-0.1,0.6-0.1,0.9C233,393,233,393.3,233.1,393.6z"/>
		<path class="st9" d="M257.2,393.4c0,0.8,0,1.5,0,2.1c0,0.7,0.1,1.2,0.2,1.7c0.1,0.4,0.3,0.7,0.5,0.9c0.2,0.2,0.5,0.2,0.9,0.1
			c0.1,0,0.3-0.1,0.5-0.3c0.2-0.1,0.4-0.3,0.6-0.6c0.2-0.2,0.5-0.5,0.7-0.9c0.3-0.4,0.5-0.8,0.8-1.3c0,0,0.1,0.1,0.2,0.2
			c0.1,0.1,0.2,0.3,0.3,0.5c0.1,0.2,0.3,0.5,0.6,0.8c-0.3,0.6-0.7,1.1-1,1.5c-0.4,0.5-0.7,0.9-1.1,1.2c-0.4,0.3-0.7,0.6-1.1,0.8
			c-0.4,0.2-0.7,0.4-1,0.4c-0.4,0.1-0.7,0.1-1.1,0c-0.3-0.1-0.7-0.2-1-0.4c-0.3-0.2-0.6-0.5-0.8-0.8c-0.2-0.4-0.4-0.8-0.5-1.3
			c0-0.2-0.1-0.4-0.1-0.7c0-0.3,0-0.6-0.1-0.9c0-0.3,0-0.7,0-1.1c0-0.4,0-0.8,0-1.3c-0.8,0.3-1.5,0.5-2.2,0.8s-1.4,0.5-2.1,0.7
			c0,0.5-0.1,1.1-0.1,1.6c0,0.5-0.1,1-0.2,1.4c-0.1,0.4-0.1,0.9-0.1,1.2c0,0.4-0.1,0.7-0.1,1c-0.1,0.7-0.3,1.2-0.5,1.5
			c-0.2,0.3-0.4,0.5-0.6,0.6c-0.1,0-0.3,0-0.4,0c-0.1,0-0.3-0.1-0.4-0.1c-0.1-0.1-0.2-0.1-0.3-0.3c-0.1-0.1-0.2-0.2-0.2-0.4
			c0-0.1,0-0.2,0-0.3c0-1,0.1-1.9,0.2-2.8c0.1-0.9,0.2-1.8,0.3-2.6c-0.3,0.1-0.6,0.1-0.9,0.1c-0.3,0-0.6,0-0.9-0.1
			c-0.3-0.1-0.5-0.2-0.8-0.4c-0.2-0.2-0.5-0.4-0.7-0.7c0-0.1-0.1-0.2-0.1-0.3c0-0.1-0.1-0.2-0.1-0.2c-0.1-0.3,0-0.4,0.2-0.5
			c0.1,0,0.2,0,0.4,0.1c0.2,0.1,0.4,0.2,0.7,0.5c0.3-0.1,0.5-0.2,0.8-0.2c0.3-0.1,0.6-0.1,0.9-0.2l0.8-0.2c0.1-0.6,0.2-1.2,0.2-1.7
			c0.1-0.6,0.1-1.1,0.2-1.6c0-0.3,0-0.7,0-1c0-0.3-0.1-0.6-0.1-0.9c-0.1-0.2-0.1-0.4-0.2-0.6c-0.1-0.2-0.2-0.3-0.3-0.4
			c-0.1-0.1-0.3-0.2-0.4-0.2c-0.2,0-0.4,0-0.6,0c-0.2,0-0.4,0.1-0.6,0.2c-0.2,0.1-0.5,0.3-0.7,0.5c-0.3,0.2-0.5,0.4-0.8,0.7
			c-0.3,0.3-0.6,0.6-0.9,1c-0.1,0.1-0.2,0.3-0.3,0.3c-0.1,0.1-0.2,0.1-0.3,0.1c0,0-0.1-0.1-0.2-0.2c-0.1-0.1-0.1-0.3-0.2-0.6
			c-0.1-0.3-0.1-0.6,0-0.9c0.1-0.3,0.2-0.6,0.4-0.9c0.2-0.3,0.4-0.6,0.7-0.8c0.3-0.3,0.6-0.5,0.9-0.7c0.3-0.2,0.6-0.4,0.9-0.5
			c0.3-0.1,0.6-0.3,0.9-0.3c0.4-0.1,0.8-0.1,1.2-0.1c0.4,0,0.8,0.1,1.1,0.3c0.3,0.2,0.6,0.4,0.9,0.8c0.3,0.4,0.5,0.8,0.6,1.4
			c0.1,0.3,0.1,0.6,0.1,1c0,0.4,0,0.8,0,1.3c0,0.5,0,1,0,1.5c0,0.5-0.1,1.1-0.1,1.7c0.6-0.2,1.3-0.4,2-0.6c0.7-0.2,1.5-0.4,2.2-0.7
			c0.1-1,0.2-2.1,0.3-3.3c0.1-1.1,0.3-2.2,0.4-3.4c0.1-0.4,0.2-0.7,0.3-0.9c0.2-0.3,0.4-0.4,0.7-0.5c0.1,0,0.2,0,0.4,0
			c0.1,0,0.2,0,0.3,0.1c0.1,0.1,0.2,0.1,0.3,0.2c0.1,0.1,0.1,0.2,0.2,0.4c0,0.1,0.1,0.3,0.1,0.5c0,0.2,0,0.4,0,0.6
			c0,0.4-0.1,0.8-0.2,1.3c-0.1,0.4-0.1,0.9-0.2,1.4c-0.1,0.5-0.1,1-0.1,1.5c0,0.5-0.1,1-0.1,1.5c0.4-0.1,0.7-0.2,1-0.3
			c0.3-0.1,0.5-0.2,0.6-0.2c0.1,0,0.1,0,0.2-0.1c0.1,0,0.1,0,0.2,0c0.2,0,0.3-0.1,0.4,0c0.1,0,0.2,0,0.3,0.1c0.1,0,0.1,0.1,0.2,0.2
			c0,0.1,0.1,0.2,0.1,0.3c0,0.1,0,0.2,0,0.3c0,0.1-0.1,0.2-0.2,0.2c-0.1,0.1-0.1,0.1-0.2,0.2c-0.1,0-0.2,0.1-0.2,0.1
			c-0.2,0.1-0.3,0.1-0.3,0.1c-0.1,0-0.1,0-0.1,0.1c0,0,0,0-0.1,0c0,0,0,0-0.1,0c0,0-0.1,0-0.2,0.1c-0.1,0-0.2,0.1-0.4,0.1
			c-0.2,0.1-0.4,0.1-0.6,0.2C257.6,393.2,257.4,393.3,257.2,393.4z"/>
		<path class="st9" d="M270.4,394.5c-0.3,0.2-0.6,0.4-1,0.6c-0.3,0.2-0.6,0.4-0.9,0.7c-0.3,0.2-0.6,0.4-0.9,0.6
			c-0.3,0.2-0.6,0.3-0.8,0.3c-0.3,0.1-0.5,0.1-0.7,0c-0.2-0.1-0.3-0.2-0.4-0.4c0-0.2-0.1-0.4,0-0.5c0-0.2,0.1-0.3,0.1-0.5
			c0.1-0.1,0.1-0.3,0.2-0.4c0.1-0.1,0.1-0.2,0.2-0.2l5.5-3.6l-6.8-0.3c-0.2,0-0.4-0.1-0.6-0.1c-0.1-0.1-0.3-0.2-0.3-0.5
			c0,0,0,0,0-0.1c0-0.1,0-0.2,0-0.3c0-0.1,0-0.2,0-0.3c0-0.1,0-0.2,0.1-0.4c0-0.1,0.1-0.2,0.2-0.3c0.1-0.1,0.2-0.2,0.4-0.2
			c0.1,0,0.3,0,0.4,0c0.2,0,0.5,0,0.8,0.1c0.3,0,0.7,0.1,1.1,0.1c0.4,0.1,0.8,0.1,1.2,0.2c0.4,0.1,0.7,0.1,1.1,0.2
			c0.3,0,0.6,0.1,0.8,0.1c0.2,0,0.3,0,0.3,0.1c0.4,0.1,0.7,0.1,1.1,0.1c0.3,0,0.6,0.1,0.9,0.2c0.3,0.1,0.5,0.2,0.7,0.3
			c0.2,0.2,0.3,0.4,0.4,0.7c0.1,0.4,0.1,0.7,0.1,1c0,0.3-0.2,0.6-0.4,0.9c-0.2,0.3-0.6,0.6-1,1C271.6,393.7,271.1,394.1,270.4,394.5
			z"/>
	</g>
</g>
<g id="tie_6_">
	<path id="tie_8_" class="st10" d="M235.7,454.3c0,0-88.1-49.1-95.1-17.5c-7,31.6-15.1,55.7,8.2,59.7
		C172.2,500.5,235.7,454.3,235.7,454.3z"/>
	<path id="tie_7_" class="st5" d="M220.5,446.9c24.8-13.4,73.9-36.4,79.9-13c8.2,31.5,17.1,55.3-6,60.2
		c-16.2,3.5-53.2-17.3-73.8-29.9C220.4,448.9,220.8,462,220.5,446.9z"/>
</g>
<g>
	<path class="st0" d="M313.7,576.7c0.1,0.1,0.1,0.1,0.2,0.2C313.8,576.8,313.7,576.7,313.7,576.7z"/>
	<path class="st0" d="M335.1,482.6c-0.6,0.2-1.3,0.5-2,0.8C333.8,483.2,334.5,482.9,335.1,482.6z"/>
	<path class="st0" d="M274.3,391.8c2.5,2.8,2.9,5.4,2.2,9.2c-2.2,13-1.5,26,8,36.1c4.3,4.6,5,8.3,3.3,13.8
		c-2.9,9.5-1.7,18.8,5.1,26.4c2.8,3.2,3,5.9,2.1,9.8c-2.8,11.4-1.3,21.9,8.6,29.7c2.1,1.7,1.7,3.4,1.4,5.5
		c-0.9,6.4-1.8,13.2,1.6,18.8c4.3,7,4.9,13.5,0.8,20.5c1.7,3.6,4.8,5.8,7.8,8.2c2.8,1.4,5.3,3.3,8,4.8c0.6,0.3,0.1,0.8-0.4,0.3
		c-0.6-0.6-0.6,0.9-0.7,0c-3.1,0.2-5.7-2.8-9-1.4c-0.4,1.5-0.1,2.5,0.5,3.2c0.1,0.1,0.1,0.1,0.2,0.2c0.9,0.9,2.2,1.4,3.3,2.1
		c-1.4-0.4-2.4-1.1-3.3-2.1c-0.1-0.1-0.1-0.1-0.2-0.2c-0.6-0.6-1.1-1.4-1.6-2.1c-1.9-3-0.3-8.3-5.8-8.9c-0.7,6-0.1,11.6,3.9,16.5
		c1.8,3.8-0.3,8.6,3,12.1c2.5,2.4,6.2,3.1,8.5,5.7c0.7,0.6,1.6,1.1,1.3,2c-0.3,1.1-1.3,0.8-2.2,0.5c-1.9-0.6-3.1-2.4-5-3
		c-0.7-0.1-1.3,0.1-1.8,0.4c-0.2,0.6-0.2,1.3,0,1.9c1.8,4.1,5,7.7,1.2,12.8c-1.8,2.5-0.1,5.7,2.1,8c1.3,1.3,2.5,2.2,1,4.5
		c-8.2,12.2-5.1,23.8,2.2,35.1c3.3,5.2,7.3,10,9,16.1c0.9,1.5,2.7,1.8,3.7,3.1c0.2,3.7,0.4,7.3,0.5,11.2c3.6-1.6,2.5-5.7,5.1-7.8
		c0.2,2.7,0.3,5,0.5,8.8c6.4-7.1,8-14.1,5.6-21.2c-3.4-9.8-4-19.3-2.3-29.5c1.1-6.5,0.2-14.9-4.1-18.8c-3.7-3.5-3.1-5.3-2.2-8.5
		c0.3-0.5,0.4-1.1,0.2-1.7c-2.9-1.2-4.5,2.3-7.2,1.9c-3.2-0.6-0.9-2-0.4-3.1c3.1-2.6,3.3-7.4,7-9.6c1.3-0.9,1-2.1,0.5-3.4
		c0.3-5.1,4.3-9.3,3.8-14.6c-5.6-3.1-1.9-7.3-1.3-11.1c-3.7-6.3,0.8-11.9,1.5-17.8c0.6-1.3-0.1-1.7-1.2-1.8
		c-1.5,0.6-1.4,2.8-2.8,3.3c1.2-1.7,2.6-3.4,1.4-5.8c-0.6-0.3-1.2-0.4-1.8-0.3c-4,1.9-6.1,6.3-10.4,8.1c4.3-6,8-12.3,12.7-17.9
		c0.8-0.6,1.6-1.1,0.8-2.2c-0.9-2.7-1.7-5.4-2.6-8.1c-0.5-0.4-1.1-0.6-1.7-0.6c-2.3,0.8-4.8,1-7.7,2.1c2.2-1,4-1.1,5.6-1.7
		c3.5-1.2,5.9-3.8,8.6-6c-0.8-4.3-0.9-4.3-4.6-2.8c-3.2,1.3-5.9,4-11.5,3.5c6.1-4.9,11.7-7.8,15.9-12.9c2,3.9-2,8.3,3.1,10.1
		c2.6-9.5,2.7-18.7-2.6-27.4c-1-0.9-0.3-2.6-1.6-3.4c-2.9-1.6-5.1,0.7-7.7,1.3c-0.4,0.1-0.5,0.3-0.5,0.3c0.4,0.8-0.6-0.1,0.3-0.4
		c2.7-1.1,5.4-2.2,8.4-2.2c2.7-0.9,4.4-3,5.9-5.2c0.7-3.8-0.4-5.7-4.3-3.4c-4,2.4-7.8,5.3-11.7,6.4c0.9-0.5,2.5-1.1,4.1-1.8
		c1.6-0.7,4-1.7,2.6-3.8c-0.6-0.9-1.4-1-2.2-0.7c-0.6,0.3-1.3,0.6-2,0.8c-0.3,0.1-0.6,0.2-0.9,0.2c0.3-0.1,0.6-0.1,0.9-0.2
		c0.7-0.2,1.3-0.6,2-0.8c4.6-2.2,7.6-6.9,12.4-8.9c1.5,0.6,1.5,3.2,3.8,2.6c1.4-7.8-0.4-15-4-21.9c0.5-1.3-0.3-1.8-1.3-2.1
		c-2.4-0.1-4.2,1.6-6.2,2.6c-0.3,0.1-0.6,0.2-0.9,0.3c-0.2,0.1-0.5,0.2-0.7,0.3c-0.3,0-0.7,0.1-1,0.1c-2.4,0.7-4.8,1.5-6.8,2.2
		c-1.2,0.5-2.2,0.9-3.2,1.1c1-0.3,2.1-0.7,3.2-1.1c2-0.8,4.3-1.8,6.8-2.2c0.6-0.2,1.1-0.3,1.7-0.5c2.8-1.4,5.5-3,7.6-5.3
		c2.8-3,8.5-7.7,6.7-12.9c-3-0.8-6.1,3.9-8,5.2c-7.2,4.9-14.6,9.4-22.3,10.9c4.9-2.3,12.4-1.9,15-9.7c-5.5-2.2-8.8,2.8-12.8,3.7
		c5.4-3.5,11.6-6.6,17.4-10.4c5.1-2.6,5.8-9.3,11-11.9c0.8-0.5,1.5-1.1,0.8-2.2c0.1-2.2-0.9-4.4,1.2-6.4
		c11.5-11.1,13.7-25.2,13.9-40.3c0.1-6.9-2.7-10.8-8.6-13.2c-9.2-3.8-18.3-2.9-27.5,0.3c-5.5,1.9-9.8,8-14.8,7.7
		c-5.4-0.3-10.4-5.4-15.8-7.6c-9.3-3.8-19-5.6-28.8-2c-8.3,3-10.7,8.4-7.9,16.8C267.9,382.9,270.6,387.7,274.3,391.8z"/>
	<path class="st0" d="M338.2,455.5c0.2-0.1,0.5-0.2,0.7-0.3c-0.6,0.2-1.1,0.3-1.7,0.5C337.6,455.6,337.9,455.5,338.2,455.5z"/>
	<path class="st0" d="M330.4,457.8c-1.2,0.4-2.2,0.8-3.2,1.1C328.2,458.7,329.2,458.3,330.4,457.8z"/>
	<path class="st4" d="M340.4,524.5c1.2-2.5,0.1-2.7-1.8-1.7c-3.4,1.8-6.7,3.8-10.2,5.5c-1.4,0.7-3.4,0.9-4.2-0.9
		c-0.7-1.6-0.7-3.4,1.4-4.6c5.6-3.4,11.7-6.2,15.1-12.4c0.2-0.4,1.5-0.8,1.7-0.6c1.2,1.1,1.8,2.6,1.9,4.2c0.2,3-2.7,6,0,9
		c-0.3,2.3-1.1,4.3-3.8,4.6C339.5,526.5,339.7,525.5,340.4,524.5z"/>
	<path class="st4" d="M311.6,575.3c0.6-0.2,0.8-0.7,0.8-1.3c3.8-0.4,6.2,4,10.3,2.7c1-2.4-1-3-2.4-3.9c-1.9-1.1-3.9-1.9-4.5-4.4
		c-3.2-1.8-4-6.5-8.3-6.9c-1.4,1.1-1.5,2.5-1.2,4C310.1,567.7,308,573,311.6,575.3z"/>
	<path class="st4" d="M340.4,490.1c2-1.5,4-3,6-4.4c1-4.5-1.2-9.6,2.5-13.6c0.8,1.4,1.6,2.8,2.5,4.2c0.4,5.7-2.6,9.9-6,13.9
		c-1.4,1.7-3.8,2.6-3.6,5.4c-1.3-0.6-1.3-1.9-1.4-3.1C339.6,491.7,339.6,490.9,340.4,490.1z"/>
	<path class="st4" d="M329.1,586.7c2.6-1.6,6.8-2.4,8.1-2.5c1-0.1,2.1,0.5,3.2,0.8c0.7-3.8,0.6-7.6-1.3-11.1c-1.4,2-2.7,4.2-4.2,6.1
		C333.9,581.2,326.2,588.4,329.1,586.7z"/>
	<path class="st4" d="M340.5,556.1c-0.4-0.4-0.8-0.9-1.2-1.3c-1.4-0.5-0.6-2.1-1.4-2.9c-0.5,0-0.9,0.1-1.4,0.1
		c-0.9-3.9,0.7-7.6,1.3-11.3c0.4-0.5,0.9-0.9,1.3-1.4C341.7,544.8,342.9,550.3,340.5,556.1z"/>
	<path class="st4" d="M314,601.8c0.1-0.6,0.2-1.2,0.3-1.7c2-2-0.3-4.1,0.1-6.1c-3.1-3.3-1.9-8.2-4.3-11.8
		C310.3,588.9,309.2,596,314,601.8z"/>
	<path class="st4" d="M352.8,424.1c0.5-0.5,1-1.1,1.5-1.6c2.6,5.4,3,11,1,16.7c-0.6,0.4-1.2,0.4-1.7-0.1c-0.9-1-1.4-2.2-1.5-3.6
		C352.8,431.8,351.6,427.8,352.8,424.1z"/>
	<path class="st4" d="M354.1,439.2c0.4,0,0.8,0,1.2,0c-1.4,5.7-3.4,11.1-7.9,15.2c-0.5-0.5-1-1-1.5-1.5
		C347.4,447.6,350.8,443.4,354.1,439.2z"/>
	<path class="st4" d="M340.4,524.5c0,1,0.1,2,0.1,3.1c-0.8,1.8-1.9,3.3-4,3.8c-0.5,0-1.1,0-1.6,0c-1.5,0.9-2.7,1.1-2.6-1.3
		C335,528.2,337.7,526.3,340.4,524.5z"/>
	<path class="st4" d="M336.5,615.4c2.7-5.3,2.7-10.5,0-15.8c-0.4,1-0.8,2-1.2,3c-1.5,4-1.6,7.8,1,11.4
		C336.4,614.5,336.4,614.9,336.5,615.4z"/>
	<path class="st4" d="M333.3,681.4c0.6-3.2-1.9-2.7-3.7-3.1c-0.1,2.1-0.7,4.2,0.4,6.2C331.9,684.2,332.2,682.3,333.3,681.4z"/>
	<path class="st4" d="M300.7,426.7c6.1,4.4,13.2,6.9,19.6,10.7c-14.5-2.4-27.3-8.2-37.6-19c-3.5-4.5-4.7-9.5-3-14.9
		c1.1-5.6,0.3-4.9,2.5-1.7c3.1,4.5,7.4,8.8,10.2,12.6c2,1.4-4.4,3.4,0.3,4.7C295.3,421.7,299,423.1,300.7,426.7z"/>
	<path class="st4" d="M329.3,637.1c-1.8,1.1-0.2,3.4-2.1,3.8c-0.5-3-0.8-5.9-1.4-8.8c-0.2-0.9,0.2-2.7-1.4-2.6
		c-1.6,0.2-1.6,2-1.9,3.2c-0.8,0.8-1,1.8-1.2,2.9c0-1.2-0.4-2.2-1.2-3.1c-7.8,12.1,0,20.7,6.8,30.9
		C327.1,654,330.3,645.9,329.3,637.1z"/>
	<path class="st4" d="M352.8,424.1c1.8,4.5,2.7,8.9-1,12.9c-0.1,0.3-0.2,0.5-0.3,0.8c-7.7,10.1-18.7,13.7-30.3,16.4
		c5.1-4.4,12.5-5.2,16.7-10.9c0.2-1.4,1.1-2.6,2.3-3.1c2.5-1.1,4-2.3,1.6-4.9c3.1-2.9,5.7-6.1,7.8-9.9
		C350.4,424,350.8,422.2,352.8,424.1z"/>
	<path class="st4" d="M348.7,385.3c2.9-2.5,5.3-5.3,7.5-8.5c1-1.4,4.2-5.7,4.7-8.2c1.7-8.6,1.3,7.5,1.4,9.7c0.1,1.9,0.9,3.8-0.3,5.6
		c-1.2,2.2-1.7,4.9-4.5,5.8c-6.9,8-19.1,14.2-29.1,14.3c4.8-2.6,8.9-4.9,13-7.1c1.7-3.7,5.5-5.2,8.2-7.8
		C351.8,387.3,347,387,348.7,385.3z"/>
	<path class="st4" d="M348.9,472.2c-0.2,4.2-0.2,8.5-2,12.4c-0.2,0.4-0.8,0.4-0.9-0.1c-0.2-1.4-0.2-3.1-2.9-0.7
		c-4.2,3.7-9.4,5.4-15.6,7.4c-0.5,0.2-0.9-0.5-0.5-0.8c3-2.3,6.2-3.2,9-5.7c0.4-0.4,0-1-0.5-0.8c-2.5,1.1-4.6,2-7,3
		c-0.4,0.2-0.8-0.3-0.6-0.7c1.4-2.6,3.7-3.3,5.6-4.4c4.6-2.6,10.1-4.9,11.8-10.1c1.9-5.7,1.4-4.9,3.5,0.3
		C348.9,472.1,348.9,472.2,348.9,472.2z"/>
	<path class="st4" d="M292.4,462.5c-0.2-0.1-0.5-0.2-0.5-0.4c-1-4.2-4.8-9.6-0.4-12.2c2.1-1.2,5.8,5.6,9.1,8.4
		c1.3,4.8,8,4.5,9.1,9.6c2.2,2.9,6.3,2.5,10.1,6.2c-9.9-2.6-17.6-5.5-24.2-11.1c-0.7-0.6-1.9-4.8-3.4-0.4L292.4,462.5z"/>
	<path class="st4" d="M292.5,420c-2.7-0.2-4.4-1.6-5.3-4.4c1.9-0.3,4.4,2.3,5.2-1.2c10.3,5.9,21.1,11,31.2,18.7
		c-8.2-1.2-14.6-5.3-21.5-7.8C298.3,424.6,295.4,422.3,292.5,420z"/>
	<path class="st4" d="M317.3,511.8c1.1,0.6,2.2,1.3,5,2.9c-9.4-0.2-14.5-5.9-20.8-8.4c-1.1,0.4-1.6-0.3-2.1-1.1
		c-2.1-4.2-3.9-8.5-0.9-13.6c3.2,3.4,6.1,6.5,9,9.6c0.5,1.2,0.1,2.7,1.3,3.6C311.4,507.3,315.2,508.6,317.3,511.8z"/>
	<path class="st4" d="M337.8,540.8c2.5,4.1,0.2,7.7-1.3,11.3c-2.3,3.7-5.7,6.5-9.1,9.3c-0.7,0.6-1.6,1.7-2.8,0.8
		c1.6-1.7-2.2-2.1-0.8-3.9c4.5-5.9,9.6-11.3,12.4-18.4C336.7,540.1,337.3,540.4,337.8,540.8z"/>
	<path class="st4" d="M310.1,539.6c-2.6-3.6-3.9-9.1-2.1-13.6c11.6,20,17.5,17.6,19.9,20c-6.8-0.6-11.2-4.6-16.6-6.4
		C310.9,540.2,310.6,540.2,310.1,539.6z"/>
	<path class="st4" d="M280,403.6c-0.8,5.3,0.9,10.1,2.7,14.9c3.5,9.4,10.3,15.5,19.2,19.6c0.6,1.4-0.1,2.1-1.3,2.6
		C285.9,436.1,275.2,416.7,280,403.6z"/>
	<path class="st4" d="M341.9,435.2c1.1,2.9,3,1.6,5.9-0.4c-2.3,5.7-7,5.9-9.8,8.4c-5.6,0.7-9.9,5.3-16.4,5.6
		C327.7,442.5,335,439.1,341.9,435.2z"/>
	<path class="st4" d="M348.7,385.3c0.5,0.4,1.1,0.9,1.6,1.3c1.2,0.8,3.3-1.4,3.6,0.5c0.3,2-1.8,2.5-3.6,2.6
		c-3.3,2.2-6.4,4.9-10.5,5.8c-4.9,1.8-9.5,4.6-15.9,5.5C332.6,394.8,340.3,389.5,348.7,385.3z"/>
	<path class="st4" d="M356.7,388.7c1.1-2,1.6-4.5,4.2-5.5c-0.1,10.1-4.4,17.6-13.7,22.1c-1.6,0.2-3.7,2-4.1-1.4
		c5.8-2.7,10.7-6.5,13.9-12.2C357.7,390.6,358.8,389.5,356.7,388.7z"/>
	<path class="st4" d="M329.5,616.4c3.6,2.9,4.2-2.4,6.8-2.4c-0.3-3.8,0.6-7.7-1-11.4c-4.3,1.9-4.9,6.9-8.1,9.8
		C328.5,613.4,329.3,614.8,329.5,616.4z"/>
	<path class="st4" d="M336.1,663.3c-0.7-5.3,2.6-10.4,0.9-16.9c-6.4,7.2-5.5,14.1-2.3,21.2C336.5,666.6,335,664.5,336.1,663.3z"/>
	<path class="st4" d="M351.6,437.7c0-0.3,0.1-0.6,0.3-0.8c1.9-0.4,2,1,2.3,2.2c-2.5,4.7-4.4,9.8-8.2,13.7c-1.8,1-3.5,2-5.3,3
		c-1.5,0.4-3.1,1.1-2.9-1.6C343.9,450.1,350.7,446.4,351.6,437.7z"/>
	<path class="st4" d="M309.8,467.9c-2.7-3.5-9.8-2.8-9.1-9.5c5,2.5,10.2,4.5,14.8,8.6C313.6,468.9,311.4,467.3,309.8,467.9z"/>
	<path class="st4" d="M307.1,505.1c-4.8-1.7,0.2-2.6,0.3-3.9c5.6,2.7,11.3,5.4,16.2,9.8c-2,1.7-3.4-0.6-5-0.4
		C314.2,509.8,310.9,506.9,307.1,505.1z"/>
	<path class="st4" d="M299.3,505.2c0.7,0.4,1.4,0.8,2.1,1.1c2.3,5.6,8.1,7.7,12.4,11.6C307.4,518.4,301.9,513.4,299.3,505.2z"/>
	<path class="st4" d="M319,603.8c2.2,1.4,5.1,2.4,6.7-0.2c1.7-2.7-1.5-3.6-3.2-4.9c-1.7,0.9-3-0.6-4.5-0.7c-1.6-0.1-3.4,0-2.4,2.5
		C316.7,601.6,317.7,602.9,319,603.8z"/>
	<path class="st4" d="M292.5,462.2c5.8,6.5,7.8,9.2,13.6,11.4c0.1,2.6-1.2,2.2-2.8,1.4c-5.4-2.6-9.9-6.9-11.4-12.9
		C291.8,458.8,292.5,462.2,292.5,462.2z"/>
	<path class="st4" d="M318,573.5c1.8,0.8,3.8,1,4.6,3.2c1.5-0.1,3.1-0.2,5.3-0.4c-3.7-3.9-8.2-5.6-12.2-7.9
		C314.1,571.2,315.9,572.6,318,573.5z"/>
	<g>
		<path class="st4" d="M281.1,372.1c-3.2-5-2.7-28.7-2.3-27.2c1.7,5.3,3.7,9.3,4.2,10.3c2.7,4.6,6.7,8,10.6,11.4
			c0.7,1.1,0,2.1-0.3,3.1c0.5,2.9,2,2.3,4.6,6.3c7.3,5.4,15.9,8.3,23.6,12.9c-13.1-2.5-25.3-7.1-35.6-15.8c-0.9-0.8-1.5-3.4-3.5-1.1
			C282,372.7,281.6,372.7,281.1,372.1z"/>
		<path class="st4" d="M292.3,369.6c0.4-1,0.9-2,1.3-3.1c9.4,4.4,18.4,9.6,27.8,16.6c-9.4-1.3-16.2-5.9-23.6-8.9
			C295.7,373,292.7,372.9,292.3,369.6z"/>
		<path class="st4" d="M281.1,372.1c0.4,0,0.8-0.1,1.2-0.1c4.7,7,10.7,12.6,18.2,16.7c1.1,1.6,1.1,2.6-1.3,2.5
			C290.1,387.8,284.1,381.3,281.1,372.1z"/>
		<path class="st4" d="M299.2,391.2c1-0.5,1.3-1.4,1.3-2.5c5.4,1.2,10.5,3.4,15.3,6.5C310.3,393.9,304.7,392.5,299.2,391.2z"/>
	</g>
	<path class="st4" d="M314.3,600.1c0.5,0.1,0.9,0.2,1.3,0.5c0.5-1.7,1.6-2,2.9-0.9c1.8,1.5,3.1,1.4,4-0.9c-2.3-2.2-5.2-3.5-8.1-4.7
		C311.8,596,314.8,598.1,314.3,600.1z"/>
	<path class="st4" d="M343.1,404c1,1.6,2.6,1.1,4.1,1.3c-4.9,1.4-9.9,2.8-14.8,4.2c-0.2-0.5-0.4-1-0.6-1.5
		C335.6,406.7,339.4,405.4,343.1,404z"/>
	<path class="st4" d="M337.7,454.3c0.6,1.3,1.8,1.3,2.9,1.6c-5.1,1.4-10.1,2.8-15.2,4.2C329.2,457.1,333.3,455.3,337.7,454.3z"/>
	<path class="st4" d="M342.8,674.6c-1.8-4.1-6-6.6-6.7-11.3c-1.6,1.1-1.1,2.8-1.4,4.3C336,671.6,339.9,672.4,342.8,674.6z"/>
	<path class="st4" d="M329.5,616.4c1.6-1.2,1.7-2.8,0.7-4.1c-0.3-0.5-2,0-3,0.1c-1.2,1.2-3.3,2.3-1.9,4.4
		C326.6,618.8,328.1,616.7,329.5,616.4z"/>
	<path class="st4" d="M322.4,641.9c0-3,0-6.1,0-9.1c-0.8,0-1.5-1.5-2.5-0.2C320.2,635.7,319,639.1,322.4,641.9z"/>
	<path class="st4" d="M340.4,490.1c0,0.8,0,1.6,0,2.4c-3.7,0.8-7.4,1.7-11.1,2.5C332.6,492.4,336.1,490.3,340.4,490.1z"/>
	<path class="st4" d="M303.3,475c1.1-0.1,2.3-0.1,2.8-1.4c3,0.7,6.1,1.3,9.3,4C310.6,477.4,306.9,476.7,303.3,475z"/>
	<path class="st4" d="M307.1,505.1c4.3,0.8,8,2.9,11.5,5.4c-0.4,0.4-0.8,0.8-1.2,1.2C313.3,510.4,310,508.1,307.1,505.1z"/>
	<path class="st4" d="M300.6,440.7c0.4-0.9,0.9-1.8,1.3-2.6c2.7,1,5.4,1.9,8.1,2.9c0.3,1.2,0.1,1.8-1.3,1.3
		C305.9,441.7,303.2,441.2,300.6,440.7z"/>
	<path class="st4" d="M337.9,551.9c0.5,1,1,1.9,1.4,2.9c-1.1,2.9-2.6,5.5-7.1,7.1C334.6,557.9,337.6,555.6,337.9,551.9z"/>
	<path class="st4" d="M321.8,580.8c-4.2-2.6-7.2-4.2-9.4-6.8c-0.3,0.4-0.5,0.9-0.8,1.3C313.6,578.4,316,580.8,321.8,580.8z"/>
	<path class="st4" d="M292.5,420c3.6,1,6.5,3.3,9.6,5.4c-0.5,0.4-0.9,0.9-1.4,1.3C297.7,424.8,294.1,423.5,292.5,420z"/>
	<path class="st4" d="M310.1,539.6c0.4,0,0.8,0,1.2-0.1c1.8,2.3,3.7,4.6,5.7,7.1C313.6,545.5,311,543.5,310.1,539.6z"/>
	<path class="st4" d="M308.6,442.2c0.4-0.4,0.9-0.9,1.3-1.3c2.5,0.9,5,1.7,9.1,3.2C314,445,311.3,443.8,308.6,442.2z"/>
	<path class="st4" d="M332.4,530c0.5,1.3,1.6,1.1,2.6,1.3c-2.8,2.2-6.5,1.2-10.8,3.6C326.9,531,330,531.2,332.4,530z"/>
	<path class="st4" d="M289.3,382.1c1.8,1.5,3.7,3.1,5.5,4.6c0,0.6,0.1,1.1,0.1,1.7c-2.4-1.7-5.1-3-7-5.1
		C286.4,381.7,288.4,382.1,289.3,382.1z"/>
</g>
<path class="st4" d="M385.2,242.5c0,0-6.7,28.9-13.1,43.6c-6.5,14.7-14.9,31.9-14.9,31.9s9.4-8.4,18.3-30.8
	C384.3,264.7,385.2,242.5,385.2,242.5z"/>
<path class="st3" d="M66.4,585.5C46.9,494,14,500.4,14,500.4S9,554.1,0,616.1c18.9,14.1,37.7,28.5,59.2,39.7
	c2.2,1.2,4.4,2.3,6.6,3.4l5.2-71.3C71,587.9,64.6,592.9,66.4,585.5z"/>
</svg>
