<?xml version="1.0" encoding="utf-8"?>
<!-- Generator: Adobe Illustrator 22.0.0, SVG Export Plug-In . SVG Version: 6.00 Build 0)  -->
<svg version="1.1" id="Calque_1" xmlns="http://www.w3.org/2000/svg" xmlns:xlink="http://www.w3.org/1999/xlink" x="0px" y="0px"
	 viewBox="0 0 473.2 540.5" style="enable-background:new 0 0 473.2 540.5;" xml:space="preserve">
<style type="text/css">
	.st0{fill:#B4694E;}
	.st1{fill:#B46441;}
	.st2{fill:#C2C1C2;}
	.st3{fill:#4F4F4F;}
	.st4{fill:none;}
	.st5{fill:#808080;}
	.st6{fill:#E7E6E7;}
	.st7{fill:#582D11;}
	.st8{fill:#DFDFDF;}
	.st9{fill:#4188C5;}
	.st10{fill:#FFFFFF;}
	.st11{fill:#3F2609;}
	.st12{fill:#3373A9;}
	.st13{fill:#C08B7E;}
	.st14{fill:#474B56;}
	.st15{fill:#3D4251;}
</style>
<path class="st0" d="M417.9,540.4c14.6,0.1,29.2,0.1,43.8-0.1c-2.4-64-2.9-117.8-2.9-117.8S437.8,482,417.9,540.4z"/>
<path class="st0" d="M2.6,439.1c0.1,0.1,0.2,0.1,0.3,0.2c1.4,0.7,2.8,1.4,4.3,2c-2.8-8-4.5-12.7-4.5-12.7S2.7,432.4,2.6,439.1z"/>
<g>
	<path class="st1" d="M463.5,507.8c0,0-0.2-28.9-4.5-57.1c-5.3-35.3-9.8-48.6-58.8-54.3c-18.5-2.2-86.1-7.3-104.9-18
		c-18.7-10.7-15.8-64.3-15.8-64.3h-51.2h-51.2c0,0,3,53.6-15.8,64.3c-18.8,10.7-86.3,15.9-104.9,18C14.1,401.2,5.1,411.9,0,437.8
		c1,0.5,2,1,2.9,1.5c36,17,70,36,106,51c16.2,6.6,32.7,12.4,49.2,17.4h70.2H463.5z"/>
</g>
<g>
	<path class="st2" d="M471.6,540.1v0.1c0.5,0,1,0,1.5,0l-0.2-1.7L471.6,540.1z"/>
	<polygon class="st2" points="471.6,527.4 471.6,532.1 472.1,531.5 	"/>
	<polygon class="st2" points="472.3,532.9 471.6,533.7 471.6,538.5 472.8,537.1 	"/>
	<polygon class="st3" points="472.1,531.5 471.6,532.1 471.6,533.7 472.3,532.9 	"/>
	<polygon class="st3" points="472.8,537.1 471.6,538.5 471.6,540.1 473,538.4 	"/>
	<polygon class="st2" points="455.3,475.6 456.6,475.6 460.5,475.6 461.8,475.6 465.4,475.6 460.7,436.8 451.3,475.6 451.4,475.6 	
		"/>
	<polygon class="st2" points="465.6,477.4 444.8,502.6 443.2,509.3 466.1,481.6 	"/>
	<polygon class="st2" points="466.3,482.9 442.7,511.5 441,518.2 466.8,487.1 	"/>
	<polygon class="st2" points="469.4,509.2 468.9,505.1 456.5,520.1 460.4,520.1 	"/>
	<polygon class="st2" points="467.4,492.6 466.9,488.5 440.8,520.1 444.7,520.1 	"/>
	<polygon class="st2" points="470.1,514.7 469.6,510.6 461.7,520.1 465.6,520.1 	"/>
	<polygon class="st2" points="468.1,498.1 467.6,494 446,520.1 449.9,520.1 	"/>
	<polygon class="st2" points="470.3,516.1 466.9,520.1 470.8,520.1 	"/>
	<polygon class="st2" points="468.8,503.7 468.3,499.5 451.3,520.1 455.2,520.1 	"/>
	<polygon class="st2" points="451.4,475.6 451.3,475.8 449.7,482.4 455.3,475.6 	"/>
	<polygon class="st2" points="456.6,475.6 449.1,484.7 447.5,491.4 460.5,475.6 	"/>
	<polygon class="st2" points="465.4,475.6 461.8,475.6 447,493.6 445.4,500.3 465.4,476 	"/>
	<polygon class="st3" points="451.3,475.6 451.3,475.8 451.4,475.6 	"/>
	<polygon class="st3" points="455.3,475.6 449.7,482.4 449.1,484.7 456.6,475.6 	"/>
	<polygon class="st3" points="460.5,475.6 447.5,491.4 447,493.6 461.8,475.6 	"/>
	<polygon class="st3" points="465.4,476 445.4,500.3 444.8,502.6 465.6,477.4 	"/>
	<polygon class="st3" points="466.1,481.6 443.2,509.3 442.7,511.5 466.3,482.9 	"/>
	<polygon class="st3" points="466.9,488.5 466.8,487.1 441,518.2 440.6,520.1 440.8,520.1 	"/>
	<polygon class="st3" points="467.6,494 467.4,492.6 444.7,520.1 446,520.1 	"/>
	<polygon class="st3" points="468.3,499.5 468.1,498.1 449.9,520.1 451.3,520.1 	"/>
	<polygon class="st3" points="468.9,505.1 468.8,503.7 455.2,520.1 456.5,520.1 	"/>
	<polygon class="st3" points="469.6,510.6 469.4,509.2 460.4,520.1 461.7,520.1 	"/>
	<polygon class="st3" points="470.3,516.1 470.1,514.7 465.6,520.1 466.9,520.1 	"/>
	<path class="st2" d="M471.6,538.5v-4.7v-1.6v-4.7l-0.9-7.3h-3.8h-1.3h-3.9h-1.3h-3.9h-1.3h-3.9h-1.3H446h-1.3h-3.9h-0.2l-4.9,20.4
		c12,0,24-0.1,35.9-0.3v-0.1V538.5z"/>
</g>
<g>
	<path class="st4" d="M146.1,380.6L146.1,380.6c-2.9,0.8-6.2,1.6-9.8,2.3c25.1,11.3,61.6,18.3,100.8,18.3c36.9,0,71.4-6.2,96.3-16.4
		c-7.9-1.2-15.1-2.6-20.7-4.2h0c0,0-19.6,12.5-83.1,12.5C166.2,393.1,146.1,380.6,146.1,380.6z"/>
	<path class="st5" d="M132.4,384.8c0.8,0.4,1.7,0.8,2.6,1.2c0.3,0.1,0.6,0.3,0.9,0.4c0.9,0.4,1.8,0.8,2.6,1.1
		c0.3,0.1,0.6,0.3,0.9,0.4c0.9,0.4,1.8,0.7,2.7,1.1c0.3,0.1,0.6,0.2,0.9,0.4c0.9,0.3,1.8,0.7,2.8,1c0.1,0,0.1,0,0.2,0.1
		c1.8,0.7,3.7,1.3,5.6,1.9c0.7,0.2,1.3,0.4,2,0.6c0.3,0.1,0.6,0.2,1,0.3c1,0.3,1.9,0.6,2.9,0.9c0.3,0.1,0.7,0.2,1,0.3
		c1,0.3,2,0.6,2.9,0.8c0.3,0.1,0.7,0.2,1,0.3c1,0.3,2,0.5,3,0.8c0.3,0.1,0.7,0.2,1,0.2c1,0.2,2,0.5,3,0.7c0.3,0.1,0.7,0.2,1,0.2
		c1,0.2,2,0.5,3.1,0.7c0.3,0.1,0.7,0.1,1,0.2c1,0.2,2.1,0.4,3.1,0.6c0.4,0.1,0.7,0.1,1.1,0.2c1.1,0.2,2.1,0.4,3.2,0.6
		c0.4,0.1,0.7,0.1,1.1,0.2c1.1,0.2,2.1,0.4,3.2,0.5c0.2,0,0.4,0.1,0.5,0.1c11.1,1.8,22.9,3,35.2,3.6c0.3,0,0.6,0,1,0
		c0.4,0,0.8,0,1.2,0.1c1.2,0,2.4,0.1,3.6,0.1c0.4,0,0.8,0,1.2,0c1.2,0,2.5,0.1,3.7,0.1c0.4,0,0.8,0,1.2,0c1.1,0,2.2,0,3.3,0
		c0.2,0,0.3,0,0.5,0c0.4,0,0.8,0,1.3,0c1.3,0,2.5,0,3.8,0c0.4,0,0.9,0,1.3,0c1.3,0,2.6-0.1,3.8-0.1c0.4,0,0.9,0,1.3,0
		c1.3,0,2.6-0.1,3.9-0.2c0.4,0,0.9,0,1.3-0.1c0.9,0,1.9-0.1,2.8-0.2c12.3-0.7,24.2-2.1,35.2-4.1c0.1,0,0.2,0,0.3-0.1
		c0.5-0.1,1-0.2,1.5-0.3c1.6-0.3,3.1-0.6,4.7-0.9c0.5-0.1,1.1-0.2,1.6-0.3c1.6-0.3,3.2-0.7,4.8-1.1c0.6-0.1,1.1-0.3,1.7-0.4
		c1.7-0.4,3.3-0.8,5-1.3c0.6-0.2,1.1-0.3,1.7-0.5c1.8-0.5,3.5-1,5.2-1.5c0.6-0.2,1.2-0.4,1.8-0.6c1.9-0.6,3.7-1.2,5.5-1.8
		c0.5-0.2,0.9-0.3,1.4-0.5c0.3-0.1,0.6-0.2,0.8-0.3c1.9-0.7,3.8-1.4,5.7-2.2c0.7-0.3,1.4-0.6,2.1-0.9c1.2-0.5,2.4-1.1,3.6-1.6
		c-2.2-0.3-4.3-0.6-6.4-1c-24.9,10.2-59.4,16.4-96.3,16.4c-39.2,0-75.7-7-100.8-18.3c-1.8,0.4-3.7,0.7-5.7,1.1
		c0.3,0.1,0.6,0.3,0.9,0.4C131.8,384.5,132.1,384.6,132.4,384.8z"/>
	<path class="st5" d="M402.4,426.4h1.3h3.8h1.3h3.8h1.3h3.8h1.3h3.8h1.3h3.8h1.3h3.8h0.6v-0.6v-3.8v-1.3v-3.8v-1.3v-3.8v-1.3v-3.8
		v-1.3v-3.8v-1.3v-1.3c-8.2-2.9-18.6-5-31.9-6.5c-0.9-0.1-2.1-0.2-3.3-0.4v2.9v1.3v3.8v1.3v3.8v1.3v3.8v1.3v3.8v1.3v3.8v1.3v3.8v0.8
		h0.7H402.4z"/>
	<path class="st6" d="M454.3,414.4c-0.5-0.8-1-1.6-1.5-2.3l-14,14.3h3.8L454.3,414.4z"/>
	<path class="st6" d="M456.1,417.8c-0.4-0.9-0.8-1.7-1.3-2.6l-11,11.2h3.8L456.1,417.8z"/>
	<path class="st6" d="M441.9,402.7l-8.7,8.9v3.8l11.1-11.4C443.5,403.7,442.7,403.2,441.9,402.7z"/>
	<path class="st6" d="M438.6,401l-5.4,5.5v3.8l7.9-8.1C440.3,401.9,439.4,401.4,438.6,401z"/>
	<path class="st6" d="M434.1,399.2c-0.3-0.1-0.6-0.2-0.9-0.3v1.3L434.1,399.2z"/>
	<path class="st6" d="M457.5,421.5c-0.3-1-0.7-1.9-1-2.8l-7.6,7.8h3.8L457.5,421.5z"/>
	<path class="st6" d="M458.5,425.5c-0.2-1-0.5-2.1-0.8-3l-3.9,4h3.8L458.5,425.5z"/>
	<path class="st6" d="M445,404.7l-11.9,12.1v3.8l14-14.4C446.5,405.7,445.8,405.2,445,404.7z"/>
	<path class="st6" d="M435,399.5l-1.8,1.9v3.8l4.5-4.6C436.8,400.3,435.9,399.9,435,399.5z"/>
	<path class="st6" d="M452.3,411.4c-0.5-0.7-1.1-1.4-1.8-2l-16.7,17.1h3.8L452.3,411.4z"/>
	<path class="st6" d="M447.9,406.9l-14.7,15.1v3.8l16.7-17.1C449.2,408.1,448.6,407.5,447.9,406.9z"/>
	<path class="st5" d="M433.2,401.4l1.8-1.9c-0.3-0.1-0.6-0.2-0.9-0.4l-0.9,1V401.4z"/>
	<path class="st5" d="M437.7,400.6l-4.5,4.6v1.3l5.4-5.5C438.3,400.9,438,400.8,437.7,400.6z"/>
	<path class="st5" d="M441.1,402.3l-7.9,8.1v1.3l8.7-8.9C441.6,402.6,441.4,402.4,441.1,402.3z"/>
	<path class="st5" d="M444.3,404.2l-11.1,11.4v1.3l11.9-12.1C444.8,404.5,444.5,404.3,444.3,404.2z"/>
	<path class="st5" d="M447.2,406.3l-14,14.4v1.3l14.7-15.1C447.7,406.7,447.4,406.5,447.2,406.3z"/>
	<path class="st5" d="M450.5,409.4c-0.2-0.2-0.4-0.4-0.6-0.7l-16.7,17.1v0.6h0.6L450.5,409.4z"/>
	<path class="st5" d="M452.8,412.1c-0.2-0.2-0.4-0.5-0.5-0.7l-14.7,15h1.3L452.8,412.1z"/>
	<path class="st5" d="M454.8,415.2c-0.2-0.3-0.3-0.5-0.5-0.8l-11.7,12h1.3L454.8,415.2z"/>
	<path class="st5" d="M456.4,418.7c-0.1-0.3-0.3-0.6-0.4-0.9l-8.5,8.7h1.3L456.4,418.7z"/>
	<path class="st5" d="M457.8,422.4c-0.1-0.3-0.2-0.7-0.3-1l-4.9,5h1.3L457.8,422.4z"/>
	<path class="st5" d="M458.5,425.5l-0.9,1h1.1C458.7,426.1,458.6,425.8,458.5,425.5z"/>
	<polygon class="st5" points="402.4,498.5 403.7,498.5 407.5,498.5 408.7,498.5 412.5,498.5 413.7,498.5 417.5,498.5 418.8,498.5 
		422.5,498.5 423.8,498.5 427.5,498.5 428.8,498.5 432.5,498.5 433.2,498.5 433.2,497.8 433.2,494 433.2,492.7 433.2,488.9 
		433.2,487.6 433.2,483.7 433.2,482.5 433.2,478.6 433.2,477.3 433.2,473.5 433.2,472.2 433.2,468.4 433.2,467.1 433.2,463.2 
		433.2,462.5 432.4,462.5 428.7,462.5 427.4,462.5 423.7,462.5 422.4,462.5 418.6,462.5 417.4,462.5 413.6,462.5 412.4,462.5 
		408.6,462.5 407.4,462.5 403.6,462.5 402.3,462.5 398.6,462.5 398,462.5 398,463.1 398,466.9 398,468.2 398,472.1 398,473.4 
		398,477.2 398,478.5 398,482.3 398,483.6 398,487.5 398,488.8 398,492.6 398,493.9 398,497.7 398,498.5 398.7,498.5 	"/>
	<path class="st6" d="M437.7,462.5h1.3h3.8h1.3h3.8h1.3h3.8h1.3h3c1.8-7.9,2.9-13.4,3-15.9c0.2-7.7-0.1-14.4-1.2-20.2h-1.1h-3.8
		h-1.3h-3.8h-1.3h-3.8h-1.3h-3.8h-1.3h-3.8h-0.6v0.6v3.8v1.3v3.8v1.3v3.8v1.3v3.8v1.3v3.8v1.3v3.8v1.3v3.8v0.8h0.7H437.7z"/>
	<polygon class="st6" points="433.9,462.5 433.2,463.2 433.2,467.1 437.7,462.5 	"/>
	<path class="st6" d="M454.8,471.9L433.2,494v3.8l20.3-20.8C453.9,475.3,454.3,473.6,454.8,471.9z"/>
	<path class="st6" d="M456.4,465.1l-23.2,23.8v3.8l22-22.5C455.6,468.4,456,466.7,456.4,465.1z"/>
	<path class="st6" d="M457,462.5h-3l-20.8,21.3v3.8l23.6-24.2C456.9,463.1,456.9,462.8,457,462.5z"/>
	<path class="st6" d="M451.8,484c0.4-1.8,0.9-3.5,1.3-5.2l-19.2,19.7h3.8L451.8,484z"/>
	<path class="st6" d="M448.2,497.8c0.4-1.8,0.9-3.5,1.3-5.2l-5.7,5.9h3.8L448.2,497.8z"/>
	<polygon class="st6" points="443.9,462.5 433.2,473.5 433.2,477.3 447.7,462.5 	"/>
	<polygon class="st6" points="449,462.5 433.2,478.6 433.2,482.5 452.7,462.5 	"/>
	<path class="st6" d="M450,490.9c0.4-1.8,0.9-3.5,1.3-5.2l-12.5,12.8h3.8L450,490.9z"/>
	<polygon class="st6" points="438.9,462.5 433.2,468.4 433.2,472.2 442.7,462.5 	"/>
	<polygon class="st5" points="433.2,462.5 433.2,463.2 433.9,462.5 	"/>
	<polygon class="st5" points="437.7,462.5 433.2,467.1 433.2,468.4 438.9,462.5 	"/>
	<polygon class="st5" points="442.7,462.5 433.2,472.2 433.2,473.5 443.9,462.5 	"/>
	<polygon class="st5" points="447.7,462.5 433.2,477.3 433.2,478.6 449,462.5 	"/>
	<polygon class="st5" points="452.7,462.5 433.2,482.5 433.2,483.7 454,462.5 	"/>
	<path class="st5" d="M456.8,463.4l-23.6,24.2v1.3l23.2-23.8C456.5,464.5,456.7,464,456.8,463.4z"/>
	<path class="st5" d="M455.2,470.2l-22,22.5v1.3l21.6-22.1C454.9,471.3,455,470.8,455.2,470.2z"/>
	<path class="st5" d="M453.1,478.8c0.1-0.6,0.3-1.2,0.4-1.7l-20.3,20.8v0.6h0.6L453.1,478.8z"/>
	<path class="st5" d="M451.3,485.7c0.1-0.6,0.3-1.2,0.4-1.7l-14.2,14.5h1.3L451.3,485.7z"/>
	<path class="st5" d="M449.6,492.6c0.1-0.6,0.3-1.2,0.4-1.7l-7.4,7.6h1.3L449.6,492.6z"/>
	<path class="st5" d="M448.2,497.8l-0.7,0.7h0.5C448.1,498.3,448.2,498,448.2,497.8z"/>
	<polygon class="st6" points="418.8,426.4 398,447.7 398,451.6 422.5,426.4 	"/>
	<polygon class="st6" points="423.8,426.4 398,452.8 398,456.7 427.5,426.4 	"/>
	<polygon class="st6" points="398.7,426.4 398,427.2 398,431 402.4,426.4 	"/>
	<polygon class="st6" points="403.7,426.4 398,432.3 398,436.2 407.5,426.4 	"/>
	<polygon class="st6" points="413.7,426.4 398,442.6 398,446.4 417.5,426.4 	"/>
	<polygon class="st6" points="408.7,426.4 398,437.5 398,441.3 412.5,426.4 	"/>
	<polygon class="st6" points="433.2,451.4 433.2,447.6 418.6,462.5 422.4,462.5 	"/>
	<polygon class="st6" points="433.2,456.6 433.2,452.7 423.7,462.5 427.4,462.5 	"/>
	<polygon class="st6" points="433.2,446.3 433.2,442.5 413.6,462.5 417.4,462.5 	"/>
	<polygon class="st6" points="433.2,430.9 433.2,427.1 398.6,462.5 402.3,462.5 	"/>
	<polygon class="st6" points="428.8,426.4 398,458 398,461.8 432.5,426.4 	"/>
	<polygon class="st6" points="433.2,441.2 433.2,437.3 408.6,462.5 412.4,462.5 	"/>
	<polygon class="st6" points="433.2,436.1 433.2,432.2 403.6,462.5 407.4,462.5 	"/>
	<polygon class="st6" points="433.2,461.7 433.2,457.9 428.7,462.5 432.4,462.5 	"/>
	<polygon class="st5" points="398,426.4 398,427.2 398.7,426.4 	"/>
	<polygon class="st5" points="402.4,426.4 398,431 398,432.3 403.7,426.4 	"/>
	<polygon class="st5" points="407.5,426.4 398,436.2 398,437.5 408.7,426.4 	"/>
	<polygon class="st5" points="412.5,426.4 398,441.3 398,442.6 413.7,426.4 	"/>
	<polygon class="st5" points="417.5,426.4 398,446.4 398,447.7 418.8,426.4 	"/>
	<polygon class="st5" points="422.5,426.4 398,451.6 398,452.8 423.8,426.4 	"/>
	<polygon class="st5" points="427.5,426.4 398,456.7 398,458 428.8,426.4 	"/>
	<polygon class="st5" points="433.2,427.1 433.2,426.4 432.5,426.4 398,461.8 398,462.5 398.6,462.5 	"/>
	<polygon class="st5" points="433.2,432.2 433.2,430.9 402.3,462.5 403.6,462.5 	"/>
	<polygon class="st5" points="433.2,437.3 433.2,436.1 407.4,462.5 408.6,462.5 	"/>
	<polygon class="st5" points="433.2,442.5 433.2,441.2 412.4,462.5 413.6,462.5 	"/>
	<polygon class="st5" points="433.2,447.6 433.2,446.3 417.4,462.5 418.6,462.5 	"/>
	<polygon class="st5" points="433.2,452.7 433.2,451.4 422.4,462.5 423.7,462.5 	"/>
	<polygon class="st5" points="433.2,457.9 433.2,456.6 427.4,462.5 428.7,462.5 	"/>
	<polygon class="st5" points="433.2,461.7 432.4,462.5 433.2,462.5 	"/>
	<path class="st5" d="M433.2,539.1v-3.8v-0.8h-0.7h-3.8h-1.3h-3.8h-1.3h-3.8h-1.3h-3.8h-1.3h-3.8h-1.3h-3.8h-1.3h-3.8H398v0.6v3.8
		v1.1c11.7,0.2,23.5,0.3,35.2,0.3v-0.1V539.1z"/>
	<path class="st6" d="M437.7,534.5h1.3h0c3.2-13,6.3-25.1,9.1-36h-0.5h-3.8h-1.3h-3.8h-1.3h-3.8h-0.6v0.6v3.8v1.3v3.8v1.3v3.8v1.3
		v3.8v1.3v3.8v1.3v3.8v1.3v3.8v0.8h0.7H437.7z"/>
	<polygon class="st6" points="433.9,534.5 433.2,535.3 433.2,539.1 437.7,534.5 	"/>
	<path class="st6" d="M439,534.5L439,534.5l-5.8,5.9v0.1c1.2,0,2.5,0,3.7,0l0.8-0.8C438.1,537.9,438.5,536.2,439,534.5z"/>
	<polygon class="st5" points="433.2,534.5 433.2,535.3 433.9,534.5 	"/>
	<polygon class="st5" points="437.7,534.5 433.2,539.1 433.2,540.4 438.9,534.5 	"/>
	<path class="st5" d="M436.9,540.5c0.2,0,0.4,0,0.6,0c0.1-0.3,0.1-0.5,0.2-0.8L436.9,540.5z"/>
	<polygon class="st6" points="433.2,513.2 433.2,509.4 408.6,534.5 412.4,534.5 	"/>
	<polygon class="st6" points="433.2,518.4 433.2,514.5 413.6,534.5 417.4,534.5 	"/>
	<polygon class="st6" points="433.2,523.5 433.2,519.7 418.6,534.5 422.4,534.5 	"/>
	<polygon class="st6" points="418.8,498.5 398,519.8 398,523.6 422.5,498.5 	"/>
	<polygon class="st6" points="423.8,498.5 398,524.9 398,528.7 427.5,498.5 	"/>
	<polygon class="st6" points="433.2,533.8 433.2,529.9 428.7,534.5 432.4,534.5 	"/>
	<polygon class="st6" points="413.7,498.5 398,514.6 398,518.5 417.5,498.5 	"/>
	<polygon class="st6" points="428.8,498.5 398,530 398,533.9 432.5,498.5 	"/>
	<polygon class="st6" points="408.7,498.5 398,509.5 398,513.4 412.5,498.5 	"/>
	<polygon class="st6" points="433.2,528.6 433.2,524.8 423.7,534.5 427.4,534.5 	"/>
	<polygon class="st6" points="433.2,508.1 433.2,504.3 403.6,534.5 407.4,534.5 	"/>
	<polygon class="st6" points="403.7,498.5 398,504.4 398,508.2 407.5,498.5 	"/>
	<polygon class="st6" points="433.2,503 433.2,499.1 398.6,534.5 402.3,534.5 	"/>
	<polygon class="st6" points="398.7,498.5 398,499.3 398,503.1 402.4,498.5 	"/>
	<polygon class="st5" points="398,498.5 398,499.3 398.7,498.5 	"/>
	<polygon class="st5" points="402.4,498.5 398,503.1 398,504.4 403.7,498.5 	"/>
	<polygon class="st5" points="407.5,498.5 398,508.2 398,509.5 408.7,498.5 	"/>
	<polygon class="st5" points="412.5,498.5 398,513.4 398,514.6 413.7,498.5 	"/>
	<polygon class="st5" points="417.5,498.5 398,518.5 398,519.8 418.8,498.5 	"/>
	<polygon class="st5" points="422.5,498.5 398,523.6 398,524.9 423.8,498.5 	"/>
	<polygon class="st5" points="427.5,498.5 398,528.7 398,530 428.8,498.5 	"/>
	<polygon class="st5" points="433.2,499.1 433.2,498.5 432.5,498.5 398,533.9 398,534.5 398.6,534.5 	"/>
	<polygon class="st5" points="433.2,504.3 433.2,503 402.3,534.5 403.6,534.5 	"/>
	<polygon class="st5" points="433.2,509.4 433.2,508.1 407.4,534.5 408.6,534.5 	"/>
	<polygon class="st5" points="433.2,514.5 433.2,513.2 412.4,534.5 413.6,534.5 	"/>
	<polygon class="st5" points="433.2,519.7 433.2,518.4 417.4,534.5 418.6,534.5 	"/>
	<polygon class="st5" points="433.2,524.8 433.2,523.5 422.4,534.5 423.7,534.5 	"/>
	<polygon class="st5" points="433.2,529.9 433.2,528.6 427.4,534.5 428.7,534.5 	"/>
	<polygon class="st5" points="433.2,533.8 432.4,534.5 433.2,534.5 	"/>
	<path class="st5" d="M332,426.4h1.3h3.8h1.3h3.8h1.3h3.8h1.3h3.8h1.3h3.8h1.3h3.8h0.6v-0.6v-3.8v-1.3v-3.8v-1.3v-3.8v-1.3v-3.8
		v-1.3v-3.8v-1.3v-3.8V395v-3.8v-0.8H362h-3.8H357h-3.8H352h-3.8h-1.3h-3.8h-1.3h-3.8h-1.3h-3.8h-1.3h-3.5c-0.3,0.1-0.6,0.2-0.8,0.3
		v0.3v3.8v1.3v3.8v1.3v3.8v1.3v3.8v1.3v3.8v1.3v3.8v1.3v3.8v0.8h0.7H332z"/>
	<path class="st6" d="M362.7,390.4h0.7h3.8h1.3h3.8h1.3h3.8h1.3h2.9c-5.7-0.5-12.1-1.2-18.7-1.9v1.1V390.4z"/>
	<polygon class="st6" points="398,415.4 398,411.6 383.4,426.4 387.2,426.4 	"/>
	<polygon class="st6" points="373.5,390.4 362.7,401.4 362.7,405.3 377.3,390.4 	"/>
	<polygon class="st6" points="362.7,400.1 372.2,390.4 368.5,390.4 362.7,396.3 	"/>
	<polygon class="st6" points="398,400 398,396.2 368.4,426.4 372.1,426.4 	"/>
	<polygon class="st6" points="398,425.7 398,421.8 393.5,426.4 397.2,426.4 	"/>
	<polygon class="st6" points="398,420.5 398,416.7 388.4,426.4 392.2,426.4 	"/>
	<polygon class="st6" points="362.7,395 367.2,390.4 363.5,390.4 362.7,391.2 	"/>
	<polygon class="st6" points="398,410.3 398,406.4 378.4,426.4 382.2,426.4 	"/>
	<polygon class="st6" points="398,405.2 398,401.3 373.4,426.4 377.1,426.4 	"/>
	<path class="st6" d="M392.5,391.4l-29.8,30.5v3.8l33.3-34C394.9,391.7,393.8,391.6,392.5,391.4z"/>
	<path class="st6" d="M388,391l-25.2,25.8v3.8l28.7-29.3C390.3,391.2,389.1,391.1,388,391z"/>
	<path class="st6" d="M381.4,390.4h-2.9l-15.8,16.2v3.8l19.5-19.9C381.9,390.5,381.7,390.4,381.4,390.4z"/>
	<path class="st6" d="M398,394.9V392c-0.3,0-0.5-0.1-0.8-0.1l-33.8,34.5h3.8L398,394.9z"/>
	<path class="st6" d="M383.4,390.6l-20.6,21.1v3.8l24.1-24.6C385.7,390.8,384.5,390.7,383.4,390.6z"/>
	<polygon class="st5" points="363.5,390.4 362.7,390.4 362.7,391.2 	"/>
	<polygon class="st5" points="362.7,396.3 368.5,390.4 367.2,390.4 362.7,395 	"/>
	<polygon class="st5" points="362.7,401.4 373.5,390.4 372.2,390.4 362.7,400.1 	"/>
	<polygon class="st5" points="377.3,390.4 362.7,405.3 362.7,406.6 378.5,390.4 	"/>
	<path class="st5" d="M382.2,390.5l-19.5,19.9v1.3l20.6-21.1C383,390.6,382.6,390.5,382.2,390.5z"/>
	<path class="st5" d="M386.8,390.9l-24.1,24.6v1.3L388,391C387.6,391,387.2,390.9,386.8,390.9z"/>
	<path class="st5" d="M391.4,391.3l-28.7,29.3v1.3l29.8-30.5C392.2,391.4,391.8,391.4,391.4,391.3z"/>
	<path class="st5" d="M397.1,391.9c-0.4,0-0.8-0.1-1.2-0.1l-33.3,34v0.6h0.6L397.1,391.9z"/>
	<polygon class="st5" points="398,396.2 398,394.9 367.1,426.4 368.4,426.4 	"/>
	<polygon class="st5" points="398,401.3 398,400 372.1,426.4 373.4,426.4 	"/>
	<polygon class="st5" points="398,406.4 398,405.2 377.1,426.4 378.4,426.4 	"/>
	<polygon class="st5" points="398,411.6 398,410.3 382.2,426.4 383.4,426.4 	"/>
	<polygon class="st5" points="398,416.7 398,415.4 387.2,426.4 388.4,426.4 	"/>
	<polygon class="st5" points="398,421.8 398,420.5 392.2,426.4 393.5,426.4 	"/>
	<polygon class="st5" points="398,425.7 397.2,426.4 398,426.4 	"/>
	<path class="st6" d="M362,390.4l0.7-0.8v-1.1c-0.8-0.1-1.6-0.2-2.4-0.3l-2.1,2.1H362z"/>
	<path class="st6" d="M352,390.4l2.7-2.8c-1.1-0.1-2.2-0.3-3.4-0.4l-3.1,3.2H352z"/>
	<path class="st6" d="M341.9,390.4l3.8-3.9c-1.1-0.1-2.2-0.3-3.3-0.4l-4.2,4.3H341.9z"/>
	<path class="st6" d="M357,390.4l2.2-2.2c-1.1-0.1-2.3-0.3-3.4-0.4l-2.6,2.6H357z"/>
	<path class="st6" d="M346.9,390.4l3.2-3.3c-1.1-0.1-2.2-0.3-3.3-0.4l-3.6,3.7H346.9z"/>
	<path class="st6" d="M334,388.2c-1.8,0.7-3.7,1.5-5.7,2.2h3.5L334,388.2z"/>
	<path class="st6" d="M333.2,390.4h3.8l4.4-4.5c-0.5-0.1-1-0.1-1.5-0.2c-1.2,0.5-2.4,1.1-3.6,1.6L333.2,390.4z"/>
	<path class="st5" d="M333.2,390.4l3-3.1c-0.7,0.3-1.4,0.6-2.1,0.9l-2.1,2.2H333.2z"/>
	<path class="st5" d="M338.2,390.4l4.2-4.3c-0.4-0.1-0.7-0.1-1.1-0.2l-4.4,4.5H338.2z"/>
	<path class="st5" d="M343.2,390.4l3.6-3.7c-0.4,0-0.7-0.1-1.1-0.1l-3.8,3.9H343.2z"/>
	<path class="st5" d="M348.2,390.4l3.1-3.2c-0.4,0-0.8-0.1-1.1-0.1l-3.2,3.3H348.2z"/>
	<path class="st5" d="M353.2,390.4l2.6-2.6c-0.4,0-0.8-0.1-1.1-0.1l-2.7,2.8H353.2z"/>
	<path class="st5" d="M358.2,390.4l2.1-2.1c-0.4,0-0.8-0.1-1.1-0.1l-2.2,2.2H358.2z"/>
	<polygon class="st5" points="362.7,389.6 362,390.4 362.7,390.4 	"/>
	<polygon class="st5" points="332,498.5 333.3,498.5 337,498.5 338.3,498.5 342,498.5 343.3,498.5 347.1,498.5 348.3,498.5 
		352.1,498.5 353.3,498.5 357.1,498.5 358.3,498.5 362.1,498.5 362.7,498.5 362.7,497.8 362.7,494 362.7,492.7 362.7,488.9 
		362.7,487.6 362.7,483.7 362.7,482.5 362.7,478.6 362.7,477.3 362.7,473.5 362.7,472.2 362.7,468.4 362.7,467.1 362.7,463.2 
		362.7,462.5 362,462.5 358.2,462.5 357,462.5 353.2,462.5 352,462.5 348.2,462.5 346.9,462.5 343.2,462.5 341.9,462.5 338.2,462.5 
		336.9,462.5 333.2,462.5 331.9,462.5 328.1,462.5 327.5,462.5 327.5,463.1 327.5,466.9 327.5,468.2 327.5,472.1 327.5,473.4 
		327.5,477.2 327.5,478.5 327.5,482.3 327.5,483.6 327.5,487.5 327.5,488.8 327.5,492.6 327.5,493.9 327.5,497.7 327.5,498.5 
		328.3,498.5 	"/>
	<polygon class="st6" points="367.2,462.5 368.5,462.5 372.2,462.5 373.5,462.5 377.3,462.5 378.5,462.5 382.3,462.5 383.5,462.5 
		387.3,462.5 388.5,462.5 392.3,462.5 393.6,462.5 397.3,462.5 398,462.5 398,461.8 398,458 398,456.7 398,452.8 398,451.6 
		398,447.7 398,446.4 398,442.6 398,441.3 398,437.5 398,436.2 398,432.3 398,431 398,427.2 398,426.4 397.2,426.4 393.5,426.4 
		392.2,426.4 388.4,426.4 387.2,426.4 383.4,426.4 382.2,426.4 378.4,426.4 377.1,426.4 373.4,426.4 372.1,426.4 368.4,426.4 
		367.1,426.4 363.4,426.4 362.7,426.4 362.7,427.1 362.7,430.9 362.7,432.2 362.7,436.1 362.7,437.3 362.7,441.2 362.7,442.5 
		362.7,446.3 362.7,447.6 362.7,451.4 362.7,452.7 362.7,456.6 362.7,457.9 362.7,461.7 362.7,462.5 363.5,462.5 	"/>
	<polygon class="st6" points="383.5,462.5 362.7,483.7 362.7,487.6 387.3,462.5 	"/>
	<polygon class="st6" points="388.5,462.5 362.7,488.9 362.7,492.7 392.3,462.5 	"/>
	<polygon class="st6" points="378.5,462.5 362.7,478.6 362.7,482.5 382.3,462.5 	"/>
	<polygon class="st6" points="393.6,462.5 362.7,494 362.7,497.8 397.3,462.5 	"/>
	<polygon class="st6" points="368.5,462.5 362.7,468.4 362.7,472.2 372.2,462.5 	"/>
	<polygon class="st6" points="398,472.1 398,468.2 368.4,498.5 372.1,498.5 	"/>
	<polygon class="st6" points="398,477.2 398,473.4 373.4,498.5 377.1,498.5 	"/>
	<polygon class="st6" points="373.5,462.5 362.7,473.5 362.7,477.3 377.3,462.5 	"/>
	<polygon class="st6" points="398,497.7 398,493.9 393.5,498.5 397.2,498.5 	"/>
	<polygon class="st6" points="398,492.6 398,488.8 388.4,498.5 392.2,498.5 	"/>
	<polygon class="st6" points="398,482.3 398,478.5 378.4,498.5 382.2,498.5 	"/>
	<polygon class="st6" points="398,466.9 398,463.1 363.4,498.5 367.1,498.5 	"/>
	<polygon class="st6" points="363.5,462.5 362.7,463.2 362.7,467.1 367.2,462.5 	"/>
	<polygon class="st6" points="398,487.5 398,483.6 383.4,498.5 387.2,498.5 	"/>
	<polygon class="st5" points="362.7,462.5 362.7,463.2 363.5,462.5 	"/>
	<polygon class="st5" points="367.2,462.5 362.7,467.1 362.7,468.4 368.5,462.5 	"/>
	<polygon class="st5" points="372.2,462.5 362.7,472.2 362.7,473.5 373.5,462.5 	"/>
	<polygon class="st5" points="377.3,462.5 362.7,477.3 362.7,478.6 378.5,462.5 	"/>
	<polygon class="st5" points="382.3,462.5 362.7,482.5 362.7,483.7 383.5,462.5 	"/>
	<polygon class="st5" points="387.3,462.5 362.7,487.6 362.7,488.9 388.5,462.5 	"/>
	<polygon class="st5" points="392.3,462.5 362.7,492.7 362.7,494 393.6,462.5 	"/>
	<polygon class="st5" points="398,463.1 398,462.5 397.3,462.5 362.7,497.8 362.7,498.5 363.4,498.5 	"/>
	<polygon class="st5" points="398,468.2 398,466.9 367.1,498.5 368.4,498.5 	"/>
	<polygon class="st5" points="398,473.4 398,472.1 372.1,498.5 373.4,498.5 	"/>
	<polygon class="st5" points="398,478.5 398,477.2 377.1,498.5 378.4,498.5 	"/>
	<polygon class="st5" points="398,483.6 398,482.3 382.2,498.5 383.4,498.5 	"/>
	<polygon class="st5" points="398,488.8 398,487.5 387.2,498.5 388.4,498.5 	"/>
	<polygon class="st5" points="398,493.9 398,492.6 392.2,498.5 393.5,498.5 	"/>
	<polygon class="st5" points="398,497.7 397.2,498.5 398,498.5 	"/>
	<polygon class="st6" points="362.7,446.3 362.7,442.5 343.2,462.5 346.9,462.5 	"/>
	<polygon class="st6" points="362.7,461.7 362.7,457.9 358.2,462.5 362,462.5 	"/>
	<polygon class="st6" points="362.7,451.4 362.7,447.6 348.2,462.5 352,462.5 	"/>
	<polygon class="st6" points="362.7,436.1 362.7,432.2 333.2,462.5 336.9,462.5 	"/>
	<polygon class="st6" points="362.7,456.6 362.7,452.7 353.2,462.5 357,462.5 	"/>
	<polygon class="st6" points="328.3,426.4 327.5,427.2 327.5,431 332,426.4 	"/>
	<polygon class="st6" points="333.3,426.4 327.5,432.3 327.5,436.2 337,426.4 	"/>
	<polygon class="st6" points="338.3,426.4 327.5,437.5 327.5,441.3 342,426.4 	"/>
	<polygon class="st6" points="362.7,430.9 362.7,427.1 328.1,462.5 331.9,462.5 	"/>
	<polygon class="st6" points="343.3,426.4 327.5,442.6 327.5,446.4 347.1,426.4 	"/>
	<polygon class="st6" points="353.3,426.4 327.5,452.8 327.5,456.7 357.1,426.4 	"/>
	<polygon class="st6" points="358.3,426.4 327.5,458 327.5,461.8 362.1,426.4 	"/>
	<polygon class="st6" points="362.7,441.2 362.7,437.3 338.2,462.5 341.9,462.5 	"/>
	<polygon class="st6" points="348.3,426.4 327.5,447.7 327.5,451.6 352.1,426.4 	"/>
	<polygon class="st5" points="327.5,426.4 327.5,427.2 328.3,426.4 	"/>
	<polygon class="st5" points="332,426.4 327.5,431 327.5,432.3 333.3,426.4 	"/>
	<polygon class="st5" points="337,426.4 327.5,436.2 327.5,437.5 338.3,426.4 	"/>
	<polygon class="st5" points="342,426.4 327.5,441.3 327.5,442.6 343.3,426.4 	"/>
	<polygon class="st5" points="347.1,426.4 327.5,446.4 327.5,447.7 348.3,426.4 	"/>
	<polygon class="st5" points="352.1,426.4 327.5,451.6 327.5,452.8 353.3,426.4 	"/>
	<polygon class="st5" points="357.1,426.4 327.5,456.7 327.5,458 358.3,426.4 	"/>
	<polygon class="st5" points="362.7,427.1 362.7,426.4 362.1,426.4 327.5,461.8 327.5,462.5 328.1,462.5 	"/>
	<polygon class="st5" points="362.7,432.2 362.7,430.9 331.9,462.5 333.2,462.5 	"/>
	<polygon class="st5" points="362.7,437.3 362.7,436.1 336.9,462.5 338.2,462.5 	"/>
	<polygon class="st5" points="362.7,442.5 362.7,441.2 341.9,462.5 343.2,462.5 	"/>
	<polygon class="st5" points="362.7,447.6 362.7,446.3 346.9,462.5 348.2,462.5 	"/>
	<polygon class="st5" points="362.7,452.7 362.7,451.4 352,462.5 353.2,462.5 	"/>
	<polygon class="st5" points="362.7,457.9 362.7,456.6 357,462.5 358.2,462.5 	"/>
	<polygon class="st5" points="362.7,461.7 362,462.5 362.7,462.5 	"/>
	<path class="st5" d="M362.7,534.5H362h-3.8H357h-3.8H352h-3.8h-1.3h-3.8h-1.3h-3.8h-1.3h-3.8h-1.3h-3.8h-0.6v0.6v1.9
		c11.7,0.8,23.5,1.5,35.2,2v-3.8V534.5z"/>
	<polygon class="st6" points="367.2,534.5 368.5,534.5 372.2,534.5 373.5,534.5 377.3,534.5 378.5,534.5 382.3,534.5 383.5,534.5 
		387.3,534.5 388.5,534.5 392.3,534.5 393.6,534.5 397.3,534.5 398,534.5 398,533.9 398,530 398,528.7 398,524.9 398,523.6 
		398,519.8 398,518.5 398,514.6 398,513.4 398,509.5 398,508.2 398,504.4 398,503.1 398,499.3 398,498.5 397.2,498.5 393.5,498.5 
		392.2,498.5 388.4,498.5 387.2,498.5 383.4,498.5 382.2,498.5 378.4,498.5 377.1,498.5 373.4,498.5 372.1,498.5 368.4,498.5 
		367.1,498.5 363.4,498.5 362.7,498.5 362.7,499.1 362.7,503 362.7,504.3 362.7,508.1 362.7,509.4 362.7,513.2 362.7,514.5 
		362.7,518.4 362.7,519.7 362.7,523.5 362.7,524.8 362.7,528.6 362.7,529.9 362.7,533.8 362.7,534.5 363.5,534.5 	"/>
	<path class="st6" d="M388.5,534.5l-5.2,5.3c1.2,0,2.4,0.1,3.7,0.1l5.3-5.4H388.5z"/>
	<path class="st6" d="M383.5,534.5l-5,5.1c1.2,0,2.4,0.1,3.6,0.1l5.1-5.3H383.5z"/>
	<path class="st6" d="M362.7,539.1L362.7,539.1C362.7,539.1,362.7,539.1,362.7,539.1L362.7,539.1z"/>
	<path class="st6" d="M363.5,534.5l-0.7,0.8v3.8c0,0,0,0,0,0l4.5-4.6H363.5z"/>
	<path class="st6" d="M373.5,534.5l-4.7,4.8c1.2,0,2.4,0.1,3.6,0.1l4.8-4.9H373.5z"/>
	<path class="st6" d="M378.5,534.5l-4.9,5c1.2,0,2.4,0.1,3.6,0.1l5-5.1H378.5z"/>
	<path class="st6" d="M398,535.2l-4.8,4.9c1.2,0,2.5,0.1,3.7,0.1l1.1-1.1V535.2z"/>
	<path class="st6" d="M368.5,534.5l-4.5,4.6c1.2,0,2.4,0.1,3.6,0.1l4.7-4.8H368.5z"/>
	<path class="st6" d="M393.6,534.5l-5.3,5.4c1.2,0,2.4,0.1,3.7,0.1l5.4-5.5H393.6z"/>
	<polygon class="st5" points="362.7,534.5 362.7,535.3 363.5,534.5 	"/>
	<path class="st5" d="M367.2,534.5l-4.5,4.6c0.4,0,0.8,0,1.2,0l4.5-4.6H367.2z"/>
	<path class="st5" d="M372.2,534.5l-4.7,4.8c0.4,0,0.8,0,1.2,0l4.7-4.8H372.2z"/>
	<path class="st5" d="M377.3,534.5l-4.8,4.9c0.4,0,0.8,0,1.2,0l4.9-5H377.3z"/>
	<path class="st5" d="M382.3,534.5l-5,5.1c0.4,0,0.8,0,1.2,0l5-5.1H382.3z"/>
	<path class="st5" d="M387.3,534.5l-5.1,5.3c0.4,0,0.8,0,1.2,0l5.2-5.3H387.3z"/>
	<path class="st5" d="M392.3,534.5l-5.3,5.4c0.4,0,0.8,0,1.2,0l5.3-5.4H392.3z"/>
	<path class="st5" d="M398,534.5h-0.6l-5.4,5.5c0.4,0,0.8,0,1.2,0l4.8-4.9V534.5z"/>
	<path class="st5" d="M396.9,540.1c0.4,0,0.7,0,1.1,0V539L396.9,540.1z"/>
	<polygon class="st6" points="333.3,498.5 327.5,504.4 327.5,508.2 337,498.5 	"/>
	<polygon class="st6" points="338.3,498.5 327.5,509.5 327.5,513.4 342,498.5 	"/>
	<polygon class="st6" points="362.7,528.6 362.7,524.8 353.2,534.5 357,534.5 	"/>
	<polygon class="st6" points="343.3,498.5 327.5,514.6 327.5,518.5 347.1,498.5 	"/>
	<polygon class="st6" points="362.7,508.1 362.7,504.3 333.2,534.5 336.9,534.5 	"/>
	<polygon class="st6" points="362.7,518.4 362.7,514.5 343.2,534.5 346.9,534.5 	"/>
	<polygon class="st6" points="362.7,513.2 362.7,509.4 338.2,534.5 341.9,534.5 	"/>
	<polygon class="st6" points="362.7,523.5 362.7,519.7 348.2,534.5 352,534.5 	"/>
	<polygon class="st6" points="358.3,498.5 327.5,530 327.5,533.9 362.1,498.5 	"/>
	<polygon class="st6" points="348.3,498.5 327.5,519.8 327.5,523.6 352.1,498.5 	"/>
	<polygon class="st6" points="353.3,498.5 327.5,524.9 327.5,528.7 357.1,498.5 	"/>
	<polygon class="st6" points="362.7,533.8 362.7,529.9 358.2,534.5 362,534.5 	"/>
	<polygon class="st6" points="328.3,498.5 327.5,499.3 327.5,503.1 332,498.5 	"/>
	<polygon class="st6" points="362.7,503 362.7,499.1 328.1,534.5 331.9,534.5 	"/>
	<polygon class="st5" points="327.5,498.5 327.5,499.3 328.3,498.5 	"/>
	<polygon class="st5" points="332,498.5 327.5,503.1 327.5,504.4 333.3,498.5 	"/>
	<polygon class="st5" points="337,498.5 327.5,508.2 327.5,509.5 338.3,498.5 	"/>
	<polygon class="st5" points="342,498.5 327.5,513.4 327.5,514.6 343.3,498.5 	"/>
	<polygon class="st5" points="347.1,498.5 327.5,518.5 327.5,519.8 348.3,498.5 	"/>
	<polygon class="st5" points="352.1,498.5 327.5,523.6 327.5,524.9 353.3,498.5 	"/>
	<polygon class="st5" points="357.1,498.5 327.5,528.7 327.5,530 358.3,498.5 	"/>
	<polygon class="st5" points="362.7,499.1 362.7,498.5 362.1,498.5 327.5,533.9 327.5,534.5 328.1,534.5 	"/>
	<polygon class="st5" points="362.7,504.3 362.7,503 331.9,534.5 333.2,534.5 	"/>
	<polygon class="st5" points="362.7,509.4 362.7,508.1 336.9,534.5 338.2,534.5 	"/>
	<polygon class="st5" points="362.7,514.5 362.7,513.2 341.9,534.5 343.2,534.5 	"/>
	<polygon class="st5" points="362.7,519.7 362.7,518.4 346.9,534.5 348.2,534.5 	"/>
	<polygon class="st5" points="362.7,524.8 362.7,523.5 352,534.5 353.2,534.5 	"/>
	<polygon class="st5" points="362.7,529.9 362.7,528.6 357,534.5 358.2,534.5 	"/>
	<polygon class="st5" points="362.7,533.8 362,534.5 362.7,534.5 	"/>
	<path class="st5" d="M261.6,426.4h1.3h3.8h1.3h3.8h1.3h3.8h1.3h3.8h1.3h3.8h1.3h3.8h0.6v-0.6v-3.8v-1.3v-3.8v-1.3v-3.8v-1.3v-3.8
		v-1.3v-3.8v-1.3v-0.3c-11.1,2-22.9,3.4-35.2,4.1v1.2v1.3v3.8v1.3v3.8v1.3v3.8v1.3v3.8v0.8h0.7H261.6z"/>
	<polygon class="st6" points="327.5,415.4 327.5,411.6 313,426.4 316.7,426.4 	"/>
	<polygon class="st6" points="327.5,410.3 327.5,406.4 308,426.4 311.7,426.4 	"/>
	<polygon class="st6" points="327.5,405.2 327.5,401.3 303,426.4 306.7,426.4 	"/>
	<polygon class="st6" points="327.5,394.9 327.5,391.1 292.9,426.4 296.7,426.4 	"/>
	<polygon class="st6" points="327.5,420.5 327.5,416.7 318,426.4 321.8,426.4 	"/>
	<polygon class="st6" points="327.5,400 327.5,396.2 297.9,426.4 301.7,426.4 	"/>
	<path class="st6" d="M313.5,395.1l-21.2,21.7v3.8l26.4-27.1C317,394.1,315.3,394.6,313.5,395.1z"/>
	<path class="st6" d="M300.4,398.3l-8.1,8.3v3.8l12.9-13.2C303.6,397.6,302,398,300.4,398.3z"/>
	<path class="st6" d="M294.2,399.5l-1.9,1.9v3.8l6.5-6.7C297.3,398.9,295.7,399.2,294.2,399.5z"/>
	<path class="st6" d="M292.6,399.8c-0.1,0-0.2,0-0.3,0.1v0.3L292.6,399.8z"/>
	<polygon class="st6" points="327.5,425.7 327.5,421.8 323,426.4 326.8,426.4 	"/>
	<path class="st6" d="M306.8,396.8l-14.5,14.9v3.8l19.5-20C310.2,396,308.5,396.4,306.8,396.8z"/>
	<path class="st6" d="M320.6,393l-28.3,28.9v3.8l33.8-34.6C324.3,391.8,322.4,392.4,320.6,393z"/>
	<path class="st5" d="M292.3,401.4l1.9-1.9c-0.5,0.1-1,0.2-1.5,0.3l-0.3,0.3V401.4z"/>
	<path class="st5" d="M298.8,398.6l-6.5,6.7v1.3l8.1-8.3C299.9,398.4,299.3,398.5,298.8,398.6z"/>
	<path class="st5" d="M305.2,397.2l-12.9,13.2v1.3l14.5-14.9C306.3,397,305.7,397.1,305.2,397.2z"/>
	<path class="st5" d="M311.8,395.6l-19.5,20v1.3l21.2-21.7C313,395.3,312.4,395.4,311.8,395.6z"/>
	<path class="st5" d="M318.7,393.6l-26.4,27.1v1.3l28.3-28.9C320,393.2,319.4,393.4,318.7,393.6z"/>
	<path class="st5" d="M327.5,391.1v-0.3c-0.5,0.2-0.9,0.3-1.4,0.5l-33.8,34.6v0.6h0.6L327.5,391.1z"/>
	<polygon class="st5" points="327.5,396.2 327.5,394.9 296.7,426.4 297.9,426.4 	"/>
	<polygon class="st5" points="327.5,401.3 327.5,400 301.7,426.4 303,426.4 	"/>
	<polygon class="st5" points="327.5,406.4 327.5,405.2 306.7,426.4 308,426.4 	"/>
	<polygon class="st5" points="327.5,411.6 327.5,410.3 311.7,426.4 313,426.4 	"/>
	<polygon class="st5" points="327.5,416.7 327.5,415.4 316.7,426.4 318,426.4 	"/>
	<polygon class="st5" points="327.5,421.8 327.5,420.5 321.8,426.4 323,426.4 	"/>
	<polygon class="st5" points="327.5,425.7 326.8,426.4 327.5,426.4 	"/>
	<polygon class="st5" points="261.6,498.5 262.8,498.5 266.6,498.5 267.9,498.5 271.6,498.5 272.9,498.5 276.6,498.5 277.9,498.5 
		281.6,498.5 282.9,498.5 286.7,498.5 287.9,498.5 291.7,498.5 292.3,498.5 292.3,497.8 292.3,494 292.3,492.7 292.3,488.9 
		292.3,487.6 292.3,483.7 292.3,482.5 292.3,478.6 292.3,477.3 292.3,473.5 292.3,472.2 292.3,468.4 292.3,467.1 292.3,463.2 
		292.3,462.5 291.6,462.5 287.8,462.5 286.5,462.5 282.8,462.5 281.5,462.5 277.8,462.5 276.5,462.5 272.8,462.5 271.5,462.5 
		267.7,462.5 266.5,462.5 262.7,462.5 261.5,462.5 257.7,462.5 257.1,462.5 257.1,463.1 257.1,466.9 257.1,468.2 257.1,472.1 
		257.1,473.4 257.1,477.2 257.1,478.5 257.1,482.3 257.1,483.6 257.1,487.5 257.1,488.8 257.1,492.6 257.1,493.9 257.1,497.7 
		257.1,498.5 257.8,498.5 	"/>
	<polygon class="st6" points="296.8,462.5 298.1,462.5 301.8,462.5 303.1,462.5 306.8,462.5 308.1,462.5 311.8,462.5 313.1,462.5 
		316.9,462.5 318.1,462.5 321.9,462.5 323.1,462.5 326.9,462.5 327.5,462.5 327.5,461.8 327.5,458 327.5,456.7 327.5,452.8 
		327.5,451.6 327.5,447.7 327.5,446.4 327.5,442.6 327.5,441.3 327.5,437.5 327.5,436.2 327.5,432.3 327.5,431 327.5,427.2 
		327.5,426.4 326.8,426.4 323,426.4 321.8,426.4 318,426.4 316.7,426.4 313,426.4 311.7,426.4 308,426.4 306.7,426.4 303,426.4 
		301.7,426.4 297.9,426.4 296.7,426.4 292.9,426.4 292.3,426.4 292.3,427.1 292.3,430.9 292.3,432.2 292.3,436.1 292.3,437.3 
		292.3,441.2 292.3,442.5 292.3,446.3 292.3,447.6 292.3,451.4 292.3,452.7 292.3,456.6 292.3,457.9 292.3,461.7 292.3,462.5 
		293,462.5 	"/>
	<polygon class="st6" points="323.1,462.5 292.3,494 292.3,497.8 326.9,462.5 	"/>
	<polygon class="st6" points="327.5,482.3 327.5,478.5 308,498.5 311.7,498.5 	"/>
	<polygon class="st6" points="327.5,492.6 327.5,488.8 318,498.5 321.8,498.5 	"/>
	<polygon class="st6" points="327.5,466.9 327.5,463.1 292.9,498.5 296.7,498.5 	"/>
	<polygon class="st6" points="327.5,477.2 327.5,473.4 303,498.5 306.7,498.5 	"/>
	<polygon class="st6" points="318.1,462.5 292.3,488.9 292.3,492.7 321.9,462.5 	"/>
	<polygon class="st6" points="298.1,462.5 292.3,468.4 292.3,472.2 301.8,462.5 	"/>
	<polygon class="st6" points="327.5,487.5 327.5,483.6 313,498.5 316.7,498.5 	"/>
	<polygon class="st6" points="303.1,462.5 292.3,473.5 292.3,477.3 306.8,462.5 	"/>
	<polygon class="st6" points="327.5,472.1 327.5,468.2 297.9,498.5 301.7,498.5 	"/>
	<polygon class="st6" points="308.1,462.5 292.3,478.6 292.3,482.5 311.8,462.5 	"/>
	<polygon class="st6" points="313.1,462.5 292.3,483.7 292.3,487.6 316.9,462.5 	"/>
	<polygon class="st6" points="293,462.5 292.3,463.2 292.3,467.1 296.8,462.5 	"/>
	<polygon class="st6" points="327.5,497.7 327.5,493.9 323,498.5 326.8,498.5 	"/>
	<polygon class="st5" points="292.3,462.5 292.3,463.2 293,462.5 	"/>
	<polygon class="st5" points="296.8,462.5 292.3,467.1 292.3,468.4 298.1,462.5 	"/>
	<polygon class="st5" points="301.8,462.5 292.3,472.2 292.3,473.5 303.1,462.5 	"/>
	<polygon class="st5" points="306.8,462.5 292.3,477.3 292.3,478.6 308.1,462.5 	"/>
	<polygon class="st5" points="311.8,462.5 292.3,482.5 292.3,483.7 313.1,462.5 	"/>
	<polygon class="st5" points="316.9,462.5 292.3,487.6 292.3,488.9 318.1,462.5 	"/>
	<polygon class="st5" points="321.9,462.5 292.3,492.7 292.3,494 323.1,462.5 	"/>
	<polygon class="st5" points="327.5,463.1 327.5,462.5 326.9,462.5 292.3,497.8 292.3,498.5 292.9,498.5 	"/>
	<polygon class="st5" points="327.5,468.2 327.5,466.9 296.7,498.5 297.9,498.5 	"/>
	<polygon class="st5" points="327.5,473.4 327.5,472.1 301.7,498.5 303,498.5 	"/>
	<polygon class="st5" points="327.5,478.5 327.5,477.2 306.7,498.5 308,498.5 	"/>
	<polygon class="st5" points="327.5,483.6 327.5,482.3 311.7,498.5 313,498.5 	"/>
	<polygon class="st5" points="327.5,488.8 327.5,487.5 316.7,498.5 318,498.5 	"/>
	<polygon class="st5" points="327.5,493.9 327.5,492.6 321.8,498.5 323,498.5 	"/>
	<polygon class="st5" points="327.5,497.7 326.8,498.5 327.5,498.5 	"/>
	<polygon class="st6" points="292.3,451.4 292.3,447.6 277.8,462.5 281.5,462.5 	"/>
	<polygon class="st6" points="287.9,426.4 257.1,458 257.1,461.8 291.7,426.4 	"/>
	<polygon class="st6" points="292.3,446.3 292.3,442.5 272.8,462.5 276.5,462.5 	"/>
	<polygon class="st6" points="292.3,456.6 292.3,452.7 282.8,462.5 286.5,462.5 	"/>
	<polygon class="st6" points="262.8,426.4 257.1,432.3 257.1,436.2 266.6,426.4 	"/>
	<polygon class="st6" points="292.3,441.2 292.3,437.3 267.7,462.5 271.5,462.5 	"/>
	<polygon class="st6" points="272.9,426.4 257.1,442.6 257.1,446.4 276.6,426.4 	"/>
	<polygon class="st6" points="257.8,426.4 257.1,427.2 257.1,431 261.6,426.4 	"/>
	<polygon class="st6" points="267.9,426.4 257.1,437.5 257.1,441.3 271.6,426.4 	"/>
	<polygon class="st6" points="277.9,426.4 257.1,447.7 257.1,451.6 281.6,426.4 	"/>
	<polygon class="st6" points="282.9,426.4 257.1,452.8 257.1,456.7 286.7,426.4 	"/>
	<polygon class="st6" points="292.3,436.1 292.3,432.2 262.7,462.5 266.5,462.5 	"/>
	<polygon class="st6" points="292.3,461.7 292.3,457.9 287.8,462.5 291.6,462.5 	"/>
	<polygon class="st6" points="292.3,430.9 292.3,427.1 257.7,462.5 261.5,462.5 	"/>
	<polygon class="st5" points="257.1,426.4 257.1,427.2 257.8,426.4 	"/>
	<polygon class="st5" points="261.6,426.4 257.1,431 257.1,432.3 262.8,426.4 	"/>
	<polygon class="st5" points="266.6,426.4 257.1,436.2 257.1,437.5 267.9,426.4 	"/>
	<polygon class="st5" points="271.6,426.4 257.1,441.3 257.1,442.6 272.9,426.4 	"/>
	<polygon class="st5" points="276.6,426.4 257.1,446.4 257.1,447.7 277.9,426.4 	"/>
	<polygon class="st5" points="281.6,426.4 257.1,451.6 257.1,452.8 282.9,426.4 	"/>
	<polygon class="st5" points="286.7,426.4 257.1,456.7 257.1,458 287.9,426.4 	"/>
	<polygon class="st5" points="292.3,427.1 292.3,426.4 291.7,426.4 257.1,461.8 257.1,462.5 257.7,462.5 	"/>
	<polygon class="st5" points="292.3,432.2 292.3,430.9 261.5,462.5 262.7,462.5 	"/>
	<polygon class="st5" points="292.3,437.3 292.3,436.1 266.5,462.5 267.7,462.5 	"/>
	<polygon class="st5" points="292.3,442.5 292.3,441.2 271.5,462.5 272.8,462.5 	"/>
	<polygon class="st5" points="292.3,447.6 292.3,446.3 276.5,462.5 277.8,462.5 	"/>
	<polygon class="st5" points="292.3,452.7 292.3,451.4 281.5,462.5 282.8,462.5 	"/>
	<polygon class="st5" points="292.3,457.9 292.3,456.6 286.5,462.5 287.8,462.5 	"/>
	<polygon class="st5" points="292.3,461.7 291.6,462.5 292.3,462.5 	"/>
	<path class="st6" d="M301.8,534.5h1.3h3.8h1.3h3.8h1.3h3.8h1.3h3.8h1.3h3.8h0.6v-0.6V530v-1.3v-3.8v-1.3v-3.8v-1.3v-3.8v-1.3v-3.8
		v-1.3v-3.8v-1.3v-3.8v-0.8h-0.7H323h-1.3H318h-1.3H313h-1.3H308h-1.3H303h-1.3h-3.8h-1.3h-3.8h-0.6v0.6v3.8v1.3v3.8v1.3v3.8v1.3
		v3.8v1.3v3.8v1.3v3.8v1.3v3.8v0.3c1.6,0.2,3.3,0.3,4.9,0.5h0.8H301.8z"/>
	<path class="st6" d="M308.1,534.5l-0.9,0.9c1.2,0.1,2.3,0.2,3.5,0.3l1.2-1.3H308.1z"/>
	<path class="st6" d="M298.1,534.5L298.1,534.5c1.1,0.2,2.2,0.3,3.4,0.4l0.4-0.4H298.1z"/>
	<path class="st6" d="M313.1,534.5l-1.3,1.4c1.2,0.1,2.3,0.2,3.5,0.3l1.6-1.7H313.1z"/>
	<path class="st6" d="M303.1,534.5l-0.5,0.5c1.1,0.1,2.3,0.2,3.4,0.3l0.8-0.8H303.1z"/>
	<path class="st6" d="M323.1,534.5l-2.1,2.1c1.2,0.1,2.3,0.2,3.5,0.3l2.3-2.4H323.1z"/>
	<path class="st6" d="M325.7,537c0.6,0,1.2,0.1,1.8,0.1v-1.9L325.7,537z"/>
	<path class="st6" d="M318.1,534.5l-1.7,1.7c1.2,0.1,2.3,0.2,3.5,0.3l2-2H318.1z"/>
	<path class="st5" d="M301.8,534.5l-0.4,0.4c0.4,0,0.8,0.1,1.2,0.1l0.5-0.5H301.8z"/>
	<path class="st5" d="M306.8,534.5l-0.8,0.8c0.4,0,0.8,0.1,1.2,0.1l0.9-0.9H306.8z"/>
	<path class="st5" d="M311.8,534.5l-1.2,1.3c0.4,0,0.8,0.1,1.2,0.1l1.3-1.4H311.8z"/>
	<path class="st5" d="M316.9,534.5l-1.6,1.7c0.4,0,0.8,0.1,1.2,0.1l1.7-1.7H316.9z"/>
	<path class="st5" d="M321.9,534.5l-2,2c0.4,0,0.8,0.1,1.2,0.1l2.1-2.1H321.9z"/>
	<path class="st5" d="M327.5,534.5h-0.6l-2.3,2.4c0.4,0,0.8,0.1,1.2,0.1l1.8-1.8V534.5z"/>
	<path class="st6" d="M292.3,499.1l-30.4,31.1c1.1,0.2,2.2,0.3,3.3,0.5l27.1-27.7V499.1z"/>
	<path class="st6" d="M287.9,498.5l-30.4,31.1c1.1,0.2,2.2,0.3,3.3,0.5l30.9-31.6H287.9z"/>
	<path class="st6" d="M292.3,504.3l-26,26.6c1.1,0.2,2.2,0.3,3.3,0.4l22.7-23.2V504.3z"/>
	<polygon class="st6" points="267.9,498.5 257.1,509.5 257.1,513.4 271.6,498.5 	"/>
	<path class="st6" d="M292.3,514.5L275.2,532c1.1,0.1,2.2,0.3,3.3,0.4l13.8-14.1V514.5z"/>
	<polygon class="st6" points="282.9,498.5 257.1,524.9 257.1,528.7 286.7,498.5 	"/>
	<polygon class="st6" points="277.9,498.5 257.1,519.8 257.1,523.6 281.6,498.5 	"/>
	<polygon class="st6" points="257.8,498.5 257.1,499.3 257.1,503.1 261.6,498.5 	"/>
	<path class="st6" d="M292.3,529.9l-3.6,3.7c1.1,0.1,2.3,0.3,3.4,0.4l0.2-0.2V529.9z"/>
	<path class="st6" d="M292.3,519.7l-12.6,12.9c1.1,0.1,2.2,0.3,3.4,0.4l9.3-9.5V519.7z"/>
	<path class="st6" d="M292.3,509.4l-21.6,22.1c1.1,0.1,2.2,0.3,3.3,0.4l18.2-18.6V509.4z"/>
	<polygon class="st6" points="272.9,498.5 257.1,514.6 257.1,518.5 276.6,498.5 	"/>
	<polygon class="st6" points="262.8,498.5 257.1,504.4 257.1,508.2 266.6,498.5 	"/>
	<path class="st6" d="M292.3,524.8l-8.1,8.3c1.1,0.1,2.3,0.3,3.4,0.4l4.8-4.9V524.8z"/>
	<polygon class="st5" points="257.1,498.5 257.1,499.3 257.8,498.5 	"/>
	<polygon class="st5" points="261.6,498.5 257.1,503.1 257.1,504.4 262.8,498.5 	"/>
	<polygon class="st5" points="266.6,498.5 257.1,508.2 257.1,509.5 267.9,498.5 	"/>
	<polygon class="st5" points="271.6,498.5 257.1,513.4 257.1,514.6 272.9,498.5 	"/>
	<polygon class="st5" points="276.6,498.5 257.1,518.5 257.1,519.8 277.9,498.5 	"/>
	<polygon class="st5" points="281.6,498.5 257.1,523.6 257.1,524.9 282.9,498.5 	"/>
	<path class="st5" d="M257.1,530l0.4-0.4c-0.1,0-0.3,0-0.4-0.1V530z"/>
	<path class="st5" d="M286.7,498.5l-29.6,30.3v0.8c0.1,0,0.3,0,0.4,0.1l30.4-31.1H286.7z"/>
	<path class="st5" d="M292.3,498.5h-0.6l-30.9,31.6c0.4,0.1,0.7,0.1,1.1,0.2l30.4-31.1V498.5z"/>
	<path class="st5" d="M292.3,503l-27.1,27.7c0.4,0.1,0.7,0.1,1.1,0.2l26-26.6V503z"/>
	<path class="st5" d="M292.3,508.1l-22.7,23.2c0.4,0,0.7,0.1,1.1,0.1l21.6-22.1V508.1z"/>
	<path class="st5" d="M292.3,513.2l-18.2,18.6c0.4,0,0.7,0.1,1.1,0.1l17.1-17.5V513.2z"/>
	<path class="st5" d="M292.3,518.4l-13.8,14.1c0.4,0,0.8,0.1,1.1,0.1l12.6-12.9V518.4z"/>
	<path class="st5" d="M292.3,523.5L283,533c0.4,0,0.8,0.1,1.1,0.1l8.1-8.3V523.5z"/>
	<path class="st5" d="M292.3,528.6l-4.8,4.9c0.4,0,0.8,0.1,1.1,0.1l3.6-3.7V528.6z"/>
	<path class="st5" d="M191.1,426.4h1.3h3.8h1.3h3.8h1.3h3.8h1.3h3.8h1.3h3.8h1.3h3.8h0.6v-0.6v-3.8v-1.3v-3.8v-1.3v-3.8v-1.3v-3.8
		v-1.3v-1c-12.3-0.6-24.1-1.8-35.2-3.6v0.6v3.8v1.3v3.8v1.3v3.8v1.3v3.8v1.3v3.8v0.8h0.7H191.1z"/>
	<path class="st6" d="M257.1,405.2V404c-0.9,0.1-1.9,0.1-2.8,0.2l-21.8,22.3h3.8L257.1,405.2z"/>
	<path class="st6" d="M228.9,404.5l-7,7.2v3.8l10.7-11C231.3,404.5,230.1,404.5,228.9,404.5z"/>
	<path class="st6" d="M253,404.2c-1.3,0.1-2.6,0.1-3.9,0.2l-21.6,22.1h3.8L253,404.2z"/>
	<path class="st6" d="M224,404.3l-2.2,2.2v3.8l5.8-5.9C226.5,404.4,225.2,404.4,224,404.3z"/>
	<polygon class="st6" points="257.1,415.4 257.1,411.6 242.6,426.4 246.3,426.4 	"/>
	<polygon class="st6" points="257.1,425.7 257.1,421.8 252.6,426.4 256.3,426.4 	"/>
	<polygon class="st6" points="257.1,410.3 257.1,406.4 237.5,426.4 241.3,426.4 	"/>
	<polygon class="st6" points="257.1,420.5 257.1,416.7 247.6,426.4 251.3,426.4 	"/>
	<path class="st6" d="M247.8,404.4c-1.3,0-2.6,0.1-3.8,0.1l-21.4,21.9h3.8L247.8,404.4z"/>
	<path class="st6" d="M237.1,404.6c-1.1,0-2.2,0-3.3,0l-12,12.2v3.8l15.7-16.1C237.4,404.6,237.3,404.6,237.1,404.6z"/>
	<path class="st6" d="M238.8,404.6l-17,17.4v3.8l20.8-21.2C241.4,404.6,240.1,404.6,238.8,404.6z"/>
	<path class="st6" d="M221.9,404.2v1l1-1C222.5,404.3,222.2,404.3,221.9,404.2z"/>
	<path class="st5" d="M222.8,404.3l-1,1v1.3l2.2-2.2C223.6,404.3,223.2,404.3,222.8,404.3z"/>
	<path class="st5" d="M227.7,404.5l-5.8,5.9v1.3l7-7.2C228.5,404.5,228.1,404.5,227.7,404.5z"/>
	<path class="st5" d="M232.6,404.6l-10.7,11v1.3l12-12.2C233.4,404.6,233,404.6,232.6,404.6z"/>
	<path class="st5" d="M237.6,404.6l-15.7,16.1v1.3l17-17.4C238.4,404.6,238,404.6,237.6,404.6z"/>
	<path class="st5" d="M243.9,404.5c-0.4,0-0.9,0-1.3,0l-20.8,21.2v0.6h0.6L243.9,404.5z"/>
	<path class="st5" d="M249.1,404.4c-0.4,0-0.9,0-1.3,0l-21.5,22h1.3L249.1,404.4z"/>
	<path class="st5" d="M254.3,404.2c-0.4,0-0.9,0-1.3,0.1l-21.7,22.2h1.3L254.3,404.2z"/>
	<polygon class="st5" points="257.1,406.4 257.1,405.2 236.3,426.4 237.5,426.4 	"/>
	<polygon class="st5" points="257.1,411.6 257.1,410.3 241.3,426.4 242.6,426.4 	"/>
	<polygon class="st5" points="257.1,416.7 257.1,415.4 246.3,426.4 247.6,426.4 	"/>
	<polygon class="st5" points="257.1,421.8 257.1,420.5 251.3,426.4 252.6,426.4 	"/>
	<polygon class="st5" points="257.1,425.7 256.3,426.4 257.1,426.4 	"/>
	<polygon class="st5" points="191.1,498.5 192.4,498.5 196.2,498.5 197.4,498.5 201.2,498.5 202.4,498.5 206.2,498.5 207.4,498.5 
		211.2,498.5 212.5,498.5 216.2,498.5 217.5,498.5 221.2,498.5 221.9,498.5 221.9,497.8 221.9,494 221.9,492.7 221.9,488.9 
		221.9,487.6 221.9,483.7 221.9,482.5 221.9,478.6 221.9,477.3 221.9,473.5 221.9,472.2 221.9,468.4 221.9,467.1 221.9,463.2 
		221.9,462.5 221.1,462.5 217.4,462.5 216.1,462.5 212.4,462.5 211.1,462.5 207.3,462.5 206.1,462.5 202.3,462.5 201.1,462.5 
		197.3,462.5 196,462.5 192.3,462.5 191,462.5 187.3,462.5 186.6,462.5 186.6,463.1 186.6,466.9 186.6,468.2 186.6,472.1 
		186.6,473.4 186.6,477.2 186.6,478.5 186.6,482.3 186.6,483.6 186.6,487.5 186.6,488.8 186.6,492.6 186.6,493.9 186.6,497.7 
		186.6,498.5 187.4,498.5 	"/>
	<polygon class="st6" points="226.4,462.5 227.6,462.5 231.4,462.5 232.6,462.5 236.4,462.5 237.6,462.5 241.4,462.5 242.7,462.5 
		246.4,462.5 247.7,462.5 251.4,462.5 252.7,462.5 256.5,462.5 257.1,462.5 257.1,461.8 257.1,458 257.1,456.7 257.1,452.8 
		257.1,451.6 257.1,447.7 257.1,446.4 257.1,442.6 257.1,441.3 257.1,437.5 257.1,436.2 257.1,432.3 257.1,431 257.1,427.2 
		257.1,426.4 256.3,426.4 252.6,426.4 251.3,426.4 247.6,426.4 246.3,426.4 242.6,426.4 241.3,426.4 237.5,426.4 236.3,426.4 
		232.5,426.4 231.3,426.4 227.5,426.4 226.2,426.4 222.5,426.4 221.9,426.4 221.9,427.1 221.9,430.9 221.9,432.2 221.9,436.1 
		221.9,437.3 221.9,441.2 221.9,442.5 221.9,446.3 221.9,447.6 221.9,451.4 221.9,452.7 221.9,456.6 221.9,457.9 221.9,461.7 
		221.9,462.5 222.6,462.5 	"/>
	<polygon class="st6" points="247.7,462.5 221.9,488.9 221.9,492.7 251.4,462.5 	"/>
	<polygon class="st6" points="257.1,497.7 257.1,493.9 252.6,498.5 256.3,498.5 	"/>
	<polygon class="st6" points="257.1,472.1 257.1,468.2 227.5,498.5 231.3,498.5 	"/>
	<polygon class="st6" points="232.6,462.5 221.9,473.5 221.9,477.3 236.4,462.5 	"/>
	<polygon class="st6" points="257.1,492.6 257.1,488.8 247.6,498.5 251.3,498.5 	"/>
	<polygon class="st6" points="252.7,462.5 221.9,494 221.9,497.8 256.5,462.5 	"/>
	<polygon class="st6" points="257.1,477.2 257.1,473.4 232.5,498.5 236.3,498.5 	"/>
	<polygon class="st6" points="257.1,466.9 257.1,463.1 222.5,498.5 226.2,498.5 	"/>
	<polygon class="st6" points="257.1,487.5 257.1,483.6 242.6,498.5 246.3,498.5 	"/>
	<polygon class="st6" points="237.6,462.5 221.9,478.6 221.9,482.5 241.4,462.5 	"/>
	<polygon class="st6" points="242.7,462.5 221.9,483.7 221.9,487.6 246.4,462.5 	"/>
	<polygon class="st6" points="227.6,462.5 221.9,468.4 221.9,472.2 231.4,462.5 	"/>
	<polygon class="st6" points="222.6,462.5 221.9,463.2 221.9,467.1 226.4,462.5 	"/>
	<polygon class="st6" points="257.1,482.3 257.1,478.5 237.5,498.5 241.3,498.5 	"/>
	<polygon class="st5" points="221.9,462.5 221.9,463.2 222.6,462.5 	"/>
	<polygon class="st5" points="226.4,462.5 221.9,467.1 221.9,468.4 227.6,462.5 	"/>
	<polygon class="st5" points="231.4,462.5 221.9,472.2 221.9,473.5 232.6,462.5 	"/>
	<polygon class="st5" points="236.4,462.5 221.9,477.3 221.9,478.6 237.6,462.5 	"/>
	<polygon class="st5" points="241.4,462.5 221.9,482.5 221.9,483.7 242.7,462.5 	"/>
	<polygon class="st5" points="246.4,462.5 221.9,487.6 221.9,488.9 247.7,462.5 	"/>
	<polygon class="st5" points="251.4,462.5 221.9,492.7 221.9,494 252.7,462.5 	"/>
	<polygon class="st5" points="257.1,463.1 257.1,462.5 256.5,462.5 221.9,497.8 221.9,498.5 222.5,498.5 	"/>
	<polygon class="st5" points="257.1,468.2 257.1,466.9 226.2,498.5 227.5,498.5 	"/>
	<polygon class="st5" points="257.1,473.4 257.1,472.1 231.3,498.5 232.5,498.5 	"/>
	<polygon class="st5" points="257.1,478.5 257.1,477.2 236.3,498.5 237.5,498.5 	"/>
	<polygon class="st5" points="257.1,483.6 257.1,482.3 241.3,498.5 242.6,498.5 	"/>
	<polygon class="st5" points="257.1,488.8 257.1,487.5 246.3,498.5 247.6,498.5 	"/>
	<polygon class="st5" points="257.1,493.9 257.1,492.6 251.3,498.5 252.6,498.5 	"/>
	<polygon class="st5" points="257.1,497.7 256.3,498.5 257.1,498.5 	"/>
	<polygon class="st6" points="192.4,426.4 186.6,432.3 186.6,436.2 196.2,426.4 	"/>
	<polygon class="st6" points="221.9,436.1 221.9,432.2 192.3,462.5 196,462.5 	"/>
	<polygon class="st6" points="221.9,451.4 221.9,447.6 207.3,462.5 211.1,462.5 	"/>
	<polygon class="st6" points="221.9,461.7 221.9,457.9 217.4,462.5 221.1,462.5 	"/>
	<polygon class="st6" points="221.9,441.2 221.9,437.3 197.3,462.5 201.1,462.5 	"/>
	<polygon class="st6" points="221.9,456.6 221.9,452.7 212.4,462.5 216.1,462.5 	"/>
	<polygon class="st6" points="217.5,426.4 186.6,458 186.6,461.8 221.2,426.4 	"/>
	<polygon class="st6" points="202.4,426.4 186.6,442.6 186.6,446.4 206.2,426.4 	"/>
	<polygon class="st6" points="207.4,426.4 186.6,447.7 186.6,451.6 211.2,426.4 	"/>
	<polygon class="st6" points="212.5,426.4 186.6,452.8 186.6,456.7 216.2,426.4 	"/>
	<polygon class="st6" points="221.9,446.3 221.9,442.5 202.3,462.5 206.1,462.5 	"/>
	<polygon class="st6" points="197.4,426.4 186.6,437.5 186.6,441.3 201.2,426.4 	"/>
	<polygon class="st6" points="221.9,430.9 221.9,427.1 187.3,462.5 191,462.5 	"/>
	<polygon class="st6" points="187.4,426.4 186.6,427.2 186.6,431 191.1,426.4 	"/>
	<polygon class="st5" points="186.6,426.4 186.6,427.2 187.4,426.4 	"/>
	<polygon class="st5" points="191.1,426.4 186.6,431 186.6,432.3 192.4,426.4 	"/>
	<polygon class="st5" points="196.2,426.4 186.6,436.2 186.6,437.5 197.4,426.4 	"/>
	<polygon class="st5" points="201.2,426.4 186.6,441.3 186.6,442.6 202.4,426.4 	"/>
	<polygon class="st5" points="206.2,426.4 186.6,446.4 186.6,447.7 207.4,426.4 	"/>
	<polygon class="st5" points="211.2,426.4 186.6,451.6 186.6,452.8 212.5,426.4 	"/>
	<polygon class="st5" points="216.2,426.4 186.6,456.7 186.6,458 217.5,426.4 	"/>
	<polygon class="st5" points="221.9,427.1 221.9,426.4 221.2,426.4 186.6,461.8 186.6,462.5 187.3,462.5 	"/>
	<polygon class="st5" points="221.9,432.2 221.9,430.9 191,462.5 192.3,462.5 	"/>
	<polygon class="st5" points="221.9,437.3 221.9,436.1 196,462.5 197.3,462.5 	"/>
	<polygon class="st5" points="221.9,442.5 221.9,441.2 201.1,462.5 202.3,462.5 	"/>
	<polygon class="st5" points="221.9,447.6 221.9,446.3 206.1,462.5 207.3,462.5 	"/>
	<polygon class="st5" points="221.9,452.7 221.9,451.4 211.1,462.5 212.4,462.5 	"/>
	<polygon class="st5" points="221.9,457.9 221.9,456.6 216.1,462.5 217.4,462.5 	"/>
	<polygon class="st5" points="221.9,461.7 221.1,462.5 221.9,462.5 	"/>
	<path class="st6" d="M257.1,524.9v-1.3v-3.8v-1.3v-3.8v-1.3v-3.8v-1.3v-3.8v-1.3v-3.8v-0.8h-0.7h-3.8h-1.3h-3.8h-1.3h-3.8h-1.3
		h-3.8h-1.3h-3.8h-1.3h-3.8h-1.3h-3.8h-0.6v0.6v3.8v1.3v3.8v1.3v3.8v1.3v3.8v1.3v3.8v0c11.7,2.3,23.4,4.3,35.2,6v-0.8V524.9z"/>
	<path class="st6" d="M207.4,498.5l-17.6,18c1,0.2,2,0.5,3,0.7l18.3-18.7H207.4z"/>
	<path class="st6" d="M221.9,499.1l-19.8,20.2c1,0.2,2.1,0.5,3.1,0.7l16.7-17.1V499.1z"/>
	<path class="st6" d="M212.5,498.5l-18.5,18.9c1,0.2,2,0.5,3,0.7l19.2-19.7H212.5z"/>
	<path class="st6" d="M217.5,498.5L198,518.4c1,0.2,2,0.5,3.1,0.7l20.2-20.6H217.5z"/>
	<path class="st6" d="M221.9,504.3l-15.6,16c1,0.2,2.1,0.5,3.1,0.7l12.5-12.8V504.3z"/>
	<polygon class="st6" points="187.4,498.5 186.6,499.3 186.6,503.1 191.1,498.5 	"/>
	<polygon class="st6" points="197.4,498.5 186.6,509.5 186.6,513.4 201.2,498.5 	"/>
	<path class="st6" d="M221.9,509.4l-11.5,11.8c1,0.2,2.1,0.4,3.1,0.7l8.4-8.6V509.4z"/>
	<path class="st6" d="M221.9,514.5l-7.3,7.5c1,0.2,2.1,0.4,3.1,0.6l4.2-4.3V514.5z"/>
	<path class="st6" d="M202.4,498.5l-15.8,16.2v1c0.7,0.2,1.5,0.4,2.2,0.6l17.3-17.7H202.4z"/>
	<polygon class="st6" points="192.4,498.5 186.6,504.4 186.6,508.2 196.2,498.5 	"/>
	<path class="st6" d="M221.9,519.7l-3.2,3.2c1,0.2,2.1,0.4,3.1,0.6l0,0V519.7z"/>
	<polygon class="st5" points="186.6,498.5 186.6,499.3 187.4,498.5 	"/>
	<polygon class="st5" points="191.1,498.5 186.6,503.1 186.6,504.4 192.4,498.5 	"/>
	<polygon class="st5" points="196.2,498.5 186.6,508.2 186.6,509.5 197.4,498.5 	"/>
	<polygon class="st5" points="201.2,498.5 186.6,513.4 186.6,514.6 202.4,498.5 	"/>
	<path class="st5" d="M206.2,498.5l-17.3,17.7c0.3,0.1,0.7,0.2,1,0.3l17.6-18H206.2z"/>
	<path class="st5" d="M211.2,498.5l-18.3,18.7c0.3,0.1,0.7,0.2,1,0.2l18.5-18.9H211.2z"/>
	<path class="st5" d="M216.2,498.5L197,518.2c0.3,0.1,0.7,0.2,1,0.2l19.5-19.9H216.2z"/>
	<path class="st5" d="M221.9,498.5h-0.6l-20.2,20.6c0.3,0.1,0.7,0.2,1,0.2l19.8-20.2V498.5z"/>
	<path class="st5" d="M221.9,503L205.2,520c0.3,0.1,0.7,0.2,1,0.2l15.6-16V503z"/>
	<path class="st5" d="M221.9,508.1l-12.5,12.8c0.3,0.1,0.7,0.1,1,0.2l11.5-11.8V508.1z"/>
	<path class="st5" d="M221.9,513.2l-8.4,8.6c0.3,0.1,0.7,0.1,1,0.2l7.3-7.5V513.2z"/>
	<path class="st5" d="M221.9,518.4l-4.2,4.3c0.4,0.1,0.7,0.1,1.1,0.2l3.2-3.2V518.4z"/>
	<path class="st5" d="M221.8,523.5C221.8,523.5,221.9,523.5,221.8,523.5L221.8,523.5L221.8,523.5z"/>
	<path class="st5" d="M120.7,426.4h1.3h3.8h1.3h3.8h1.3h3.8h1.3h3.8h1.3h3.8h1.3h3.8h0.6v-0.6v-3.8v-1.3v-3.8v-1.3v-3.8v-1.3v-3.8
		v-1.3v-3.8v-1.3v-3.8V395v-2.7c-1.9-0.6-3.7-1.3-5.6-1.9h-0.2h-3.8h-1.3h-3.8h-1.3h-3.8h-1.3h-3.8h-1.3h-3.8h-1.3h-3.8h-0.6v0.6
		v3.8v1.3v3.8v1.3v3.8v1.3v3.8v1.3v3.8v1.3v3.8v1.3v3.8v0.8h0.7H120.7z"/>
	<polygon class="st6" points="186.6,420.5 186.6,416.7 177.1,426.4 180.9,426.4 	"/>
	<path class="st6" d="M170.3,397.5l-18.9,19.3v3.8l22-22.5C172.3,398,171.3,397.7,170.3,397.5z"/>
	<path class="st6" d="M174.4,398.4l-23,23.5v3.8l26.1-26.7C176.5,398.8,175.5,398.6,174.4,398.4z"/>
	<path class="st6" d="M166.2,396.5l-14.8,15.1v3.8l17.8-18.3C168.2,397,167.2,396.8,166.2,396.5z"/>
	<polygon class="st6" points="186.6,425.7 186.6,421.8 182.1,426.4 185.9,426.4 	"/>
	<path class="st6" d="M181.8,399.8c-1.1-0.2-2.1-0.4-3.2-0.6l-26.6,27.2h3.8L181.8,399.8z"/>
	<path class="st6" d="M186.1,400.6c-1.1-0.2-2.2-0.4-3.2-0.5l-25.8,26.4h3.8L186.1,400.6z"/>
	<path class="st6" d="M162.2,395.5l-10.8,11v3.8l13.8-14.1C164.2,396,163.2,395.8,162.2,395.5z"/>
	<polygon class="st6" points="186.6,410.3 186.6,406.4 167.1,426.4 170.9,426.4 	"/>
	<polygon class="st6" points="186.6,415.4 186.6,411.6 172.1,426.4 175.9,426.4 	"/>
	<polygon class="st6" points="186.6,405.2 186.6,401.3 162.1,426.4 165.8,426.4 	"/>
	<path class="st6" d="M151.4,400.1l5.9-6c-1-0.3-1.9-0.6-2.9-0.9l-3,3V400.1z"/>
	<path class="st6" d="M158.3,394.4l-6.9,7v3.8l9.8-10C160.2,395,159.3,394.7,158.3,394.4z"/>
	<path class="st6" d="M153.4,393c-0.7-0.2-1.3-0.4-2-0.6v2.7L153.4,393z"/>
	<path class="st5" d="M151.4,396.3l3-3c-0.3-0.1-0.6-0.2-1-0.3l-2,2V396.3z"/>
	<path class="st5" d="M151.4,401.4l6.9-7c-0.3-0.1-0.7-0.2-1-0.3l-5.9,6V401.4z"/>
	<path class="st5" d="M161.2,395.2l-9.8,10v1.3l10.8-11C161.9,395.4,161.6,395.3,161.2,395.2z"/>
	<path class="st5" d="M165.2,396.3l-13.8,14.1v1.3l14.8-15.1C165.9,396.5,165.6,396.4,165.2,396.3z"/>
	<path class="st5" d="M169.3,397.3l-17.8,18.3v1.3l18.9-19.3C170,397.4,169.6,397.4,169.3,397.3z"/>
	<path class="st5" d="M173.4,398.2l-22,22.5v1.3l23-23.5C174.1,398.3,173.7,398.3,173.4,398.2z"/>
	<path class="st5" d="M178.6,399.3c-0.4-0.1-0.7-0.1-1.1-0.2l-26.1,26.7v0.6h0.6L178.6,399.3z"/>
	<path class="st5" d="M182.9,400c-0.4-0.1-0.7-0.1-1.1-0.2l-26,26.6h1.3L182.9,400z"/>
	<path class="st5" d="M186.6,401.3v-0.6c-0.2,0-0.4-0.1-0.5-0.1l-25.3,25.9h1.3L186.6,401.3z"/>
	<polygon class="st5" points="186.6,406.4 186.6,405.2 165.8,426.4 167.1,426.4 	"/>
	<polygon class="st5" points="186.6,411.6 186.6,410.3 170.9,426.4 172.1,426.4 	"/>
	<polygon class="st5" points="186.6,416.7 186.6,415.4 175.9,426.4 177.1,426.4 	"/>
	<polygon class="st5" points="186.6,421.8 186.6,420.5 180.9,426.4 182.1,426.4 	"/>
	<polygon class="st5" points="186.6,425.7 185.9,426.4 186.6,426.4 	"/>
	<path class="st6" d="M120.3,385.6c-1.4,0.2-2.7,0.4-4.1,0.6v3.6L120.3,385.6z"/>
	<path class="st6" d="M145.7,390.4L145.7,390.4c-0.9-0.4-1.8-0.7-2.7-1.1l-1.1,1.1H145.7z"/>
	<path class="st6" d="M140.7,390.4l1.4-1.4c-0.9-0.4-1.8-0.7-2.7-1.1l-2.5,2.5H140.7z"/>
	<path class="st6" d="M130.6,390.4l4.3-4.4c-0.9-0.4-1.7-0.8-2.6-1.2l-5.5,5.6H130.6z"/>
	<path class="st6" d="M125.6,390.4l5.9-6c-0.3-0.1-0.6-0.3-0.9-0.4c-1,0.2-2,0.3-3,0.5l-5.8,6H125.6z"/>
	<path class="st6" d="M120.6,390.4l5.6-5.7c-1.5,0.2-2.9,0.5-4.4,0.7l-4.9,5.1H120.6z"/>
	<path class="st6" d="M135.6,390.4l2.8-2.9c-0.9-0.4-1.8-0.7-2.6-1.1l-3.9,4H135.6z"/>
	<path class="st5" d="M116.2,390.4h0.6l4.9-5.1c-0.5,0.1-1,0.1-1.5,0.2l-4.1,4.2V390.4z"/>
	<path class="st5" d="M121.9,390.4l5.8-6c-0.5,0.1-1,0.2-1.5,0.2l-5.6,5.7H121.9z"/>
	<path class="st5" d="M126.9,390.4l5.5-5.6c-0.3-0.1-0.6-0.3-0.8-0.4l-5.9,6H126.9z"/>
	<path class="st5" d="M131.9,390.4l3.9-4c-0.3-0.1-0.6-0.3-0.9-0.4l-4.3,4.4H131.9z"/>
	<path class="st5" d="M136.9,390.4l2.5-2.5c-0.3-0.1-0.6-0.3-0.9-0.4l-2.8,2.9H136.9z"/>
	<path class="st5" d="M141.9,390.4l1.1-1.1c-0.3-0.1-0.6-0.2-0.9-0.4l-1.4,1.4H141.9z"/>
	<path class="st5" d="M145.9,390.4c-0.1,0-0.1,0-0.2-0.1l-0.1,0.1H145.9z"/>
	<path class="st5" d="M132,498.5h3.8h1.3h3.8h1.3h3.8h1.3h3.8h0.6v-0.6V494v-1.3v-3.8v-1.3v-3.8v-1.3v-3.8v-1.3v-3.8v-1.3v-3.8v-1.3
		v-3.8v-0.8h-0.7h-3.8h-1.3h-3.8h-1.3h-3.8h-1.3h-3.8h-1.3h-3.8h-1.3h-3.8h-1.3h-3.8h-0.6v0.6v3.8v1.3v3.8v1.3v3.8v1.3v3.8v1.3v3.8
		v1.3v3.8v0.6c4.7,1.8,9.4,3.6,14.1,5.3h0.5H132z"/>
	<polygon class="st6" points="155.9,462.5 157.2,462.5 160.9,462.5 162.2,462.5 166,462.5 167.2,462.5 171,462.5 172.2,462.5 
		176,462.5 177.2,462.5 181,462.5 182.3,462.5 186,462.5 186.6,462.5 186.6,461.8 186.6,458 186.6,456.7 186.6,452.8 186.6,451.6 
		186.6,447.7 186.6,446.4 186.6,442.6 186.6,441.3 186.6,437.5 186.6,436.2 186.6,432.3 186.6,431 186.6,427.2 186.6,426.4 
		185.9,426.4 182.1,426.4 180.9,426.4 177.1,426.4 175.9,426.4 172.1,426.4 170.9,426.4 167.1,426.4 165.8,426.4 162.1,426.4 
		160.8,426.4 157.1,426.4 155.8,426.4 152.1,426.4 151.4,426.4 151.4,427.1 151.4,430.9 151.4,432.2 151.4,436.1 151.4,437.3 
		151.4,441.2 151.4,442.5 151.4,446.3 151.4,447.6 151.4,451.4 151.4,452.7 151.4,456.6 151.4,457.9 151.4,461.7 151.4,462.5 
		152.2,462.5 	"/>
	<polygon class="st6" points="186.6,487.5 186.6,483.6 172.1,498.5 175.9,498.5 	"/>
	<polygon class="st6" points="186.6,482.3 186.6,478.5 167.1,498.5 170.9,498.5 	"/>
	<polygon class="st6" points="157.2,462.5 151.4,468.4 151.4,472.2 160.9,462.5 	"/>
	<polygon class="st6" points="172.2,462.5 151.4,483.7 151.4,487.6 176,462.5 	"/>
	<polygon class="st6" points="186.6,466.9 186.6,463.1 152.1,498.5 155.8,498.5 	"/>
	<polygon class="st6" points="177.2,462.5 151.4,488.9 151.4,492.7 181,462.5 	"/>
	<polygon class="st6" points="167.2,462.5 151.4,478.6 151.4,482.5 171,462.5 	"/>
	<polygon class="st6" points="152.2,462.5 151.4,463.2 151.4,467.1 155.9,462.5 	"/>
	<polygon class="st6" points="162.2,462.5 151.4,473.5 151.4,477.3 166,462.5 	"/>
	<polygon class="st6" points="186.6,492.6 186.6,488.8 177.1,498.5 180.9,498.5 	"/>
	<polygon class="st6" points="186.6,477.2 186.6,473.4 162.1,498.5 165.8,498.5 	"/>
	<polygon class="st6" points="186.6,472.1 186.6,468.2 157.1,498.5 160.8,498.5 	"/>
	<polygon class="st6" points="186.6,497.7 186.6,493.9 182.1,498.5 185.9,498.5 	"/>
	<polygon class="st6" points="182.3,462.5 151.4,494 151.4,497.8 186,462.5 	"/>
	<polygon class="st5" points="151.4,462.5 151.4,463.2 152.2,462.5 	"/>
	<polygon class="st5" points="155.9,462.5 151.4,467.1 151.4,468.4 157.2,462.5 	"/>
	<polygon class="st5" points="160.9,462.5 151.4,472.2 151.4,473.5 162.2,462.5 	"/>
	<polygon class="st5" points="166,462.5 151.4,477.3 151.4,478.6 167.2,462.5 	"/>
	<polygon class="st5" points="171,462.5 151.4,482.5 151.4,483.7 172.2,462.5 	"/>
	<polygon class="st5" points="176,462.5 151.4,487.6 151.4,488.9 177.2,462.5 	"/>
	<polygon class="st5" points="181,462.5 151.4,492.7 151.4,494 182.3,462.5 	"/>
	<polygon class="st5" points="186.6,463.1 186.6,462.5 186,462.5 151.4,497.8 151.4,498.5 152.1,498.5 	"/>
	<polygon class="st5" points="186.6,468.2 186.6,466.9 155.8,498.5 157.1,498.5 	"/>
	<polygon class="st5" points="186.6,473.4 186.6,472.1 160.8,498.5 162.1,498.5 	"/>
	<polygon class="st5" points="186.6,478.5 186.6,477.2 165.8,498.5 167.1,498.5 	"/>
	<polygon class="st5" points="186.6,483.6 186.6,482.3 170.9,498.5 172.1,498.5 	"/>
	<polygon class="st5" points="186.6,488.8 186.6,487.5 175.9,498.5 177.1,498.5 	"/>
	<polygon class="st5" points="186.6,493.9 186.6,492.6 180.9,498.5 182.1,498.5 	"/>
	<polygon class="st5" points="186.6,497.7 185.9,498.5 186.6,498.5 	"/>
	<polygon class="st6" points="132,426.4 116.2,442.6 116.2,446.4 135.8,426.4 	"/>
	<polygon class="st6" points="147,426.4 116.2,458 116.2,461.8 150.8,426.4 	"/>
	<polygon class="st6" points="142,426.4 116.2,452.8 116.2,456.7 145.8,426.4 	"/>
	<polygon class="st6" points="137,426.4 116.2,447.7 116.2,451.6 140.8,426.4 	"/>
	<polygon class="st6" points="122,426.4 116.2,432.3 116.2,436.2 125.7,426.4 	"/>
	<polygon class="st6" points="127,426.4 116.2,437.5 116.2,441.3 130.7,426.4 	"/>
	<polygon class="st6" points="151.4,441.2 151.4,437.3 126.9,462.5 130.6,462.5 	"/>
	<polygon class="st6" points="151.4,436.1 151.4,432.2 121.9,462.5 125.6,462.5 	"/>
	<polygon class="st6" points="151.4,451.4 151.4,447.6 136.9,462.5 140.7,462.5 	"/>
	<polygon class="st6" points="151.4,456.6 151.4,452.7 141.9,462.5 145.7,462.5 	"/>
	<polygon class="st6" points="151.4,461.7 151.4,457.9 146.9,462.5 150.7,462.5 	"/>
	<polygon class="st6" points="151.4,446.3 151.4,442.5 131.9,462.5 135.6,462.5 	"/>
	<polygon class="st6" points="117,426.4 116.2,427.2 116.2,431 120.7,426.4 	"/>
	<polygon class="st6" points="151.4,430.9 151.4,427.1 116.8,462.5 120.6,462.5 	"/>
	<polygon class="st5" points="116.2,426.4 116.2,427.2 117,426.4 	"/>
	<polygon class="st5" points="120.7,426.4 116.2,431 116.2,432.3 122,426.4 	"/>
	<polygon class="st5" points="125.7,426.4 116.2,436.2 116.2,437.5 127,426.4 	"/>
	<polygon class="st5" points="130.7,426.4 116.2,441.3 116.2,442.6 132,426.4 	"/>
	<polygon class="st5" points="135.8,426.4 116.2,446.4 116.2,447.7 137,426.4 	"/>
	<polygon class="st5" points="140.8,426.4 116.2,451.6 116.2,452.8 142,426.4 	"/>
	<polygon class="st5" points="145.8,426.4 116.2,456.7 116.2,458 147,426.4 	"/>
	<polygon class="st5" points="151.4,427.1 151.4,426.4 150.8,426.4 116.2,461.8 116.2,462.5 116.8,462.5 	"/>
	<polygon class="st5" points="151.4,432.2 151.4,430.9 120.6,462.5 121.9,462.5 	"/>
	<polygon class="st5" points="151.4,437.3 151.4,436.1 125.6,462.5 126.9,462.5 	"/>
	<polygon class="st5" points="151.4,442.5 151.4,441.2 130.6,462.5 131.9,462.5 	"/>
	<polygon class="st5" points="151.4,447.6 151.4,446.3 135.6,462.5 136.9,462.5 	"/>
	<polygon class="st5" points="151.4,452.7 151.4,451.4 140.7,462.5 141.9,462.5 	"/>
	<polygon class="st5" points="151.4,457.9 151.4,456.6 145.7,462.5 146.9,462.5 	"/>
	<polygon class="st5" points="151.4,461.7 150.7,462.5 151.4,462.5 	"/>
	<path class="st6" d="M186.6,513.4v-3.8v-1.3v-3.8v-1.3v-3.8v-0.8h-0.7h-3.8h-1.3h-3.8h-1.3h-3.8h-1.3h-3.8h-1.3h-3.8h-1.3h-3.8
		h-1.3h-3.8h-0.6v0.6v3.8v1.3v1.4c11.7,3.7,23.4,7,35.2,10v-1V513.4z"/>
	<path class="st6" d="M132,498.5l-0.5,0.5c0.9,0.3,1.9,0.7,2.8,1l1.4-1.5H132z"/>
	<path class="st6" d="M130.3,498.5c0.1,0,0.2,0.1,0.3,0.1l0.1-0.1H130.3z"/>
	<path class="st6" d="M150.4,505.3c0.3,0.1,0.7,0.2,1,0.3v-1.4L150.4,505.3z"/>
	<path class="st6" d="M137,498.5l-1.7,1.8c0.9,0.3,1.9,0.7,2.8,1l2.7-2.8H137z"/>
	<path class="st6" d="M151.4,499.1l-4.8,5c1,0.3,1.9,0.6,2.9,0.9l2-2V499.1z"/>
	<path class="st6" d="M142,498.5l-3,3.1c0.9,0.3,1.9,0.6,2.8,1l3.9-4H142z"/>
	<path class="st6" d="M147,498.5l-4.3,4.3c0.9,0.3,1.9,0.6,2.8,0.9l5.2-5.3H147z"/>
	<path class="st5" d="M130.7,498.5l-0.1,0.1c0.3,0.1,0.6,0.2,0.9,0.3l0.5-0.5H130.7z"/>
	<path class="st5" d="M135.8,498.5l-1.4,1.5c0.3,0.1,0.6,0.2,0.9,0.3l1.7-1.8H135.8z"/>
	<path class="st5" d="M140.8,498.5l-2.7,2.8c0.3,0.1,0.6,0.2,0.9,0.3l3-3.1H140.8z"/>
	<path class="st5" d="M145.8,498.5l-3.9,4c0.3,0.1,0.6,0.2,1,0.3l4.3-4.3H145.8z"/>
	<path class="st5" d="M151.4,498.5h-0.6l-5.2,5.3c0.3,0.1,0.6,0.2,1,0.3l4.8-5V498.5z"/>
	<path class="st5" d="M151.4,503l-2,2c0.3,0.1,0.6,0.2,1,0.3l1-1.1V503z"/>
	<path class="st5" d="M50.3,426.4h1.3h3.8h1.3h3.8h1.3h3.8h1.3h3.8h1.3h3.8h1.3h3.8H81v-0.6v-3.8v-1.3v-3.8v-1.3v-3.8v-1.3v-3.8
		v-1.3v-3.8v-1.3v-3.8V395v-3.8v-0.8h-0.7h-2.8c-8.6,0.8-15.7,1.4-19.9,1.9c-4.3,0.5-8.2,1-11.8,1.7v0.9v1.3v3.8v1.3v3.8v1.3v3.8
		v1.3v3.8v1.3v3.8v1.3v3.8v0.8h0.7H50.3z"/>
	<path class="st6" d="M81.7,390.4h3.8h1.3h3.8h1.3h3.8h1.3h3.8h1.3h3.8h1.3h3.8h1.3h3.8h0.6v-0.6v-3.6c-11.8,1.6-24.4,2.9-35.2,3.9
		v0.3H81.7z"/>
	<polygon class="st6" points="116.2,415.4 116.2,411.6 101.7,426.4 105.4,426.4 	"/>
	<polygon class="st6" points="116.2,400 116.2,396.2 86.6,426.4 90.4,426.4 	"/>
	<polygon class="st6" points="96.8,390.4 81,406.6 81,410.4 100.5,390.4 	"/>
	<polygon class="st6" points="101.8,390.4 81,411.7 81,415.5 105.5,390.4 	"/>
	<polygon class="st6" points="116.2,394.9 116.2,391.1 81.6,426.4 85.4,426.4 	"/>
	<polygon class="st6" points="106.8,390.4 81,416.8 81,420.7 110.6,390.4 	"/>
	<polygon class="st6" points="116.2,405.2 116.2,401.3 91.7,426.4 95.4,426.4 	"/>
	<polygon class="st6" points="91.8,390.4 81,401.4 81,405.3 95.5,390.4 	"/>
	<polygon class="st6" points="116.2,410.3 116.2,406.4 96.7,426.4 100.4,426.4 	"/>
	<polygon class="st6" points="111.8,390.4 81,421.9 81,425.8 115.6,390.4 	"/>
	<polygon class="st6" points="81.7,390.4 81,391.2 81,395 85.5,390.4 	"/>
	<polygon class="st6" points="116.2,420.5 116.2,416.7 106.7,426.4 110.5,426.4 	"/>
	<polygon class="st6" points="116.2,425.7 116.2,421.8 111.7,426.4 115.5,426.4 	"/>
	<polygon class="st6" points="86.7,390.4 81,396.3 81,400.1 90.5,390.4 	"/>
	<polygon class="st5" points="81,390.4 81,391.2 81.7,390.4 	"/>
	<polygon class="st5" points="85.5,390.4 81,395 81,396.3 86.7,390.4 	"/>
	<polygon class="st5" points="90.5,390.4 81,400.1 81,401.4 91.8,390.4 	"/>
	<polygon class="st5" points="95.5,390.4 81,405.3 81,406.6 96.8,390.4 	"/>
	<polygon class="st5" points="100.5,390.4 81,410.4 81,411.7 101.8,390.4 	"/>
	<polygon class="st5" points="105.5,390.4 81,415.5 81,416.8 106.8,390.4 	"/>
	<polygon class="st5" points="110.6,390.4 81,420.7 81,421.9 111.8,390.4 	"/>
	<polygon class="st5" points="116.2,391.1 116.2,390.4 115.6,390.4 81,425.8 81,426.4 81.6,426.4 	"/>
	<polygon class="st5" points="116.2,396.2 116.2,394.9 85.4,426.4 86.6,426.4 	"/>
	<polygon class="st5" points="116.2,401.3 116.2,400 90.4,426.4 91.7,426.4 	"/>
	<polygon class="st5" points="116.2,406.4 116.2,405.2 95.4,426.4 96.7,426.4 	"/>
	<polygon class="st5" points="116.2,411.6 116.2,410.3 100.4,426.4 101.7,426.4 	"/>
	<polygon class="st5" points="116.2,416.7 116.2,415.4 105.4,426.4 106.7,426.4 	"/>
	<polygon class="st5" points="116.2,421.8 116.2,420.5 110.5,426.4 111.7,426.4 	"/>
	<polygon class="st5" points="116.2,425.7 115.5,426.4 116.2,426.4 	"/>
	<path class="st6" d="M80.5,390.1c-1,0.1-2.1,0.2-3.1,0.3h2.8L80.5,390.1z"/>
	<path class="st5" d="M81,390.4v-0.3c-0.2,0-0.3,0-0.5,0l-0.3,0.3H81z"/>
	<path class="st5" d="M81,473.5v-1.3v-3.8v-1.3v-3.8v-0.8h-0.7h-3.8h-1.3h-3.8h-1.3h-3.8h-1.3h-3.8h-1.3h-3.8h-1.3h-3.8h-1.3h-0.4
		c10.4,5.2,20.8,10.4,31.2,15.3v-0.5V473.5z"/>
	<polygon class="st6" points="85.5,462.5 86.7,462.5 90.5,462.5 91.8,462.5 95.5,462.5 96.8,462.5 100.5,462.5 101.8,462.5 
		105.5,462.5 106.8,462.5 110.6,462.5 111.8,462.5 115.6,462.5 116.2,462.5 116.2,461.8 116.2,458 116.2,456.7 116.2,452.8 
		116.2,451.6 116.2,447.7 116.2,446.4 116.2,442.6 116.2,441.3 116.2,437.5 116.2,436.2 116.2,432.3 116.2,431 116.2,427.2 
		116.2,426.4 115.5,426.4 111.7,426.4 110.5,426.4 106.7,426.4 105.4,426.4 101.7,426.4 100.4,426.4 96.7,426.4 95.4,426.4 
		91.7,426.4 90.4,426.4 86.6,426.4 85.4,426.4 81.6,426.4 81,426.4 81,427.1 81,430.9 81,432.2 81,436.1 81,437.3 81,441.2 
		81,442.5 81,446.3 81,447.6 81,451.4 81,452.7 81,456.6 81,457.9 81,461.7 81,462.5 81.7,462.5 	"/>
	<polygon class="st6" points="91.8,462.5 81,473.5 81,477.3 95.5,462.5 	"/>
	<path class="st6" d="M96.8,462.5l-15.3,15.6c0.9,0.4,1.7,0.8,2.6,1.2l16.4-16.8H96.8z"/>
	<path class="st6" d="M101.8,462.5L85,479.7c0.9,0.4,1.7,0.8,2.6,1.2l18-18.4H101.8z"/>
	<polygon class="st6" points="86.7,462.5 81,468.4 81,472.2 90.5,462.5 	"/>
	<path class="st6" d="M106.8,462.5l-18.4,18.8c0.9,0.4,1.7,0.8,2.6,1.2l19.6-20H106.8z"/>
	<polygon class="st6" points="81.7,462.5 81,463.2 81,467.1 85.5,462.5 	"/>
	<path class="st6" d="M116.2,468.2L98.9,486c0.9,0.4,1.7,0.8,2.6,1.2l14.7-15.1V468.2z"/>
	<path class="st6" d="M116.2,473.4l-13.8,14.2c0.9,0.4,1.8,0.8,2.7,1.1l11.2-11.4V473.4z"/>
	<path class="st6" d="M116.2,478.5L105.9,489c0.9,0.4,1.8,0.8,2.7,1.1l7.6-7.8V478.5z"/>
	<path class="st6" d="M116.2,483.6l-6.7,6.9c0.9,0.4,1.8,0.7,2.7,1.1l4-4.1V483.6z"/>
	<path class="st6" d="M116.2,488.8l-3.1,3.2c0.9,0.4,1.8,0.7,2.7,1.1l0.4-0.4V488.8z"/>
	<path class="st6" d="M111.8,462.5l-19.9,20.4c0.9,0.4,1.7,0.8,2.6,1.2l21.1-21.6H111.8z"/>
	<path class="st6" d="M116.2,463.1l-20.9,21.3c0.9,0.4,1.7,0.8,2.6,1.2l18.2-18.7V463.1z"/>
	<polygon class="st5" points="81,462.5 81,463.2 81.7,462.5 	"/>
	<polygon class="st5" points="85.5,462.5 81,467.1 81,468.4 86.7,462.5 	"/>
	<polygon class="st5" points="90.5,462.5 81,472.2 81,473.5 91.8,462.5 	"/>
	<path class="st5" d="M95.5,462.5L81,477.3v0.5c0.2,0.1,0.4,0.2,0.5,0.3l15.3-15.6H95.5z"/>
	<path class="st5" d="M81,478.6l0.5-0.5c-0.2-0.1-0.4-0.2-0.5-0.3V478.6z"/>
	<path class="st5" d="M100.5,462.5l-16.4,16.8c0.3,0.1,0.6,0.3,0.9,0.4l16.8-17.2H100.5z"/>
	<path class="st5" d="M105.5,462.5l-18,18.4c0.3,0.1,0.6,0.3,0.9,0.4l18.4-18.8H105.5z"/>
	<path class="st5" d="M110.6,462.5l-19.6,20c0.3,0.1,0.6,0.3,0.9,0.4l19.9-20.4H110.6z"/>
	<path class="st5" d="M116.2,462.5h-0.6L94.5,484c0.3,0.1,0.6,0.3,0.9,0.4l20.9-21.3V462.5z"/>
	<path class="st5" d="M116.2,466.9L98,485.6c0.3,0.1,0.6,0.3,0.9,0.4l17.3-17.7V466.9z"/>
	<path class="st5" d="M116.2,472.1l-14.7,15.1c0.3,0.1,0.6,0.3,0.9,0.4l13.8-14.2V472.1z"/>
	<path class="st5" d="M116.2,477.2L105,488.7c0.3,0.1,0.6,0.3,0.9,0.4l10.3-10.5V477.2z"/>
	<path class="st5" d="M116.2,482.3l-7.6,7.8c0.1,0.1,0.3,0.1,0.4,0.2c0.2,0.1,0.3,0.1,0.5,0.2l6.7-6.9V482.3z"/>
	<path class="st5" d="M116.2,487.5l-4,4.1c0.3,0.1,0.6,0.2,0.9,0.4l3.1-3.2V487.5z"/>
	<path class="st5" d="M115.8,493.1c0.1,0.1,0.3,0.1,0.4,0.2v-0.6L115.8,493.1z"/>
	<polygon class="st6" points="46.5,426.4 45.8,427.2 45.8,431 50.3,426.4 	"/>
	<polygon class="st6" points="81,446.3 81,442.5 61.4,462.5 65.2,462.5 	"/>
	<polygon class="st6" points="81,451.4 81,447.6 66.5,462.5 70.2,462.5 	"/>
	<polygon class="st6" points="81,441.2 81,437.3 56.4,462.5 60.2,462.5 	"/>
	<polygon class="st6" points="81,456.6 81,452.7 71.5,462.5 75.2,462.5 	"/>
	<polygon class="st6" points="81,461.7 81,457.9 76.5,462.5 80.3,462.5 	"/>
	<polygon class="st6" points="71.6,426.4 45.8,452.8 45.8,456.7 75.3,426.4 	"/>
	<path class="st6" d="M76.6,426.4L45.8,458v2.5c0.3,0.1,0.6,0.3,0.9,0.4l33.7-34.5H76.6z"/>
	<polygon class="st6" points="81,436.1 81,432.2 51.4,462.5 55.2,462.5 	"/>
	<path class="st6" d="M81,430.9v-3.8l-33.5,34.3c0.7,0.4,1.5,0.8,2.2,1.1h0.4L81,430.9z"/>
	<polygon class="st6" points="66.6,426.4 45.8,447.7 45.8,451.6 70.3,426.4 	"/>
	<polygon class="st6" points="51.5,426.4 45.8,432.3 45.8,436.2 55.3,426.4 	"/>
	<polygon class="st6" points="61.6,426.4 45.8,442.6 45.8,446.4 65.3,426.4 	"/>
	<polygon class="st6" points="56.5,426.4 45.8,437.5 45.8,441.3 60.3,426.4 	"/>
	<polygon class="st5" points="45.8,426.4 45.8,427.2 46.5,426.4 	"/>
	<polygon class="st5" points="50.3,426.4 45.8,431 45.8,432.3 51.5,426.4 	"/>
	<polygon class="st5" points="55.3,426.4 45.8,436.2 45.8,437.5 56.5,426.4 	"/>
	<polygon class="st5" points="60.3,426.4 45.8,441.3 45.8,442.6 61.6,426.4 	"/>
	<polygon class="st5" points="65.3,426.4 45.8,446.4 45.8,447.7 66.6,426.4 	"/>
	<polygon class="st5" points="70.3,426.4 45.8,451.6 45.8,452.8 71.6,426.4 	"/>
	<polygon class="st5" points="75.3,426.4 45.8,456.7 45.8,458 76.6,426.4 	"/>
	<path class="st5" d="M81,426.4h-0.6l-33.7,34.5c0.3,0.1,0.6,0.3,0.8,0.4L81,427.1V426.4z"/>
	<polygon class="st5" points="81,432.2 81,430.9 50.2,462.5 51.4,462.5 	"/>
	<polygon class="st5" points="81,437.3 81,436.1 55.2,462.5 56.4,462.5 	"/>
	<polygon class="st5" points="81,442.5 81,441.2 60.2,462.5 61.4,462.5 	"/>
	<polygon class="st5" points="81,447.6 81,446.3 65.2,462.5 66.5,462.5 	"/>
	<polygon class="st5" points="81,452.7 81,451.4 70.2,462.5 71.5,462.5 	"/>
	<polygon class="st5" points="81,457.9 81,456.6 75.2,462.5 76.5,462.5 	"/>
	<polygon class="st5" points="81,461.7 80.3,462.5 81,462.5 	"/>
	<path class="st5" d="M6.2,426.4h3.8h0.6v-0.6v-3.8v-1.3v-3.8v-1.3v-3.8v-1.3v-0.5c-3.7,4.5-6.1,9.9-7.9,16.6h2.2H6.2z"/>
	<path class="st6" d="M28.8,398.1l-18.3,18.7v3.8l23.6-24.2C32.3,397,30.5,397.5,28.8,398.1z"/>
	<polygon class="st6" points="45.8,415.4 45.8,411.6 31.2,426.4 35,426.4 	"/>
	<path class="st6" d="M35.9,396l-25.3,25.9v3.8l30.2-30.8C39,395.3,37.4,395.7,35.9,396z"/>
	<path class="st6" d="M20,402l-9.4,9.6v3.8l16.3-16.7C24.3,399.8,22,400.9,20,402z"/>
	<path class="st6" d="M45.8,394.9V394c-1.2,0.2-2.4,0.4-3.5,0.6l-31.1,31.8h3.8L45.8,394.9z"/>
	<polygon class="st6" points="45.8,425.7 45.8,421.8 41.3,426.4 45,426.4 	"/>
	<polygon class="st6" points="45.8,410.3 45.8,406.4 26.2,426.4 30,426.4 	"/>
	<polygon class="st6" points="45.8,400 45.8,396.2 16.2,426.4 20,426.4 	"/>
	<polygon class="st6" points="45.8,420.5 45.8,416.7 36.3,426.4 40,426.4 	"/>
	<polygon class="st6" points="45.8,405.2 45.8,401.3 21.2,426.4 25,426.4 	"/>
	<path class="st6" d="M10.6,409.9v0.5l6.1-6.2C14.3,405.9,12.3,407.8,10.6,409.9z"/>
	<path class="st5" d="M16.6,404.2l-6.1,6.2v1.3L20,402C18.8,402.7,17.7,403.4,16.6,404.2z"/>
	<path class="st5" d="M26.9,398.8l-16.3,16.7v1.3l18.3-18.7C28.2,398.4,27.5,398.6,26.9,398.8z"/>
	<path class="st5" d="M34.2,396.5l-23.6,24.2v1.3L35.9,396C35.3,396.2,34.7,396.3,34.2,396.5z"/>
	<path class="st5" d="M42.3,394.6c-0.5,0.1-1.1,0.2-1.6,0.3l-30.2,30.8v0.6h0.6L42.3,394.6z"/>
	<polygon class="st5" points="45.8,396.2 45.8,394.9 14.9,426.4 16.2,426.4 	"/>
	<polygon class="st5" points="45.8,401.3 45.8,400 20,426.4 21.2,426.4 	"/>
	<polygon class="st5" points="45.8,406.4 45.8,405.2 25,426.4 26.2,426.4 	"/>
	<polygon class="st5" points="45.8,411.6 45.8,410.3 30,426.4 31.2,426.4 	"/>
	<polygon class="st5" points="45.8,416.7 45.8,415.4 35,426.4 36.3,426.4 	"/>
	<polygon class="st5" points="45.8,421.8 45.8,420.5 40,426.4 41.3,426.4 	"/>
	<polygon class="st5" points="45.8,425.7 45,426.4 45.8,426.4 	"/>
	<path class="st6" d="M45.8,456.7v-3.8v-1.3v-3.8v-1.3v-3.8v-1.3v-3.8v-1.3v-3.8V431v-3.8v-0.8H45h-3.8H40h-3.8H35h-3.8H30h-3.8H25
		h-3.8H20h-3.8h-1.3h-3.8h-0.6v0.6v3.8v1.3v3.8v1.3v3.8v1.3v0.5c11.9,5.7,23.6,11.6,35.2,17.5V458V456.7z"/>
	<path class="st6" d="M2.7,426.4c-0.3,1-0.5,2-0.8,3.1l3-3.1H2.7z"/>
	<path class="st6" d="M6.2,426.4l-4.6,4.7c-0.3,1.6-0.7,3.2-1,4.8l9.4-9.6H6.2z"/>
	<path class="st6" d="M10.6,427.1L0.3,437.6c0,0.1,0,0.2-0.1,0.3c0.8,0.4,1.5,0.8,2.3,1.2l8-8.2V427.1z"/>
	<path class="st6" d="M10.6,437.3l-3.7,3.8c0.9,0.4,1.7,0.8,2.6,1.2l1.2-1.2V437.3z"/>
	<path class="st6" d="M10.6,432.2l-7.2,7.3c0.9,0.4,1.7,0.8,2.6,1.2l4.6-4.7V432.2z"/>
	<path class="st6" d="M10.2,442.8c0.1,0.1,0.2,0.1,0.3,0.2v-0.5L10.2,442.8z"/>
	<path class="st5" d="M4.9,426.4l-3,3.1c-0.1,0.6-0.3,1.1-0.4,1.7l4.6-4.7H4.9z"/>
	<path class="st5" d="M10.6,426.4H9.9L0.6,436c-0.1,0.5-0.2,1-0.3,1.6l10.3-10.5V426.4z"/>
	<path class="st5" d="M10.6,430.9l-8,8.2c0.1,0.1,0.3,0.1,0.4,0.2c0.1,0.1,0.3,0.1,0.4,0.2l7.2-7.3V430.9z"/>
	<path class="st5" d="M10.6,436.1L6,440.8c0.3,0.1,0.6,0.3,0.9,0.4l3.7-3.8V436.1z"/>
	<path class="st5" d="M10.6,441.2l-1.2,1.2c0.3,0.1,0.6,0.3,0.9,0.4l0.3-0.3V441.2z"/>
</g>
<g>
	<path class="st1" d="M113.1,180.2h2.3c-1-7.8-1.9-15.5-2.9-22.8C107.6,119.6,102.2,9.1,228.4,9.1c114.3,0,120.8,110.5,115.9,148.3
		c-1,7.3-1.9,15-2.9,22.8h2.3c20.1-14.9,21.8,23.9,13.4,37.2c-6.9,11-7.1,12.2-11.3,24.2c-3.1,8.9-8.2,10.1-12.5,9.1
		c-0.5,5.3-1,9.9-1.3,13.5c-1.8,20.4-50.9,61.2-62,74c-10.4,12-27.8,7.3-33.3,7c-5.6-0.3-8.3-0.4-8.3-0.4s-2.7,0.1-8.3,0.4
		c-5.6,0.3-22.9,4.9-33.3-7c-11.1-12.8-60.1-53.6-62-74c-0.3-3.7-0.8-8.3-1.3-13.5c-4.3,1-9.4-0.2-12.5-9.1
		c-4.2-12.1-4.3-13.3-11.3-24.2C91.4,204.2,93.1,165.4,113.1,180.2z"/>
</g>
<g>
	<path class="st7" d="M131,241.5c0,0,2.3,6,2.3,6c16.8,51.4,66,65.6,92.2,66.4c1,0,1.5-22.8,1.5-22.8c-1.5,0,6.4-0.3,6.8,0
		c0,0,0.6,22.6,1.1,22.6c24.5-1.1,73-12.5,88.9-61.1c0,0,2.2-11.1,2.2-11.1c0.4-1.5,11.9-47.9,13-43.6c-0.4,3.4-0.8,6.8-1.3,10.2
		c0,0-2.5,29.6-4.3,42.7c-0.5,5.3-0.9,9.9-1.3,13.5c-2.5,20.2-8,26.7-12.8,34.2c0,0,0,0.1-0.1,0.1c-15.8,19.6-36.1,41.7-43.7,50.4
		c-10.4,12-33.1,12.7-38.7,12.4c-5.2-0.2-7.9-0.4-8.2-0.4c0,0-0.1,0-0.1,0c-0.4,0-3,0.2-8.2,0.4c-5.6,0.3-28.3-0.4-38.7-12.4
		c-7.7-8.8-27.9-30.9-43.7-50.4c0,0,0-0.1-0.1-0.1c-4.9-7.5-10.4-14-12.8-34.2c-0.4-3.6-0.8-8.3-1.3-13.5
		c-1.9-13.1-4.3-42.7-4.3-42.7c-0.4-3.4-0.8-6.8-1.3-10.2C119,193.6,130.6,240,131,241.5z"/>
</g>
<g>
	<path class="st7" d="M231.9,252.1c10.9-0.1,49,14,46.4,17.9c0,0,0,0,0,0c-8.2,10.1-30.4-10.9-46.9-10.1
		c-27,1.4-38.7,20.2-46.9,10.1c0,0,0,0,0,0C181.9,266.1,218.8,252.2,231.9,252.1z"/>
</g>
<g>
	<path class="st1" d="M343.6,163.4c-4.6,2.5-13.2-25.6-37.2-44.9c-6.7-5.4-26.4-21.5-78-21.5V4.5c0,0,51.9-3.6,86.9,33.7
		C350.4,75.5,359.3,155,343.6,163.4z"/>
</g>
<g>
	<path class="st1" d="M113.3,163.4c4.7,2.5,13.2-25.6,37.2-44.9c6.7-5.4,26.4-21.5,78-21.5V4.5c0,0-51.9-3.6-86.9,33.7
		C106.5,75.5,97.6,155,113.3,163.4z"/>
</g>
<g>
	<polygon class="st8" points="324.7,385.9 291.6,346.3 228.7,377.5 234,445 	"/>
</g>
<g>
	<polygon class="st8" points="228.7,377.5 165,346.8 129,388 223.7,445 	"/>
</g>
<g>
	<path class="st9" d="M408.4,393.6c-4-1.3-25.7-3.7-31.9-4.3l-19.6,149.6c12,0.6,24.1,0.9,36.1,1.2
		C402.8,456.8,409.7,394,408.4,393.6z"/>
</g>
<g>
	<path class="st9" d="M68.7,391.1l9.4,85.4c10.2,4.9,20.4,9.5,30.8,13.9c2.7,1.1,5.3,2.1,8,3.2l-13-106.4
		C97.8,387.8,73.9,390.6,68.7,391.1z"/>
</g>
<g>
	<path class="st9" d="M220.8,468.3c3.2,0,5.7-2.6,5.7-5.7s-2.6-5.7-5.7-5.7c-3.2,0-5.7,2.6-5.7,5.7S217.6,468.3,220.8,468.3z"/>
</g>
<path id="eye_3_" class="st10" d="M175.1,157c12.8,0,23.2,10.4,23.2,23.2s-10.4,23.2-23.2,23.2s-23.2-10.4-23.2-23.2
	S162.2,157,175.1,157z"/>
<path id="pupill_3_" class="st11" d="M184.3,180.1c0,5.4-4.4,9.9-9.9,9.9c-4,0-7.5-2.4-9-5.9c0.6,0.4,1.3,0.6,2,0.6
	c2.3,0,4.1-1.8,4.1-4.1s-1.8-4.1-4.1-4.1c-0.9,0-1.8,0.3-2.4,0.8c1.2-4,5-7,9.4-7C179.9,170.2,184.3,174.6,184.3,180.1z"/>
<path id="eye_2_" class="st10" d="M280.1,157c12.8,0,23.2,10.4,23.2,23.2s-10.4,23.2-23.2,23.2s-23.2-10.4-23.2-23.2
	S267.2,157,280.1,157z"/>
<path id="pupill_2_" class="st11" d="M289.3,180.1c0,5.4-4.4,9.9-9.9,9.9c-4,0-7.5-2.4-9-5.9c0.6,0.4,1.3,0.6,2,0.6
	c2.3,0,4.1-1.8,4.1-4.1s-1.8-4.1-4.1-4.1c-0.9,0-1.8,0.3-2.4,0.8c1.2-4,5-7,9.4-7C284.9,170.2,289.3,174.6,289.3,180.1z"/>
<g id="tie_3_">
	<path class="st12" d="M156.8,439.3c23.3,4,86.8-42.2,86.8-42.2s-88.1-49.1-95.1-17.5C141.6,411.2,133.5,435.3,156.8,439.3z"/>
	<path class="st9" d="M228.6,407.1c20.5,12.6,57.5,33.3,73.8,29.9c23.1-4.9,14.2-28.8,6-60.2c-6.1-23.4-55.1-0.4-79.9,13
		C228.7,404.9,228.3,391.8,228.6,407.1z"/>
</g>
<path id="eyebrows_3_" class="st7" d="M176.9,118.6c-24.7,0.5-39,8.6-39,16.9c0,8.4,13.2,6,23,2.1c9.8-3.9,22.9-3.6,28.3,0.4
	s17.2,5.2,17.7-3.3C207.4,126.3,185.4,118.5,176.9,118.6z"/>
<path id="eyebrows_2_" class="st7" d="M277.7,118.5c24.7,0.5,39.1,8.5,39.1,16.9c0,8.3-13.2,6-23,2.1c-9.9-3.9-22.9-3.6-28.4,0.4
	c-5.5,4-17.2,5.1-17.7-3.3C247.2,126.1,269.3,118.3,277.7,118.5z"/>
<path id="mounth_5_" class="st13" d="M197.8,277.1c0,0,8.4,14.5,31.7,14c23.3-0.5,31.2-14,31.2-14s-15.2-4.9-27.5-4.9
	c-5.3,0-10.7,2.9-17.7,4.1C208.5,277.4,197.8,277.1,197.8,277.1z"/>
<g>
	<path class="st14" d="M339.2,112.2c-0.2-0.1-0.4-0.2-0.6-0.3c-51.9-25-108.1-49.9-163.6-34.2c-35.2,10-65.9,21.4-76.3,23
		C87.4,102.6,74.9,89.8,81,83.5c22.9-24,55.4-29.7,62.5-30.1c23-1.4,39.3-1.7,62.2-1.4c43.9,0.5,87.4-3.2,130.8-10
		c8-1.3,12.2-10,23.8,1.7c16.4,16.5,13.6,54-2.6,77.3C354.5,125.7,345.9,116.9,339.2,112.2z"/>
	<path class="st14" d="M366.2,56.9c-51.3,10.2-107.5,6.7-159.7,6.8c-47.7,0-71.5,7.9-112.2,37.3c-9.4,6.8-19.2,11.1-8.3-13.4
		c16.8-37.7,65.3-74.1,132.5-85.3C268-5.8,319,7.5,357.4,41.2C364.2,47.2,364.9,54.4,366.2,56.9z"/>
	<path class="st14" d="M150.3,85.5C137.9,89.1,138.4,97,88,107.8c-22.4,4.8-19.1-20.2-19-20.6c3.9-16.6,37.5-30,59.9-25.4
		c5.6,1.2,75.4-23.5,143.1,8.6c28.7,13.6,39.8,12.1,82.3,48.9c0.9,0.7-0.1,2.1-1.1,1.5c-12.9-8.7-31.9-20-47-22.3c0,0,0,0-0.1,0
		c-36.8-9.2-50.8-24.8-92.3-22.7C163.1,78.4,149.5,84.1,150.3,85.5z"/>
	<path class="st15" d="M69.5,95c0,0-10-18.5,36.9-37.8c57.3-23.6,109-0.6,169.6,21.1c11.6,4.2,30.9,15.5,32.6,20.8
		c0.5,1.6-75-18.5-147.3-28.3C102,62.6,81.5,70.7,69.5,95z"/>
</g>
<path class="st1" d="M126.1,462.1c4.4-10.8,34.8-32.4,32.5-44.3c-2.3-11.9-24.4-25.4-32.6-29.1c-8.2-3.8-16.5,0-28.2,3.8
	c-11.8,3.8-33.1,25.8-47.8,39.8c-4.3,4.1-4.2,15.2-1.8,29.3c20.1,10.1,40.2,20.1,60.8,28.7c6,2.4,12,4.8,18.1,7
	C125.6,484.6,123.3,469,126.1,462.1z"/>
<path class="st0" d="M384.5,496.6c-13.1-15.3-24.5-10.5-32.9-1.2c-10.4,11.5-14.1,27.5-10.8,42.5c20,1.2,40.1,1.9,60.2,2.2
	c-2.6-8.3-4.7-15.8-6.1-22.2C393.2,510.1,389.7,502.7,384.5,496.6z"/>
<path class="st1" d="M411.6,426.3c-14.7-14.1-36.1-36-47.8-39.8c-11.8-3.8-20-7.6-28.2-3.8s-30.3,17.3-32.6,29.1
	s28.1,33.4,32.5,44.3s-3.8,43.4-1.5,52.2c1.3,5,2.3,18.5,6.4,29.7c14.6,0.9,29.3,1.5,44,1.9C399.4,511.8,424.3,438.4,411.6,426.3z"
	/>
</svg>
