<svg xmlns="http://www.w3.org/2000/svg" xmlns:xlink="http://www.w3.org/1999/xlink" viewBox="0 0 473.2 540.5"><style><![CDATA[.Q{fill:gray}.R{fill:#e7e6e7}.S{fill:#b46441}.T{fill:#c2c1c2}]]></style><path d="M417.9 540.4l43.8-.1-2.9-117.8-40.9 117.9zM2.6 439.1c.1.1.2.1.3.2l4.3 2-4.5-12.7-.1 10.5z" fill="#b4694e"/><path d="M463.5 507.8s-.2-28.9-4.5-57.1c-5.3-35.3-9.8-48.6-58.8-54.3-18.5-2.2-86.1-7.3-104.9-18-18.7-10.7-15.8-64.3-15.8-64.3H177.1s3 53.6-15.8 64.3-86.3 15.9-104.9 18C14.1 401.2 5.1 411.9 0 437.8l2.9 1.5c36 17 70 36 106 51 16.2 6.6 32.7 12.4 49.2 17.4h305.4z" class="S"/><path d="M471.6 540.1v.1h1.5l-.2-1.7-1.3 1.6zm0-12.7v4.7l.5-.6zm.7 5.5l-.7.8v4.8l1.2-1.4z" class="T"/><path d="M472.1 531.5l-.5.6v1.6l.7-.8zm.7 5.6l-1.2 1.4v1.6l1.4-1.7z" fill="#4f4f4f"/><g class="T"><path d="M455.3 475.6h10.1l-4.7-38.8-9.4 38.8h.1zm10.3 1.8l-20.8 25.2-1.6 6.7 22.9-27.7zm.7 5.5l-23.6 28.6-1.7 6.7 25.8-31.1zm3.1 26.3l-.5-4.1-12.4 15h3.9zm-2-16.6l-.5-4.1-26.1 31.6h3.9zm2.7 22.1l-.5-4.1-7.9 9.5h3.9zm-2-16.6l-.5-4.1-21.6 26.1h3.9zm2.2 18l-3.4 4h3.9z"/><path d="M468.8 503.7l-.5-4.2-17 20.6h3.9zm-17.4-28.1l-.1.2-1.6 6.6 5.6-6.8zm5.2 0l-7.5 9.1-1.6 6.7 13-15.8zm8.8 0h-3.6l-14.8 18-1.6 6.7 20-24.3z"/></g><path d="M451.3 475.6v.2l.1-.2zm4 0l-5.6 6.8-.6 2.3 7.5-9.1zm5.2 0l-13 15.8-.5 2.2 14.8-18zm4.9.4l-20 24.3-.6 2.3 20.8-25.2zm.7 5.6l-22.9 27.7-.5 2.2 23.6-28.6zm.8 6.9l-.1-1.4-25.8 31.1-.4 1.9h.2zm.7 5.5l-.2-1.4-22.7 27.5h1.3zm.7 5.5l-.2-1.4-18.2 22h1.4zm.6 5.6l-.1-1.4-13.6 16.4h1.3zm.7 5.5l-.2-1.4-9 10.9h1.3zm.7 5.5l-.2-1.4-4.5 5.4h1.3z" fill="#4f4f4f"/><path d="M471.6 538.5v-11l-.9-7.3h-30.1l-4.9 20.4 35.9-.3v-1.8z" class="T"/><path d="M132.4 384.8l2.6 1.2c.3.1.6.3.9.4l2.6 1.1c.3.1.6.3.9.4l2.7 1.1c.3.1.6.2.9.4l2.8 1c.1 0 .1 0 .2.1l5.6 1.9 3 .9 2.9.9 1 .3 2.9.8 1 .3 3 .8c.3.1.7.2 1 .2l3 .7c.3.1.7.2 1 .2l3.1.7c.3.1.7.1 1 .2l3.1.6c.4.1.7.1 1.1.2l3.2.6c.4.1.7.1 1.1.2l3.2.5c.2 0 .4.1.5.1 11.1 1.8 22.9 3 35.2 3.6h1c.4 0 .8 0 1.2.1 1.2 0 2.4.1 3.6.1h1.2c1.2 0 2.5.1 3.7.1H244c1.3 0 2.6-.1 3.8-.1h1.3c1.3 0 2.6-.1 3.9-.2.4 0 .9 0 1.3-.1.9 0 1.9-.1 2.8-.2 12.3-.7 24.2-2.1 35.2-4.1.1 0 .2 0 .3-.1l1.5-.3 4.7-.9 1.6-.3c1.6-.3 3.2-.7 4.8-1.1.6-.1 1.1-.3 1.7-.4 1.7-.4 3.3-.8 5-1.3.6-.2 1.1-.3 1.7-.5l5.2-1.5 1.8-.6 5.5-1.8c.5-.2.9-.3 1.4-.5.3-.1.6-.2.8-.3 1.9-.7 3.8-1.4 5.7-2.2l2.1-.9c1.2-.5 2.4-1.1 3.6-1.6-2.2-.3-4.3-.6-6.4-1-24.9 10.2-59.4 16.4-96.3 16.4-39.2 0-75.7-7-100.8-18.3-1.8.4-3.7.7-5.7 1.1.3.1.6.3.9.4.4.4.7.5 1 .7zm270 41.6h31.2V399c-8.2-2.9-18.6-5-31.9-6.5-.9-.1-2.1-.2-3.3-.4v34.3h4z" class="Q"/><path d="M454.3 414.4l-1.5-2.3-14 14.3h3.8l11.7-12zm1.8 3.4l-1.3-2.6-11 11.2h3.8l8.5-8.6zm-14.2-15.1l-8.7 8.9v3.8l11.1-11.4c-.8-.3-1.6-.8-2.4-1.3zm-3.3-1.7l-5.4 5.5v3.8l7.9-8.1c-.8-.3-1.7-.8-2.5-1.2zm-4.5-1.8l-.9-.3v1.3l.9-1zm23.4 22.3c-.3-1-.7-1.9-1-2.8l-7.6 7.8h3.8l4.8-5zm1 4a26.27 26.27 0 0 0-.8-3l-3.9 4h3.8l.9-1zM445 404.7l-11.9 12.1v3.8l14-14.4c-.6-.5-1.3-1-2.1-1.5zm-10-5.2l-1.8 1.9v3.8l4.5-4.6c-.9-.3-1.8-.7-2.7-1.1zm17.3 11.9c-.5-.7-1.1-1.4-1.8-2l-16.7 17.1h3.8l14.7-15.1zm-4.4-4.5L433.2 422v3.8l16.7-17.1-2-1.8z" class="R"/><path d="M433.2 401.4l1.8-1.9c-.3-.1-.6-.2-.9-.4l-.9 1v1.3zm4.5-.8l-4.5 4.6v1.3l5.4-5.5c-.3-.1-.6-.2-.9-.4zm3.4 1.7l-7.9 8.1v1.3l8.7-8.9c-.3-.2-.5-.4-.8-.5zm3.2 1.9l-11.1 11.4v1.3l11.9-12.1c-.3-.3-.6-.5-.8-.6zm2.9 2.1l-14 14.4v1.3l14.7-15.1c-.2-.2-.5-.4-.7-.6zm3.3 3.1c-.2-.2-.4-.4-.6-.7l-16.7 17.1v.6h.6l16.7-17zm2.3 2.7a3.04 3.04 0 0 1-.5-.7l-14.7 15h1.3l13.9-14.3zm2 3.1l-.5-.8-11.7 12h1.3l10.9-11.2zm1.6 3.5c-.1-.3-.3-.6-.4-.9l-8.5 8.7h1.3l7.6-7.8zm1.4 3.7l-.3-1-4.9 5h1.3l3.9-4zm.7 3.1l-.9 1h1.1c0-.4-.1-.7-.2-1zm-56.1 73h30.8v-36H398v36h.7z" class="Q"/><g class="R"><path d="M437.7 462.5h19.6c1.8-7.9 2.9-13.4 3-15.9.2-7.7-.1-14.4-1.2-20.2h-25.9v35.8h4.5z"/><path d="M433.9 462.5l-.7.7v3.9l4.5-4.6zm20.9 9.4L433.2 494v3.8l20.3-20.8 1.3-5.1zm1.6-6.8l-23.2 23.8v3.8l22-22.5 1.2-5.1zm.6-2.6h-3l-20.8 21.3v3.8l23.6-24.2c.1-.3.1-.6.2-.9zm-5.2 21.5l1.3-5.2-19.2 19.7h3.8l14.1-14.5zm-3.6 13.8l1.3-5.2-5.7 5.9h3.8l.6-.7zm-4.3-35.3l-10.7 11v3.8l14.5-14.8zm5.1 0l-15.8 16.1v3.9l19.5-20zm1 28.4l1.3-5.2-12.5 12.8h3.8l7.4-7.6zm-11.1-28.4l-5.7 5.9v3.8l9.5-9.7z"/></g><path d="M433.2 462.5v.7l.7-.7zm4.5 0l-4.5 4.6v1.3l5.7-5.9zm5 0l-9.5 9.7v1.3l10.7-11zm5 0l-14.5 14.8v1.3l15.8-16.1zm5 0l-19.5 20v1.2l20.8-21.2zm4.1.9l-23.6 24.2v1.3l23.2-23.8c.1-.6.3-1.1.4-1.7zm-1.6 6.8l-22 22.5v1.3l21.6-22.1c.1-.6.2-1.1.4-1.7zm-2.1 8.6c.1-.6.3-1.2.4-1.7l-20.3 20.8v.6h.6l19.3-19.7zm-1.8 6.9c.1-.6.3-1.2.4-1.7l-14.2 14.5h1.3l12.5-12.8zm-1.7 6.9c.1-.6.3-1.2.4-1.7l-7.4 7.6h1.3l5.7-5.9zm-1.4 5.2l-.7.7h.5c.1-.2.2-.5.2-.7z" class="Q"/><path d="M418.8 426.4L398 447.7v3.9l24.5-25.2zm5 0L398 452.8v3.9l29.5-30.3zm-25.1 0l-.7.8v3.8l4.4-4.6zm5 0l-5.7 5.9v3.9l9.5-9.8zm10 0L398 442.6v3.8l19.5-20zm-5 0L398 437.5v3.8l14.5-14.9zm24.5 25v-3.8l-14.6 14.9h3.8zm0 5.2v-3.9l-9.5 9.8h3.7zm0-10.3v-3.8l-19.6 20h3.8zm0-15.4v-3.8l-34.6 35.4h3.7zm-4.4-4.5L398 458v3.8l34.5-35.4zm4.4 14.8v-3.9l-24.6 25.2h3.8zm0-5.1v-3.9l-29.6 30.3h3.8zm0 25.6v-3.8l-4.5 4.6h3.7z" class="R"/><path d="M398 426.4v.8l.7-.8zm4.4 0L398 431v1.3l5.7-5.9zm5.1 0l-9.5 9.8v1.3l10.7-11.1zm5 0L398 441.3v1.3l15.7-16.2zm5 0l-19.5 20v1.3l20.8-21.3zm5 0L398 451.6v1.2l25.8-26.4zm5 0L398 456.7v1.3l30.8-31.6zm5.7.7v-.7h-.7L398 461.8v.7h.6zm0 5.1v-1.3l-30.9 31.6h1.3zm0 5.1v-1.2l-25.8 26.4h1.2zm0 5.2v-1.3l-20.8 21.3h1.2zm0 5.1v-1.3l-15.8 16.2h1.2zm0 5.1v-1.3l-10.8 11.1h1.3zm0 5.2v-1.3l-5.8 5.9h1.3zm0 3.8l-.8.8h.8zm0 77.4v-4.6H398v5.5l35.2.3v-1.2z" class="Q"/><g class="R"><path d="M437.7 534.5h1.3l9.1-36H433v35.8h4.7z"/><path d="M433.9 534.5l-.7.8v3.8l4.5-4.6zm5.1 0l-5.8 5.9v.1h3.7l.8-.8 1.3-5.2z"/></g><path d="M433.2 534.5v.8l.7-.8zm4.5 0l-4.5 4.6v1.3l5.7-5.9zm-.8 6h.6c.1-.3.1-.5.2-.8l-.8.8z" class="Q"/><path d="M433.2 513.2v-3.8l-24.6 25.1h3.8zm0 5.2v-3.9l-19.6 20h3.8zm0 5.1v-3.8l-14.6 14.8h3.8zm-14.4-25L398 519.8v3.8l24.5-25.1zm5 0L398 524.9v3.8l29.5-30.2zm9.4 35.3v-3.9l-4.5 4.6h3.7zm-19.5-35.3L398 514.6v3.9l19.5-20zm15.1 0L398 530v3.9l34.5-35.4zm-20.1 0l-10.7 11v3.9l14.5-14.9zm24.5 30.1v-3.8l-9.5 9.7h3.7zm0-20.5v-3.8l-29.6 30.2h3.8zm-29.5-9.6l-5.7 5.9v3.8l9.5-9.7zm29.5 4.5v-3.9l-34.6 35.4h3.7zm-34.5-4.5l-.7.8v3.8l4.4-4.6z" class="R"/><path d="M398 498.5v.8l.7-.8zm4.4 0l-4.4 4.6v1.3l5.7-5.9zm5.1 0l-9.5 9.7v1.3l10.7-11zm5 0L398 513.4v1.2l15.7-16.1zm5 0l-19.5 20v1.3l20.8-21.3zm5 0L398 523.6v1.3l25.8-26.4zm5 0L398 528.7v1.3l30.8-31.5zm5.7.6v-.6h-.7L398 533.9v.6h.6zm0 5.2V503l-30.9 31.5h1.3zm0 5.1v-1.3l-25.8 26.4h1.2zm0 5.1v-1.3l-20.8 21.3h1.2zm0 5.2v-1.3l-15.8 16.1h1.2zm0 5.1v-1.3l-10.8 11h1.3zm0 5.1v-1.3l-5.8 5.9h1.3zm0 3.9l-.8.7h.8zM332 426.4h31.2v-36h-35.1l-.8.3v35.5h4.7z" class="Q"/><g class="R"><path d="M362.7 390.4h18.9l-18.7-1.9v1.9zm35.3 25v-3.8l-14.6 14.8h3.8z"/><path d="M373.5 390.4l-10.8 11v3.9l14.6-14.9zm-10.8 9.7l9.5-9.7h-3.7l-5.8 5.9zm35.3-.1v-3.8l-29.6 30.2h3.7zm0 25.7v-3.9l-4.5 4.6h3.7zm0-5.2v-3.8l-9.6 9.7h3.8zM362.7 395l4.5-4.6h-3.7l-.8.8zm35.3 15.3v-3.9l-19.6 20h3.8zm0-5.1v-3.9l-24.6 25.1h3.7zm-5.5-13.8l-29.8 30.5v3.8l33.3-34c-1.1 0-2.2-.1-3.5-.3zm-4.5-.4l-25.2 25.8v3.8l28.7-29.3-3.5-.3zm-6.6-.6h-2.9l-15.8 16.2v3.8l19.5-19.9c-.3 0-.5-.1-.8-.1zm16.6 4.5V392c-.3 0-.5-.1-.8-.1l-33.8 34.5h3.8l30.8-31.5zm-14.6-4.3l-20.6 21.1v3.8l24.1-24.6-3.5-.3z"/></g><path d="M363.5 390.4h-.8v.8zm-.8 5.9l5.8-5.9h-1.3l-4.5 4.6zm0 5.1l10.8-11h-1.3l-9.5 9.7zm14.6-11l-14.6 14.9v1.3l15.8-16.2zm4.9.1l-19.5 19.9v1.3l20.6-21.1c-.3 0-.7-.1-1.1-.1zm4.6.4l-24.1 24.6v1.3L388 391c-.4 0-.8-.1-1.2-.1zm4.6.4l-28.7 29.3v1.3l29.8-30.5c-.3 0-.7 0-1.1-.1zm5.7.6c-.4 0-.8-.1-1.2-.1l-33.3 34v.6h.6l33.9-34.5zm.9 4.3v-1.3l-30.9 31.5h1.3zm0 5.1V400l-25.9 26.4h1.3zm0 5.1v-1.2l-20.9 21.2h1.3zm0 5.2v-1.3l-15.8 16.1h1.2zm0 5.1v-1.3l-10.8 11h1.2zm0 5.1v-1.3l-5.8 5.9h1.3zm0 3.9l-.8.7h.8z" class="Q"/><path d="M362 390.4l.7-.8v-1.1l-2.4-.3-2.1 2.1h3.8zm-10 0l2.7-2.8-3.4-.4-3.1 3.2h3.8zm-10.1 0l3.8-3.9-3.3-.4-4.2 4.3h3.7zm15.1 0l2.2-2.2-3.4-.4-2.6 2.6h3.8zm-10.1 0l3.2-3.3-3.3-.4-3.6 3.7h3.7zm-12.9-2.2l-5.7 2.2h3.5l2.2-2.2zm-.8 2.2h3.8l4.4-4.5c-.5-.1-1-.1-1.5-.2l-3.6 1.6-3.1 3.1z" class="R"/><path d="M333.2 390.4l3-3.1-2.1.9-2.1 2.2h1.2zm5 0l4.2-4.3c-.4-.1-.7-.1-1.1-.2l-4.4 4.5h1.3zm5 0l3.6-3.7c-.4 0-.7-.1-1.1-.1l-3.8 3.9h1.3zm5 0l3.1-3.2c-.4 0-.8-.1-1.1-.1l-3.2 3.3h1.2zm5 0l2.6-2.6c-.4 0-.8-.1-1.1-.1l-2.7 2.8h1.2zm5 0l2.1-2.1c-.4 0-.8-.1-1.1-.1l-2.2 2.2h1.2zm4.5-.8l-.7.8h.7zM332 498.5h30.7v-36h-35.2v36h.8z" class="Q"/><g class="R"><path d="M367.2 462.5H398v-36.1h-35.3v36.1h.8z"/><path d="M383.5 462.5l-20.8 21.2v3.9l24.6-25.1zm5 0l-25.8 26.4v3.8l29.6-30.2zm-10 0l-15.8 16.1v3.9l19.6-20zm15.1 0L362.7 494v3.8l34.6-35.3zm-25.1 0l-5.8 5.9v3.8l9.5-9.7zm29.5 9.6v-3.9l-29.6 30.3h3.7zm0 5.1v-3.8l-24.6 25.1h3.7zm-24.5-14.7l-10.8 11v3.8l14.6-14.8zm24.5 35.2v-3.8l-4.5 4.6h3.7zm0-5.1v-3.8l-9.6 9.7h3.8zm0-10.3v-3.8l-19.6 20h3.8zm0-15.4v-3.8l-34.6 35.4h3.7zm-34.5-4.4l-.8.7v3.9l4.5-4.6zm34.5 25v-3.9l-14.6 14.9h3.8z"/></g><path d="M362.7 462.5v.7l.8-.7zm4.5 0l-4.5 4.6v1.3l5.8-5.9zm5 0l-9.5 9.7v1.3l10.8-11zm5.1 0l-14.6 14.8v1.3l15.8-16.1zm5 0l-19.6 20v1.2l20.8-21.2zm5 0l-24.6 25.1v1.3l25.8-26.4zm5 0l-29.6 30.2v1.3l30.9-31.5zm5.7.6v-.6h-.7l-34.6 35.3v.7h.7zm0 5.1v-1.3l-30.9 31.6h1.3zm0 5.2v-1.3l-25.9 26.4h1.3zm0 5.1v-1.3l-20.9 21.3h1.3zm0 5.1v-1.3l-15.8 16.2h1.2zm0 5.2v-1.3l-10.8 11h1.2zm0 5.1v-1.3l-5.8 5.9h1.3zm0 3.8l-.8.8h.8z" class="Q"/><path d="M362.7 446.3v-3.8l-19.5 20h3.7zm0 15.4v-3.8l-4.5 4.6h3.8zm0-10.3v-3.8l-14.5 14.9h3.8zm0-15.3v-3.9l-29.5 30.3h3.7zm0 20.5v-3.9l-9.5 9.8h3.8zm-34.4-30.2l-.8.8v3.8l4.5-4.6zm5 0l-5.8 5.9v3.9l9.5-9.8zm5 0l-10.8 11.1v3.8l14.5-14.9zm24.4 4.5v-3.8l-34.6 35.4h3.8zm-19.4-4.5l-15.8 16.2v3.8l19.6-20zm10 0l-25.8 26.4v3.9l29.6-30.3zm5 0L327.5 458v3.8l34.6-35.4zm4.4 14.8v-3.9l-24.5 25.2h3.7zm-14.4-14.8l-20.8 21.3v3.9l24.6-25.2z" class="R"/><path d="M327.5 426.4v.8l.8-.8zm4.5 0l-4.5 4.6v1.3l5.8-5.9zm5 0l-9.5 9.8v1.3l10.8-11.1zm5 0l-14.5 14.9v1.3l15.8-16.2zm5.1 0l-19.6 20v1.3l20.8-21.3zm5 0l-24.6 25.2v1.2l25.8-26.4zm5 0l-29.6 30.3v1.3l30.8-31.6zm5.6.7v-.7h-.6l-34.6 35.4v.7h.6zm0 5.1v-1.3l-30.8 31.6h1.3zm0 5.1v-1.2l-25.8 26.4h1.3zm0 5.2v-1.3l-20.8 21.3h1.3zm0 5.1v-1.3l-15.8 16.2h1.3zm0 5.1v-1.3L352 462.5h1.2zm0 5.2v-1.3l-5.7 5.9h1.2zm0 3.8l-.7.8h.7zm0 72.8h-35.5v2.5l35.2 2v-4.5z" class="Q"/><g class="R"><path d="M367.2 534.5H398v-36h-35.3v36h.8z"/><path d="M388.5 534.5l-5.2 5.3 3.7.1 5.3-5.4h-3.8zm-5 0l-5 5.1 3.6.1 5.1-5.3h-3.7zm-20.8 4.6zm.8-4.6l-.7.8v3.8l4.5-4.6h-3.8zm10 0l-4.7 4.8 3.6.1 4.8-4.9h-3.7zm5 0l-4.9 5 3.6.1 5-5.1h-3.7zm19.5.7l-4.8 4.9 3.7.1 1.1-1.1v-3.9zm-29.5-.7l-4.5 4.6 3.6.1 4.7-4.8h-3.8zm25.1 0l-5.3 5.4 3.7.1 5.4-5.5h-3.8z"/></g><path d="M362.7 534.5v.8l.8-.8zm4.5 0l-4.5 4.6h1.2l4.5-4.6h-1.2zm5 0l-4.7 4.8h1.2l4.7-4.8h-1.2zm5.1 0l-4.8 4.9h1.2l4.9-5h-1.3zm5 0l-5 5.1h1.2l5-5.1h-1.2zm5 0l-5.1 5.3h1.2l5.2-5.3h-1.3zm5 0l-5.3 5.4h1.2l5.3-5.4h-1.2zm5.7 0h-.6L392 540h1.2l4.8-4.9v-.6zm-1.1 5.6h1.1V539l-1.1 1.1z" class="Q"/><path d="M333.3 498.5l-5.8 5.9v3.8l9.5-9.7zm5 0l-10.8 11v3.9l14.5-14.9zm24.4 30.1v-3.8l-9.5 9.7h3.8zm-19.4-30.1l-15.8 16.1v3.9l19.6-20zm19.4 9.6v-3.8l-29.5 30.2h3.7zm0 10.3v-3.9l-19.5 20h3.7zm0-5.2v-3.8l-24.5 25.1h3.7zm0 10.3v-3.8l-14.5 14.8h3.8zm-4.4-25L327.5 530v3.9l34.6-35.4zm-10 0l-20.8 21.3v3.8l24.6-25.1zm5 0l-25.8 26.4v3.8l29.6-30.2zm9.4 35.3v-3.9l-4.5 4.6h3.8zm-34.4-35.3l-.8.8v3.8l4.5-4.6zm34.4 4.5v-3.9l-34.6 35.4h3.8z" class="R"/><path d="M327.5 498.5v.8l.8-.8zm4.5 0l-4.5 4.6v1.3l5.8-5.9zm5 0l-9.5 9.7v1.3l10.8-11zm5 0l-14.5 14.9v1.2l15.8-16.1zm5.1 0l-19.6 20v1.3l20.8-21.3zm5 0l-24.6 25.1v1.3l25.8-26.4zm5 0l-29.6 30.2v1.3l30.8-31.5zm5.6.6v-.6h-.6l-34.6 35.4v.6h.6zm0 5.2V503l-30.8 31.5h1.3zm0 5.1v-1.3l-25.8 26.4h1.3zm0 5.1v-1.3l-20.8 21.3h1.3zm0 5.2v-1.3l-15.8 16.1h1.3zm0 5.1v-1.3l-10.7 11h1.2zm0 5.1v-1.3l-5.7 5.9h1.2zm0 3.9l-.7.7h.7zM261.6 426.4h31.2V400c-11.1 2-22.9 3.4-35.2 4.1v22.4h4z" class="Q"/><path d="M327.5 415.4v-3.8L313 426.4h3.7zm0-5.1v-3.9l-19.5 20h3.7zm0-5.1v-3.9L303 426.4h3.7zm0-10.3v-3.8l-34.6 35.3h3.8zm0 25.6v-3.8l-9.5 9.7h3.8zm0-20.5v-3.8l-29.6 30.2h3.8zm-14-4.9l-21.2 21.7v3.8l26.4-27.1-5.2 1.6zm-13.1 3.2l-8.1 8.3v3.8l12.9-13.2-4.8 1.1zm-6.2 1.2l-1.9 1.9v3.8l6.5-6.7-4.6 1zm-1.6.3c-.1 0-.2 0-.3.1v.3l.3-.4zm34.9 25.9v-3.9l-4.5 4.6h3.8zm-20.7-28.9l-14.5 14.9v3.8l19.5-20-5 1.3zm13.8-3.8l-28.3 28.9v3.8l33.8-34.6-5.5 1.9z" class="R"/><path d="M292.3 401.4l1.9-1.9-1.5.3-.3.3v1.3zm6.5-2.8l-6.5 6.7v1.3l8.1-8.3-1.6.3zm6.4-1.4l-12.9 13.2v1.3l14.5-14.9c-.5.2-1.1.3-1.6.4zm6.6-1.6l-19.5 20v1.3l21.2-21.7c-.5.1-1.1.2-1.7.4zm6.9-2l-26.4 27.1v1.3l28.3-28.9c-.6.1-1.2.3-1.9.5zm8.8-2.5v-.3l-1.4.5-33.8 34.6v.6h.6l34.6-35.4zm0 5.1v-1.3l-30.8 31.5h1.2zm0 5.1V400l-25.8 26.4h1.3zm0 5.1v-1.2l-20.8 21.2h1.3zm0 5.2v-1.3l-15.8 16.1h1.3zm0 5.1v-1.3l-10.8 11h1.3zm0 5.1v-1.3l-5.7 5.9h1.2zm0 3.9l-.7.7h.7zm-65.9 72.8h30.7v-36h-35.2v36h.7z" class="Q"/><g class="R"><path d="M296.8 462.5h30.7v-36.1h-35.2v36.1h.7z"/><path d="M323.1 462.5L292.3 494v3.8l34.6-35.3zm4.4 19.8v-3.8l-19.5 20h3.7zm0 10.3v-3.8l-9.5 9.7h3.8zm0-25.7v-3.8l-34.6 35.4h3.8zm0 10.3v-3.8L303 498.5h3.7zm-9.4-14.7l-25.8 26.4v3.8l29.6-30.2zm-20 0l-5.8 5.9v3.8l9.5-9.7zm29.4 25v-3.9L313 498.5h3.7zm-24.4-25l-10.8 11v3.8l14.5-14.8zm24.4 9.6v-3.9l-29.6 30.3h3.8zm-19.4-9.6l-15.8 16.1v3.9l19.5-20zm5 0l-20.8 21.2v3.9l24.6-25.1zm-20.1 0l-.7.7v3.9l4.5-4.6zm34.5 35.2v-3.8l-4.5 4.6h3.8z"/></g><path d="M292.3 462.5v.7l.7-.7zm4.5 0l-4.5 4.6v1.3l5.8-5.9zm5 0l-9.5 9.7v1.3l10.8-11zm5 0l-14.5 14.8v1.3l15.8-16.1zm5 0l-19.5 20v1.2l20.8-21.2zm5.1 0l-24.6 25.1v1.3l25.8-26.4zm5 0l-29.6 30.2v1.3l30.8-31.5zm5.6.6v-.6h-.6l-34.6 35.3v.7h.6zm0 5.1v-1.3l-30.8 31.6h1.2zm0 5.2v-1.3l-25.8 26.4h1.3zm0 5.1v-1.3l-20.8 21.3h1.3zm0 5.1v-1.3l-15.8 16.2h1.3zm0 5.2v-1.3l-10.8 11h1.3zm0 5.1v-1.3l-5.7 5.9h1.2zm0 3.8l-.7.8h.7z" class="Q"/><path d="M292.3 451.4v-3.8l-14.5 14.9h3.7zm-4.4-25L257.1 458v3.8l34.6-35.4zm4.4 19.9v-3.8l-19.5 20h3.7zm0 10.3v-3.9l-9.5 9.8h3.7zm-29.5-30.2l-5.7 5.9v3.9l9.5-9.8zm29.5 14.8v-3.9l-24.6 25.2h3.8zm-19.4-14.8l-15.8 16.2v3.8l19.5-20zm-15.1 0l-.7.8v3.8l4.5-4.6zm10.1 0l-10.8 11.1v3.8l14.5-14.9zm10 0l-20.8 21.3v3.9l24.5-25.2zm5 0l-25.8 26.4v3.9l29.6-30.3zm9.4 9.7v-3.9l-29.6 30.3h3.8zm0 25.6v-3.8l-4.5 4.6h3.8zm0-30.8v-3.8l-34.6 35.4h3.8z" class="R"/><path d="M257.1 426.4v.8l.7-.8zm4.5 0l-4.5 4.6v1.3l5.7-5.9zm5 0l-9.5 9.8v1.3l10.8-11.1zm5 0l-14.5 14.9v1.3l15.8-16.2zm5 0l-19.5 20v1.3l20.8-21.3zm5 0l-24.5 25.2v1.2l25.8-26.4zm5.1 0l-29.6 30.3v1.3l30.8-31.6zm5.6.7v-.7h-.6l-34.6 35.4v.7h.6zm0 5.1v-1.3l-30.8 31.6h1.2zm0 5.1v-1.2l-25.8 26.4h1.2zm0 5.2v-1.3l-20.8 21.3h1.3zm0 5.1v-1.3l-15.8 16.2h1.3zm0 5.1v-1.3l-10.8 11.1h1.3zm0 5.2v-1.3l-5.8 5.9h1.3zm0 3.8l-.7.8h.7z" class="Q"/><g class="R"><path d="M301.8 534.5h26.1v-35.9h-35.7v35.3l4.9.5h4.7z"/><path d="M308.1 534.5l-.9.9 3.5.3 1.2-1.3h-3.8zm-10 0c1.1.2 2.2.3 3.4.4l.4-.4h-3.8zm15 0l-1.3 1.4 3.5.3 1.6-1.7h-3.8zm-10 0l-.5.5 3.4.3.8-.8h-3.7zm20 0l-2.1 2.1 3.5.3 2.3-2.4h-3.7zm2.6 2.5c.6 0 1.2.1 1.8.1v-1.9l-1.8 1.8zm-7.6-2.5l-1.7 1.7 3.5.3 2-2h-3.8z"/></g><path d="M301.8 534.5l-.4.4c.4 0 .8.1 1.2.1l.5-.5h-1.3zm5 0l-.8.8c.4 0 .8.1 1.2.1l.9-.9h-1.3zm5 0l-1.2 1.3c.4 0 .8.1 1.2.1l1.3-1.4h-1.3zm5.1 0l-1.6 1.7c.4 0 .8.1 1.2.1l1.7-1.7h-1.3zm5 0l-2 2c.4 0 .8.1 1.2.1l2.1-2.1h-1.3zm5.6 0h-.6l-2.3 2.4c.4 0 .8.1 1.2.1l1.8-1.8v-.7z" class="Q"/><path d="M292.3 499.1l-30.4 31.1 3.3.5 27.1-27.7v-3.9zm-4.4-.6l-30.4 31.1 3.3.5 30.9-31.6h-3.8zm4.4 5.8l-26 26.6c1.1.2 2.2.3 3.3.4l22.7-23.2v-3.8zm-24.4-5.8l-10.8 11v3.9l14.5-14.9zm24.4 16L275.2 532l3.3.4 13.8-14.1v-3.8zm-9.4-16l-25.8 26.4v3.8l29.6-30.2zm-5 0l-20.8 21.3v3.8l24.5-25.1zm-20.1 0l-.7.8v3.8l4.5-4.6zm34.5 31.4l-3.6 3.7 3.4.4.2-.2v-3.9zm0-10.2l-12.6 12.9 3.4.4 9.3-9.5v-3.8zm0-10.3l-21.6 22.1 3.3.4 18.2-18.6v-3.9zm-19.4-10.9l-15.8 16.1v3.9l19.5-20zm-10.1 0l-5.7 5.9v3.8l9.5-9.7zm29.5 26.3l-8.1 8.3 3.4.4 4.8-4.9v-3.8z" class="R"/><g class="Q"><path d="M257.1 498.5v.8l.7-.8zm4.5 0l-4.5 4.6v1.3l5.7-5.9zm5 0l-9.5 9.7v1.3l10.8-11zm5 0l-14.5 14.9v1.2l15.8-16.1zm5 0l-19.5 20v1.3l20.8-21.3zm5 0l-24.5 25.1v1.3l25.8-26.4zM257.1 530l.4-.4c-.1 0-.3 0-.4-.1v.5z"/><path d="M286.7 498.5l-29.6 30.3v.8c.1 0 .3 0 .4.1l30.4-31.1h-1.2zm5.6 0h-.6l-30.9 31.6c.4.1.7.1 1.1.2l30.4-31.1v-.7zm0 4.5l-27.1 27.7c.4.1.7.1 1.1.2l26-26.6V503zm0 5.1l-22.7 23.2c.4 0 .7.1 1.1.1l21.6-22.1v-1.2zm0 5.1l-18.2 18.6c.4 0 .7.1 1.1.1l17.1-17.5v-1.2zm0 5.2l-13.8 14.1c.4 0 .8.1 1.1.1l12.6-12.9v-1.3zm0 5.1L283 533c.4 0 .8.1 1.1.1l8.1-8.3v-1.3zm0 5.1l-4.8 4.9c.4 0 .8.1 1.1.1l3.6-3.7v-1.3zM191.1 426.4h31.2v-22c-12.3-.6-24.1-1.8-35.2-3.6v25.6h4z"/></g><path d="M257.1 405.2V404l-2.8.2-21.8 22.3h3.8l20.8-21.3zm-28.2-.7l-7 7.2v3.8l10.7-11h-3.7zm24.1-.3l-3.9.2-21.6 22.1h3.8l21.7-22.3zm-29 .1l-2.2 2.2v3.8l5.8-5.9c-1.1 0-2.4 0-3.6-.1zm33.1 11.1v-3.8l-14.5 14.8h3.7zm0 10.3v-3.9l-4.5 4.6h3.7zm0-15.4v-3.9l-19.6 20h3.8zm0 10.2v-3.8l-9.5 9.7h3.7zm-9.3-16.1l-3.8.1-21.4 21.9h3.8l21.4-22zm-10.7.2h-3.3l-12 12.2v3.8l15.7-16.1c-.1.1-.2.1-.4.1zm1.7 0l-17 17.4v3.8l20.8-21.2h-3.8zm-16.9-.4v1l1-1c-.4.1-.7.1-1 0z" class="R"/><path d="M222.8 404.3l-1 1v1.3l2.2-2.2c-.4-.1-.8-.1-1.2-.1zm4.9.2l-5.8 5.9v1.3l7-7.2h-1.2zm4.9.1l-10.7 11v1.3l12-12.2c-.5-.1-.9-.1-1.3-.1zm5 0l-15.7 16.1v1.3l17-17.4h-1.3zm6.3-.1h-1.3l-20.8 21.2v.6h.6l21.5-21.8zm5.2-.1h-1.3l-21.5 22h1.3l21.5-22zm5.2-.2c-.4 0-.9 0-1.3.1l-21.7 22.2h1.3l21.7-22.3zm2.8 2.2v-1.2l-20.8 21.2h1.2zm0 5.2v-1.3l-15.8 16.1h1.3zm0 5.1v-1.3l-10.8 11h1.3zm0 5.1v-1.3l-5.8 5.9h1.3zm0 3.9l-.8.7h.8zm-66 72.8h30.8v-36h-35.3v36h.8z" class="Q"/><g class="R"><path d="M226.4 462.5h30.7v-36.1h-35.2v36.1h.7z"/><path d="M247.7 462.5l-25.8 26.4v3.8l29.5-30.2zm9.4 35.2v-3.8l-4.5 4.6h3.7zm0-25.6v-3.9l-29.6 30.3h3.8zm-24.5-9.6l-10.7 11v3.8l14.5-14.8zm24.5 30.1v-3.8l-9.5 9.7h3.7zm-4.4-30.1L221.9 494v3.8l34.6-35.3zm4.4 14.7v-3.8l-24.6 25.1h3.8zm0-10.3v-3.8l-34.6 35.4h3.7zm0 20.6v-3.9l-14.5 14.9h3.7zm-19.5-25l-15.7 16.1v3.9l19.5-20zm5.1 0l-20.8 21.2v3.9l24.5-25.1zm-15.1 0l-5.7 5.9v3.8l9.5-9.7zm-5 0l-.7.7v3.9l4.5-4.6zm34.5 19.8v-3.8l-19.6 20h3.8z"/></g><path d="M221.9 462.5v.7l.7-.7zm4.5 0l-4.5 4.6v1.3l5.7-5.9zm5 0l-9.5 9.7v1.3l10.7-11zm5 0l-14.5 14.8v1.3l15.7-16.1zm5 0l-19.5 20v1.2l20.8-21.2zm5 0l-24.5 25.1v1.3l25.8-26.4zm5 0l-29.5 30.2v1.3l30.8-31.5zm5.7.6v-.6h-.6l-34.6 35.3v.7h.6zm0 5.1v-1.3l-30.9 31.6h1.3zm0 5.2v-1.3l-25.8 26.4h1.2zm0 5.1v-1.3l-20.8 21.3h1.2zm0 5.1v-1.3l-15.8 16.2h1.3zm0 5.2v-1.3l-10.8 11h1.3zm0 5.1v-1.3l-5.8 5.9h1.3zm0 3.8l-.8.8h.8z" class="Q"/><path d="M192.4 426.4l-5.8 5.9v3.9l9.6-9.8zm29.5 9.7v-3.9l-29.6 30.3h3.7zm0 15.3v-3.8l-14.6 14.9h3.8zm0 10.3v-3.8l-4.5 4.6h3.7zm0-20.5v-3.9l-24.6 25.2h3.8zm0 15.4v-3.9l-9.5 9.8h3.7zm-4.4-30.2L186.6 458v3.8l34.6-35.4zm-15.1 0l-15.8 16.2v3.8l19.6-20zm5 0l-20.8 21.3v3.9l24.6-25.2zm5.1 0l-25.9 26.4v3.9l29.6-30.3zm9.4 19.9v-3.8l-19.6 20h3.8zm-24.5-19.9l-10.8 11.1v3.8l14.6-14.9zm24.5 4.5v-3.8l-34.6 35.4h3.7zm-34.5-4.5l-.8.8v3.8l4.5-4.6z" class="R"/><path d="M186.6 426.4v.8l.8-.8zm4.5 0l-4.5 4.6v1.3l5.8-5.9zm5.1 0l-9.6 9.8v1.3l10.8-11.1zm5 0l-14.6 14.9v1.3l15.8-16.2zm5 0l-19.6 20v1.3l20.8-21.3zm5 0l-24.6 25.2v1.2l25.9-26.4zm5 0l-29.6 30.3v1.3l30.9-31.6zm5.7.7v-.7h-.7l-34.6 35.4v.7h.7zm0 5.1v-1.3L191 462.5h1.3zm0 5.1v-1.2L196 462.5h1.3zm0 5.2v-1.3l-20.8 21.3h1.2zm0 5.1v-1.3l-15.8 16.2h1.2zm0 5.1v-1.3l-10.8 11.1h1.3zm0 5.2v-1.3l-5.8 5.9h1.3zm0 3.8l-.8.8h.8z" class="Q"/><g class="R"><path d="M257.1 524.9v-26.3h-35.7v24.8c11.7 2.3 23.4 4.3 35.2 6v-4.5zm-49.7-26.4l-17.6 18 3 .7 18.3-18.7h-3.7z"/><path d="M221.9 499.1l-19.8 20.2 3.1.7 16.7-17.1v-3.8zm-9.4-.6L194 517.4l3 .7 19.2-19.7h-3.7zm5 0L198 518.4l3.1.7 20.2-20.6h-3.8zm4.4 5.8l-15.6 16 3.1.7 12.5-12.8v-3.9zm-34.5-5.8l-.8.8v3.8l4.5-4.6zm10 0l-10.8 11v3.9l14.6-14.9zm24.5 10.9l-11.5 11.8 3.1.7 8.4-8.6v-3.9zm0 5.1l-7.3 7.5 3.1.6 4.2-4.3v-3.8zm-19.5-16l-15.8 16.2v1l2.2.6 17.3-17.7h-3.7zm-10 0l-5.8 5.9v3.8l9.6-9.7zm29.5 21.2l-3.2 3.2 3.1.6v-3.8z"/></g><path d="M186.6 498.5v.8l.8-.8zm4.5 0l-4.5 4.6v1.3l5.8-5.9zm5.1 0l-9.6 9.7v1.3l10.8-11zm5 0l-14.6 14.9v1.2l15.8-16.1zm5 0l-17.3 17.7 1 .3 17.6-18h-1.3zm5 0l-18.3 18.7c.3.1.7.2 1 .2l18.5-18.9h-1.2zm5 0L197 518.2c.3.1.7.2 1 .2l19.5-19.9h-1.3zm5.7 0h-.6l-20.2 20.6c.3.1.7.2 1 .2l19.8-20.2v-.6zm0 4.5l-16.7 17c.3.1.7.2 1 .2l15.6-16V503zm0 5.1l-12.5 12.8c.3.1.7.1 1 .2l11.5-11.8v-1.2zm0 5.1l-8.4 8.6c.3.1.7.1 1 .2l7.3-7.5v-1.3zm0 5.2l-4.2 4.3c.4.1.7.1 1.1.2l3.2-3.2v-1.3zm-.1 5.1zm-101.1-97.1h31.2v-34.1l-5.6-1.9h-30.1v35.8h4.5z" class="Q"/><path d="M186.6 420.5v-3.8l-9.5 9.7h3.8zm-16.3-23l-18.9 19.3v3.8l22-22.5c-1.1-.1-2.1-.4-3.1-.6zm4.1.9l-23 23.5v3.8l26.1-26.7-3.1-.6zm-8.2-1.9l-14.8 15.1v3.8l17.8-18.3c-1-.1-2-.3-3-.6zm20.4 29.2v-3.9l-4.5 4.6h3.8zm-4.8-25.9l-3.2-.6-26.6 27.2h3.8l26-26.6zm4.3.8l-3.2-.5-25.8 26.4h3.8l25.2-25.9zm-23.9-5.1l-10.8 11v3.8l13.8-14.1-3-.7zm24.4 14.8v-3.9l-19.5 20h3.8zm0 5.1v-3.8l-14.5 14.8h3.8zm0-10.2v-3.9l-24.5 25.1h3.7zm-35.2-5.1l5.9-6-2.9-.9-3 3v3.9zm6.9-5.7l-6.9 7v3.8l9.8-10c-1-.2-1.9-.5-2.9-.8zm-4.9-1.4l-2-.6v2.7l2-2.1z" class="R"/><path d="M151.4 396.3l3-3-1-.3-2 2v1.3zm0 5.1l6.9-7-1-.3-5.9 6v1.3zm9.8-6.2l-9.8 10v1.3l10.8-11-1-.3zm4 1.1l-13.8 14.1v1.3l14.8-15.1-1-.3zm4.1 1l-17.8 18.3v1.3l18.9-19.3c-.4-.2-.8-.2-1.1-.3zm4.1.9l-22 22.5v1.3l23-23.5c-.3-.2-.7-.2-1-.3zm5.2 1.1c-.4-.1-.7-.1-1.1-.2l-26.1 26.7v.6h.6l26.6-27.1zm4.3.7c-.4-.1-.7-.1-1.1-.2l-26 26.6h1.3l25.8-26.4zm3.7 1.3v-.6c-.2 0-.4-.1-.5-.1l-25.3 25.9h1.3l24.5-25.2zm0 5.1v-1.2l-20.8 21.2h1.3zm0 5.2v-1.3l-15.7 16.1h1.2zm0 5.1v-1.3l-10.7 11h1.2zm0 5.1v-1.3l-5.7 5.9h1.2zm0 3.9l-.7.7h.7z" class="Q"/><path d="M120.3 385.6l-4.1.6v3.6l4.1-4.2zm25.4 4.8l-2.7-1.1-1.1 1.1h3.8zm-5 0l1.4-1.4-2.7-1.1-2.5 2.5h3.8zm-10.1 0l4.3-4.4-2.6-1.2-5.5 5.6h3.8zm-5 0l5.9-6c-.3-.1-.6-.3-.9-.4l-3 .5-5.8 6h3.8zm-5 0l5.6-5.7-4.4.7-4.9 5.1h3.7zm15 0l2.8-2.9-2.6-1.1-3.9 4h3.7z" class="R"/><path d="M116.2 390.4h.6l4.9-5.1c-.5.1-1 .1-1.5.2l-4.1 4.2v.7zm5.7 0l5.8-6c-.5.1-1 .2-1.5.2l-5.6 5.7h1.3zm5 0l5.5-5.6c-.3-.1-.6-.3-.8-.4l-5.9 6h1.2zm5 0l3.9-4c-.3-.1-.6-.3-.9-.4l-4.3 4.4h1.3zm5 0l2.5-2.5c-.3-.1-.6-.3-.9-.4l-2.8 2.9h1.2zm5 0l1.1-1.1c-.3-.1-.6-.2-.9-.4l-1.4 1.4h1.2zm4 0c-.1 0-.1 0-.2-.1l-.1.1h.3zM132 498.5h19.7v-35.9H116v30.5l14.1 5.3h1.9z" class="Q"/><g class="R"><path d="M155.9 462.5h30.7v-36.1h-35.2v36.1h.8zm30.7 25v-3.9l-14.5 14.9h3.8z"/><path d="M186.6 482.3v-3.8l-19.5 20h3.8zm-29.4-19.8l-5.8 5.9v3.8l9.5-9.7zm15 0l-20.8 21.2v3.9l24.6-25.1zm14.4 4.4v-3.8l-34.5 35.4h3.7zm-9.4-4.4l-25.8 26.4v3.8l29.6-30.2zm-10 0l-15.8 16.1v3.9l19.6-20zm-15 0l-.8.7v3.9l4.5-4.6zm10 0l-10.8 11v3.8l14.6-14.8zm24.4 30.1v-3.8l-9.5 9.7h3.8zm0-15.4v-3.8l-24.5 25.1h3.7zm0-5.1v-3.9l-29.5 30.3h3.7zm0 25.6v-3.8l-4.5 4.6h3.8zm-4.3-35.2L151.4 494v3.8l34.6-35.3z"/></g><path d="M151.4 462.5v.7l.8-.7zm4.5 0l-4.5 4.6v1.3l5.8-5.9zm5 0l-9.5 9.7v1.3l10.8-11zm5.1 0l-14.6 14.8v1.3l15.8-16.1zm5 0l-19.6 20v1.2l20.8-21.2zm5 0l-24.6 25.1v1.3l25.8-26.4zm5 0l-29.6 30.2v1.3l30.9-31.5zm5.6.6v-.6h-.6l-34.6 35.3v.7h.7zm0 5.1v-1.3l-30.8 31.6h1.3zm0 5.2v-1.3l-25.8 26.4h1.3zm0 5.1v-1.3l-20.8 21.3h1.3zm0 5.1v-1.3l-15.7 16.2h1.2zm0 5.2v-1.3l-10.7 11h1.2zm0 5.1v-1.3l-5.7 5.9h1.2zm0 3.8l-.7.8h.7z" class="Q"/><path d="M132 426.4l-15.8 16.2v3.8l19.6-20zm15 0L116.2 458v3.8l34.6-35.4zm-5 0l-25.8 26.4v3.9l29.6-30.3zm-5 0l-20.8 21.3v3.9l24.6-25.2zm-15 0l-5.8 5.9v3.9l9.5-9.8zm5 0l-10.8 11.1v3.8l14.5-14.9zm24.4 14.8v-3.9l-24.5 25.2h3.7zm0-5.1v-3.9l-29.5 30.3h3.7zm0 15.3v-3.8l-14.5 14.9h3.8zm0 5.2v-3.9l-9.5 9.8h3.8zm0 5.1v-3.8l-4.5 4.6h3.8zm0-15.4v-3.8l-19.5 20h3.7zM117 426.4l-.8.8v3.8l4.5-4.6zm34.4 4.5v-3.8l-34.6 35.4h3.8z" class="R"/><path d="M116.2 426.4v.8l.8-.8zm4.5 0l-4.5 4.6v1.3l5.8-5.9zm5 0l-9.5 9.8v1.3l10.8-11.1zm5 0l-14.5 14.9v1.3l15.8-16.2zm5.1 0l-19.6 20v1.3l20.8-21.3zm5 0l-24.6 25.2v1.2l25.8-26.4zm5 0l-29.6 30.3v1.3l30.8-31.6zm5.6.7v-.7h-.6l-34.6 35.4v.7h.6zm0 5.1v-1.3l-30.8 31.6h1.3zm0 5.1v-1.2l-25.8 26.4h1.3zm0 5.2v-1.3l-20.8 21.3h1.3zm0 5.1v-1.3l-15.8 16.2h1.3zm0 5.1v-1.3l-10.7 11.1h1.2zm0 5.2v-1.3l-5.7 5.9h1.2zm0 3.8l-.7.8h.7z" class="Q"/><g class="R"><path d="M186.6 513.4v-14.8h-35.7v7.1c11.7 3.7 23.4 7 35.2 10v-2.3zM132 498.5l-.5.5 2.8 1 1.4-1.5H132z"/><path d="M130.3 498.5c.1 0 .2.1.3.1l.1-.1h-.4zm20.1 6.8l1 .3v-1.4l-1 1.1zm-13.4-6.8l-1.7 1.8 2.8 1 2.7-2.8H137zm14.4.6l-4.8 5 2.9.9 2-2v-3.9zm-9.4-.6l-3 3.1 2.8 1 3.9-4H142zm5 0l-4.3 4.3 2.8.9 5.2-5.3H147z"/></g><path d="M130.7 498.5l-.1.1.9.3.5-.5h-1.3zm5.1 0l-1.4 1.5.9.3 1.7-1.8h-1.2zm5 0l-2.7 2.8.9.3 3-3.1h-1.2zm5 0l-3.9 4 1 .3 4.3-4.3h-1.4zm5.6 0h-.6l-5.2 5.3 1 .3 4.8-5v-.6zm0 4.5l-2 2 1 .3 1-1.1V503zM50.3 426.4H81v-36h-3.5l-19.9 1.9c-4.3.5-8.2 1-11.8 1.7v32.3h4.5z" class="Q"/><g class="R"><path d="M81.7 390.4h35v-4.2c-11.8 1.6-24.4 2.9-35.2 3.9v.3h.2zm34.5 25v-3.8l-14.5 14.8h3.7z"/><path d="M116.2 400v-3.8l-29.6 30.2h3.8zm-19.4-9.6L81 406.6v3.8l19.5-20zm5 0L81 411.7v3.8l24.5-25.1zm14.4 4.5v-3.8l-34.6 35.3h3.8zm-9.4-4.5L81 416.8v3.9l29.6-30.3zm9.4 14.8v-3.9l-24.5 25.1h3.7zm-24.4-14.8l-10.8 11v3.9l14.5-14.9zm24.4 19.9v-3.9l-19.5 20h3.7zm-4.4-19.9L81 421.9v3.9l34.6-35.4zm-30.1 0l-.7.8v3.8l4.5-4.6zm34.5 30.1v-3.8l-9.5 9.7h3.8zm0 5.2v-3.9l-4.5 4.6h3.8zm-29.5-35.3l-5.7 5.9v3.8l9.5-9.7z"/></g><path d="M81 390.4v.8l.7-.8zm4.5 0L81 395v1.3l5.7-5.9zm5 0l-9.5 9.7v1.3l10.8-11zm5 0L81 405.3v1.3l15.8-16.2zm5 0l-19.5 20v1.3l20.8-21.3zm5 0L81 415.5v1.3l25.8-26.4zm5.1 0L81 420.7v1.2l30.8-31.5zm5.6.7v-.7h-.6L81 425.8v.6h.6zm0 5.1v-1.3l-30.8 31.5h1.2zm0 5.1V400l-25.8 26.4h1.3zm0 5.1v-1.2l-20.8 21.2h1.3zm0 5.2v-1.3l-15.8 16.1h1.3zm0 5.1v-1.3l-10.8 11h1.3zm0 5.1v-1.3l-5.7 5.9h1.2zm0 3.9l-.7.7h.7z" class="Q"/><path d="M80.5 390.1l-3.1.3h2.8l.3-.3z" class="R"/><path d="M81 390.4v-.3h-.5l-.3.3h.8zm0 83.1v-11H49.3l31.2 15.3v-4.3z" class="Q"/><g class="R"><path d="M85.5 462.5h30.7v-36.1H81v36.1h.7z"/><path d="M91.8 462.5l-10.8 11v3.8l14.5-14.8zm5 0l-15.3 15.6 2.6 1.2 16.4-16.8h-3.7zm5 0L85 479.7l2.6 1.2 18-18.4h-3.8zm-15.1 0l-5.7 5.9v3.8l9.5-9.7zm20.1 0l-18.4 18.8 2.6 1.2 19.6-20h-3.8zm-25.1 0l-.7.7v3.9l4.5-4.6zm34.5 5.7L98.9 486l2.6 1.2 14.7-15.1v-3.9zm0 5.2l-13.8 14.2 2.7 1.1 11.2-11.4v-3.9zm0 5.1L105.9 489l2.7 1.1 7.6-7.8v-3.8zm0 5.1l-6.7 6.9 2.7 1.1 4-4.1v-3.9zm0 5.2l-3.1 3.2 2.7 1.1.4-.4v-3.9zm-4.4-26.3l-19.9 20.4 2.6 1.2 21.1-21.6h-3.8zm4.4.6l-20.9 21.3 2.6 1.2 18.2-18.7v-3.8z"/></g><g class="Q"><path d="M81 462.5v.7l.7-.7zm4.5 0l-4.5 4.6v1.3l5.7-5.9zm5 0l-9.5 9.7v1.3l10.8-11zm5 0L81 477.3v.5c.2.1.4.2.5.3l15.3-15.6h-1.3z"/><path d="M81 478.6l.5-.5c-.2-.1-.4-.2-.5-.3v.8zm19.5-16.1l-16.4 16.8c.3.1.6.3.9.4l16.8-17.2h-1.3zm5 0l-18 18.4c.3.1.6.3.9.4l18.4-18.8h-1.3zm5.1 0l-19.6 20c.3.1.6.3.9.4l19.9-20.4h-1.2zm5.6 0h-.6L94.5 484c.3.1.6.3.9.4l20.9-21.3v-.6zm0 4.4L98 485.6c.3.1.6.3.9.4l17.3-17.7v-1.4zm0 5.2l-14.7 15.1c.3.1.6.3.9.4l13.8-14.2v-1.3zm0 5.1L105 488.7c.3.1.6.3.9.4l10.3-10.5v-1.4zm0 5.1l-7.6 7.8c.1.1.3.1.4.2.2.1.3.1.5.2l6.7-6.9v-1.3zm0 5.2l-4 4.1c.3.1.6.2.9.4l3.1-3.2v-1.3zm-.4 5.6c.1.1.3.1.4.2v-.6l-.4.4z"/></g><path d="M46.5 426.4l-.7.8v3.8l4.5-4.6zM81 446.3v-3.8l-19.6 20h3.8zm0 5.1v-3.8l-14.5 14.9h3.7zm0-10.2v-3.9l-24.6 25.2h3.8zm0 15.4v-3.9l-9.5 9.8h3.7zm0 5.1v-3.8l-4.5 4.6h3.8zm-9.4-35.3l-25.8 26.4v3.9l29.5-30.3zm5 0L45.8 458v2.5c.3.1.6.3.9.4l33.7-34.5h-3.8zm4.4 9.7v-3.9l-29.6 30.3h3.8zm0-5.2v-3.8l-33.5 34.3a22.56 22.56 0 0 0 2.2 1.1h.4L81 430.9zm-14.4-4.5l-20.8 21.3v3.9l24.5-25.2zm-15.1 0l-5.7 5.9v3.9l9.5-9.8zm10.1 0l-15.8 16.2v3.8l19.5-20zm-5.1 0l-10.7 11.1v3.8l14.5-14.9z" class="R"/><path d="M45.8 426.4v.8l.7-.8zm4.5 0l-4.5 4.6v1.3l5.7-5.9zm5 0l-9.5 9.8v1.3l10.7-11.1zm5 0l-14.5 14.9v1.3l15.8-16.2zm5 0l-19.5 20v1.3l20.8-21.3zm5 0l-24.5 25.2v1.2l25.8-26.4zm5 0l-29.5 30.3v1.3l30.8-31.6zm5.7 0h-.6l-33.7 34.5c.3.1.6.3.8.4L81 427.1v-.7zm0 5.8v-1.3l-30.8 31.6h1.2zm0 5.1v-1.2l-25.8 26.4h1.2zm0 5.2v-1.3l-20.8 21.3h1.2zm0 5.1v-1.3l-15.8 16.2h1.3zm0 5.1v-1.3l-10.8 11.1h1.3zm0 5.2v-1.3l-5.8 5.9h1.3zm0 3.8l-.7.8h.7zM6.2 426.4h4.4V410c-3.7 4.5-6.1 9.9-7.9 16.6h3.5z" class="Q"/><path d="M28.8 398.1l-18.3 18.7v3.8l23.6-24.2-5.3 1.7zm17 17.3v-3.8l-14.6 14.8H35zM35.9 396l-25.3 25.9v3.8l30.2-30.8-4.9 1.1zM20 402l-9.4 9.6v3.8l16.3-16.7L20 402zm25.8-7.1v-.9l-3.5.6-31.1 31.8H15l30.8-31.5zm0 30.8v-3.9l-4.5 4.6H45zm0-15.4v-3.9l-19.6 20H30zm0-10.3v-3.8l-29.6 30.2H20zm0 20.5v-3.8l-9.5 9.7H40zm0-15.3v-3.9l-24.6 25.1H25zm-35.2 4.7v.5l6.1-6.2c-2.4 1.7-4.4 3.6-6.1 5.7z" class="R"/><path d="M16.6 404.2l-6.1 6.2v1.3L20 402l-3.4 2.2zm10.3-5.4l-16.3 16.7v1.3l18.3-18.7c-.7.3-1.4.5-2 .7zm7.3-2.3l-23.6 24.2v1.3l25.3-26-1.7.5zm8.1-1.9l-1.6.3-30.2 30.8v.6h.6l31.2-31.7zm3.5 1.6v-1.3l-30.9 31.5h1.3zm0 5.1V400L20 426.4h1.2zm0 5.1v-1.2L25 426.4h1.2zm0 5.2v-1.3L30 426.4h1.2zm0 5.1v-1.3l-10.8 11h1.3zm0 5.1v-1.3l-5.8 5.9h1.3zm0 3.9l-.8.7h.8z" class="Q"/><g class="R"><path d="M45.8 456.7v-30.3H10.5v16.4l35.2 17.5v-3.6zM2.7 426.4l-.8 3.1 3-3.1H2.7z"/><path d="M6.2 426.4l-4.6 4.7-1 4.8 9.4-9.6H6.2zm4.4.7L.3 437.6c0 .1 0 .2-.1.3l2.3 1.2 8-8.2v-3.8zm0 10.2l-3.7 3.8 2.6 1.2 1.2-1.2v-3.8zm0-5.1l-7.2 7.3 2.6 1.2 4.6-4.7v-3.8zm-.4 10.6c.1.1.2.1.3.2v-.5l-.3.3z"/></g><path d="M4.9 426.4l-3 3.1c-.1.6-.3 1.1-.4 1.7l4.6-4.7H4.9zm5.7 0h-.7L.6 436l-.3 1.6 10.3-10.5v-.7zm0 4.5l-8 8.2c.1.1.3.1.4.2s.3.1.4.2l7.2-7.3v-1.3zm0 5.2L6 440.8c.3.1.6.3.9.4l3.7-3.8v-1.3zm0 5.1l-1.2 1.2c.3.1.6.3.9.4l.3-.3v-1.3z" class="Q"/><path d="M113.1 180.2h2.3l-2.9-22.8C107.6 119.6 102.2 9.1 228.4 9.1c114.3 0 120.8 110.5 115.9 148.3l-2.9 22.8h2.3c20.1-14.9 21.8 23.9 13.4 37.2-6.9 11-7.1 12.2-11.3 24.2-3.1 8.9-8.2 10.1-12.5 9.1l-1.3 13.5c-1.8 20.4-50.9 61.2-62 74-10.4 12-27.8 7.3-33.3 7l-8.3-.4-8.3.4c-5.6.3-22.9 4.9-33.3-7-11.1-12.8-60.1-53.6-62-74-.3-3.7-.8-8.3-1.3-13.5-4.3 1-9.4-.2-12.5-9.1-4.2-12.1-4.3-13.3-11.3-24.2-8.3-13.2-6.6-52 13.4-37.2z" class="S"/><path d="M131 241.5l2.3 6c16.8 51.4 66 65.6 92.2 66.4 1 0 1.5-22.8 1.5-22.8-1.5 0 6.4-.3 6.8 0 0 0 .6 22.6 1.1 22.6 24.5-1.1 73-12.5 88.9-61.1l2.2-11.1c.4-1.5 11.9-47.9 13-43.6l-1.3 10.2s-2.5 29.6-4.3 42.7l-1.3 13.5c-2.5 20.2-8 26.7-12.8 34.2 0 0 0 .1-.1.1-15.8 19.6-36.1 41.7-43.7 50.4-10.4 12-33.1 12.7-38.7 12.4l-8.3-.4c-.4 0-3 .2-8.2.4-5.6.3-28.3-.4-38.7-12.4-7.7-8.8-27.9-30.9-43.7-50.4 0 0 0-.1-.1-.1-4.9-7.5-10.4-14-12.8-34.2l-1.3-13.5c-1.9-13.1-4.3-42.7-4.3-42.7l-1.3-10.2c.9-4.3 12.5 42.1 12.9 43.6zm100.9 10.6c10.9-.1 49 14 46.4 17.9-8.2 10.1-30.4-10.9-46.9-10.1-27 1.4-38.7 20.2-46.9 10.1-2.6-3.9 34.3-17.8 47.4-17.9z" fill="#582d11"/><g class="S"><path d="M343.6 163.4c-4.6 2.5-13.2-25.6-37.2-44.9-6.7-5.4-26.4-21.5-78-21.5V4.5s51.9-3.6 86.9 33.7c35.1 37.3 44 116.8 28.3 125.2z"/><path d="M113.3 163.4c4.7 2.5 13.2-25.6 37.2-44.9 6.7-5.4 26.4-21.5 78-21.5V4.5S176.6.9 141.6 38.2c-35.1 37.3-44 116.8-28.3 125.2z"/></g><g fill="#dfdfdf"><path d="M324.7 385.9l-33.1-39.6-62.9 31.2L234 445z"/><path d="M228.7 377.5L165 346.8 129 388l94.7 57z"/></g><path d="M408.4 393.6c-4-1.3-25.7-3.7-31.9-4.3l-19.6 149.6c12 .6 24.1.9 36.1 1.2l15.4-146.5zm-339.7-2.5l9.4 85.4c10.2 4.9 20.4 9.5 30.8 13.9l8 3.2-13-106.4-35.2 3.9zm152.1 77.2c3.2 0 5.7-2.6 5.7-5.7s-2.6-5.7-5.7-5.7c-3.2 0-5.7 2.6-5.7 5.7s2.5 5.7 5.7 5.7z" fill="#4188c5"/><path d="M175.1 157c12.8 0 23.2 10.4 23.2 23.2s-10.4 23.2-23.2 23.2-23.2-10.4-23.2-23.2 10.3-23.2 23.2-23.2z" fill="#fff"/><use xlink:href="#B" fill="#3f2609"/><path d="M280.1 157c12.8 0 23.2 10.4 23.2 23.2s-10.4 23.2-23.2 23.2-23.2-10.4-23.2-23.2 10.3-23.2 23.2-23.2z" fill="#fff"/><use xlink:href="#B" x="105" fill="#3f2609"/><path d="M156.8 439.3c23.3 4 86.8-42.2 86.8-42.2s-88.1-49.1-95.1-17.5c-6.9 31.6-15 55.7 8.3 59.7z" fill="#3373a9"/><path d="M228.6 407.1c20.5 12.6 57.5 33.3 73.8 29.9 23.1-4.9 14.2-28.8 6-60.2-6.1-23.4-55.1-.4-79.9 13 .2 15.1-.2 2 .1 17.3z" fill="#4188c5"/><path d="M176.9 118.6c-24.7.5-39 8.6-39 16.9 0 8.4 13.2 6 23 2.1s22.9-3.6 28.3.4 17.2 5.2 17.7-3.3c.5-8.4-21.5-16.2-30-16.1zm100.8-.1c24.7.5 39.1 8.5 39.1 16.9 0 8.3-13.2 6-23 2.1-9.9-3.9-22.9-3.6-28.4.4s-17.2 5.1-17.7-3.3c-.5-8.5 21.6-16.3 30-16.1z" fill="#582d11"/><path d="M197.8 277.1s8.4 14.5 31.7 14 31.2-14 31.2-14-15.2-4.9-27.5-4.9c-5.3 0-10.7 2.9-17.7 4.1-7 1.1-17.7.8-17.7.8z" fill="#c08b7e"/><g fill="#474b56"><path d="M339.2 112.2l-.6-.3C286.7 86.9 230.5 62 175 77.7c-35.2 10-65.9 21.4-76.3 23-11.3 1.9-23.8-10.9-17.7-17.2 22.9-24 55.4-29.7 62.5-30.1 23-1.4 39.3-1.7 62.2-1.4 43.9.5 87.4-3.2 130.8-10 8-1.3 12.2-10 23.8 1.7 16.4 16.5 13.6 54-2.6 77.3-3.2 4.7-11.8-4.1-18.5-8.8z"/><path d="M366.2 56.9c-51.3 10.2-107.5 6.7-159.7 6.8-47.7 0-71.5 7.9-112.2 37.3-9.4 6.8-19.2 11.1-8.3-13.4 16.8-37.7 65.3-74.1 132.5-85.3C268-5.8 319 7.5 357.4 41.2c6.8 6 7.5 13.2 8.8 15.7z"/><path d="M150.3 85.5C137.9 89.1 138.4 97 88 107.8c-22.4 4.8-19.1-20.2-19-20.6 3.9-16.6 37.5-30 59.9-25.4 5.6 1.2 75.4-23.5 143.1 8.6 28.7 13.6 39.8 12.1 82.3 48.9.9.7-.1 2.1-1.1 1.5-12.9-8.7-31.9-20-47-22.3h-.1c-36.8-9.2-50.8-24.8-92.3-22.7-50.7 2.6-64.3 8.3-63.5 9.7z"/></g><path d="M69.5 95s-10-18.5 36.9-37.8c57.3-23.6 109-.6 169.6 21.1 11.6 4.2 30.9 15.5 32.6 20.8.5 1.6-75-18.5-147.3-28.3-59.3-8.2-79.8-.1-91.8 24.2z" fill="#3d4251"/><path d="M126.1 462.1c4.4-10.8 34.8-32.4 32.5-44.3s-24.4-25.4-32.6-29.1c-8.2-3.8-16.5 0-28.2 3.8-11.8 3.8-33.1 25.8-47.8 39.8-4.3 4.1-4.2 15.2-1.8 29.3 20.1 10.1 40.2 20.1 60.8 28.7l18.1 7c-1.5-12.7-3.8-28.3-1-35.2z" class="S"/><path d="M384.5 496.6c-13.1-15.3-24.5-10.5-32.9-1.2-10.4 11.5-14.1 27.5-10.8 42.5 20 1.2 40.1 1.9 60.2 2.2-2.6-8.3-4.7-15.8-6.1-22.2-1.7-7.8-5.2-15.2-10.4-21.3z" fill="#b4694e"/><path d="M411.6 426.3c-14.7-14.1-36.1-36-47.8-39.8-11.8-3.8-20-7.6-28.2-3.8S305.3 400 303 411.8s28.1 33.4 32.5 44.3-3.8 43.4-1.5 52.2c1.3 5 2.3 18.5 6.4 29.7 14.6.9 29.3 1.5 44 1.9 15-28.1 39.9-101.5 27.2-113.6z" class="S"/><defs ><path id="B" d="M184.3 180.1c0 5.4-4.4 9.9-9.9 9.9-4 0-7.5-2.4-9-5.9.6.4 1.3.6 2 .6 2.3 0 4.1-1.8 4.1-4.1s-1.8-4.1-4.1-4.1c-.9 0-1.8.3-2.4.8 1.2-4 5-7 9.4-7 5.5-.1 9.9 4.3 9.9 9.8z"/></defs></svg>