<?xml version="1.0" encoding="UTF-8" standalone="no"?>
<!-- Generator: Adobe Illustrator 22.0.0, SVG Export Plug-In . SVG Version: 6.00 Build 0)  -->

<svg
   xmlns:dc="http://purl.org/dc/elements/1.1/"
   xmlns:cc="http://creativecommons.org/ns#"
   xmlns:rdf="http://www.w3.org/1999/02/22-rdf-syntax-ns#"
   xmlns:svg="http://www.w3.org/2000/svg"
   xmlns="http://www.w3.org/2000/svg"
   xmlns:sodipodi="http://sodipodi.sourceforge.net/DTD/sodipodi-0.dtd"
   xmlns:inkscape="http://www.inkscape.org/namespaces/inkscape"
   version="1.1"
   id="Calque_1"
   x="0px"
   y="0px"
   viewBox="0 0 410.1 622.4"
   style="enable-background:new 0 0 410.1 622.4;"
   xml:space="preserve"
   sodipodi:docname="logo-jhipster-woman-2-light.svg"
   inkscape:version="0.92.2 5c3e80d, 2017-08-06"><metadata
     id="metadata88"><rdf:RDF><cc:Work
         rdf:about=""><dc:format>image/svg+xml</dc:format><dc:type
           rdf:resource="http://purl.org/dc/dcmitype/StillImage" /></cc:Work></rdf:RDF></metadata><defs
     id="defs86" /><sodipodi:namedview
     pagecolor="#ffffff"
     bordercolor="#666666"
     borderopacity="1"
     objecttolerance="10"
     gridtolerance="10"
     guidetolerance="10"
     inkscape:pageopacity="0"
     inkscape:pageshadow="2"
     inkscape:window-width="1395"
     inkscape:window-height="883"
     id="namedview84"
     showgrid="false"
     inkscape:zoom="1.7527031"
     inkscape:cx="109.3831"
     inkscape:cy="402.76272"
     inkscape:window-x="0"
     inkscape:window-y="0"
     inkscape:window-maximized="0"
     inkscape:current-layer="Calque_1" /><style
     type="text/css"
     id="style2">
	.st0{fill:#0D0905;}
	.st1{fill:#FCA65B;}
	.st2{fill:#EB9449;}
	.st3{fill:#F29B50;}
	.st4{fill:#D31616;}
	.st5{fill:#EA1818;}
	.st6{fill:#FFFFFF;}
	.st7{fill:#333333;}
	.st8{fill:#1C140A;}
	.st9{fill:#261E14;}
	.st10{fill:#3D4251;}
	.st11{fill:#363A47;}
	.st12{fill:#474B56;}
	.st13{fill:#4189C6;}
	.st14{fill:#3373AA;}
</style><g
     id="g6"><path
       class="st0"
       d="M205,347.5c-2,1.3-4,35-5.5,69.5c-1.5-34.6-3.5-68.2-5.5-69.5c-4.2-2.8-142.6,4.1-142.6,4.1v134.9   c0,0,56.9,6.5,148.1,5.8c91.2,0.7,148.1-5.8,148.1-5.8V351.6C347.6,351.6,209.2,344.7,205,347.5z"
       id="path4" /></g><g
     id="g12"><path
       class="st1"
       d="M328.9,477.1c-18.5-5.5-49.1-7.6-68.5-18.6C241,447.4,244.1,392,244.1,392h-41.8h-41.9c0,0,3.1,55.4-16.3,66.4   c-19.4,11.1-50,13.1-68.5,18.6c-18.5,5.5-49.6,19.7-55.2,56.1c-1.5,9.7-3.9,25.5-6.5,42.2c123.4,39.3,255.9,44.4,385.3,42.9   c-2.3-27.3-6-67-8.7-85.2C385,496.7,347.3,482.6,328.9,477.1z"
       id="path8" /><path
       class="st1"
       d="M14.7,592.7c2,0,3,0,5,0C17.7,592.7,16.7,592.7,14.7,592.7z"
       id="path10" /></g><g
     id="g16"><path
       class="st2"
       d="M156.8,437C156.8,437.1,156.8,437.1,156.8,437c22.5-4.2,66-18.1,87.2-33.9c0-1.7,0-3.2,0-4.5c0,0,0-0.1,0-0.1   c0-0.6,0-1.1,0-1.7c0-0.1,0-0.2,0-0.3c0-0.4,0-0.8,0.1-1.3c0-0.1,0-0.2,0-0.3c0-0.4,0-0.7,0-1c0-0.1,0-0.2,0-0.2c0-0.3,0-0.5,0-0.8   c0,0,0-0.1,0-0.1c0-0.2,0-0.3,0-0.5c0-0.2,0-0.3,0-0.3h-41.8h-41.9C160.4,392,161.8,417.2,156.8,437z"
       id="path14" /></g><g
     id="g20"
     transform="translate(0.4662111,-0.4662111)"><path
       class="st3"
       d="m 321.4,253.7 c 0,0 17.7,-75.4 -2.9,-117.4 C 296.3,91.1 263.1,65.2 202.2,65.2 141.3,65.2 108.1,91 85.9,136.3 65.3,178.2 83,253.7 83,253.7 c -27.7,-5.5 -22.5,24.7 -13.9,38.4 7.2,11.4 7.3,12.6 11.7,25.1 6.2,18 20.5,5.6 20.5,5.6 8.3,23.1 14.2,28.5 47.3,59.1 28.8,26.6 38.9,26.3 53.5,26.3 14.6,0 24.4,0.3 53.5,-26.3 33.2,-30.4 39,-36 47.3,-59.1 0,0 14.3,12.5 20.5,-5.6 4.3,-12.5 4.5,-13.7 11.6,-25.1 8.9,-13.6 14.1,-43.9 -13.6,-38.4 z"
       id="path18"
       inkscape:connector-curvature="0"
       style="fill:#f29b50" /></g><path
     class="st4"
     d="M9.8,574.1c9.8,3.2,19.7,6.2,29.7,9C24.9,540.7,12.3,505,12.3,505S11.5,533.9,9.8,574.1z"
     id="path22" /><path
     class="st4"
     d="M362.3,618.6c12.9,0,25.7-0.1,38.5-0.2c-3.3-52.7-4.7-97-4.7-97S379.5,568.5,362.3,618.6z"
     id="path24" /><g
     id="g28"><path
       class="st5"
       d="M361.1,487.8c-13.4-2.5-13.5-4.3-42.5-6.6l-58.1-22.8c0,0-1.2,67.1-60.6,67.1c-59.4,0-62.7-64-62.7-64   l-41,15.2c0,0-43.2,8.7-56.6,11.1C3.8,494.3,6.3,526.8,7.8,561c0.2,3.7,0.7,8,1.4,12.9c118.7,38.8,246.2,45.4,371.2,44.6   c9.6-35.1,17.4-61.4,17.6-68.1C399,517,393.8,493.8,361.1,487.8z"
       id="path26" /></g><path
     id="mounth_2_"
     class="st5"
     d="M175.1,339.7c-11.6-4,11,18.6,29.3,18c18.3-0.6,41.4-25.3,26.2-17.9c-5,2.4-12-14.1-21.2-8.9  c-6.6,3.7-3.4,5.4-9.4-0.2C191.9,324.9,183.3,342.5,175.1,339.7z" /><path
     id="eyebrows_7_"
     class="st8"
     d="M151.9,208.9c-12.5,0.7-30.6,11.6-33.8,20.8c-3.9,11.3,10.3-6.3,20.3-10.7  c8.5-7.9,24.8-4,34.5,2.2c9.6,6.1,11.6,15.2,11.6,7.2C181.9,220.5,162,208.9,151.9,208.9z" /><path
     id="eyebrows_6_"
     class="st8"
     d="M255.7,206.5c-12.5,0.7-30.6,11.6-33.8,20.8c-3.9,11.3,10.3-6.3,20.3-10.7  c8.5-7.9,24.8-4,34.5,2.2c9.6,6.1,11.6,15.2,11.6,7.2C285.7,218.1,265.8,206.5,255.7,206.5z" /><path
     class="st9"
     d="M186.1,145.5c0,0,5.5,16.4,6.7,25.7c1.3,9.3,2.3,20.4,2.3,20.4s2.1-7-0.3-20.9  C192.4,156.8,186.1,145.5,186.1,145.5z"
     id="path37" /><path
     class="st9"
     d="M145.5,202.3c0,0-1.5-15.4,4.6-33.1c6.1-17.7,21.1-21.5,21.1-21.5s-10.7,5.9-17.3,21.8S145.5,202.3,145.5,202.3  z"
     id="path39" /><path
     class="st9"
     d="M237.8,188.9c0,0-0.7-13.8-8.5-28.5c-7.8-14.7-21.5-16.1-21.5-16.1S218,148,226,161.1S237.8,188.9,237.8,188.9z  "
     id="path41" /><path
     class="st10"
     d="M367.3,480.9c-31.3-4.9-48-7.4-92-19.3c-2.1-0.2-3.3-0.3-3.3-0.3l-20.1,44.3c0,0,32.5,36.9,41.2,86.6  c0.9,4.9,1.9,13.8,2.9,25.4c27.3,0.8,54.5,1,81.7,0.9c7.8-45.8,15.8-85.6,20.1-94.7C408.2,502,384.8,478.7,367.3,480.9z"
     id="path43" /><path
     class="st11"
     d="M364.3,618.6c15.2,0,30.5-0.1,45.6-0.4c-6-57.3-10-104.3-10-104.3S381,568.4,364.3,618.6z"
     id="path45" /><g
     id="g49"><path
       class="st12"
       d="M68.2,107.6c0.1-0.4-23.1,40,0.2-1.2c13.1-31.2,178.2-53.9,260.2,0c23.8,25.1,39.9,101.5,23.6,109.1   c-5.8,2.7-25.3-25.7-55.4-46.8c-8.4-5.9-33.2-23.6-98.1-23.6c-64.9,0-89.7,17.7-98.1,23.6c-30.1,21.1-43.4,52.1-49.3,49.3   C35.3,210.6,42.3,151.4,68.2,107.6z"
       id="path47" /></g><path
     class="st10"
     d="M156.2,512.6l-20.1-44.3c0,0-4.2-4.3-6.3-4.1c-44,11.9-57.7,18.8-89,23.7c-17.5-2.2-40.9,21.1-30.6,42.9  c2.7,5.7,6.8,23.4,11.5,47.1c30.6,9.4,61.6,16.7,93.1,22.3c0.1-0.4,0.1-0.7,0.2-1C123.7,549.5,156.2,512.6,156.2,512.6z"
     id="path51" /><path
     class="st11"
     d="M0.1,570.8c9.5,3.2,19,6.3,28.6,9.1c-11.5-33.3-20.5-59.1-20.5-59.1S4.9,540.9,0.1,570.8z"
     id="path53" /><path
     id="glasses_11_"
     class="st13"
     d="M191.5,254.7h25.1V265h-25.1V254.7z" /><g
     id="g58"><path
       class="st8"
       d="M71.7,586.2c1.2-7.3,2.3-20.1,2.3-20.1l2.1,19.6c5.5,0.4,12.9,0.7,18.5,0.2l0.2-27.7l4.6,26.6   c5.2-0.7,17.2-2.1,22.1-3.1L121,569l4.8,11.9c19-4.7-9.1-359.4-9.1-359.4s17.6-0.8,27.6-2h0l3.9-16l3.7,15.1   c4.4-0.4,9.1-0.9,13.8-1.4l7.5-38.7l5.3,37.4c7.8-0.6,19.9-1.4,24.6-1.4c0,0,0.1,0,0.1,0l3-22.2l4.7,22.4   c10.5,0.5,25.2,1.9,38.3,3.3l3-37.5L257,219c12.4,1.4,32.3,2.5,32.3,2.5s-21.8,352.7-6.3,355.7l9.9-33.3l-4.5,34.3   c6.8,1.2,14.2,2.2,21.8,2.8l6-20.5l2.1,20.9c12.5,0.4,82.3-278.9,29.6-378.8c-6.1-11.5-4.2-24.6-6.9-34   C306.6,48.5,203,48.5,203,48.5s-103.6,0-137.9,120.2c-2.9,10.1-0.3,24.3-7.1,36.8C8.9,294.6,67.6,585.6,71.7,586.2z"
       id="path56" /></g><path
     id="glasses_10_"
     class="st13"
     d="M184.1,222.6h-66.6c-4.5,0-8.2,3.7-8.2,8.2v51c0,4.5,3.7,8.2,8.2,8.2h66.6  c4.5,0,8.2-3.7,8.2-8.2v-51C192.3,226.3,188.7,222.6,184.1,222.6z M182.4,274.8c0,3.4-2.8,6.1-6.2,6.1h-50.4c-3.4,0-6.2-2.7-6.2-6.1  V237c0-3.4,2.8-6.1,6.2-6.1h50.4c3.4,0,6.2,2.7,6.2,6.1V274.8z" /><path
     id="glasses_9_"
     class="st13"
     d="M288.1,222.6h-66.6c-4.5,0-8.2,3.7-8.2,8.2v51c0,4.5,3.7,8.2,8.2,8.2h66.6  c4.5,0,8.2-3.7,8.2-8.2v-51C296.3,226.3,292.7,222.6,288.1,222.6z M286.4,274.8c0,3.4-2.8,6.1-6.2,6.1h-50.4c-3.4,0-6.2-2.7-6.2-6.1  V237c0-3.4,2.8-6.1,6.2-6.1h50.4c3.4,0,6.2,2.7,6.2,6.1V274.8z" /><g
     id="g64"><path
       class="st10"
       d="M76.8,99.8c0.1-0.4,0.1-0.7,0.2-1.1c5.5-20.3,14.6-35.1,26.4-46.7c0.3-0.4,0.6-0.8,1-1.2   c16-17.4,21-19.7,27.7-30.6C138.9,9.2,147.5-0.7,166.9,0c10.2,0.4,10.6,3.2,28.4,2.6c19.9-0.6,30-2.9,36.3,0   c10.7,4.9,8.3,8,38.7,29.6c6.3,4.5,13,9.7,18.6,16.2c19.6,19,30.5,50.2,30.5,50.2c24.7,40.7,34.4,96.6,19.3,103.6   c-5.4,2.5-20.9-26.2-48.9-45.8c-7.8-5.5-30.9-21.9-91.4-21.9c-60.4,0-83.6,16.4-91.4,21.9c-28,19.6-38.1,48.2-43.6,45.6   C48.5,195.2,52.7,140.4,76.8,99.8z"
       id="path62" /></g><g
     id="g70"><g
       id="g68"><path
         class="st12"
         d="M78.4,92.5c2.2-6.8,3.5-10.2,5.4-13.8c1-0.4,11.5-5.4,12.6-5.8c34.9-14.4,83.8-15.5,98-15.5    c2.2,0,3.6,0,4.3,0c0.6,0,2.1,0,4.2,0c13.9,0,61.7,0,109.3,24.3c2,4.3,4.3,9.3,4.3,9.3c1,2.2,1.4,3.4,2.2,5.4    c-3.1-8-22.5-14.2-33.1-18.6c-31.7-13.1-61.2-12.4-82.7-13.6c-2.4-0.1-3.8,0-3.9,0h-0.3h-0.3c-0.1,0-1.5,0-3.9,0    c-13.1,0-58.3,1-89.9,14.1c-10.7,4.4-20.5,9.9-26.6,16.1"
         id="path66" /></g></g><g
     id="g74"><path
       class="st4"
       d="M259,456.5c15.8,23.9,13.3,52.2-6.3,64.5c-19.6,12.3-49.1,4.1-67.6-18.1L259,456.5z"
       id="path72" /></g><g
     id="g78"><path
       class="st4"
       d="M137.1,461.5c-12.3,30.7-8.8,60.9,8.7,68.7c17.5,7.9,42.4-9.5,57.2-39.1L137.1,461.5z"
       id="path76" /></g><g
     id="tie_12_"><path
       id="tie_14_"
       class="st14"
       d="M214.9,515.5c0,0-88.1-49.1-95.1-17.5c-7,31.6-15.1,55.7,8.2,59.7   C151.3,561.7,214.9,515.5,214.9,515.5z" /><path
       id="tie_13_"
       class="st13"
       d="M199.7,508.2c24.8-13.4,73.9-36.4,79.9-13c8.2,31.5,17.1,55.3-6,60.2   c-16.2,3.5-53.2-17.3-73.8-29.9C199.6,510.2,199.9,523.3,199.7,508.2z" /></g><ellipse
     style="fill:#ffffff;fill-opacity:1;stroke-width:1.16329741"
     id="path165"
     cx="153.76248"
     cy="254.68227"
     rx="23.677713"
     ry="23.107164" /><path
     id="pupill_7_"
     class="st7"
     d="m 162.12328,257.51163 c -1.1,4.10001 -5.6,6.4 -10.1,5.2 -3.3,-0.89999 -5.6,-3.5 -6.1,-6.39999 0.4,0.39999 0.9,0.69999 1.5,0.89999 1.8,0.5 3.7,-0.5 4.2,-2.1 0.5,-1.69999 -0.6,-3.5 -2.5,-4 -0.7,-0.19999 -1.5,-0.19999 -2.2,0.1 1.8,-2.7 5.5,-4.1 9.1,-3.1 4.5,1 7.2,5.30001 6.1,9.4 z"
     inkscape:connector-curvature="0"
     style="fill:#333333" /><path
     style="fill:#333333"
     inkscape:connector-curvature="0"
     d="m 262.5396,258.08218 c -1.1,4.1 -5.6,6.4 -10.1,5.2 -3.3,-0.9 -5.6,-3.5 -6.1,-6.4 0.4,0.4 0.9,0.7 1.5,0.9 1.8,0.5 3.7,-0.5 4.2,-2.1 0.5,-1.7 -0.6,-3.5 -2.5,-4 -0.7,-0.2 -1.5,-0.2 -2.2,0.1 1.8,-2.7 5.5,-4.1 9.1,-3.1 4.5,1 7.2,5.3 6.1,9.4 z"
     class="st7"
     id="path4704" /><ellipse
     ry="23.107164"
     rx="23.677713"
     cy="255.25282"
     cx="254.1788"
     id="ellipse4708"
     style="fill:#ffffff;fill-opacity:1;stroke-width:1.16329741" /><path
     id="path4706"
     class="st7"
     d="m 262.5396,257.51163 c -1.1,4.1 -5.6,6.4 -10.1,5.2 -3.3,-0.9 -5.6,-3.5 -6.1,-6.4 0.4,0.4 0.9,0.7 1.5,0.9 1.8,0.5 3.7,-0.5 4.2,-2.1 0.5,-1.7 -0.6,-3.5 -2.5,-4 -0.7,-0.2 -1.5,-0.2 -2.2,0.1 1.8,-2.7 5.5,-4.1 9.1,-3.1 4.5,1 7.2,5.3 6.1,9.4 z"
     inkscape:connector-curvature="0"
     style="fill:#333333" /></svg>