<svg xmlns="http://www.w3.org/2000/svg" xmlns:xlink="http://www.w3.org/1999/xlink" viewBox="0 0 460.9 710"><g fill="#d3410d"><path d="M291.1 193.7s22.2 223.1-23.5 212.7c-27.6-6.3 8.8.1-69.6-41.2-64.6-34-129.8-110.9-146.5-141C41.4 206 43 136.6 100 96.8S227.3 31.5 301.3 71l-10.2 122.7z"/><path d="M275.1 141.6l-54.5 207.7 108.9 56.4s37.7-8.4 36.4-35.4c-1.3-26.9-13.7-18.4 12.9-61.9 26-42.7 17.9-78 13.4-122.4-3.9-38.4-28.3-72.7-30.9-96.9-2.7-24.2-29.6-76.7-86.1-76v128.5z"/></g><path d="M220.5 597.1l213.9-2.9s-4.8-71.7-9.8-104.5c-6.2-40.9-41.2-56.7-61.9-63-20.7-6.2-55.1-8.5-76.8-20.9s-18.3-74.5-18.3-74.5h-93.9s.1 65.9-21.6 78.3-48.9 12.5-73.5 17.1c-22.9 4.3-55.7 22.1-61.9 63-5 32.8-3.9 111.8-3.9 111.8l207.7-4.4z" fill="#f1b080"/><path d="M271.7 381.8c-25.3-4.7-74.1-20.3-97.9-38.1v-12.4h93.9c-.2-.1-1.7 28.3 4 50.5z" fill="#ea9750"/><path d="M86.9 176.1s-20.1-31.2 3-78.3c24.8-50.7 59.9-84.7 128.3-84.7 68.3 0 107.8 34 132.7 84.7 23.1 47.1 3.4 78.3 3.4 78.3 31.1-6.2 25.3 27.8 15.5 43.1-8 12.7-8.2 14.1-13.1 28.1-6.9 20.2-23 6.2-23 6.2-9.3 25.9-15.9 32-53.1 66.3-32.4 29.8-43.7 29.5-60.1 29.5s-27.4.4-60.1-29.5c-37.3-34.1-43.8-40.4-53.1-66.3 0 0-16.1 14-23-6.2-4.9-14-5-15.4-13.1-28.1-9.6-15.3-15.4-49.3 15.7-43.1z" fill="#f1b080"/><g fill="#f6f5f4"><path d="M4.6 623l2.3-1.7-2.1-1.6-.2 3.3z"/><path d="M362.6 426.7c-13.4-4-32.9-4.7-50-10.9-7.5-2.7-29-13.7-29-13.7l-23.7 34.4h-78.7l-23.6-34.4s-21.5 11-29 13.7c-17.2 6.2-36.3 8.6-50 10.9-24.9 4.3-55.7 22.1-61.9 63-4.6 29.2-10.6 112.6-11.8 130.1.7.5 1.4 1 2.1 1.6l58-41.9 9.2 84c72.1 35.2 151.6 54.6 232 43.4 18.5-2.7 36.8-5.7 54.8-9.4-3.2-57.3 1.6-95.1 1.6-95.1l15 91.6c28.5-6.5 56.3-14.6 83.3-25.4l-36.3-178.7c-6.2-41.1-41.2-57-62-63.2z"/></g><path d="M169 87.2s-1.3 22.6-21 42.3c-19.7 19.8-36 28.3-32.3 71.5s19.7 58 6.2 80.2c-13.6 22.2-24 28.4-16.3 48.1 7.7 19.8 5.1 27.2-3.5 40.7-8.5 13.6 0 32.1 0 32.1s-15.9-18.5-11-37-19.8-25.9-18.5-50.6c1.2-24.7 17.3-53 1.2-83.9-10.2-19.6-36.3-73-24.7-112.3 6.6-22.2 17.5-44.2 32.1-61.2 8.2-9.6 28.8-48 87-44l.8 74.1z" fill="#e5511c"/><g fill="#f6f5f4"><path d="M281.7 401c13.2 24.4 8.5 51.3-11.4 61.3-19.9 10.1-47.7-.4-63.7-23.4l75.1-37.9z"/><path d="M162.6 393.2c-15 29.5-14.1 59.9 2.6 69.2 16.7 9.4 43.1-5.7 60.5-33.9l-63.1-35.3z"/></g><path d="M162.6 72.7s-9.3 37.4 43.7 73.2c0 0-7.9-20.1-10.4-39.2 0 0-7 23.2 42.7 34.9 0 0-9.3-3-9.3-15 0 0 77 5.5 90 40.6 13 35.2 17.9 54.5-5.2 79.5s-5.6 47.2.9 77.7c6.4 30.6-2.4 38.6-10.2 50C293.4 391 307 412 307 412s-12.3-17.3 10.9-32.4c9.7-6.3 24.9-15.4 19.3-46.9s.9-57.4 12.9-68.5c12.1-11.1 41.7-29.6 32.4-71.2-9.3-41.7-9.3-50-4.6-68.5 4.6-18.5-27.9-62-42.3-78.5-32.4-37.1-119-62.8-167.5-32.9l-5.5 59.6z" fill="#e5511c"/><path d="M90,424.6l27.6,257.6c8.4,3.2,16.8,6.1,25.3,8.8l-30-270.6L90,424.6z" fill="#4188c5"/><path d="M178.9 280c-2.5-1.4-1 .8-.6 1.3 3.4 3.6 19.8 16.6 43.2 16.2 24.1-.4 34.9-9.9 37.8-13 .4-.4.2-1.1-.4-1.3-4.4-1.1-19.9-4.6-32.8-4.6-6.5 0-13.3 2.9-21.8 4.1-6.8.9-15.6 2.7-25.4-2.7z" fill="#e91818"/><path d="M169 173.2c12.8 0 23.2 10.4 23.2 23.2s-10.4 23.2-23.2 23.2-23.2-10.4-23.2-23.2 10.4-23.2 23.2-23.2z" fill="#fff"/><use xlink:href="#B" fill="#1c4911"/><path d="M274 173.2c12.8 0 23.2 10.4 23.2 23.2s-10.4 23.2-23.2 23.2-23.2-10.4-23.2-23.2 10.4-23.2 23.2-23.2z" fill="#fff"/><use xlink:href="#B" x="105" fill="#1c4911"/><path d="M176.8 53.3s28.6-7.8 44.6-9.1 35.1-2 35.1-2-11.8-4.3-35.8-1.5c-23.9 2.9-43.9 12.6-43.9 12.6zm5.2 16.3s26.3-4.8 57.6 3.4c31.3 8.1 40 33.3 40 33.3s-11.7-17.6-39.9-26.8-57.7-9.9-57.7-9.9z" fill="#d3410d"/><path d="M168.6 144.1c-24.7.5-36.3 6.7-39.6 12.5-4.1 7.3 6.9 4 16.8.1 9.8-3.9 26.3-6.6 36.4-2.6 10 3.9 15.8 6.8 15.8 1.7-2.7-5-14.5-11.7-29.4-11.7zm70.1 11.7c0 5.2 5.8 2.3 15.8-1.7 10.1-4 26.6-1.3 36.4 2.6s20.9 7.2 16.8-.1c-3.3-5.9-14.9-12-39.6-12.5-15 0-26.7 6.7-29.4 11.7z" fill="#e5511c"/><path d="M222.5 406l-2.1-.3c-.5-.1-1-.2-1.3-.4s-.6-.4-.8-.6-.3-.5-.4-.9c-.1-.3-.1-.6 0-.9a3.04 3.04 0 0 1 .5-.7c.2-.2.5-.4.8-.6l.9-.6s.1-.1.3-.2.4-.3.7-.6c.3-.2.6-.5 1-.7l1.1-.8 1-.7.8-.5c.1-.1.2-.1.4-.2h.4c.1 0 .2.1.3.2s.2.2.2.3c.1.1.1.2.2.3 0 .1.1.2.1.3v.1c.1.2 0 .4-.1.6-.1.1-.2.3-.4.4l-6.5 3.9 6.3.7c.1 0 .2 0 .4.1s.3.1.4.2.3.2.4.4c.1.1.2.3.3.5 0 .2 0 .4-.1.6s-.3.3-.6.4-.5.1-.9.1c-.3 0-.7-.1-1-.1-.4-.1-.7-.1-1.1-.2-.4 0-.8-.1-1.2-.1zm8.9 2.8c-.2-.8-.2-1.6-.1-2.5s.4-1.8.7-2.6c.4-.9.9-1.7 1.5-2.4.6-.8 1.4-1.4 2.3-1.9l-1.7-.9c-.5-.3-1-.7-1.5-1.1l-1.1-1.2a3.79 3.79 0 0 1-.6-1.3c-.1-.6-.2-1.2-.2-1.8s.1-1.1.2-1.6.3-1 .5-1.4.5-.8.8-1.2c.3-.3.6-.6 1-.9.4-.2.7-.4 1.1-.5.5-.1 1.1-.1 1.6 0 .6.2 1.1.5 1.6 1s1 1.2 1.5 2.1.8 2 1.1 3.3l.5 2.7.3 2.5c.4.1.8.3 1.2.4s.8.2 1.3.4c.1 0 .2.1.3.1s.3.1.4.1.2.1.3.2l.2.2v.2c0 .1-.1.1-.1.2l-.3.3c-.1.1-.2.1-.4.2-.3.1-.7.1-1.2.1s-1-.1-1.6-.2c0 1.1-.1 2.2-.2 3.2s-.4 1.9-.6 2.7l-.9 2.2-1.1 1.7c-.4.5-.8.8-1.3 1.1a3.79 3.79 0 0 1-1.3.6c-.5.1-.9.1-1.4 0-.4-.1-.9-.3-1.2-.6-.4-.3-.7-.7-1-1.2-.2-.8-.5-1.4-.6-2.2zm2.3 0c.1.6.4 1 .7 1.3s.6.3 1 .2.8-.4 1.2-.8c.4-.5.8-1.1 1.1-1.9s.6-1.8.8-3 .3-2.6.2-4.2l-.4-.1c-.6.3-1.1.6-1.6 1s-.9.9-1.3 1.4-.7 1-1 1.6-.5 1.1-.6 1.7c-.2.5-.2 1.1-.3 1.6.1.4.2.9.2 1.2zm-.6-15.2c.1.5.3.9.6 1.3s.7.8 1.2 1.2 1 .7 1.6 1l2 .9-.4-2.6-.6-2.9c-.2-.7-.3-1.3-.5-1.7-.2-.5-.4-.8-.6-1.1s-.4-.4-.7-.5c-.2-.1-.5-.1-.7 0l-.6.3c-.2.2-.4.4-.5.6-.2.2-.3.5-.4.8l-.3.9c-.1.3-.1.6-.1.9-.1.3-.1.6 0 .9zm24.1-.2v2.1c0 .7.1 1.2.2 1.7.1.4.3.7.5.9s.5.2.9.1c.1 0 .3-.1.5-.3.2-.1.4-.3.6-.6.2-.2.5-.5.7-.9.3-.4.5-.8.8-1.3l.2.2c.1.1.2.3.3.5s.3.5.6.8c-.3.6-.7 1.1-1 1.5-.4.5-.7.9-1.1 1.2s-.7.6-1.1.8-.7.4-1 .4c-.4.1-.7.1-1.1 0-.3-.1-.7-.2-1-.4s-.6-.5-.8-.8c-.2-.4-.4-.8-.5-1.3 0-.2-.1-.4-.1-.7s0-.6-.1-.9V394l-2.2.8c-.7.3-1.4.5-2.1.7 0 .5-.1 1.1-.1 1.6s-.1 1-.2 1.4-.1.9-.1 1.2c0 .4-.1.7-.1 1-.1.7-.3 1.2-.5 1.5s-.4.5-.6.6h-.4c-.1 0-.3-.1-.4-.1-.1-.1-.2-.1-.3-.3-.1-.1-.2-.2-.2-.4v-.3c0-1 .1-1.9.2-2.8l.3-2.6c-.3.1-.6.1-.9.1s-.6 0-.9-.1-.5-.2-.8-.4c-.2-.2-.5-.4-.7-.7 0-.1-.1-.2-.1-.3s-.1-.2-.1-.2c-.1-.3 0-.4.2-.5.1 0 .2 0 .4.1s.4.2.7.5c.3-.1.5-.2.8-.2.3-.1.6-.1.9-.2l.8-.2.2-1.7.2-1.6v-1c0-.3-.1-.6-.1-.9-.1-.2-.1-.4-.2-.6s-.2-.3-.3-.4a.76.76 0 0 0-.4-.2h-.6c-.2 0-.4.1-.6.2a3.04 3.04 0 0 0-.7.5c-.3.2-.5.4-.8.7s-.6.6-.9 1c-.1.1-.2.3-.3.3-.1.1-.2.1-.3.1l-.2-.2c-.1-.1-.1-.3-.2-.6s-.1-.6 0-.9.2-.6.4-.9.4-.6.7-.8c.3-.3.6-.5.9-.7s.6-.4.9-.5.6-.3.9-.3c.4-.1.8-.1 1.2-.1s.8.1 1.1.3.6.4.9.8.5.8.6 1.4c.1.3.1.6.1 1v2.8c0 .5-.1 1.1-.1 1.7l2-.6 2.2-.7.3-3.3.4-3.4c.1-.4.2-.7.3-.9.2-.3.4-.4.7-.5h.4c.1 0 .2 0 .3.1s.2.1.3.2.1.2.2.4c0 .1.1.3.1.5v.6c0 .4-.1.8-.2 1.3-.1.4-.1.9-.2 1.4s-.1 1-.1 1.5-.1 1-.1 1.5l1-.3c.3-.1.5-.2.6-.2s.1 0 .2-.1h.2c.2 0 .3-.1.4 0 .1 0 .2 0 .3.1.1 0 .1.1.2.2 0 .1.1.2.1.3v.3c0 .1-.1.2-.2.2l-.2.2c-.1 0-.2.1-.2.1-.2.1-.3.1-.3.1-.1 0-.1 0-.1.1h-.2s-.1 0-.2.1c-.1 0-.2.1-.4.1-.2.1-.4.1-.6.2-.3.1-.5.2-.7.3zm13.2 1.1l-1 .6c-.3.2-.6.4-.9.7l-.9.6c-.3.2-.6.3-.8.3-.3.1-.5.1-.7 0a.78.78 0 0 1-.4-.4c0-.2-.1-.4 0-.5 0-.2.1-.3.1-.5.1-.1.1-.3.2-.4s.1-.2.2-.2l5.5-3.6-6.8-.3c-.2 0-.4-.1-.6-.1-.1-.1-.3-.2-.3-.5v-.7c0-.1 0-.2.1-.4 0-.1.1-.2.2-.3s.2-.2.4-.2h.4c.2 0 .5 0 .8.1.3 0 .7.1 1.1.1.4.1.8.1 1.2.2s.7.1 1.1.2c.3 0 .6.1.8.1s.3 0 .3.1c.4.1.7.1 1.1.1.3 0 .6.1.9.2s.5.2.7.3c.2.2.3.4.4.7.1.4.1.7.1 1s-.2.6-.4.9-.6.6-1 1c-.6.1-1.1.5-1.8.9z" fill="#333"/><path d="M235.7 454.3s-88.1-49.1-95.1-17.5-15.1 55.7 8.2 59.7c23.4 4 86.9-42.2 86.9-42.2z" fill="#3373a9"/><path d="M220.5 446.9c24.8-13.4 73.9-36.4 79.9-13 8.2 31.5 17.1 55.3-6 60.2-16.2 3.5-53.2-17.3-73.8-29.9-.2-15.3.2-2.2-.1-17.3z" fill="#4188c5"/><g fill="#d3410d"><path d="M313.7 576.7l.2.2-.2-.2zm21.4-94.1c-.6.2-1.3.5-2 .8.7-.2 1.4-.5 2-.8z"/><path d="M274.3 391.8c2.5 2.8 2.9 5.4 2.2 9.2-2.2 13-1.5 26 8 36.1 4.3 4.6 5 8.3 3.3 13.8-2.9 9.5-1.7 18.8 5.1 26.4 2.8 3.2 3 5.9 2.1 9.8-2.8 11.4-1.3 21.9 8.6 29.7 2.1 1.7 1.7 3.4 1.4 5.5-.9 6.4-1.8 13.2 1.6 18.8 4.3 7 4.9 13.5.8 20.5 1.7 3.6 4.8 5.8 7.8 8.2 2.8 1.4 5.3 3.3 8 4.8.6.3.1.8-.4.3-.6-.6-.6.9-.7 0-3.1.2-5.7-2.8-9-1.4-.4 1.5-.1 2.5.5 3.2l.2.2c.9.9 2.2 1.4 3.3 2.1-1.4-.4-2.4-1.1-3.3-2.1l-.2-.2c-.6-.6-1.1-1.4-1.6-2.1-1.9-3-.3-8.3-5.8-8.9-.7 6-.1 11.6 3.9 16.5 1.8 3.8-.3 8.6 3 12.1 2.5 2.4 6.2 3.1 8.5 5.7.7.6 1.6 1.1 1.3 2-.3 1.1-1.3.8-2.2.5-1.9-.6-3.1-2.4-5-3-.7-.1-1.3.1-1.8.4-.2.6-.2 1.3 0 1.9 1.8 4.1 5 7.7 1.2 12.8-1.8 2.5-.1 5.7 2.1 8 1.3 1.3 2.5 2.2 1 4.5-8.2 12.2-5.1 23.8 2.2 35.1 3.3 5.2 7.3 10 9 16.1.9 1.5 2.7 1.8 3.7 3.1l.5 11.2c3.6-1.6 2.5-5.7 5.1-7.8.2 2.7.3 5 .5 8.8 6.4-7.1 8-14.1 5.6-21.2-3.4-9.8-4-19.3-2.3-29.5 1.1-6.5.2-14.9-4.1-18.8-3.7-3.5-3.1-5.3-2.2-8.5.3-.5.4-1.1.2-1.7-2.9-1.2-4.5 2.3-7.2 1.9-3.2-.6-.9-2-.4-3.1 3.1-2.6 3.3-7.4 7-9.6 1.3-.9 1-2.1.5-3.4.3-5.1 4.3-9.3 3.8-14.6-5.6-3.1-1.9-7.3-1.3-11.1-3.7-6.3.8-11.9 1.5-17.8.6-1.3-.1-1.7-1.2-1.8-1.5.6-1.4 2.8-2.8 3.3 1.2-1.7 2.6-3.4 1.4-5.8-.6-.3-1.2-.4-1.8-.3-4 1.9-6.1 6.3-10.4 8.1 4.3-6 8-12.3 12.7-17.9.8-.6 1.6-1.1.8-2.2l-2.6-8.1c-.5-.4-1.1-.6-1.7-.6-2.3.8-4.8 1-7.7 2.1 2.2-1 4-1.1 5.6-1.7 3.5-1.2 5.9-3.8 8.6-6-.8-4.3-.9-4.3-4.6-2.8-3.2 1.3-5.9 4-11.5 3.5 6.1-4.9 11.7-7.8 15.9-12.9 2 3.9-2 8.3 3.1 10.1 2.6-9.5 2.7-18.7-2.6-27.4-1-.9-.3-2.6-1.6-3.4-2.9-1.6-5.1.7-7.7 1.3-.4.1-.5.3-.5.3.4.8-.6-.1.3-.4 2.7-1.1 5.4-2.2 8.4-2.2 2.7-.9 4.4-3 5.9-5.2.7-3.8-.4-5.7-4.3-3.4-4 2.4-7.8 5.3-11.7 6.4.9-.5 2.5-1.1 4.1-1.8s4-1.7 2.6-3.8c-.6-.9-1.4-1-2.2-.7-.6.3-1.3.6-2 .8-.3.1-.6.2-.9.2.3-.1.6-.1.9-.2.7-.2 1.3-.6 2-.8 4.6-2.2 7.6-6.9 12.4-8.9 1.5.6 1.5 3.2 3.8 2.6 1.4-7.8-.4-15-4-21.9.5-1.3-.3-1.8-1.3-2.1-2.4-.1-4.2 1.6-6.2 2.6l-.9.3c-.2.1-.5.2-.7.3-.3 0-.7.1-1 .1-2.4.7-4.8 1.5-6.8 2.2-1.2.5-2.2.9-3.2 1.1 1-.3 2.1-.7 3.2-1.1 2-.8 4.3-1.8 6.8-2.2.6-.2 1.1-.3 1.7-.5 2.8-1.4 5.5-3 7.6-5.3 2.8-3 8.5-7.7 6.7-12.9-3-.8-6.1 3.9-8 5.2-7.2 4.9-14.6 9.4-22.3 10.9 4.9-2.3 12.4-1.9 15-9.7-5.5-2.2-8.8 2.8-12.8 3.7 5.4-3.5 11.6-6.6 17.4-10.4 5.1-2.6 5.8-9.3 11-11.9.8-.5 1.5-1.1.8-2.2.1-2.2-.9-4.4 1.2-6.4 11.5-11.1 13.7-25.2 13.9-40.3.1-6.9-2.7-10.8-8.6-13.2-9.2-3.8-18.3-2.9-27.5.3-5.5 1.9-9.8 8-14.8 7.7-5.4-.3-10.4-5.4-15.8-7.6-9.3-3.8-19-5.6-28.8-2-8.3 3-10.7 8.4-7.9 16.8 2.2 4.8 4.9 9.6 8.6 13.7z"/><path d="M338.2 455.5c.2-.1.5-.2.7-.3l-1.7.5c.4-.1.7-.2 1-.2zm-7.8 2.3l-3.2 1.1c1-.2 2-.6 3.2-1.1z"/></g><g fill="#e5511c"><path d="M340.4 524.5c1.2-2.5.1-2.7-1.8-1.7-3.4 1.8-6.7 3.8-10.2 5.5-1.4.7-3.4.9-4.2-.9-.7-1.6-.7-3.4 1.4-4.6 5.6-3.4 11.7-6.2 15.1-12.4.2-.4 1.5-.8 1.7-.6 1.2 1.1 1.8 2.6 1.9 4.2.2 3-2.7 6 0 9-.3 2.3-1.1 4.3-3.8 4.6-1-1.1-.8-2.1-.1-3.1zm-28.8 50.8c.6-.2.8-.7.8-1.3 3.8-.4 6.2 4 10.3 2.7 1-2.4-1-3-2.4-3.9-1.9-1.1-3.9-1.9-4.5-4.4-3.2-1.8-4-6.5-8.3-6.9-1.4 1.1-1.5 2.5-1.2 4 3.8 2.2 1.7 7.5 5.3 9.8z"/><path d="M340.4 490.1l6-4.4c1-4.5-1.2-9.6 2.5-13.6.8 1.4 1.6 2.8 2.5 4.2.4 5.7-2.6 9.9-6 13.9-1.4 1.7-3.8 2.6-3.6 5.4-1.3-.6-1.3-1.9-1.4-3.1-.8-.8-.8-1.6 0-2.4zm-11.3 96.6c2.6-1.6 6.8-2.4 8.1-2.5 1-.1 2.1.5 3.2.8.7-3.8.6-7.6-1.3-11.1-1.4 2-2.7 4.2-4.2 6.1-1 1.2-8.7 8.4-5.8 6.7zm11.4-30.6l-1.2-1.3c-1.4-.5-.6-2.1-1.4-2.9-.5 0-.9.1-1.4.1-.9-3.9.7-7.6 1.3-11.3.4-.5.9-.9 1.3-1.4 2.6 5.5 3.8 11 1.4 16.8zM314 601.8l.3-1.7c2-2-.3-4.1.1-6.1-3.1-3.3-1.9-8.2-4.3-11.8.2 6.7-.9 13.8 3.9 19.6zm38.8-177.7l1.5-1.6c2.6 5.4 3 11 1 16.7-.6.4-1.2.4-1.7-.1-.9-1-1.4-2.2-1.5-3.6.7-3.7-.5-7.7.7-11.4z"/><path d="M354.1 439.2h1.2c-1.4 5.7-3.4 11.1-7.9 15.2l-1.5-1.5c1.5-5.3 4.9-9.5 8.2-13.7zm-13.7 85.3l.1 3.1c-.8 1.8-1.9 3.3-4 3.8h-1.6c-1.5.9-2.7 1.1-2.6-1.3l8.1-5.6zm-3.9 90.9c2.7-5.3 2.7-10.5 0-15.8l-1.2 3c-1.5 4-1.6 7.8 1 11.4.1.5.1.9.2 1.4zm-3.2 66c.6-3.2-1.9-2.7-3.7-3.1-.1 2.1-.7 4.2.4 6.2 1.9-.3 2.2-2.2 3.3-3.1zm-32.6-254.7c6.1 4.4 13.2 6.9 19.6 10.7-14.5-2.4-27.3-8.2-37.6-19-3.5-4.5-4.7-9.5-3-14.9 1.1-5.6.3-4.9 2.5-1.7 3.1 4.5 7.4 8.8 10.2 12.6 2 1.4-4.4 3.4.3 4.7 2.6 2.6 6.3 4 8 7.6zm28.6 210.4c-1.8 1.1-.2 3.4-2.1 3.8l-1.4-8.8c-.2-.9.2-2.7-1.4-2.6-1.6.2-1.6 2-1.9 3.2-.8.8-1 1.8-1.2 2.9 0-1.2-.4-2.2-1.2-3.1-7.8 12.1 0 20.7 6.8 30.9.2-9.4 3.4-17.5 2.4-26.3zm23.5-213c1.8 4.5 2.7 8.9-1 12.9-.1.3-.2.5-.3.8-7.7 10.1-18.7 13.7-30.3 16.4 5.1-4.4 12.5-5.2 16.7-10.9.2-1.4 1.1-2.6 2.3-3.1 2.5-1.1 4-2.3 1.6-4.9 3.1-2.9 5.7-6.1 7.8-9.9.8-1.4 1.2-3.2 3.2-1.3zm-4.1-38.8c2.9-2.5 5.3-5.3 7.5-8.5 1-1.4 4.2-5.7 4.7-8.2 1.7-8.6 1.3 7.5 1.4 9.7.1 1.9.9 3.8-.3 5.6-1.2 2.2-1.7 4.9-4.5 5.8-6.9 8-19.1 14.2-29.1 14.3l13-7.1c1.7-3.7 5.5-5.2 8.2-7.8 2.2-1.8-2.6-2.1-.9-3.8z"/><path d="M348.9 472.2c-.2 4.2-.2 8.5-2 12.4-.2.4-.8.4-.9-.1-.2-1.4-.2-3.1-2.9-.7-4.2 3.7-9.4 5.4-15.6 7.4-.5.2-.9-.5-.5-.8 3-2.3 6.2-3.2 9-5.7.4-.4 0-1-.5-.8l-7 3c-.4.2-.8-.3-.6-.7 1.4-2.6 3.7-3.3 5.6-4.4 4.6-2.6 10.1-4.9 11.8-10.1 1.9-5.7 1.4-4.9 3.5.3.1.1.1.2.1.2zm-56.5-9.7c-.2-.1-.5-.2-.5-.4-1-4.2-4.8-9.6-.4-12.2 2.1-1.2 5.8 5.6 9.1 8.4 1.3 4.8 8 4.5 9.1 9.6 2.2 2.9 6.3 2.5 10.1 6.2-9.9-2.6-17.6-5.5-24.2-11.1-.7-.6-1.9-4.8-3.4-.4l.2-.1zm.1-42.5c-2.7-.2-4.4-1.6-5.3-4.4 1.9-.3 4.4 2.3 5.2-1.2 10.3 5.9 21.1 11 31.2 18.7-8.2-1.2-14.6-5.3-21.5-7.8-3.8-.7-6.7-3-9.6-5.3zm24.8 91.8l5 2.9c-9.4-.2-14.5-5.9-20.8-8.4-1.1.4-1.6-.3-2.1-1.1-2.1-4.2-3.9-8.5-.9-13.6l9 9.6c.5 1.2.1 2.7 1.3 3.6 2.6 2.5 6.4 3.8 8.5 7zm20.5 29c2.5 4.1.2 7.7-1.3 11.3-2.3 3.7-5.7 6.5-9.1 9.3-.7.6-1.6 1.7-2.8.8 1.6-1.7-2.2-2.1-.8-3.9 4.5-5.9 9.6-11.3 12.4-18.4.5.2 1.1.5 1.6.9zm-27.7-1.2c-2.6-3.6-3.9-9.1-2.1-13.6 11.6 20 17.5 17.6 19.9 20-6.8-.6-11.2-4.6-16.6-6.4-.4.6-.7.6-1.2 0zm-30.1-136c-.8 5.3.9 10.1 2.7 14.9 3.5 9.4 10.3 15.5 19.2 19.6.6 1.4-.1 2.1-1.3 2.6-14.7-4.6-25.4-24-20.6-37.1zm61.9 31.6c1.1 2.9 3 1.6 5.9-.4-2.3 5.7-7 5.9-9.8 8.4-5.6.7-9.9 5.3-16.4 5.6 6.1-6.3 13.4-9.7 20.3-13.6z"/><path d="M348.7 385.3l1.6 1.3c1.2.8 3.3-1.4 3.6.5.3 2-1.8 2.5-3.6 2.6-3.3 2.2-6.4 4.9-10.5 5.8-4.9 1.8-9.5 4.6-15.9 5.5 8.7-6.2 16.4-11.5 24.8-15.7zm8 3.4c1.1-2 1.6-4.5 4.2-5.5-.1 10.1-4.4 17.6-13.7 22.1-1.6.2-3.7 2-4.1-1.4 5.8-2.7 10.7-6.5 13.9-12.2.7-1.1 1.8-2.2-.3-3zm-27.2 227.7c3.6 2.9 4.2-2.4 6.8-2.4-.3-3.8.6-7.7-1-11.4-4.3 1.9-4.9 6.9-8.1 9.8a5.9 5.9 0 0 1 2.3 4zm6.6 46.9c-.7-5.3 2.6-10.4.9-16.9-6.4 7.2-5.5 14.1-2.3 21.2 1.8-1 .3-3.1 1.4-4.3zm15.5-225.6c0-.3.1-.6.3-.8 1.9-.4 2 1 2.3 2.2-2.5 4.7-4.4 9.8-8.2 13.7l-5.3 3c-1.5.4-3.1 1.1-2.9-1.6 6.1-4.1 12.9-7.8 13.8-16.5zm-41.8 30.2c-2.7-3.5-9.8-2.8-9.1-9.5 5 2.5 10.2 4.5 14.8 8.6-1.9 1.9-4.1.3-5.7.9zm-2.7 37.2c-4.8-1.7.2-2.6.3-3.9 5.6 2.7 11.3 5.4 16.2 9.8-2 1.7-3.4-.6-5-.4-4.4-.8-7.7-3.7-11.5-5.5zm-7.8.1l2.1 1.1c2.3 5.6 8.1 7.7 12.4 11.6-6.4.5-11.9-4.5-14.5-12.7zm19.7 98.6c2.2 1.4 5.1 2.4 6.7-.2 1.7-2.7-1.5-3.6-3.2-4.9-1.7.9-3-.6-4.5-.7-1.6-.1-3.4 0-2.4 2.5 1.1 1.1 2.1 2.4 3.4 3.3zm-26.5-141.6c5.8 6.5 7.8 9.2 13.6 11.4.1 2.6-1.2 2.2-2.8 1.4-5.4-2.6-9.9-6.9-11.4-12.9-.1-3.3.6.1.6.1zM318 573.5c1.8.8 3.8 1 4.6 3.2l5.3-.4c-3.7-3.9-8.2-5.6-12.2-7.9-1.6 2.8.2 4.2 2.3 5.1zm-36.9-201.4c-3.2-5-2.7-28.7-2.3-27.2 1.7 5.3 3.7 9.3 4.2 10.3 2.7 4.6 6.7 8 10.6 11.4.7 1.1 0 2.1-.3 3.1.5 2.9 2 2.3 4.6 6.3 7.3 5.4 15.9 8.3 23.6 12.9-13.1-2.5-25.3-7.1-35.6-15.8-.9-.8-1.5-3.4-3.5-1.1-.4.7-.8.7-1.3.1z"/><path d="M292.3 369.6l1.3-3.1c9.4 4.4 18.4 9.6 27.8 16.6-9.4-1.3-16.2-5.9-23.6-8.9-2.1-1.2-5.1-1.3-5.5-4.6zm-11.2 2.5c.4 0 .8-.1 1.2-.1 4.7 7 10.7 12.6 18.2 16.7 1.1 1.6 1.1 2.6-1.3 2.5-9.1-3.4-15.1-9.9-18.1-19.1z"/><path d="M299.2 391.2c1-.5 1.3-1.4 1.3-2.5 5.4 1.2 10.5 3.4 15.3 6.5l-16.6-4zm15.1 208.9c.5.1.9.2 1.3.5.5-1.7 1.6-2 2.9-.9 1.8 1.5 3.1 1.4 4-.9-2.3-2.2-5.2-3.5-8.1-4.7-2.6 1.9.4 4-.1 6zM343.1 404c1 1.6 2.6 1.1 4.1 1.3l-14.8 4.2-.6-1.5 11.3-4zm-5.4 50.3c.6 1.3 1.8 1.3 2.9 1.6l-15.2 4.2c3.8-3 7.9-4.8 12.3-5.8zm5.1 220.3c-1.8-4.1-6-6.6-6.7-11.3-1.6 1.1-1.1 2.8-1.4 4.3 1.3 4 5.2 4.8 8.1 7zm-13.3-58.2c1.6-1.2 1.7-2.8.7-4.1-.3-.5-2 0-3 .1-1.2 1.2-3.3 2.3-1.9 4.4 1.3 2 2.8-.1 4.2-.4zm-7.1 25.5v-9.1c-.8 0-1.5-1.5-2.5-.2.3 3.1-.9 6.5 2.5 9.3zm18-151.8v2.4l-11.1 2.5c3.3-2.6 6.8-4.7 11.1-4.9zM303.3 475c1.1-.1 2.3-.1 2.8-1.4 3 .7 6.1 1.3 9.3 4-4.8-.2-8.5-.9-12.1-2.6zm3.8 30.1c4.3.8 8 2.9 11.5 5.4l-1.2 1.2c-4.1-1.3-7.4-3.6-10.3-6.6zm-6.5-64.4l1.3-2.6 8.1 2.9c.3 1.2.1 1.8-1.3 1.3l-8.1-1.6zm37.3 111.2l1.4 2.9c-1.1 2.9-2.6 5.5-7.1 7.1 2.4-4 5.4-6.3 5.7-10z"/><path d="M321.8 580.8c-4.2-2.6-7.2-4.2-9.4-6.8-.3.4-.5.9-.8 1.3 2 3.1 4.4 5.5 10.2 5.5zM292.5 420c3.6 1 6.5 3.3 9.6 5.4-.5.4-.9.9-1.4 1.3-3-1.9-6.6-3.2-8.2-6.7zm17.6 119.6c.4 0 .8 0 1.2-.1l5.7 7.1c-3.4-1.1-6-3.1-6.9-7zm-1.5-97.4l1.3-1.3 9.1 3.2c-5 .9-7.7-.3-10.4-1.9zm23.8 87.8c.5 1.3 1.6 1.1 2.6 1.3-2.8 2.2-6.5 1.2-10.8 3.6 2.7-3.9 5.8-3.7 8.2-4.9zm-43.1-147.9l5.5 4.6c0 .6.1 1.1.1 1.7-2.4-1.7-5.1-3-7-5.1-1.5-1.6.5-1.2 1.4-1.2zm95.9-139.6s-6.7 28.9-13.1 43.6c-6.5 14.7-14.9 31.9-14.9 31.9s9.4-8.4 18.3-30.8c8.8-22.5 9.7-44.7 9.7-44.7z"/></g><path d="M66.4 585.5C46.9 494 14 500.4 14 500.4S9 554.1 0 616.1c18.9 14.1 37.7 28.5 59.2 39.7 2.2 1.2 4.4 2.3 6.6 3.4l5.2-71.3s-6.4 5-4.6-2.4z" fill="#f6f5f4"/><defs ><path id="B" d="M178.2 196.2c0 5.4-4.4 9.9-9.9 9.9-4 0-7.5-2.4-9-5.9.6.4 1.3.6 2 .6 2.3 0 4.1-1.8 4.1-4.1s-1.8-4.1-4.1-4.1c-.9 0-1.8.3-2.4.8 1.2-4 5-7 9.4-7 5.5 0 9.9 4.4 9.9 9.8z"/></defs></svg>