<svg id="Calque_1" data-name="Calque 1" xmlns="http://www.w3.org/2000/svg" viewBox="0 0 708.66 1133.86"><path d="M297.41,140.46c13.21-27.09,3.49-59.65-21.6-68.93-1-.37-2-.71-3.06-1-37.85-11.52-62.35-1.44-88.39,35s-27,97.69-43.64,129.52-14.26,35.2-35.58,42.86c0,0,10.82,42.1,72.85,17.8C227,276.44,278.13,180,297.41,140.46Z" style="fill:#f4b846"/><path d="M281.11,140.07a49.65,49.65,0,0,0,3.17-34.61,29.76,29.76,0,0,0-20.85-21.38c-28.68-8.24-48.21,2.09-70.34,36s-26.17,88.74-40.8,118.09-12.95,32.2-29.86,40.2c0,0,6.08,37,55.41,12C218.82,269.51,266.23,172.38,281.11,140.07Z" style="fill:#f7cd7b"/><g id="g10"><path id="path8" d="M544.83,558.28c-5.5-36.5-43.2-50.6-61.7-56.1s-49.1-7.6-68.5-18.6-16.3-66.4-16.3-66.4h-83.7s3.1,55.4-16.3,66.4-50,13.1-68.5,18.6-49.6,19.7-55.2,56.1C170.23,587.48,157,672,157,672h398.8C555.93,672.08,549.33,587.48,544.83,558.28Z" style="fill:#f2c2a0"/></g><g id="g14"><path id="path12" d="M311.13,462.18h0c22.5-4.2,66-18.1,87.2-33.9v-6.6a6.15,6.15,0,0,1,.1-1.3v-3.2h-83.7C314.73,417.08,316.13,442.38,311.13,462.18Z" style="fill:#e2b698"/></g><path id="sleeve" d="M166.53,530.08s-6.4,249-25.4,299.8,71.8,9.2,71.8,9.2l17-36.3s7.9-45.5,7.8-58.4S166.53,530.08,166.53,530.08Z" style="fill:#d31616"/><path id="sleeve-2" data-name="sleeve" d="M550.43,546.48s6.4,208.8,25.4,259.6-81.9,25.4-81.9,25.4l-18.1-42s3.3-15.9,3.3-28.7C479.33,748,550.43,546.48,550.43,546.48Z" style="fill:#d31616"/><g id="g24"><path id="path22" d="M162.13,586.18c-1.5-34.3-3.9-66.7,31.7-73.2,13.4-2.4,56.6-11.1,56.6-11.1l41-15.2s3.3,64,62.7,64,60.6-67.1,60.6-67.1l58.1,22.8c29,2.3,29.2,4.1,42.5,6.6,32.7,6,37.9,29.2,36.9,62.6-.5,15.3-40.9,134.5-52,225.6-14.3,116.5,17.6,180.3,1.5,197-21,21.7-145.4,20.6-145.4,20.6s-136.4-3.6-153.1-23.6c-17.1-20.6,13.6-122.8-2-225C189.63,694.28,163.53,618.38,162.13,586.18Z" style="fill:#f7f6f5"/></g><path id="sleeve-3" data-name="sleeve" d="M413.33,481.68l16.3,5.1c44,11.9,60.7,14.4,92,19.3,17.5-2.2,40.9,21.1,30.6,42.9s-41.6,218.7-41.6,254.5,1.1,183.8,2.5,196.6-91.6,32.4-104.7,18.7c-7.1-7.4,13.5-91.5,34.2-190.2,17.5-83,8.7-188.6,4.8-211.3-8.7-49.6-41.2-86.6-41.2-86.6" style="fill:#3d4251"/><path id="sleeve-4" data-name="sleeve" d="M554.23,539s21.2,250.4,39.5,298.8c20.62,62.32-78,38.87-78,38.87l-16.56-96.77s-5.3-42.4-5.3-54.7C493.73,713.08,554.23,539,554.23,539Z" style="fill:#363a47"/><path id="sleeve-5" data-name="sleeve" d="M291.43,486.68s-5.2,2.5-7.3,2.7c-44,11.9-55.75,11.17-90,21.7-19.84,4.1-39.9,23.1-29.6,44.9s41.6,218.7,41.6,254.5-8.9,168.7-10.4,181.5,90.2,38.3,103.3,24.7c7.1-7.4,2.1-94-18.7-192.7-17.5-83-15.1-177-11.1-199.7,8.7-49.6,41.2-86.6,41.2-86.6" style="fill:#3d4251"/><path id="sleeve-6" data-name="sleeve" d="M161.74,544.58s-32.61,202.2-39.61,285.1c-2.3,41.2,95.7,21.2,95.7,21.2l-2.7-54.3s14.7-33.9,14.7-46.2S161.74,544.58,161.74,544.58Z" style="fill:#363a47"/><g id="g66"><path id="path64" d="M413.33,481.68c15.8,23.9,13.3,52.2-6.3,64.5s-49.1,4.1-67.6-18.1Z" style="fill:#f1f1f1"/></g><g id="g70"><path id="path68" d="M291.43,486.58c-12.3,30.7-8.8,60.9,8.7,68.7S340,548,354.78,518.44Z" style="fill:#f1f1f1"/></g><g id="tie"><path id="tie-2" data-name="tie" d="M369.23,540.68s-88.1-49.1-95.1-17.5-15.1,55.7,8.2,59.7S369.23,540.68,369.23,540.68Z" style="fill:#3373aa"/><path id="tie-3" data-name="tie" d="M354,533.28c24.8-13.4,73.9-36.4,79.9-13,8.2,31.5,17.1,55.3-6,60.2-16.2,3.5-53.2-17.3-73.8-29.9C353.83,535.28,354.23,548.38,354,533.28Z" style="fill:#4189c6"/></g><path d="M429.09,652q11.25,70.05,22.7,139.4a328.17,328.17,0,0,0,57.8,0q11.4-69.3,22.7-139.4A330.74,330.74,0,0,1,429.09,652Z" style="fill:#fff"/><path d="M517.09,748.64q5.55-33.9,11-67.9a301.44,301.44,0,0,1-94.8,0c3.7,22.7,7.3,45.4,11,67.9A295.56,295.56,0,0,0,517.09,748.64Z" style="fill:#ccc"/><path d="M540.89,648.24c0-3.7-27.1-6.7-60.4-6.7s-60.4,3-60.4,6.7V655c0,3.7,27.1,6.7,60.4,6.7s60.4-3,60.4-6.7Z" style="fill:#ccc"/><ellipse cx="480.49" cy="648.24" rx="60.4" ry="6.7" style="fill:#e6e6e6"/><path d="M531.59,637c-.1-3.1-23-5.7-51.2-5.7s-51.1,2.5-51.2,5.7c0,1.7-1.2,8.7-1.2,10.4,0,3.2,23.4,5.8,52.3,5.8s52.3-2.6,52.3-5.8C532.79,645.64,531.69,638.74,531.59,637Z" style="fill:#ccc"/><path d="M531.59,637c.1,3.1-22.8,5.7-51.2,5.7s-51.2-2.6-51.2-5.7,23-5.7,51.2-5.7S531.49,633.84,531.59,637Z" style="fill:#e6e6e6"/><path d="M522.89,628.64c-.5-2.1-19.5-3.8-42.4-3.8s-41.9,1.7-42.4,3.8c-.3,1.2-4.2,6.5-4.2,7.8,0,2.3,20.8,4.2,46.6,4.2s46.6-1.9,46.6-4.2C527,635.14,523.19,629.74,522.89,628.64Z" style="fill:#ccc"/><path d="M522.89,628.64c.5,2.2-18.4,4-42.4,4s-42.9-1.8-42.4-4,19.5-3.8,42.4-3.8S522.29,626.44,522.89,628.64Z" style="fill:#e6e6e6"/><ellipse cx="511.69" cy="628.34" rx="6.8" ry="1" style="fill:#666"/><path id="sleeve-7" data-name="sleeve" d="M580.23,792.08s-176.3-27.6-228.3-54.7c-66.8-6.7-22.1,54.2-22.1,54.2l149,51.6s67.8,33.9,81.5,35.1S580.23,792.08,580.23,792.08Z" style="fill:#eabea0"/><path id="hand" d="M342,791.88s-61.6,12.8-74.9,5.1-35.9-20.1-35.3-35.1,21.6-58.5,40.6-58.3,86,39.7,86,39.7Z" style="fill:#eabea0"/><path id="handle" d="M561.93,888.88s21.8-31.8,25.7-44,3.3-50.8,3.3-50.8l-66.8-15.2s-24.6,38.4-27.1,49.6.6,43.4.6,43.4Z" style="fill:#f7f6f5"/><path id="sleeve-8" data-name="sleeve" d="M216.13,750.18s181.5-16.3,234.3-41.9c66.9-4.8,20.6,54.8,20.6,54.8l-150.5,47.4s-85.4,26.6-99.1,27.5S216.13,750.18,216.13,750.18Z" style="fill:#f2c2a0"/><path id="hand-2" data-name="hand" d="M434.63,769.68s61.4,17.7,74.6,10.4,35.6-18.9,34.8-34.8-21.9-63.2-40.7-64.3-84.7,38.3-84.7,38.3Z" style="fill:#f2c2a0"/><path id="handle-2" data-name="handle" d="M187.63,757.88s-1.7,38.5,1.4,51,24,44.9,24,44.9l64.8-22.3s.6-45.5-3.1-56.4-23.4-36.6-23.4-36.6Z" style="fill:#f7f6f5"/><path d="M349.56,695.35a5.67,5.67,0,1,0,5.67-5.67A5.66,5.66,0,0,0,349.56,695.35Z" style="fill:#ccc"/><path d="M349.56,617.32a5.67,5.67,0,1,0,5.67-5.67A5.66,5.66,0,0,0,349.56,617.32Z" style="fill:#ccc"/><path d="M349.56,929.44a5.67,5.67,0,1,0,5.67-5.67A5.65,5.65,0,0,0,349.56,929.44Z" style="fill:#ccc"/><path d="M349.56,851.41a5.67,5.67,0,1,0,5.67-5.67A5.65,5.65,0,0,0,349.56,851.41Z" style="fill:#ccc"/><path d="M223,262.63s-20.1-31.2,3-78.3c24.8-50.7,59.9-84.7,128.3-84.7s107.8,34,132.7,84.7c23.1,47.1,3.4,78.3,3.4,78.3,31.1-6.2,25.3,27.8,15.5,43.1-8,12.7-8.2,14.1-13.1,28.1-6.9,20.2-23,6.2-23,6.2-9.3,25.9-15.9,32-53.1,66.3-32.4,29.8-43.7,29.5-60.1,29.5s-27.4.4-60.1-29.5c-37.3-34.1-43.8-40.4-53.1-66.3,0,0-16.1,14-23-6.2-4.9-14-5-15.4-13.1-28.1C197.71,290.33,191.91,256.43,223,262.63Z" style="fill:#f2c2a0"/><path id="eye" d="M305.11,259.73a23.2,23.2,0,1,1-23.2,23.2A23.22,23.22,0,0,1,305.11,259.73Z" style="fill:#fff"/><path id="pupill" d="M314.41,282.73a9.92,9.92,0,0,1-9.9,9.9,9.79,9.79,0,0,1-9-5.9,3.61,3.61,0,0,0,2,.6,4.1,4.1,0,0,0,0-8.2,3.85,3.85,0,0,0-2.4.8,9.9,9.9,0,0,1,9.4-7A9.71,9.71,0,0,1,314.41,282.73Z" style="fill:#306b8c"/><path id="eye-2" data-name="eye" d="M410.11,259.73a23.2,23.2,0,1,1-23.2,23.2A23.22,23.22,0,0,1,410.11,259.73Z" style="fill:#fff"/><path id="pupill-2" data-name="pupill" d="M419.41,282.73a9.92,9.92,0,0,1-9.9,9.9,9.79,9.79,0,0,1-9-5.9,3.61,3.61,0,0,0,2,.6,4.1,4.1,0,0,0,0-8.2,3.85,3.85,0,0,0-2.4.8,9.9,9.9,0,0,1,9.4-7A9.71,9.71,0,0,1,419.41,282.73Z" style="fill:#306b8c"/><path id="eyebrows" d="M304.71,230.63c-24.7.5-36.3,6.7-39.6,12.5-4.1,7.3,6.9,4,16.8.1s26.3-6.6,36.4-2.6,15.8,6.8,15.8,1.7C331.41,237.23,319.71,230.63,304.71,230.63Z" style="fill:#dd9b31"/><path id="eyebrows-2" data-name="eyebrows" d="M374.81,242.33c0,5.2,5.8,2.3,15.8-1.7s26.6-1.3,36.4,2.6,20.9,7.2,16.8-.1c-3.3-5.9-14.9-12-39.6-12.5C389.31,230.63,377.51,237.23,374.81,242.33Z" style="fill:#dd9b31"/><path d="M486,265.59A26,26,0,0,0,468.89,293c2.86,25,9.28,68.46,20.95,87.72,16.88,27.85,59.07,48.77,60.19,67s-2.23,25.63-2.23,25.63,29.35-16-1.48-57.21-43.15-107.54-36.41-138.94C513.76,259.19,499.18,260.86,486,265.59Z" style="fill:#f2b84a"/><path d="M346.76,180.71s36.72,61.67,81.85,90.9,94.9,19.58,111.95,14.09A61.74,61.74,0,0,0,567.45,268s-18.36-2.45-30.82-9.17-19.68-9.17-22.3-47.68S494,138.37,494,138.37A115.29,115.29,0,0,0,396.26,80.9c-70.18-2.44-102,31.35-102,31.35-54.27-2.75-72.41,17-82.58,46.71s-6.47,61.62-.46,112-3.69,86.19-3.69,86.19l6.93-5.6s17.11,52.14,44.85,69.37,28.21,50.85,28.21,50.85S300.43,446,282.4,424s-30.53-63.78-30.53-63.78-15.25-35.33-2.77-72.82,14.33-115.06,21.28-131S293,151.9,293,151.9l1.23-2.55c11.73-27.81,30.36-3.92,35.7,1.78s-6.5,28.16,36.34,88.41Z" style="fill:#fdd272"/><path d="M285,138.44a78,78,0,0,1,8.84-19.56,59.09,59.09,0,0,1,6.68-8.74,44,44,0,0,1,8.61-7.38,33.67,33.67,0,0,1,22.91-5.21,39.58,39.58,0,0,1,5.9,1.21c1.85.66,3.77,1.29,5.54,2.1a64.94,64.94,0,0,1,10,5.77,94.13,94.13,0,0,1,16.64,15A148.16,148.16,0,0,1,383.75,139a182.21,182.21,0,0,1,10.95,19.09c3.2,6.56,6,13.26,8.63,20,5.14,13.42,9.28,26.91,14.45,39.51a102,102,0,0,0,20.93,33.59,93.12,93.12,0,0,0,15.62,12.36,120.94,120.94,0,0,0,18.25,9.21A253.16,253.16,0,0,0,512.78,285a170.89,170.89,0,0,1-42.45-5.63,124.64,124.64,0,0,1-20.53-7.68,93.57,93.57,0,0,1-18.63-12.38A102.35,102.35,0,0,1,405.43,223c-6-13.36-10.33-26.86-15.34-39.78a216,216,0,0,0-17.63-36.89,162,162,0,0,0-11.73-16.53,97.27,97.27,0,0,0-13.8-14.31,41.27,41.27,0,0,0-16.45-8.78,25.71,25.71,0,0,0-17.88,2.12A49.71,49.71,0,0,0,297,121.23,97.52,97.52,0,0,0,285,138.44Z" style="fill:#fddd92"/><path d="M286.6,134.15a65.13,65.13,0,0,0-10.13-2.84,47.73,47.73,0,0,0-10.11-1.11,23.68,23.68,0,0,0-16.81,5.71,22.77,22.77,0,0,0-4.85,6.92,41.42,41.42,0,0,0-2.69,8.64,82.57,82.57,0,0,0-1.22,19.29c.54,13.7,1.62,27.49,3,41.33s2.93,28,3.17,42.72A193.89,193.89,0,0,1,245.84,277c-.49,3.69-.92,7.41-1.7,11.06A108.92,108.92,0,0,1,241.7,299a204.44,204.44,0,0,1-15.84,40.86c-6.46,12.67-13.22,25-20.4,37.28-3.6,6.11-7.29,12.18-11.21,18.12a115.11,115.11,0,0,1-12.84,17.11,75.61,75.61,0,0,0,4.18-9.7q1.93-4.92,3.74-9.89l7.32-19.83c4.88-13.19,10-26.39,14.94-39.44a255.49,255.49,0,0,0,11.77-38.83A178.15,178.15,0,0,0,227.14,255c-.13-13.45-1.42-27.36-2.06-41.57a370.41,370.41,0,0,1,.16-43.06,85.16,85.16,0,0,1,4.28-22.47,49.29,49.29,0,0,1,5.28-10.85,32.53,32.53,0,0,1,8.9-8.91A27.28,27.28,0,0,1,255.4,124a33.59,33.59,0,0,1,11.61.77A51.84,51.84,0,0,1,286.6,134.15Z" style="fill:#fddd92"/><path d="M340.64,100.79a89.75,89.75,0,0,1,36.23-1.56,103.69,103.69,0,0,1,35.15,12l4.15,2.24c1.37.77,2.61,1.73,3.93,2.58,2.58,1.78,5.18,3.57,7.73,5.41l7.11,6.18,3.52,3.15,3.18,3.46,6.3,7c2,2.39,3.71,5,5.58,7.51s3.69,5.05,5.34,7.69l4.59,8.09c1.48,2.68,3.07,5.5,4.43,8.07l4,7.66c1.34,2.56,2.55,5.2,4,7.68l4.3,7.49c2.69,5.12,6,9.78,9,14.72,1.47,2.49,3.26,4.71,4.86,7.1s3.18,4.8,5,7a185.23,185.23,0,0,0,22.86,25.68,119.79,119.79,0,0,0,13.43,11L539,263.3l3.76,2.24a54.77,54.77,0,0,0,8,3.85A55.78,55.78,0,0,1,533.1,265a106,106,0,0,1-16.27-8.47,144.1,144.1,0,0,1-28-23.71,205.77,205.77,0,0,1-22.38-29l-4.86-7.73c-1.63-2.58-3-5.29-4.49-7.93l-4.32-8c-1.41-2.65-2.8-4.95-4.2-7.45l-4.07-7.41c-1.46-2.41-3.17-4.62-4.71-7s-3-4.73-4.76-6.91L429.68,145,427,141.76l-3-2.94-5.89-5.93-6.43-5.32c-1.08-.87-2.09-1.86-3.24-2.64l-3.46-2.35a116,116,0,0,0-30.14-15.26A121.24,121.24,0,0,0,340.64,100.79Z" style="fill:#fddd92"/><path id="mounth" d="M328.06,368c-11.6-4,11,18.6,29.3,18s41.4-25.3,26.2-17.9c-5,2.4-12-14.1-21.2-8.9-6.6,3.7-3.4,5.4-9.4-.2C344.86,353.28,336.36,370.78,328.06,368Z" style="fill:#ea1818"/><path d="M393.31,362.91c-12.12,3.68-10.24,2.59-15.11.5-2.66-2.14-5.59-4.31-8.79-5a5.83,5.83,0,0,0-5.77.5l-.62.27a29.55,29.55,0,0,0-4.84,2.95,18.39,18.39,0,0,0-4.54-2.95,10,10,0,0,0-3-.93c-2.39-.89-4.24-.1-6.39,1.24a26.52,26.52,0,0,0-4,2.52c-4.9,2.84-2.24,5.37-16.93.92-13.44-4,12.69,23.65,33.88,23l1.1,0,1.1,0C380.62,386.56,406.75,358.91,393.31,362.91Z" style="fill:#d8352a"/><path d="M353,800.27l89.74-28.4s36.87,10.13,54,10c0,0,10.71,1.7,12.53-1.76v2.82L442,781.08Z" style="fill:#e2b698"/><path d="M410.69,726c0-.84-.05-1.53,0-2a10.75,10.75,0,0,1,.18-1.4,1.6,1.6,0,0,1,.5-.82,2.49,2.49,0,0,1,.85-.53,1.36,1.36,0,0,1,.88-.07,3.26,3.26,0,0,1,.74.38l.67.64a4.35,4.35,0,0,0,.74.75,2,2,0,0,1,.3.26,8.45,8.45,0,0,0,.66.63,11,11,0,0,1,.87.91c.32.35.67.64,1,1s.61.6.87.91.45.5.63.69l.23.37a1.24,1.24,0,0,1,.05.41.88.88,0,0,1-.14.36.8.8,0,0,1-.26.29c-.12.08-.19.19-.28.21s-.21.1-.24.15-.09,0-.12.08a.64.64,0,0,1-.55,0,1.6,1.6,0,0,1-.46-.36L412.85,723l.21,6.3a1,1,0,0,1,0,.43,4.67,4.67,0,0,1-.16.51l-.3.49a.79.79,0,0,1-.49.3.55.55,0,0,1-.57,0,.86.86,0,0,1-.41-.55,2.8,2.8,0,0,1-.16-.85c0-.32,0-.69,0-1.07s0-.75,0-1.12C410.77,726.77,410.77,726.39,410.69,726Z" style="fill:#333"/><path d="M409.2,735.23a8.23,8.23,0,0,1,2.5-.51,9.1,9.1,0,0,1,2.74.32,10.61,10.61,0,0,1,2.66,1.19,8.88,8.88,0,0,1,2.25,2c.18-.65.46-1.23.68-1.85a8.36,8.36,0,0,1,.89-1.56,5.74,5.74,0,0,1,1.06-1.24,3.18,3.18,0,0,1,1.25-.81,7.53,7.53,0,0,1,3.33-.52,5.52,5.52,0,0,1,1.53.33,3.69,3.69,0,0,1,1.27.63,4.29,4.29,0,0,1,1,.83,3.6,3.6,0,0,1,.63,1.07,3.44,3.44,0,0,1,.2,1.63,3.51,3.51,0,0,1-.75,1.72,8.35,8.35,0,0,1-1.83,1.75,13.92,13.92,0,0,1-3.11,1.63c-.89.36-1.79.71-2.62,1s-1.65.49-2.45.68a10.86,10.86,0,0,0-.2,1.31c0,.43-.16.88-.2,1.31,0,.09,0,.2-.06.34a.84.84,0,0,1-.09.4.78.78,0,0,1-.11.31l-.14.21c-.08,0-.08,0-.19,0l-.22-.14L419,747l-.17-.1a.55.55,0,0,1-.22-.37,3.77,3.77,0,0,1-.25-1.2,13.66,13.66,0,0,1-.06-1.62,22.58,22.58,0,0,1-3.22.21,16.86,16.86,0,0,1-2.75-.18,11.28,11.28,0,0,1-2.29-.57,12.1,12.1,0,0,1-1.8-.87,4.69,4.69,0,0,1-1.29-1.1,3.43,3.43,0,0,1-.76-1.21,2.92,2.92,0,0,1-.23-1.35,3.15,3.15,0,0,1,.43-1.32,4.42,4.42,0,0,1,1-1.18A10.87,10.87,0,0,1,409.2,735.23Zm.34,2.39a2.39,2.39,0,0,0-1.19.85,1.14,1.14,0,0,0-.12,1.06,2.16,2.16,0,0,0,1,1.06,7.49,7.49,0,0,0,2.06.82,16.12,16.12,0,0,0,3.12.32,25.36,25.36,0,0,0,4.16-.39l.09-.39a8.37,8.37,0,0,0-1.23-1.44,9.54,9.54,0,0,0-1.56-1,9.33,9.33,0,0,0-1.76-.69c-.59-.14-1.18-.28-1.72-.38s-1.09-.07-1.61-.09A3.14,3.14,0,0,0,409.54,737.62Zm15-2.91a2.49,2.49,0,0,0-1.2.85,4.83,4.83,0,0,0-1,1.35,12,12,0,0,0-.79,1.78,12.87,12.87,0,0,0-.61,2.11l2.57-.76c.86-.3,1.81-.62,2.8-1a6.76,6.76,0,0,0,1.62-.81,6.64,6.64,0,0,0,1-.75,1.18,1.18,0,0,0,.38-.74,1,1,0,0,0,0-.7,1.14,1.14,0,0,0-.42-.55,2.83,2.83,0,0,0-.68-.49,2.21,2.21,0,0,0-.86-.31,5.59,5.59,0,0,0-.94-.2,6.46,6.46,0,0,0-1,0A3,3,0,0,0,424.59,734.71Z" style="fill:#333"/><path d="M428.36,758.56a20.46,20.46,0,0,0-2.13.28,6.64,6.64,0,0,0-1.63.44,1.56,1.56,0,0,0-.79.56.83.83,0,0,0,0,.9,1.18,1.18,0,0,0,.33.43c.14.16.41.32.65.55a8.39,8.39,0,0,0,1,.54c.42.18.85.45,1.41.65a.42.42,0,0,1-.18.18,2.25,2.25,0,0,1-.38.37,8.68,8.68,0,0,0-.72.69,9.82,9.82,0,0,1-1.69-.81,12,12,0,0,1-1.34-.89,7,7,0,0,1-1-1,3.48,3.48,0,0,1-.56-.94,2.76,2.76,0,0,1-.16-1.08,2.62,2.62,0,0,1,.26-1.05,3.49,3.49,0,0,1,.71-.92,3.71,3.71,0,0,1,1.19-.7c.18,0,.39-.14.65-.21l.88-.21c.36-.08.73-.08,1.14-.13s.82-.1,1.31-.18c-.4-.69-.71-1.41-1.06-2.08l-1-2c-.55,0-1.07,0-1.56.1l-1.48.07a11.86,11.86,0,0,0-1.24.07c-.38,0-.7,0-1,0a5.46,5.46,0,0,1-1.56-.28,1.09,1.09,0,0,1-.64-.55,1.29,1.29,0,0,1-.11-.44l0-.43a.42.42,0,0,1,.2-.33.55.55,0,0,1,.37-.22l.26-.07,2.79-.25c.93,0,1.8-.1,2.69-.08a3.35,3.35,0,0,1-.27-.92,3.17,3.17,0,0,1-.07-.87,3.56,3.56,0,0,1,.22-.85,2.58,2.58,0,0,1,.61-.75c.13-.08.16-.13.25-.15s.12-.08.21-.1.41,0,.45.12a1,1,0,0,1,0,.43,2.35,2.35,0,0,1-.35.69,4.58,4.58,0,0,1,.34.81,6.84,6.84,0,0,0,.39.84l.33.81c.61,0,1.21,0,1.76,0s1.07,0,1.62-.06a6.38,6.38,0,0,0,1-.15,3.52,3.52,0,0,0,.91-.26,2.93,2.93,0,0,0,.58-.33,1.92,1.92,0,0,0,.38-.37.8.8,0,0,0,.16-.51,1.2,1.2,0,0,0-.1-.58,2.31,2.31,0,0,0-.32-.58c-.19-.19-.34-.43-.58-.65a4.6,4.6,0,0,0-.86-.68l-1.15-.71a.87.87,0,0,1-.35-.29c-.11-.06-.14-.15-.21-.27s.07-.11.19-.19a5.37,5.37,0,0,1,.54-.27,1.91,1.91,0,0,1,.9-.12,2.08,2.08,0,0,1,1,.28,2.89,2.89,0,0,1,.93.57l.83.73a3,3,0,0,1,.68.87c.2.28.32.58.47.82a6.12,6.12,0,0,1,.34,1.18,3.86,3.86,0,0,1-.1,1.15,2.61,2.61,0,0,1-.7,1,3.45,3.45,0,0,1-1.3.79,8.16,8.16,0,0,0-.95.32c-.36.08-.85.16-1.29.26s-1,.15-1.55.19a14.66,14.66,0,0,0-1.69.17c.27.54.57,1.17.88,1.89s.62,1.44,1,2.1c1.05-.11,2.15-.19,3.31-.23s2.26-.12,3.38-.11a1.84,1.84,0,0,1,1,.23,1.23,1.23,0,0,1,.58.65.87.87,0,0,1,.08.35c0,.15,0,.24-.05.34l-.2.33a.56.56,0,0,1-.37.23,1.5,1.5,0,0,1-.48.16,2.9,2.9,0,0,1-.58.1c-.38,0-.84,0-1.3,0L433,758c-.46,0-.93,0-1.48.08s-1,0-1.47.07c.17.33.29.63.44.88a2.34,2.34,0,0,1,.27.54c0,.09.08.12,0,.17s0,.09.08.13a1.26,1.26,0,0,1,.1.44.43.43,0,0,1,0,.28c0,.06-.1.17-.19.19s-.15.13-.24.15a.32.32,0,0,1-.32,0,.38.38,0,0,1-.26-.08c-.05,0-.16-.1-.18-.19s-.13-.15-.15-.24a1.22,1.22,0,0,1-.18-.33.19.19,0,0,0-.07-.12l-.06,0,0-.09a.84.84,0,0,0-.1-.21,1,1,0,0,0-.22-.36c-.1-.21-.23-.37-.33-.58C428.5,759,428.45,758.77,428.36,758.56Z" style="fill:#333"/><path d="M429.17,771.87a6.85,6.85,0,0,0-.76-.84c-.26-.31-.56-.57-.77-.85s-.5-.53-.7-.81a4.42,4.42,0,0,1-.46-.73,1.15,1.15,0,0,1-.08-.73.61.61,0,0,1,.41-.42l.53-.13a.92.92,0,0,1,.48.07.76.76,0,0,1,.37.15l.27.16,4.42,5-.66-6.81a4,4,0,0,1,0-.57c.05-.2.17-.27.38-.37a.07.07,0,0,1,.09,0l.26-.06c.09,0,.24,0,.32,0h.38a.77.77,0,0,1,.36.15.53.53,0,0,1,.23.36,1.07,1.07,0,0,1,.08.36c0,.23,0,.46.05.78a9.28,9.28,0,0,1,0,1.07,9.08,9.08,0,0,0,.05,1.15c0,.38,0,.75,0,1.07a2.54,2.54,0,0,1,0,.81.5.5,0,0,0,0,.32c0,.37,0,.75,0,1.07a4.75,4.75,0,0,1-.06.94,1.59,1.59,0,0,1-.24.76,1,1,0,0,1-.67.49,2.5,2.5,0,0,1-1,.23,2.08,2.08,0,0,1-1-.28,5.42,5.42,0,0,1-1.08-.81A11,11,0,0,1,429.17,771.87Z" style="fill:#333"/></svg>