<svg id="Layer_1" data-name="Layer 1" xmlns="http://www.w3.org/2000/svg" viewBox="0 0 317.77 317.77"><defs><style>.cls-1{fill:#fff;}.cls-2{fill:none;}</style></defs><title>Azure-Spring-Cloud-white</title><path class="cls-1" d="M194.19,0H167.71V43.31a117.34,117.34,0,0,1,26.48,5.09V26.48h97.1v97.1H271.5a205.8,205.8,0,0,1,3.12,26.48h43.15V0Z"/><path class="cls-1" d="M48.47,123.58h-22V26.48h97.1v22a114.81,114.81,0,0,1,26.48-5.17V0H0V150.06H43.3A114.81,114.81,0,0,1,48.47,123.58Z"/><path class="cls-1" d="M26.48,291.29v-97.1H48.57a114.06,114.06,0,0,1-5.26-26.48H0V317.77H150.06V274.46a114.86,114.86,0,0,1-26.48-5.24v22.07Z"/><path class="cls-1" d="M269.3,194.19h22v97.1h-97.1v-22a114.81,114.81,0,0,1-26.48,5.17v43.3H317.77V167.71h-43.3A114.81,114.81,0,0,1,269.3,194.19Z"/><path class="cls-2" d="M256.52,123.58a313.86,313.86,0,0,0-12.9-47.67c-9.51,19-29.34,33.81-49.43,41.82a102.58,102.58,0,0,1-12.36,4.08,95.44,95.44,0,0,1-9.52,1.77c-1.54.21-3.08.39-4.6.54-6,.6-11.87.81-17.65,1.12-8.6.48-17,1.21-25.6,3.86-1.47.46-2.94,1-4.41,1.54a58,58,0,0,0-26.24,19.42,54.18,54.18,0,0,0-8.69,17.65,52.26,52.26,0,0,0-.64,26.48c2.46,10,8.07,18.17,16.15,22.07l1.76.88s9.32-1.73,21.19-4.45c8.35-1.91,18-4.3,26.48-6.92,3.82-1.17,7.42-2.39,10.59-3.63,2.34-.83,4.7-1.77,7.06-2.79,3.51-1.51,7-3.24,10.54-5.16a138.34,138.34,0,0,0,15.06-9.57,135.56,135.56,0,0,0,19.19-16.91,112.06,112.06,0,0,0,13.59-17.65,85.92,85.92,0,0,0,8.71-18.54,84.74,84.74,0,0,1-5.24,18.54,106.45,106.45,0,0,1-9.23,17.65,130.65,130.65,0,0,1-22.81,26.48q-1.65,1.47-3.33,2.88a122.52,122.52,0,0,1-22.06,14.78c-1.5.79-3,1.51-4.42,2.19a139.79,139.79,0,0,1-17.65,6.64c-7.35,2.32-15.7,4.72-26.48,8.46l-3.53,1.24-5.3,1.77c3.24-.46,6.48-.68,8.83-.79,2.12-.09,3.53-.09,3.53-.09,7-.35,14.76-.18,23,0,5.73.16,11.65.34,17.65.41a224.44,224.44,0,0,0,26.48-1c19.73-2.16,38.12-8.27,50.32-24.13a66.48,66.48,0,0,0,7.3-12.36,86.16,86.16,0,0,0,6.95-26.48,127.47,127.47,0,0,0,.63-17.65A182.91,182.91,0,0,0,256.52,123.58Z"/><path class="cls-1" d="M264.61,150.06a200.55,200.55,0,0,0-3.27-26.48c-3.25-17.47-8.67-36.94-15.95-58.26-2.65,7.06-7.06,13.24-10.59,18.54a111.55,111.55,0,0,0-40.61-25,107.18,107.18,0,0,0-26.48-5.55c-2.91-.23-5.85-.36-8.82-.36s-5.92.13-8.83.38a104.07,104.07,0,0,0-26.48,5.72,106.8,106.8,0,0,0-64.52,64.52,104.07,104.07,0,0,0-5.72,26.48v17.65a104.45,104.45,0,0,0,5.76,26.48A106.88,106.88,0,0,0,88.85,238a3.5,3.5,0,0,0,.39.38l.4.35,0,0a106.86,106.86,0,0,0,33.9,19.89,104,104,0,0,0,26.48,5.75q4.37.38,8.83.38t8.82-.38a104.07,104.07,0,0,0,26.48-5.72,106.8,106.8,0,0,0,64.52-64.52,104.07,104.07,0,0,0,5.72-26.48q.38-4.36.38-8.83v-1.76C264.81,154.82,264.73,152.46,264.61,150.06Zm-168,90.88a8.77,8.77,0,1,1,8.77-8.77A8.78,8.78,0,0,1,96.62,240.94Zm162.14-73.23a86.16,86.16,0,0,1-6.95,26.48,66.48,66.48,0,0,1-7.3,12.36c-12.2,15.86-30.59,22-50.32,24.13a224.44,224.44,0,0,1-26.48,1c-6-.07-11.92-.25-17.65-.41-8.19-.23-16-.4-23,0,0,0-1.41,0-3.53.09-2.35.11-5.59.33-8.83.79l5.3-1.77,3.53-1.24c10.78-3.74,19.13-6.14,26.48-8.46A139.79,139.79,0,0,0,167.71,214c1.46-.68,2.92-1.4,4.42-2.19a122.52,122.52,0,0,0,22.06-14.78q1.68-1.41,3.33-2.88a130.65,130.65,0,0,0,22.81-26.48,106.45,106.45,0,0,0,9.23-17.65,84.74,84.74,0,0,0,5.24-18.54,85.92,85.92,0,0,1-8.71,18.54,112.06,112.06,0,0,1-13.59,17.65,135.56,135.56,0,0,1-19.19,16.91,138.34,138.34,0,0,1-15.06,9.57c-3.5,1.92-7,3.65-10.54,5.16-2.36,1-4.72,2-7.06,2.79-3.17,1.24-6.77,2.46-10.59,3.63-8.53,2.62-18.13,5-26.48,6.92-11.87,2.72-21.19,4.45-21.19,4.45l-1.76-.88c-8.08-3.9-13.69-12.11-16.15-22.07a52.26,52.26,0,0,1,.64-26.48,54.18,54.18,0,0,1,8.69-17.65,58,58,0,0,1,26.24-19.42c1.47-.58,2.94-1.08,4.41-1.54,8.56-2.65,17-3.38,25.6-3.86,5.78-.31,11.64-.52,17.65-1.12,1.52-.15,3.06-.33,4.6-.54a95.44,95.44,0,0,0,9.52-1.77,102.58,102.58,0,0,0,12.36-4.08c20.09-8,39.92-22.79,49.43-41.82a313.86,313.86,0,0,1,12.9,47.67,182.91,182.91,0,0,1,2.87,26.48A127.47,127.47,0,0,1,258.76,167.71Z"/></svg>