<?xml version="1.0" encoding="UTF-8"?>
<!DOCTYPE svg PUBLIC "-//W3C//DTD SVG 1.1//EN" "http://www.w3.org/Graphics/SVG/1.1/DTD/svg11.dtd">
<!-- Creator: CorelDRAW X8 -->
<svg xmlns="http://www.w3.org/2000/svg" xml:space="preserve" width="100%" height="100%" version="1.1" style="shape-rendering:geometricPrecision; text-rendering:geometricPrecision; image-rendering:optimizeQuality; fill-rule:evenodd; clip-rule:evenodd"
viewBox="0 0 12539 9229"
 xmlns:xlink="http://www.w3.org/1999/xlink">
 <defs>
  <style type="text/css">
   <![CDATA[
    .fil4 {fill:#008BC0}
    .fil5 {fill:#333142}
    .fil0 {fill:#B3DFEB}
    .fil3 {fill:#F5AA0A}
    .fil2 {fill:#FAB978}
    .fil7 {fill:#008BC0;fill-rule:nonzero}
    .fil6 {fill:#333142;fill-rule:nonzero}
    .fil1 {fill:white;fill-rule:nonzero}
   ]]>
  </style>
 </defs>
 <g id="Capa_x0020_1">
  <metadata id="CorelCorpID_0Corel-Layer"/>
  <g id="_1457450180640">
   <g>
    <path class="fil0" d="M8034 3295c45,50 64,116 73,199 8,85 10,170 2,255 -6,62 -17,122 -35,176 -18,52 -41,99 -71,139 -36,48 -87,87 -148,118 -64,32 -138,54 -217,68 -93,11 -163,21 -258,17 -71,-2 -140,-10 -203,-24 -62,-13 -120,-31 -168,-54 -79,-38 -134,-84 -179,-145 -44,-59 -77,-130 -115,-220 -34,-79 -68,-167 -76,-249 -10,-91 9,-174 85,-233 11,-9 25,-18 42,-27 15,-8 33,-16 52,-23l108 -41 -56 101c-10,18 -18,37 -25,55 -6,17 -11,35 -14,54 -1,7 0,14 3,20 4,5 9,10 16,13 7,2 14,2 20,0 6,-3 12,-7 16,-13 29,-50 67,-96 111,-138 48,-47 102,-88 157,-123l8 -5 10 -1c116,-15 239,-23 351,-26 116,-3 221,0 294,10 104,14 172,46 217,97zm-536 210c-1,-1 -2,-1 -3,-1 -45,-6 -94,6 -141,28 -61,29 -117,73 -158,117 -42,43 -84,102 -110,164 -19,47 -29,97 -21,142l0 3 2 1c1,1 2,1 3,1 1,0 2,0 3,-1 35,-34 78,-62 124,-84 52,-24 108,-42 160,-52 52,-11 111,-17 168,-14 51,2 102,11 147,29 1,0 3,0 3,0 1,-1 2,-1 3,-2 0,-1 0,-2 0,-3 0,-1 0,-2 -1,-3 -34,-31 -81,-49 -132,-57 -67,-12 -139,-7 -197,5 -21,4 -44,10 -68,18 -21,7 -43,15 -64,25l-147 70 95 -133c9,-12 19,-26 31,-40 11,-13 22,-25 34,-38 37,-38 81,-76 130,-107 43,-27 89,-49 137,-61 1,0 2,-1 2,-1 1,-1 1,-2 1,-3 0,-1 0,-2 -1,-3zm-1865 -146c37,38 69,78 95,122 4,6 9,11 15,13 7,2 14,2 21,0 6,-3 12,-8 15,-13 3,-6 5,-13 4,-20 -3,-17 -8,-34 -13,-51 -7,-17 -14,-35 -23,-52l-47 -89 96 29c25,7 49,16 70,25 21,8 40,18 56,28 85,55 120,136 129,225 9,82 -6,171 -24,251 -19,91 -38,163 -69,224 -33,64 -79,113 -153,155 -124,70 -343,104 -551,86 -181,-17 -357,-73 -462,-180 -83,-83 -153,-277 -163,-287 -8,-26 -16,-51 -22,-77 -7,-26 -13,-54 -18,-82l-1 -6c-21,-115 -30,-205 -3,-275 28,-76 94,-123 220,-145 74,-12 184,-19 307,-18 118,0 248,6 370,19l10 1 9 7c47,32 92,69 132,110zm-393 189c-40,47 -68,114 -77,190l-3 31 -31 6c-24,5 -48,12 -70,22 -19,9 -36,20 -51,33 -1,1 -2,2 -2,3 0,1 1,2 1,3 1,1 1,1 2,2 1,0 2,0 3,0 46,-18 97,-27 148,-29 57,-3 115,3 168,14 52,10 108,28 160,52 46,22 89,50 124,84 1,1 2,1 3,1 1,0 2,0 3,-1 1,0 1,-1 2,-2 0,-1 0,-2 -1,-3 -4,-10 -10,-20 -16,-28 -7,-10 -14,-19 -23,-28l-19 -20 11 -25c3,-9 6,-19 8,-29 2,-10 3,-21 3,-32 0,-89 -25,-169 -66,-226 -38,-54 -90,-87 -145,-87 -50,0 -96,26 -132,69z"/>
    <path class="fil1" d="M7049 5167c0,1 1,1 3,2 16,5 34,8 52,9 19,1 40,-1 61,-5l48 -8 1 48c3,59 -1,115 -17,157 -17,45 -46,74 -94,77 -167,8 -322,-24 -457,-72 -134,-47 -247,-109 -332,-161l-95 -60 111 -18c8,-1 17,-3 28,-6 6,-2 13,-4 20,-5 70,-9 162,-23 244,-39 63,-12 120,-25 156,-37 61,-20 119,-43 174,-68 55,-24 109,-51 160,-79l49 -26 12 54c4,14 10,41 17,78 4,25 9,52 13,81l5 34 -33 11c-20,7 -41,13 -62,18 -20,4 -40,7 -60,8 -2,0 -3,1 -3,1 0,1 -1,2 -1,3l0 0c0,1 0,2 0,3zm-462 -3124l-518 0c-61,0 -116,-24 -156,-64 -39,-40 -64,-95 -64,-155 0,-59 23,-112 60,-152 30,-31 69,-53 112,-63 9,-52 34,-97 70,-132 45,-43 105,-70 171,-70 66,0 126,27 171,69 35,35 60,79 70,130 25,5 48,18 66,35 14,15 25,32 31,52 43,3 82,22 111,51 31,32 51,75 51,124 0,48 -20,92 -51,124 -32,32 -76,51 -124,51zm-1222 1669c-29,17 -64,22 -97,10 -33,-11 -57,-37 -70,-69 -11,-30 -12,-65 0,-99l1 -2c12,-33 35,-60 62,-75 27,-16 59,-21 89,-13l1 0 7 3c33,12 57,37 70,69 11,30 12,66 0,99 -12,35 -35,62 -63,77z"/>
    <path class="fil2" d="M7489 2976c-106,11 -214,48 -298,90l-51 28 -53 6c-197,25 -335,62 -451,92 -79,21 -148,40 -219,50 -18,3 -36,5 -55,7 -18,2 -36,3 -53,4l-3 0c-19,0 -37,-1 -54,-3 -19,-1 -37,-3 -56,-5 -73,-8 -146,-25 -229,-43 -115,-26 -250,-57 -435,-76l-10 -1 -9 -6c-14,-9 -29,-19 -45,-28 -15,-9 -30,-17 -45,-24 -84,-43 -192,-80 -299,-91 -82,-8 -164,-1 -231,34 -7,3 -12,8 -14,14 -3,6 -4,13 -2,20 1,4 3,7 5,9 2,3 4,5 6,7l84 61 -102 15c-53,8 -100,15 -143,23l-132 22 370 -468 32 19c370,222 844,332 1317,329 472,-2 943,-116 1309,-341l32 -20 333 422 -266 -30 14 -48c2,-7 1,-14 -1,-20 -3,-6 -8,-11 -14,-14 -68,-35 -149,-42 -232,-34zm-3302 820c1,35 10,73 27,109l3 6c0,-6 -1,-15 -6,-25 -15,-31 -19,-62 -14,-90 4,-20 12,-37 24,-52 11,-15 26,-27 44,-35 24,-12 54,-16 85,-10l31 6 3 30c8,61 14,128 19,199 6,69 10,143 14,221l3 63 -59 -21c-57,-19 -116,-55 -167,-98 -49,-41 -90,-91 -115,-143 -65,-138 -71,-242 -46,-315 15,-44 41,-77 72,-100 31,-23 67,-36 102,-41 59,-7 120,10 158,47l14 12 -2 103 -41 0c-34,1 -62,7 -83,17 -23,10 -39,26 -50,45 -11,21 -16,45 -16,72zm1975 623c0,1 1,2 2,3 37,38 91,70 148,90 61,21 124,30 176,23 53,-7 115,-32 171,-69 52,-35 98,-78 123,-124 1,-1 1,-2 1,-3 0,-1 -1,-2 -2,-3 -1,-1 -2,-1 -3,-1 0,0 -1,0 -2,1 -38,31 -83,56 -131,75 -53,21 -110,34 -163,41 -53,7 -112,8 -168,2 -51,-6 -101,-19 -145,-39 -1,-1 -2,-1 -3,-1 -1,0 -2,1 -3,2 0,1 -1,2 -1,3zm724 -241c61,57 139,99 259,131l24 6 27 6 98 18 -82 58c-196,138 -404,276 -615,342 -218,69 -438,62 -649,-95l-2 -1c-25,-21 -55,-32 -87,-34 -31,-1 -63,7 -90,26 -65,45 -127,79 -187,104 -154,63 -291,63 -410,17 -117,-45 -216,-135 -296,-251 -49,-70 -91,-150 -126,-236l-61 -150 126 100c29,23 59,43 91,61 32,17 65,32 100,44 87,30 216,45 346,46 134,1 267,-13 356,-41 111,-35 178,-77 226,-135 48,-59 80,-137 117,-238 5,-12 10,-27 15,-43 44,-129 126,-371 276,-380l4 0c147,5 278,240 347,365 10,17 18,32 24,43 59,101 107,178 169,237zm1670 -560c35,74 36,185 -36,338 -25,52 -66,101 -114,142 -50,43 -109,78 -166,98l-57 21 1 -61c1,-76 3,-150 6,-220 2,-70 7,-137 13,-197l3 -29 28 -8c37,-10 72,-7 100,7 16,7 30,18 41,31 11,13 19,28 24,45 8,30 6,65 -11,102 -5,9 -6,18 -6,24l3 -6c18,-38 27,-78 26,-116 0,-24 -6,-47 -17,-67 -10,-18 -26,-33 -48,-43 -23,-11 -54,-17 -93,-16l-42 1 -1 -90 9 -11c36,-46 101,-70 166,-63 34,3 68,14 97,33l0 0c31,20 57,48 74,85z"/>
    <path class="fil3" d="M8022 3113l-341 -430 36 -26c35,-25 68,-53 99,-81 30,-28 58,-57 83,-87l8 -10 21 -7c33,-15 63,-29 91,-42 28,-14 58,-29 87,-45l63 -34 0 788 -136 -11 -11 -15zm-3111 -381l-359 452 -18 2 -31 2c-9,0 -19,0 -29,0l-43 0 0 -836 63 33c29,16 59,31 87,45 28,14 58,28 91,43l24 10 6 7c27,33 58,64 91,94 33,31 70,60 109,87l36 26 -27 35zm1674 2650c140,53 300,80 503,81 141,0 199,-84 217,-192 20,-121 -7,-273 -34,-384l-29 -118 96 75c9,8 21,12 33,11 12,0 23,-4 33,-12 11,-9 17,-22 18,-36 1,-13 -3,-27 -12,-38 -15,-17 -30,-34 -47,-50 -16,-16 -33,-31 -52,-45 -19,-13 -37,-23 -56,-31 -21,-8 -45,-15 -74,-23 -14,-4 -29,-1 -40,5 -12,7 -21,18 -24,32 -3,10 -3,19 0,28 2,9 8,17 14,24l43 40 -51 28c-108,60 -215,106 -321,142 -105,36 -209,61 -312,78 -47,7 -94,13 -142,18 -47,4 -94,7 -140,8l-9 1c-60,1 -120,1 -180,-1 -62,-2 -121,-6 -179,-10 -15,-1 -28,3 -38,12 -10,9 -17,21 -18,36 -1,7 36,0 83,12 113,30 275,54 307,56l14 1 11 10c125,108 246,188 386,242zm1526 -747c-13,414 -25,786 -86,877 -50,75 -98,136 -149,185 -51,51 -103,90 -162,121l-64 33 2 -72c0,-9 0,-18 -1,-26 -39,65 -92,124 -154,176 -89,74 -197,134 -311,175l-52 19 -4 -55c-1,-7 -2,-14 -3,-21 -100,101 -223,179 -346,235 -188,85 -377,122 -481,122 -104,0 -293,-37 -481,-122 -123,-56 -246,-134 -345,-235 -2,7 -3,14 -4,21l-4 55 -52 -19c-114,-41 -222,-101 -311,-175 -62,-52 -115,-111 -153,-176 -2,8 -2,17 -2,26l2 72 -64 -33c-59,-31 -111,-70 -162,-121 -50,-49 -99,-110 -149,-185 -61,-91 -73,-463 -85,-876 -3,-79 -5,-161 -8,-244 -4,-109 -8,-219 -15,-331 -7,-108 -16,-218 -29,-327l-1 -11 62 -146 23 144c16,101 37,202 66,301 28,99 63,195 107,286 30,63 63,120 98,171 110,160 244,266 394,311 150,44 316,28 492,-57 49,-24 99,-53 150,-88l25 -17 24 18c512,389 1025,24 1476,-297l13 -10 14 1c88,3 180,-1 264,-11 78,-9 147,-24 198,-44 42,-17 81,-39 116,-66 35,-26 67,-57 94,-92l82 -107 -7 134c-7,159 -13,323 -17,481z"/>
    <path class="fil4" d="M5517 1635c-5,31 -8,61 -9,92l-2 30 -29 8c-148,41 -296,92 -445,154 -149,63 -297,136 -444,219l-22 13c-43,24 -90,51 -128,78l-49 35 -25 -20c-90,-74 -159,-152 -228,-229l-29 -33c-45,-49 -82,-100 -111,-151 -104,-179 -118,-364 -66,-540 52,-172 169,-337 328,-480 89,-79 191,-153 302,-217 860,-499 2080,-455 2968,-146 308,107 577,246 778,406 205,163 342,348 380,544 37,191 -19,389 -194,584 -39,43 -82,86 -129,129 -44,39 -92,78 -144,116l-24 17 -25 -17c-37,-26 -82,-52 -125,-76l-22 -13c-150,-85 -300,-159 -450,-221 -150,-63 -301,-115 -451,-155l-30 -8 -1 -31c-2,-29 -5,-59 -10,-90 -5,-29 -12,-59 -20,-89 -5,-15 -10,-22 -15,-23l-2 0c-1,0 -2,1 -3,2 -6,7 -9,20 -4,39 18,63 27,125 27,186 0,163 -60,318 -159,444 -99,126 -238,222 -397,268 -67,19 -137,29 -209,29 -71,0 -141,-10 -207,-29 -159,-46 -298,-141 -397,-267 -100,-125 -160,-280 -160,-444 0,-61 9,-124 27,-186 5,-20 2,-34 -4,-40 -1,-1 -2,-2 -3,-2l-2 0c-5,1 -11,8 -15,23 -9,31 -16,61 -21,91zm375 494c104,105 248,169 407,169 160,0 304,-64 408,-169 104,-104 169,-248 169,-407 0,-159 -65,-303 -169,-408 -104,-104 -248,-168 -408,-168 -159,0 -303,64 -407,168 -104,105 -169,249 -169,408 0,159 65,303 169,407z"/>
    <path class="fil0" d="M7484 2205c-129,-56 -263,-99 -404,-127l-48 -10 16 -46c11,-31 20,-63 27,-96 7,-32 12,-65 14,-98l4 -51 50 13c171,48 339,110 501,183 162,74 319,160 466,256l55 36 -57 35c-32,20 -67,40 -103,59 -36,19 -72,36 -108,52l-21 9 -19 -12c-120,-79 -244,-147 -373,-203zm-2381 5c-133,59 -260,131 -384,213l-18 12c-21,-8 -43,-15 -64,-24 -31,-13 -60,-28 -88,-43 -28,-15 -54,-31 -79,-47l-51 -33c19,-14 37,-28 56,-41 148,-100 307,-189 472,-265 164,-75 335,-139 509,-188l49 -14 5 51c2,33 7,65 14,97 7,32 16,64 27,95l16 45 -48 10c-145,29 -283,74 -416,132z"/>
    <path class="fil5" d="M4654 2373l41 15c252,-168 519,-292 816,-352 -23,-64 -38,-132 -44,-202 -345,98 -677,252 -969,448l-5 4c48,31 101,60 161,87zm1415 -372c-98,0 -178,-80 -178,-177 0,-95 75,-173 168,-178 4,-109 93,-196 203,-196 110,0 199,87 203,196 3,0 7,-1 11,-1 49,0 89,40 89,89 0,1 0,2 0,3 7,-2 14,-2 22,-2 73,0 133,59 133,133 0,73 -60,133 -133,133l-1 0 -517 0zm-245 1453c-6,-40 -20,-79 -40,-116 47,14 87,31 115,49 144,93 120,278 87,431 -38,176 -71,277 -201,351 -219,123 -752,129 -963,-86l-3 -4 -1 -1 -5 -5 0 0 -3 -4 -2 -1 -1 -2 -3 -3 0 -1 -3 -3 -2 -2 -1 -2 -3 -3 0 0 -3 -4 -2 -1 -1 -3 -3 -3 0 0 -3 -4 -1 -1 -2 -3 -2 -3 -1 -1 -3 -3 -1 -2 -1 -2 -3 -4 0 0 -3 -4 -1 -1 -2 -3 -2 -3 0 -1 -3 -4 -1 -1 -2 -3 -2 -3 0 -1 -3 -4 -1 -1 -1 -3 -2 -4 -3 -5 -1 -1 -4 -6 0 0 0 -1 -3 -4 0 -1 -2 -4 -2 -3 0 -1 -3 -4 0 -1 -2 -4 -2 -3 0 -1 -3 -4 0 -1 -2 -4 -1 -3 -1 -1 -2 -5 -1 -1 -1 -3 -2 -3 -1 -2 -2 -4 0 -1 -2 -4 -1 -3 -1 -1 -2 -5 0 -1 -2 -4 -1 -3 -3 -6 0 -1 -2 -4 -1 -3 -1 -1 -2 -5 0 -1 -2 -4 -1 -3 -1 -2 -1 -4 -1 -1 -1 -4 -1 -3 -1 -2 -2 -5 0 0 -2 -5 0 -3 -1 -2 -2 -5 0 0 -2 -4 -1 -3 0 -2 -2 -5c-16,-50 -29,-101 -39,-154l0 0 -1 -6c-39,-216 -36,-333 183,-370 142,-24 420,-25 665,1 86,60 164,134 214,219 18,30 54,43 87,31 33,-12 52,-45 46,-79zm-288 -370c-31,-21 -63,-40 -94,-55 -159,-81 -399,-143 -568,-57 -32,16 -47,50 -37,84 5,16 14,29 27,38 -62,9 -117,19 -168,27l279 -353c754,452 1924,447 2670,-12l247 312c-36,-4 -75,-8 -115,-12 9,-34 -6,-68 -37,-84 -169,-86 -409,-24 -569,57 -14,7 -29,15 -44,24 -15,1 -30,3 -45,5 -334,42 -497,117 -671,142 -36,6 -71,9 -104,11 -34,-1 -69,-4 -106,-8 -173,-20 -345,-85 -665,-119zm-192 423c42,15 62,66 44,114 -17,49 -65,76 -106,61 -42,-14 -62,-66 -44,-114 17,-49 65,-76 106,-61zm28 -70c140,0 253,159 253,355 0,27 -5,53 -14,77 19,20 35,42 47,67 9,21 3,45 -16,58 -18,13 -43,11 -59,-5 -68,-66 -172,-107 -264,-125 -91,-19 -203,-21 -291,13 -22,8 -45,0 -57,-19 -12,-19 -8,-44 8,-59 38,-35 89,-55 142,-66 20,-168 125,-296 251,-296zm1651 525c-21,-121 62,-258 142,-342 80,-84 214,-174 336,-158 22,3 39,21 40,43 2,23 -13,43 -35,48 -92,23 -182,89 -247,157 -21,22 -42,46 -61,73 47,-22 97,-38 142,-47 113,-23 274,-20 365,63 17,15 20,40 9,59 -12,19 -36,27 -57,19 -88,-34 -200,-32 -292,-13 -91,18 -195,59 -263,125 -17,16 -41,18 -60,5 -10,-8 -17,-19 -19,-31l0 -1zm-234 -508c7,-43 23,-84 44,-123 -34,14 -63,28 -83,44 -125,97 -62,280 4,433 74,174 128,274 274,343 89,43 218,69 353,74l0 0 4 0 8 0 4 0 4 0 0 0 8 1 4 0 4 0 3 0 4 0 4 0 4 0 4 0 12 0 4 -1 4 0 7 0 1 0 4 0 4 0 7 0 4 -1 4 0 8 0 4 0 4 -1 4 0 7 0 1 0 4 -1 4 0 4 0 3 -1 4 0 4 0 4 -1 4 0 4 0 4 -1 4 0 0 0 8 -1 3 -1 4 0 4 -1 8 -1 4 0 4 -1 7 -1 4 0 4 -1 4 0 3 -1 4 -1 4 0 4 -1 3 0 1 -1c144,-25 271,-80 338,-169 57,-76 87,-180 98,-294l0 -2 1 -2 0 -2 0 -2 0 -5 1 -2 0 -2 0 -1 0 -1 0 -2 0 -3 0 -2 0 0 1 -2 0 -2 0 -4 0 -3 0 -2 0 -2 0 0 1 -2 0 -2 0 -3 0 0 0 -2 0 -2 0 -2 0 -2 0 0 0 -3 0 -2 0 -2 0 -1 1 -1 0 -2 0 -3 0 -1 0 -1 0 -2 0 -2 0 -2 0 -1 0 -2 0 -2 0 -2 0 -2 0 0 0 -2 0 -3 0 -2 0 0 0 -2 0 -2 0 -3 0 -2 0 -2 0 -2 0 -2 0 -1 0 -2 0 -2 0 -2 0 -1 0 -1 0 -3 0 -2 0 -2 0 0 0 -2 0 -2 0 -3 0 -1 0 -1 0 -2 0 -2 0 -3 0 -1 0 -2 -1 -2 0 -2 0 -2 0 -1 0 0 0 -2 0 -2 0 -2 0 -1 0 -2 0 -1 0 -1 0 -2 0 -1 0 -2 0 -2 0 -1 0 -1 -1 -1 0 -2 0 -2 0 -2 0 -1 0 -1 0 -1 0 -2 0 -1 0 -2 0 -2 0 -1 0 -1 0 -1 -1 -2 0 -1 0 -2 0 -2 0 -1 0 0 0 -2 0 -2 0 -1 0 -2 0 -2 0 0 -1 -1 0 -2 0 -1 0 -2 0 -2 0 -1 0 0 0 -2 0 -1 0 -2 -1 -2 0 -1 0 -1 0 -1 0 -1 0 -2 0 -1 0 -2 -1 -1 0 -1 0 -1 0 -2 0 -1 0 -2 0 -1 0 -2 0 0 -1 -1 0 -2c-16,-149 -67,-232 -253,-258 -141,-19 -403,-14 -635,16 -101,63 -197,148 -255,246 -18,30 -54,43 -87,31 -32,-12 -52,-45 -46,-79zm523 1423c55,231 112,629 -224,628 -417,-2 -659,-111 -917,-333l0 0c-52,-5 -434,-62 -430,-114 5,-53 50,-91 102,-87 118,9 236,14 355,11 3,-1 6,-1 8,-1 92,-3 185,-11 278,-26 200,-33 406,-98 619,-215 -25,-23 -36,-59 -27,-94 13,-50 65,-80 115,-67 63,17 101,30 144,61 42,30 76,65 107,102 34,40 29,99 -11,133 -35,30 -85,30 -119,2zm-140 338c-46,8 -91,7 -133,-6 -49,-15 -40,-88 11,-91 37,-2 74,-11 111,-24 -10,-70 -23,-130 -29,-155 -104,56 -217,109 -341,151 -86,28 -282,60 -408,77 -21,5 -33,9 -46,11 165,103 442,242 765,226 60,-3 74,-90 70,-189zm-353 -853c-59,108 -211,200 -326,215 -115,15 -275,-37 -360,-126 -16,-17 -17,-41 -4,-60 13,-18 37,-24 58,-15 86,41 197,46 290,34 92,-12 199,-45 272,-106 17,-15 42,-15 59,-1 18,15 22,39 11,59zm1236 -1275c25,3 49,5 71,6l0 -671c-57,31 -118,61 -182,89 -4,2 -8,3 -12,5 -54,64 -118,122 -190,175l313 396zm31 1065c-58,76 -135,135 -228,172 -111,44 -304,64 -478,58 -463,329 -990,706 -1528,298 -491,338 -941,173 -1195,-353 -91,-188 -144,-394 -177,-599l0 1c27,218 36,441 44,661 18,496 21,1002 86,1098 98,146 186,234 296,292 -2,-58 21,-97 47,-113 74,178 264,322 475,398 3,-38 19,-81 47,-79 237,269 654,376 825,376 171,0 588,-107 825,-376 29,-2 44,41 47,79 211,-76 401,-220 475,-398 26,16 49,55 47,113 110,-58 198,-146 296,-292 76,-112 68,-777 96,-1336zm-898 210c-19,-4 -37,-8 -54,-12 -255,-68 -331,-180 -453,-388 -55,-93 -195,-382 -336,-387 -140,9 -219,301 -254,396 -78,210 -131,323 -371,399 -182,57 -543,57 -727,-6 -75,-26 -143,-63 -204,-112 168,409 483,674 956,348 71,-49 165,-42 228,10 397,294 828,25 1215,-248zm-2714 -1216c18,0 37,-1 57,-2l347 -439c-80,-56 -150,-118 -208,-187 -7,-3 -13,-6 -15,-7 -63,-28 -124,-58 -181,-89l0 724zm3769 -792l8 1127c143,-73 366,-83 404,186 14,101 -5,211 -57,326 -63,138 -226,293 -374,344 -1,102 -2,205 -5,302 -13,437 13,830 -72,955 -90,135 -307,396 -477,374 -105,112 -399,319 -547,279 -233,182 -590,406 -823,406 -233,0 -589,-224 -822,-406 -46,13 -86,8 -130,-10 -168,-71 -295,-138 -418,-269l-112 -21 0 1c-153,-81 -264,-203 -365,-354 -85,-125 -46,-518 -60,-955 -3,-96 -6,-198 -10,-300 -150,-47 -318,-206 -382,-346 -52,-115 -71,-225 -57,-326 37,-263 251,-259 394,-190l16 -1124c-138,-87 -254,-182 -345,-283 -497,-555 -171,-1302 485,-1683 1593,-924 4336,7 4336,1114 0,201 -83,394 -240,569 -92,102 -208,197 -347,284zm-3868 1803c-8,-152 -18,-296 -33,-417 -75,-14 -129,51 -93,128l0 1c36,76 -37,130 -73,54l0 0c-63,-134 -37,-302 160,-303l0 -43c-99,-94 -397,-17 -219,361 45,95 156,184 258,219zm3877 -568l0 31c207,-5 235,166 171,303l0 0c-36,76 -109,22 -73,-54l0 -1c38,-81 -23,-148 -105,-125 -12,120 -17,263 -19,414 101,-36 211,-125 256,-219 185,-392 -144,-460 -230,-349zm-1953 -2486c342,0 619,277 619,619 0,342 -277,618 -619,618 -341,0 -618,-276 -618,-618 0,-342 277,-619 618,-619zm789 933c288,58 548,177 792,336 74,-32 143,-69 206,-108 -289,-189 -615,-338 -954,-433 -6,71 -21,140 -44,205zm45 -315c304,82 608,209 911,381 49,28 105,58 151,90 105,-76 194,-158 265,-238 1009,-1123 -2163,-2319 -3879,-1323 -551,320 -865,853 -442,1323 77,87 152,176 251,257 7,-5 15,-11 23,-16 46,-34 104,-65 154,-93 299,-170 598,-295 898,-377 3,-64 14,-128 32,-192 28,-96 133,-54 105,41 -125,437 242,873 697,873 458,0 822,-439 698,-873 -28,-95 77,-137 104,-41 18,63 29,126 32,188z"/>
   </g>
   <g>
    <path class="fil6" d="M1029 8727c-157,34 -299,51 -425,51 -126,0 -227,-16 -303,-47 -75,-31 -135,-81 -178,-149 -43,-68 -72,-148 -89,-240 -16,-92 -24,-208 -24,-347 0,-293 41,-496 123,-611 83,-115 234,-173 455,-173 128,0 276,20 443,61l-9 244c-147,-22 -269,-33 -366,-33 -97,0 -166,13 -208,39 -41,26 -72,75 -92,148 -20,72 -30,196 -30,371 0,175 20,297 61,364 41,68 122,101 245,101 122,0 252,-10 390,-31l7 252zm236 24l0 -1557 298 0 0 1557 -298 0zm647 -987c79,-101 210,-152 394,-152 184,0 315,51 394,152 78,102 118,245 118,429 0,390 -171,585 -512,585 -341,0 -512,-195 -512,-585 0,-184 40,-327 118,-429zm230 680c31,53 85,80 164,80 79,0 133,-27 164,-80 30,-53 45,-137 45,-251 0,-115 -15,-198 -45,-250 -31,-51 -85,-77 -164,-77 -79,0 -133,26 -164,77 -30,52 -45,135 -45,250 0,114 15,198 45,251zm1550 -805l298 0 0 1112 -296 0 0 -62c-106,59 -199,89 -278,89 -154,0 -258,-43 -311,-128 -54,-85 -80,-228 -80,-428l0 -583 298 0 0 587c0,110 9,185 26,225 18,40 61,60 129,60 66,0 127,-11 185,-31l29 -9 0 -832zm1520 -445l0 1557 -296 0 0 -47c-104,49 -194,74 -269,74 -162,0 -275,-47 -339,-140 -63,-94 -95,-242 -95,-444 0,-203 38,-350 114,-443 77,-93 192,-139 346,-139 48,0 114,7 198,22l43 9 0 -449 298 0zm-330 1290l32 -7 0 -585c-82,-15 -155,-22 -219,-22 -120,0 -180,107 -180,320 0,116 14,198 40,247 27,49 71,74 133,74 61,0 126,-9 194,-27z"/>
    <path class="fil7" d="M6473 8727c-157,34 -299,51 -425,51 -126,0 -227,-16 -302,-47 -76,-31 -135,-81 -178,-149 -43,-68 -73,-148 -89,-240 -17,-92 -25,-208 -25,-347 0,-293 41,-496 124,-611 82,-115 234,-173 455,-173 127,0 275,20 442,61l-9 244c-146,-22 -268,-33 -366,-33 -97,0 -166,13 -208,39 -41,26 -72,75 -92,148 -20,72 -30,196 -30,371 0,175 20,297 61,364 41,68 123,101 245,101 122,0 253,-10 390,-31l7 252zm1075 -741l0 462c3,36 9,61 18,75 8,14 27,24 55,30l-9 225c-75,0 -136,-5 -181,-16 -45,-10 -91,-31 -137,-62 -107,52 -216,78 -327,78 -230,0 -345,-122 -345,-365 0,-119 32,-203 96,-253 64,-49 162,-79 294,-88l238 -17 0 -69c0,-46 -11,-78 -32,-95 -20,-17 -54,-25 -100,-25l-418 17 -9 -207c159,-43 310,-64 453,-64 143,0 246,30 309,89 63,59 95,154 95,285zm-501 293c-83,8 -124,52 -124,134 0,81 36,122 109,122 56,0 117,-9 184,-26l34 -9 0 -238 -203 17zm786 939l0 -1579 295 0 0 60c97,-58 181,-87 254,-87 150,0 260,45 332,135 71,89 106,242 106,457 0,215 -39,364 -118,448 -78,84 -207,126 -387,126 -49,0 -101,-5 -158,-14l-26 -4 0 458 -298 0zm491 -1339c-55,0 -110,11 -167,33l-26 11 0 583c66,9 121,14 162,14 86,0 145,-26 177,-76 32,-50 48,-136 48,-258 0,-205 -65,-307 -194,-307zm1335 13l-274 0 0 456c0,45 2,76 4,95 2,18 10,34 24,48 14,13 36,20 66,20l169 -5 13 238c-99,23 -175,34 -227,34 -133,0 -224,-30 -273,-90 -49,-60 -74,-171 -74,-333l0 -463 -131 0 0 -253 131 0 0 -310 298 0 0 310 274 0 0 253zm1046 94l0 462c3,36 9,61 18,75 8,14 27,24 55,30l-9 225c-75,0 -136,-5 -181,-16 -45,-10 -91,-31 -137,-62 -107,52 -216,78 -327,78 -230,0 -345,-122 -345,-365 0,-119 32,-203 96,-253 64,-49 162,-79 294,-88l238 -17 0 -69c0,-46 -11,-78 -31,-95 -21,-17 -55,-25 -101,-25l-418 17 -9 -207c159,-43 310,-64 453,-64 143,0 246,30 309,89 63,59 95,154 95,285zm-501 293c-83,8 -124,52 -124,134 0,81 36,122 109,122 56,0 118,-9 184,-26l34 -9 0 -238 -203 17zm786 472l0 -1112 298 0 0 1112 -298 0zm0 -1255l0 -302 298 0 0 302 -298 0zm872 1255l-298 0 0 -1112 295 0 0 62c101,-59 194,-89 279,-89 148,0 250,44 307,131 56,88 84,223 84,405l0 603 -298 0 0 -594c0,-95 -11,-165 -33,-210 -23,-45 -67,-68 -134,-68 -61,0 -119,10 -176,31l-26 9 0 832z"/>
   </g>
  </g>
 </g>
</svg>
