<svg id="Calque_1" data-name="Calque 1" xmlns="http://www.w3.org/2000/svg" viewBox="0 0 708.66 1133.86"><path id="ear" d="M242.71,284s-11.4-4.6-20.1.8-11.9,29.1-4.5,39.5,15,22.9,23,23.9,17.2-1.6,17.2-1.6l-3.3-31.7Z" style="fill:#f2c2a0"/><path id="ear-2" data-name="ear" d="M461.91,284s11.5-4.6,20.1.8,11.9,29.1,4.5,39.4-15,22.8-23,23.8-17.2-1.6-17.2-1.6l3.3-31.6Z" style="fill:#f2c2a0"/><path id="neck" d="M414.77,409.8l-130,15.52v83.2l68.5-9.64L414.77,493Z" style="fill:#f2c2a0"/><path id="face" d="M347,125.45c69.7-1.1,109.2,34.3,125.6,86.6,20.2,64.3-9.4,137.5-33.7,179-9.9,17-18.8,33.6-34.5,44.7-10.6,7.5-25.5,12.1-40.6,14.8-19.1,3.4-45.2-4-55.8-10.3-37.9-22.4-67.7-95.9-78.8-146.5-5-22.8-4-55.3,2.1-75.9,11.9-40.5,34.3-69,71.8-83.7,9.2-3.6,19.7-5.4,30.4-7.4C337.91,126.25,342.51,125.85,347,125.45Z" style="fill:#f2c2a0"/><path id="eye" d="M301.21,270a23.2,23.2,0,1,1-23.2,23.2A23.22,23.22,0,0,1,301.21,270Z" style="fill:#fff"/><path id="pupill" d="M310.41,293a9.92,9.92,0,0,1-9.9,9.9,9.79,9.79,0,0,1-9-5.9,4.55,4.55,0,0,0,2,.5,4.1,4.1,0,1,0-2.4-7.4,9.86,9.86,0,0,1,19.3,2.9Z" style="fill:#306b8c"/><path id="eye-2" data-name="eye" d="M406.11,270a23.2,23.2,0,1,1-23.2,23.2A23.22,23.22,0,0,1,406.11,270Z" style="fill:#fff"/><path id="pupill-2" data-name="pupill" d="M415.31,293a9.92,9.92,0,0,1-9.9,9.9,9.79,9.79,0,0,1-9-5.9,4.55,4.55,0,0,0,2,.5,4.1,4.1,0,1,0-2.4-7.4,9.86,9.86,0,0,1,19.3,2.9Z" style="fill:#306b8c"/><path id="glasses" d="M342,293.75h25v10.3H342Z" style="fill:#333"/><path id="glasses-2" data-name="glasses" d="M334.71,261.75h-66.5A8.24,8.24,0,0,0,260,270v50.9a8.24,8.24,0,0,0,8.2,8.2h66.5a8.24,8.24,0,0,0,8.2-8.2V270A8.24,8.24,0,0,0,334.71,261.75Zm-1.8,52a6.15,6.15,0,0,1-6.2,6.1h-50.3a6.15,6.15,0,0,1-6.2-6.1v-37.7a6.15,6.15,0,0,1,6.2-6.1h50.3a6.15,6.15,0,0,1,6.2,6.1Z" style="fill:#333"/><path id="glasses-3" data-name="glasses" d="M438.51,261.75H372a8.24,8.24,0,0,0-8.2,8.2v50.9a8.24,8.24,0,0,0,8.2,8.2h66.5a8.24,8.24,0,0,0,8.2-8.2V270A8.24,8.24,0,0,0,438.51,261.75Zm-1.7,52a6.15,6.15,0,0,1-6.2,6.1h-50.3a6.15,6.15,0,0,1-6.2-6.1v-37.7a6.15,6.15,0,0,1,6.2-6.1h50.3a6.15,6.15,0,0,1,6.2,6.1Z" style="fill:#333"/><path id="eyebrows" d="M303,231.15c-24.7.5-39,8.6-39,16.9s13.1,6,23,2.1,22.8-3.6,28.3.4,17.1,5.2,17.6-3.3S311.41,231,303,231.15Z" style="fill:#333"/><path id="eyebrows-2" data-name="eyebrows" d="M403.61,231c24.7.5,39,8.5,39,16.8s-13.1,6-23,2.1-22.9-3.6-28.3.4-17.2,5.1-17.7-3.3S395.21,230.75,403.61,231Z" style="fill:#333"/><path id="mounth" d="M321.91,383.65s8.3,14.5,31.6,14,31.2-14,31.2-14-15.2-4.9-27.5-4.9c-5.3,0-10.7,2.9-17.7,4.1S321.91,383.65,321.91,383.65Z" style="fill:#f2c2a0"/><path id="mounth-2" data-name="mounth" d="M321,384.52s8.3,14.5,31.6,14,31.2-14,31.2-14-15.2-4.9-27.5-4.9c-5.3,0-10.7,2.9-17.7,4.1S321,384.52,321,384.52Z" style="fill:#d9a191"/><g id="g6131"><path id="path6129" d="M253.75,348.52l2.3,16c16.8,51.4,66,65.6,92.2,66.4,1,0,1.5-32.8,1.5-32.8-1.5,0,6.4-.3,6.8,0,0,0,.6,32.6,1.1,32.6,24.5-1.1,73-12.5,88.9-61.1l2.2-21.1c.4-1.5,11.9-47.9,13-43.6-.4,3.4-.8,6.8-1.3,10.2,0,0-2.5,29.6-4.3,42.7-.5,5.3-.9,9.9-1.3,13.5-2.5,20.2-8,26.7-12.8,34.2a.1.1,0,0,1-.1.1c-15.8,19.6-36.1,31.7-43.7,40.4-10.4,12-33.1,12.7-38.7,12.4-5.2-.2-7.9-.4-8.2-.4h-.1c-.4,0-3,.2-8.2.4-5.6.3-28.3-.4-38.7-12.4-7.7-8.8-27.9-20.9-43.7-40.4a.1.1,0,0,0-.1-.1c-4.9-7.5-10.4-14-12.8-34.2-.4-3.6-.8-8.3-1.3-13.5-1.9-13.1-4.3-42.7-4.3-42.7-.4-3.4-.8-6.8-1.3-10.2C241.85,300.52,253.45,347,253.75,348.52Z" style="fill:#333"/></g><g id="g6135"><path id="path6133" d="M354.75,359c10.9-.1,49,14,46.4,17.9h0c-8.2,10.1-30.4-10.9-46.9-10.1-27,1.4-38.7,20.2-46.9,10.1h0C304.75,373,341.65,359.12,354.75,359Z" style="fill:#333"/></g><path d="M447.09,179.13c6.23,7.4-9.93,40,7.79,78.34,10.85,23.47-6.77,28.42,4.86,65.37,0,0,19.73-31,26.75-68.2,14.32-75.78-1.32-83.9-14.28-93.56C461.59,153.15,447.09,179.13,447.09,179.13Z" style="fill:#333"/><path d="M257.42,179.13c-6.23,7.4,9.93,40-7.79,78.34-10.85,23.47,6.77,28.42-4.85,65.37,0,0-19.74-31-26.76-68.2-14.32-75.78,1.31-83.9,14.27-93.56C242.93,153.15,257.42,179.13,257.42,179.13Z" style="fill:#333"/><path d="M323.92,87.66c-13.1-9.92-25.43-59.21,10.56-65.62S389.14,42.9,372.4,86.45,323.92,87.66,323.92,87.66Z" style="fill:#333"/><path d="M352.25,190.54c-58.23,0-56.88-20.74-82.32-14-8.36,2.2-9.36,5.2-13.54,4.71-10.3-1.2-21-8.69-25.35-17.61-7.12-14.42,23.5-82.81,121.21-83.48Z" style="fill:#333"/><path d="M352.25,190.54c58.23,0,56.9-20.74,82.33-14,8.36,2.2,9.36,5.2,13.54,4.71,10.3-1.2,19-9.95,25.35-17.61,11-13.28-21.26-87.9-121.22-83.48Z" style="fill:#333"/><path d="M346.85,185.87l-1-.62A10.84,10.84,0,0,1,343.4,183a36.24,36.24,0,0,1-3.08-4.17,47.42,47.42,0,0,1-3.21-5.89c-1.13-2.19-2-4.71-3.06-7.32-.85-2.68-1.94-5.46-2.59-8.47a93.52,93.52,0,0,1-1.95-9.26c-.58-3.18-.8-6.46-1.18-9.72-.06-3.28-.37-6.55-.21-9.78a85.35,85.35,0,0,1,.63-9.45,64.55,64.55,0,0,1,1.36-8.73,76.74,76.74,0,0,1,1.82-7.7c.68-2.36,1.36-4.49,2-6.38.76-1.83,1.41-3.44,2-4.75l1.76-4.1-1.18,4.31c-.39,1.35-.87,3-1.41,4.89-.38,1.93-.82,4.1-1.36,6.45a74.13,74.13,0,0,0-1.27,7.66c-.48,2.71-.62,5.62-.87,8.6s-.24,6.09-.33,9.23.22,6.34.3,9.52c.34,3.18.51,6.38,1,9.48s.94,6.17,1.64,9.09,1.41,5.72,2.06,8.4c.87,2.59,1.55,5.13,2.51,7.32a50.53,50.53,0,0,0,5.11,10.37,12.46,12.46,0,0,0,2.11,2.47Z" style="fill:#121316"/><path d="M320.91,89.35s-.19.26-.53.77A14,14,0,0,0,319,92.36,25.75,25.75,0,0,0,317.34,96c-.64,1.43-1.07,3.16-1.72,5s-1.14,3.85-1.56,6-.89,4.45-1.28,6.82-.62,4.84-1,7.33c-.17,2.52-.51,5.06-.51,7.62s-.19,5.12-.09,7.64.23,5,.36,7.39.55,4.68.77,6.88c.41,2.17.79,4.22,1.14,6.11l1.31,5.11A36.67,36.67,0,0,0,316,165.8c.71,2.17,1.11,3.41,1.11,3.41L315.41,166a37.54,37.54,0,0,1-1.77-3.74c-.59-1.48-1.29-3.15-1.91-5l-1.7-6.15c-.41-2.23-1-4.56-1.27-7s-.66-5-.65-7.59-.14-5.23,0-7.87.42-5.25.64-7.84c.39-2.56.73-5.1,1.29-7.5a62.3,62.3,0,0,1,1.8-6.89c.62-2.17,1.44-4.17,2.11-6a38.78,38.78,0,0,1,4.57-8.4,10.43,10.43,0,0,1,1.74-2Z" style="fill:#121316"/><path d="M312.52,181.67a26.73,26.73,0,0,1-2.34-1.78,41.21,41.21,0,0,1-5.43-5.65,59.08,59.08,0,0,1-6.06-9.29,64.37,64.37,0,0,1-4.75-11.83,68.35,68.35,0,0,1-2.42-12.5,56.21,56.21,0,0,1-.26-5.84c.05-1.86,0-3.61.14-5.23a55.54,55.54,0,0,1,1.06-7.71l.6-2.89s0,1.07,0,3,.05,4.52.13,7.67c0,1.58.24,3.29.37,5.09s.54,3.66.73,5.61a89.28,89.28,0,0,0,2.68,12c.53,2,1.24,4,1.94,5.92s1.44,3.81,2.28,5.57a74,74,0,0,0,5,9.49,63.89,63.89,0,0,0,4.4,6.23Z" style="fill:#121316"/><path d="M287.72,103.37l-.74,2.84c-.51,1.8-1,4.42-1.7,7.52s-1.24,6.76-1.7,10.67c-.32,1.95-.35,4-.6,6s-.22,4.15-.24,6.23-.08,4.19.17,6.22.22,4.08.6,6a55.05,55.05,0,0,0,1,5.55,37.44,37.44,0,0,0,1.29,4.9c.53,1.48,1,2.87,1.34,4.1l1.35,3.05c.74,1.73,1.15,2.72,1.15,2.72s-.61-.88-1.69-2.41L286.05,164c-.6-1.17-1.28-2.49-1.95-4a39.9,39.9,0,0,1-1.85-4.92,33.84,33.84,0,0,1-1.49-5.69,44.71,44.71,0,0,1-.91-6.23c-.29-2.14-.18-4.31-.29-6.49A78,78,0,0,1,280.82,124a86.91,86.91,0,0,1,2.74-10.71A59.52,59.52,0,0,1,287.72,103.37Z" style="fill:#121316"/><path d="M259.87,114.28a42.84,42.84,0,0,0-3,9,57.32,57.32,0,0,0-1.35,9.54c-.19,1.74-.05,3.56-.09,5.4s.26,3.7.42,5.57c.31,1.84.49,3.71.9,5.51s.76,3.6,1.26,5.29,1,3.34,1.5,4.89,1.12,3,1.63,4.31c.92,2.72,2,4.85,2.68,6.41s1,2.46,1,2.46-.59-.76-1.56-2.15a48.19,48.19,0,0,1-3.8-5.95c-.69-1.29-1.47-2.67-2.19-4.2s-1.28-3.22-2-4.93-1.09-3.59-1.59-5.47-.7-3.85-1.06-5.8a50.58,50.58,0,0,1,.05-11.61,37.63,37.63,0,0,1,1-5.25,39.43,39.43,0,0,1,1.42-4.55,36.55,36.55,0,0,1,3.16-6.36A17.15,17.15,0,0,1,259.87,114.28Z" style="fill:#121316"/><path d="M237.19,145.05a33.61,33.61,0,0,0,.85,5.77,42.51,42.51,0,0,0,1.61,5.56c.33,1,.79,2,1.23,3a31.77,31.77,0,0,0,1.5,3c.54,1,1.15,1.92,1.72,2.86s1.27,1.79,1.89,2.65c1.35,1.63,2.6,3.19,3.81,4.43s2.21,2.31,2.94,3,1.13,1.19,1.13,1.19-.55-.22-1.48-.69a25,25,0,0,1-3.78-2.16,30.66,30.66,0,0,1-4.75-4c-.74-.87-1.53-1.75-2.27-2.7s-1.37-2-2-3.08a35.47,35.47,0,0,1-1.55-3.32,21.83,21.83,0,0,1-1.08-3.39,23.28,23.28,0,0,1-.75-6.19A18.13,18.13,0,0,1,237.19,145.05Z" style="fill:#121316"/><path d="M348.74,97.47s.17.29.46.84a23.6,23.6,0,0,1,1.22,2.44,78.42,78.42,0,0,1,3.41,9.16c1.1,3.88,2.45,8.41,3.37,13.37A150.62,150.62,0,0,1,359.47,139c.25,2.68.42,5.37.51,8s0,5.27.08,7.8A134.28,134.28,0,0,1,359,168.53a91.13,91.13,0,0,1-1.88,9.58l-.94,3.56.33-3.67c.35-2.31.41-5.66.71-9.63.05-2,.1-4.14.16-6.43s-.07-4.68-.11-7.16c-.19-5-.37-10.27-.94-15.55s-1.13-10.54-1.86-15.47-1.53-9.5-2.34-13.41-1.54-7.17-2.26-9.37S348.74,97.47,348.74,97.47Z" style="fill:#121316"/><path d="M363.18,84.59l3.51,3c1.05,1,2.14,2.51,3.5,4.11a54.72,54.72,0,0,1,3.68,6,64.55,64.55,0,0,1,3.19,7.65,62.26,62.26,0,0,1,2.49,8.91c.57,3.14,1.14,6.42,1.42,9.77.13,1.68.26,3.37.4,5.06l.08,5.12c.06,3.42-.37,6.82-.59,10.17-.5,3.32-.76,6.62-1.5,9.74l-.95,4.61c-.44,1.47-.86,2.92-1.27,4.32-.75,2.83-1.79,5.41-2.67,7.8a52.56,52.56,0,0,1-2.83,6.35,40.89,40.89,0,0,1-2.53,4.71l-2.42,4,1.87-4.24a39.2,39.2,0,0,0,2-4.91c.66-1.93,1.55-4,2.22-6.47a79.16,79.16,0,0,0,2.12-7.79c.7-2.78,1.23-5.76,1.75-8.83s.83-6.29,1.26-9.54c.14-3.26.48-6.58.37-9.9l0-5c-.09-1.65-.19-3.29-.28-4.92-.2-3.27-.69-6.45-1.18-9.52s-1.13-6-2-8.73a62.85,62.85,0,0,0-2.61-7.59c-1.05-2.23-2.05-4.3-3-6.06s-2-3.19-2.95-4.32Z" style="fill:#121316"/><path d="M395.31,89.35l.79.6c.51.41,1.32.93,2.21,1.75s1.89,2,2.89,3.41a31.88,31.88,0,0,1,2.95,5,51.47,51.47,0,0,1,2.64,6.3,59.58,59.58,0,0,1,2,7.33,69.9,69.9,0,0,1,1.28,8c.39,2.75.37,5.56.54,8.37-.12,2.81,0,5.62-.36,8.38a66.55,66.55,0,0,1-1.08,8,62.39,62.39,0,0,1-1.71,7.38c-.57,2.34-1.48,4.45-2.11,6.45a53.41,53.41,0,0,1-2.29,5.24,35.94,35.94,0,0,1-2.07,3.88l-2,3.26s.52-1.28,1.42-3.53a35.25,35.25,0,0,0,1.54-4.06c.46-1.62,1.16-3.37,1.68-5.36s1.18-4.11,1.56-6.43.92-4.73,1.2-7.27.6-5.16.78-7.83.15-5.4.25-8.12c-.14-2.71-.08-5.44-.42-8.1s-.55-5.28-1-7.79-.94-4.93-1.52-7.19a47.89,47.89,0,0,0-2.06-6.23,46.71,46.71,0,0,0-2.32-5c-.77-1.46-1.67-2.57-2.31-3.59C396.27,90.35,395.31,89.35,395.31,89.35Z" style="fill:#121316"/><path d="M426,174.43s.66-1,1.67-2.76c.42-.94,1.05-1.95,1.53-3.29s1.1-2.78,1.63-4.43a84.32,84.32,0,0,0,2.9-11.43,108.47,108.47,0,0,0,1.69-13.37c.13-2.29.22-4.58.19-6.84s-.05-4.47-.34-6.6-.43-4.19-.77-6.13a44.87,44.87,0,0,0-1.21-5.42c-.36-1.7-1-3.13-1.43-4.49a19.89,19.89,0,0,0-1.39-3.37l-1.35-2.93s.69.95,1.88,2.63a19,19,0,0,1,1.93,3.19,26.59,26.59,0,0,1,2.06,4.4,46,46,0,0,1,1.77,5.49,39.13,39.13,0,0,1,1.29,6.31,68.5,68.5,0,0,1,.54,14,82.5,82.5,0,0,1-2.13,13.77,68.09,68.09,0,0,1-4,11.48,33.07,33.07,0,0,1-2.23,4.31c-.69,1.27-1.54,2.27-2.09,3.13a18.09,18.09,0,0,1-1.59,1.77Z" style="fill:#121316"/><path d="M444.45,174.43s2.36-1.7,5.53-4.49a68.7,68.7,0,0,0,5.12-5c.92-.91,1.7-2,2.57-3s1.55-2.21,2.31-3.32a29.39,29.39,0,0,0,1.85-3.56,21.54,21.54,0,0,0,1.3-3.65,16.51,16.51,0,0,0,.71-3.56,15.82,15.82,0,0,0,.22-3.3c-.06-1,0-2-.05-2.85s-.25-1.59-.35-2.2c-.17-1.23-.24-2-.24-2s.33.63.84,1.8l.9,2.13a22.13,22.13,0,0,1,.71,2.93,12.53,12.53,0,0,1,.34,3.59c0,.65,0,1.32,0,2s-.23,1.36-.34,2.06a18.66,18.66,0,0,1-1.2,4.2,30.73,30.73,0,0,1-2,4c-.87,1.21-1.68,2.49-2.64,3.59a29,29,0,0,1-3,3.07,36.48,36.48,0,0,1-6,4.48A33,33,0,0,1,444.45,174.43Z" style="fill:#121316"/><path d="M337.34,26.79s-.43.82-1.25,2.22c-.24.73-.53,1.61-.87,2.62-.16,1.1-.46,2.27-.62,3.59a63,63,0,0,0-.38,9.11c.06,3.34.31,6.92.73,10.48s.92,7.12,1.55,10.42,1.37,6.35,2.06,9a50.8,50.8,0,0,0,2.19,6.15c.74,1.38,1.15,2.24,1.15,2.24s-.64-.64-1.75-1.87a35.22,35.22,0,0,1-3.53-5.78,55.52,55.52,0,0,1-3.22-9,73.31,73.31,0,0,1-2-10.73A67.33,67.33,0,0,1,331,44.27a40.75,40.75,0,0,1,1.54-9.49A29.75,29.75,0,0,1,334,31.17l1.57-2.6C336.66,27.42,337.34,26.79,337.34,26.79Z" style="fill:#121316"/><path d="M349.53,23.51s.84.38,2.22,1.18a23.29,23.29,0,0,1,4.91,4.65,35,35,0,0,1,4.85,8.22,40.18,40.18,0,0,1,1.79,5.09c.57,1.76.83,3.62,1.23,5.45a52.44,52.44,0,0,1,.44,5.57,32.12,32.12,0,0,1-.24,5.4,33.81,33.81,0,0,1-.87,5,44.83,44.83,0,0,1-1.37,4.31,31.46,31.46,0,0,1-3.14,5.91c-.89,1.33-1.44,2-1.44,2s.27-.89.82-2.37a47.15,47.15,0,0,0,1.78-6.2,54.1,54.1,0,0,0,1.05-8.9,42.45,42.45,0,0,0-.08-5c0-1.72-.35-3.44-.52-5.17a55.61,55.61,0,0,0-6-18.15,27.91,27.91,0,0,0-3.62-5.23C350.19,24.14,349.53,23.51,349.53,23.51Z" style="fill:#121316"/><path d="M365.71,33.36s.66.51,1.73,1.51a23.72,23.72,0,0,1,3.54,5,41.93,41.93,0,0,1,4.79,17.9,39.26,39.26,0,0,1-.83,10,24.48,24.48,0,0,1-1.3,4.42A29.41,29.41,0,0,1,372,75.92a19.25,19.25,0,0,1-1.85,2.93,13.81,13.81,0,0,1-1.68,2.06l-1.58,1.67,1.21-2a13.31,13.31,0,0,0,1.29-2.25c.38-.93,1-1.87,1.38-3A27.65,27.65,0,0,0,372,71.61a35,35,0,0,0,.88-4.27,42.78,42.78,0,0,0,.5-4.64c.08-1.58.09-3.21,0-4.82a59.54,59.54,0,0,0-1.19-9.44c-.42-1.47-.64-2.94-1.1-4.26a28.78,28.78,0,0,0-1.31-3.72,31.64,31.64,0,0,0-2.66-5.27C366.22,34,365.71,33.36,365.71,33.36Z" style="fill:#121316"/><path d="M326.29,39.92s-.16.74-.51,2c-.08.62-.18,1.38-.3,2.25s-.06,1.88-.11,3A111.15,111.15,0,0,0,326.72,63,125.15,125.15,0,0,0,330,78.66a45,45,0,0,0,1.74,5c.59,1.13.9,1.84.9,1.84S332,85,331.1,84A28,28,0,0,1,328,79.45a42.35,42.35,0,0,1-2.9-7.22,56.7,56.7,0,0,1-2.58-17.55,40,40,0,0,1,.78-7.77,23.07,23.07,0,0,1,1.82-5.27C325.84,40.53,326.29,39.92,326.29,39.92Z" style="fill:#121316"/><path d="M475.52,180.26s.55.76,1.44,2.11a39.21,39.21,0,0,1,3,6.12,63.67,63.67,0,0,1,3.7,20.19,91.48,91.48,0,0,1-.35,11,92.56,92.56,0,0,1-1.38,9.43,84.45,84.45,0,0,1-2.37,9s0-.94.14-2.55.21-3.92.42-6.66.3-6,.4-9.37.13-7.06,0-10.68A105.6,105.6,0,0,0,478.18,189a56.47,56.47,0,0,0-1.77-6.36C475.82,181.14,475.52,180.26,475.52,180.26Z" style="fill:#121316"/><path d="M462.12,187.37a43.62,43.62,0,0,1,3.38,5.74,50.47,50.47,0,0,1,4.32,14,84,84,0,0,1,1,14.53c-.08,4-.41,6.62-.41,6.62s-.19-.65-.44-1.78-.62-2.75-1-4.69c-.74-3.88-1.47-9.06-2.33-14.17a138.14,138.14,0,0,0-2.88-13.91c-.51-1.9-.93-3.49-1.22-4.6S462.12,187.37,462.12,187.37Z" style="fill:#121316"/><path d="M229,180.26s-.3.88-.89,2.4a56.47,56.47,0,0,0-1.77,6.36,105.6,105.6,0,0,0-2.27,19.77c-.16,3.62-.08,7.26,0,10.68s.27,6.61.4,9.37.25,5,.42,6.66.14,2.55.14,2.55a84.45,84.45,0,0,1-2.37-9,92.56,92.56,0,0,1-1.38-9.43,93.57,93.57,0,0,1-.36-11,63.94,63.94,0,0,1,3.71-20.19,41.1,41.1,0,0,1,3-6.12C228.44,181,229,180.26,229,180.26Z" style="fill:#121316"/><path d="M242.38,187.37s-.13.65-.45,1.77-.72,2.7-1.22,4.6a140.76,140.76,0,0,0-2.89,13.91c-.85,5.11-1.58,10.29-2.32,14.17-.34,1.94-.75,3.56-1,4.69s-.44,1.78-.44,1.78-.33-2.65-.42-6.62a85.11,85.11,0,0,1,1-14.53,50.47,50.47,0,0,1,4.32-14A43,43,0,0,1,242.38,187.37Z" style="fill:#121316"/><path d="M221.53,183.86s-.17.54-.54,1.45-.71,2.21-1.12,3.78a84.26,84.26,0,0,0-2,11.62c-.48,4.27-.77,8.6-1,11.89-.08,1.64-.28,3-.31,4s-.17,1.54-.17,1.54a39.93,39.93,0,0,1-1.34-5.45,45.57,45.57,0,0,1-.34-12.33,34,34,0,0,1,3.46-11.93,22.2,22.2,0,0,1,2.29-3.45C221.12,184.25,221.53,183.86,221.53,183.86Z" style="fill:#121316"/><path d="M473.47,163.59a37.08,37.08,0,0,1-3.86,5.65,48.45,48.45,0,0,1-11.18,10.27,41.68,41.68,0,0,1-7.26,3.92,34.28,34.28,0,0,1-3.59,1.32,22.53,22.53,0,0,1-3.32.92,33.15,33.15,0,0,1-5.09.88l-1.95.24-.11-4.23,1.78-.05a30.86,30.86,0,0,0,4.72-.36,18.93,18.93,0,0,0,3.12-.54,28.73,28.73,0,0,0,3.44-.9,40.25,40.25,0,0,0,7.17-3,46.84,46.84,0,0,0,11.77-8.9A37.8,37.8,0,0,0,473.47,163.59Z" style="fill:#f2c2a0"/><path d="M231,163.59a37.08,37.08,0,0,0,3.86,5.65,48.45,48.45,0,0,0,11.18,10.27,41.68,41.68,0,0,0,7.26,3.92,34.28,34.28,0,0,0,3.59,1.32,22.76,22.76,0,0,0,3.31.92,33.45,33.45,0,0,0,5.1.88l2,.24.1-4.23-1.78-.05a30.66,30.66,0,0,1-4.71-.36,18.86,18.86,0,0,1-3.13-.54,28.73,28.73,0,0,1-3.44-.9,39.94,39.94,0,0,1-7.17-3,47,47,0,0,1-11.77-8.9A37.8,37.8,0,0,1,231,163.59Z" style="fill:#f2c2a0"/><path d="M521.34,691.08l.35.47c.15-1.73.28-3.31.4-4.77h0l64.54,111.67,114.74-38.74S627.29,613.83,593.85,560.89a107.81,107.81,0,0,0-20.11-33,99,99,0,0,0-27.36-22.16,135.68,135.68,0,0,0-29-12.46c-15.76-4.74-38.87-5.57-59.25-12.91-8.89-3.2-34.37-16.24-34.37-16.24L418,459.64l.46-.44L419.82,444c-1.36-2.44-5.07-1.09-5.07-1.09v1.42A89.7,89.7,0,0,1,383.9,466,121.07,121.07,0,0,1,354.05,473c-12.19.49-42.49-.72-69.24-21.59v-6s-3.71-1.35-5.07,1.09l1.34,15.24-6.61,2.38h0s-25.36,13-34.37,16.24c-20.26,7.34-43,10.07-59.25,12.91-23.39,4.06-51.34,18.27-65.49,48.33a87.51,87.51,0,0,0-11.83,23.17c-8.4,29.3-93.82,199.88-93.82,199.88L116,803.83,169.1,710C177,780.75,193,936.52,187.25,989.44c-7.58,69.32-23.23,112.69,13.87,118.5s313.44-19.55,345-29.27,6.16-31.29-17.3-156-13-199.57-13-199.57ZM414.75,445.22v3.66l-.08.06Z" style="fill:#3d4251"/><path d="M516.63,723.21l5.58-32.07.36.47c.14-1.73.27-3.31.39-4.77l2.38-13.69.55,1.1c3.14-11.07,5.91-22.24,8.72-33.4,3.06-12.13,6.14-24.26,9.62-36.28a367.25,367.25,0,0,1,12-35.52,194.82,194.82,0,0,1,16.31-32.22c1.37-2.14,2.8-4.22,4.28-6.28q-1.11-1.34-2.25-2.61a99,99,0,0,0-27.36-22.16,135.47,135.47,0,0,0-29-12.46c-15.76-4.74-38.87-5.57-59.25-12.91-8.89-3.2-34.37-16.24-34.37-16.24l-5.76-4.47.46-.44L420.69,444c-1.35-2.44-5.07-1.09-5.07-1.09v1.43a89.77,89.77,0,0,1-30.85,21.73,121.07,121.07,0,0,1-29.85,6.95c-12.19.49-42.49-.72-69.24-21.58v-6s-3.71-1.35-5.06,1.09L282,461.79l-6.61,2.38S250,477.21,241,480.41c-20.26,7.34-43,10.07-59.25,12.91-23.39,4.06-51.34,18.27-65.49,48.33-.67.94-1.33,1.91-2,2.89A224.51,224.51,0,0,1,126.65,567a374.25,374.25,0,0,1,15.12,36.47c4.62,12.84,8.72,25.87,12.48,39,3.64,12.68,7,25.45,10.09,38.27,2.8,11.52,5.44,23.08,8,34.65.23,1-1.08,1.38-1.69.76,8.11,73.29,23.09,221.9,17.46,273.33-7.58,69.32-23.22,112.69,13.87,118.5s311.08,2.58,342.61-7.14,8.51-53.42-15-178.08S516.63,723.21,516.63,723.21Zm-101-274.27-.08.06.08-3.72Z" style="fill:#363a47"/><g id="tie"><path id="tie-2" data-name="tie" d="M367.52,512.36s-88.3-48.36-95.08-16.74-14.58,55.71,8.67,59.52S367.52,512.36,367.52,512.36Z" style="fill:#3373aa"/><path id="tie-3" data-name="tie" d="M352.31,505.15c24.72-13.52,73.52-36.92,79.74-13.56,8.41,31.38,17.51,55.1-5.55,60.24-16.19,3.56-53.3-16.87-73.86-29.27C352.23,507.16,352.65,520.25,352.31,505.15Z" style="fill:#4189c6"/></g><path id="sleeve" d="M699.05,773c-2,13-35.84,92.78-35.84,92.78L603,1006.27s-64.58,40-54.47-23.69c30.3-48.64,61.09-221.05,61.09-221.05S700.93,760,699.05,773Z" style="fill:#eac6ad"/><path id="hand" d="M553.16,976.47s-62.61,32.33-67.28,47.5-13.22,40.32,0,51.5c13.06,11.17,67.36,30.56,83.12,17.46s36.72-91,36.72-91Z" style="fill:#f2c2a0"/><path d="M594.15,974.68c-.63,1-1.19,1.83-1.69,2.55a5.54,5.54,0,0,1-1.33,1.44,7.16,7.16,0,0,1-1.27.67,2.75,2.75,0,0,1-1.42,0,2.07,2.07,0,0,1-1.17-.56,4.11,4.11,0,0,1-.6-1.08,8.24,8.24,0,0,1-.29-1.42c-.07-.51-.15-1-.22-1.54a1.77,1.77,0,0,1-.08-.51,4.43,4.43,0,0,0-.34-1.28,12.78,12.78,0,0,1-.3-1.74c-.14-.7-.21-1.22-.36-1.92s-.21-1.22-.29-1.73a12.79,12.79,0,0,1-.15-1.35,2.19,2.19,0,0,1,0-.65l.25-.52c.06-.13.25-.2.45-.27a.81.81,0,0,1,.51-.07c.19-.07.32,0,.51-.07s.32,0,.45,0l.14.06c.32,0,.52.25.71.5a2.3,2.3,0,0,1,.28.77L589,976.85l4.81-7.76a1.08,1.08,0,0,1,.37-.46c.26-.2.32-.33.51-.4a2,2,0,0,1,.77-.27,2.8,2.8,0,0,1,.83-.08,1.74,1.74,0,0,1,.72.5,1.28,1.28,0,0,1,.15,1,3.57,3.57,0,0,1-.42,1.24c-.19.39-.57.85-.75,1.24-.38.45-.57.84-.94,1.3A7.93,7.93,0,0,0,594.15,974.68Z" style="fill:#333"/><path d="M603.23,965a10,10,0,0,1-3.32-1.42A15.57,15.57,0,0,1,597,961a13.78,13.78,0,0,1-2.2-3.43,10.36,10.36,0,0,1-1-4.17c-.76.6-1.52,1.19-2.22,1.66a20.93,20.93,0,0,1-2.36,1.27,18.88,18.88,0,0,1-2.24.69,5.45,5.45,0,0,1-2.06,0,16,16,0,0,1-2.47-.85,11.09,11.09,0,0,1-2-1.25,8.69,8.69,0,0,1-1.52-1.51,12.25,12.25,0,0,1-1.06-1.79,11.92,11.92,0,0,1-.55-1.85,7.17,7.17,0,0,1,0-1.74,5.88,5.88,0,0,1,1-2.08,5.62,5.62,0,0,1,2.28-1.47,13.61,13.61,0,0,1,3.66-.65,26.86,26.86,0,0,1,5,.61c1.42.36,2.71.65,3.82,1l3.43,1.15c.38-.45.89-.85,1.27-1.31a11.86,11.86,0,0,1,1.32-1.44c.06-.13.25-.2.32-.33s.31-.33.37-.46a.82.82,0,0,1,.45-.27l.38-.13.26.12c.13.06.07.19.2.25l.14.39.07.19a2.58,2.58,0,0,1,0,.64,6,6,0,0,1-.61,1.63,14,14,0,0,1-1.25,2c1.43.68,2.8,1.49,4,2.24a26.84,26.84,0,0,1,3.14,2.45c.85.89,1.58,1.71,2.3,2.53.54.89,1.13,1.66,1.53,2.48a6.34,6.34,0,0,1,.63,2.38,5.67,5.67,0,0,1,0,2.06,4.79,4.79,0,0,1-.87,1.82,3.94,3.94,0,0,1-1.52,1.19,5.83,5.83,0,0,1-2.18.56C605.17,965.25,604.26,965.14,603.23,965Zm1.48-3.12a3.41,3.41,0,0,0,2.13-.11,1.33,1.33,0,0,0,.87-1.18,4,4,0,0,0-.29-2,10,10,0,0,0-1.8-2.61,23.23,23.23,0,0,0-3.4-2.89,26.4,26.4,0,0,0-5.34-2.86l-.38.46a10.29,10.29,0,0,0,1.33,5.25,12.46,12.46,0,0,0,1.46,2.29,8.39,8.39,0,0,0,1.84,1.83,13.11,13.11,0,0,0,1.9,1.38C603.61,961.48,604.13,961.73,604.71,961.85Zm-20.33-8.55a4.48,4.48,0,0,0,2.06,0,9.72,9.72,0,0,0,2.3-.82A12.46,12.46,0,0,0,591,951c.76-.6,1.59-1.32,2.41-2-1.1-.36-2.34-.79-3.63-1.08s-2.72-.66-4.14-1a18.59,18.59,0,0,0-2.52-.4,8,8,0,0,0-1.8.1,1.7,1.7,0,0,0-1.09.61,1.2,1.2,0,0,0-.43.91c0,.32,0,.64,0,1a3.72,3.72,0,0,0,.47,1,3,3,0,0,0,.79,1l1,.94a3.81,3.81,0,0,0,1.11.69A3.94,3.94,0,0,0,584.38,953.3Z" style="fill:#333"/><path d="M599.15,921.89l2.73,1.3a11.65,11.65,0,0,0,2.33.79,2.81,2.81,0,0,0,1.48-.1c.39-.13.57-.52.69-1.11a1.28,1.28,0,0,0-.08-.83,2.43,2.43,0,0,0-.41-1.15,5,5,0,0,0-.74-1.47,20.88,20.88,0,0,0-1.19-1.84l.38-.14a2.8,2.8,0,0,1,.83-.08,4.72,4.72,0,0,0,1.42-.29,14.63,14.63,0,0,1,1.33,2.23,9.51,9.51,0,0,1,.88,2.17,11,11,0,0,1,.36,1.93,3.72,3.72,0,0,1-.1,1.55,2.88,2.88,0,0,1-.68,1.43,5.78,5.78,0,0,1-1.14,1.05,4.39,4.39,0,0,1-1.53.55,7.3,7.3,0,0,1-2-.16c-.26-.12-.58-.11-1-.3a4.24,4.24,0,0,0-1.24-.43l-1.43-.68-1.69-.8c-.1,1.23-.27,2.26-.32,3.36a24.81,24.81,0,0,1-.38,3.16c.65.31,1.36.81,2,1.12a8.51,8.51,0,0,1,1.7,1.13,8.3,8.3,0,0,0,1.5.87c.52.25.85.56,1.24.75a5.26,5.26,0,0,1,1.64,1.57,2.46,2.46,0,0,1,.41,1.16l-.25.52c-.06.13-.31.32-.37.45s-.26.2-.58.21a.71.71,0,0,1-.64,0l-.39-.18a37.4,37.4,0,0,1-3.52-2l-3.2-2a4,4,0,0,1-.42,1.23,4.29,4.29,0,0,1-.69,1.11,4.13,4.13,0,0,1-1,.79,6.16,6.16,0,0,1-1.34.48c-.13-.06-.32,0-.45-.06a.5.5,0,0,0-.32,0c-.46-.05-.52-.25-.53-.57a1,1,0,0,1,.38-.46,1.45,1.45,0,0,0,1.32-1.76c.05-.45.24-.84.29-1.3l.24-1.16a16.36,16.36,0,0,0-2.09-1.31c-.72-.5-1.37-.81-2-1.25l-1.3-.62c-.39-.18-.84-.24-1.23-.43-.32,0-.58-.11-.91-.11a2,2,0,0,0-.7.15,1,1,0,0,0-.51.39l-.37.78a2.08,2.08,0,0,0-.11.91,4.44,4.44,0,0,0,.22,1.22,7.3,7.3,0,0,0,.41,1.47,13,13,0,0,0,.75,1.79c.06.19.26.44.2.57a.54.54,0,0,1-.05.46l-.39.13c-.19.07-.45-.05-.9-.11a2,2,0,0,1-1.17-.55,5.22,5.22,0,0,1-.93-1.08,3.91,3.91,0,0,1-.6-1.41,7.9,7.9,0,0,1-.36-1.6,5.83,5.83,0,0,1-.09-1.48,4.55,4.55,0,0,1,.16-1.35,7,7,0,0,1,.62-1.63,2.78,2.78,0,0,1,1.07-1.24A4.51,4.51,0,0,1,586,927a4.38,4.38,0,0,1,2.2.09,4.46,4.46,0,0,1,1.36.48l1.69.81,2,.93c.65.3,1.37.81,2.15,1.18.11-.91.28-1.94.46-3a26.61,26.61,0,0,0,.44-3.29q-1.85-1.12-4.1-2.43c-1.37-.81-2.68-1.75-4.18-2.62a6.94,6.94,0,0,1-1-.95,1.64,1.64,0,0,1-.22-1.22l.25-.52a.53.53,0,0,1,.31-.33c.19-.07.26-.2.45-.26s.32,0,.64,0a6.69,6.69,0,0,1,.71.18l.79.37a10.17,10.17,0,0,1,1.56,1.07c.46.37,1.11.68,1.7,1.12a11,11,0,0,0,1.89,1.06c.65.31,1.24.75,1.89,1.06.12-.58.17-1,.23-1.49a5.25,5.25,0,0,1,.11-.9c.06-.13.06-.13,0-.32l.12-.27c.13-.26.06-.45.25-.52a.51.51,0,0,1,.32-.32c.06-.13.19-.07.38-.14s.32,0,.45.06l.39.18a.31.31,0,0,1,.14.38l.14.39a.46.46,0,0,0,0,.32,1.11,1.11,0,0,1,0,.45c-.06.13-.06.13.07.19l-.07.13-.06.13a.47.47,0,0,0,0,.33c-.06.13,0,.32-.12.58s-.12.58-.11.9A6.15,6.15,0,0,0,599.15,921.89Z" style="fill:#333"/><path d="M608.74,905.4a13,13,0,0,1,.16,1.67,7.9,7.9,0,0,0,.36,1.6c.07.52.14,1,.22,1.55a2.25,2.25,0,0,1-.11,1.22,1.18,1.18,0,0,1-.43.91,1.07,1.07,0,0,1-.77.27c-.26-.12-.58-.11-.65-.3-.26-.13-.32-.32-.58-.44-.07-.2-.33-.32-.4-.51s-.2-.25-.14-.38l-1.28-9.38-4.59,8.66c-.13.26-.38.45-.5.71a.89.89,0,0,1-.84.08l-.13-.06-.39-.18-.39-.19a1,1,0,0,1-.46-.38c-.13-.06-.2-.25-.27-.44a.78.78,0,0,1,0-.64l.25-.53a3.45,3.45,0,0,1,.62-1c.19-.39.57-.85.81-1.37s.63-1,1-1.44.57-.85.95-1.31c.18-.39.5-.72.62-1s.19-.39.32-.32a6.33,6.33,0,0,0,.81-1.37,4.22,4.22,0,0,1,.81-1,7,7,0,0,1,.83-.73,2.31,2.31,0,0,1,1.15-.08,5.06,5.06,0,0,1,1.37.49,2.59,2.59,0,0,1,.92,1.07,12.81,12.81,0,0,1,.68,1.92A10.66,10.66,0,0,0,608.74,905.4Z" style="fill:#333"/><path d="M602.65,743.6s55.08-68,98.75,14.58c0,0,5.16,15.59-12.61,73l-28.92,81.41L558.55,876.79l14.36-31.37Z" style="fill:#3d4251"/><path id="sleeve-2" data-name="sleeve" d="M109.26,825S175.49,983.29,219,1030.16c26.35,68.21-50.56,39-50.56,39L71,927.35h0C65.85,913.43,109.26,825,109.26,825Z" style="fill:#eac6ad"/><path id="hand-2" data-name="hand" d="M150,1033.28s1.14,69.66,13,81.09,31.06,31.08,47.38,25.18,58.9-43,54.05-63-67-76.08-67-76.08Z" style="fill:#f2c2a0"/><path d="M126.88,781.05s-143.58-98.43-117,35.09c4.89,24.6,66.49,132.18,66.49,132.18l91.35-42.61L116,803.83Z" style="fill:#3d4251"/></svg>