<svg xmlns="http://www.w3.org/2000/svg" viewBox="0 0 708.66 1133.86"><g style="isolation:isolate"><g id="Calque_1" data-name="Calque 1"><ellipse cx="314.87" cy="513.9" rx="85.03" ry="14.26" style="fill:#666"/><path d="M430.27,555.82c-4.88-29.57-8.73-46.05-42.66-57.36-34.71-11.56-105.22-11.56-139.93,0-33.94,11.31-37.8,27.57-39.76,57.36-4.16,62.95-26.34,248.08-18.85,296.83,4.69,30.59,24.67,58.11,58.61,69.42,34.71,11.57,104.13,11.57,138.84,0,33.94-11.31,60.08-39,62.23-69.42C452.41,801.07,438.76,607.26,430.27,555.82Z" style="fill:#f7f6f5;fill-rule:evenodd"/><path d="M314.84,499.64c45.67,0,82.75,6.39,82.75,14.26s-37.08,14.26-82.75,14.26-82.74-6.39-82.74-14.26S269.18,499.64,314.84,499.64Z" style="fill:#696969;fill-rule:evenodd"/><path d="M260.24,500.64q3.18,2,6.49,3.77c-5.82.78-11.62,1.78-17.38,3.09-5.19,1.19-11.18,2-14.55,5.68a3.47,3.47,0,0,0-.25.29c-1,1.43,4.63,4.1,10.41,5.72,22.73,6.36,47.12,6.76,71,6.71,23.21,0,46.8-.55,68.82-6.71,3.69-1,7.88-1.89,10.26-4.67l.17-.24a2.53,2.53,0,0,0,.13-.22c.72-1.8-4.44-3.55-8.38-4.8a136.7,136.7,0,0,0-20.62-4.72c2.26-1,4.45-2.11,6.59-3.29,4.19.78,8.37,1.72,12.52,2.85,7,1.92,16.28,5,14.2,11.34-1.75,5.27-9.49,7.06-15.59,8.62-22.35,5.7-45.83,6.36-69.17,6.36-24.66,0-49.85-.2-73.18-7.49-5.15-1.61-11.63-3.66-11.82-8.86s7.55-8.07,14.17-9.89A156.31,156.31,0,0,1,260.24,500.64Z" style="fill:#ccc"/><path d="M399.72,515h-5.19c.16-.16.31-.33.46-.49l.17-.24a2.53,2.53,0,0,0,.13-.22c.72-1.8-4.44-3.55-8.38-4.8a136.7,136.7,0,0,0-20.62-4.72c2.26-1,4.45-2.11,6.59-3.29,4.19.78,8.37,1.72,12.52,2.85C392.27,506,401.26,509,399.72,515ZM260.24,500.64q3.18,2,6.49,3.77c-5.82.78-11.62,1.78-17.38,3.09-5.19,1.19-11.18,2-14.55,5.68a3.47,3.47,0,0,0-.25.29c-.29.42,0,1,.69,1.54H230a5.63,5.63,0,0,1-.11-.94c-.19-5.22,7.55-8.07,14.17-9.89A156.31,156.31,0,0,1,260.24,500.64Z" style="fill:#3d4251"/><path d="M403.52,507.67c8.76.19-7.91-2.67,0,0A84.77,84.77,0,0,1,461.1,588v125l.56,335.18a766.78,766.78,0,0,1-142,14.09c-3.94,0-7.88,0-11.82,0a798.47,798.47,0,0,1-141.35-14.07V849.61h-.12V588a84.86,84.86,0,0,1,57.4-80.22c.91-.31,4.95-1.54,5.87-1.81l-3.13.94,1.13,6.73,4.77,28.57H410l2.51-31.47" style="fill:#f7f6f5"/><path d="M461.67,918.8v39.49c-37.79,9.25-156.38,32.21-295.21-1.77V920.94C200.15,926.09,361.6,948.39,461.67,918.8Z" style="fill:#ccc"/><path d="M461.66,1000.78v49.49c-37.79,9.25-156.37,32.2-295.2-1.78v-45.58C200.15,1008.06,361.6,1030.37,461.66,1000.78Z" style="fill:#ccc"/><path d="M463,851.58v15.5c-38,9.24-157.08,32.2-296.53-1.78V853.72C200.3,858.87,362.47,881.18,463,851.58Z" style="fill:#666"/><path d="M463,1030.44v25.49c-38,9.25-157.08,32.2-296.53-1.78v-21.58C200.3,1037.72,362.47,1060,463,1030.44Z" style="fill:#ccc"/><path d="M166.33,718.56l.1.1.15-.32Z" style="fill:none"/><path d="M68,656.86C56.42,671.3,43.48,687.45,33.68,702c-11.92,17.69-13.18,38.27-3.47,57.27L118,760c-1.88-4.24,6.41-.64,8.1-5,1.77-4.5,5.8-7.63,9.61-10.6,1.61-1.25,3.2-2.51,4.79-3.78C119.73,723.85,83.49,675.39,68,656.86Z" style="fill:#f7f6f5"/><path d="M166.33,718.56l.25-.22c2.65-6,41.85-96.23,22-186.65.57-.69,1.15-1.36,1.74-2l-.13-.68a1024.8,1024.8,0,0,0-98.78,99.6q-6.72,7.8-13.39,15.86c4.43-5.36,8.91-10.66,13.39-15.86C108.59,653.7,147.37,700.33,166.33,718.56Z" style="fill:#f7f6f5"/><path d="M150.66,732.31c-3.53,2.91-6.92,5.67-10.11,8.32Q145.67,736.55,150.66,732.31Z" style="fill:#f7f6f5"/><path d="M140.51,740.67l0,0,0,0Z" style="fill:#ccc"/><path d="M78.07,644.45Q73,650.6,68,656.86h0Q73,650.61,78.07,644.45Z" style="fill:#ccc"/><path d="M150.66,732.31c5.05-4.17,10.37-8.66,15.77-13.65l-.1-.1Q158.61,725.58,150.66,732.31Z" style="fill:#ccc"/><path d="M91.46,628.59c-4.48,5.2-9,10.5-13.39,15.86Q73,650.6,68,656.86h0c15.53,18.53,51.77,67,72.55,83.81l0,0c3.19-2.65,6.58-5.41,10.11-8.32q8-6.73,15.67-13.75C147.37,700.33,108.59,653.7,91.46,628.59Z" style="fill:#ccc"/><path d="M203.52,909.19l1.21,0-.19,0A8.66,8.66,0,0,0,203.52,909.19Z" style="fill:#ccc"/><path d="M223.74,507.74c-12.05,4.85-24.29,11.78-33.37,21.93-.59.66-1.17,1.33-1.74,2,19.8,90.42-19.4,180.69-22,186.65l-.15.32,0,51.05C240.18,682.55,230.73,553.55,223.74,507.74Z" style="fill:#666"/><path d="M482.37,692.66c10.42,6.89,20.57,13.1,29.28,18.22,17.79-20,43-61.07,55.3-81.87-9.13-8.24-18.47-16.31-27.77-24.1C526.31,632.51,498.11,671.67,482.37,692.66Z" style="fill:#ccc"/><path d="M560.54,737.38a64.56,64.56,0,0,0-12.46-2.79c-.61,1.33-49,108.1-80.94,133.72a91.29,91.29,0,0,1-3.05-10.92S516.91,785.2,534.2,738.6a15.61,15.61,0,0,0,.91-4.07c0-.2,0-.38,0-.58a15.32,15.32,0,0,0-5.49-12.47C538.92,721.88,551.55,725,560.54,737.38Z" style="fill:#000032;opacity:0.15"/><rect x="242.18" y="657.31" width="150.4" height="110.37" rx="5.9" style="fill:#ccc"/><rect x="278.4" y="653.51" width="77.94" height="117.97" rx="2.75" transform="translate(1029.87 395.12) rotate(90)" style="fill:#fff"/><rect x="330.25" y="712.38" width="39.07" height="5.8" rx="0.56" style="fill:#ccc"/><rect x="330.25" y="683.85" width="39.07" height="22.71" rx="0.56" style="fill:#666"/><rect x="330.25" y="723.46" width="39.07" height="5.8" rx="0.56" style="fill:#ccc"/><rect x="330.25" y="734.54" width="39.07" height="5.8" rx="0.56" style="fill:#ccc"/><g id="g10"><path d="M261.74,525a137.42,137.42,0,0,0,16.32,1.84c9.9.68,19.81,1.06,29.72,1.69s19.53,2.07,29.36,2c4.72,0,9.43-.28,14.13-.62,4.46-.31,8.94-.5,13.27-1.7,5.91-1.64,11.63-4.33,17.64-5.41a68.08,68.08,0,0,1-7.77-3.74c-19.4-11.1-16.3-66.4-16.3-66.4h-83.7s3.1,55.4-16.3,66.4a67.64,67.64,0,0,1-7.64,3.72C254.24,523.41,258,524.25,261.74,525Z" style="fill:#f2c2a0"/></g><g id="g14"><path id="path12" d="M270.91,497.62h0c22.5-4.2,66-18.1,87.2-33.9v-6.6a6.15,6.15,0,0,1,.1-1.3v-3.2h-83.7C274.51,452.52,275.91,477.82,270.91,497.62Z" style="fill:#e2b698"/></g><path d="M182.79,298.07s-20.1-31.2,3-78.3c24.8-50.7,59.9-84.7,128.3-84.7s107.8,34,132.7,84.7c23.1,47.1,3.4,78.3,3.4,78.3,31.1-6.2,25.3,27.8,15.5,43.1-8,12.7-8.2,14.1-13.1,28.1-6.9,20.2-23,6.2-23,6.2-9.3,25.9-15.9,32-53.1,66.3-32.4,29.8-43.7,29.5-60.1,29.5s-27.4.4-60.1-29.5c-37.3-34.1-43.8-40.4-53.1-66.3,0,0-16.1,14-23-6.2-4.9-14-5-15.4-13.1-28.1C157.49,325.77,151.69,291.87,182.79,298.07Z" style="fill:#f2c2a0"/><path id="eye" d="M264.89,295.17a23.2,23.2,0,1,1-23.2,23.2A23.22,23.22,0,0,1,264.89,295.17Z" style="fill:#fff"/><path id="pupill" d="M274.19,318.17a9.92,9.92,0,0,1-9.9,9.9,9.79,9.79,0,0,1-9-5.9,3.61,3.61,0,0,0,2,.6,4.1,4.1,0,0,0,0-8.2,3.85,3.85,0,0,0-2.4.8,9.9,9.9,0,0,1,9.4-7A9.71,9.71,0,0,1,274.19,318.17Z" style="fill:#1c4911"/><path id="eye-2" data-name="eye" d="M369.89,295.17a23.2,23.2,0,1,1-23.2,23.2A23.22,23.22,0,0,1,369.89,295.17Z" style="fill:#fff"/><path id="pupill-2" data-name="pupill" d="M379.19,318.17a9.92,9.92,0,0,1-9.9,9.9,9.79,9.79,0,0,1-9-5.9,3.61,3.61,0,0,0,2,.6,4.1,4.1,0,0,0,0-8.2,3.85,3.85,0,0,0-2.4.8,9.9,9.9,0,0,1,9.4-7A9.71,9.71,0,0,1,379.19,318.17Z" style="fill:#1c4911"/><path id="eyebrows" d="M264.49,266.07c-24.7.5-36.3,6.7-39.6,12.5-4.1,7.3,6.9,4,16.8.1s26.3-6.6,36.4-2.6,15.8,6.8,15.8,1.7C291.19,272.67,279.49,266.07,264.49,266.07Z" style="fill:#dd9b31"/><path id="eyebrows-2" data-name="eyebrows" d="M334.59,277.77c0,5.2,5.8,2.3,15.8-1.7s26.6-1.3,36.4,2.6,20.9,7.2,16.8-.1c-3.3-5.9-14.9-12-39.6-12.5C349.09,266.07,337.29,272.67,334.59,277.77Z" style="fill:#944a24"/><path id="mounth" d="M287.84,403.42c-11.6-4,11,18.6,29.3,18s41.4-25.3,26.2-17.9c-5,2.4-12-14.1-21.2-8.9-6.6,3.7-3.4,5.4-9.4-.2C304.64,388.72,296.14,406.22,287.84,403.42Z" style="fill:#ea1818"/><path d="M352.36,398.35c-12.13,3.68-10.24,2.6-15.12.51-2.65-2.14-5.58-4.31-8.79-5a5.81,5.81,0,0,0-5.76.5l-.62.27a29.55,29.55,0,0,0-4.84,2.95,18.53,18.53,0,0,0-4.55-2.95,9.71,9.71,0,0,0-3-.93c-2.4-.89-4.25-.1-6.39,1.24a25.74,25.74,0,0,0-4,2.52c-4.9,2.84-2.25,5.37-16.94.91-13.43-4,12.69,23.66,33.89,23.06l1.1-.06c.36,0,.73,0,1.09.06C339.67,422,365.79,394.35,352.36,398.35Z" style="fill:#d8352a"/><path d="M412.51,510.69c138,2.46,302.87,139.37,272,182.45-35.74,49.8-149.87-31.55-234-40.1C397.75,647.68,412.51,510.69,412.51,510.69Z" style="fill:#f7f6f5"/><path d="M579.39,565.13c0,.69-32.92,112.86-32.92,112.86l-25.25-12.53,28.06-116.94S563.07,555.07,579.39,565.13Z" style="fill:#ccc"/><path d="M463,858.74l-11.84,1.81,0-.32c-8.71-63-15.6-128.28-20.75-184.24a130.94,130.94,0,0,0-38.82,193.63c-1.61.25,23.29,29.71,56.28,43.11h.07l0,0c1.86.76,3.73,1.49,5.62,2.16l10.76,3.46,3.48-8.44Z" style="fill:#ccc"/><ellipse cx="495.71" cy="777.63" rx="132.01" ry="133.28" transform="translate(-405.3 974.14) rotate(-69.79)" style="fill:#ccc"/><path d="M588.14,683.24a131.38,131.38,0,0,1-114.35,130.4,134.08,134.08,0,0,1-111.07-36.59,131.43,131.43,0,0,0,1.18,18.27c10.29,72.34,77.65,123.06,150.45,113.28s123.48-76.33,113.18-148.67A132.07,132.07,0,0,0,588.14,683.24Z" style="fill:#ccc"/><path d="M477.07,646.65C404.27,656.42,353.6,723,363.9,795.32S441.55,918.38,514.35,908.6s123.48-76.33,113.18-148.67S549.88,636.88,477.07,646.65ZM514,906c-71.32,9.57-137.32-40.12-147.41-111S406.12,658.87,477.45,649.3s137.33,40.12,147.41,111S585.3,896.38,514,906Z" style="fill:#ccc"/><path d="M594.63,763c9.65,67.8-34.12,129.69-97.77,138.24S373.8,861.76,364.15,794s34.12-129.69,97.77-138.23S585,695.22,594.63,763Z" style="fill:#3d4251"/><ellipse cx="479.05" cy="779.41" rx="109.08" ry="114.49" transform="translate(-158.26 123.05) rotate(-12.58)" style="fill:#4189c6"/><path d="M461.92,655.73C398.27,664.27,354.5,726.16,364.15,794c.41,2.87.94,5.69,1.52,8.49a128.16,128.16,0,0,1,9.48-59.5c12.16-40.15,45.44-71.17,88.24-76.91s83.49,15.34,106.4,50.78a129.9,129.9,0,0,1,25.75,54.78c-.22-2.85-.5-5.71-.91-8.58C585,695.22,525.57,647.18,461.92,655.73Z" style="fill:#f7f6f5"/><path d="M533.63,689.8c40.34,38.3,45.91,102.13,12.79,145.9-32,42.33-89.81,52-134.18,22.74,21.89,20.78,51.92,31.85,83.15,27.66,55.94-7.51,94.54-61.12,86.19-119.73A110,110,0,0,0,533.63,689.8Z" style="fill:#529bba"/><path d="M528.32,686.91a98.87,98.87,0,0,0-64.05-13.37c-55.65,7.47-94,60.79-85.73,119.09a110.93,110.93,0,0,0,16.37,44.31C475.61,841.1,538,769.29,528.32,686.91Z" style="fill:#3373aa"/><path d="M398.79,722.58c-17.08,27-14.59,58.16-1.32,74.9,12,15.12,46.32,18,80.45-31.66,27.89-40.59,22.76-65.58,5.13-75.46C461.14,678.08,419.91,689.13,398.79,722.58Z" style="fill:#3373aa"/><path d="M404,732.49c3.13,2.84,10.36-.54,16.15-7.54s7.93-15,4.8-17.84-10.36.54-16.15,7.55S400.91,729.65,404,732.49Z" style="fill:#72b2e8"/><path d="M392.72,763.43c2.44,1.06,6.12-2.55,8.22-8.06s1.82-10.83-.63-11.89-6.12,2.55-8.21,8.06S390.28,762.37,392.72,763.43Z" style="fill:#72b2e8"/><path d="M489,845.69c-45.54,6.11-88.77-17.09-112.16-55.59.12,1,.21,2,.35,3,8.43,59.24,61.1,101.11,117.64,93.52s95.53-61.77,87.1-121c-.14-1-.33-2-.5-3C569.63,805.85,534.5,839.57,489,845.69Z" style="fill:#529bba;opacity:0.2;mix-blend-mode:screen"/><path d="M599.74,785s2.61,30,13.7,25.16c13.09-5.69,10-25.82,10-25.82Z" style="fill:#ad95ba;opacity:0.2;mix-blend-mode:multiply"/><path d="M624.87,781c-1.48,10.18-8.31,17.57-15.26,16.52s-11.39-10.16-9.92-20.34S608,759.56,615,760.62,626.35,770.78,624.87,781Z" style="fill:#ad95ba"/><path d="M615,760.62l10.6,4.21-3.73,28.49-7.11,3.46S605.51,774.08,615,760.62Z" style="fill:#ad95ba"/><path d="M631.42,780.32c-1.17,8.06-6.57,13.92-12.08,13.08s-9-8-7.85-16.1,6.58-13.91,12.08-13.08S632.59,772.27,631.42,780.32Z" style="fill:#d4bbd8"/><path id="hand" d="M564.87,856.6s-55.87-3.86-71.07,9.47S452.53,901,456,918.24s37,61.32,60.6,55.07,77.09-65.24,77.09-65.24Z" style="fill:#3d4251"/><path d="M260.24,500.64q3.18,2,6.49,3.77c-5.82.78-11.62,1.78-17.38,3.09-5.19,1.19-11.18,2-14.55,5.68a3.47,3.47,0,0,0-.25.29c-1,1.43,4.63,4.1,10.41,5.72,22.73,6.36,47.12,6.76,71,6.71,23.21,0,46.8-.55,68.82-6.71,3.69-1,7.88-1.89,10.26-4.67l.17-.24a2.53,2.53,0,0,0,.13-.22c.72-1.8-4.44-3.55-8.38-4.8a136.7,136.7,0,0,0-20.62-4.72c2.26-1,4.45-2.11,6.59-3.29,4.19.78,8.37,1.72,12.52,2.85,7,1.92,16.28,5,14.2,11.34-1.75,5.27-9.49,8.06-15.59,9.62-22.35,5.7-45.83,6.36-69.17,6.36-24.66,0-49.85-.2-73.18-7.49-5.15-1.61-11.63-4.66-11.82-9.86s7.55-8.07,14.17-9.89A156.31,156.31,0,0,1,260.24,500.64Z" style="fill:#ccc"/><path d="M399.72,515h-5.19c.16-.16.31-.33.46-.49l.17-.24a2.53,2.53,0,0,0,.13-.22c.72-1.8-4.44-3.55-8.38-4.8-6.7-2.13-16-3.71-23-4.78l-1.81-5.66c4.2.78,19.19,4.15,23.34,5.28C392.27,506,401.26,509,399.72,515ZM270.24,499.64a34,34,0,0,1-1.51,4.67c-5.82.78-13.62,1.88-19.38,3.19-5.19,1.19-11.18,2-14.55,5.68a3.47,3.47,0,0,0-.25.29c-.29.42,0,1,.69,1.54H230a5.63,5.63,0,0,1-.11-.94c-.19-5.22,7.55-8.07,14.17-9.89C249.34,502.7,262.08,499.64,270.24,499.64Z" style="fill:#3d4251"/><path d="M326.23,290.14a.85.85,0,0,0,0-.17A.85.85,0,0,1,326.23,290.14Z" style="fill:#944a24"/><path d="M214.92,267.34l4.85-8.47c-.21.34-.43.69-.63,1C217.69,262.36,216.29,264.84,214.92,267.34Z" style="fill:#944a24"/><path d="M212.8,294.51h0c6.14-.66,15.08-1.62,25.88-2.81l3.92-.46c-1.31.16-2.61.32-3.92.46C227.88,292.89,218.94,293.85,212.8,294.51Z" style="fill:#944a24"/><path d="M255,289.44l-3,.49Z" style="fill:#944a24"/><path d="M233.13,235.54l-3.72,10.8,3.72-10.81Z" style="fill:#944a24"/><path d="M389.42,116.46a26.6,26.6,0,0,0,1.78-10.4h0a27.92,27.92,0,0,1-2,10.29Z" style="fill:#944a24"/><path d="M228,119.06c0-.4,0-.8-.06-1.21C227.89,118.25,227.91,118.66,228,119.06Z" style="fill:#753816"/><path d="M391.2,106.06c0-13.27-12.2-24.16-12.2-24.16h0c6.57,6.56,11.9,14.73,12.2,24.16Z" style="fill:#753816"/><path d="M318.85,157c25.88-3.31,62.17-18.37,70.57-40.55l-.22-.11C380.44,138.6,344.77,153.69,318.85,157Z" style="fill:#944a24"/><path d="M258.28,109.77l8.41-24.41,41.81,12,26.63-13.81,29.19,12.3L379,81.9c-10.12-10.1-23.16-16.35-25.37-17.38-2-3.15-14.31-21.58-36.36-24.5C294.18,37,269.83,52.16,259.57,78c-11.11,7.08-32.21,22.63-31.68,39.89a22.49,22.49,0,0,1,.15-3Z" style="fill:#944a24"/><path d="M460.21,205.16c-5.44-17.26-16.8-53.43-52-78a116.39,116.39,0,0,0-18.77-10.68l-.22-.11a156.48,156.48,0,0,0-27.83-9.15c-13.38-3.34-54.32-12.93-99.7,5.2a146.42,146.42,0,0,0-30.35,16.51c-27,19.14-41.87,43.2-49.41,55.45-31.7,51.48-30.32,103.34-28.61,124h0V308c3.25-.73,6-2.83,8.71-4.9,22.82-17.38,40.55-44,57.61-66.71,12.13-16.12,24-32.45,35.43-49.07l-10.91,83.51c59.23-17.18,122.42-92.53,122.42-92.53s2.46,25.42,1.64,44.28,32-40.18,32-40.18l43.07,75.1s10.07-31.64,16.11-55l.84,2.63q.81,2.61,1.48,5.32A52.08,52.08,0,0,0,460.21,205.16Z" style="fill:#944a24"/><path d="M336.78,270c.93-1.72,1.79-3.33,2.57-4.8C338.57,266.62,337.71,268.23,336.78,270Z" style="fill:#944a24"/><path d="M251.17,290.06l-3.81.56Z" style="fill:#944a24"/><path d="M258.9,288.73l-2.87.53Z" style="fill:#944a24"/><path d="M339.35,265.15c4.18-7.92,6.34-12.44,7.5-15C345.69,252.71,343.53,257.23,339.35,265.15Z" style="fill:#944a24"/><path d="M246.79,290.69l-3.37.45C244.56,291,245.68,290.85,246.79,290.69Z" style="fill:#944a24"/><path d="M348.07,247.22l-.23.59c-.09.21-.19.46-.31.73.12-.27.22-.52.31-.73Z" style="fill:#944a24"/><path d="M326.46,291.7a1.5,1.5,0,0,1-.26-1.43,1.5,1.5,0,0,0,.26,1.43c.92.95,3.46.16,6.36-1.26C329.92,291.86,327.38,292.65,326.46,291.7Z" style="fill:#944a24"/><path d="M344.46,283.26c-.46.33-2,1.4-4,2.7,2-1.3,3.5-2.37,4-2.7,12.87-9.25,32-26.94,48.66-61.84h0C376.46,256.32,357.33,274,344.46,283.26Z" style="fill:#944a24"/><path d="M405.25,258.23q2.63,7.06,5.6,14.34h0Q407.87,265.3,405.25,258.23Z" style="fill:#944a24"/><path d="M456.82,291.06c-.52,1.56-1.05,3.1-1.61,4.6.07-.16.16-.32.22-.49A43,43,0,0,0,456.82,291.06Z" style="fill:#944a24"/><path d="M333.9,289.89l-1.08.55Z" style="fill:#944a24"/><path d="M354,228.68c-.33,1.39-.75,3-1.25,4.84.5-1.8.92-3.45,1.26-4.84Z" style="fill:#944a24"/><path d="M231.32,128.91a146.42,146.42,0,0,1,30.35-16.51c45.38-18.13,86.32-8.54,99.7-5.2a156.48,156.48,0,0,1,27.83,9.15,27.92,27.92,0,0,0,2-10.29c-.3-9.43-5.63-17.6-12.2-24.16l-14.68,14L329.48,67.79l-21,29.6-41.81-12-8.41,24.41L228,114.89a22.49,22.49,0,0,0-.15,3c0,.41,0,.81.06,1.21A22.72,22.72,0,0,0,231.32,128.91Z" style="fill:#753816"/><path d="M462.17,212.62c0-.16-.07-.31-.11-.47-.12-.59-.25-1.15-.37-1.67q-.68-2.72-1.48-5.32l-.84-2.63c-6,23.35-16.11,55-16.11,55l-43.07-75.1s-32.79,59-32,40.18-1.64-44.28-1.64-44.28-63.19,75.35-122.42,92.53l10.91-83.51c-11.43,16.62-23.3,32.95-35.43,49.07-17.06,22.67-34.79,49.33-57.61,66.71-2.72,2.07-5.46,4.17-8.71,4.9v.3l1,41.78C156.42,376,153.07,400.29,136,421,103.3,460.7,131.87,478,131.87,478s-3-7.58-1-25.71c1.91-17.53,23.06-31.15,34-43.11,8-8.74,15.12-18,19.13-29.27,4.12-11.54,5.55-23.82,7.33-35.88,1.42-9.53,2.23-19.14,3.93-28.63a102.69,102.69,0,0,1,9.45-28.34c3.34-6.62,6.68-13.26,10.25-19.76,1.37-2.5,2.77-5,4.22-7.43.2-.35.42-.7.63-1,4.64-7.61,10.44-14.86,13.36-23.34l-3.72,10.81q-8.31,24.09-16.61,48.17c6.14-.66,15.08-1.62,25.88-2.81,1.31-.14,2.61-.3,3.92-.46l.82-.1,3.37-.45.57-.07,3.81-.56.81-.13,3-.49,1.08-.18,2.87-.53c.84-.15,1.67-.31,2.48-.48,37.6-7.4,73.36-23.94,92.65-59.57-.34,1.39-.76,3-1.26,4.84-.81,2.88-1.86,6.22-3.22,9.91-.46,1.23-.95,2.49-1.48,3.79l-.23.59c-.09.21-.19.46-.31.73l-.36.84c-.1.22-.2.47-.32.73-1.16,2.6-3.32,7.12-7.5,15-.78,1.47-1.64,3.08-2.57,4.8l-.2.37c-6.35,11.76-9.63,17.12-10.31,19.65a.85.85,0,0,1,0,.17.5.5,0,0,1,0,.13c-.57,1.88-.78,2.42-.78,2.42a35.14,35.14,0,0,0,7.4-2.25l1.08-.55c.88-.46,1.76-1,2.64-1.47s1.48-.88,2.18-1.33L340.5,286c2-1.3,3.5-2.37,4-2.7,12.87-9.25,32-26.94,48.66-61.84,2.74,9.58,6,19.72,9.75,30.29q1.15,3.24,2.38,6.52,2.63,7.06,5.6,14.34c6.53,15.93,17.85,42.09,24.69,55a59.33,59.33,0,0,1,3.42-5.38c5-7.26,10.69-14.38,14.48-22.45a113.24,113.24,0,0,0,8.09-26.15c.63-3.18,1.17-6.38,1.65-9.59C465.69,247.09,465.93,229.41,462.17,212.62Z" style="fill:#753816"/><path d="M423.24,666.28,450.44,653s-34.88-61.6-14.4-140.69c-13.49-4.22-19-3.05-31.84-7.41C397.21,543.66,389.09,613.25,423.24,666.28Z" style="fill:#666"/><g id="tie"><path id="tie-2" data-name="tie" d="M328.85,565s-70-39-75.5-13.9-12,44.22,6.51,47.4S328.85,565,328.85,565Z" style="fill:#3373aa"/><path id="tie-3" data-name="tie" d="M316.78,559.09c19.69-10.64,58.67-28.9,63.43-10.32,6.51,25,13.58,43.9-4.76,47.79-12.86,2.78-42.24-13.73-58.59-23.73C316.62,560.68,316.94,571.08,316.78,559.09Z" style="fill:#4189c6"/></g><polygon points="231.37 505.92 227.91 513.1 225.88 507.07 240.29 501.2 231.37 505.92" style="fill:#f7f6f5"/><path id="hand-2" data-name="hand" d="M193.3,897.24s52.83,23.64,61.1,43.35,22.67,52.47,12.09,66.74-60.58,38.75-79.48,21.42-42.41-97.92-42.41-97.92Z" style="fill:#3d4251"/><path d="M143.94,934.28a54.23,54.23,0,0,0,14.94-2.17c4.62-1.28,29.16-14.64,35.62-22.31,2.05-2.44,8.75-9,8.75-9S200.3,887,196.69,879.9q-18.18-35.65-36.35-71.31c-2.41-4.71-4.82-9.44-7.29-14.15-10.43-19.93-46.27-81.32-61.63-97.65-18.22-19.37-60-18.93-66.6,31.68-1.36,10.44,1.56,21,5.39,30.79C40.87,786.67,58.39,810.5,74.35,835Z" style="fill:#f7f6f5"/><path d="M688.57,681.51c-5-57.76-85.91-36.85-85.63-15.21a72.69,72.69,0,0,0,.2,10.4c-1.24,47.68-24.85,129.53-45.74,173-7.1,14.77,24.82,63.89,36.26,58.39C593.66,908.07,690.63,807.21,688.57,681.51Z" style="fill:#f7f6f5"/><polygon points="302.88 693.78 294.19 698.8 302.88 703.82 302.88 693.78" style="fill:#4695eb"/><polygon points="285.49 693.78 285.49 703.82 294.19 698.8 285.49 693.78" style="fill:#ff004a"/><polygon points="302.88 703.82 294.19 698.8 285.49 703.82 294.19 708.84 302.88 703.82" style="fill:#091313"/><polygon points="276.32 709.66 285.02 714.68 285.02 704.64 276.32 709.66" style="fill:#4695eb"/><polygon points="285.02 724.72 293.71 719.7 285.02 714.68 285.02 724.72" style="fill:#ff004a"/><polygon points="285.02 704.64 285.02 714.68 293.71 719.7 293.71 709.66 285.02 704.64" style="fill:#091313"/><polygon points="303.35 724.72 303.35 714.68 294.66 719.7 303.35 724.72" style="fill:#4695eb"/><polygon points="312.05 709.66 303.35 704.64 303.35 714.68 312.05 709.66" style="fill:#ff004a"/><polygon points="294.66 719.7 303.35 714.68 303.35 704.64 294.66 709.66 294.66 719.7" style="fill:#091313"/><path d="M313.06,683.85H275.32a9.4,9.4,0,0,0-9.37,9.37V731a9.39,9.39,0,0,0,9.37,9.37h25.84l-7-16.94-5.06,10.7H275.32a3.17,3.17,0,0,1-3.13-3.13V693.22a3.17,3.17,0,0,1,3.13-3.12h37.74a3.16,3.16,0,0,1,3.12,3.12V731a3.17,3.17,0,0,1-3.12,3.13h-8.19l2.57,6.24h5.62a9.39,9.39,0,0,0,9.36-9.37V693.22A9.39,9.39,0,0,0,313.06,683.85Z" style="fill:#4695eb"/></g></g></svg>