<svg width="1500" height="350" viewBox="0 0 1500 350" fill="none" xmlns="http://www.w3.org/2000/svg">
<path fill-rule="evenodd" clip-rule="evenodd" d="M560.991 236.574C557.508 245.788 555.68 255.546 555.591 265.396C555.535 273.08 556.586 280.732 558.712 288.116C560.408 294.075 563.203 299.664 566.951 304.596C570.209 308.837 574.411 312.258 579.224 314.589C584.006 316.885 589.241 318.083 594.546 318.095C600.213 318.02 605.824 316.965 611.131 314.975C617.384 312.659 623.284 309.485 628.662 305.543C634.961 300.93 640.745 295.652 645.913 289.8C652.01 282.932 657.423 275.487 662.077 267.57C667.507 258.36 672.197 248.735 676.102 238.783C680.648 227.266 684.34 215.429 687.147 203.369C692.748 205.793 698.498 207.854 704.363 209.54C708.83 210.876 713.449 211.642 718.108 211.82C719.69 211.893 721.267 211.581 722.701 210.908L724.524 209.961C725.361 209.51 726.169 209.006 726.944 208.453C727.707 207.895 728.412 207.261 729.047 206.56C729.573 206.009 729.884 205.287 729.924 204.526C729.864 204.064 729.712 203.617 729.477 203.214C729.242 202.811 728.929 202.458 728.557 202.177C727.535 201.208 726.433 200.328 725.261 199.548C723.963 198.671 722.666 197.864 721.298 197.093L717.792 195.095C715.069 193.572 712.372 192.024 709.686 190.481C707.979 189.501 706.276 188.523 704.574 187.556C700.191 185.067 695.878 182.472 691.635 179.842C693.178 170.492 694.347 160.709 695.142 150.494C695.936 140.279 696.334 129.492 696.334 118.131C696.456 104.681 694.985 91.2637 691.951 78.1596C689.857 68.5956 686.183 59.4474 681.081 51.0911C677.244 44.7919 671.908 39.54 665.548 35.8036C660.003 32.6807 653.75 31.0272 647.386 31C642.601 31.0324 637.857 31.8863 633.361 33.5245C628.535 35.1974 623.976 37.5594 619.826 40.5371C615.335 43.7893 611.261 47.5811 607.695 51.8274C603.842 56.3419 600.557 61.311 597.912 66.6239C595.078 72.2946 592.902 78.2708 591.425 84.4359C589.826 91.0835 589.037 97.9002 589.076 104.737C589.104 110.494 590.223 116.192 592.372 121.532C594.725 127.441 597.761 133.055 601.418 138.258C605.444 144.057 609.961 149.5 614.918 154.527C620.155 159.898 625.705 164.955 631.537 169.674C620.313 173.105 609.741 178.391 600.261 185.312C591.195 191.929 583.13 199.817 576.313 208.734C569.849 217.2 564.684 226.583 560.991 236.574ZM586.517 288.257C583.436 283.454 581.985 277.785 582.379 272.093C582.432 266.998 583.247 261.939 584.799 257.086C586.651 251.181 589.107 245.482 592.127 240.08C595.456 234.028 599.291 228.269 603.592 222.864C608.053 217.158 613.081 211.918 618.599 207.226C624.13 202.493 630.162 198.378 636.586 194.954C642.96 191.515 649.816 189.056 656.923 187.661L660.78 190.081C657.712 205.974 653.181 221.55 647.246 236.609C642.857 247.946 637.274 258.783 630.591 268.937C625.895 276.172 619.96 282.522 613.059 287.696C608.585 291.238 603.148 293.351 597.456 293.762C595.321 293.813 593.206 293.337 591.298 292.377C589.39 291.417 587.748 290.002 586.517 288.257ZM619.371 114.66C617.038 109.431 615.843 103.766 615.864 98.0403C615.876 94.458 616.383 90.8945 617.372 87.4513C618.352 83.9214 619.667 80.4931 621.299 77.2129C622.925 73.9077 624.875 70.7718 627.119 67.8511C629.175 65.0474 631.526 62.473 634.132 60.1724C636.45 58.0923 639.046 56.3457 641.846 54.983C644.289 53.7703 646.973 53.1231 649.7 53.0896C652.4 53.1117 655.035 53.9288 657.274 55.4389C660.022 57.3987 662.19 60.0636 663.55 63.1527C665.615 67.6057 667.043 72.327 667.792 77.1779C668.941 84.0708 669.47 91.053 669.37 98.0403C669.37 110.102 669.02 121.486 668.318 132.192C667.617 142.898 666.67 153.101 665.478 162.802C658.162 157.636 651.476 152.4 645.422 147.093C639.747 142.188 634.493 136.816 629.714 131.035C625.56 126.056 622.082 120.55 619.371 114.66Z" fill="#334155"/>
<path fill-rule="evenodd" clip-rule="evenodd" d="M881.711 184.155C883.278 176.768 885.229 168.774 887.567 160.172L894.509 159.365L901.873 158.629L906.676 158.208H910.323L916.283 157.507C917.275 157.43 918.26 157.278 919.229 157.051C920.286 156.801 921.294 156.374 922.209 155.789C923.158 155.191 923.961 154.388 924.558 153.44C925.194 152.382 925.522 151.168 925.505 149.933C925.513 148.752 925.372 147.573 925.084 146.427C924.823 145.412 924.304 144.482 923.577 143.727C922.725 142.886 921.676 142.272 920.526 141.939C918.885 141.472 917.182 141.26 915.477 141.308H911.48L904.047 141.869L892.546 142.675C893.31 140.383 894.049 138.072 894.789 135.755L894.79 135.752L894.79 135.75C895.782 132.646 896.777 129.532 897.84 126.441C898.383 124.865 898.91 123.299 899.435 121.74L899.436 121.737C900.709 117.955 901.965 114.221 903.38 110.523C905.379 105.298 907.272 100.249 908.885 95.3404C910.029 91.8598 911.314 88.5201 912.539 85.334L912.54 85.3316L912.541 85.3292C913.043 84.0236 913.536 82.7437 914.004 81.4906C914.87 79.2367 915.436 76.8791 915.687 74.478C915.874 72.6255 915.968 70.7648 915.968 68.903C916.008 67.2699 915.71 65.6463 915.091 64.1344C914.559 62.8393 913.716 61.6952 912.637 60.8034C911.608 59.9252 910.417 59.2581 909.131 58.8399C907.751 58.4458 906.323 58.2452 904.888 58.2438C901.466 58.177 898.15 59.4329 895.631 61.7501C892.848 64.4093 890.692 67.6553 889.32 71.2522C884.551 83.2905 880.005 95.5157 875.681 107.928C871.356 120.34 867.429 132.39 863.899 144.078L836.796 145.515C827.796 146.006 819.708 146.497 812.532 146.988C814.531 140.642 816.319 134.436 818.037 128.335C819.755 122.234 821.228 116.448 822.49 111.049C823.752 105.649 824.734 100.705 825.471 96.1469C826.136 92.348 826.499 88.5024 826.557 84.6462C826.722 78.8232 825.708 73.027 823.577 67.6056C821.806 63.2438 819.059 59.3456 815.548 56.2102C812.185 53.3323 808.255 51.1939 804.012 49.9339C799.459 48.5887 794.734 47.9154 789.987 47.9353C786.364 47.9753 782.756 48.3984 779.222 49.1976C775.204 50.0334 771.263 51.2063 767.441 52.7039C763.456 54.3018 759.61 56.2251 755.941 58.4542C752.411 60.5725 749.119 63.0647 746.123 65.8876C743.306 68.4985 740.937 71.5546 739.11 74.9338C737.391 78.1709 736.511 81.7875 736.551 85.4527C736.522 87.739 736.662 90.0244 736.972 92.2899C737.252 94.1483 737.673 95.095 738.234 95.095C739.504 95.0581 740.755 94.7722 741.916 94.2535C743.532 93.5324 745.033 92.5753 746.369 91.4134C750.475 88.0323 754.759 84.8722 759.202 81.9464C762.702 79.6598 766.344 77.5986 770.106 75.7753C773.041 74.3243 776.105 73.1504 779.258 72.269C781.636 71.6216 784.086 71.2683 786.551 71.2171C788.791 71.148 791.015 71.617 793.037 72.5846C794.747 73.4838 796.215 74.7829 797.315 76.3714C798.494 78.2644 799.237 80.3965 799.489 82.6126C800.015 85.0782 800.262 87.5952 800.225 90.116C800.196 93.6454 799.856 97.1654 799.208 100.635C798.489 104.383 797.54 108.083 796.368 111.715C794.311 117.465 792.207 123.367 790.057 129.422C787.906 135.476 785.569 141.74 783.044 148.215H773.016C771.737 148.215 770.491 148.207 769.273 148.199C766.918 148.184 764.67 148.169 762.497 148.215C761.122 148.245 759.753 148.304 758.385 148.364C756.474 148.448 754.565 148.531 752.645 148.531C750.786 146.026 748.722 143.68 746.474 141.518C745.316 140.304 743.761 139.545 742.091 139.379C739.917 139.379 738.83 140.922 738.83 144.008C738.838 144.984 738.932 145.958 739.11 146.918C739.286 148.075 739.496 149.197 739.777 150.424C741.093 154.039 743.066 157.38 745.597 160.277C747.854 162.786 750.567 164.845 753.591 166.343C756.687 167.835 759.982 168.874 763.374 169.428C767.024 170.03 770.719 170.323 774.419 170.305C770.842 179.725 767.336 189.403 763.9 199.337C760.464 209.272 757.273 219.568 754.328 230.228C754.046 231.291 753.904 232.388 753.907 233.488C753.875 235.188 754.248 236.87 754.994 238.397C755.712 239.854 756.727 241.144 757.974 242.184C759.264 243.222 760.723 244.028 762.287 244.568C763.863 245.128 765.523 245.413 767.196 245.41C770.572 245.005 773.681 243.37 775.927 240.817C780.155 236.208 783.537 230.891 785.92 225.108L789.741 214.589C790.679 211.846 791.759 208.93 792.905 205.83C793.473 204.296 794.058 202.716 794.65 201.09C796.438 196.181 798.262 190.887 800.19 185.277C802.107 179.69 804.047 173.963 806.011 168.096L831.606 165.677L858.5 162.942C857.097 168.131 855.835 173.04 854.678 177.668C853.521 182.296 852.574 186.504 851.768 190.466C850.961 194.428 850.33 197.935 849.909 200.985C849.541 203.517 849.342 206.07 849.313 208.629C849.215 213.939 850.021 219.227 851.698 224.267C853.125 228.499 855.338 232.425 858.219 235.838C860.934 238.855 864.272 241.248 868.002 242.85C871.866 244.509 876.034 245.345 880.239 245.305C884.531 245.24 888.788 244.518 892.861 243.166C897.837 241.537 902.631 239.399 907.167 236.784C912.562 233.681 917.708 230.164 922.56 226.265C925.281 224.091 927.925 221.823 930.485 219.465C930.591 221.745 930.919 224.011 931.466 226.23C932.03 228.667 933.159 230.937 934.762 232.857C936.395 234.759 938.481 236.218 940.828 237.1C943.753 238.186 946.86 238.698 949.979 238.608C954.343 238.547 958.671 237.814 962.812 236.434C967.29 234.923 971.649 233.083 975.855 230.929C979.565 229.052 983.152 226.943 986.595 224.615C983.789 229.369 981.179 234.045 978.765 238.643C976.767 242.465 974.803 246.462 972.875 250.529C970.946 254.596 969.228 258.594 967.686 262.556C966.279 266.241 965.108 270.012 964.179 273.846C963.326 277.003 962.866 280.253 962.812 283.523C962.791 288.216 963.119 292.904 963.794 297.548C964.382 301.569 965.564 305.48 967.3 309.154C968.695 312.28 970.868 314.996 973.611 317.043C976.52 319.087 980.017 320.121 983.569 319.989C988.908 319.827 994 317.705 997.875 314.028C1003.05 309.323 1007.22 303.623 1010.15 297.268C1014.12 288.76 1016.99 279.782 1018.7 270.55C1020.93 259.164 1022 247.58 1021.89 235.978V234.12C1027.68 234.961 1032.17 235.662 1035.67 236.258L1043.46 237.661L1047.14 238.538C1047.74 238.663 1048.35 238.734 1048.96 238.748C1053.11 238.736 1057.24 238.158 1061.23 237.03C1065.34 235.894 1069.32 234.355 1073.12 232.437C1076.12 230.918 1078.99 229.164 1081.71 227.193C1081.94 227.639 1082.19 228.079 1082.45 228.509C1084.08 231.139 1086.31 233.339 1088.97 234.926C1091.87 236.62 1095.03 237.806 1098.33 238.432C1102.11 239.227 1105.97 239.615 1109.83 239.589C1115.93 239.538 1122.02 238.892 1127.99 237.661C1134.34 236.364 1140.58 234.618 1146.68 232.436C1152.82 230.262 1158.81 227.674 1164.6 224.688C1169.77 222.066 1174.7 218.991 1179.33 215.499C1179.87 216.999 1180.46 218.484 1181.08 219.954C1183.31 225.317 1186.8 230.066 1191.25 233.804C1195.22 236.983 1200.18 238.682 1205.27 238.608C1208.2 238.546 1211.11 238.05 1213.9 237.135C1217.62 235.936 1221.25 234.471 1224.77 232.752C1228.9 230.789 1233.57 228.334 1238.79 225.424C1243.31 222.91 1248.37 220.002 1253.98 216.748C1255.41 219.884 1257.23 222.836 1259.41 225.529C1262.75 229.582 1266.94 232.85 1271.68 235.101C1277.08 237.547 1282.97 238.746 1288.9 238.608C1293.02 238.535 1297.13 237.994 1301.13 236.995C1305.17 236.067 1309.13 234.8 1312.95 233.208C1316.71 231.689 1320.36 229.896 1323.85 227.843C1327.29 225.81 1330.52 223.776 1333.53 221.672C1334.26 221.155 1334.98 220.631 1335.7 220.1C1335.72 221.655 1335.79 223.208 1335.92 224.758C1336.17 227.177 1336.8 229.542 1337.77 231.77C1338.66 233.738 1340.05 235.433 1341.81 236.679C1343.9 238.006 1346.35 238.644 1348.82 238.502C1350.02 238.536 1351.22 238.309 1352.33 237.836C1353.48 237.291 1354.48 236.487 1355.27 235.487C1356.32 234.142 1357.21 232.683 1357.94 231.139C1358.98 228.935 1359.91 226.676 1360.71 224.372L1379.43 172.198H1381.11C1381.67 176.581 1382.41 180.929 1383.29 185.207C1384.11 189.262 1385.52 193.174 1387.49 196.813C1389.3 200.205 1391.93 203.087 1395.14 205.193C1398.93 207.488 1403.33 208.599 1407.76 208.383C1410.7 208.39 1413.62 207.952 1416.42 207.086C1419.22 206.218 1421.94 205.128 1424.56 203.825C1427.1 202.595 1429.57 201.213 1431.95 199.688C1434.23 198.25 1436.3 196.918 1438.09 195.726L1439.67 171.182C1436.63 173.736 1433.42 176.079 1430.06 178.194C1427.12 180.01 1424.04 181.582 1420.84 182.893C1417.77 184.236 1414.47 184.951 1411.13 184.996C1410.03 185.001 1408.95 184.786 1407.94 184.365C1406.85 183.901 1405.91 183.164 1405.2 182.226C1404.3 181.019 1403.65 179.65 1403.27 178.194C1402.73 176.147 1402.49 174.034 1402.54 171.918C1402.57 170.072 1402.75 168.232 1403.06 166.413C1403.41 164.239 1403.8 161.995 1404.22 159.646C1404.64 157.297 1405.03 155.053 1405.38 152.949C1405.68 151.305 1405.85 149.641 1405.9 147.97C1405.93 146.546 1405.64 145.134 1405.06 143.832C1404.54 142.657 1403.77 141.606 1402.82 140.747C1401.85 139.898 1400.73 139.243 1399.52 138.818C1398.27 138.371 1396.96 138.145 1395.63 138.152C1392.01 138.086 1388.46 139.166 1385.5 141.238C1382.5 143.344 1379.86 145.899 1377.64 148.811C1375.32 151.843 1373.29 155.082 1371.58 158.489L1366.88 167.851H1365.72C1365.58 164.274 1365.51 160.663 1365.51 157.016V142.465C1365.48 141.441 1365.16 140.446 1364.6 139.59C1364.33 139.238 1363.99 138.945 1363.61 138.728C1363.22 138.511 1362.79 138.375 1362.35 138.328C1359.62 138 1356.85 138 1354.11 138.328C1353.13 138.461 1352.2 138.821 1351.38 139.379C1350.6 139.951 1349.94 140.68 1349.45 141.518C1348.78 142.633 1348.22 143.807 1347.77 145.025C1346.69 147.901 1345.79 150.84 1345.07 153.825C1344.16 157.367 1343.24 161.294 1342.33 165.536C1341.42 169.779 1340.58 174.092 1339.77 178.966C1338.99 183.687 1338.28 188.178 1337.72 192.566C1335.14 194.919 1332.44 197.143 1329.64 199.232C1325.69 202.255 1321.53 204.997 1317.19 207.437C1312.87 209.918 1308.34 212.018 1303.66 213.713C1299.43 215.323 1294.96 216.177 1290.44 216.237C1289.19 216.248 1287.94 216.107 1286.72 215.817C1285.55 215.525 1284.43 215.026 1283.43 214.344C1282.25 213.525 1281.21 212.532 1280.34 211.399C1279.17 209.929 1278.14 208.356 1277.26 206.7C1283.16 205.111 1288.83 202.753 1294.12 199.688C1299.06 196.904 1303.59 193.46 1307.59 189.449C1311.16 185.863 1314.14 181.733 1316.42 177.212C1318.46 173.189 1319.56 168.751 1319.61 164.239C1319.67 160.544 1318.95 156.878 1317.51 153.475C1316.18 150.365 1314.2 147.57 1311.72 145.27C1309.18 142.963 1306.21 141.166 1302.99 139.976C1299.5 138.689 1295.81 138.048 1292.09 138.082C1287.58 138.027 1283.12 138.911 1278.97 140.677C1275.1 142.411 1271.55 144.781 1268.46 147.689C1265.23 150.636 1262.43 154.024 1260.15 157.753C1257.78 161.53 1255.79 165.535 1254.22 169.709C1252.66 173.87 1251.49 178.166 1250.71 182.542C1249.97 186.626 1249.58 190.768 1249.56 194.919C1249.56 195.017 1249.56 195.115 1249.56 195.214C1247.04 197.346 1244.35 199.443 1241.6 201.371C1238.79 203.334 1235.88 205.158 1233.01 206.841C1230.13 208.524 1227.36 209.961 1224.77 211.188C1222.42 212.301 1220.01 213.261 1217.54 214.064C1215.77 214.686 1213.92 215.041 1212.04 215.116C1209.85 215.132 1207.68 214.764 1205.62 214.029C1203.71 213.316 1202.03 212.106 1200.75 210.522C1199.32 208.649 1198.29 206.5 1197.73 204.211C1196.97 201.091 1196.62 197.885 1196.68 194.674C1196.68 194.271 1196.66 193.841 1196.65 193.381C1196.61 192.362 1196.56 191.199 1196.68 189.87C1196.86 187.942 1196.86 186.329 1196.86 184.435L1197.07 178.72C1197.28 176.651 1197.28 174.933 1197.28 173.145C1197.49 168.938 1197.73 164.695 1198.01 160.382L1198.58 159.667L1198.58 159.663C1200.15 157.684 1201.85 155.529 1203.69 153.124C1205.76 150.424 1207.8 147.689 1209.83 144.884H1250.12C1251 144.865 1251.87 144.651 1252.67 144.257C1253.46 143.863 1254.16 143.299 1254.71 142.605C1256.15 140.96 1256.9 138.827 1256.81 136.645C1256.88 134.924 1256.55 133.21 1255.87 131.631C1255.61 131.035 1255.19 130.523 1254.66 130.152C1254.13 129.78 1253.5 129.564 1252.85 129.527L1248.33 129.317L1242.47 129.106L1236.02 128.861L1229.78 128.58H1224.7C1223.26 128.405 1222.21 128.405 1221.58 128.405C1221.89 127.872 1222.21 127.338 1222.53 126.802L1222.56 126.743L1222.56 126.741C1224.6 123.317 1226.66 119.847 1228.59 116.378C1230.78 112.504 1232.76 108.513 1234.51 104.422C1236.08 100.604 1237.37 96.6784 1238.37 92.6757C1239.32 89.1527 1239.81 85.5239 1239.84 81.8764C1239.85 77.9421 1239.38 74.0217 1238.44 70.2004C1237.6 66.7557 1236.24 63.4579 1234.41 60.4178C1232.78 57.7688 1230.62 55.4879 1228.06 53.7208C1225.64 52.0778 1222.78 51.2095 1219.86 51.2314C1217.33 51.3317 1214.84 51.9317 1212.54 52.9968C1210.24 54.0619 1208.18 55.5711 1206.46 57.4375C1201.71 62.2948 1197.75 67.8674 1194.72 73.9521C1190.83 81.525 1187.57 89.4058 1184.97 97.5144C1182.1 106.485 1179.76 115.618 1177.96 124.864C1176.69 124.978 1175.41 124.978 1174.14 124.864H1160.53C1158.18 124.889 1155.84 125.088 1153.52 125.46C1151.7 125.712 1149.94 126.257 1148.29 127.072C1147.69 127.354 1147.17 127.804 1146.81 128.37C1146.45 128.936 1146.26 129.593 1146.26 130.263V132.507C1146.33 133.38 1146.58 134.228 1147 134.997C1147.47 135.859 1148.16 136.584 1149 137.1C1150.18 137.779 1151.49 138.197 1152.85 138.328C1156.6 138.713 1159.48 139.064 1161.48 139.345C1163.48 139.625 1165.09 139.906 1166.39 140.151L1170.07 140.887C1171.23 141.133 1172.84 141.378 1174.91 141.659C1174.31 146.217 1173.82 150.915 1173.47 155.684C1173.12 160.429 1172.94 164.882 1172.94 169.043C1172.87 177.836 1173.42 186.621 1174.59 195.333C1172.97 196.373 1171.31 197.358 1169.61 198.285C1166.28 200.073 1163.06 201.686 1159.94 203.159L1150.89 207.402C1148.08 208.711 1145.38 210.222 1142.79 211.925C1142.79 207.331 1142.61 203.615 1142.3 200.319C1142.04 197.411 1141.62 194.52 1141.04 191.658C1140.51 189.134 1139.98 186.925 1139.42 184.996C1138.86 183.068 1138.34 181.28 1137.81 179.562C1137.28 177.849 1136.86 176.104 1136.55 174.337C1136.23 172.391 1136.07 170.42 1136.09 168.447C1136.66 167.122 1137.5 165.929 1138.55 164.94C1139.23 164.136 1139.94 163.348 1140.66 162.537L1140.66 162.534L1140.67 162.526L1140.67 162.522C1141.46 161.641 1142.27 160.734 1143.11 159.751C1144.68 157.885 1146.14 155.93 1147.49 153.896C1148.68 152.283 1149.37 150.357 1149.49 148.356C1149.48 147.359 1149.41 146.364 1149.28 145.375C1149.11 144.159 1148.6 143.016 1147.8 142.079C1146.72 140.866 1145.34 139.949 1143.81 139.415C1141.33 138.575 1138.71 138.207 1136.09 138.328C1134.22 138.297 1132.36 138.593 1130.59 139.204C1129.01 139.779 1127.5 140.544 1126.1 141.483C1124.76 142.423 1123.52 143.492 1122.38 144.674C1121.29 145.777 1120.28 146.949 1119.33 148.18C1114.89 153.814 1111.27 158.489 1108.46 162.205L1101.45 171.672C1100.44 173.027 1099.5 174.276 1098.62 175.43L1098.62 175.434L1098.59 175.466C1097.8 176.509 1097.06 177.475 1096.4 178.369C1094.91 180.323 1093.32 182.196 1091.63 183.98C1089.88 185.803 1087.85 187.836 1085.36 190.08C1084.25 191.082 1083.01 192.161 1081.63 193.36C1079.93 194.847 1078.01 196.52 1075.85 198.461C1075.51 198.847 1075.06 199.194 1074.51 199.623C1074.16 199.894 1073.77 200.197 1073.33 200.564C1072.14 201.457 1071.03 202.442 1070 203.51C1068.86 204.652 1067.87 205.936 1067.05 207.331C1066.22 208.732 1065.79 210.331 1065.79 211.96C1065.77 212.376 1065.78 212.792 1065.8 213.207C1061.32 215.302 1056.63 216.918 1051.8 218.026C1045.49 219.483 1039.03 220.189 1032.55 220.129L1031.64 217.815C1037.42 215.324 1042.88 212.158 1047.91 208.383C1052.18 205.132 1055.97 201.309 1059.2 197.023C1062.06 193.166 1064.26 188.866 1065.72 184.295C1067.13 179.85 1067.84 175.213 1067.83 170.55C1067.96 165.441 1067.14 160.351 1065.41 155.544C1063.99 151.757 1061.74 148.341 1058.81 145.551C1056.03 142.991 1052.71 141.087 1049.1 139.976C1045.24 138.802 1041.22 138.223 1037.18 138.258C1032.12 138.106 1027.09 139.176 1022.52 141.378C1018.47 143.447 1014.89 146.337 1012.01 149.863C1009.01 153.635 1006.65 157.861 1004.99 162.381C1003.09 167.361 1001.54 172.469 1000.36 177.668C999.172 183.033 998.155 188.573 997.349 194.288L997.224 195.175C994.957 197.059 992.346 199.288 989.355 201.932C986.339 204.597 983.289 207.156 980.133 209.611C977.188 211.947 974.071 214.057 970.806 215.922C968.285 217.499 965.397 218.393 962.426 218.517C961.505 218.605 960.582 218.379 959.805 217.876C959.029 217.374 958.445 216.623 958.149 215.747C957.358 213.339 957.002 210.81 957.097 208.278C957.139 204.643 957.491 201.019 958.149 197.444L958.252 196.857C958.92 193.042 959.609 189.104 960.743 185.102C961.723 181.645 962.678 178.165 963.63 174.7L963.632 174.692L963.634 174.684L964.25 172.444C965.407 168.236 966.529 164.274 967.581 160.628C968.632 156.981 969.509 153.685 970.21 150.81C970.8 148.646 971.153 146.424 971.262 144.183C971.302 143.39 971.183 142.597 970.912 141.85C970.641 141.103 970.224 140.418 969.684 139.835C967.978 138.552 965.844 137.974 963.724 138.222C961.91 138.237 960.102 138.425 958.324 138.783C956.349 139.171 954.421 139.771 952.574 140.572C950.753 141.329 949.07 142.384 947.595 143.692C946.186 144.926 945.174 146.548 944.684 148.356C943.422 153.58 941.985 159.295 940.337 165.501C938.689 171.708 937.111 177.914 935.673 184.155C934.625 188.706 933.67 193.145 932.835 197.485C932.414 196.397 932.053 195.489 931.711 194.674C931.08 193.166 930.659 192.184 930.449 191.763C925.704 196.485 921.403 200.564 917.546 204C914.202 206.981 910.69 209.767 907.027 212.345C904.41 214.227 901.601 215.825 898.647 217.114C896.673 218.021 894.541 218.533 892.371 218.622C890.527 218.804 888.667 218.535 886.951 217.838C885.235 217.142 883.713 216.039 882.518 214.625C880.34 211.329 879.283 207.419 879.502 203.475C879.62 196.979 880.36 190.509 881.711 184.155ZM1091.98 213.397C1091.84 213.205 1091.67 213.027 1091.5 212.864L1091.35 209.715L1116.11 185.277C1116.3 185.882 1116.5 186.569 1116.71 187.31C1116.89 187.943 1117.09 188.615 1117.3 189.309C1117.76 190.817 1118.18 192.535 1118.56 194.323C1118.96 196.1 1119.27 197.958 1119.51 199.898C1119.74 201.806 1119.86 203.726 1119.86 205.648C1119.86 207.743 1119.66 209.833 1119.26 211.89C1118.89 213.763 1118.14 215.541 1117.05 217.114C1115.95 218.615 1114.49 219.819 1112.81 220.62C1110.71 221.599 1108.4 222.068 1106.08 221.988C1103.98 222.029 1101.92 221.482 1100.12 220.41C1098.46 219.403 1096.91 218.228 1095.49 216.904C1095.04 216.456 1094.61 216.024 1094.19 215.609L1094.18 215.604L1094.18 215.6C1093.39 214.814 1092.65 214.084 1091.98 213.397ZM983.324 287.45C983.13 286.562 983.013 285.659 982.973 284.75C983.112 283.294 983.37 281.852 983.744 280.438C984.13 278.369 984.656 275.95 985.322 273.11C985.989 270.269 986.76 267.254 987.671 263.958C988.583 260.662 989.6 257.401 990.687 254.141C991.762 250.845 992.931 247.689 994.193 244.674C995.305 241.917 996.593 239.235 998.05 236.644C997.909 237.606 997.894 238.724 997.879 239.874V239.875C997.871 240.443 997.863 241.02 997.84 241.588C997.809 242.35 997.778 243.215 997.743 244.166C997.701 245.359 997.653 246.685 997.594 248.11C997.489 250.669 997.314 253.93 997.103 257.682C996.906 259.434 996.89 261.368 996.873 263.466L996.873 263.475C996.869 263.978 996.865 264.489 996.858 265.01C996.823 267.71 996.718 270.48 996.578 273.355C996.437 276.23 996.297 279.035 996.087 281.735C995.914 284.2 995.562 286.649 995.035 289.063C994.669 290.879 994.03 292.628 993.141 294.253C992.867 294.8 992.454 295.266 991.943 295.605C991.433 295.943 990.842 296.142 990.231 296.181C989.574 296.212 988.918 296.096 988.311 295.841C987.705 295.586 987.163 295.199 986.725 294.708C985.793 293.674 985.046 292.488 984.516 291.202C983.987 289.997 983.587 288.739 983.324 287.45ZM1030.17 202.598C1026.87 205.365 1023.24 207.719 1019.37 209.611C1019.37 205.333 1019.54 201.16 1019.79 197.023C1020.03 192.886 1020.46 188.888 1021.05 185.067C1021.6 181.434 1022.37 177.839 1023.37 174.302C1024.14 171.261 1025.32 168.337 1026.87 165.607C1028.15 163.336 1029.88 161.355 1031.96 159.786C1033.93 158.357 1036.32 157.607 1038.76 157.647C1039.74 157.598 1040.71 157.743 1041.63 158.074C1042.55 158.405 1043.4 158.916 1044.12 159.576C1045.41 160.874 1046.35 162.479 1046.86 164.239C1047.39 166.13 1047.61 168.098 1047.49 170.06C1047.41 171.865 1047.18 173.66 1046.79 175.424C1045.95 178.727 1044.84 181.952 1043.46 185.067C1042.01 188.351 1040.18 191.457 1038.02 194.323C1035.73 197.374 1033.1 200.151 1030.17 202.598ZM1223.22 80.1933C1223.27 81.0576 1223.27 81.9237 1223.22 82.788C1223.14 85.7187 1222.6 88.6182 1221.61 91.3784C1220.42 94.8847 1218.95 98.6364 1217.12 102.634C1215.3 106.631 1213.27 110.733 1210.99 114.871C1208.71 119.008 1206.53 122.9 1204.47 126.406L1201.2 126.056L1198.08 125.705C1199.37 120.001 1200.75 114.158 1202.22 108.174C1203.69 102.189 1205.3 96.708 1207.03 91.729C1208.39 87.4621 1210.18 83.34 1212.35 79.422C1214.32 76.2312 1216.04 74.6183 1217.82 74.6183C1218.92 74.5465 1220 74.8428 1220.91 75.4598C1221.63 75.9967 1222.2 76.7091 1222.56 77.5286C1222.9 78.3816 1223.13 79.2785 1223.22 80.1933ZM1274.87 189.52C1277.71 189.454 1280.51 188.797 1283.08 187.591C1286.04 186.302 1288.82 184.628 1291.35 182.612C1293.79 180.73 1295.95 178.511 1297.77 176.02C1299.4 174.038 1300.32 171.572 1300.4 169.008C1300.51 166.33 1299.92 163.671 1298.68 161.294C1298.32 160.442 1297.74 159.706 1296.99 159.167C1296.24 158.629 1295.36 158.309 1294.44 158.243C1291.95 158.158 1289.47 158.66 1287.21 159.707C1284.95 160.755 1282.97 162.319 1281.43 164.274C1279.94 166.095 1278.76 168.143 1277.92 170.34C1277.05 172.555 1276.39 174.843 1275.92 177.177C1275.5 179.391 1275.21 181.627 1275.05 183.874C1274.87 186.083 1274.87 187.905 1274.87 189.448V189.52Z" fill="#334155"/>
<path d="M950.54 108.805C950.591 106.948 950.946 105.112 951.592 103.37C952.369 101.261 953.561 99.3294 955.098 97.6897C956.847 95.7552 958.986 94.2136 961.374 93.1666C964.467 91.8651 967.803 91.2433 971.157 91.3433C973.521 91.3171 975.879 91.6 978.17 92.1848C980.206 92.6771 982.132 93.5451 983.85 94.7444C985.47 95.9263 986.772 97.4927 987.637 99.3026C988.635 101.391 989.128 103.685 989.074 106C989.089 108.386 988.698 110.757 987.917 113.012C987.177 115.222 985.983 117.253 984.411 118.973C982.605 120.795 980.445 122.227 978.064 123.18C975.156 124.339 972.043 124.899 968.913 124.828C963.983 125.226 959.094 123.664 955.309 120.481C953.745 118.973 952.513 117.156 951.692 115.146C950.871 113.135 950.478 110.976 950.54 108.805Z" fill="#334155"/>
<path d="M268 184.158L268.253 184.001L282.808 192.972C332.344 223.503 379.293 246.593 407 254.052C433.969 261.312 452.387 258.818 466.028 246.058C477.643 235.194 480.231 217.439 474.903 185.181C472.048 167.901 458.234 112.075 455.455 106.591C452.625 101.008 448.39 97.2506 441 93.7706C435.724 91.2866 434.786 91.1826 418 91.2186C402.407 91.2516 399.198 91.5616 388.552 94.0626C358.842 101.043 320.113 116.056 280.329 136.014L269.158 141.618L268 141.057V184.158Z" fill="#3E8ABF"/>
<path d="M268 141.714L251.829 133.887C213.517 115.342 174.619 100.627 148.704 94.8769C136.945 92.2679 121.542 90.6269 113 91.0729C97.476 91.8849 85.93 97.8129 80.912 107.548C77.388 114.386 63.346 173.641 60.464 193.838C56.168 223.94 61.769 242.543 78 252.085C88.101 258.023 105.123 259.967 119.866 256.866C150.58 250.405 200.485 226.759 255.376 192.657L268 184.815V141.714Z" fill="#236FA4"/>
</svg>
