<svg width="173" height="40" viewBox="0 0 173 40" fill="none" xmlns="http://www.w3.org/2000/svg">
<path fill-rule="evenodd" clip-rule="evenodd" d="M64.442 27.037C64.042 28.0901 63.832 29.2052 63.8218 30.3309C63.8154 31.2091 63.9361 32.0836 64.1802 32.9276C64.3751 33.6085 64.6962 34.2473 65.1268 34.811C65.501 35.2956 65.9837 35.6866 66.5365 35.953C67.0858 36.2154 67.6872 36.3523 68.2966 36.3537C68.9476 36.3451 69.5921 36.2245 70.2017 35.9971C70.92 35.7324 71.5978 35.3697 72.2156 34.9192C72.9392 34.392 73.6036 33.7887 74.1972 33.1199C74.8976 32.335 75.5194 31.4842 76.054 30.5794C76.6777 29.5269 77.2165 28.4268 77.6651 27.2895C78.1873 25.9732 78.6114 24.6204 78.9339 23.2422C79.5772 23.5192 80.2378 23.7548 80.9115 23.9475C81.4246 24.1001 81.9551 24.1876 82.4904 24.2079C82.6721 24.2164 82.8532 24.1806 83.018 24.1037L83.2274 23.9956C83.3236 23.944 83.4164 23.8864 83.5053 23.8232C83.593 23.7594 83.674 23.6869 83.747 23.6069C83.8074 23.5438 83.8431 23.4614 83.8477 23.3744C83.8408 23.3215 83.8233 23.2705 83.7964 23.2244C83.7694 23.1783 83.7334 23.1381 83.6906 23.106C83.5733 22.9952 83.4466 22.8946 83.312 22.8054C83.163 22.7052 83.014 22.6131 82.8569 22.5249L82.4541 22.2965C82.1413 22.1225 81.8315 21.9455 81.5229 21.7692C81.3268 21.6572 81.1312 21.5455 80.9356 21.435C80.4322 21.1504 79.9368 20.8539 79.4494 20.5534C79.6266 19.4848 79.7609 18.3668 79.8522 17.1994C79.9435 16.0319 79.9891 14.7991 79.9891 13.5007C80.0032 11.9636 79.8342 10.4301 79.4857 8.93253C79.2451 7.83949 78.8231 6.79399 78.2371 5.83898C77.7963 5.11908 77.1833 4.51886 76.4528 4.09185C75.8157 3.73495 75.0975 3.54597 74.3664 3.54286C73.8167 3.54657 73.2718 3.64416 72.7553 3.83138C72.2009 4.02257 71.6773 4.29251 71.2006 4.63282C70.6847 5.00449 70.2166 5.43785 69.807 5.92313C69.3645 6.43908 68.9871 7.00698 68.6833 7.61417C68.3577 8.26225 68.1077 8.94523 67.9381 9.64982C67.7544 10.4095 67.6638 11.1886 67.6683 11.97C67.6715 12.6278 67.8 13.2791 68.0469 13.8894C68.3171 14.5647 68.6659 15.2062 69.086 15.8009C69.5485 16.4636 70.0673 17.0857 70.6367 17.6602C71.2384 18.274 71.8759 18.852 72.5459 19.3913C71.2564 19.7834 70.0421 20.3875 68.9531 21.1785C67.9117 21.9347 66.9852 22.8362 66.2022 23.8553C65.4596 24.8228 64.8663 25.8952 64.442 27.037ZM67.3742 32.9436C67.0203 32.3947 66.8537 31.7469 66.899 31.0963C66.905 30.514 66.9987 29.9359 67.1769 29.3812C67.3897 28.7064 67.6718 28.0551 68.0187 27.4377C68.4011 26.7461 68.8417 26.0879 69.3358 25.4702C69.8482 24.818 70.4258 24.2192 71.0596 23.683C71.695 23.1421 72.3879 22.6718 73.1259 22.2805C73.858 21.8874 74.6456 21.6064 75.4619 21.447L75.905 21.7235C75.5526 23.5399 75.0321 25.32 74.3503 27.041C73.8462 28.3366 73.2048 29.5751 72.4371 30.7356C71.8977 31.5624 71.2159 32.2882 70.4232 32.8795C69.9092 33.2843 69.2847 33.5258 68.6309 33.5727C68.3856 33.5786 68.1427 33.5242 67.9235 33.4145C67.7043 33.3048 67.5157 33.1431 67.3742 32.9436ZM71.1482 13.104C70.8803 12.5064 70.743 11.859 70.7455 11.2046C70.7468 10.7952 70.8051 10.3879 70.9187 9.99444C71.0313 9.59102 71.1823 9.19921 71.3698 8.82434C71.5566 8.4466 71.7805 8.08821 72.0384 7.75442C72.2745 7.43399 72.5445 7.13977 72.8439 6.87684C73.1101 6.63912 73.4084 6.43951 73.73 6.28378C74.0106 6.14517 74.319 6.07122 74.6322 6.06739C74.9424 6.06991 75.245 6.16329 75.5022 6.33587C75.8179 6.55985 76.067 6.86441 76.2232 7.21745C76.4604 7.72637 76.6244 8.26595 76.7105 8.82033C76.8425 9.60809 76.9032 10.4061 76.8918 11.2046C76.8918 12.5831 76.8515 13.8841 76.771 15.1076C76.6904 16.3311 76.5817 17.4972 76.4447 18.6059C75.6043 18.0155 74.8363 17.4171 74.1408 16.8107C73.489 16.25 72.8854 15.6361 72.3364 14.9754C71.8593 14.4064 71.4598 13.7771 71.1482 13.104Z" fill="white"/>
<path fill-rule="evenodd" clip-rule="evenodd" d="M101.284 21.0463C101.464 20.2021 101.688 19.2884 101.956 18.3053L102.754 18.2132L103.6 18.129L104.152 18.0809H104.57L105.255 18.0008C105.369 17.992 105.482 17.9746 105.593 17.9487C105.715 17.9201 105.831 17.8713 105.936 17.8044C106.045 17.7361 106.137 17.6444 106.206 17.536C106.279 17.4151 106.316 17.2763 106.314 17.1352C106.315 17.0002 106.299 16.8655 106.266 16.7345C106.236 16.6185 106.176 16.5122 106.093 16.426C105.995 16.3299 105.875 16.2596 105.743 16.2216C105.554 16.1683 105.358 16.1439 105.163 16.1495H104.703L103.849 16.2136L102.528 16.3058C102.616 16.0438 102.701 15.7796 102.786 15.5148L102.786 15.5145L102.786 15.5143C102.9 15.1596 103.014 14.8037 103.137 14.4504C103.199 14.2703 103.259 14.0913 103.32 13.9131L103.32 13.9127C103.466 13.4806 103.61 13.0539 103.773 12.6312C104.003 12.0341 104.22 11.4571 104.405 10.896C104.537 10.4983 104.684 10.1166 104.825 9.75246L104.825 9.75218L104.825 9.75191C104.883 9.60269 104.94 9.45643 104.993 9.31321C105.093 9.05562 105.158 8.78618 105.187 8.51177C105.208 8.30006 105.219 8.08741 105.219 7.87463C105.224 7.68799 105.189 7.50243 105.118 7.32965C105.057 7.18163 104.96 7.05088 104.836 6.94897C104.718 6.8486 104.581 6.77235 104.433 6.72456C104.275 6.67952 104.111 6.65659 103.946 6.65644C103.553 6.6488 103.172 6.79234 102.883 7.05716C102.563 7.36107 102.315 7.73204 102.158 8.14311C101.61 9.51891 101.088 10.9161 100.591 12.3346C100.094 13.7532 99.6432 15.1303 99.2377 16.466L96.1243 16.6303C95.0905 16.6864 94.1614 16.7425 93.3371 16.7986C93.5666 16.0733 93.7721 15.3641 93.9694 14.6668C94.1668 13.9696 94.3359 13.3084 94.4809 12.6913C94.6259 12.0742 94.7387 11.5091 94.8233 10.9882C94.8997 10.5541 94.9415 10.1146 94.9482 9.67385C94.9671 9.00837 94.8506 8.34595 94.6058 7.72636C94.4024 7.22786 94.0868 6.78235 93.6835 6.42402C93.2972 6.09512 92.8457 5.85073 92.3583 5.70674C91.8353 5.553 91.2926 5.47605 90.7472 5.47833C90.3311 5.4829 89.9166 5.53125 89.5107 5.62259C89.0491 5.71811 88.5964 5.85215 88.1574 6.0233C87.6996 6.20592 87.2578 6.42573 86.8363 6.68048C86.4308 6.92258 86.0527 7.20739 85.7085 7.53001C85.3849 7.8284 85.1128 8.17767 84.903 8.56386C84.7055 8.93381 84.6044 9.34714 84.6089 9.76602C84.6056 10.0273 84.6217 10.2885 84.6573 10.5474C84.6895 10.7598 84.7378 10.868 84.8023 10.868C84.9482 10.8638 85.0919 10.8311 85.2252 10.7718C85.4109 10.6894 85.5833 10.58 85.7367 10.4472C86.2085 10.0608 86.7005 9.69967 87.2109 9.3653C87.6129 9.10398 88.0313 8.86842 88.4635 8.66003C88.8006 8.4942 89.1526 8.36005 89.5147 8.25932C89.788 8.18532 90.0694 8.14495 90.3525 8.1391C90.6099 8.13121 90.8654 8.1848 91.0976 8.29538C91.2941 8.39815 91.4627 8.54662 91.589 8.72816C91.7245 8.9445 91.8098 9.18817 91.8387 9.44144C91.8992 9.72322 91.9275 10.0109 91.9233 10.299C91.92 10.7023 91.8809 11.1046 91.8065 11.5011C91.7238 11.9294 91.6149 12.3523 91.4803 12.7674C91.244 13.4246 91.0023 14.0991 90.7553 14.791C90.5082 15.4829 90.2397 16.1989 89.9497 16.9389H88.7978C88.6509 16.9389 88.5077 16.938 88.3678 16.937C88.0973 16.9353 87.839 16.9336 87.5895 16.9389C87.4315 16.9422 87.2742 16.9491 87.117 16.9559C86.8976 16.9654 86.6783 16.975 86.4577 16.975C86.2442 16.6887 86.0071 16.4206 85.7488 16.1735C85.6158 16.0347 85.4371 15.948 85.2453 15.9291C84.9956 15.9291 84.8708 16.1054 84.8708 16.458C84.8717 16.5696 84.8825 16.6809 84.903 16.7906C84.9231 16.9229 84.9473 17.0511 84.9795 17.1913C85.1307 17.6045 85.3574 17.9862 85.6481 18.3174C85.9074 18.6041 86.219 18.8394 86.5664 19.0106C86.9221 19.1812 87.3005 19.2999 87.6902 19.3632C88.1095 19.432 88.5339 19.4655 88.9589 19.4634C88.5481 20.54 88.1453 21.646 87.7506 22.7814C87.3559 23.9167 86.9893 25.0935 86.651 26.3117C86.6186 26.4333 86.6023 26.5586 86.6027 26.6844C86.5991 26.8786 86.6418 27.0709 86.7275 27.2454C86.81 27.4119 86.9266 27.5593 87.0699 27.6782C87.218 27.7967 87.3856 27.8889 87.5653 27.9506C87.7463 28.0146 87.9371 28.0472 88.1292 28.0468C88.517 28.0006 88.8741 27.8137 89.1321 27.5219C89.6178 26.9952 90.0064 26.3875 90.28 25.7267L90.719 24.5245C90.8268 24.2109 90.9508 23.8776 91.0825 23.5234C91.1477 23.3481 91.2149 23.1675 91.2829 22.9817C91.4883 22.4207 91.6978 21.8156 91.9193 21.1745C92.1395 20.536 92.3624 19.8815 92.5879 19.211L95.5282 18.9345L98.6174 18.6219C98.4563 19.215 98.3113 19.776 98.1784 20.3049C98.0455 20.8339 97.9367 21.3147 97.8441 21.7675C97.7515 22.2204 97.679 22.6211 97.6306 22.9697C97.5883 23.2591 97.5654 23.5509 97.5622 23.8433C97.5509 24.4502 97.6435 25.0545 97.8361 25.6305C98.0001 26.1142 98.2542 26.5628 98.5852 26.9529C98.8971 27.2977 99.2805 27.5712 99.709 27.7543C100.153 27.9438 100.632 28.0394 101.115 28.0348C101.608 28.0274 102.097 27.9449 102.565 27.7904C103.136 27.6043 103.687 27.3598 104.208 27.061C104.828 26.7064 105.419 26.3044 105.976 25.8589C106.289 25.6104 106.592 25.3512 106.887 25.0817C106.899 25.3423 106.936 25.6013 106.999 25.8549C107.064 26.1334 107.194 26.3928 107.378 26.6122C107.565 26.8296 107.805 26.9964 108.075 27.0971C108.411 27.2213 108.768 27.2798 109.126 27.2694C109.627 27.2625 110.124 27.1787 110.6 27.021C111.114 26.8483 111.615 26.6381 112.098 26.3919C112.524 26.1774 112.936 25.9364 113.332 25.6703C113.01 26.2136 112.71 26.748 112.433 27.2734C112.203 27.7102 111.977 28.167 111.756 28.6319C111.534 29.0967 111.337 29.5535 111.16 30.0063C110.998 30.4275 110.864 30.8585 110.757 31.2967C110.659 31.6574 110.606 32.0289 110.6 32.4026C110.598 32.939 110.635 33.4747 110.713 34.0055C110.78 34.465 110.916 34.912 111.116 35.3319C111.276 35.6891 111.525 35.9996 111.84 36.2335C112.175 36.467 112.576 36.5852 112.984 36.5701C113.598 36.5516 114.183 36.3091 114.628 35.8889C115.222 35.3512 115.702 34.6997 116.037 33.9735C116.494 33.0011 116.824 31.9751 117.02 30.92C117.276 29.6187 117.399 28.2949 117.387 26.9689V26.7565C118.051 26.8527 118.567 26.9328 118.97 27.0009L119.864 27.1612L120.287 27.2614C120.356 27.2758 120.426 27.2839 120.496 27.2855C120.973 27.2842 121.447 27.2181 121.906 27.0891C122.377 26.9593 122.835 26.7834 123.271 26.5642C123.616 26.3906 123.946 26.1902 124.258 25.9649C124.285 26.0159 124.313 26.0661 124.343 26.1154C124.53 26.4158 124.787 26.6673 125.092 26.8487C125.425 27.0422 125.788 27.1778 126.167 27.2494C126.602 27.3402 127.044 27.3845 127.488 27.3816C128.189 27.3757 128.888 27.3019 129.575 27.1612C130.304 27.013 131.021 26.8135 131.721 26.5642C132.427 26.3157 133.115 26.0198 133.78 25.6786C134.374 25.3789 134.94 25.0275 135.472 24.6285C135.534 24.7999 135.601 24.9696 135.673 25.1376C135.929 25.7505 136.33 26.2932 136.841 26.7204C137.297 27.0838 137.867 27.2779 138.452 27.2694C138.789 27.2624 139.123 27.2057 139.443 27.1011C139.87 26.9641 140.288 26.7967 140.691 26.6002C141.166 26.3758 141.702 26.0953 142.302 25.7627C142.821 25.4754 143.402 25.1431 144.047 24.7712C144.212 25.1296 144.421 25.4669 144.671 25.7747C145.054 26.2379 145.535 26.6114 146.08 26.8687C146.701 27.1482 147.377 27.2852 148.058 27.2694C148.532 27.2612 149.004 27.1993 149.464 27.0851C149.928 26.9791 150.382 26.8343 150.821 26.6523C151.253 26.4787 151.672 26.2738 152.074 26.0392C152.468 25.8068 152.839 25.5744 153.185 25.334C153.269 25.2749 153.352 25.215 153.434 25.1543C153.436 25.3319 153.445 25.5095 153.459 25.6866C153.488 25.9631 153.56 26.2334 153.673 26.488C153.774 26.7128 153.934 26.9066 154.136 27.049C154.376 27.2007 154.658 27.2736 154.941 27.2574C155.08 27.2612 155.217 27.2352 155.344 27.1813C155.476 27.119 155.592 27.0271 155.682 26.9128C155.803 26.759 155.905 26.5924 155.989 26.4159C156.109 26.164 156.215 25.9058 156.307 25.6425L158.458 19.6798H158.651C158.715 20.1807 158.8 20.6776 158.901 21.1665C158.995 21.63 159.158 22.077 159.384 22.4929C159.591 22.8805 159.893 23.2099 160.262 23.4506C160.698 23.7129 161.203 23.8399 161.712 23.8152C162.049 23.816 162.385 23.766 162.707 23.667C163.028 23.5678 163.34 23.4432 163.641 23.2943C163.934 23.1537 164.218 22.9958 164.491 22.8214C164.753 22.6571 164.991 22.5049 165.196 22.3686L165.377 19.5636C165.028 19.8555 164.659 20.1233 164.274 20.365C163.936 20.5726 163.582 20.7522 163.214 20.902C162.862 21.0555 162.483 21.1373 162.099 21.1424C161.973 21.143 161.848 21.1184 161.732 21.0703C161.608 21.0172 161.5 20.933 161.418 20.8259C161.315 20.6879 161.24 20.5314 161.196 20.365C161.135 20.131 161.106 19.8896 161.112 19.6477C161.116 19.4368 161.136 19.2265 161.172 19.0186C161.213 18.7702 161.257 18.5137 161.305 18.2452C161.354 17.9768 161.398 17.7203 161.438 17.4799C161.473 17.292 161.493 17.1018 161.499 16.9108C161.501 16.7481 161.468 16.5868 161.402 16.438C161.342 16.3037 161.254 16.1835 161.144 16.0854C161.033 15.9883 160.905 15.9134 160.765 15.865C160.622 15.8138 160.471 15.788 160.318 15.7888C159.903 15.7812 159.495 15.9046 159.154 16.1415C158.811 16.3822 158.506 16.6741 158.252 17.007C157.986 17.3534 157.753 17.7237 157.555 18.113L157.016 19.1829H156.883C156.867 18.7742 156.859 18.3614 156.859 17.9447V16.2817C156.855 16.1647 156.818 16.051 156.754 15.9531C156.723 15.9129 156.684 15.8794 156.64 15.8546C156.596 15.8298 156.547 15.8142 156.496 15.8089C156.182 15.7714 155.864 15.7714 155.55 15.8089C155.437 15.8241 155.329 15.8653 155.235 15.9291C155.145 15.9944 155.07 16.0777 155.014 16.1735C154.937 16.301 154.873 16.4351 154.821 16.5742C154.697 16.9029 154.593 17.2388 154.51 17.58C154.406 17.9848 154.301 18.4336 154.196 18.9184C154.092 19.4033 153.995 19.8962 153.902 20.4532C153.812 20.9928 153.73 21.506 153.667 22.0076C153.37 22.2764 153.06 22.5306 152.738 22.7694C152.284 23.1149 151.806 23.4282 151.308 23.707C150.812 23.9906 150.292 24.2306 149.754 24.4243C149.268 24.6083 148.754 24.7059 148.235 24.7128C148.091 24.7141 147.948 24.6979 147.808 24.6648C147.673 24.6314 147.545 24.5744 147.43 24.4965C147.295 24.4029 147.175 24.2894 147.075 24.1598C146.941 23.9918 146.822 23.8121 146.721 23.6229C147.399 23.4413 148.05 23.1718 148.658 22.8214C149.225 22.5033 149.745 22.1097 150.205 21.6513C150.615 21.2415 150.958 20.7695 151.22 20.2528C151.454 19.793 151.58 19.2858 151.586 18.7702C151.593 18.3479 151.51 17.9289 151.345 17.54C151.192 17.1846 150.965 16.8651 150.68 16.6023C150.388 16.3386 150.047 16.1332 149.677 15.9972C149.276 15.8502 148.852 15.7769 148.424 15.7808C147.907 15.7745 147.394 15.8755 146.918 16.0773C146.473 16.2755 146.065 16.5464 145.71 16.8788C145.339 17.2155 145.017 17.6027 144.755 18.0288C144.483 18.4605 144.255 18.9183 144.075 19.3953C143.895 19.8709 143.761 20.3618 143.672 20.8619C143.586 21.3287 143.542 21.802 143.539 22.2765C143.539 22.2877 143.539 22.2989 143.539 22.3101C143.249 22.5539 142.941 22.7935 142.625 23.0138C142.302 23.2382 141.968 23.4466 141.638 23.6389C141.307 23.8313 140.989 23.9956 140.691 24.1358C140.422 24.263 140.145 24.3727 139.861 24.4644C139.658 24.5356 139.445 24.5761 139.229 24.5846C138.978 24.5865 138.729 24.5445 138.492 24.4604C138.273 24.379 138.079 24.2406 137.932 24.0597C137.768 23.8456 137.65 23.6 137.586 23.3384C137.498 22.9818 137.457 22.6154 137.465 22.2484C137.465 22.2024 137.463 22.1532 137.461 22.1007C137.456 21.9842 137.451 21.8514 137.465 21.6994C137.485 21.479 137.485 21.2947 137.485 21.0783L137.509 20.4252C137.533 20.1887 137.533 19.9924 137.533 19.788C137.558 19.3071 137.586 18.8223 137.618 18.3294L137.683 18.2476L137.683 18.2471C137.863 18.021 138.059 17.7748 138.271 17.4999C138.508 17.1914 138.742 16.8788 138.975 16.5582H143.603C143.705 16.556 143.805 16.5316 143.896 16.4866C143.987 16.4415 144.068 16.3771 144.131 16.2977C144.296 16.1097 144.382 15.866 144.373 15.6165C144.38 15.4198 144.343 15.224 144.264 15.0435C144.234 14.9754 144.186 14.9169 144.125 14.8745C144.064 14.832 143.992 14.8073 143.917 14.8031L143.398 14.779L142.725 14.755L141.984 14.7269L141.267 14.6949H140.683C140.518 14.6748 140.397 14.6748 140.325 14.6748C140.361 14.6139 140.397 14.5529 140.434 14.4917L140.438 14.4849L140.438 14.4847C140.672 14.0933 140.908 13.6968 141.13 13.3004C141.382 12.8576 141.609 12.4014 141.811 11.9339C141.991 11.4976 142.139 11.049 142.254 10.5915C142.363 10.1889 142.419 9.77416 142.423 9.3573C142.424 8.90767 142.37 8.45962 142.262 8.0229C142.165 7.62922 142.009 7.25233 141.799 6.9049C141.612 6.60215 141.364 6.34148 141.07 6.13953C140.792 5.95175 140.463 5.85252 140.127 5.85502C139.837 5.86649 139.551 5.93506 139.287 6.05678C139.023 6.17851 138.786 6.35099 138.589 6.56429C138.043 7.11941 137.587 7.75627 137.239 8.45167C136.792 9.31714 136.418 10.2178 136.12 11.1445C135.79 12.1698 135.521 13.2134 135.314 14.2701C135.168 14.2832 135.021 14.2832 134.875 14.2701H133.312C133.043 14.273 132.773 14.2958 132.507 14.3382C132.298 14.3671 132.095 14.4293 131.907 14.5226C131.837 14.5548 131.778 14.6062 131.736 14.6709C131.695 14.7355 131.673 14.8106 131.673 14.8872V15.1437C131.681 15.2434 131.71 15.3403 131.758 15.4282C131.812 15.5268 131.891 15.6096 131.987 15.6686C132.123 15.7461 132.274 15.794 132.43 15.8089C132.861 15.853 133.192 15.893 133.421 15.9251C133.651 15.9571 133.836 15.9892 133.985 16.0172L134.408 16.1014C134.541 16.1294 134.726 16.1575 134.964 16.1896C134.895 16.7105 134.839 17.2475 134.799 17.7924C134.758 18.3347 134.738 18.8436 134.738 19.3192C134.73 20.324 134.793 21.3281 134.928 22.3238C134.741 22.4426 134.55 22.5552 134.356 22.6612C133.973 22.8655 133.602 23.0499 133.244 23.2182L132.205 23.703C131.882 23.8526 131.571 24.0254 131.274 24.2199C131.274 23.695 131.254 23.2702 131.218 22.8936C131.188 22.5613 131.139 22.2308 131.073 21.9038C131.013 21.6153 130.952 21.3628 130.888 21.1424C130.823 20.922 130.763 20.7177 130.702 20.5213C130.641 20.3256 130.593 20.1261 130.557 19.9242C130.52 19.7018 130.503 19.4765 130.505 19.251C130.57 19.0997 130.666 18.9633 130.787 18.8503C130.866 18.7584 130.947 18.6683 131.03 18.5757L131.03 18.5753L131.031 18.5744L131.031 18.5739C131.122 18.4732 131.214 18.3696 131.311 18.2573C131.491 18.044 131.659 17.8205 131.814 17.5881C131.951 17.4037 132.031 17.1837 132.044 16.9549C132.042 16.841 132.034 16.7273 132.019 16.6143C132 16.4754 131.941 16.3447 131.85 16.2376C131.726 16.0989 131.568 15.9941 131.391 15.9331C131.106 15.8372 130.806 15.795 130.505 15.8089C130.29 15.8053 130.076 15.8392 129.873 15.909C129.691 15.9747 129.518 16.0622 129.357 16.1695C129.203 16.2769 129.06 16.3991 128.93 16.5342C128.805 16.6603 128.688 16.7941 128.58 16.9349C128.07 17.5787 127.653 18.113 127.331 18.5378L126.526 19.6197C126.41 19.7745 126.301 19.9172 126.2 20.0491L126.2 20.0496L126.197 20.0532C126.106 20.1725 126.022 20.2828 125.946 20.3851C125.775 20.6084 125.592 20.8224 125.398 21.0262C125.196 21.2346 124.963 21.467 124.677 21.7235C124.549 21.838 124.407 21.9612 124.249 22.0983C124.053 22.2682 123.833 22.4594 123.585 22.6812C123.546 22.7254 123.494 22.765 123.431 22.814C123.39 22.845 123.345 22.8797 123.295 22.9216C123.159 23.0236 123.031 23.1362 122.913 23.2582C122.782 23.3888 122.668 23.5356 122.574 23.695C122.479 23.8551 122.429 24.0378 122.429 24.224C122.427 24.2715 122.428 24.3191 122.431 24.3665C121.916 24.6059 121.377 24.7906 120.822 24.9172C120.097 25.0838 119.355 25.1645 118.611 25.1576L118.506 24.8932C119.17 24.6085 119.797 24.2466 120.375 23.8152C120.865 23.4436 121.302 23.0067 121.672 22.5169C122 22.0761 122.253 21.5847 122.421 21.0623C122.583 20.5542 122.664 20.0243 122.663 19.4915C122.679 18.9075 122.585 18.3258 122.385 17.7764C122.223 17.3437 121.964 16.9532 121.628 16.6343C121.308 16.3419 120.927 16.1242 120.512 15.9972C120.068 15.8631 119.607 15.7969 119.143 15.8009C118.561 15.7835 117.983 15.9059 117.459 16.1575C116.993 16.3939 116.582 16.7242 116.251 17.1272C115.907 17.5583 115.635 18.0412 115.445 18.5578C115.227 19.1269 115.049 19.7108 114.914 20.3049C114.777 20.918 114.66 21.5512 114.567 22.2043L114.553 22.3057C114.293 22.521 113.993 22.7758 113.649 23.0779C113.303 23.3825 112.952 23.675 112.59 23.9555C112.251 24.2225 111.893 24.4637 111.518 24.6768C111.229 24.857 110.897 24.9592 110.556 24.9733C110.45 24.9834 110.344 24.9576 110.255 24.9001C110.165 24.8427 110.098 24.7569 110.064 24.6567C109.974 24.3816 109.933 24.0926 109.943 23.8032C109.948 23.3878 109.989 22.9736 110.064 22.565L110.076 22.4979C110.153 22.0619 110.232 21.6118 110.362 21.1545C110.475 20.7594 110.585 20.3617 110.694 19.9657L110.694 19.9648L110.694 19.9638L110.765 19.7079C110.898 19.227 111.027 18.7742 111.148 18.3574C111.269 17.9407 111.369 17.564 111.45 17.2354C111.518 16.9881 111.558 16.7341 111.571 16.4781C111.575 16.3874 111.562 16.2967 111.53 16.2114C111.499 16.1261 111.451 16.0478 111.389 15.9812C111.193 15.8345 110.948 15.7685 110.705 15.7968C110.496 15.7986 110.289 15.82 110.084 15.861C109.857 15.9053 109.636 15.9738 109.424 16.0653C109.215 16.1519 109.021 16.2724 108.852 16.422C108.69 16.563 108.574 16.7484 108.518 16.9549C108.373 17.552 108.207 18.2052 108.018 18.9144C107.829 19.6237 107.648 20.333 107.482 21.0463C107.362 21.5664 107.252 22.0737 107.157 22.5697C107.108 22.4453 107.067 22.3416 107.027 22.2484C106.955 22.0761 106.907 21.9639 106.882 21.9158C106.337 22.4555 105.843 22.9216 105.4 23.3143C105.016 23.6549 104.613 23.9733 104.192 24.268C103.891 24.483 103.569 24.6657 103.229 24.813C103.002 24.9167 102.758 24.9752 102.508 24.9853C102.296 25.0061 102.083 24.9754 101.886 24.8958C101.689 24.8162 101.514 24.6902 101.376 24.5285C101.126 24.1518 101.005 23.705 101.03 23.2542C101.044 22.5119 101.129 21.7725 101.284 21.0463ZM125.438 24.3883C125.421 24.3663 125.403 24.3459 125.382 24.3273L125.365 23.9674L128.209 21.1745C128.231 21.2437 128.254 21.3221 128.279 21.4068C128.3 21.4791 128.322 21.5559 128.346 21.6353C128.399 21.8076 128.447 22.004 128.491 22.2083C128.537 22.4114 128.573 22.6238 128.6 22.8455C128.627 23.0635 128.64 23.283 128.64 23.5027C128.64 23.7421 128.617 23.9809 128.572 24.2159C128.529 24.4301 128.443 24.6333 128.318 24.813C128.191 24.9845 128.024 25.1222 127.831 25.2137C127.589 25.3256 127.324 25.3791 127.057 25.37C126.817 25.3747 126.579 25.3122 126.373 25.1897C126.182 25.0746 126.004 24.9403 125.841 24.789C125.789 24.7378 125.739 24.6885 125.691 24.641L125.691 24.6404L125.69 24.64C125.599 24.5502 125.514 24.4667 125.438 24.3883ZM112.956 32.8514C112.934 32.7499 112.92 32.6467 112.916 32.5429C112.932 32.3765 112.961 32.2116 113.005 32.05C113.049 31.8136 113.109 31.5371 113.186 31.2125C113.262 30.8879 113.351 30.5433 113.456 30.1666C113.56 29.7899 113.677 29.4173 113.802 29.0446C113.926 28.6679 114.06 28.3073 114.205 27.9627C114.332 27.6476 114.48 27.3411 114.648 27.045C114.632 27.1549 114.63 27.2827 114.628 27.4141V27.4142C114.627 27.4792 114.626 27.5451 114.624 27.61C114.62 27.6971 114.617 27.796 114.613 27.9046C114.608 28.041 114.602 28.1926 114.595 28.3554C114.583 28.6479 114.563 29.0206 114.539 29.4493C114.516 29.6496 114.515 29.8706 114.513 30.1104L114.513 30.1115C114.512 30.1689 114.512 30.2273 114.511 30.2868C114.507 30.5954 114.495 30.912 114.479 31.2406C114.463 31.5691 114.446 31.8897 114.422 32.1983C114.402 32.48 114.362 32.7599 114.301 33.0358C114.259 33.2432 114.186 33.4432 114.084 33.6288C114.052 33.6914 114.005 33.7447 113.946 33.7834C113.888 33.822 113.82 33.8447 113.75 33.8492C113.674 33.8528 113.599 33.8395 113.529 33.8104C113.459 33.7813 113.397 33.737 113.347 33.6809C113.24 33.5628 113.154 33.4272 113.093 33.2802C113.032 33.1425 112.986 32.9988 112.956 32.8514ZM118.337 23.154C117.958 23.4702 117.541 23.7393 117.097 23.9555C117.097 23.4666 117.117 22.9897 117.145 22.5169C117.173 22.0441 117.222 21.5872 117.29 21.1504C117.353 20.7353 117.442 20.3245 117.556 19.9202C117.645 19.5727 117.781 19.2385 117.959 18.9265C118.105 18.667 118.304 18.4405 118.543 18.2613C118.77 18.0979 119.044 18.0122 119.324 18.0168C119.436 18.0112 119.549 18.0278 119.654 18.0656C119.76 18.1034 119.857 18.1618 119.94 18.2372C120.089 18.3856 120.197 18.569 120.254 18.7702C120.316 18.9863 120.34 19.2112 120.327 19.4354C120.318 19.6417 120.291 19.8468 120.246 20.0485C120.15 20.4259 120.022 20.7945 119.864 21.1504C119.697 21.5258 119.488 21.8808 119.239 22.2083C118.976 22.557 118.674 22.8744 118.337 23.154ZM140.514 9.16495C140.519 9.26373 140.519 9.36271 140.514 9.46148C140.505 9.79642 140.442 10.1278 140.329 10.4432C140.192 10.844 140.023 11.2727 139.813 11.7296C139.604 12.1864 139.37 12.6552 139.108 13.1281C138.847 13.6009 138.597 14.0457 138.359 14.4464L137.985 14.4064L137.626 14.3663C137.774 13.7144 137.932 13.0466 138.101 12.3627C138.271 11.6788 138.454 11.0523 138.653 10.4833C138.81 9.99567 139.016 9.52457 139.265 9.07679C139.491 8.71214 139.688 8.52781 139.894 8.52781C140.019 8.5196 140.144 8.55346 140.248 8.62398C140.331 8.68533 140.396 8.76675 140.437 8.86041C140.477 8.9579 140.503 9.0604 140.514 9.16495ZM146.447 21.6594C146.773 21.6518 147.094 21.5768 147.389 21.439C147.73 21.2916 148.05 21.1003 148.34 20.8699C148.62 20.6549 148.868 20.4012 149.077 20.1166C149.264 19.89 149.37 19.6082 149.379 19.3152C149.392 19.0092 149.324 18.7052 149.182 18.4336C149.141 18.3362 149.074 18.2521 148.988 18.1905C148.902 18.129 148.8 18.0924 148.694 18.0849C148.408 18.0752 148.124 18.1325 147.865 18.2523C147.605 18.372 147.377 18.5508 147.2 18.7742C147.029 18.9822 146.893 19.2163 146.797 19.4674C146.698 19.7206 146.621 19.9821 146.568 20.2488C146.519 20.5018 146.486 20.7574 146.467 21.0142C146.447 21.2666 146.447 21.4749 146.447 21.6512V21.6594Z" fill="white"/>
<path d="M109.19 12.4348C109.196 12.2226 109.237 12.0128 109.311 11.8137C109.4 11.5727 109.537 11.3519 109.714 11.1645C109.915 10.9435 110.16 10.7673 110.435 10.6476C110.79 10.4989 111.173 10.4278 111.559 10.4392C111.83 10.4362 112.101 10.4686 112.364 10.5354C112.598 10.5917 112.819 10.6909 113.017 10.8279C113.203 10.963 113.352 11.142 113.452 11.3489C113.566 11.5875 113.623 11.8497 113.617 12.1142C113.618 12.387 113.574 12.658 113.484 12.9157C113.399 13.1682 113.262 13.4003 113.081 13.5969C112.874 13.8051 112.626 13.9687 112.352 14.0778C112.018 14.2101 111.66 14.2742 111.301 14.2661C110.734 14.3115 110.173 14.133 109.738 13.7692C109.558 13.597 109.417 13.3893 109.323 13.1595C109.228 12.9298 109.183 12.6829 109.19 12.4348Z" fill="white"/>
<path d="M30.7856 21.0466L30.8147 21.0286L32.4867 22.0539C38.177 25.5431 43.5701 28.182 46.7528 29.0344C49.8508 29.8642 51.9665 29.5791 53.5335 28.1208C54.8677 26.8792 55.165 24.8501 54.553 21.1635C54.225 19.1886 52.6382 12.8085 52.3189 12.1818C51.9938 11.5437 51.5074 11.1143 50.6585 10.7166C50.0524 10.4327 49.9447 10.4209 48.0164 10.425C46.2252 10.4287 45.8566 10.4642 44.6337 10.75C41.2208 11.5477 36.772 13.2635 32.2019 15.5444L30.9187 16.1849L30.7856 16.1208V21.0466Z" fill="#3E8ABF"/>
<path d="M30.7857 16.1959L28.9281 15.3014C24.5271 13.1819 20.0588 11.5002 17.0819 10.8431C15.7311 10.5449 13.9618 10.3574 12.9805 10.4083C11.1973 10.5011 9.87096 11.1786 9.29453 12.2912C8.88972 13.0727 7.27669 19.8447 6.94563 22.1529C6.45215 25.5931 7.09554 27.7192 8.96002 28.8097C10.1203 29.4883 12.0757 29.7105 13.7692 29.3561C17.2974 28.6177 23.0301 25.9153 29.3355 22.0179L30.7857 21.1217V16.1959Z" fill="#236FA4"/>
</svg>
