<?xml version="1.0" encoding="UTF-8" standalone="no"?>
<!-- Created with Inkscape (http://www.inkscape.org/) -->

<svg
   xmlns:dc="http://purl.org/dc/elements/1.1/"
   xmlns:cc="http://creativecommons.org/ns#"
   xmlns:rdf="http://www.w3.org/1999/02/22-rdf-syntax-ns#"
   xmlns:svg="http://www.w3.org/2000/svg"
   xmlns="http://www.w3.org/2000/svg"
   xmlns:sodipodi="http://sodipodi.sourceforge.net/DTD/sodipodi-0.dtd"
   xmlns:inkscape="http://www.inkscape.org/namespaces/inkscape"
   width="1920"
   height="1200"
   viewBox="0 0 1920 1200"
   id="svg2"
   version="1.1"
   inkscape:version="0.91 r13725"
   sodipodi:docname="wallpaper-004.svg"
   inkscape:export-filename="/home/fred/git/jhipster-artwork/wallpaper/wallpaper-003-1440x900.png"
   inkscape:export-xdpi="67.5"
   inkscape:export-ydpi="67.5">
  <defs
     id="defs4" />
  <sodipodi:namedview
     id="base"
     pagecolor="#ffffff"
     bordercolor="#666666"
     borderopacity="1.0"
     inkscape:pageopacity="0.0"
     inkscape:pageshadow="2"
     inkscape:zoom="0.35"
     inkscape:cx="-206.4286"
     inkscape:cy="692.66131"
     inkscape:document-units="px"
     inkscape:current-layer="layer1"
     showgrid="false"
     inkscape:window-width="1920"
     inkscape:window-height="1016"
     inkscape:window-x="0"
     inkscape:window-y="27"
     inkscape:window-maximized="1"
     units="px"
     showguides="true"
     inkscape:guide-bbox="true">
    <sodipodi:guide
       position="1331.4286,1291.4286"
       orientation="1,0"
       id="guide4387" />
    <sodipodi:guide
       position="960,1021.4286"
       orientation="1,0"
       id="guide4389" />
  </sodipodi:namedview>
  <metadata
     id="metadata7">
    <rdf:RDF>
      <cc:Work
         rdf:about="">
        <dc:format>image/svg+xml</dc:format>
        <dc:type
           rdf:resource="http://purl.org/dc/dcmitype/StillImage" />
        <dc:title />
      </cc:Work>
    </rdf:RDF>
  </metadata>
  <g
     inkscape:label="Ebene 1"
     inkscape:groupmode="layer"
     id="layer1"
     transform="translate(0,147.6376)">
    <rect
       style="fill:#3e8acc;fill-opacity:1;stroke:none"
       id="rect3529"
       width="1920"
       height="1200"
       x="0"
       y="-147.6377" />
    <ellipse
       style="fill:#ffffff;fill-opacity:1;stroke:none"
       id="path4385"
       cx="960"
       cy="292.7612"
       rx="355.71426"
       ry="366.54822" />
    <text
       xml:space="preserve"
       style="font-style:normal;font-weight:normal;font-size:40px;line-height:125%;font-family:sans-serif;letter-spacing:0px;word-spacing:0px;fill:#000000;fill-opacity:1;stroke:none;stroke-width:1px;stroke-linecap:butt;stroke-linejoin:miter;stroke-opacity:1"
       x="106.91925"
       y="844.07666"
       id="text4331"
       sodipodi:linespacing="125%"><tspan
         sodipodi:role="line"
         id="tspan4333"
         x="106.91925"
         y="844.07666"
         style="font-style:normal;font-variant:normal;font-weight:normal;font-stretch:normal;font-size:156.25px;font-family:Pacifico;-inkscape-font-specification:Pacifico;fill:#ffffff">Greetings, Java Hipster!</tspan></text>
    <g
       id="g4338"
       transform="matrix(0.54491644,0,0,0.54491644,748.33513,-32.476702)">
      <g
         id="jacket_2_">
        <path
           d="m 595.042,490.403 c 0,0 1.275,-34.418 -24.249,-56.648 -25.523,-22.231 -87.921,-48.58 -178.784,-47.207 -90.863,1.373 35.346,101.803 35.346,101.803 l 167.687,2.052 z"
           id="shoulders_2_"
           inkscape:connector-curvature="0"
           style="clip-rule:evenodd;fill:#495061;fill-rule:evenodd" />
        <path
           d="m 193.028,490.403 c 0,0 -1.275,-34.464 24.255,-56.724 25.53,-22.261 87.943,-48.645 178.828,-47.271 90.885,1.374 -35.355,101.94 -35.355,101.94 0,0 -56.796,0.696 -104.288,1.278 -34.122,0.417 -63.44,0.777 -63.44,0.777 z"
           id="shoulders_1_"
           inkscape:connector-curvature="0"
           style="clip-rule:evenodd;fill:#495061;fill-rule:evenodd" />
      </g>
      <g
         id="jacket_1_">
        <path
           d="m 394.055,396.684 c 111.025,0 201.028,42.879 201.028,95.774 0,52.895 -90.003,95.774 -201.028,95.774 -111.025,0 -201.028,-42.88 -201.028,-95.774 0,-52.894 90.004,-95.774 201.028,-95.774 z"
           id="shoulders"
           inkscape:connector-curvature="0"
           style="clip-rule:evenodd;fill:#495061;fill-rule:evenodd" />
        <path
           d="m 318.002,423.402 63.11,33.007 55.188,0 8.732,-18.21 20.555,-29.595 52.621,13.153 57.554,163.186 -60.021,254.849 69.259,86.133 10.083,38.692 c 0,0 -175.072,32.029 -225.283,30.552 -50.211,-1.477 -211.305,-18.908 -211.305,-18.908 l 30.421,-103.995 87.982,-399.341 41.104,-49.523 z"
           id="shirt"
           inkscape:connector-curvature="0"
           style="clip-rule:evenodd;fill:#ffffff;fill-rule:evenodd" />
        <path
           d="m 18.467,750.316 c 0,0 112.496,-241.475 106.698,-280.064 -5.798,-38.59 -0.748,-54.595 12.326,-61.637 13.074,-7.043 150.61,13.098 150.61,13.098 0,0 37.97,25.431 35.438,36.212 -2.532,10.781 8.212,318.954 -10.059,357.206 -18.271,38.252 -31.759,171.602 -43.988,186.204 -12.228,14.603 -112.047,-68.52 -113.875,-83.854 -1.828,-15.334 44.733,-154.742 34.645,-197.213 -10.088,-42.472 -11.556,-80.899 -11.556,-80.899 L 68.542,776.511 18.467,750.316 Z"
           id="sleeve_1_"
           inkscape:connector-curvature="0"
           style="clip-rule:evenodd;fill:#3d4251;fill-rule:evenodd" />
        <path
           d="m 699.136,997.01 c 0,0 36.326,42.562 34.783,62.735 -1.542,20.173 -3.473,53.945 -19.324,61.48 -15.851,7.535 -71.306,6.79 -80.303,-15.893 -8.996,-22.683 6.441,-100.794 6.441,-100.794 l 58.403,-7.528 z"
           id="hand"
           inkscape:connector-curvature="0"
           style="clip-rule:evenodd;fill:#f5e0d4;fill-rule:evenodd" />
        <path
           d="m 614.126,960.758 16.45,52.279 c 0,0 20.571,10.553 44.71,6.151 24.139,-4.403 32.056,-24.218 32.056,-24.218 l -17.715,-52.664 -75.501,18.452 z"
           id="handle"
           inkscape:connector-curvature="0"
           style="clip-rule:evenodd;fill:#f1f1f1;fill-rule:evenodd" />
        <path
           d="m 638.241,435.195 c 0,0 43.999,464.025 64.479,518.283 20.48,54.258 -87.439,27.351 -87.439,27.351 l -19.412,-44.832 c 0,0 -33.125,-257.871 -33.126,-271.589 -0.001,-13.717 75.498,-229.213 75.498,-229.213 z"
           id="sleeve"
           inkscape:connector-curvature="0"
           style="clip-rule:evenodd;fill:#363a47;fill-rule:evenodd" />
        <path
           d="m 451.808,390.508 c 0,0 1.313,0.103 3.695,0.285 21.342,1.633 128.514,9.651 146.145,7.42 19.599,-2.48 45.886,23.65 34.282,48.154 -11.604,24.504 -46.645,245.279 -46.608,285.457 0.036,40.179 11.953,184.889 13.573,199.221 1.62,14.332 -143.582,49.451 -158.273,34.117 -7.978,-8.327 0.178,-91.15 23.433,-201.824 19.571,-93.14 54.846,-214.882 50.393,-240.31 -9.745,-55.642 -46.223,-97.079 -46.223,-97.079"
           id="sleeve_2_"
           inkscape:connector-curvature="0"
           style="clip-rule:evenodd;fill:#3d4251;fill-rule:evenodd" />
      </g>
      <g
         id="head">
        <path
           d="m 281.423,203.989 c 0,0 -11.463,-4.608 -20.133,0.824 -8.67,5.432 -11.941,29.186 -4.52,39.57 7.422,10.383 15.031,22.937 23.009,23.907 7.979,0.969 17.257,-1.649 17.257,-1.649 l -3.287,-31.738 -12.326,-30.914 z"
           id="ear_1_"
           inkscape:connector-curvature="0"
           style="clip-rule:evenodd;fill:#ebcfc2;fill-rule:evenodd" />
        <path
           d="m 500.941,203.903 c 0,0 11.469,-4.595 20.144,0.822 8.675,5.417 11.948,29.106 4.522,39.46 -7.425,10.355 -15.039,22.874 -23.022,23.841 -7.983,0.967 -17.266,-1.644 -17.266,-1.644 l 3.289,-31.651 12.333,-30.828 z"
           id="ear"
           inkscape:connector-curvature="0"
           style="clip-rule:evenodd;fill:#ebcfc2;fill-rule:evenodd" />
        <path
           d="m 509.986,260.216 c 4.087,0 7.4,3.313 7.4,7.399 0,4.086 -3.313,7.399 -7.4,7.399 -4.087,0 -7.4,-3.313 -7.4,-7.399 0,-4.086 3.313,-7.399 7.4,-7.399 z"
           id="earring"
           inkscape:connector-curvature="0"
           style="clip-rule:evenodd;fill:#4189c6;fill-rule:evenodd" />
        <path
           d="m 446.27,348.185 -110.59,0 0,83.31 55.37,25 55.22,-25 0,-83.31 z"
           id="neck"
           inkscape:connector-curvature="0"
           style="clip-rule:evenodd;fill:#f5e0d4;fill-rule:evenodd" />
        <path
           d="m 385.833,45.238 c 69.763,-1.072 109.353,34.35 125.797,86.731 20.207,64.371 -9.413,137.683 -33.71,179.217 -9.957,17.021 -18.84,33.648 -34.532,44.804 -10.57,7.515 -25.525,12.109 -40.699,14.798 -19.135,3.39 -45.278,-4 -55.91,-10.276 -37.977,-22.419 -67.749,-96 -78.931,-146.744 -5.022,-22.79 -4.018,-55.379 2.055,-76.044 11.928,-40.586 34.336,-69.057 71.943,-83.854 9.257,-3.643 19.697,-5.377 30.421,-7.399 4.522,-0.41 9.045,-0.822 13.566,-1.233 z"
           id="face"
           inkscape:connector-curvature="0"
           style="clip-rule:evenodd;fill:#f5e0d4;fill-rule:evenodd" />
        <path
           d="m 339.996,189.927 c 12.828,0 23.227,10.398 23.227,23.224 0,12.826 -10.399,23.224 -23.227,23.224 -12.828,0 -23.227,-10.398 -23.227,-23.224 0,-12.826 10.399,-23.224 23.227,-23.224 z"
           id="eye"
           inkscape:connector-curvature="0"
           style="clip-rule:evenodd;fill:#ffffff;fill-rule:evenodd" />
        <path
           d="m 349.25,212.945 c 0,5.45 -4.42,9.87 -9.87,9.87 -4.04,0 -7.51,-2.43 -9.03,-5.9 0.6,0.35 1.3,0.55 2.04,0.55 2.27,0 4.11,-1.84 4.11,-4.11 0,-2.27 -1.84,-4.11 -4.11,-4.11 -0.91,0 -1.75,0.3 -2.44,0.81 1.23,-4.04 4.99,-6.97 9.43,-6.97 5.45,0 9.87,4.41 9.87,9.86 z"
           id="pupill"
           inkscape:connector-curvature="0"
           style="clip-rule:evenodd;fill:#333333;fill-rule:evenodd" />
        <path
           d="m 444.996,189.927 c 12.828,0 23.227,10.398 23.227,23.224 0,12.826 -10.399,23.224 -23.227,23.224 -12.828,0 -23.227,-10.398 -23.227,-23.224 0,-12.826 10.399,-23.224 23.227,-23.224 z"
           id="eye_1_"
           inkscape:connector-curvature="0"
           style="clip-rule:evenodd;fill:#ffffff;fill-rule:evenodd" />
        <path
           d="m 454.25,212.945 c 0,5.45 -4.42,9.87 -9.87,9.87 -4.04,0 -7.51,-2.43 -9.03,-5.9 0.6,0.35 1.3,0.55 2.04,0.55 2.27,0 4.11,-1.84 4.11,-4.11 0,-2.27 -1.84,-4.11 -4.11,-4.11 -0.91,0 -1.75,0.3 -2.44,0.81 1.23,-4.04 4.99,-6.97 9.43,-6.97 5.45,0 9.87,4.41 9.87,9.86 z"
           id="pupill_1_"
           inkscape:connector-curvature="0"
           style="clip-rule:evenodd;fill:#333333;fill-rule:evenodd" />
        <path
           d="m 380.9,213.768 25.077,0 0,10.276 -25.077,0 0,-10.276 z"
           id="glasses"
           inkscape:connector-curvature="0"
           style="clip-rule:evenodd;fill:#4189c6;fill-rule:evenodd" />
        <path
           d="m 373.5,181.705 -66.6,0 c -4.54,0 -8.22,3.68 -8.22,8.22 l 0,50.97 c 0,4.54 3.68,8.22 8.22,8.22 l 66.6,0 c 4.54,0 8.22,-3.68 8.22,-8.22 l 0,-50.97 c 0,-4.54 -3.68,-8.22 -8.22,-8.22 z m -1.72,52.13 c 0,3.36 -2.78,6.09 -6.21,6.09 l -50.35,0 c -3.44,0 -6.22,-2.73 -6.22,-6.09 l 0,-37.74 c 0,-3.36 2.78,-6.09 6.22,-6.09 l 50.35,0 c 3.43,0 6.21,2.73 6.21,6.09 l 0,37.74 z"
           id="glasses_2_"
           inkscape:connector-curvature="0"
           style="clip-rule:evenodd;fill:#4189c6;fill-rule:evenodd" />
        <path
           d="m 477.5,181.705 -66.6,0 c -4.54,0 -8.22,3.68 -8.22,8.22 l 0,50.97 c 0,4.54 3.68,8.22 8.22,8.22 l 66.6,0 c 4.54,0 8.22,-3.68 8.22,-8.22 l 0,-50.97 c 0,-4.54 -3.68,-8.22 -8.22,-8.22 z m -1.72,52.13 c 0,3.36 -2.78,6.09 -6.21,6.09 l -50.35,0 c -3.44,0 -6.22,-2.73 -6.22,-6.09 l 0,-37.74 c 0,-3.36 2.78,-6.09 6.22,-6.09 l 50.35,0 c 3.43,0 6.21,2.73 6.21,6.09 l 0,37.74 z"
           id="glasses_1_"
           inkscape:connector-curvature="0"
           style="clip-rule:evenodd;fill:#4189c6;fill-rule:evenodd" />
        <path
           d="m 341.8,151.061 c -24.698,0.54 -39.009,8.574 -39.009,16.937 0,8.364 13.151,5.992 22.995,2.066 9.844,-3.926 22.872,-3.621 28.332,0.413 5.46,4.034 17.164,5.165 17.656,-3.305 0.493,-8.47 -21.553,-16.294 -29.974,-16.111 z"
           id="eyebrows_1_"
           inkscape:connector-curvature="0"
           style="clip-rule:evenodd;fill:#b08f7e;fill-rule:evenodd" />
        <path
           d="m 442.565,150.878 c 24.728,0.537 39.055,8.531 39.055,16.853 0,8.322 -13.166,5.962 -23.022,2.055 -9.855,-3.906 -22.9,-3.603 -28.366,0.411 -5.466,4.014 -17.184,5.14 -17.677,-3.288 -0.493,-8.429 21.579,-16.215 30.01,-16.031 z"
           id="eyebrows"
           inkscape:connector-curvature="0"
           style="clip-rule:evenodd;fill:#b08f7e;fill-rule:evenodd" />
        <path
           d="m 504.52,253.395 c -7.69,22.29 -17.52,42.26 -26.6,57.79 -9.96,17.02 -18.84,33.65 -34.53,44.81 -10.57,7.51 -25.53,12.1 -40.7,14.79 -19.14,3.39 -45.28,-4 -55.91,-10.27 -27.23,-16.07 -50.24,-58.45 -65.21,-99.85 -0.05,-2.84 0.14,-5.52 0.67,-7.85 0.41,-0.13 0.82,-0.27 1.23,-0.41 6.1,-2.35 12.36,4.16 15.62,6.58 11.95,8.86 20.54,20.07 31.24,30 -2.25,-8.18 4.44,-26.45 12.75,-19.31 3.76,2.73 0.55,12.25 1.64,17.26 18.14,12.21 20,-9.94 28.78,-14.39 5.9,-1.13 11.45,3.89 17.27,4.94 9.49,1.7 14.05,-4.87 22.2,-5.35 8.17,4.72 8.23,20.15 22.61,17.27 3.57,-0.72 5.17,-0.5 6.57,-3.29 2.72,-5.18 -1.67,-13.47 1.24,-16.86 2.9,-3.38 3.29,-0.54 4.93,-0.82 5.96,2.76 11.39,11.2 8.22,20.14 3.43,-3.7 6.85,-7.4 10.28,-11.09 10.42,-10.56 19.89,-18.84 34.12,-25.9 0.82,0.14 1.65,0.27 2.47,0.41 0.37,0.47 0.74,0.93 1.11,1.4 z"
           id="beard_1_"
           inkscape:connector-curvature="0"
           style="clip-rule:evenodd;fill:#b08f7e;fill-rule:evenodd" />
        <path
           d="m 360.756,303.787 c 0,0 8.352,14.478 31.655,13.976 23.303,-0.503 31.244,-13.976 31.244,-13.976 0,0 -15.235,-4.932 -27.544,-4.932 -5.288,0 -10.737,2.929 -17.677,4.111 -6.941,1.181 -17.678,0.821 -17.678,0.821 z"
           id="mounth"
           inkscape:connector-curvature="0"
           style="clip-rule:evenodd;fill:#ebcfc2;fill-rule:evenodd" />
        <path
           d="m 431.377,367.185 c -6.226,2.244 -12.452,4.499 -18.678,6.743 1.034,8.582 2.08,17.164 3.113,25.746 5.392,2.857 10.796,5.725 16.188,8.582 4.757,-2.673 9.514,-5.345 14.27,-8.03 l 0,-28.296 c -4.968,-1.582 -9.924,-3.164 -14.893,-4.745 z m 9.016,29.988 c 0,-0.074 -2.789,-5.468 -2.789,-5.468 0,0 -6.438,0 -9.962,0 -1.034,1.839 -2.079,3.678 -3.113,5.517 l -4.358,0 c 3.736,-8.582 11.83,-25.746 11.83,-25.746 l 12.452,25.746 -4.06,-0.049 z"
           id="angular_1_"
           inkscape:connector-curvature="0"
           style="clip-rule:evenodd;fill:#979a9b;fill-rule:evenodd" />
        <polygon
           points="432.003,378.831 435.73,387.412 428.881,387.412 "
           id="angular"
           style="clip-rule:evenodd;fill:#979a9b;fill-rule:evenodd" />
        <path
           d="m 362.406,370.317 c -5.438,-1.343 -13.797,-0.763 -20.371,-0.691 -2.418,1.622 -4.519,4.226 -6.356,7.153 0,5.395 0.389,19.66 0.389,25.564 1.694,2.451 3.467,4.492 4.93,5.609 l 20.371,0 c 3.173,-1.492 4.192,-5.293 5.87,-8.287 1.84,-3.108 3.684,-6.215 5.524,-9.323 0.982,-3.894 -8.416,-17.404 -10.357,-20.025 z m -12.084,5.87 1.726,0 c 0.231,0.345 0.459,0.691 0.691,1.036 0.114,3.912 0.231,7.827 0.345,11.74 -1.105,0.68 -1.088,0.932 -2.417,0.691 -1.999,-1.459 -1.44,-11.341 -0.345,-13.467 z m 3.452,23.824 c -13.487,3.308 -15.351,-11.377 -11.74,-19.336 0.805,-0.691 1.612,-1.381 2.417,-2.072 0.691,0.114 1.381,0.231 2.072,0.345 0.114,0.345 0.231,0.691 0.345,1.036 -3.474,5.203 -7.758,14.308 2.072,16.919 11.567,3.073 13.317,-11.819 6.906,-16.228 l 0,-1.381 c 0.459,-0.345 0.922,-0.691 1.381,-1.036 9.419,4.883 5.97,19.443 -3.453,21.753 z"
           id="spring_boot"
           inkscape:connector-curvature="0"
           style="clip-rule:evenodd;fill:#979a9b;fill-rule:evenodd" />
        <path
           d="m 446.676,389.696 -59.609,69.878 36.588,9.043 40.699,-45.215 c 0,0 -0.045,-13.113 -3.289,-19.319 -3.244,-6.206 -14.389,-14.387 -14.389,-14.387 z"
           id="collar_1_"
           inkscape:connector-curvature="0"
           style="clip-rule:evenodd;fill:#ffffff;fill-rule:evenodd" />
        <path
           d="m 335.679,389.696 59.609,69.878 -36.588,9.043 -40.699,-45.215 c 0,0 0.045,-13.113 3.289,-19.319 3.245,-6.206 14.389,-14.387 14.389,-14.387 z"
           id="collar"
           inkscape:connector-curvature="0"
           style="clip-rule:evenodd;fill:#ffffff;fill-rule:evenodd" />
        <path
           d="m 265.381,195.682 c 0,0 6.133,-17.02 6.578,-23.841 0.445,-6.821 5.171,-46.943 19.733,-67.001 9.368,-14.438 23.076,-17.432 36.588,-14.387 13.512,3.046 29.166,11.175 45.221,9.043 16.055,-2.132 56.817,-22.612 73.587,-14.798 16.77,7.815 44.946,21.469 48.099,47.27 3.152,25.801 21.377,66.59 21.377,66.59 0,0 9.441,-65.867 9.455,-83.443 C 526.033,97.539 480.27,45.956 470.932,35.783 461.594,25.61 431.38,-0.89 413.377,0.023 395.374,0.937 371.13,15.551 361.578,16.465 c -9.552,0.914 -15.831,-3.592 -26.31,-1.644 -10.48,1.948 -21.592,1.371 -53.443,34.528 -31.85,33.157 -28.534,82.852 -26.31,110.572 2.224,27.72 9.866,35.761 9.866,35.761 z"
           id="hears"
           inkscape:connector-curvature="0"
           style="clip-rule:evenodd;fill:#b08f7e;fill-rule:evenodd" />
        <path
           id="path4318"
           d="m 352.123,87.987 c 0,0 -7.832,-11.734 2.056,-33.295 9.887,-21.561 10.277,-31.651 10.277,-31.651 0,0 -5.6,13.958 -13.155,31.651 -7.555,17.693 0.822,33.295 0.822,33.295 z"
           inkscape:connector-curvature="0"
           style="clip-rule:evenodd;fill:#d5ad98;fill-rule:evenodd" />
        <path
           id="path4320"
           d="m 380.9,91.276 c 0,0 22.204,-25.629 36.588,-36.994 14.384,-11.365 32.066,-24.252 32.066,-24.252 0,0 -13.968,3.438 -34.943,21.375 C 393.635,69.341 380.9,91.276 380.9,91.276 Z"
           inkscape:connector-curvature="0"
           style="clip-rule:evenodd;fill:#d5ad98;fill-rule:evenodd" />
        <path
           id="path4322"
           d="m 365.69,87.576 c 0,0 -0.479,-23.829 11.1,-50.148 C 388.368,11.11 411.734,7.01 411.734,7.01 c 0,0 -17.107,7.784 -29.188,31.24 -12.081,23.456 -16.856,49.326 -16.856,49.326 z"
           inkscape:connector-curvature="0"
           style="clip-rule:evenodd;fill:#d5ad98;fill-rule:evenodd" />
      </g>
      <g
         id="tie_2_">
        <path
           d="m 408.106,466.641 c 0,0 -92.462,-40.278 -96.344,-8.15 -3.882,32.129 -9.554,56.89 14.031,58.623 23.586,1.733 82.313,-50.473 82.313,-50.473 z"
           id="tie"
           inkscape:connector-curvature="0"
           style="clip-rule:evenodd;fill:#3373aa;fill-rule:evenodd" />
        <path
           d="m 392.254,460.814 c 23.392,-15.73 69.958,-43.411 78.269,-20.748 11.188,30.505 22.413,53.396 -0.092,60.533 -15.816,5.016 -54.636,-11.997 -76.317,-22.555 -1.781,-15.237 -0.105,-2.215 -1.86,-17.23 z"
           id="tie_1_"
           inkscape:connector-curvature="0"
           style="clip-rule:evenodd;fill:#4189c6;fill-rule:evenodd" />
      </g>
      <g
         id="jacket">
        <path
           d="m 352.765,323.131 c 35.563,0.436 63.647,15.195 63.535,28.857 -0.112,13.662 4.066,79.384 -42.489,84.647 -46.555,5.263 -75.653,-38.674 -77.036,-72.72 -1.383,-34.044 20.427,-41.22 55.99,-40.784 z"
           id="coffee"
           inkscape:connector-curvature="0"
           style="clip-rule:evenodd;fill:#d6d6d6;fill-rule:evenodd" />
        <path
           d="m 219.152,523.413 c -7.214,-15.43 -6.058,-119.263 12.711,-127.127 18.769,-7.864 46.569,-20.664 58.934,-20.032 12.365,0.632 21.388,0.078 27.734,6.549 6.346,6.471 22.125,26.981 20.03,38.908 -2.095,11.927 -38.212,21.134 -46.223,29.663 -8.011,8.529 -11.99,41.9 -17.334,49.31 -5.344,7.41 -19.444,40.146 -38.134,35.441 -18.689,-4.703 -10.504,2.719 -17.718,-12.712 z"
           id="hand_1_"
           inkscape:connector-curvature="0"
           style="clip-rule:evenodd;fill:#f5e0d4;fill-rule:evenodd" />
        <path
           d="m 192.188,493.365 c 0,0 29.855,12.451 38.519,20.032 8.664,7.581 30.815,47.384 30.815,47.384 l -45.068,51.621 c 0,0 -34.283,-17.694 -43.141,-26.966 -8.858,-9.273 -26.578,-43.531 -26.578,-43.531 l 45.453,-48.54 z"
           id="handle_1_"
           inkscape:connector-curvature="0"
           style="clip-rule:evenodd;fill:#f1f1f1;fill-rule:evenodd" />
        <path
           d="m 137.876,534.97 c 0,0 -181.231,200.73 -128.269,253.098 52.962,52.368 77.424,19.647 77.424,19.647 L 234.56,615.869 c 0,0 -43.14,-29.001 -57.394,-42.761 -14.253,-13.759 -39.29,-38.138 -39.29,-38.138 z"
           id="sleeve_3_"
           inkscape:connector-curvature="0"
           style="clip-rule:evenodd;fill:#495061;fill-rule:evenodd" />
      </g>
    </g>
  </g>
</svg>
