<?xml version="1.0" encoding="UTF-8" standalone="no"?>
<!-- Created with Inkscape (http://www.inkscape.org/) -->

<svg
   xmlns:dc="http://purl.org/dc/elements/1.1/"
   xmlns:cc="http://creativecommons.org/ns#"
   xmlns:rdf="http://www.w3.org/1999/02/22-rdf-syntax-ns#"
   xmlns:svg="http://www.w3.org/2000/svg"
   xmlns="http://www.w3.org/2000/svg"
   xmlns:inkscape="http://www.inkscape.org/namespaces/inkscape"
   version="1.1"
   width="909.48749"
   height="912.9375"
   id="svg2"
   xml:space="preserve"><metadata
     id="metadata8"><rdf:RDF><cc:Work
         rdf:about=""><dc:format>image/svg+xml</dc:format><dc:type
           rdf:resource="http://purl.org/dc/dcmitype/StillImage" /></cc:Work></rdf:RDF></metadata><defs
     id="defs6"><clipPath
       id="clipPath18"><path
         d="M 0,7303.54 0,0 l 7275.86,0 0,7303.54 -7275.86,0 z"
         inkscape:connector-curvature="0"
         id="path20" /></clipPath></defs><g
     transform="matrix(1.25,0,0,-1.25,0,912.9375)"
     id="g10"><g
       transform="scale(0.1,0.1)"
       id="g12"><g
         id="g14"><g
           clip-path="url(#clipPath18)"
           id="g16"><path
             d="m 209.023,465.75 c 0,-25.031 2.223,-49.969 6.801,-72.699 38.602,-138.629 156.758,-233.992 299.922,-233.992 211.234,0 333.922,170.351 333.922,422.543 0,222.66 -113.578,411.199 -327.117,411.199 -136.328,0 -263.563,-95.442 -302.207,-245.379 -6.805,-25 -11.321,-52.223 -11.321,-84.051 l 0,-197.621 z M 9.08594,1637.99 l 199.93706,0 0,-688.361 4.516,0 c 70.438,122.671 197.676,199.951 374.891,199.951 272.593,0 463.41,-227.189 463.41,-558.932 C 1051.84,195.391 801.949,0 556.598,0 397.578,0 272.605,61.3398 188.57,206.719 l -4.554,0 L 172.656,25.0117 0,25.0117 C 6.80078,99.9805 9.08594,211.27 9.08594,308.941 l 0,1329.049"
             inkscape:connector-curvature="0"
             id="path22"
             style="fill:#21477d;fill-opacity:1;fill-rule:nonzero;stroke:none" /><path
             d="m 1758.18,149.949 c 190.84,0 333.95,179.461 333.95,429.363 0,186.309 -93.11,420.309 -329.39,420.309 -234.02,0 -336.24,-218.109 -336.24,-427.129 0,-240.832 136.3,-422.543 329.44,-422.543 l 2.24,0 z M 1751.38,0 C 1456,0 1224.32,218.109 1224.32,565.691 c 0,368.059 243.1,583.889 545.22,583.889 315.8,0 529.38,-229.498 529.38,-563.49 C 2298.92,177.23 2014.91,0 1753.64,0 l -2.26,0"
             inkscape:connector-curvature="0"
             id="path24"
             style="fill:#21477d;fill-opacity:1;fill-rule:nonzero;stroke:none" /><path
             d="m 2612.29,1124.58 156.77,-233.99 c 40.88,-63.641 74.95,-118.141 111.32,-179.5 l 6.83,0 c 36.32,63.601 72.69,120.41 111.3,179.5 l 152.18,233.99 218.14,0 -374.84,-531.631 383.93,-567.9373 -227.23,0 -161.27,247.5973 c -43.15,63.621 -79.52,124.93 -118.16,190.852 l -4.51,0 c -36.37,-65.922 -74.98,-124.969 -115.87,-190.852 l -159.06,-247.5973 -220.34,0 390.74,561.0783 -372.6,538.49 222.67,0"
             inkscape:connector-curvature="0"
             id="path26"
             style="fill:#21477d;fill-opacity:1;fill-rule:nonzero;stroke:none" /><path
             d="m 3589.05,25.0117 0,947.3473 -152.2,0 0,152.221 152.2,0 0,52.21 c 0,154.48 36.37,295.38 129.51,383.99 74.96,72.72 174.9,102.2 265.8,102.2 72.71,0 131.76,-15.88 170.37,-31.79 l -24.98,-154.53 c -31.8,13.67 -70.44,25.06 -129.49,25.06 -168.11,0 -213.53,-149.93 -213.53,-318.06 l 0,-59.08 265.75,0 0,-152.221 -263.45,0 0,-947.3473 -199.98,0"
             inkscape:connector-curvature="0"
             id="path28"
             style="fill:#3a8bc6;fill-opacity:1;fill-rule:nonzero;stroke:none" /><path
             d="m 5154.26,324.852 c 0,-113.582 2.27,-213.52 9.08,-299.8403 l -177.18,0 -11.33,179.4573 -4.59,0 C 4920.27,115.891 4802.18,0 4606.75,0 4434.11,0 4227.37,97.7305 4227.37,481.66 l 0,642.92 199.92,0 0,-606.6 c 0,-209.039 65.9,-352.148 245.35,-352.148 134.03,0 227.18,93.137 263.53,184.059 11.37,27.23 18.19,63.601 18.19,102.211 l 0,672.478 199.9,0 0,-799.728"
             inkscape:connector-curvature="0"
             id="path30"
             style="fill:#3a8bc6;fill-opacity:1;fill-rule:nonzero;stroke:none" /><path
             d="m 5458.52,227.16 c 61.33,-36.328 165.86,-77.211 265.79,-77.211 143.15,0 211.33,70.449 211.33,163.543 0,95.449 -56.81,147.688 -202.22,202.227 -199.95,72.672 -293.07,179.48 -293.07,311.23 0,177.211 145.42,322.631 379.41,322.631 111.32,0 209,-29.56 268.06,-68.17 L 6040.1,938.238 c -43.15,25.063 -122.65,63.652 -224.91,63.652 -118.13,0 -181.73,-68.14 -181.73,-149.968 0,-93.121 63.6,-134.024 206.71,-188.551 C 6028.76,592.949 6128.71,497.539 6128.71,331.66 6128.71,136.301 5976.53,0 5719.79,0 5599.37,0 5488.05,31.8398 5410.84,77.2305 l 47.68,149.9295"
             inkscape:connector-curvature="0"
             id="path32"
             style="fill:#3a8bc6;fill-opacity:1;fill-rule:nonzero;stroke:none" /><path
             d="m 7082.81,683.84 c 2.24,124.93 -52.3,324.91 -274.9,324.91 -204.48,0 -290.81,-186.352 -306.68,-324.91 l 581.58,0 z M 6498.93,540.711 c 4.54,-270.379 174.91,-381.652 374.84,-381.652 143.14,0 231.72,24.972 304.46,54.5 L 7214.57,72.7383 C 7144.14,40.9023 7021.48,2.28906 6846.54,2.28906 6510.26,2.28906 6305.8,227.16 6305.8,556.602 c 0,333.988 197.67,595.218 517.97,595.218 359,0 452.09,-315.789 452.09,-518.011 0,-40.86 -2.26,-72.688 -6.78,-95.379 l -770.15,2.281"
             inkscape:connector-curvature="0"
             id="path34"
             style="fill:#3a8bc6;fill-opacity:1;fill-rule:nonzero;stroke:none" /><path
             d="m 5645.53,5966.26 c 82.24,0 149.11,-66.9 149.11,-148.94 0,-82.06 -66.87,-149 -149.11,-149 -82.16,0 -148.91,66.94 -148.91,149 0,82.04 66.75,148.94 148.91,148.94 z M 3539.06,7157.32 c 82.07,0 149.05,-66.86 149.05,-149.15 0,-82.11 -66.98,-148.96 -149.05,-148.96 -82.3,0 -149.03,66.85 -149.03,148.96 0,82.29 66.73,149.15 149.03,149.15 z m 2401.97,-1340 c 0,163.03 -132.53,295.69 -295.5,295.69 -162.79,0 -295.42,-132.66 -295.42,-295.69 0,-128.63 83.08,-237 197.87,-277.43 l 0,-2124.09 -875.9,-508.16 -307.58,-178.99 -825.44,-472.86 -2009.12,1160.01 0,2319.76 1817.36,1049.69 c 51.85,-44.43 118.24,-72.4 191.76,-72.4 162.89,0 295.32,132.44 295.32,295.32 0,162.88 -132.43,295.37 -295.32,295.37 -162.93,0 -295.5,-132.49 -295.5,-295.37 0,-18.51 2.26,-36.59 5.46,-54.32 l -1914.2,-1105.4 0,-2545.3 2204.24,-1272.52 808.13,466.62 537.82,310.42 858.25,495.48 0,2236.74 c 114.81,40.43 197.77,148.8 197.77,277.43"
             inkscape:connector-curvature="0"
             id="path36"
             style="fill:#3a8bc6;fill-opacity:1;fill-rule:nonzero;stroke:none" /><path
             d="m 3849.2,4357.65 0,-122.48 812.06,-469.75 102.05,59.01 0,117.86 -816,472.04 -98.11,-56.68"
             inkscape:connector-curvature="0"
             id="path38"
             style="fill:#9bb7cc;fill-opacity:1;fill-rule:nonzero;stroke:none" /><path
             d="m 3529.76,4906.43 102.17,58.82 0,972.31 -102.17,59.06 -102.05,-59.06 0,-972.31 102.05,-58.82"
             inkscape:connector-curvature="0"
             id="path40"
             style="fill:#9bb7cc;fill-opacity:1;fill-rule:nonzero;stroke:none" /><path
             d="m 3213.16,4355.81 -101.75,58.56 -814.69,-469.1 0,-117.87 102.02,-59 814.42,469.06 0,118.35"
             inkscape:connector-curvature="0"
             id="path42"
             style="fill:#9bb7cc;fill-opacity:1;fill-rule:nonzero;stroke:none" /><path
             d="m 3631.93,2927.18 0,1551.7 102.08,58.95 705.96,407.62 535.81,309.02 0,-1551.47 -1343.85,-775.82 z m -1548.19,2327.24 536.46,-309.35 705.43,-407.24 102.08,-58.95 0,-1551.76 -1343.97,775.88 0,1551.42 z m 2790.15,177.11 -1241.96,-716.82 -102.17,-58.96 -102.05,58.96 -1242.09,716.82 1344.14,776.06 1344.13,-776.06 z m -1344.13,1005.2 -1644.47,-949.47 0,-1898.86 1644.47,-949.4 1644.48,949.4 0,1898.86 -1644.48,949.47"
             inkscape:connector-curvature="0"
             id="path44"
             style="fill:#21477d;fill-opacity:1;fill-rule:nonzero;stroke:none" /></g></g></g></g></svg>