<?xml version="1.0" encoding="UTF-8"?>
<svg width="110px" height="110px" viewBox="0 0 110 110" version="1.1" xmlns="http://www.w3.org/2000/svg" xmlns:xlink="http://www.w3.org/1999/xlink">
    <title>micronaut</title>
    <g id="Page-1" stroke="none" stroke-width="1" fill="none" fill-rule="evenodd">
        <g id="micronaut" fill="#1D1D1B" fill-rule="nonzero">
            <path d="M75.7,52.006 C75.5142199,51.9554576 75.3225325,51.9298993 75.13,51.9299997 C74.030733,51.9367288 73.1051465,52.7538462 72.962157,53.8437944 C72.8191675,54.9337427 73.5026665,55.9619548 74.563,56.252 C75.3347766,56.4961412 76.1782806,56.2967409 76.759046,55.7328655 C77.3398115,55.16899 77.5640124,54.3317365 77.3427488,53.5530925 C77.1214851,52.7744485 76.4905033,52.1802084 75.7,52.006 L75.7,52.006 Z" id="Path"></path>
            <path d="M71.512,41.91 C70.4477978,42.1972106 69.7604113,43.2276474 69.9039731,44.3205364 C70.0475348,45.4134253 70.9777254,46.2313774 72.08,46.2340041 L72.08,46.2340041 C72.935978,46.2356506 73.7152015,45.7406595 74.0774839,44.9651258 C74.4397662,44.1895921 74.3193262,43.2743328 73.7687445,42.6189239 C73.2181628,41.963515 72.337411,41.686962 71.511,41.91 L71.512,41.91 Z" id="Path"></path>
            <path d="M62.84,38.372 C63.5819651,39.1143133 64.7449663,39.2291488 65.6177807,38.6462797 C66.490595,38.0634107 66.8301414,36.9451677 66.4287732,35.9754023 C66.0274051,35.005637 64.9969044,34.4544315 63.9674648,34.6588706 C62.9380252,34.8633097 62.1963483,35.7664567 62.1959936,36.816 C62.1945904,37.3997912 62.4264339,37.9599597 62.84,38.372 L62.84,38.372 Z" id="Path"></path>
            <path d="M53.56,36.534 C53.7455781,36.5837384 53.9368721,36.6089529 54.129,36.609 L54.129,36.609 C54.9140452,36.6071258 55.6386064,36.1870678 56.0303171,35.506728 C56.4220279,34.8263883 56.421526,33.9888697 56.029,33.309 C55.7403998,32.804196 55.2618443,32.4358271 54.7,32.286 C53.5443689,32.0178306 52.3842342,32.7142375 52.0775015,33.8602363 C51.7707688,35.0062351 52.4279201,36.1890483 53.563,36.534 L53.56,36.534 Z" id="Path"></path>
            <path d="M43.465,35.334 C42.4000743,35.6214176 41.7126022,36.6530098 41.8572563,37.7465137 C42.0019103,38.8400177 42.93397,39.6573703 44.037,39.658 C44.2287646,39.6574381 44.4196618,39.6322316 44.605,39.583 C45.7576219,39.2511759 46.4320346,38.0572344 46.1212205,36.8987703 C45.8104065,35.7403062 44.6289234,35.0442986 43.465,35.334 L43.465,35.334 Z" id="Path"></path>
            <path d="M36.817,47.344011 C37.8665433,47.3436517 38.7696903,46.6019748 38.9741294,45.5725352 C39.1785685,44.5430956 38.627363,43.5125949 37.6575977,43.1112268 C36.6878323,42.7098586 35.5695893,43.049405 34.9867203,43.9222193 C34.4038512,44.7950337 34.5186867,45.9580349 35.261,46.7 C35.6727876,47.1139436 36.2331209,47.3458553 36.817,47.344011 Z" id="Path"></path>
            <path d="M36.534,55.977 C36.7737018,55.0689886 36.4089159,54.109107 35.6266624,53.5894714 C34.8444089,53.0698358 33.8181751,53.1056905 33.0740949,53.6786533 C32.3300148,54.251616 32.0331095,55.2346159 32.3355978,56.1236842 C32.6380862,57.0127525 33.4728826,57.6107127 34.412,57.611 C35.4075742,57.6092141 36.2778671,56.939064 36.534,55.977 Z" id="Path"></path>
            <path d="M38.027,67.631 C39.1475069,67.3327981 39.8442219,66.2161192 39.619487,65.078598 C39.3947521,63.9410769 38.3257235,63.1732479 37.1759997,63.3235652 C36.0262759,63.4738824 35.1905807,64.4907389 35.2658445,65.6478022 C35.3411083,66.8048655 36.3014915,67.704892 37.461,67.7050034 C37.6521005,67.7053402 37.8424103,67.6804587 38.027,67.631 Z" id="Path"></path>
            <path d="M46.7,71.169 C46.0710571,70.5391391 45.1245462,70.3503281 44.3020686,70.6906582 C43.479591,71.0309882 42.943231,71.833391 42.943231,72.7235 C42.943231,73.613609 43.479591,74.4160118 44.3020686,74.7563418 C45.1245462,75.0966719 46.0710571,74.9078609 46.7,74.278 C47.5576413,73.4191068 47.5576413,72.0278932 46.7,71.169 Z" id="Path"></path>
            <path d="M55.981,73.007 C54.8092675,72.6938405 53.6051159,73.3880617 53.289,74.559 C53.1362791,75.1232783 53.2144179,75.7251373 53.5061666,76.2317105 C53.7979152,76.7382837 54.2792819,77.1079134 54.844,77.259 C56.0178575,77.5716906 57.2229875,76.8737716 57.536,75.7 C57.8489573,74.5273576 57.1531524,73.3227874 55.981,73.008 L55.981,73.007 Z" id="Path"></path>
            <path d="M66.075,74.207 C67.0376925,73.9498549 67.7073486,73.0777707 67.7072619,72.0813268 C67.7071753,71.0848829 67.0373677,70.2129151 66.0746304,69.9559374 C65.1118932,69.6989598 64.0966449,70.1211456 63.6,70.985 C63.3070944,71.4886841 63.228217,72.088729 63.381,72.651 C63.6388411,73.6121942 64.5098235,74.2806035 65.505,74.281 C65.6973909,74.2809361 65.8889705,74.2560643 66.075,74.207 Z" id="Path"></path>
            <path d="M72.723,62.199984 C71.6734181,62.2008257 70.7705865,62.942967 70.5666564,63.9725471 C70.3627263,65.0021273 70.9144972,66.0323834 71.8845186,66.4332341 C72.85454,66.8340849 73.9726374,66.4938837 74.5550079,65.6206898 C75.1373784,64.747496 75.0218176,63.5845152 74.279,62.843 C73.8671107,62.4293287 73.3067566,62.1977684 72.723,62.199984 L72.723,62.199984 Z" id="Path"></path>
            <path d="M82.9,54.18 C82.5360205,55.5506478 83.3488044,56.9575954 84.718,57.327 C84.9347747,57.3858487 85.1583794,57.4157748 85.383,57.4160006 L85.383,57.4160006 C86.7170489,57.4169395 87.8303752,56.3977343 87.9469693,55.06879 C88.0635634,53.7398456 87.144718,52.5423491 85.8308859,52.3109784 C84.5170537,52.0796077 83.244405,52.891174 82.9,54.18 Z" id="Path"></path>
            <path d="M80.654,37.045 C79.4087629,37.3794491 78.6038417,38.5845216 78.7717971,39.8629044 C78.9397524,41.1412872 80.0286321,42.09755 81.318,42.099 L81.318,42.099 C82.2361598,42.0976716 83.0842077,41.6077391 83.544,40.813 C84.0663316,39.9128964 83.993784,38.7865435 83.3602974,37.9608853 C82.7268107,37.1352271 81.6576488,36.7735271 80.653,37.045 L80.654,37.045 Z" id="Path"></path>
            <path d="M70.14,25.724 C68.7401099,25.7516125 67.6197026,26.8943376 67.6197026,28.2945 C67.6197026,29.6946624 68.7401099,30.8373875 70.14,30.865 L70.14,30.865 C71.0704365,30.8833527 71.9381579,30.3974717 72.4087548,29.5946096 C72.8793518,28.7917476 72.8793518,27.7972524 72.4087548,26.9943904 C71.9381579,26.1915283 71.0704365,25.7056473 70.14,25.724 Z" id="Path"></path>
            <path d="M54.178,26.639 C55.1825481,26.9087579 56.2506677,26.5466641 56.8840817,25.721635 C57.5174957,24.8966059 57.5913974,23.7712038 57.0713117,22.8704279 C56.551226,21.9696521 55.5396296,21.4709897 54.5084315,21.6070665 C53.4772335,21.7431432 52.6296192,22.4871468 52.361,23.492 C52.1830888,24.1503214 52.2747593,24.852396 52.6157394,25.4429652 C52.9567195,26.0335344 53.5189148,26.4639397 54.178,26.639 L54.178,26.639 Z" id="Path"></path>
            <path d="M39.53,25.6509976 C38.4286905,25.6495112 37.4488475,26.3498916 37.0937681,27.3923903 C36.7386888,28.434889 37.0873101,29.5877498 37.9605625,30.258805 C38.8338149,30.9298602 40.0375672,30.9699286 40.953511,30.3584291 C41.8694549,29.7469296 42.2939684,28.6198035 42.009,27.556 C41.7104751,26.4321767 40.6927963,25.6501363 39.53,25.6509976 L39.53,25.6509976 Z" id="Path"></path>
            <path d="M28.3,41.9700042 C29.5265564,41.9700042 30.5822877,41.1035189 30.8215523,39.9005255 C31.0608169,38.6975321 30.4169765,37.4930485 29.2837773,37.0236871 C28.150578,36.5543257 26.8436306,36.9508097 26.16221,37.9706659 C25.4807894,38.9905221 25.61468,40.3497072 26.482,41.217 C26.9634793,41.7001818 27.6178816,41.9712296 28.3,41.9700042 Z" id="Path"></path>
            <path d="M26.64,55.362 C27.0074302,53.9910526 26.1939522,52.5818114 24.8230195,52.2143261 C23.4520869,51.8468408 22.042813,52.6602622 21.6752726,54.03118 C21.3077321,55.4020979 22.1210969,56.8114044 23.492,57.179 C23.7091455,57.237587 23.9330899,57.2671773 24.158,57.2670008 C25.3204955,57.2650549 26.3375266,56.4844569 26.64,55.362 Z" id="Path"></path>
            <path d="M28.223,72.5840001 C29.3248488,72.5842331 30.3044454,71.8825894 30.6588603,70.839296 C31.0132752,69.7960027 30.6637669,68.6428516 29.7897745,67.971876 C28.9157822,67.3009004 27.7114836,67.2611731 26.7951712,67.8730903 C25.8788589,68.4850074 25.454113,69.6126174 25.739,70.677 C26.0406077,71.8011701 27.0590736,72.58306 28.223,72.5840001 L28.223,72.5840001 Z" id="Path"></path>
            <path d="M39.4,83.8150184 C40.0813094,83.8175895 40.7351646,83.5466809 41.215,83.063 C42.038554,82.2403249 42.2066094,80.9669561 41.6246844,79.9587901 C41.0427595,78.950624 39.8560644,78.4592327 38.731767,78.7608797 C37.6074696,79.0625266 36.8261208,80.0819404 36.8269993,81.246 C36.8275302,81.9278717 37.0989113,82.581605 37.5814425,83.063386 C38.0639736,83.545167 38.7181283,83.8155306 39.4,83.8150184 L39.4,83.8150184 Z" id="Path"></path>
            <path d="M55.361,82.9 C54.1779361,82.5834072 52.9359358,83.1462953 52.3941276,84.2446191 C51.8523194,85.3429428 52.1614919,86.6710317 53.1326745,87.4171387 C54.1038571,88.1632457 55.4667634,88.1197244 56.3883655,87.3131757 C57.3099676,86.5066271 57.5337778,85.1615186 56.923,84.1 C56.5827898,83.508057 56.0206226,83.0761745 55.361,82.9 Z" id="Path"></path>
            <path d="M67.789,80.029 C67.3281697,80.8242904 67.3269626,81.8050982 67.7858339,82.6015206 C68.2447052,83.3979429 69.093842,83.8888116 70.013,83.889 L70.013,83.889 C71.2584024,83.8875713 72.3234104,82.9930728 72.5399301,81.7666355 C72.7564499,80.5401982 72.0621126,79.3350985 70.8924855,78.9073116 C69.7228584,78.4795247 68.4148535,78.9522751 67.789,80.029 Z" id="Path"></path>
            <path d="M81.245,67.5689877 C80.0189985,67.5692248 78.9638617,68.4354043 78.7248023,69.6378727 C78.4857428,70.8403411 79.129333,72.0442399 80.2620196,72.5133889 C81.3947062,72.982538 82.7010632,72.5862906 83.3822576,71.5669507 C84.0634521,70.5476109 83.9297878,69.1890401 83.063,68.322 C82.5820262,67.8380637 81.9272944,67.5668794 81.245,67.5689877 Z" id="Path"></path>
            <path d="M96.717,56.3 C95.5767869,55.9943593 94.3601291,56.3202321 93.5253299,57.1548653 C92.6905307,57.9894984 92.364416,59.2060914 92.6698299,60.3463653 C92.9752439,61.4866392 93.8657869,62.3773593 95.006,62.683 C96.1462131,62.9886407 97.3628709,62.6627679 98.1976701,61.8281347 C99.0324693,60.9935016 99.358584,59.7769086 99.0531701,58.6366347 C98.7477561,57.4963608 97.8572131,56.6056407 96.717,56.3 L96.717,56.3 Z" id="Path"></path>
            <path d="M92.721,35.011 C90.8962512,35.011 89.417,36.4902512 89.417,38.315 C89.417,40.1397488 90.8962512,41.6190027 92.721,41.6190027 C93.010076,41.6193702 93.2979226,41.5813718 93.577,41.506 C95.1907799,41.0891067 96.2403503,39.534284 96.0235657,37.8816831 C95.8067811,36.2290821 94.3917049,34.9975664 92.725,35.011 L92.721,35.011 Z" id="Path"></path>
            <path d="M79.406,24.8480147 C80.980182,24.8474776 82.334827,23.7351457 82.6416252,22.1911496 C82.9484235,20.6471534 82.121946,19.1014237 80.6675499,18.4991106 C79.2131538,17.8967975 77.5358202,18.4056171 76.6611697,19.714447 C75.7865192,21.0232769 75.9581011,22.7676693 77.071,23.881 C77.6888553,24.5023874 78.5297234,24.8506184 79.406,24.8480147 L79.406,24.8480147 Z" id="Path"></path>
            <path d="M58.639,16.87 C60.3990808,17.3377595 62.2053614,16.2912524 62.6749829,14.5316675 C63.1446043,12.7720826 62.1000088,10.9646957 60.3409218,10.4932129 C58.5818347,10.0217301 56.7733437,11.0644128 56.3,12.823 C55.8305766,14.5861502 56.8769225,16.3965657 58.639,16.87 L58.639,16.87 Z" id="Path"></path>
            <path d="M38.313,20.125 C38.6023682,20.124808 38.8904719,20.08682 39.17,20.012 C40.7821667,19.5934132 41.8296778,18.039046 41.6125083,16.3876424 C41.3953388,14.7362388 39.9815753,13.505544 38.316,13.518 C36.4915273,13.518 35.0125,14.9970273 35.0125,16.8215 C35.0125,18.6459727 36.4915273,20.125 38.316,20.125 L38.313,20.125 Z" id="Path"></path>
            <path d="M24.8490147,30.133 C24.8484772,28.558951 23.7363285,27.2043817 22.1924956,26.8974444 C20.6486627,26.590507 19.1029545,27.4166539 18.500381,28.8707983 C17.8978075,30.3249426 18.4061274,32.0022451 19.7145657,32.877242 C21.0230041,33.752239 22.7672868,33.581328 23.881,32.469 C24.5030013,31.8510659 24.8516215,31.0097675 24.8490147,30.133 L24.8490147,30.133 Z" id="Path"></path>
            <path d="M16.87,50.9 C17.3400942,49.1399946 16.2951048,47.3319835 14.5354043,46.8607489 C12.7757039,46.3895143 10.9670161,47.4333319 10.4946412,49.1927266 C10.0222664,50.9521213 11.0649118,52.7614852 12.824,53.235 C13.1029582,53.3092605 13.3903277,53.3472403 13.679,53.348 C15.1731846,53.3454934 16.4805478,52.3425397 16.87,50.9 L16.87,50.9 Z" id="Path"></path>
            <path d="M16.823,74.5290002 C17.1116768,74.5283072 17.3990548,74.4903263 17.678,74.416 C19.3571234,73.9649111 20.3982248,72.2883938 20.058047,70.5833379 C19.7178692,68.8782821 18.1131171,67.7296423 16.3894465,67.957449 C14.6657758,68.1852558 13.4145274,69.7113553 13.5289854,71.4462431 C13.6434434,73.181131 15.0843407,74.5296181 16.823,74.5290002 L16.823,74.5290002 Z" id="Path"></path>
            <path d="M30.135,84.6909891 C28.5608737,84.6924758 27.206934,85.8055519 26.9010131,87.3496659 C26.5950922,88.89378 27.4223685,90.439 28.8770249,91.0405403 C30.3316812,91.6420805 32.0086936,91.1324525 32.882695,89.8232553 C33.7566965,88.5140582 33.5843364,86.7698153 32.471,85.657 C31.8522304,85.0364876 31.0113027,84.6887409 30.135,84.6909891 Z" id="Path"></path>
            <path d="M50.9,92.671 C49.1373832,92.1987965 47.3257035,93.2448832 46.8535,95.0075 C46.3812965,96.7701168 47.4273832,98.5817965 49.19,99.054 C49.4693259,99.1280083 49.7570362,99.1656526 50.046,99.166 C51.7131032,99.1804811 53.1291647,97.9492636 53.3465026,96.2963247 C53.5638405,94.6433857 52.5141828,93.0879613 50.9,92.671 Z" id="Path"></path>
            <path d="M71.23,89.4149986 C70.0499517,89.4139282 68.9589703,90.042486 68.368018,91.0639019 C67.7770656,92.0853178 67.775922,93.3444143 68.365018,94.366902 C68.9541139,95.3893896 70.0439517,96.0199283 71.224,96.0210014 L71.224,96.0210014 C73.0481965,96.0226568 74.528343,94.5451965 74.5300012,92.721 C74.5316567,90.8968035 73.0541965,89.4166569 71.23,89.4149986 L71.23,89.4149986 Z" id="Path"></path>
            <path d="M90.33,77.07 C89.0403816,75.783748 86.9525056,75.7855672 85.6651305,77.0740644 C84.3777555,78.3625616 84.3777555,80.4504384 85.6651305,81.7389356 C86.9525056,83.0274328 89.0403816,83.029252 90.33,81.743 C90.9539545,81.1256001 91.3050448,80.2842824 91.3050448,79.4065 C91.3050448,78.5287176 90.9539545,77.6873999 90.33,77.07 Z" id="Path"></path>
            <path d="M106.688,64.7 C106.361813,64.6127644 106.025651,64.5683911 105.688,64.568 C103.659807,64.5682697 101.979643,66.1419607 101.846781,68.1657973 C101.71392,70.1896339 103.173931,71.9694717 105.184682,72.2348908 C107.195433,72.5003099 109.067268,71.1602757 109.4641,69.1712833 C109.860932,67.1822909 108.646655,65.2265336 106.688,64.7 L106.688,64.7 Z" id="Path"></path>
            <path d="M105.694,44.9720032 C106.029996,44.9714588 106.364485,44.9270844 106.689,44.84 C108.552244,44.3407783 109.757208,42.5382569 109.506214,40.6256928 C109.25522,38.7131286 107.625963,37.2825541 105.697,37.281 C105.359349,37.2813911 105.023187,37.3257644 104.697,37.413 C102.832282,37.9126128 101.627118,39.7174609 101.880302,41.6312747 C102.133485,43.5450886 103.766513,44.9744648 105.697,44.9720032 L105.694,44.9720032 Z" id="Path"></path>
            <path d="M92.049,21.3360065 C93.8861699,21.337777 95.4686296,20.0412483 95.8282454,18.2396177 C96.1878613,16.437987 95.2244256,14.633283 93.5273589,13.929606 C91.8302923,13.2259289 89.8724863,13.8193602 88.8517076,15.3468443 C87.830929,16.8743283 88.0316201,18.9102281 89.331,20.209 C90.0504236,20.9321441 91.028949,21.3378829 92.049,21.3360065 L92.049,21.3360065 Z" id="Path"></path>
            <path d="M67.42,7.56 C67.7460679,7.64783563 68.0823088,7.69221944 68.42,7.69200081 L68.42,7.69200081 C70.4470884,7.69159121 72.1262481,6.11867892 72.2589675,4.09593991 C72.3916869,2.0732009 70.9324478,0.294366614 68.9227919,0.0290920311 C66.9131359,-0.236182552 65.0423076,1.10308283 64.6456233,3.09097847 C64.2489389,5.07887411 65.4624479,7.03361866 67.42,7.56 L67.42,7.56 Z" id="Path"></path>
            <path d="M41.122,7.692 L41.122,7.692 C42.3174766,7.69148184 43.4448095,7.1353638 44.1727385,6.18705803 C44.9006675,5.23875225 45.1465002,4.00598575 44.838,2.851 C44.3212721,0.92690397 42.4201165,-0.28353142 40.4581045,0.0623905796 C38.4960924,0.408312579 37.1235243,2.19593764 37.2959725,4.18073356 C37.4684207,6.16552948 39.128728,7.68964438 41.121,7.692 L41.122,7.692 Z" id="Path"></path>
            <path d="M17.492,21.3360264 C19.3256919,21.3351592 20.9034887,20.0392494 21.2606255,18.2406722 C21.6177622,16.4420949 20.6547919,14.6416746 18.9605358,13.9403025 C17.2662797,13.2389303 15.3125133,13.8319074 14.2938934,15.35665 C13.2752734,16.8813926 13.4754406,18.9133272 14.772,20.21 C15.491443,20.9342162 16.4711803,21.3397987 17.492,21.3360264 Z" id="Path"></path>
            <path d="M4.843,37.412 C3.39988359,37.0268991 1.86432472,37.5123778 0.904864598,38.6570716 C-0.0545955226,39.8017654 -0.264328685,41.3985255 0.366977313,42.7521652 C0.99828331,44.1058048 2.3563845,44.9713635 3.85,44.972 L3.85,44.972 C5.22430516,44.9712855 6.49379272,44.2373048 7.1800996,43.0466336 C7.86640648,41.8559623 7.86522486,40.3895637 7.177,39.2 C6.66939195,38.3158761 5.8287905,37.6719192 4.843,37.412 Z" id="Path"></path>
            <path d="M3.852,64.569 C3.51428299,64.5693853 3.17807763,64.6141006 2.852,64.702 C0.801090582,65.2512472 -0.416247184,67.3590906 0.133,69.41 C0.682247184,71.4609094 2.79009058,72.6782472 4.841,72.129 C6.70232163,71.6283834 7.90561578,69.827288 7.65559448,67.9161039 C7.40557318,66.0049198 5.7794622,64.5739675 3.852,64.569 L3.852,64.569 Z" id="Path"></path>
            <path d="M17.49,88.2 C15.3903647,88.2338596 13.7060141,89.9455917 13.7060141,92.0455 C13.7060141,94.1454083 15.3903647,95.8571404 17.49,95.891 L17.49,95.891 C18.8786446,95.9133939 20.1714963,95.1853828 20.8723636,93.9863748 C21.5732309,92.7873668 21.5732309,91.3036332 20.8723636,90.1046252 C20.1714963,88.9056172 18.8786446,88.1776061 17.49,88.2 L17.49,88.2 Z" id="Path"></path>
            <path d="M42.119,101.981 C41.1339469,101.716006 40.0839415,101.853733 39.2005522,102.363806 C38.317163,102.87388 37.6729542,103.7144 37.41,104.7 C36.8619698,106.751447 38.0806073,108.858767 40.132,109.407 C40.4581496,109.49454 40.7943075,109.539249 41.132,109.54 C43.0609585,109.537881 44.689631,108.106483 44.9394131,106.193764 C45.1891953,104.281045 43.9827255,102.479406 42.119,101.982 L42.119,101.981 Z" id="Path"></path>
            <path d="M68.421,101.849 C68.0833144,101.849853 67.7471696,101.89456 67.421,101.982 C65.4706037,102.509415 64.2636541,104.459271 64.6614129,106.44018 C65.0591716,108.421089 66.9252658,109.75389 68.9280781,109.487516 C70.9308904,109.221142 72.3837505,107.44692 72.2499189,105.430909 C72.1160872,103.414897 70.4414484,101.848292 68.421,101.849 L68.421,101.849 Z" id="Path"></path>
            <path d="M92.05,88.1999891 C90.2149163,88.1990143 88.6347592,89.49463 88.2761043,91.2943244 C87.9174494,93.0940188 88.8802162,94.896405 90.5754844,95.5989711 C92.2707526,96.3015372 94.2262279,95.7085512 95.2457544,94.1827403 C96.2652809,92.6569294 96.064823,90.6233776 94.767,89.326 C94.0479717,88.602998 93.0696704,88.1975628 92.05,88.1999891 L92.05,88.1999891 Z" id="Path"></path>
            <path d="M65.344,57.889 L65.844,57.338 C65.944,57.238 66.036,57.138 66.137,57.038 L66.113,57.038 L66.142,57.007 C65.9839203,56.9813656 65.8241361,56.9676603 65.664,56.966 C65.2937427,56.948269 64.9344871,57.0946053 64.682,57.366 C64.3094081,57.741252 63.9081986,58.0869608 63.482,58.4 C63.087445,58.6901935 62.6764244,58.9573068 62.251,59.2 C62.0131008,59.3385125 61.7422747,59.4103643 61.467,59.408 C61.2925412,59.4064628 61.1189228,59.3836271 60.95,59.34 C60.4922224,59.2672222 60.1645897,58.8586551 60.193,58.396 C60.1891565,58.2139745 60.2038996,58.0320319 60.237,57.853 C60.673,55.734 61.889,49.893 62.184,48.31 L62.23,48.091 L62.22,48.091 L62.226,48.056 L60.732,48.091 L58.261,48.091 L58.243,48.148 L58.2,48.148 C58.1782148,48.2064586 58.1601782,48.2662465 58.146,48.327 L56.064,58.2 C56.043,58.3 56.014,58.437 55.952,58.473 C55.817,58.552 55.683,58.638 55.552,58.722 C55.1710251,58.9870752 54.7572293,59.2015363 54.321,59.36 C54.1617706,59.4103566 53.9959901,59.4369758 53.829,59.439 C53.5393294,59.4491663 53.2594986,59.3331478 53.062,59.121 C52.8182704,58.8130429 52.7161915,58.416352 52.781,58.029 C52.796,57.898 54.4,50.262 54.766,48.359 L54.821,48.095 L54.815,48.095 L54.821,48.06 L50.8,48.088 L46.863,66.638 C46.863,66.638 47.191,66.564 47.519,66.486 C48.334,66.286 49.766,65.949 50.55,65.791 C51.035,65.691 51.237,65.478 51.27,65.034 C51.2942799,64.8114647 51.3357369,64.5911409 51.394,64.375 L51.458,64.099 L51.658,63.141 L51.869,62.027 C53.2982157,61.8479416 54.6214266,61.1797996 55.614,60.136 C55.7539376,60.0217965 55.8852914,59.8974615 56.007,59.764 L56.097,59.689 C56.2162691,60.6466511 56.8808735,61.4478449 57.8,61.742 C58.3003887,61.914151 58.8248874,62.0059552 59.354,62.014 C60.0897734,62.0183446 60.8080546,61.7897688 61.406,61.361 C62.1557712,60.8391814 62.8709365,60.2693205 63.547,59.655 C64.163,59.091 64.746,58.5 65.344,57.889 Z" id="Path"></path>
        </g>
    </g>
</svg>