<svg width="256px" height="400px" viewBox="0 0 256 400" xmlns="http://www.w3.org/2000/svg" preserveAspectRatio="xMidYMid"><path d="M74.84 106.893l-40.869 14.87c.525 6.552 1.652 13.024 3.24 19.366l38.818-14.137c-1.244-6.552-1.689-13.32-1.18-20.1M255.444 61.702c-2.85-5.879-6.147-11.561-9.966-16.916l-40.857 14.87c4.755 4.864 8.743 10.33 12.007 16.176L255.445 61.7v.002z" fill="#DA2430"/><path d="M182.95 61.461c-5.14-4.46-10.946-8.31-17.408-11.324h-.003C127.6 32.449 82.33 48.905 64.642 86.859a73.976 73.976 0 0 0-2.653 6.487c-2.208 6.423-3.498 12.99-3.991 19.546l-.144.054-.011.144-24.596 8.95-15.826 5.849-.007-.088-.434.158c-1.536-19.435 1.74-39.512 10.553-58.411a117.952 117.952 0 0 1 3.687-7.246c29.054-54.116 95.164-76.736 150.918-50.33a115.314 115.314 0 0 1 30.557 21.074 116.597 116.597 0 0 1 15.78 17.94L187.618 65.86a79.69 79.69 0 0 0-.635-.641l-.113.041a78.61 78.61 0 0 0-3.919-3.798z" fill="#DA2430"/><path d="M19.261 193.896l-.064.024A118.404 118.404 0 0 1 .939 154.347l38.825-14.14.002.003.024.125.252-.093.006.015c1.994 10.56 6.145 20.635 12.198 29.494a75.287 75.287 0 0 0 7.722 9.326l-.154.057.294.308-40.488 14.97c-.12-.171-.24-.343-.359-.516z" fill="#E82429"/><path d="M173.465 183.447c-21.051 13.017-48.053 15.532-72.113 4.312a75.139 75.139 0 0 1-22.118-15.695l-40.772 14.844.313.437-.02.008c11.21 16.016 26.502 29.404 45.266 38.298 40.47 19.163 86.387 12.501 119.634-13.284 14.888-11.152 27.317-26.016 35.713-44.02 8.819-18.895 12.076-38.964 10.515-58.384l-1.136.414c-.015-.208-.03-.416-.047-.624l-40.49 14.957.002.004a76.457 76.457 0 0 1-6.806 26.46c-6.315 13.753-16.164 24.708-27.94 32.273z" fill="#DA2430"/><path d="M218.552 75.13l.607-.222v-.001a117.732 117.732 0 0 1 11.454 42.055l-40.773 14.834.022-.304-.77.285c1.11-15.088-2.275-30.093-9.435-43.123l38.548-14.25.002-.004c.116.243.231.486.345.73z" fill="#E82429"/><path d="M74.89 106.654L34.31 121.65c.52 6.61 1.64 13.136 3.219 19.532l38.546-14.258c-1.247-6.622-1.695-13.438-1.169-20.274M254.227 61.083c-2.83-5.929-6.106-11.658-9.898-17.059L203.76 59.02c4.72 4.906 8.68 10.418 11.92 16.315l38.542-14.256.006.004z" fill="#C22035"/><path d="M34.308 121.653l40.482-14.829-.165 8.133-39.056 14.749-1.266-8.063.005.01zM203.766 58.897l41.113-14.108 4.273 6.449-39.946 14.121-5.434-6.465-.006.003z" fill="#AC223B"/><path d="M38.764 187.201l40.53-14.749 12.258 11.565-42.503 15.956-10.283-12.776-.002.004zM249.38 109.862l-41.165 14.844-3.032 16.478 43.892-15.643.311-15.677-.005-.002z" fill="#B92135"/></svg>
