<svg id="Layer_1" data-name="Layer 1" xmlns="http://www.w3.org/2000/svg" viewBox="0 0 137.2 123.16"><defs><style>.cls-1{fill:#6db33f;}</style></defs><title>icon-spring-boot</title><path class="cls-1" d="M462.84,298.61l-27-46.8a16.4,16.4,0,0,0-12.8-7.39H369a16.39,16.39,0,0,0-12.8,7.39l-27,46.8a16.38,16.38,0,0,0,0,14.78l27,46.8a16.4,16.4,0,0,0,12.8,7.39h54a16.41,16.41,0,0,0,12.8-7.39l27-46.8A16.38,16.38,0,0,0,462.84,298.61ZM390.16,270.3a5.57,5.57,0,1,1,11.14,0v33.29a5.57,5.57,0,1,1-11.14,0V270.3Zm5.57,71.06a37.77,37.77,0,0,1-22.52-68.09,5,5,0,1,1,5.91,7.95,27.86,27.86,0,1,0,44.47,22.37,28,28,0,0,0-11.35-22.44,5,5,0,0,1,5.88-8A37.77,37.77,0,0,1,395.73,341.36Z" transform="translate(-327.4 -244.42)"/></svg>