<svg width="130" height="68" viewBox="0 0 130 68" fill="none" xmlns="http://www.w3.org/2000/svg">
<metadata><?xpacket begin="﻿" id="W5M0MpCehiHzreSzNTczkc9d"?>
<x:xmpmeta xmlns:x="adobe:ns:meta/" x:xmptk="Adobe XMP Core 7.1-c000 79.4d2f597, 2021/09/01-20:51:22        ">
   <rdf:RDF xmlns:rdf="http://www.w3.org/1999/02/22-rdf-syntax-ns#">
      <rdf:Description rdf:about=""
            xmlns:xmpMM="http://ns.adobe.com/xap/1.0/mm/"
            xmlns:stEvt="http://ns.adobe.com/xap/1.0/sType/ResourceEvent#"
            xmlns:xmp="http://ns.adobe.com/xap/1.0/">
         <xmpMM:PreservedFileName>all-partenaire-premium.svg</xmpMM:PreservedFileName>
         <xmpMM:InstanceID>xmp.iid:8781d7e2-fb65-654b-83f9-b63e6d4cabfd</xmpMM:InstanceID>
         <xmpMM:DocumentID>xmp.did:8781d7e2-fb65-654b-83f9-b63e6d4cabfd</xmpMM:DocumentID>
         <xmpMM:OriginalDocumentID>xmp.did:8781d7e2-fb65-654b-83f9-b63e6d4cabfd</xmpMM:OriginalDocumentID>
         <xmpMM:History>
            <rdf:Seq>
               <rdf:li>
                  <rdf:Description>
                     <stEvt:action>saved</stEvt:action>
                     <stEvt:instanceID>xmp.iid:8781d7e2-fb65-654b-83f9-b63e6d4cabfd</stEvt:instanceID>
                     <stEvt:when>2024-02-06T11:17:01+01:00</stEvt:when>
                     <stEvt:softwareAgent>Adobe Bridge 2022 (Windows)</stEvt:softwareAgent>
                     <stEvt:changed>/metadata</stEvt:changed>
                  </rdf:Description>
               </rdf:li>
            </rdf:Seq>
         </xmpMM:History>
         <xmp:MetadataDate>2024-02-06T11:17:01+01:00</xmp:MetadataDate>
      </rdf:Description>
   </rdf:RDF>
</x:xmpmeta>
                                                                                                    
                                                                                                    
                                                                                                    
                                                                                                    
                                                                                                    
                                                                                                    
                                                                                                    
                                                                                                    
                                                                                                    
                                                                                                    
                                                                                                    
                                                                                                    
                                                                                                    
                                                                                                    
                                                                                                    
                                                                                                    
                                                                                                    
                                                                                                    
                                                                                                    
                                                                                                    
                           
<?xpacket end="w"?></metadata>
<g clip-path="url(#clip0_17809_449)">
<path d="M70.2662 50.9792H58.4259L49.7192 32.2914C47.0527 33.7245 45.0282 36.2098 42.9142 38.8051C41.2602 40.8357 39.5513 42.9336 37.4373 44.6473C34.9767 46.6409 32.1165 48.406 28.5413 49.6104C26.9219 50.1504 24.1669 50.8564 23.1364 50.9603C22.6947 51.0018 22.4003 50.981 22.3372 50.8357C22.2952 50.7111 22.4003 50.628 22.863 50.3996C22.9565 50.3552 23.1021 50.2905 23.2858 50.2088C24.1345 49.8312 25.7984 49.091 26.9219 48.3229C28.6254 47.1393 29.5928 45.8725 29.6769 44.8965C29.5911 44.596 29.406 44.2268 29.1833 43.7824C28.2057 41.8321 26.5026 38.4342 29.2774 33.039C29.7676 32.0792 30.2307 31.23 30.6584 30.4458C31.2949 29.2787 31.853 28.2553 32.3058 27.2245C33.168 25.2517 33.799 22.469 34.0093 20.3924C34.0303 20.2678 34.0513 20.2678 34.1144 20.3509C35.7758 22.0122 42.2113 28.5328 41.2649 35.0326C43.41 34.2227 47.1114 31.7515 48.8149 30.4433C49.2152 30.1353 49.5845 29.8254 49.9378 29.5289C51.1809 28.4859 52.2248 27.6099 53.7151 27.5775C54.6724 27.5658 55.1382 27.8165 55.6052 28.0678C55.9693 28.2637 56.334 28.46 56.9328 28.5328C57.2693 28.5743 57.774 28.512 58.0264 28.3874C58.1315 28.3459 58.1105 28.2213 57.9422 28.1797C57.1722 27.9983 56.6424 27.6335 56.1136 27.2693C55.3715 26.7582 54.6313 26.2485 53.2314 26.2485C51.6174 26.2485 50.2416 27.3534 49.1307 28.2456C48.7651 28.5392 48.4281 28.8098 48.1209 29.0104L42.043 16.5091C39.5193 11.276 40.2764 7.47583 45.8706 0L70.2662 50.9792Z" fill="#1E1852"/>
<path d="M89.5923 51H82.2526C79.1611 51 77.5838 50.3248 76.4482 48.8266C75.2284 47.2441 75.2284 44.8175 75.2284 42.5386V0.0208472H84.6922V43.9102C84.6922 47.3918 85.0707 49.8606 89.5923 50.8523V51Z" fill="#1E1852"/>
<path d="M100.316 51H107.656V50.8523C103.134 49.8606 102.756 47.3918 102.756 43.9102V0.0208472H93.2917V42.5386C93.2917 44.8175 93.2917 47.2441 94.5115 48.8266C95.6471 50.3248 97.2244 51 100.316 51Z" fill="#1E1852"/>
</g>
<path d="M4.68202 59.3843C4.23708 59.1315 3.67079 59.0101 2.98315 59.0101H0V67.8382H1.07191V64.6124H3.00337C3.69101 64.6124 4.2573 64.491 4.69213 64.2382C5.12696 63.9854 5.46068 63.6517 5.66292 63.227C5.87528 62.8023 5.9764 62.327 5.9764 61.8112C5.9764 61.2955 5.86518 60.8202 5.65282 60.3955C5.44046 59.9708 5.11686 59.6371 4.67192 59.3843H4.68202ZM4.73259 62.7517C4.60113 63.0348 4.38877 63.2573 4.10563 63.4191C3.82248 63.5809 3.43821 63.6618 2.96292 63.6618H1.06179V59.9506H2.94269C3.41798 59.9506 3.80225 60.0315 4.0955 60.1933C4.38876 60.3551 4.59102 60.5775 4.72248 60.8506C4.85394 61.1236 4.9146 61.4472 4.9146 61.8011C4.9146 62.1551 4.85394 62.4685 4.72248 62.7517H4.73259Z" fill="#3E3D48"/>
<path d="M10.0618 59.0101L6.82584 67.8382H7.94831L8.83821 65.3405H12.4079L13.2978 67.8382H14.4202L11.1742 59.0101H10.0618ZM9.16181 64.3899L10.5775 60.4056H10.6483L12.0641 64.3899H9.16181Z" fill="#3E3D48"/>
<path d="M20.3562 64.0461C20.8011 63.8135 21.1247 63.5 21.3371 63.0955C21.5495 62.691 21.6607 62.236 21.6607 61.7101C21.6607 61.1843 21.5495 60.7292 21.3371 60.3146C21.1247 59.9 20.8011 59.5865 20.3562 59.3539C19.9112 59.1213 19.345 59 18.6573 59H15.6742V67.8281H16.7461V64.3798H18.6775C18.7584 64.3798 18.8191 64.3595 18.8899 64.3595L20.7607 67.8281H22.0045L19.9921 64.1674C20.1135 64.127 20.2551 64.0966 20.3562 64.0461ZM16.7461 59.9607H18.627C19.1023 59.9607 19.4865 60.0315 19.7798 60.1831C20.0731 60.3348 20.2854 60.5371 20.4169 60.8C20.5483 61.0629 20.6191 61.3764 20.6191 61.7303C20.6191 62.0843 20.5584 62.3876 20.427 62.6405C20.2955 62.8933 20.0832 63.0955 19.8 63.227C19.5068 63.3685 19.1326 63.4393 18.6573 63.4393H16.7562V59.9708L16.7461 59.9607Z" fill="#3E3D48"/>
<path d="M22.8236 59.9607H25.5944V67.8382H26.6663V59.9607H29.4371V59.0101H22.8236V59.9607Z" fill="#3E3D48"/>
<path d="M32.0461 63.8944H36.0203V62.9438H32.0461V59.9607H36.3034V59.0101H30.9742V67.8382H36.3641V66.8876H32.0461V63.8944Z" fill="#3E3D48"/>
<path d="M44.0596 65.9573H43.9686L39.145 59.0101H38.1135V67.8382H39.1753V60.9112H39.2663L44.0697 67.8382H45.1113V59.0101H44.0596V65.9573Z" fill="#3E3D48"/>
<path d="M49.6012 59.0101L46.3551 67.8382H47.4776L48.3674 65.3405H51.9371L52.827 67.8382H53.9495L50.7135 59.0101H49.6012ZM48.7012 64.3899L50.1169 60.4056H50.1877L51.6034 64.3899H48.7012Z" fill="#3E3D48"/>
<path d="M56.2753 59.0101H55.2034V67.8382H56.2753V59.0101Z" fill="#3E3D48"/>
<path d="M62.9798 64.0461C63.4248 63.8135 63.7484 63.5 63.9607 63.0955C64.1731 62.691 64.2843 62.236 64.2843 61.7101C64.2843 61.1843 64.1731 60.7292 63.9607 60.3146C63.7484 59.9 63.4248 59.5865 62.9798 59.3539C62.5349 59.1213 61.9686 59 61.2809 59H58.2978V67.8281H59.3697V64.3798H61.3012C61.3821 64.3798 61.4427 64.3595 61.5135 64.3595L63.3843 67.8281H64.6281L62.6158 64.1674C62.7371 64.127 62.8787 64.0966 62.9798 64.0461ZM59.3596 59.9607H61.2405C61.7158 59.9607 62.1 60.0315 62.3933 60.1831C62.6866 60.3348 62.8989 60.5371 63.0304 60.8C63.1618 61.0629 63.2326 61.3764 63.2326 61.7303C63.2326 62.0843 63.172 62.3876 63.0405 62.6405C62.909 62.8933 62.6967 63.0955 62.4135 63.227C62.1203 63.3685 61.7461 63.4393 61.2708 63.4393H59.3697V59.9708L59.3596 59.9607Z" fill="#3E3D48"/>
<path d="M66.9944 63.8944H70.9787V62.9438H66.9944V59.9607H71.2517V59.0101H65.9225V67.8382H71.3225V66.8876H66.9944V63.8944Z" fill="#3E3D48"/>
<path d="M81.0304 59.3843C80.5854 59.1315 80.0192 59.0101 79.3315 59.0101H76.3484V67.8382H77.4203V64.6124H79.3517C80.0394 64.6124 80.6057 64.491 81.0405 64.2382C81.4753 63.9854 81.809 63.6517 82.0113 63.227C82.2237 62.8023 82.3248 62.327 82.3248 61.8112C82.3248 61.2955 82.2135 60.8202 82.0012 60.3955C81.7888 59.9708 81.4652 59.6371 81.0203 59.3843H81.0304ZM81.081 62.7517C80.9495 63.0348 80.7371 63.2573 80.454 63.4191C80.1708 63.5809 79.7866 63.6618 79.3113 63.6618H77.4102V59.9506H79.2911C79.7663 59.9506 80.1506 60.0315 80.4439 60.1933C80.7371 60.3551 80.9495 60.5775 81.0708 60.8506C81.2023 61.1337 81.263 61.4472 81.263 61.8011C81.263 62.1551 81.2023 62.4685 81.0708 62.7517H81.081Z" fill="#3E3D48"/>
<path d="M88.6248 64.0461C89.0697 63.8135 89.3933 63.5 89.6057 63.0955C89.818 62.691 89.9293 62.236 89.9293 61.7101C89.9293 61.1843 89.818 60.7292 89.6057 60.3146C89.3933 59.9 89.0697 59.5865 88.6248 59.3539C88.1798 59.1213 87.6135 59 86.9259 59H83.9428V67.8281H85.0147V64.3798H86.9461C87.027 64.3798 87.0877 64.3595 87.1585 64.3595L89.0293 67.8281H90.2731L88.2607 64.1674C88.3821 64.127 88.5237 64.0966 88.6248 64.0461ZM85.0046 59.9607H86.8855C87.3607 59.9607 87.745 60.0315 88.0383 60.1831C88.3315 60.3348 88.5439 60.5371 88.6753 60.8C88.8068 61.0629 88.8776 61.3764 88.8776 61.7303C88.8776 62.0843 88.8169 62.3876 88.6855 62.6405C88.554 62.8933 88.3416 63.0955 88.0585 63.227C87.7652 63.3685 87.3911 63.4393 86.9158 63.4393H85.0147V59.9708L85.0046 59.9607Z" fill="#3E3D48"/>
<path d="M92.6394 63.8944H96.6237V62.9438H92.6394V59.9607H96.8967V59.0101H91.5675V67.8382H96.9675V66.8876H92.6394V63.8944Z" fill="#3E3D48"/>
<path d="M103.085 66.3416H102.984L99.981 59.0101H98.7068V67.8382H99.7079V61.1337H99.7888L102.55 67.8382H103.52L106.271 61.1337H106.362V67.8382H107.363V59.0101H106.089L103.085 66.3416Z" fill="#3E3D48"/>
<path d="M110.447 59.0101H109.375V67.8382H110.447V59.0101Z" fill="#3E3D48"/>
<path d="M118.254 64.7742C118.254 65.209 118.163 65.5831 117.971 65.927C117.779 66.2607 117.516 66.5236 117.162 66.7157C116.808 66.9079 116.383 66.9989 115.898 66.9989C115.412 66.9989 114.988 66.9079 114.634 66.7157C114.28 66.5236 114.007 66.2607 113.825 65.927C113.643 65.5933 113.542 65.209 113.542 64.7742V59.0202H112.47V64.8652C112.47 65.4719 112.611 66.0079 112.894 66.4831C113.178 66.9584 113.572 67.3225 114.088 67.5955C114.603 67.8685 115.21 68 115.898 68C116.585 68 117.192 67.8685 117.708 67.5955C118.224 67.3225 118.618 66.9483 118.901 66.4831C119.184 66.0079 119.326 65.4719 119.326 64.8652V59.0202H118.254V64.7742Z" fill="#3E3D48"/>
<path d="M128.71 59.0101L125.717 66.3416H125.616L122.612 59.0101H121.338V67.8382H122.339V61.1337H122.42L125.181 67.8382H126.142L128.902 61.1337H128.993V67.8382H129.984V59.0101H128.71Z" fill="#3E3D48"/>
<defs>
<clipPath id="clip0_17809_449">
<rect width="85.3269" height="51" fill="white" transform="translate(22.3287)"/>
</clipPath>
</defs>
</svg>
