<?xml version="1.0" encoding="UTF-8" standalone="no"?>
<!-- Created with Inkscape (http://www.inkscape.org/) -->

<svg
   xmlns:dc="http://purl.org/dc/elements/1.1/"
   xmlns:cc="http://creativecommons.org/ns#"
   xmlns:rdf="http://www.w3.org/1999/02/22-rdf-syntax-ns#"
   xmlns:svg="http://www.w3.org/2000/svg"
   xmlns="http://www.w3.org/2000/svg"
   version="1.1"
   width="189.55455"
   height="46.501236"
   id="svg4264"
   xml:space="preserve"><metadata
     id="metadata4270"><rdf:RDF><cc:Work
         rdf:about=""><dc:format>image/svg+xml</dc:format><dc:type
           rdf:resource="http://purl.org/dc/dcmitype/StillImage" /><dc:title></dc:title></cc:Work></rdf:RDF></metadata><defs
     id="defs4268"><clipPath
       id="clipPath4278"><path
         d="m 0,0 841.89,0 0,481.89 L 0,481.89 0,0 z"
         id="path4280" /></clipPath><clipPath
       id="clipPath4346"><path
         d="m 60.236,511.415 196.51,0 0,47.86 -196.51,0 0,-47.86 z"
         id="path4348" /></clipPath><clipPath
       id="clipPath4392"><path
         d="m 0,0 841.89,0 0,595.276 L 0,595.276 0,0 z"
         id="path4394" /></clipPath><clipPath
       id="clipPath4400"><path
         d="m 728.844,59.1104 5.25,0 0,-16.0181 -5.25,0 0,16.0181 z"
         id="path4402" /></clipPath><clipPath
       id="clipPath4416"><path
         d="m 736.188,59.1104 5.252,0 0,-16.0181 -5.252,0 0,16.0181 z"
         id="path4418" /></clipPath><clipPath
       id="clipPath4432"><path
         d="m 719.596,67.7509 13.235,0 0,-27.5509 -13.235,0 0,27.5509 z"
         id="path4434" /></clipPath><clipPath
       id="clipPath4448"><path
         d="m 737.418,62.0254 13.759,0 0,-26.3973 -13.759,0 0,26.3973 z"
         id="path4450" /></clipPath><clipPath
       id="clipPath4464"><path
         d="m 678.83,59.4207 6.535,0 0,-16.2005 -6.535,0 0,16.2005 z"
         id="path4466" /></clipPath><clipPath
       id="clipPath4480"><path
         d="m 685.618,59.4207 6.535,0 0,-16.2005 -6.535,0 0,16.2005 z"
         id="path4482" /></clipPath><clipPath
       id="clipPath4496"><path
         d="m 669.107,66.8962 14.466,0 0,-25.7979 -14.466,0 0,25.7979 z"
         id="path4498" /></clipPath><clipPath
       id="clipPath4512"><path
         d="m 687.353,62.2756 14.453,0 0,-25.8015 -14.453,0 0,25.8015 z"
         id="path4514" /></clipPath><clipPath
       id="clipPath4528"><path
         d="m 702.533,60.3141 7.057,0 0,-17.2268 -7.057,0 0,17.2268 z"
         id="path4530" /></clipPath><clipPath
       id="clipPath4542"><path
         d="m 711.203,60.3141 7.058,0 0,-17.2268 -7.058,0 0,17.2268 z"
         id="path4544" /></clipPath><clipPath
       id="clipPath4556"><path
         d="m 694.686,66.7606 13.459,0 0,-24.6289 -13.459,0 0,24.6289 z"
         id="path4558" /></clipPath><clipPath
       id="clipPath4572"><path
         d="m 694.889,60.3162 6.312,0 0,-17.7661 -6.312,0 0,17.7661 z"
         id="path4574" /></clipPath><clipPath
       id="clipPath4588"><path
         d="m 712.863,61.2994 13.293,0 0,-24.6811 -13.293,0 0,24.6811 z"
         id="path4590" /></clipPath><clipPath
       id="clipPath4604"><path
         d="m 719.689,60.6286 5.893,0 0,-18.4969 -5.893,0 0,18.4969 z"
         id="path4606" /></clipPath><clipPath
       id="clipPath4620"><path
         d="m 779.241,60.5283 6.611,0 0,-17.2635 -6.611,0 0,17.2635 z"
         id="path4622" /></clipPath><clipPath
       id="clipPath4636"><path
         d="m 784.859,60.5283 6.61,0 0,-17.2635 -6.61,0 0,17.2635 z"
         id="path4638" /></clipPath><clipPath
       id="clipPath4652"><path
         d="m 769.051,65.39 13.518,0 0,-22.0829 -13.518,0 0,22.0829 z"
         id="path4654" /></clipPath><clipPath
       id="clipPath4668"><path
         d="m 788.022,60.0519 13.56,0 0,-22.063 -13.56,0 0,22.063 z"
         id="path4670" /></clipPath><clipPath
       id="clipPath4684"><path
         d="m 654.12,57.9893 5.996,0 0,-14.7528 -5.996,0 0,14.7528 z"
         id="path4686" /></clipPath><clipPath
       id="clipPath4698"><path
         d="m 661.043,57.9893 5.996,0 0,-14.7528 -5.996,0 0,14.7528 z"
         id="path4700" /></clipPath><clipPath
       id="clipPath4712"><path
         d="m 645.488,66.7442 12.482,0 0,-24.7038 -12.482,0 0,24.7038 z"
         id="path4714" /></clipPath><clipPath
       id="clipPath4728"><path
         d="m 663.01,61.3369 12.551,0 0,-24.7023 -12.551,0 0,24.7023 z"
         id="path4730" /></clipPath><clipPath
       id="clipPath4744"><path
         d="m 669.704,60.8767 5.851,0 0,-17.1334 -5.851,0 0,17.1334 z"
         id="path4746" /></clipPath><clipPath
       id="clipPath4760"><path
         d="m 629.667,58.5081 4.75,0 0,-15.3621 -4.75,0 0,15.3621 z"
         id="path4762" /></clipPath><clipPath
       id="clipPath4776"><path
         d="m 636.614,58.5081 4.748,0 0,-15.3621 -4.748,0 0,15.3621 z"
         id="path4778" /></clipPath><clipPath
       id="clipPath4792"><path
         d="m 621.957,67.4143 11.093,0 0,-25.9817 -11.093,0 0,25.9817 z"
         id="path4794" /></clipPath><clipPath
       id="clipPath4808"><path
         d="m 638.002,61.9462 11.093,0 0,-25.9817 -11.093,0 0,25.9817 z"
         id="path4810" /></clipPath><clipPath
       id="clipPath4824"><path
         d="m 645.42,58.9343 3.667,0 0,-11.0574 -3.667,0 0,11.0574 z"
         id="path4826" /></clipPath><clipPath
       id="clipPath4346-2"><path
         d="m 60.236,511.415 196.51,0 0,47.86 -196.51,0 0,-47.86 z"
         id="path4348-4" /></clipPath></defs><g
     transform="matrix(1.25,0,0,-1.25,-402.16634,666.80714)"
     id="g4272"><g
       id="g4987"><g
         transform="matrix(0.7772958,0,0,0.7772958,375.47304,511.38115)"
         id="g4338"><path
           d="M 0,0 6.602,0 3.345,11.571 3.294,11.53 0.504,1.895 0,0 z m 20.419,-13.644 -0.644,0 -1.092,0 -7.267,0 -0.645,0 -0.357,0 -0.105,0.349 -0.152,0.566 -1.424,5.243 -10.934,0 -1.633,-5.266 -0.168,-0.55 -0.105,-0.342 -0.358,0 -0.622,0 -7.268,0 -1.098,0 -0.652,0 0.198,0.623 0.3,0.96 11.039,35.021 0.167,0.542 0.114,0.336 0.35,0 0.614,0 9.129,0 0.623,0 0.349,0 0.103,-0.336 0.172,-0.549 10.876,-35.018 0.3,-0.957 0.19,-0.622 z"
           id="path4340"
           style="fill:#141111;fill-opacity:1;fill-rule:nonzero;stroke:none" /></g><g
         transform="matrix(0.7772958,0,0,0.7772958,273.80928,98.723601)"
         id="g4342"><g
           clip-path="url(#clipPath4346-2)"
           id="g4344"><g
             transform="translate(162.3538,538.3594)"
             id="g4350"><path
               d="m 0,0 4.345,0 c 4.266,0 4.869,1.736 4.869,4.257 0,2.481 -0.603,4.189 -4.869,4.189 L 0,8.446 0,0 z m 0,-21.1 -0.474,0 -0.756,0 -6.92,0 -0.755,0 -0.476,0 0,0.439 0,0.036 0,34.937 0,1.542 0,0.476 0.476,0 0.755,0 12.542,0 c 4.176,0 7.467,-0.921 9.773,-2.747 2.491,-1.968 3.813,-5.322 3.813,-9.326 0,-4.088 -1.392,-7.721 -3.813,-9.635 -2.306,-1.823 -5.597,-2.749 -9.773,-2.749 l -4.392,0 0,-11.744 0,-0.754 0,-0.475 z"
               id="path4352"
               style="fill:#141111;fill-opacity:1;fill-rule:nonzero;stroke:none" /></g><g
             transform="translate(92.2508,539.1486)"
             id="g4354"><path
               d="M 0,0 C 1.1,0.005 2.063,0.499 2.75,1.209 3.44,1.921 3.898,2.89 3.898,3.973 3.854,6.114 2.151,7.845 -0.025,7.891 -2.156,7.881 -3.99,6.202 -4.014,3.973 -3.986,1.757 -2.184,0.018 0,0"
               id="path4356"
               style="fill:#05a1e6;fill-opacity:1;fill-rule:nonzero;stroke:none" /></g><g
             transform="translate(92.226,531.3354)"
             id="g4358"><path
               d="m 0,0 c -2.131,-0.012 -3.965,-1.689 -3.989,-3.92 0.027,-2.217 1.83,-3.953 4.014,-3.974 1.1,0.005 2.062,0.499 2.749,1.209 0.69,0.716 1.149,1.683 1.149,2.765 C 3.879,-1.779 2.176,-0.049 0,0"
               id="path4360"
               style="fill:#05a1e6;fill-opacity:1;fill-rule:nonzero;stroke:none" /></g><g
             transform="translate(80.3911,539.1486)"
             id="g4362"><path
               d="M 0,0 C 1.1,0.005 2.062,0.499 2.75,1.209 3.439,1.921 3.897,2.89 3.897,3.973 3.854,6.114 2.149,7.845 -0.025,7.891 -2.156,7.881 -3.991,6.202 -4.015,3.973 -3.987,1.757 -2.185,0.018 0,0"
               id="path4364"
               style="fill:#05a1e6;fill-opacity:1;fill-rule:nonzero;stroke:none" /></g><g
             transform="translate(80.3663,531.3354)"
             id="g4366"><path
               d="m 0,0 c -2.131,-0.012 -3.966,-1.689 -3.991,-3.92 0.029,-2.217 1.831,-3.953 4.016,-3.974 1.1,0.005 2.062,0.499 2.749,1.209 0.69,0.716 1.148,1.683 1.148,2.765 C 3.879,-1.779 2.174,-0.049 0,0"
               id="path4368"
               style="fill:#05a1e6;fill-opacity:1;fill-rule:nonzero;stroke:none" /></g><g
             transform="translate(81.9763,557.1932)"
             id="g4370"><path
               d="m 0,0 c -8.063,-2.434 -10.008,-9.251 -12.288,-16.381 -2.435,-7.634 -4.054,-14.419 0.723,-19.807 l -1.371,-1.227 c -7.198,7.217 -8.804,15.113 -6.245,23.124 3.133,9.814 9.933,14.68 18.734,16.373 L 0,0 z"
               id="path4372"
               style="fill:#141111;fill-opacity:1;fill-rule:nonzero;stroke:none" /></g><g
             transform="translate(102.8362,550.8365)"
             id="g4374"><path
               d="m 0,0 c 6.201,-6.439 8.918,-14.32 5.785,-24.135 -2.562,-8.01 -8.457,-13.529 -18.52,-15.286 l -0.409,1.79 c 7.027,1.657 9.653,8.122 12.089,15.754 2.28,7.129 4.649,13.812 -0.512,20.439 L 0,0 z"
               id="path4376"
               style="fill:#141111;fill-opacity:1;fill-rule:nonzero;stroke:none" /></g><g
             transform="translate(183.8107,517.2181)"
             id="g4378"><path
               d="m 0,0 0,36.848 5.359,0 12.184,-18.643 c 2.821,-4.319 5.021,-8.2 6.825,-11.973 l 0.113,0.055 c -0.451,4.92 -0.564,9.403 -0.564,15.144 l 0,15.417 4.626,0 0,-36.848 -4.964,0 -12.071,18.697 c -2.652,4.1 -5.19,8.31 -7.108,12.301 L 4.231,30.943 C 4.513,26.296 4.625,21.868 4.625,15.745 L 4.625,0 0,0 z"
               id="path4380"
               style="fill:#141111;fill-opacity:1;fill-rule:nonzero;stroke:none" /></g><path
             d="m 223.944,517.218 -4.907,0 0,36.848 4.907,0 0,-36.848 z"
             id="path4382"
             style="fill:#141111;fill-opacity:1;fill-rule:nonzero;stroke:none" /><g
             transform="translate(255.7298,522.2012)"
             id="g4384"><path
               d="m 0,0 c -2.581,-0.982 -4.811,-1.393 -7.63,-1.393 -8.643,0 -14.274,6.077 -14.274,15.333 0,8.419 5.575,14.441 13.382,14.441 3.178,0 5.648,-0.665 8.12,-2.189 l 1.257,4.127 c -0.727,0.419 -1.376,0.7 -2.296,1.017 -2.174,0.837 -4.516,1.227 -6.914,1.227 -10.538,0 -18.512,-8.14 -18.512,-18.902 0,-11.319 7.862,-19.292 18.958,-19.292 1.729,0 3.234,0.167 5.074,0.613 1.501,0.364 2.371,0.654 3.851,1.293 L 0,0 z"
               id="path4386"
               style="fill:#141111;fill-opacity:1;fill-rule:nonzero;stroke:none" /></g></g></g></g></g></svg>