<svg version="1.1" id="Layer_1" xmlns="http://www.w3.org/2000/svg" xmlns:xlink="http://www.w3.org/1999/xlink" x="0px" y="0px" viewBox="0 0 198.2 64.7" style="enable-background:new 0 0 198.2 64.7;" xml:space="preserve">
 <style type="text/css">
  .st0{fill:#0596FF;}
 </style>
 <g>
  <path class="st0" d="M178.7,26.7c-10.5-3.4-13.4-6.3-13.4-9.4c0-4.4,5.2-6.9,12.7-6.9c2.9,0,5,0.3,6.5,0.6v8.6l9.9,0.2l0.7-17.3
		c-4.9-1.2-12-2.5-18-2.5c-13.9,0-24.8,6.6-24.8,18.5c0,11.3,7.6,15.5,21.1,19.7c10.4,3.2,11.5,5.7,11.5,8.9c0,3.7-5.1,6.4-11.6,6.4
		c-6.7,0-14.1-2.3-18.7-4.2c-1.2,2.7-3.9,7.1-5.6,9.7c6.8,3.7,14.8,5.7,23.9,5.7c13.8,0,25.5-6.5,25.5-19.5
		C198.2,35.1,192.2,31,178.7,26.7">
  </path>
  <path class="st0" d="M23.7,37.3l8.7-24.7l8.7,24.7H23.7z M42.2,0.4H15.4v7.9h6.7L5.4,55.7H0v7.9h22.5v-7.9h-5.3l3.1-8.6h24.4
		l3.1,8.6h-5v7.9h24.1v-7.9h-5L42.2,0.4z">
  </path>
  <path class="st0" d="M138.4,42.1c-6.8-2-11.8-8.6-11.8-16.5c0-1.8,0.3-3.6,0.8-5.2c6.8,2,11.8,8.6,11.8,16.5
		C139.2,38.7,138.9,40.5,138.4,42.1 M133.9,11.3C133.9,11.2,133.9,11.2,133.9,11.3c-3.3-1.4-7-2.2-10.8-2.2c-1,0-2,0.1-2.9,0.2
		c-3.4,4.6-5.4,10.3-5.4,16.4c0,11.5,7,21.4,17,25.7c-2.5,1.7-5.5,2.8-8.7,2.8c-8.9,0-16.1-7.7-16.1-17.1c0-4.1,1.3-7.8,3.6-10.8
		c0-4.4,1.5-12.2,3.9-15.7c-11.2,3.6-19.2,14.3-19.2,26.5c0,4.9,1.2,9.4,3.4,13.4c-2.6,2.8-6.2,4.4-9.6,4.4c-4.6,0-7.9-3.6-7.9-9
		v-25h14.3V11H81.2V0.4H68.3V11h-9.5v9.9h9.5v26c0,13.4,9.3,17.8,18.4,17.8c7.6,0,13.7-3.6,17.2-7.7c5,4.8,11.8,7.8,19.3,7.8
		c15.2,0,27.8-12.4,27.8-27.8C150.9,25.4,143.9,15.5,133.9,11.3">
  </path>
 </g>
</svg>