<svg version="1.1" id="Layer_1" xmlns="http://www.w3.org/2000/svg" xmlns:xlink="http://www.w3.org/1999/xlink" x="0px" y="0px" viewBox="0 0 193 37.5" style="enable-background:new 0 0 193 37.5;" xml:space="preserve">
 <style type="text/css">
  .st0{fill-rule:evenodd;clip-rule:evenodd;fill:#1B51BF;}
	.st1{fill-rule:evenodd;clip-rule:evenodd;fill:#FD0202;}
 </style>
 <g>
  <g id="logo">
   <path id="text" class="st0" d="M2.8,27.3C1.1,25.5,0,22.9,0,19.6c0-3.1,1.1-5.8,2.8-7.6c1.7-1.9,4-2.9,6.4-2.9
			c4.4,0,7.5,3.1,7.5,5.8c0,1.4-0.9,2.5-2.1,2.6c-0.6,0-1.2-0.2-1.6-0.6c-0.4-0.4-0.7-1-0.7-1.7c0-0.8,0.4-1.4,0.7-1.7
			c-0.6-1-1.7-1.8-3.5-1.9c-1.5,0-2.8,0.8-3.7,2.2c-0.9,1.4-1.5,3.4-1.5,5.8C4.4,22,5,24,5.9,25.4c0.9,1.4,2.2,2.2,3.8,2.2
			c1.8,0,2.9-0.8,3.5-1.9c-0.3-0.4-0.7-0.9-0.7-1.7c0-0.7,0.3-1.3,0.7-1.7c0.4-0.4,1-0.6,1.6-0.6c1.2,0,2.1,1.1,2.1,2.5
			c0,2.7-3.1,5.8-7.5,5.8C6.9,30.1,4.6,29.1,2.8,27.3z M2.8,27.3C1.1,25.5,0,22.9,0,19.6c0-3.1,1.1-5.8,2.8-7.6
			c1.7-1.9,4-2.9,6.4-2.9c4.4,0,7.5,3.1,7.5,5.8c0,1.4-0.9,2.5-2.1,2.6c-0.6,0-1.2-0.2-1.6-0.6c-0.4-0.4-0.7-1-0.7-1.7
			c0-0.8,0.4-1.4,0.7-1.7c-0.6-1-1.7-1.8-3.5-1.9c-1.5,0-2.8,0.8-3.7,2.2c-0.9,1.4-1.5,3.4-1.5,5.8C4.4,22,5,24,5.9,25.4
			c0.9,1.4,2.2,2.2,3.8,2.2c1.8,0,2.9-0.8,3.5-1.9c-0.3-0.4-0.7-0.9-0.7-1.7c0-0.7,0.3-1.3,0.7-1.7c0.4-0.4,1-0.6,1.6-0.6
			c1.2,0,2.1,1.1,2.1,2.5c0,2.7-3.1,5.8-7.5,5.8C6.9,30.1,4.6,29.1,2.8,27.3z M2.8,27.3C1.1,25.5,0,22.9,0,19.6
			c0-3.1,1.1-5.8,2.8-7.6c1.7-1.9,4-2.9,6.4-2.9c4.4,0,7.5,3.1,7.5,5.8c0,1.4-0.9,2.5-2.1,2.6c-0.6,0-1.2-0.2-1.6-0.6
			c-0.4-0.4-0.7-1-0.7-1.7c0-0.8,0.4-1.4,0.7-1.7c-0.6-1-1.7-1.8-3.5-1.9c-1.5,0-2.8,0.8-3.7,2.2c-0.9,1.4-1.5,3.4-1.5,5.8
			C4.4,22,5,24,5.9,25.4c0.9,1.4,2.2,2.2,3.8,2.2c1.8,0,2.9-0.8,3.5-1.9c-0.3-0.4-0.7-0.9-0.7-1.7c0-0.7,0.3-1.3,0.7-1.7
			c0.4-0.4,1-0.6,1.6-0.6c1.2,0,2.1,1.1,2.1,2.5c0,2.7-3.1,5.8-7.5,5.8C6.9,30.1,4.6,29.1,2.8,27.3z M65.8,20.4
			c0.3,0,0.4-0.1,0.4-0.2c0.1-0.1,0.1-0.3,0.1-0.5c0-1.4-1.1-2.7-2.7-2.7c-2,0-2.9,1.7-3,3.3L65.8,20.4L65.8,20.4z M25.2,22.8
			c-1.6,0-2.6,0.8-2.6,2.2c0,1.4,0.9,2.3,2.4,2.4c0.9,0,1.9-0.5,2.5-1.3V24c0-0.3-0.2-0.6-0.6-0.8C26.6,22.9,26,22.8,25.2,22.8z
			 M85,21.9c0,4,1.7,5.7,3.4,5.7c1.9,0,3.3-1.7,3.3-5.1c0-1.7-0.4-3.1-1-4.1C90,17.5,89.2,17,88.2,17C86.2,17,85,18.8,85,21.9z
			 M35.4,29.5c-0.6-0.2-1-0.5-1-1c0-0.2,0.1-0.4,0.2-0.7l0-0.1l0.1,0c0.2,0,0.6-0.2,1-0.4c0.4-0.3,0.5-0.7,0.5-1.9v-6
			c0-1-0.3-1.4-1.1-1.4c-0.2,0-0.4,0-0.7,0.1l-0.1,0l0-0.1c-0.1-0.2-0.1-0.5-0.1-0.7c0-1.2,1.3-1.8,2.2-2.1c0.3-0.1,0.7-0.2,1-0.2
			c1.2,0,1.8,0.9,2.1,2c0.8-1.3,2-2.1,3.2-2.1c1.1,0,2.3,0.8,2.3,2.2c0,1-0.7,2.1-1.9,2.1c-0.9,0-1.7-0.6-1.8-1.5
			c-0.7,0.2-1.6,1.1-1.7,4.1v3.6c0,1.2,0.2,1.6,0.5,1.9c0.3,0.3,1,0.4,1.3,0.4l0.1,0l0,0.1c0.1,0.3,0.2,0.5,0.2,0.7
			c0,0.5-0.4,0.8-0.9,1c-0.6,0.2-1.4,0.2-2.6,0.2C36.9,29.8,36,29.7,35.4,29.5z M47.3,29.5c-0.6-0.2-1-0.5-1-1
			c0-0.2,0.1-0.4,0.2-0.7l0-0.1l0.1,0c0.2,0,0.6-0.2,1-0.4c0.4-0.3,0.5-0.7,0.5-1.9v-6c0-1-0.3-1.4-1.1-1.4c-0.2,0-0.4,0-0.7,0.1
			l-0.1,0l0-0.1C46,17.6,46,17.4,46,17.2c0-1.2,1.3-1.8,2.2-2.1c0.3-0.1,0.7-0.2,1-0.2c1.2,0,1.8,0.9,2.1,2c0.8-1.3,2-2.1,3.2-2.1
			c1.1,0,2.3,0.8,2.3,2.2c0,1-0.7,2.1-1.9,2.1c-0.9,0-1.7-0.6-1.8-1.5c-0.7,0.2-1.6,1.1-1.7,4.1v3.6c0,1.2,0.2,1.6,0.5,1.9
			c0.3,0.3,1,0.4,1.3,0.4l0.1,0l0,0.1c0.1,0.3,0.2,0.5,0.2,0.7c0,0.5-0.4,0.8-0.9,1c-0.6,0.2-1.4,0.2-2.6,0.2
			C48.8,29.8,47.9,29.7,47.3,29.5z M72.4,29.5c-0.6-0.2-1-0.5-1-1c0-0.2,0.1-0.4,0.2-0.7l0-0.1l0.1,0c0.2,0,0.6-0.2,1-0.4
			c0.4-0.3,0.5-0.7,0.5-1.9v-8l-2.1-0.1l0-0.1c-0.1-0.3-0.2-0.5-0.2-0.7c0-0.8,0.6-1.3,1.3-1.3h0.9v-0.9c0-2.1,0.4-3.3,0.9-4.1
			C74.9,8.9,76.3,8,78.4,8c2.7,0,5,1.3,5,3.4c0,0.9-0.6,2-1.9,2c-1,0-1.8-0.8-1.8-1.8c0-0.4,0.1-0.8,0.3-1.1
			c-0.3-0.3-0.8-0.4-1.4-0.4c-0.8,0-1.3,0.3-1.6,0.8c-0.3,0.5-0.4,1.2-0.4,2v2.3h3.6l0,0.1c0.1,0.3,0.2,0.5,0.2,0.8
			c0,0.8-0.6,1.4-1.3,1.5c-0.3,0-0.6,0-0.8,0c-0.6,0-1.2,0-1.6-0.1v7.9c0,1.2,0.2,1.6,0.6,1.9c0.3,0.3,1.2,0.4,1.5,0.4l0.1,0l0,0.1
			c0.1,0.2,0.1,0.4,0.1,0.6c0,0.5-0.4,0.9-1.1,1.1c-0.7,0.2-1.6,0.3-2.8,0.3C74,29.8,73.1,29.7,72.4,29.5z M115.3,29.5
			c-0.6-0.2-1-0.5-1-1c0-0.2,0.1-0.4,0.2-0.7l0-0.1l0.1,0c0.2,0,0.6-0.2,1-0.4c0.4-0.3,0.5-0.7,0.5-1.9v-6c0-1-0.3-1.4-1.1-1.4
			c-0.2,0-0.4,0-0.7,0.1l-0.1,0l0-0.1c-0.1-0.2-0.1-0.4-0.1-0.6c0-1.2,1.3-1.8,2.2-2.1c0.4-0.1,0.7-0.2,1-0.2c1.2,0,1.8,0.9,2.1,2
			c0.8-1.3,2-2.2,3.2-2.2c1.1,0,2.3,0.8,2.3,2.2c0,1-0.7,2.1-1.9,2.1c-0.9,0-1.7-0.6-1.8-1.5c-0.7,0.2-1.6,1.1-1.6,4.1v3.6
			c0,1.2,0.2,1.6,0.5,1.9c0.3,0.3,1.1,0.4,1.3,0.4l0.1,0l0,0.1c0.1,0.3,0.2,0.5,0.2,0.7c0,0.5-0.4,0.8-0.9,1
			c-0.6,0.2-1.4,0.2-2.6,0.2C116.8,29.8,115.9,29.7,115.3,29.5z M88.2,30c-2,0-3.8-0.8-5.1-2.1c-1.3-1.3-2.1-3.2-2.1-5.5
			c0-4.5,3.5-7.5,7.4-7.5c2.1,0,3.9,0.8,5.2,2.1c1.3,1.3,2.1,3.2,2.1,5.5c0,2.2-0.8,4.1-2.1,5.5C92.1,29.2,90.3,30,88.2,30L88.2,30z
			 M56.8,22.6c0-2.3,0.7-4.2,2-5.6c1.3-1.4,3.1-2.2,5.3-2.2c2,0,3.4,0.7,4.4,1.8c1,1.1,1.4,2.5,1.4,3.7c0,0.8-0.2,1.5-0.5,2.1l0,0.1
			h-8.9c0.1,2.6,1.8,4.5,4.6,4.5c1.8,0,3.1-1,3.6-1.6l0.1-0.1l0.1,0.1c0.3,0.2,0.5,0.5,0.5,1.2c0,1.5-1.7,3.4-5.6,3.4
			C60,30,56.8,26.8,56.8,22.6z M107.9,29.3c-0.3-0.4-0.4-0.8-0.5-1.4c-0.1,0.2-0.3,0.3-0.6,0.6c-0.9,0.9-2.2,1.5-3.6,1.5
			c-1.5,0-2.8-0.6-3.7-1.6c-1.3-1.5-1.3-3.5-1.3-6.3v-2.7c0-1.1-0.4-1.5-1.4-1.5c-0.1,0-0.3,0-0.4,0l-0.1,0l0-0.1
			c-0.1-0.2-0.1-0.4-0.1-0.6c0-1.3,1.6-2,2.6-2.2c0.3-0.1,0.6-0.1,0.9-0.1c0.8,0,1.3,0.3,1.7,0.7c0.4,0.5,0.5,1.1,0.5,1.8l0,4.6
			c0,1.7,0.1,3,0.5,3.8c0.4,0.8,0.9,1.2,2,1.2c1.1,0,1.8-0.5,2.2-1.2c0.4-0.7,0.6-1.7,0.6-2.7v-3.7c0-1.1-0.4-1.5-1.4-1.5
			c-0.1,0-0.3,0-0.4,0l-0.1,0l0-0.1c-0.1-0.2-0.1-0.4-0.1-0.6c0-1.3,1.6-2,2.6-2.2c0.3-0.1,0.6-0.1,0.9-0.1c0.8,0,1.3,0.3,1.7,0.7
			c0.4,0.5,0.5,1.1,0.5,1.8c0,0.5-0.1,1.5-0.1,5.4c0,1.6,0,2.5,0,2.8c0,1.1,0.4,1.6,1.4,1.6c0.1,0,0.2,0,0.3,0l0.1,0l0,0.1
			c0.1,0.2,0.1,0.4,0.1,0.6c0,1.3-1.7,1.8-2.6,2c-0.3,0.1-0.6,0.1-0.9,0.1h0C108.7,30,108.2,29.7,107.9,29.3z M18.7,25.3
			c0-1.4,0.6-2.6,1.7-3.4c1-0.8,2.5-1.2,4.2-1.2c1.1,0,2.2,0.2,2.9,0.5v-1.6c0-1.6-0.6-2.6-2.4-2.6c-0.3,0-1.1,0.1-1.7,0.3
			c0.1,0.2,0.1,0.5,0.1,0.7c0,0.5-0.2,1-0.5,1.4c-0.3,0.4-0.8,0.6-1.4,0.6c-1,0-1.8-0.9-1.8-1.9c0-2,2.4-3.3,5.5-3.3
			c2.5,0,4.1,0.6,4.9,1.7c0.8,1,0.8,2.4,0.8,4.4v5.3c0,1,0.6,1.3,1.8,1.5l0.1,0l0,0.1c-0.1,1.4-1.1,2-2.2,2.1c-0.1,0-0.2,0-0.3,0
			c-1.1,0-2.1-0.5-2.6-1.6c-0.7,0.6-2.2,1.6-4.1,1.6C20.9,30,18.7,28,18.7,25.3z">
   </path>
  </g>
  <g id="visual">
   <path id="Path" class="st1" d="M153.1,1.1c0.1-0.1,0.2-0.1,0.3-0.1c0.1,0,0.2,0.1,0.2,0.3c0,0.1,0,0.2-0.1,0.3
			c-3.5,4.4-6,9.6-6,16.8c0,7.2,2.5,12.3,6,16.7c0.1,0.1,0.1,0.2,0.1,0.3c0,0.2-0.1,0.3-0.2,0.3c-0.1,0-0.2,0-0.3-0.1l-14.8-14.7
			c-0.7-0.6-1.2-1.4-1.2-2.5c0-1.1,0.5-1.8,1.2-2.5L153.1,1.1z">
   </path>
   <path id="Path_1_" class="st0" d="M165.5,0c-5.9,0-8.3,8.6-8.3,18.8c0,10.2,2.3,18.7,8.3,18.7c3.6,0,6.6-2.1,6.6-3.9
			c0-0.4-0.1-0.7-0.5-1.1c-1.7-1.7-2.3-3.3-2.4-4.8c0-2.8,2.4-4.9,4.6-4.9c3,0,4.8,2.4,4.8,5.6c0,3-1.2,5.4-2.6,7.4
			c-0.1,0.1-0.1,0.2-0.1,0.3c0,0.2,0.1,0.3,0.2,0.3c0.1,0,0.2,0,0.3-0.2l15.2-15c0.8-0.7,1.2-1.4,1.2-2.5c0-1.1-0.5-1.9-1.2-2.5
			l-15.2-15c-0.1-0.1-0.2-0.1-0.3-0.1c-0.1,0-0.2,0.1-0.2,0.3c0,0.1,0,0.2,0.1,0.3c1.3,2,2.6,4.5,2.6,7.4c0,3.1-1.8,5.6-4.8,5.6
			c-2.2,0-4.6-2.1-4.6-4.9c0-1.5,0.7-3.1,2.4-4.8c0.3-0.3,0.5-0.7,0.5-1.1C172.1,2.1,169.1,0,165.5,0z">
   </path>
  </g>
 </g>
</svg>