<svg version="1.1" id="Layer_1" xmlns="http://www.w3.org/2000/svg" xmlns:xlink="http://www.w3.org/1999/xlink" x="0px" y="0px" viewBox="0 0 137.8 64.1" style="enable-background:new 0 0 137.8 64.1;" xml:space="preserve">
 <style type="text/css">
  .st0{fill:#E11937;}
 </style>
 <g>
  <g id="Layer_1_1_">
   <g>
    <path class="st0" d="M34.3,12.4C21.7,12.4,14,22.2,14,32.1c0,11.9,9.7,19.7,20.3,19.7c7.1,0,13.7-3.1,19.4-8.2v14.8
				c-6,3.6-14.1,5.8-20.4,5.8C15.2,64.1,0,49.4,0,32.1C0,13.7,15.3,0,33.4,0c7,0,15.1,2.1,20.4,4.8v14.5
				C47.2,14.8,40.4,12.4,34.3,12.4z">
    </path>
    <path class="st0" d="M92.4,64.1c-18.2,0-33.6-14.2-33.6-32.1C58.7,14,74,0,93.2,0c7,0,15.6,1.8,20.9,4.3v14.4
				c-6-3.5-13.8-6.3-20.6-6.3c-12.6,0-20.7,9.8-20.7,19.7c0,11.6,9.6,20.1,20.9,20.1c2.4,0,4.7-0.2,7.6-1.3V39.3H91V27.1h23.5v32.4
				C107.8,62.6,100.2,64.1,92.4,64.1z">
    </path>
    <path class="st0" d="M124.7,62.9V1.3h13.2v61.6H124.7L124.7,62.9z">
    </path>
   </g>
  </g>
  <g id="Protection">
  </g>
  <g id="Guides">
  </g>
 </g>
</svg>