<svg xmlns="http://www.w3.org/2000/svg" xml:space="preserve" width="566.545" height="62.695"><path d="M69.501 6.93c-1.354 0-2.6.314-3.74.942-1.14.627-2.052 1.556-2.737 2.786s-1.028 2.745-1.028 4.545c0 1.784.35 3.307 1.053 4.57.702 1.264 1.635 2.23 2.799 2.899a7.456 7.456 0 0 0 3.777 1.003c1.04 0 1.974-.21 2.8-.632.825-.421 1.51-.912 2.055-1.474l-1.932-2.328c-.413.38-.846.69-1.3.929-.454.24-.97.359-1.549.359a3.453 3.453 0 0 1-1.994-.62c-.602-.412-1.081-1.007-1.436-1.783s-.533-1.709-.533-2.799c0-1.651.355-2.939 1.065-3.864.71-.925 1.66-1.387 2.85-1.387.66 0 1.25.149 1.77.446.52.297.978.652 1.375 1.065l1.932-2.279C73.374 7.723 71.632 6.93 69.5 6.93M82.159 6.93c-1.04 0-2.019.252-2.936.756-.916.503-1.655 1.238-2.216 2.204-.562.966-.843 2.126-.843 3.48 0 1.371.281 2.535.843 3.493.56.958 1.3 1.688 2.216 2.192a6.002 6.002 0 0 0 2.936.755c1.04 0 2.014-.251 2.922-.755.908-.504 1.644-1.234 2.205-2.192.561-.958.842-2.122.842-3.493 0-1.354-.28-2.514-.842-3.48-.561-.966-1.296-1.7-2.205-2.204a5.93 5.93 0 0 0-2.922-.756Zm0 2.948c.743 0 1.304.318 1.684.954.38.635.57 1.481.57 2.538 0 1.074-.19 1.924-.57 2.552-.38.627-.941.941-1.685.941-.76 0-1.325-.314-1.696-.941-.372-.628-.558-1.478-.558-2.552 0-1.057.186-1.903.558-2.538.371-.636.937-.954 1.696-.954M90.63 7.228v12.285h2.972l.248-1.56h.099c.528.495 1.11.929 1.746 1.3.636.372 1.367.557 2.192.557 1.338 0 2.308-.441 2.91-1.325.603-.883.905-2.093.905-3.628v-7.63h-3.641v7.159c0 .892-.12 1.503-.36 1.833-.239.33-.623.495-1.151.495-.463 0-.859-.103-1.19-.31-.33-.206-.693-.499-1.089-.879V7.227ZM108.415 6.93c-.81 0-1.64.157-2.49.471a7.68 7.68 0 0 0-2.217 1.238l1.635 2.28a8.275 8.275 0 0 1 1.623-.954 3.903 3.903 0 0 1 1.548-.335c.545 0 .941.095 1.189.285.247.19.371.442.371.756 0 .28-.12.511-.359.693-.24.182-.55.351-.929.508-.38.157-.784.318-1.214.483a9.859 9.859 0 0 0-1.473.743 4.08 4.08 0 0 0-1.227 1.152c-.33.47-.495 1.044-.495 1.721 0 1.14.434 2.064 1.3 2.774.867.71 2.003 1.065 3.406 1.065.941 0 1.771-.16 2.49-.482a9.061 9.061 0 0 0 1.845-1.078l-1.635-2.18c-.429.33-.859.586-1.288.768-.43.182-.859.272-1.288.272-.941 0-1.412-.321-1.412-.965 0-.397.236-.698.706-.904.471-.207 1.02-.426 1.647-.657a8.932 8.932 0 0 0 1.549-.706 3.974 3.974 0 0 0 1.263-1.14c.338-.47.508-1.085.508-1.844 0-1.107-.43-2.044-1.288-2.812-.86-.768-2.114-1.152-3.765-1.152M115.771 7.228v12.285h3.641V7.227Zm1.808 14.093c-.61 0-1.106.174-1.486.52-.38.347-.57.81-.57 1.388 0 .578.19 1.04.57 1.387.38.347.875.52 1.486.52s1.107-.173 1.487-.52c.38-.347.57-.81.57-1.387 0-.578-.19-1.04-.57-1.387-.38-.347-.876-.52-1.487-.52M126.992 2.001c-.958 0-1.825.107-2.601.322-.776.215-1.395.553-1.858 1.016-.462.462-.693 1.056-.693 1.783 0 .99.586 1.817 1.758 2.477v.099a3.04 3.04 0 0 0-.805.818c-.223.33-.334.75-.334 1.263 0 .446.132.875.396 1.288.264.413.595.751.991 1.015v.1c-.43.297-.813.726-1.152 1.287-.339.562-.508 1.198-.508 1.908 0 .99.24 1.812.719 2.464a4.444 4.444 0 0 0 1.882 1.474c.776.33 1.602.496 2.477.496.727 0 1.363-.1 1.907-.298h4.484v-2.65h-1.957a2.47 2.47 0 0 0 .285-.694c.074-.28.111-.586.111-.916 0-.941-.214-1.718-.644-2.328a3.842 3.842 0 0 0-1.734-1.363c-.726-.297-1.544-.446-2.452-.446-.479 0-.974.083-1.486.248-.297-.248-.446-.553-.446-.916 0-.314.14-.545.421-.694.281-.148.76-.223 1.437-.223h1.981c1.52 0 2.68-.244 3.48-.73.802-.488 1.202-1.285 1.202-2.391 0-.842-.28-1.598-.842-2.266-.562-.669-1.355-1.193-2.378-1.573-1.024-.38-2.238-.57-3.641-.57zm.272 11.32c.479 0 .88.173 1.202.52.322.347.483.859.483 1.536 0 .644-.161 1.135-.483 1.474a1.59 1.59 0 0 1-1.202.507c-.479 0-.88-.165-1.201-.495-.322-.33-.483-.826-.483-1.486 0-.677.16-1.19.483-1.536.322-.347.722-.52 1.201-.52zm.297-9.041c.826 0 1.503.149 2.032.446.528.297.792.652.792 1.065 0 .38-.16.636-.483.768-.322.132-.788.198-1.4.198h-1.263c-.412 0-.755.012-1.028.037a4.677 4.677 0 0 0-.705.111c-.446-.396-.67-.8-.67-1.213 0-.463.253-.814.756-1.053.504-.24 1.16-.359 1.97-.359M139.178 6.93c-1.255 0-2.126.376-2.613 1.127-.487.752-.73 1.747-.73 2.985v13.55h3.64V10.893c0-.38.07-.645.211-.793.14-.149.285-.223.434-.223.082 0 .152.004.21.012.058.009.136.02.236.037l.445-2.7a3.875 3.875 0 0 0-.755-.21 5.866 5.866 0 0 0-1.078-.087M142.919 7.228v12.285h3.64V7.227Zm1.808 14.093c-.611 0-1.107.174-1.486.52-.38.347-.57.81-.57 1.388 0 .578.19 1.04.57 1.387.38.347.875.52 1.486.52.61 0 1.106-.173 1.486-.52.38-.347.57-.81.57-1.387 0-.578-.19-1.04-.57-1.387-.38-.347-.875-.52-1.486-.52M155.03 6.93a6 6 0 0 0-2.935.756c-.916.503-1.655 1.238-2.216 2.204-.562.966-.842 2.126-.842 3.48 0 1.371.28 2.535.842 3.493.561.958 1.3 1.688 2.216 2.192a6.001 6.001 0 0 0 2.936.755c1.04 0 2.014-.251 2.922-.755.909-.504 1.644-1.234 2.205-2.192.562-.958.842-2.122.842-3.493 0-1.354-.28-2.514-.842-3.48-.561-.966-1.296-1.7-2.204-2.204a5.93 5.93 0 0 0-2.923-.756zm0 2.948c.744 0 1.305.318 1.685.954.38.635.57 1.481.57 2.538 0 1.074-.19 1.924-.57 2.552-.38.627-.941.941-1.684.941-.76 0-1.326-.314-1.697-.941-.371-.628-.557-1.478-.557-2.552 0-1.057.186-1.903.557-2.538.372-.636.937-.954 1.697-.954M168.753 7.228v16.15h3.74l4.211-8.026 1.585-3.567h.1a90.265 90.265 0 0 1-.273 2.873 27.804 27.804 0 0 0-.173 3.022v5.697h3.467V7.227h-3.74l-4.21 8.05-1.586 3.518h-.099c.083-.892.177-1.85.285-2.873a28.5 28.5 0 0 0 .16-2.973V7.228ZM188.024 6.93c-1.123 0-2.015.36-2.675 1.078-.66.718-.991 1.598-.991 2.638 0 1.288.545 2.295 1.635 3.022 1.09.726 2.848 1.213 5.276 1.461-.033.545-.194.978-.483 1.3-.29.322-.772.483-1.45.483a4.425 4.425 0 0 1-1.56-.297 11.13 11.13 0 0 1-1.684-.817l-1.313 2.402c.776.48 1.606.868 2.49 1.165a8.6 8.6 0 0 0 2.761.446c1.57 0 2.774-.455 3.617-1.363.842-.908 1.263-2.303 1.263-4.186V7.227h-2.973l-.247 1.264h-.1a7.21 7.21 0 0 0-1.646-1.127 4.281 4.281 0 0 0-1.92-.434zm1.238 2.824c.413 0 .772.095 1.078.285.305.19.615.442.929.755v2.155c-1.288-.165-2.18-.425-2.676-.78-.495-.355-.742-.772-.742-1.25 0-.397.127-.69.383-.88.256-.19.599-.285 1.029-.285M197.313 7.228v1.956l5.152 7.48h-4.583v2.85h9.115V17.58l-5.152-7.505h5.326V7.227ZM209.375 7.228v12.285h3.642V7.227Zm1.809 14.093c-.611 0-1.107.174-1.487.52-.38.347-.57.81-.57 1.388 0 .578.19 1.04.57 1.387.38.347.876.52 1.487.52.61 0 1.106-.173 1.486-.52.38-.347.57-.81.57-1.387 0-.578-.19-1.04-.57-1.387-.38-.347-.875-.52-1.486-.52M221.488 6.93c-1.04 0-2.019.252-2.936.756-.916.503-1.655 1.238-2.216 2.204-.562.966-.843 2.126-.843 3.48 0 1.371.281 2.535.843 3.493.56.958 1.3 1.688 2.216 2.192a6.002 6.002 0 0 0 2.936.755c1.04 0 2.014-.251 2.922-.755.909-.504 1.644-1.234 2.205-2.192.561-.958.842-2.122.842-3.493 0-1.354-.28-2.514-.842-3.48-.561-.966-1.296-1.7-2.205-2.204a5.93 5.93 0 0 0-2.922-.756zm0 2.948c.743 0 1.304.318 1.684.954.38.635.57 1.481.57 2.538 0 1.074-.19 1.924-.57 2.552-.38.627-.941.941-1.684.941-.76 0-1.326-.314-1.697-.941-.372-.628-.557-1.478-.557-2.552 0-1.057.185-1.903.557-2.538.371-.636.937-.954 1.697-.954M229.959 7.228v12.285h2.972l.248-1.56h.099c.528.495 1.11.929 1.746 1.3.636.372 1.367.557 2.192.557 1.338 0 2.308-.441 2.91-1.325.603-.883.905-2.093.905-3.628v-7.63h-3.641v7.159c0 .892-.12 1.503-.36 1.833-.239.33-.623.495-1.151.495-.463 0-.859-.103-1.189-.31-.33-.206-.694-.499-1.09-.879V7.227ZM247.224 6.93c-1.123 0-2.015.36-2.676 1.078-.66.718-.99 1.598-.99 2.638 0 1.288.544 2.295 1.634 3.022 1.09.726 2.849 1.213 5.276 1.461-.033.545-.194.978-.483 1.3-.289.322-.772.483-1.449.483a4.424 4.424 0 0 1-1.56-.297 11.13 11.13 0 0 1-1.684-.817l-1.313 2.402c.776.48 1.606.868 2.489 1.165a8.6 8.6 0 0 0 2.762.446c1.569 0 2.774-.455 3.616-1.363.842-.908 1.264-2.303 1.264-4.186V7.227h-2.973l-.248 1.264h-.098a7.21 7.21 0 0 0-1.648-1.127 4.28 4.28 0 0 0-1.92-.434Zm1.238 2.824c.413 0 .772.095 1.078.285.305.19.615.442.928.755v2.155c-1.288-.165-2.18-.425-2.675-.78-.495-.355-.743-.772-.743-1.25 0-.397.128-.69.384-.88.256-.19.599-.285 1.028-.285M260.525 6.93c-1.255 0-2.126.376-2.613 1.127-.488.752-.731 1.747-.731 2.985v13.55h3.641V10.893c0-.38.07-.645.21-.793.14-.149.286-.223.434-.223.083 0 .153.004.21.012.059.009.137.02.236.037l.446-2.7a3.875 3.875 0 0 0-.756-.21 5.867 5.867 0 0 0-1.077-.087M269.764 6.93c-1.173 0-2.23.256-3.17.768a5.612 5.612 0 0 0-2.23 2.205c-.545.957-.817 2.113-.817 3.467 0 1.338.276 2.486.83 3.443.553.958 1.275 1.697 2.167 2.217.892.52 1.824.78 2.799.78 1.172 0 2.142-.26 2.91-.78a4.83 4.83 0 0 0 1.734-2.105c.388-.884.582-1.887.582-3.01 0-.313-.017-.623-.05-.929a6.803 6.803 0 0 0-.099-.68h-7.356c.165-.892.536-1.549 1.114-1.97.578-.421 1.272-.632 2.081-.632.875 0 1.759.273 2.65.818l1.214-2.205a8.024 8.024 0 0 0-2.105-1.015 7.395 7.395 0 0 0-2.254-.372Zm-2.725 7.778h4.434c0 .677-.161 1.234-.483 1.672-.322.437-.847.656-1.573.656-.561 0-1.065-.194-1.511-.582-.446-.388-.735-.97-.867-1.746M338.251 7.228v16.15h5.821c1.14 0 2.18-.154 3.121-.459.941-.305 1.693-.822 2.254-1.548.562-.727.842-1.734.842-3.022 0-1.189-.26-2.167-.78-2.935a4.76 4.76 0 0 0-2.093-1.722l3.666-6.465h-4.087l-3.096 5.821h-2.006v-5.82Zm3.642 8.718h1.882c.958 0 1.688.203 2.192.607.504.405.755 1.003.755 1.796 0 .793-.251 1.346-.755 1.66-.504.313-1.234.47-2.192.47h-1.882zM353.138 7.228v12.285h3.641V7.227Zm1.808 14.093c-.611 0-1.106.174-1.486.52-.38.347-.57.81-.57 1.388 0 .578.19 1.04.57 1.387.38.347.875.52 1.486.52s1.106-.173 1.486-.52c.38-.347.57-.81.57-1.387 0-.578-.19-1.04-.57-1.387-.38-.347-.875-.52-1.486-.52M365.324 6.93c-1.139 0-2.167.252-3.084.756-.916.503-1.643 1.238-2.18 2.204-.536.966-.804 2.126-.804 3.48 0 1.371.297 2.535.892 3.493a5.944 5.944 0 0 0 2.353 2.192 6.75 6.75 0 0 0 3.145.755c.76 0 1.433-.123 2.02-.371a6.354 6.354 0 0 0 1.572-.941l-1.71-2.353c-.577.479-1.13.718-1.659.718-.875 0-1.573-.314-2.093-.941-.52-.628-.78-1.478-.78-2.552 0-1.057.26-1.903.78-2.538.52-.636 1.177-.954 1.97-.954.396 0 .784.087 1.164.26.38.173.726.384 1.04.632l1.437-2.378a5.566 5.566 0 0 0-1.982-1.127 6.929 6.929 0 0 0-2.08-.335M376.347 6.93c-1.172 0-2.23.256-3.17.768a5.612 5.612 0 0 0-2.23 2.205c-.545.957-.817 2.113-.817 3.467 0 1.338.277 2.486.83 3.443.553.958 1.275 1.697 2.167 2.217.892.52 1.825.78 2.799.78 1.172 0 2.143-.26 2.91-.78a4.832 4.832 0 0 0 1.734-2.105c.388-.884.582-1.887.582-3.01 0-.313-.016-.623-.05-.929a6.81 6.81 0 0 0-.098-.68h-7.357c.165-.892.537-1.549 1.115-1.97.578-.421 1.271-.632 2.08-.632.876 0 1.759.273 2.65.818l1.214-2.205a8.023 8.023 0 0 0-2.105-1.015 7.395 7.395 0 0 0-2.254-.372Zm-2.724 7.778h4.433c0 .677-.16 1.234-.483 1.672-.322.437-.846.656-1.573.656-.561 0-1.065-.194-1.51-.582-.447-.388-.735-.97-.867-1.746M383.679 7.228v12.285h2.972l.248-2.155h.099c.446.826.983 1.441 1.61 1.846.628.404 1.255.607 1.883.607.346 0 .635-.021.866-.062.232-.042.43-.103.595-.186l-.595-3.146a4.617 4.617 0 0 1-.631.149c-.207.033-.442.05-.706.05-.463 0-.945-.17-1.449-.509-.504-.338-.92-.92-1.251-1.746V7.227ZM398.64 6.93c-1.14 0-2.168.252-3.084.756-.917.503-1.643 1.238-2.18 2.204-.537.966-.805 2.126-.805 3.48 0 1.371.297 2.535.892 3.493a5.944 5.944 0 0 0 2.353 2.192 6.75 6.75 0 0 0 3.146.755c.76 0 1.432-.123 2.018-.371a6.354 6.354 0 0 0 1.573-.941l-1.709-2.353c-.578.479-1.13.718-1.66.718-.875 0-1.572-.314-2.092-.941-.52-.628-.78-1.478-.78-2.552 0-1.057.26-1.903.78-2.538.52-.636 1.176-.954 1.969-.954.396 0 .784.087 1.164.26.38.173.727.384 1.04.632l1.437-2.378a5.567 5.567 0 0 0-1.982-1.127 6.93 6.93 0 0 0-2.08-.335M404.857 7.228V24.59h3.641v-4.26l-.173-2.205a9.57 9.57 0 0 0 1.622 1.152c.62.355 1.342.533 2.167.533 1.338 0 2.308-.442 2.91-1.326.603-.883.905-2.093.905-3.628v-7.63h-3.641v7.159c0 .892-.12 1.503-.36 1.833-.239.33-.623.495-1.151.495-.463 0-.859-.103-1.19-.31-.33-.206-.693-.499-1.089-.879V7.227ZM424.5 6.93c-1.173 0-2.23.256-3.171.768a5.612 5.612 0 0 0-2.23 2.205c-.545.957-.817 2.113-.817 3.467 0 1.338.277 2.486.83 3.443.553.958 1.275 1.697 2.167 2.217.892.52 1.825.78 2.799.78 1.172 0 2.143-.26 2.91-.78a4.83 4.83 0 0 0 1.734-2.105c.388-.884.582-1.887.582-3.01 0-.313-.016-.623-.05-.929a6.78 6.78 0 0 0-.098-.68h-7.357c.166-.892.537-1.549 1.115-1.97.578-.421 1.271-.632 2.08-.632.876 0 1.76.273 2.65.818l1.215-2.205a8.022 8.022 0 0 0-2.106-1.015 7.395 7.395 0 0 0-2.254-.372Zm-2.725 7.778h4.433c0 .677-.16 1.234-.483 1.672-.322.437-.846.656-1.573.656-.561 0-1.065-.194-1.51-.582-.447-.388-.735-.97-.867-1.746M286.582 6.93c-1.502 0-2.708.55-3.616 1.647-.908 1.099-1.362 2.647-1.362 4.645 0 1.304.243 2.431.73 3.38.487.95 1.131 1.68 1.933 2.193.8.512 1.655.768 2.563.768.694 0 1.296-.124 1.808-.372a8.092 8.092 0 0 0 1.56-1.015l-.098 2.056v4.632h2.056V7.227h-1.685l-.173 1.412h-.075a6.98 6.98 0 0 0-1.634-1.2 4.165 4.165 0 0 0-2.007-.509zm.446 1.71c1.057 0 2.08.552 3.072 1.659v6.291c-.512.463-1.004.789-1.474.979a3.84 3.84 0 0 1-1.45.285 2.85 2.85 0 0 1-1.746-.582c-.52-.389-.936-.925-1.25-1.61-.314-.686-.471-1.49-.471-2.415 0-1.437.289-2.564.867-3.382.578-.817 1.395-1.226 2.452-1.226M301.098 6.93c-1.074 0-2.048.252-2.923.756-.876.503-1.57 1.226-2.081 2.167-.512.941-.768 2.064-.768 3.369 0 1.32.26 2.452.78 3.393.52.941 1.193 1.668 2.02 2.18.825.512 1.692.768 2.6.768 1.536 0 2.72-.512 3.554-1.536.834-1.024 1.251-2.394 1.251-4.112 0-.214-.004-.425-.012-.631a3.04 3.04 0 0 0-.062-.533h-8.124c.082-1.271.482-2.287 1.2-3.047.72-.76 1.656-1.139 2.812-1.139.578 0 1.11.087 1.598.26.487.174.953.4 1.4.681l.718-1.337a9.295 9.295 0 0 0-1.747-.867c-.652-.248-1.391-.372-2.216-.372Zm-3.79 7.283h6.44c0 1.222-.26 2.15-.78 2.786-.52.636-1.251.954-2.192.954-.843 0-1.598-.326-2.267-.979-.669-.652-1.07-1.573-1.201-2.761M310.659 6.93c-.76 0-1.31.236-1.648.706-.338.47-.508 1.144-.508 2.019v15.209h2.032V9.506c0-.314.057-.54.173-.68.115-.141.247-.212.396-.212.066 0 .128.005.186.013l.26.037.273-1.536a1.76 1.76 0 0 0-.471-.148 4.013 4.013 0 0 0-.693-.05M316.975 6.93c-.76 0-1.31.236-1.648.706-.338.47-.508 1.144-.508 2.019v15.209h2.032V9.506c0-.314.058-.54.173-.68.116-.141.248-.212.396-.212.066 0 .128.005.186.013l.26.037.273-1.536a1.761 1.761 0 0 0-.471-.148 4.014 4.014 0 0 0-.693-.05M326.015 6.93c-1.073 0-2.047.252-2.922.756-.876.503-1.57 1.226-2.081 2.167-.512.941-.768 2.064-.768 3.369 0 1.32.26 2.452.78 3.393.52.941 1.193 1.668 2.019 2.18.826.512 1.693.768 2.6.768 1.537 0 2.721-.512 3.555-1.536.834-1.024 1.251-2.394 1.251-4.112 0-.214-.004-.425-.012-.631a3.04 3.04 0 0 0-.062-.533h-8.125c.083-1.271.483-2.287 1.202-3.047.718-.76 1.655-1.139 2.81-1.139.579 0 1.112.087 1.599.26.487.174.953.4 1.4.681l.718-1.337a9.296 9.296 0 0 0-1.747-.867c-.652-.248-1.391-.372-2.217-.372zm-3.79 7.283h6.44c0 1.222-.26 2.15-.78 2.786-.52.636-1.25.954-2.192.954-.842 0-1.597-.326-2.266-.979-.669-.652-1.07-1.573-1.202-2.761M23.962 7.004c-10.799 0-19.566 9.405-19.566 21.015 0 11.601 8.754 21.003 19.556 21.003h7.277v-4.36h-7.114c-8.555 0-15.645-7.463-15.645-16.643 0-9.189 6.944-16.638 15.492-16.638H40.31V7.004Z" style="fill:#19365e;fill-opacity:1;fill-rule:nonzero;stroke:none" transform="matrix(1.33333 0 0 -1.33333 -5.861 65.363)"/><path d="M31.229 31.56h-7.226c-1.84 0-3.328-1.608-3.328-3.59V14.49c-1.926.333-2.918.925-4.151 1.76l-.047 11.602c0 4.439 3.336 8.035 7.47 8.035h7.282z" style="fill:#19365e;fill-opacity:1;fill-rule:nonzero;stroke:none" transform="matrix(1.33333 0 0 -1.33333 -5.861 65.363)"/><path d="M32.905 42.501c7.374 0 13.376-6.349 13.51-14.236V7.005h-4.011v21.312c0 5.597-4.235 9.831-9.449 9.831h-8.993c-5.204 0-9.502-4.209-9.502-9.806l.03-10.33c-2.493 2.63-4.036 5.965-4.036 10.012 0 8.008 6.046 14.5 13.502 14.5z" style="fill:#19365e;fill-opacity:1;fill-rule:nonzero;stroke:none" transform="matrix(1.33333 0 0 -1.33333 -5.861 65.363)"/></svg>