<?xml version="1.0" encoding="UTF-8" standalone="no"?>
<svg
   width="135.46667mm"
   height="20.375063mm"
   version="1.2"
   id="svg48"
   sodipodi:docname="Decathlon (2024).svg"
   inkscape:version="1.1.1 (3bf5ae0d25, 2021-09-20)"
   xmlns:inkscape="http://www.inkscape.org/namespaces/inkscape"
   xmlns:sodipodi="http://sodipodi.sourceforge.net/DTD/sodipodi-0.dtd"
   xmlns="http://www.w3.org/2000/svg"
   xmlns:svg="http://www.w3.org/2000/svg">
  <sodipodi:namedview
     id="namedview50"
     pagecolor="#ffffff"
     bordercolor="#666666"
     borderopacity="1.0"
     inkscape:pageshadow="2"
     inkscape:pageopacity="0.0"
     inkscape:pagecheckerboard="0"
     inkscape:document-units="mm"
     showgrid="false"
     inkscape:zoom="0.35355339"
     inkscape:cx="420.02143"
     inkscape:cy="360.62446"
     inkscape:window-width="1366"
     inkscape:window-height="715"
     inkscape:window-x="-8"
     inkscape:window-y="-8"
     inkscape:window-maximized="1"
     inkscape:current-layer="svg48" />
  <desc
     id="desc2">Created by EvoPdf</desc>
  <defs
     id="defs4" />
  <g
     fill="none"
     stroke="#000000"
     stroke-width="1"
     fill-rule="evenodd"
     stroke-linecap="square"
     stroke-linejoin="bevel"
     id="g46"
     transform="matrix(0.53859738,0,0,0.53859738,-19.710402,-181.24384)"
     style="fill:#3643ba;fill-opacity:1">
    <g
       fill="#000000"
       fill-opacity="1"
       stroke="#000000"
       stroke-opacity="1"
       stroke-width="1"
       stroke-linecap="square"
       stroke-linejoin="miter"
       stroke-miterlimit="2"
       id="g6"
       style="fill:#3643ba;fill-opacity:1" />
    <g
       fill="#000000"
       fill-opacity="1"
       stroke="#000000"
       stroke-opacity="1"
       stroke-width="1"
       stroke-linecap="square"
       stroke-linejoin="miter"
       stroke-miterlimit="2"
       id="g8"
       style="fill:#3643ba;fill-opacity:1" />
    <g
       fill="#000000"
       fill-opacity="1"
       stroke="#000000"
       stroke-opacity="1"
       stroke-width="1"
       stroke-linecap="square"
       stroke-linejoin="miter"
       stroke-miterlimit="2"
       id="g10"
       style="fill:#3643ba;fill-opacity:1" />
    <g
       fill="#000000"
       fill-opacity="1"
       stroke="#000000"
       stroke-opacity="1"
       stroke-width="1"
       stroke-linecap="square"
       stroke-linejoin="miter"
       stroke-miterlimit="2"
       id="g12"
       style="fill:#3643ba;fill-opacity:1" />
    <g
       fill="#000000"
       fill-opacity="1"
       stroke="#000000"
       stroke-opacity="1"
       stroke-width="1"
       stroke-linecap="square"
       stroke-linejoin="miter"
       stroke-miterlimit="2"
       transform="matrix(1.42979,0,0,1.42979,8,307.915)"
       id="g14"
       style="fill:#3643ba;fill-opacity:1" />
    <g
       fill="#0082c3"
       fill-opacity="1"
       stroke="none"
       transform="matrix(1.42979,0,0,1.42979,8,307.915)"
       id="g18"
       style="fill:#3643ba;fill-opacity:1">
      <path
         vector-effect="none"
         fill-rule="nonzero"
         d="M 107.707,20 C 68.6202,20 20,60.4415 20,93.9589 20,111.269 33.2965,120 50.858,120 c 12.8951,0 28.4998,-4.717 43.5525,-13.798 V 39.3176 c -4.0141,6.8741 -22.8801,34.571 -38.0332,49.3226 -7.727,7.5264 -13.8484,10.7878 -19.1169,10.7878 -5.9207,0 -8.7305,-4.0141 -8.7305,-9.9849 0,-27.0949 45.6096,-62.3182 75.8151,-62.3182 12.444,0 20.472,5.5194 20.472,16.2569 0,9.8344 -6.673,22.1776 -18.063,33.5675 V 97.6718 C 126.623,81.9669 138.515,61.9468 138.515,45.7902 138.515,28.7807 125.268,20 107.707,20 m 115.508,85 h 47.3 V 89.8 h -29.3 V 77.05 h 25.95 V 62.9 h -25.95 V 50.15 h 29.3 V 35 h -47.3 v 70 m 106,-30.15 c -6.85,10.9 -13.5,15.45 -22.05,15.45 -11.1,0 -17.55,-7.8 -17.55,-21.35 0,-12.85 5.95,-19.25 15.1,-19.25 6.05,0 11.05,2.7 12.6,11.7 h 18 c -1.95,-17.15 -12.9,-27.8 -30.4,-27.8 -20.3,0 -33.65,14.35 -33.65,36.35 0,22.15 13.35,36.45 35.3,36.45 14.35,0 24.1,-6 30.55,-14.1 h 24.55 V 105 h 17.9 V 35 h -25.4 l -24.95,39.85 m 32.45,3.4 h -15.85 L 361.665,52.5 V 78.25 M 184.815,35 h -26.3 v 70 h 26.3 c 20.85,0 34.3,-13.75 34.3,-35 0,-21.25 -13.45,-35 -34.3,-35 m -0.25,54.8 h -8.05 V 50.15 h 8.05 c 10.4,0 16.25,7.35 16.25,19.85 0,12.45 -5.85,19.8 -16.25,19.8 m 401.6,-56.2 c -21.15,0 -35.35,14.35 -35.35,36.4 0,22.05 14.2,36.4 35.35,36.4 21.2,0 35.35,-14.35 35.35,-36.4 0,-22.05 -14.15,-36.4 -35.35,-36.4 m 0,56.7 c -10.4,0 -16.95,-6.95 -16.95,-20.3 0,-13.35 6.55,-20.3 16.95,-20.3 10.45,0 16.95,6.95 16.95,20.3 0,13.35 -6.5,20.3 -16.95,20.3 m -202.1,-40.15 h 17.65 V 105 h 18 V 50.15 h 17.65 V 35 h -53.3 V 50.15 M 667.465,35 V 73.55 L 644.265,35 h -18.65 v 70 h 17.4 V 64.85 l 24.15,40.15 h 17.7 V 35 h -17.4 m -142.15,0 h -18 v 70 h 45.15 V 89.85 h -27.15 V 35 m -41.2,26.7 h -24.25 V 35 h -18 v 70 h 18 V 76.8 h 24.25 V 105 h 18 V 35 h -18 v 26.7"
         id="path16"
         style="fill:#3643ba;fill-opacity:1" />
    </g>
    <g
       fill="#000000"
       fill-opacity="1"
       stroke="#000000"
       stroke-opacity="1"
       stroke-width="1"
       stroke-linecap="square"
       stroke-linejoin="miter"
       stroke-miterlimit="2"
       transform="matrix(1.42979,0,0,1.42979,8,307.915)"
       id="g20"
       style="fill:#3643ba;fill-opacity:1" />
    <g
       fill="#000000"
       fill-opacity="1"
       stroke="#000000"
       stroke-opacity="1"
       stroke-width="1"
       stroke-linecap="square"
       stroke-linejoin="miter"
       stroke-miterlimit="2"
       transform="matrix(1.42979,0,0,1.42979,8,307.915)"
       id="g22"
       style="fill:#3643ba;fill-opacity:1" />
    <g
       fill="#000000"
       fill-opacity="1"
       stroke="#000000"
       stroke-opacity="1"
       stroke-width="1"
       stroke-linecap="square"
       stroke-linejoin="miter"
       stroke-miterlimit="2"
       id="g24"
       style="fill:#3643ba;fill-opacity:1" />
    <g
       fill="#000000"
       fill-opacity="1"
       stroke="#000000"
       stroke-opacity="1"
       stroke-width="1"
       stroke-linecap="square"
       stroke-linejoin="miter"
       stroke-miterlimit="2"
       id="g26"
       style="fill:#3643ba;fill-opacity:1" />
    <g
       fill="#000000"
       fill-opacity="1"
       stroke="#000000"
       stroke-opacity="1"
       stroke-width="1"
       stroke-linecap="square"
       stroke-linejoin="miter"
       stroke-miterlimit="2"
       id="g28"
       style="fill:#3643ba;fill-opacity:1" />
    <g
       fill="#000000"
       fill-opacity="1"
       stroke="#000000"
       stroke-opacity="1"
       stroke-width="1"
       stroke-linecap="square"
       stroke-linejoin="miter"
       stroke-miterlimit="2"
       id="g30"
       style="fill:#3643ba;fill-opacity:1" />
    <g
       fill="#000000"
       fill-opacity="1"
       stroke="#000000"
       stroke-opacity="1"
       stroke-width="1"
       stroke-linecap="square"
       stroke-linejoin="miter"
       stroke-miterlimit="2"
       transform="matrix(1.42979,0,0,1.42979,8,307.915)"
       id="g32"
       style="fill:#3643ba;fill-opacity:1" />
    <g
       fill="#000000"
       fill-opacity="1"
       stroke="#000000"
       stroke-opacity="1"
       stroke-width="1"
       stroke-linecap="square"
       stroke-linejoin="miter"
       stroke-miterlimit="2"
       id="g34"
       style="fill:#3643ba;fill-opacity:1" />
    <g
       fill="#000000"
       fill-opacity="1"
       stroke="#000000"
       stroke-opacity="1"
       stroke-width="1"
       stroke-linecap="square"
       stroke-linejoin="miter"
       stroke-miterlimit="2"
       id="g36"
       style="fill:#3643ba;fill-opacity:1" />
    <g
       fill="#000000"
       fill-opacity="1"
       stroke="#000000"
       stroke-opacity="1"
       stroke-width="1"
       stroke-linecap="square"
       stroke-linejoin="miter"
       stroke-miterlimit="2"
       id="g38"
       style="fill:#3643ba;fill-opacity:1" />
    <g
       fill="#000000"
       fill-opacity="1"
       stroke="#000000"
       stroke-opacity="1"
       stroke-width="1"
       stroke-linecap="square"
       stroke-linejoin="miter"
       stroke-miterlimit="2"
       id="g40"
       style="fill:#3643ba;fill-opacity:1" />
    <g
       fill="#000000"
       fill-opacity="1"
       stroke="#000000"
       stroke-opacity="1"
       stroke-width="1"
       stroke-linecap="square"
       stroke-linejoin="miter"
       stroke-miterlimit="2"
       id="g42"
       style="fill:#3643ba;fill-opacity:1" />
    <g
       fill="#000000"
       fill-opacity="1"
       stroke="#000000"
       stroke-opacity="1"
       stroke-width="1"
       stroke-linecap="square"
       stroke-linejoin="miter"
       stroke-miterlimit="2"
       id="g44"
       style="fill:#3643ba;fill-opacity:1" />
  </g>
</svg>
