<svg width="190" height="64" viewBox="0 0 190 64" fill="none" xmlns="http://www.w3.org/2000/svg">
<path fill-rule="evenodd" clip-rule="evenodd" d="M80.4781 5.76948H115.144C116.735 5.76948 118.026 4.4781 118.026 2.8872C118.026 1.29138 116.735 0 115.144 0H80.4781C78.8872 0 77.5958 1.29138 77.5958 2.8872C77.5958 4.4781 78.8872 5.76948 80.4781 5.76948ZM124.67 16.5768H90.0039C88.413 16.5768 87.1216 15.2854 87.1216 13.6945C87.1216 12.1036 88.413 10.8073 90.0039 10.8073H124.67C126.261 10.8073 127.552 12.0987 127.552 13.6945C127.552 15.2854 126.261 16.5768 124.67 16.5768ZM74.8658 27.3891H109.532C111.128 27.3891 112.419 26.0977 112.414 24.5068C112.414 22.911 111.123 21.6196 109.532 21.6196H74.8658C73.2749 21.6196 71.9835 22.9159 71.9835 24.5068C71.9835 26.0977 73.2749 27.3891 74.8658 27.3891ZM148.421 49.0676C147.925 48.8368 147.404 48.6404 146.874 48.4882C146.343 48.3311 145.808 48.2132 145.278 48.1248C144.748 48.0414 144.247 47.9972 143.78 47.9972C142.577 47.9972 141.59 48.1641 140.82 48.498C140.044 48.8319 139.661 49.3278 139.661 49.9809C139.661 50.5308 139.96 50.958 140.559 51.2674C141.158 51.5767 141.914 51.8468 142.823 52.0775C143.731 52.3083 144.713 52.5391 145.769 52.76C146.825 52.981 147.807 53.2953 148.715 53.7028C149.624 54.1054 150.38 54.6357 150.979 55.2888C151.578 55.9419 151.877 56.8011 151.877 57.8667C151.877 58.7603 151.656 59.5558 151.219 60.2481C150.782 60.9453 150.183 61.5346 149.417 62.0256C148.651 62.5166 147.763 62.8898 146.751 63.1451C145.735 63.4004 144.664 63.533 143.53 63.533C142.862 63.533 142.135 63.479 141.355 63.3661C140.574 63.2531 139.793 63.0862 139.008 62.8652C138.227 62.6394 137.466 62.3693 136.729 62.055C135.993 61.7359 135.32 61.3725 134.721 60.9601L136.68 58.0483C137.127 58.392 137.633 58.7063 138.202 58.9862C138.767 59.271 139.366 59.5116 139.995 59.708C140.618 59.9044 141.266 60.0566 141.924 60.1597C142.587 60.2628 143.235 60.3119 143.869 60.3119C144.33 60.3119 144.807 60.2776 145.288 60.2088C145.769 60.1401 146.201 60.0222 146.589 59.8602C146.977 59.6982 147.291 59.487 147.542 59.2268C147.792 58.9715 147.915 58.6523 147.915 58.2742C147.915 57.6752 147.615 57.2087 147.016 56.8846C146.417 56.5605 145.656 56.2856 144.748 56.0744C143.834 55.8584 142.857 55.6472 141.811 55.4312C140.761 55.2151 139.783 54.9254 138.875 54.5523C137.967 54.184 137.206 53.6832 136.607 53.0547C136.003 52.4311 135.703 51.5914 135.703 50.5406C135.703 49.701 135.914 48.9252 136.337 48.223C136.759 47.5209 137.338 46.9071 138.075 46.3915C138.811 45.876 139.671 45.4782 140.657 45.1934C141.644 44.9086 142.715 44.7663 143.869 44.7663C144.487 44.7663 145.15 44.8203 145.867 44.9234C146.579 45.0265 147.291 45.1738 147.993 45.3604C148.695 45.5519 149.368 45.7778 150.002 46.0429C150.635 46.3081 151.205 46.6076 151.701 46.9316L149.741 49.8434C149.358 49.5635 148.921 49.3033 148.421 49.0676ZM65.4186 47.3834L63.4594 50.2951C62.6345 49.539 61.6966 49.0037 60.636 48.6846C59.5803 48.3654 58.559 48.2083 57.5819 48.2083C56.5704 48.2083 55.6374 48.3507 54.7831 48.6355C53.9336 48.9203 53.1971 49.318 52.5784 49.8336C51.9597 50.3491 51.4785 50.9776 51.1348 51.7142C50.7911 52.4556 50.6192 53.2707 50.6192 54.1595C50.6192 55.0678 50.7911 55.8928 51.1348 56.6195C51.4785 57.3511 51.9597 57.9747 52.5784 58.4853C53.1971 59.0009 53.9287 59.3986 54.7831 59.6834C55.6374 59.9682 56.5655 60.1057 57.5819 60.1057C58.7652 60.1057 59.8357 59.924 60.7882 59.5656C61.7408 59.2071 62.6983 58.6621 63.6607 57.9403L65.5659 60.7735C64.5347 61.6671 63.3268 62.3497 61.947 62.821C60.5624 63.2924 59.109 63.533 57.577 63.533C55.8731 63.533 54.351 63.2875 53.0007 62.7965C51.6504 62.3055 50.5063 61.6377 49.5635 60.7882C48.6208 59.9388 47.899 58.942 47.3981 57.7979C46.8973 56.6538 46.6469 55.441 46.6469 54.1496C46.6469 52.8632 46.8973 51.6454 47.3981 50.5063C47.899 49.3622 48.6208 48.3654 49.5635 47.516C50.5063 46.6665 51.6504 45.9938 53.0007 45.5077C54.351 45.0167 55.8731 44.7712 57.577 44.7712C59.2415 44.7712 60.7293 45.0019 62.0354 45.4684C63.3465 45.9398 64.4709 46.5732 65.4186 47.3834ZM43.2588 57.8078C43.7548 56.6637 44.0052 55.446 44.0052 54.1595C44.0052 52.8681 43.7548 51.6553 43.2588 50.5161C42.7629 49.3721 42.0411 48.3753 41.1082 47.5258C40.1703 46.6764 39.0311 46.0086 37.6808 45.5176C36.3305 45.0266 34.8035 44.781 33.1045 44.781C31.4007 44.781 29.8785 45.0266 28.5282 45.5176C27.1779 46.0037 26.0339 46.6764 25.1009 47.5258C24.1631 48.3753 23.4462 49.3721 22.9502 50.5161C22.4543 51.6553 22.2039 52.8681 22.2039 54.1595C22.2039 55.4509 22.4494 56.6637 22.9502 57.8078C23.4462 58.9519 24.1631 59.9486 25.1009 60.7981C26.0388 61.6476 27.1779 62.3154 28.5282 62.8064C29.8785 63.2974 31.4007 63.5429 33.1045 63.5429C34.8084 63.5429 36.3305 63.2974 37.6808 62.8064C39.0311 62.3203 40.1703 61.6476 41.1082 60.7981C42.0411 59.9486 42.758 58.9519 43.2588 57.8078ZM30.3303 48.6355C31.1797 48.3508 32.1078 48.2084 33.1193 48.2084C34.1259 48.2084 35.0588 48.3458 35.9132 48.6355C36.7626 48.9203 37.4893 49.3181 38.0982 49.8336C38.7022 50.3492 39.1785 50.9777 39.5222 51.7142C39.8659 52.4508 40.0377 53.2659 40.0377 54.1595C40.0377 55.0679 39.8659 55.8879 39.5222 56.6195C39.1834 57.3511 38.7071 57.9747 38.0982 58.4903C37.4893 59.0059 36.7626 59.4036 35.9132 59.6884C35.0637 59.9732 34.1308 60.1156 33.1193 60.1156C32.1078 60.1156 31.1797 59.9732 30.3303 59.6884C29.4808 59.4036 28.7492 59.0059 28.1305 58.4903C27.5167 57.9698 27.0355 57.3511 26.6918 56.6195C26.3481 55.8879 26.1762 55.0728 26.1762 54.1595C26.1762 53.2708 26.3481 52.4508 26.6918 51.7142C27.0306 50.9777 27.5118 50.3492 28.1305 49.8336C28.7492 49.3181 29.4808 48.9203 30.3303 48.6355ZM18.8944 57.4837C19.2922 56.4182 19.4886 55.3134 19.4886 54.1595C19.4886 53.0105 19.2922 51.9008 18.8944 50.8402C18.5016 49.7747 17.932 48.8761 17.1955 48.1347C16.6063 47.5504 15.9876 47.0643 15.3247 46.6665C14.6618 46.2688 13.94 45.9497 13.1593 45.6992C12.3786 45.4488 11.5291 45.272 10.6208 45.1689C9.70746 45.0658 8.71069 45.0118 7.63045 45.0118C6.42745 45.0118 5.19008 45.0265 3.91834 45.0511C2.6466 45.0756 1.34048 45.1051 0 45.1395V63.1795L0.362221 63.1888L0.363394 63.1889C1.5768 63.2201 2.76178 63.2505 3.91834 63.2728C5.19008 63.2974 6.42745 63.3121 7.63045 63.3121C8.7156 63.3121 9.71237 63.2581 10.6208 63.155C11.5291 63.0519 12.3737 62.88 13.1593 62.6394C13.94 62.3988 14.6618 62.0796 15.3247 61.6868C15.9876 61.2891 16.6112 60.7932 17.1955 60.1892C17.932 59.4527 18.5016 58.5492 18.8944 57.4837ZM13.999 50.1921C15.0154 51.2085 15.5211 52.5244 15.5211 54.1448C15.5211 55.7651 15.0154 57.0811 13.999 58.0877C13.5865 58.505 13.1446 58.8193 12.6732 59.0451C12.2018 59.2661 11.6961 59.4429 11.1658 59.5607C10.6355 59.6835 10.0659 59.7571 9.46686 59.7817C8.8629 59.8062 8.23931 59.821 7.58625 59.821C6.94793 59.821 6.32924 59.8161 5.7302 59.8062L5.62854 59.8046H5.62844H5.62835H5.62827H5.6282H5.62813H5.62806H5.628H5.62794H5.62788H5.62783C5.05425 59.7953 4.45031 59.7855 3.82013 59.7669V48.5079C4.49283 48.4931 5.12625 48.4833 5.7302 48.4833H7.58625C8.23931 48.4833 8.8629 48.498 9.46686 48.5226C10.0659 48.5471 10.6355 48.6159 11.1658 48.7288C11.6961 48.8418 12.2018 49.0087 12.6732 49.2346C13.1446 49.4604 13.5865 49.7796 13.999 50.1921ZM86.7533 63.1795H89.0218L79.5648 44.9627H75.8527L66.3957 63.1795H70.4908L72.1406 59.9093H83.2229L84.308 62.0207C84.4455 62.2957 84.583 62.5117 84.7205 62.6639C84.858 62.821 85.0151 62.934 85.1968 63.0125C85.3785 63.0911 85.5896 63.1402 85.84 63.1549C86.0855 63.1697 86.39 63.1795 86.7533 63.1795ZM77.6842 48.9252L81.4994 56.5016H73.869L77.6842 48.9252ZM95.4199 57.793V63.1795H91.6046V45.1395C92.567 45.1051 93.6227 45.0756 94.7766 45.0511C95.9305 45.0265 97.05 45.0118 98.1303 45.0118C101.469 45.0118 104.008 45.4979 105.741 46.4701C107.479 47.4424 108.348 49.0578 108.348 51.3263C108.348 52.5981 108.098 53.6488 107.602 54.4836C107.101 55.3183 106.409 55.9812 105.525 56.482C104.636 56.978 103.586 57.3266 102.373 57.523C101.16 57.7194 99.8292 57.8225 98.3856 57.8225C97.9928 57.8225 97.5116 57.8176 96.9518 57.8078C96.397 57.798 95.8863 57.793 95.4199 57.793ZM95.4199 54.3117C95.8814 54.3117 96.3528 54.3166 96.8389 54.3265C97.3201 54.3363 97.7571 54.3412 98.1548 54.3412C98.7195 54.3412 99.2744 54.3363 99.8145 54.3265C100.355 54.3166 100.86 54.2773 101.337 54.2086C101.808 54.1399 102.24 54.0318 102.638 53.8845C103.031 53.7372 103.369 53.5261 103.644 53.2511C103.885 52.9909 104.072 52.7061 104.199 52.3967C104.327 52.0874 104.391 51.7142 104.391 51.2821C104.391 50.9875 104.337 50.6929 104.224 50.3885C104.111 50.084 103.959 49.8434 103.772 49.6519C103.517 49.3917 103.212 49.1855 102.869 49.0283C102.525 48.8712 102.127 48.7583 101.671 48.6797C101.214 48.6012 100.698 48.5521 100.124 48.5226C99.5493 48.498 98.8914 48.4833 98.1548 48.4833H96.8389C96.3577 48.4833 95.8863 48.4931 95.4199 48.5079V54.3117ZM131.75 57.8078C132.246 56.6637 132.497 55.446 132.497 54.1595C132.497 52.8681 132.251 51.6553 131.75 50.5161C131.25 49.3721 130.533 48.3753 129.6 47.5258C128.662 46.6764 127.518 46.0086 126.172 45.5176C124.822 45.0266 123.295 44.781 121.596 44.781C119.892 44.781 118.37 45.0266 117.02 45.5176C115.67 46.0037 114.525 46.6764 113.593 47.5258C112.655 48.3753 111.938 49.3721 111.442 50.5161C110.946 51.6553 110.695 52.8681 110.695 54.1595C110.695 55.4509 110.941 56.6637 111.442 57.8078C111.938 58.9519 112.655 59.9486 113.593 60.7981C114.53 61.6476 115.67 62.3154 117.02 62.8064C118.37 63.2974 119.892 63.5429 121.596 63.5429C123.3 63.5429 124.822 63.2974 126.172 62.8064C127.523 62.3203 128.662 61.6476 129.6 60.7981C130.533 59.9486 131.25 58.9519 131.75 57.8078ZM118.822 48.6355C119.671 48.3508 120.599 48.2084 121.611 48.2084C122.622 48.2084 123.555 48.3458 124.4 48.6355C125.249 48.9203 125.976 49.3181 126.585 49.8336C127.189 50.3492 127.665 50.9777 128.009 51.7142C128.353 52.4508 128.524 53.2659 128.524 54.1595C128.524 55.0679 128.353 55.8879 128.009 56.6195C127.67 57.3511 127.194 57.9747 126.585 58.4903C125.976 59.0059 125.249 59.4036 124.4 59.6884C123.555 59.9732 122.622 60.1156 121.611 60.1156C120.599 60.1156 119.671 59.9732 118.822 59.6884C117.972 59.4036 117.241 59.0059 116.622 58.4903C116.008 57.9698 115.527 57.3511 115.183 56.6195C114.84 55.8879 114.668 55.0728 114.668 54.1595C114.668 53.2708 114.84 52.4508 115.183 51.7142C115.522 50.9777 116.003 50.3492 116.622 49.8336C117.241 49.3181 117.972 48.9203 118.822 48.6355ZM164.462 48.6159H171.346V45.1394H153.768V48.6159H160.652V63.1795H164.462V48.6159ZM189.666 45.1394V48.6208H177.813V52.2298H188.689V55.7111H177.813V59.7031H190V63.1844H175.314C174.882 63.1844 174.557 63.0666 174.336 62.826C174.111 62.5854 174.003 62.276 174.003 61.8979V45.1394H189.666Z" fill="#0000FF"/>
</svg>
