<svg version="1.1" id="Layer_1" xmlns:x="ns_extend;" xmlns:i="ns_ai;" xmlns:graph="ns_graphs;" xmlns="http://www.w3.org/2000/svg" xmlns:xlink="http://www.w3.org/1999/xlink" x="0px" y="0px" viewBox="0 0 129 45.8" style="enable-background:new 0 0 129 45.8;" xml:space="preserve">
 <style type="text/css">
  .st0{fill:#00AAFF;}
 </style>
 <metadata>
  <sfw xmlns="ns_sfw;">
   <slices>
   </slices>
   <sliceSourceBounds bottomLeftOrigin="true" height="45.8" width="129" x="135.5" y="-222.9">
   </sliceSourceBounds>
  </sfw>
 </metadata>
 <g>
  <path class="st0" d="M129,18.5C111.7,7,89.2,0,64.5,0C39.8,0,17.3,7,0,18.5c17.2-5.7,37.3-9.3,64.5-9.3
		C91.7,9.3,111.8,12.8,129,18.5">
  </path>
  <path class="st0" d="M54.6,24.5c-1.3,0-1.9,1-2.1,2.3c-0.2,1.4-0.9,6.2-1.1,7.4c-0.1,0.7-0.2,1.5-0.9,1.8c-0.7,0.3-1.6-0.2-2.3-0.8
		c-0.7-0.6-11.7-9.9-11.7-9.9c-0.6-0.5-1.4-0.8-2.2-0.8c-1.6,0-3.2,1-3.2,3.5v15.5c0,1.2,0.9,2,1.9,2c1.1,0,1.9-0.7,2-1.8
		c0,0,1.2-7.4,1.3-8.2c0.2-1,0.3-1.7,1.2-2c0.8-0.3,1.6,0.2,2.8,1.3c1.2,1,11,9.9,11,9.9c0.8,0.6,1.3,0.9,2.4,0.9
		c1,0,2.7-0.4,2.7-3.3V26.7C56.6,25.3,55.7,24.5,54.6,24.5">
  </path>
  <path class="st0" d="M124.9,41c-8.6,1.8-18.4-0.1-18.4-6.2c0-4.6,4.2-6.4,7.6-6.7c3.5-0.3,6.3,0.5,7.7,1.9c0.9,0.9,0.6,2.2-1.1,2.3
		c-1.6,0.1-4.6,0.2-7.1,0.3c-1.4,0.1-2.2,0.8-2.2,1.8c0,0.8,0.6,1.7,2.2,1.7c2.3,0,8.3,0,11.2,0.1c1.9,0,2.9-1.1,2.9-3.3
		c0-3.5-3.2-8.9-12.6-8.9c-8.5,0-14.6,4.2-14.6,11.2c0,9.8,14.4,12.8,25,9.2c1-0.3,1.9-1.1,1.6-2.2C127,41.1,126.1,40.8,124.9,41">
  </path>
  <path class="st0" d="M25.5,41C17,42.9,7.2,40.9,7.2,34.8c0-4.6,4.2-6.4,7.6-6.7c3.5-0.3,6.3,0.5,7.7,1.9c0.9,0.9,0.6,2.2-1.1,2.3
		c-1.6,0.1-4.6,0.2-7.1,0.3c-1.4,0.1-2.2,0.8-2.2,1.8c0,0.8,0.6,1.7,2.2,1.7c2.3,0,8.3,0,11.2,0.1c1.9,0,2.9-1.1,2.9-3.3
		c0-3.5-3.2-8.9-12.6-8.9C7.3,24,1.2,28.2,1.2,35.2c0,9.8,14.4,12.8,25,9.2c1-0.3,1.9-1.1,1.6-2.2C27.6,41.1,26.8,40.8,25.5,41">
  </path>
  <path class="st0" d="M91.9,31.6c0.2,5.4,0.7,9.8,0.8,11.3c0.2,2,1.2,2.6,2.3,2.6c1,0,2.1-0.5,2.2-2.6c0.2-1.7,0.7-7,0.9-12.2
		c0-0.3-0.2-0.4-0.4-0.4l-5.6,0.9C92,31.3,91.9,31.4,91.9,31.6">
  </path>
  <path class="st0" d="M95,24c-2.6,0-3.3,2-3.3,3.2c0,0.2,0,0.9,0.1,1.6c0,0.2,0.2,0.3,0.4,0.3l5.8-0.9c0.2,0,0.3-0.2,0.3-0.3
		c0-0.3,0-0.6,0-0.7C98.3,26.1,97.6,24,95,24">
  </path>
  <path class="st0" d="M86.4,32.5c-1.9,0-7.9,0-11.8,0.1c-1.9,0-2.3,1-2.3,1.8c0,0.7,0.5,1.6,2.2,1.7c2.6,0.1,6,0.3,7.6,0.4
		c2.1,0.1,2.1,1.2,1.4,2.1c-1.4,1.8-4.9,3.1-8.4,3.1c-4.7,0-9.8-2.7-9.8-6.9c0-4,4.4-8.3,17.5-6.5c1.1,0.2,2.3,0,2.6-1.1
		c0.3-1.1-0.4-1.9-1.9-2.3c-3-0.8-5.7-1-8.3-1c-8.8,0-15.9,4.2-15.9,11c0,7.3,7,10.8,15.8,10.8c9.8,0,14.6-5.3,14.6-10
		C89.7,33.4,88.5,32.5,86.4,32.5">
  </path>
 </g>
</svg>