<svg version="1.1" id="Layer_1" xmlns:x="ns_extend;" xmlns:i="ns_ai;" xmlns:graph="ns_graphs;" xmlns="http://www.w3.org/2000/svg" xmlns:xlink="http://www.w3.org/1999/xlink" x="0px" y="0px" viewBox="0 0 448.1 82" style="enable-background:new 0 0 448.1 82;" xml:space="preserve">
 <style type="text/css">
  .st0{fill:#0F5FDC;}
 </style>
 <metadata>
  <sfw xmlns="ns_sfw;">
   <slices>
   </slices>
   <sliceSourceBounds bottomLeftOrigin="true" height="82" width="448.1" x="-147.5" y="-27">
   </sliceSourceBounds>
  </sfw>
 </metadata>
 <g>
  <g>
   <g>
    <path class="st0" d="M62.4,0.9v80H45.1V47.4H17.1v33.5H0v-80h17.1v31.8h27.9V0.9H62.4z">
    </path>
    <path class="st0" d="M71.7,40.9C71.7,13.9,89.1,0,109,0c18.7,0,32.4,11.4,34.4,28.7h-16.7c-1.1-8.3-8.4-13.9-17.8-13.9
				c-12,0-21.3,9-21.3,26.2c0,17.1,9.3,26,21.3,26c9.6,0,16.9-5.6,18.2-13.8h15.9C141.7,70.2,128,81.8,109,81.8
				C88.8,81.8,71.7,67.8,71.7,40.9L71.7,40.9z">
    </path>
    <path class="st0" d="M229.2,15.9h-23.7V1.1H270v14.7h-23.7v65.2h-17.1L229.2,15.9L229.2,15.9z">
    </path>
    <path class="st0" d="M319,61.6C316.7,74,305.8,82,291.6,82C272,82,262,66.7,262,52.2s8.9-29.6,28.5-29.6
				c19.5,0,28.5,15,28.5,28.1c0,2.2-0.1,3.9-0.2,5.1h-41.4c1.1,8.1,6.3,13.1,14.3,13.1c6.4,0,10.6-2.5,11.9-7.4L319,61.6L319,61.6z
				 M277.5,45.8H303c-0.5-6.4-4.9-11.5-12.6-11.5C283.2,34.3,278.9,37.8,277.5,45.8z">
    </path>
    <path class="st0" d="M326.4,52.3c0-16.8,11.9-29.7,29.7-29.7c15.1,0,27.1,9.1,28.1,22.5h-16c-0.9-5.1-5.8-8.9-11.7-8.9
				c-8.6,0-13.6,6.7-13.6,16.1s5.1,16,13.8,16c5.8,0,10.5-3.5,11.7-8.7h16.2C383,72.4,371.1,82,356.1,82
				C338.3,82,326.4,69.1,326.4,52.3L326.4,52.3z">
    </path>
    <path class="st0" d="M393.2,1h15.9v30.5c3.3-5.6,9.6-8.9,17.6-8.9c12.9,0,21.4,9.4,21.4,22.6v35.9h-15.9V48.8c0-7-4.6-12-11.2-12
				c-7,0-11.9,5.4-11.9,12.8v31.5h-15.9V1z">
    </path>
    <path class="st0" d="M170.7,66V0.9h-17.1v64.7c0,9.9,5.4,15.3,15.3,15.3h36.6V66H170.7z">
    </path>
   </g>
  </g>
 </g>
</svg>