<svg xmlns:dc="http://purl.org/dc/elements/1.1/" xmlns:cc="http://creativecommons.org/ns#" xmlns:rdf="http://www.w3.org/1999/02/22-rdf-syntax-ns#" xmlns:svg="http://www.w3.org/2000/svg" xmlns="http://www.w3.org/2000/svg" viewBox="0 0 572.37335 290.90668" height="290.90668" width="572.37335" xml:space="preserve" id="svg2" version="1.1" xmlns:xlink="http://www.w3.org/1999/xlink">
 <metadata id="metadata8">
  <rdf:RDF>
   <cc:Work rdf:about="">
    <dc:format>
     image/svg+xml
    </dc:format>
    <dc:type rdf:resource="http://purl.org/dc/dcmitype/StillImage">
    </dc:type>
   </cc:Work>
  </rdf:RDF>
 </metadata>
 <defs id="defs6">
 </defs>
 <g transform="matrix(1.3333333,0,0,-1.3333333,0,290.90667)" id="g10">
  <g transform="scale(0.1)" id="g12">
   <path id="path14" style="fill:#287ac8;fill-opacity:1;fill-rule:nonzero;stroke:none" d="m 3874.99,352.859 v -143.48 c 0,-35.457 10.39,-51.25 33.74,-51.25 12.39,0 21.15,1.769 26.38,3.293 l 0.96,0.238 v -0.851 l 2.12,-37.071 -0.5,-0.25 c -9.82,-4.289 -24.47,-6.629 -40.97,-6.629 -21.62,0 -38.99,7.09 -50.28,20.723 -12.1,13.457 -17.87,35.789 -17.87,70.117 v 145.16 h -39.19 v 38.481 h 39.19 v 64.012 l 0.65,0.089 45.77,13.008 V 391.34 h 65.83 v -38.481 z m -114.62,-230.48 h -54.03 l -0.26,0.262 -37.07,60.347 c -9.61,15.094 -17.96,29.832 -26.98,46.024 h -0.05 c -6.28,-12.051 -12.9,-23.082 -19.83,-34.891 -2.19,-3.641 -4.37,-7.332 -6.49,-11.133 l -36.91,-60.609 h -52.36 l 90.23,137.211 -86.12,131.75 h 52.95 l 36.22,-57.758 c 9.41,-15.043 17.46,-29.023 25.4,-43.301 h 0.66 c 6.69,12.809 13.42,24.36 20,35.5 1.67,2.778 3.28,5.559 4.91,8.301 l 35.7,57.258 h 51.49 l -0.81,-1.121 -85.98,-128.899 z M 3332.41,283.59 c 3.34,29.269 21.78,77.59 69.63,77.59 17.32,0 31.4,-5.481 42.02,-16.371 19.49,-19.75 20.9,-50.938 20.86,-61.219 z m 157.06,68.969 c -18.63,29.773 -46.77,44.863 -83.84,44.863 -70.24,0 -119.18,-59.59 -119.18,-145.024 0,-40.199 11.44,-74.117 33.11,-98.117 22.07,-24.551 53.87,-37.422 91.85,-37.422 40.89,0 68.44,8.922 84.34,16.653 l 0.56,0.199 -8,35.461 -0.14,0.898 -0.91,-0.398 C 3471.36,162.582 3451.9,156 3417.63,156 c -52.61,0 -84.65,34.031 -85.77,91.301 h 177.26 l 0.41,2.828 c 0.51,5.012 1.27,11.992 1.27,20.562 0,14.321 -2.13,50.84 -21.33,81.868 z m -244.81,-69.77 v -160.41 h -47.38 v 154.992 c 0,68.039 -36.11,78.231 -57.83,78.231 -23.18,0 -50.97,-15.243 -60.81,-49.161 -1.92,-5.832 -3.08,-13.929 -3.08,-22.492 v -161.57 h -47.45 V 318.18 c 0,30.082 -0.61,51.742 -2.08,72.402 l -0.04,0.758 h 42.22 l 0.1,-0.699 2.54,-43.192 c 12.26,24.352 40.61,49.973 83.85,49.973 15.03,0 89.96,-5.41 89.96,-114.633 z m -371.59,112.82 v -47.347 l -0.85,0.148 c -4.96,1.199 -9.57,1.672 -15.55,1.672 -30.49,0 -54.39,-24.301 -60.81,-61.82 -1.07,-6.942 -2.08,-14.383 -2.08,-22.532 V 122.379 h -46.93 v 184.75 c 0,34.75 -0.61,60.531 -2.12,83.453 v 0.758 h 41.76 v -0.699 l 1.57,-51.762 h 0.71 c 11.58,35.601 39.24,58.543 70.48,58.543 5.01,0 8.72,-0.453 13.32,-1.621 z m -178.32,-273.23 h -42.24 l -0.15,0.711 -2.38,42.73 c -8.81,-15.449 -33.82,-49.511 -83.95,-49.511 -16.6,0 -40.36,4.062 -58.99,23.55 -19.29,20.039 -28.91,51.743 -28.91,94.36 V 391.34 h 47.5 V 242.531 c 0,-56.761 18.17,-84.402 55.6,-84.402 31.59,0 51.99,23.59 59.79,43.742 2.73,7.301 4.05,16.109 4.05,24.609 v 164.86 h 47.49 V 196.051 c 0,-30.629 0.71,-53.77 2.08,-72.91 z m -382.8,31.902 c -44.09,0 -76.04,42.93 -76.04,102.028 0,51.339 23.84,103.14 76.96,103.14 51.65,0 74.98,-52.918 74.98,-102.019 0,-59.7 -31.95,-103.149 -75.9,-103.149 z m 90.59,204.821 c -22.07,25.148 -52.75,38.32 -88.51,38.32 -35.18,0 -66.82,-13.301 -89.52,-37.672 -23.84,-25.719 -36.51,-62.121 -36.51,-105.07 0,-81.571 50.09,-138.371 121.83,-138.371 33.01,0 63.6,12.101 86.38,34.062 26.23,25.629 40.16,63.211 40.16,108.719 0,40.308 -11.6,74.941 -33.83,100.012 z m -223.56,32.238 -0.44,-1 -68.91,-190.602 C 2074.49,101.582 2052.57,59.2305 2022.79,31.9609 2002.18,12.5508 1980.01,2.92969 1966.04,0.25 l -0.66,-0.25 -0.21,0.769531 -11.64,41.562469 0.65,0.3086 c 6.53,2.1289 23.55,8.9688 39.91,23.5508 15.33,12.8086 29.71,33 38.42,53.9106 2.18,5.07 3.7,8.66 3.7,11.289 0,2.539 -0.92,6.039 -3.14,12.558 L 1939.3,391.34 h 51.74 l 0.21,-0.5 55.29,-158.07 c 5.87,-18.29 12.05,-38.801 15.95,-53.891 1.47,5.32 3.19,11.051 4.91,17.082 3.23,11.84 6.94,25.258 11.04,37.859 l 50.33,157.52 z M 1628.61,283.59 c 3.45,29.269 21.72,77.59 69.63,77.59 17.31,0 31.48,-5.481 42.07,-16.371 19.44,-19.75 20.96,-50.938 20.8,-61.219 z m 156.97,68.969 c -18.49,29.773 -46.63,44.863 -83.65,44.863 -70.23,0 -119.29,-59.59 -119.29,-145.024 0,-40.199 11.49,-74.117 33.16,-98.117 22.13,-24.551 53.83,-37.422 91.81,-37.422 40.9,0 68.49,8.922 84.35,16.653 l 0.6,0.199 -7.99,35.461 -0.2,0.898 -0.82,-0.398 C 1767.7,162.582 1748.21,156 1713.82,156 c -52.6,0 -84.6,34.031 -85.77,91.301 h 177.32 l 0.36,2.828 c 0.55,5.012 1.31,11.992 1.31,20.562 0,14.321 -2.03,50.84 -21.46,81.868 z m -289.58,0.3 v -143.48 c 0,-35.457 10.44,-51.25 33.67,-51.25 12.36,0 21.22,1.769 26.38,3.293 l 1.02,0.238 v -0.851 l 2.17,-37.071 -0.5,-0.25 c -9.98,-4.289 -24.51,-6.629 -41.12,-6.629 -21.62,0 -38.88,7.09 -50.12,20.723 -12.25,13.457 -17.83,35.789 -17.83,70.117 v 145.16 h -39.24 v 38.481 h 39.24 v 64.012 l 0.46,0.089 45.87,13.008 V 391.34 h 65.78 V 352.859 Z M 1269.83,153.77 c -20.51,0 -42.59,11.96 -42.59,45.57 0,15 4.82,27.289 14.43,36.621 15.6,15.269 43.91,22.988 84.41,22.988 2.23,0 4.4,0 6.68,-0.117 V 213.16 c 0,-4.488 -0.9,-9.871 -2.62,-15.191 -6.64,-20.457 -26.39,-44.199 -60.31,-44.199 z m 112.96,-30.52 c -2.74,16.391 -4.16,37.309 -4.16,63.988 v 100.063 c 0,90.98 -52.6,110.121 -96.86,110.121 -30.93,0 -61.31,-8.613 -83.33,-23.852 l -0.52,-0.289 10.54,-32.672 0.4,-0.859 0.81,0.5 c 18.08,12.41 42.53,19.762 65.37,19.762 25.77,0 56.56,-10.641 56.56,-61.172 v -4.758 h -1.37 c -57.57,0 -101.11,-12.91 -125.82,-37.523 -16.36,-16.188 -24.61,-37.321 -24.61,-62.629 0,-37.52 24.51,-77.621 77.98,-77.621 31.8,0 60.81,14.839 77.72,39.742 h 0.51 l 3.54,-33.672 h 43.39 z m -359.85,38.68 c -44.76,0 -73.831,37.57 -73.831,95.5 0,60.031 29.985,100.3 74.491,100.3 35.59,0 56.16,-26.23 63.39,-50.839 2.28,-7.141 2.68,-15.102 2.68,-21.879 V 237.02 c 0,-9.258 -1.42,-18.379 -3.7,-25.719 -9.56,-29.942 -34.22,-49.371 -63.03,-49.371 z m 73.92,229.41 -2.02,-39.942 c -9.01,17.512 -30.94,46.024 -79.19,46.024 -29.873,0 -58.021,-13.172 -79.197,-37.274 -23.086,-26.367 -35.39,-62.777 -35.39,-105.468 0,-36.2 10.941,-69.41 30.585,-93.508 19.852,-24.262 47.493,-37.723 77.772,-37.723 34.94,0 64.3,16.192 80.76,44.449 v -28.757 c 0,-76.6019 -43.9,-92.6019 -80.76,-92.6019 -37.975,0 -64.154,14.5312 -73.615,20.8125 l -0.867,0.5976 -11.797,-38.0195 -0.203,-0.5703 0.46,-0.2891 c 19.383,-13.7187 51.739,-22.23046 84.452,-22.23046 27.39,0 65.42,5.58206 92.45,32.28906 25.02,23.7109 36.26,61.5821 36.26,122.6911 v 155.301 c 0,32.41 0.96,54.027 2.02,73.461 l 0.16,0.758 z m -238.532,0 V 122.379 H 810.883 V 391.34 Z m 5.27,74.441 c 0.203,-8.551 -2.582,-16.222 -8.051,-21.922 -5.469,-5.718 -13.067,-8.609 -21.926,-8.609 -16.254,0 -28.504,13.051 -28.504,30.531 0,17.77 12.656,31.141 29.516,31.141 16.969,0 28.965,-12.774 28.965,-31.141 z m -95.039,-74.441 -0.457,-1 -99.391,-267.961 H 623.75 l -0.102,0.512 -96.402,268.449 h 50.734 l 0.145,-0.5 49.52,-150.281 c 9.015,-26.379 15.5,-48 20.304,-68.059 h 0.25 c 5.477,20.871 12.309,41.48 21.371,68.059 L 718.738,391.34 Z M 398.328,153.77 c -20.555,0 -42.527,11.96 -42.527,45.57 0,15 4.808,27.289 14.426,36.621 15.593,15.269 44.003,22.988 84.406,22.988 2.125,0 4.461,0 6.637,-0.117 V 213.16 c 0,-4.488 -0.915,-9.871 -2.637,-15.191 -6.481,-20.457 -26.278,-44.199 -60.305,-44.199 z m 113.063,-30.52 c -2.883,16.391 -4.246,37.309 -4.246,63.988 v 100.063 c 0,90.98 -52.559,110.121 -96.762,110.121 -30.891,0 -61.32,-8.613 -83.445,-23.852 l -0.458,-0.34 10.633,-32.621 0.254,-0.859 0.91,0.5 c 18.129,12.41 42.481,19.762 65.321,19.762 37.164,0 56.656,-21.172 56.656,-61.172 v -4.758 h -1.371 c -57.711,0 -101.211,-12.91 -125.918,-37.523 -16.254,-16.188 -24.606,-37.321 -24.606,-62.629 0,-37.52 24.407,-77.621 77.969,-77.621 31.699,0 60.762,14.839 77.676,39.742 h 0.453 l 3.691,-33.672 h 43.344 z M 265.621,496.398 V 122.379 H 218.43 l -0.246,0.363 -111.598,188.996 C 77.3203,361.211 56.5039,400.551 41.0117,435.5 l -0.3515,-0.148 c 2.582,-46.332 3.6445,-90.793 3.6445,-153.012 V 122.379 H 0 v 374.019 h 50.7813 l 0.1562,-0.347 112.7575,-188.5 c 25.465,-42.481 45.922,-81.68 62.735,-120 -4.258,51.39 -5.117,98.031 -5.117,152.25 V 496.398 Z M 4162.75,1921.68 c 71.39,0 130.02,58.12 130.02,130.13 0,71.39 -58.63,130.02 -130.02,130.02 -71.34,0 -130.13,-58.63 -130.13,-130.02 0,-72.01 58.79,-130.13 130.13,-130.13 m -110.74,130.13 c 0,60.86 49.84,110.68 110.74,110.68 60.86,0 110.69,-49.82 110.69,-110.68 0,-60.96 -49.83,-110.79 -110.69,-110.79 -60.9,0 -110.74,49.83 -110.74,110.79 m 61.47,-65.37 h 24.91 v 55.39 h 29.37 l 21.52,-55.39 h 27.65 l -25.43,59.24 c 8.86,4.41 23.85,9.42 23.85,33.77 0,39.85 -29.92,44.3 -55.9,44.3 h -45.97 z m 24.91,113.47 h 27.65 c 14.94,0 23.24,-6.08 23.24,-18.28 0,-12.15 -9.42,-17.72 -20.96,-17.72 h -29.93 z M 1556.31,1335.5 c 3.95,-232.61 148.66,-418.391 323.24,-415.34 174.63,3.09 313.01,194.08 309.07,426.53 -4.06,232.51 -148.77,418.38 -323.4,415.24 -174.59,-3.08 -312.91,-194.12 -308.91,-426.43 m 1274.18,281.02 c 4,-8.92 -5.52,13.16 -5.52,13.16 z M 2935.4,654.121 c 7.04,11.969 16.87,30.348 28.56,53.328 z m 9.01,1042.539 c 1.88,-5.1 4.01,-10.52 6.49,-16.25 l 51.79,-126.83 z M 1.51953,1993.53 1.46484,1995.4 v 153.22 H 155.395 V 1024.76 l 0.093,-3.38 V 869.672 H 1.46484 v 153.218 l 0.05469,1.87 z m 431.04347,-144.46 1.718,-111.9 -0.148,-7.54 h 1.515 c 1.723,4.66 4.207,8.66 6.485,11.59 56.551,60.61 127.695,120.76 297.109,120.76 162.074,0 267.038,-137.62 271.188,-224.3 l 0.2,-612.92 V 869.672 H 871.645 v 182.698 521.77 c 0,108.05 -94.832,186.17 -210.883,186.17 -96.559,0 -220.508,-86.73 -224.61,-174.68 v -560.97 l 0.149,-4.2 V 869.52 H 297.266 l 0.047,155.14 -0.047,695.55 0.047,128.86 z M 2299.6,1058.28 c 95.09,-86.331 180.81,-130.94 290.23,-130.94 112.1,-0.738 211.8,54.039 211.8,159.45 0,88 -78.12,139.44 -217.63,198.48 -118.12,51.09 -206.06,86.94 -252.1,160.91 5.68,-32.15 8.57,-65.3 8.57,-99.34 0,-285.42 -207.14,-516.961 -462.69,-516.961 -255.49,0 -462.59,231.541 -462.59,516.961 0,172.05 75.2,324.56 190.99,418.48 h -313.11 v -740.56 -2.98 -152.108 h -139.04 v 147.188 c 0.1,2.64 0.1,5.27 0.1,7.9 v 740.56 h -122.58 v 93.22 h 124.41 c 15.99,188.1 132.6,294.38 293.97,294.38 104.61,0 162.07,-10.83 195.14,-26.18 V 1999.3 c -0.5,-9.57 -0.5,-15.34 -0.5,-15.34 -1.38,0.15 -4.87,0.15 -4.87,0.15 -50.28,46.43 -100,81.06 -215.95,80.86 -92.5,0 -153.67,-74.99 -132.21,-206.43 H 1812 c 21.53,3.44 43.5,5.26 65.78,5.26 185.36,0 345.32,-121.87 419.13,-297.71 -0.65,9.71 -1,19.89 -1,30.47 0,183.6 177.66,261.73 362.37,261.27 7.04,0.05 13.93,0 20.71,-0.15 65.06,1.01 157.58,-20.15 214.09,-34.98 l 109.61,-269.12 156.56,-381.68 18.38,-61.42 20.5,61.42 197.98,489.93 c 36.61,134.99 181.27,193.37 340.92,193.06 79.44,0.31 138.07,-9.16 208.39,-33.97 v -148.1 c -86.52,62.89 -148.6,99.39 -246.83,99.39 -86.37,0 -190.07,-38.18 -190.07,-165.21 -1.83,-95.5 55.49,-113.02 223.69,-196.37 138.24,-59.99 265.73,-126.27 266.54,-279.59 0,-255.688 -252.1,-299.892 -374.75,-300.36 -109.56,0 -209.86,27.05 -265.71,73.531 v 168.699 l 8.97,-7.44 c 99.63,-92.911 187.63,-141.06 301.41,-141.06 112.14,-0.851 211.75,53.969 211.75,159.44 0,88.05 -78.08,139.45 -217.53,198.38 -133.36,57.73 -220.85,96 -256.6,191.5 C 3351.96,1341.17 3099.1,725.57 3039.55,593.98 H 2903.2 l 60.76,113.469 0.96,1.723 c 34.07,67.238 83.85,172.816 128.05,273.867 l -262.48,633.481 c -1.72,3.84 -6.03,13.56 -14.88,33.46 -20.06,45.93 -38.84,88.31 -95.5,109.62 -30.43,10.28 -62.73,15.54 -100.31,15.54 -86.37,0 -196.85,-38.17 -196.85,-165.16 -1.63,-95.54 62.27,-112.96 230.48,-196.41 138.18,-59.94 265.72,-126.22 266.52,-279.54 0,-255.71 -252.1,-299.999 -374.74,-300.401 -97.46,0 -187.52,21.371 -245.61,58.781 v 165.87">
   </path>
  </g>
 </g>
</svg>