<svg xmlns="http://www.w3.org/2000/svg" viewBox="0 0 732.06 214.63"><defs><style>.cls-1{fill:#003cdc;}</style></defs><g id="Calque_2" data-name="Calque 2"><g id="Calque_1-2" data-name="Calque 1"><path class="cls-1" d="M171.43,3.52H0V175H171.43Zm-7.81,53.86v63.7a176,176,0,0,0-14.07-31.85A176,176,0,0,0,163.62,57.38ZM117.57,167.24H53.87a175.61,175.61,0,0,0,31.85-14.07A175,175,0,0,0,117.57,167.24ZM85.72,25.36A176,176,0,0,0,53.87,11.3h63.7A175.65,175.65,0,0,0,85.72,25.36Zm58.71,55.5A170.61,170.61,0,0,0,94.09,30.52a160.39,160.39,0,0,1,68.72-18.38A160.47,160.47,0,0,1,144.43,80.86Zm-4.84,8.37A161.72,161.72,0,0,1,85.72,143.1,161.65,161.65,0,0,1,31.84,89.23,161.75,161.75,0,0,1,85.72,35.36,161.81,161.81,0,0,1,139.59,89.23ZM27,80.86A160.61,160.61,0,0,1,8.62,12.14,160.39,160.39,0,0,1,77.34,30.52,170.72,170.72,0,0,0,27,80.86Zm0,16.75A170.84,170.84,0,0,0,77.34,148,160.53,160.53,0,0,1,8.62,166.33,160.53,160.53,0,0,1,27,97.61Zm117.43,0a160.39,160.39,0,0,1,18.38,68.72A160.61,160.61,0,0,1,94.09,148,170.72,170.72,0,0,0,144.43,97.61ZM21.73,89.23A175.61,175.61,0,0,0,7.66,121.08V57.38A176,176,0,0,0,21.73,89.23Z"/><path class="cls-1" d="M218.87,175H263V3.52H218.87Z"/><path class="cls-1" d="M687.9,175h44.16V39.64C732.06,4.8,718.91,0,704.71,0,694.07,0,685,4,675.4,13l-6.63,6.21V3.52H628.83V175H673V50.9c0-7.88,5.71-8.5,7.45-8.5s7.46.62,7.46,8.5Z"/><path class="cls-1" d="M603.6,17.94C595.72,5.7,583.32,0,564.58,0c-19.27,0-32.13,5.8-40.47,18.26-8.56,12.79-12.55,32.55-12.55,62.18V98c0,30,3.78,49.9,11.9,62.5,7.88,12.24,20.27,17.94,39,17.94,19.27,0,32.14-5.81,40.48-18.27,8.57-12.79,12.56-32.54,12.56-62.17V80.44C615.5,50.4,611.71,30.54,603.6,17.94ZM569.66,131.49c0,6-3.34,7.29-6.14,7.29s-6.14-1.26-6.14-7.29V47c0-6,3.34-7.3,6.14-7.3s6.14,1.27,6.14,7.3Z"/><path class="cls-1" d="M351.5,0c-9.84,0-18.69,4.12-27.84,13L317,19.46V3.52H277V214.63H321.2v-51.3l6.8,7.23a24.1,24.1,0,0,0,18.58,7.91c22.59,0,34-21.15,34-62.86V62.86C380.62,6.52,364,0,351.5,0ZM333.19,131.49c0,6-3.34,7.29-6.14,7.29s-6.14-1.26-6.14-7.29V47c0-6,3.34-7.3,6.14-7.3s6.14,1.27,6.14,7.3Z"/><path class="cls-1" d="M469.11,0c-9.84,0-18.69,4.12-27.84,13l-6.68,6.49V3.52H394.65V214.63h44.16v-51.3l6.81,7.23a24.09,24.09,0,0,0,18.58,7.91c22.58,0,34-21.15,34-62.86V62.86C498.23,6.52,481.61,0,469.11,0ZM450.8,131.49c0,6-3.34,7.29-6.14,7.29s-6.14-1.26-6.14-7.29V47c0-6,3.34-7.3,6.14-7.3S450.8,41,450.8,47Z"/></g></g></svg>