<svg version="1.1" id="Layer_1" xmlns:x="ns_extend;" xmlns:i="ns_ai;" xmlns:graph="ns_graphs;" xmlns="http://www.w3.org/2000/svg" xmlns:xlink="http://www.w3.org/1999/xlink" x="0px" y="0px" viewBox="0 0 279.6 50" style="enable-background:new 0 0 279.6 50;" xml:space="preserve">
 <style type="text/css">
  .st0{fill:#00AAE7;}
	.st1{fill:#004A7C;}
	.st2{fill:#668BB3;}
 </style>
 <metadata>
  <sfw xmlns="ns_sfw;">
   <slices>
   </slices>
   <sliceSourceBounds bottomLeftOrigin="true" height="50" width="279.6" x="-79.7" y="-14.2">
   </sliceSourceBounds>
  </sfw>
 </metadata>
 <g>
  <g>
   <path class="st0" d="M120.5,0C107.8,0.7,98,11.6,98.6,24.3c0.7,12.7,11.6,22.5,24.3,21.9c1.8-0.1,3.6-0.4,5.3-0.9h0l1.7,3.3
			c0.7,1.3,2.3,1.8,3.7,1.1c1.3-0.7,1.8-2.3,1.1-3.7l-1.5-2.9c7.3-4.2,11.9-12.2,11.5-21.2C144.1,9.2,133.2-0.6,120.5,0z
			 M130.7,38.2l-2-3.7c-0.7-1.3-2.3-1.8-3.7-1.1c-1.3,0.7-1.8,2.3-1.1,3.7l1.7,3.3h0c-1,0.2-2,0.4-3,0.4c-9.7,0.5-18-7-18.5-16.7
			c-0.5-9.7,7-18,16.7-18.5s18,7,18.5,16.7C139.7,28.9,136.1,35,130.7,38.2z">
   </path>
   <path class="st0" d="M85,46.1c-1.5,0-2.7-1.2-2.7-2.7V2.9c0-1.5,1.2-2.7,2.7-2.7s2.7,1.2,2.7,2.7v40.5
			C87.7,44.8,86.5,46.1,85,46.1z">
   </path>
   <path class="st1" d="M214.5,46.1c-1.5,0-2.7-1.2-2.7-2.7V2.9c0-1.5,1.2-2.7,2.7-2.7c1.5,0,2.7,1.2,2.7,2.7v40.5
			C217.2,44.8,216,46.1,214.5,46.1z">
   </path>
   <path class="st1" d="M175.6,46.1L175.6,46.1c-1,0-1.9-0.6-2.4-1.5L152,4.1c-0.7-1.3-0.2-3,1.1-3.7s3-0.2,3.7,1.1l18.8,35.9
			l19.2-35.9c0.7-1.3,2.4-1.8,3.7-1.1s1.8,2.4,1.1,3.7L178,44.6C177.6,45.5,176.6,46.1,175.6,46.1z">
   </path>
   <g>
    <path class="st1" d="M262.2,36.9H249c-1.5,0-2.7-1.2-2.7-2.7c0-1.5,1.2-2.7,2.7-2.7h13.2c1.5,0,2.7,1.2,2.7,2.7
				C264.9,35.6,263.6,36.9,262.2,36.9z">
    </path>
    <path class="st1" d="M276.9,46.1c-1,0-1.9-0.5-2.4-1.5L255.7,8.7l-19.2,35.9c-0.7,1.3-2.4,1.8-3.7,1.1c-1.3-0.7-1.8-2.4-1.1-3.7
				l21.6-40.5c0.5-0.9,1.4-1.5,2.4-1.5c1,0,1.9,0.6,2.4,1.5L279.3,42c0.7,1.3,0.2,3-1.1,3.7C277.8,45.9,277.3,46.1,276.9,46.1z">
    </path>
   </g>
  </g>
  <g>
   <path class="st1" d="M66.5,38.5H53.1c-0.9,1.7-2,3.3-3.2,4.6h16.6c1.3,0,2.3-1.1,2.3-2.3l0,0C68.8,39.5,67.7,38.5,66.5,38.5z">
   </path>
   <path class="st1" d="M66.5,29.6H56.3c-0.3,1.6-0.7,3.2-1.3,4.6h11.5c1.3,0,2.3-1.1,2.3-2.3C68.8,30.7,67.7,29.6,66.5,29.6z">
   </path>
   <path class="st1" d="M66.5,20.8h-9.6c0,0.7,0.1,1.5,0.1,2.2c0,0.8,0,1.6-0.1,2.5h9.6c1.3,0,2.3-1.1,2.3-2.3
			C68.8,21.8,67.7,20.8,66.5,20.8z">
   </path>
   <path class="st1" d="M66.5,11.9H55.1c0.5,1.5,0.9,3,1.2,4.6h10.2c1.3,0,2.3-1.1,2.3-2.3l0,0C68.8,13,67.7,11.9,66.5,11.9z">
   </path>
   <path class="st1" d="M66.5,3.1H50.1c1.2,1.4,2.2,2.9,3.2,4.6h13.2c1.3,0,2.3-1.1,2.3-2.3S67.7,3.1,66.5,3.1z">
   </path>
   <path class="st0" d="M22.2,40.8L22.2,40.8c0-1.3,1.1-2.3,2.3-2.3h-9.1c-1.3,0-2.3,1.1-2.3,2.3l0,0c0,1.3,1.1,2.3,2.3,2.3h9.1
			C23.3,43.1,22.2,42.1,22.2,40.8z">
   </path>
   <path class="st2" d="M53.1,38.5H24.5c-1.3,0-2.3,1.1-2.3,2.3l0,0c0,1.3,1.1,2.3,2.3,2.3h25.3C51.1,41.7,52.1,40.2,53.1,38.5z">
   </path>
   <path class="st0" d="M15.7,32.4c-0.3-1.5,0.8-2.8,2.3-2.8H8.8c-1.3,0-2.3,1.1-2.3,2.3c0,1.3,1.1,2.3,2.3,2.3h9.2
			C17,34.3,16,33.5,15.7,32.4z">
   </path>
   <path class="st2" d="M56.3,29.6H18c-1.4,0-2.6,1.3-2.3,2.8c0.2,1.1,1.2,1.8,2.3,1.8H55C55.5,32.8,55.9,31.2,56.3,29.6z">
   </path>
   <path class="st0" d="M9.2,23.6c-0.3-1.5,0.8-2.8,2.3-2.8H2.3C1,20.8,0,21.8,0,23.1c0,1.3,1.1,2.3,2.3,2.3h9.2
			C10.4,25.4,9.4,24.7,9.2,23.6z">
   </path>
   <path class="st2" d="M9.2,23.6c0.2,1.1,1.2,1.8,2.3,1.8h45.3c0-0.8,0.1-1.6,0.1-2.5c0-0.7,0-1.5-0.1-2.2H11.5
			C10,20.8,8.9,22.1,9.2,23.6z">
   </path>
   <path class="st0" d="M12.4,14.2c0-1.3,1.1-2.3,2.3-2.3H5.6c-1.3,0-2.3,1.1-2.3,2.3l0,0c0,1.3,1.1,2.3,2.3,2.3h9.1
			C13.4,16.6,12.4,15.5,12.4,14.2z">
   </path>
   <path class="st2" d="M55.1,11.9H14.7c-1.3,0-2.3,1.1-2.3,2.3c0,1.3,1.1,2.3,2.3,2.3h41.6C56,15,55.6,13.4,55.1,11.9z">
   </path>
   <path class="st0" d="M29.3,5.9c-0.3-1.5,0.8-2.8,2.3-2.8h-9.1c-1.3,0-2.3,1.1-2.3,2.3s1.1,2.3,2.3,2.3h9.2
			C30.5,7.7,29.5,7,29.3,5.9z">
   </path>
   <path class="st2" d="M50.1,3.1H31.5c-1.4,0-2.6,1.3-2.3,2.8c0.2,1.1,1.2,1.8,2.3,1.8h21.6C52.3,6,51.2,4.5,50.1,3.1z">
   </path>
  </g>
 </g>
</svg>