<svg version="1.1" id="Layer_1" xmlns="http://www.w3.org/2000/svg" xmlns:xlink="http://www.w3.org/1999/xlink" x="0px" y="0px" viewBox="0 0 319 79" style="enable-background:new 0 0 319 79;" xml:space="preserve">
 <style type="text/css">
  .st0{fill:#0A468C;}
	.st1{clip-path:url(#SVGID_2_);fill:#0A468C;}
 </style>
 <g>
  <g>
   <path class="st0" d="M318.9,28.2c-0.1,0-1.8-0.1-1.8-0.1c-7.1-0.5-7-7-7-7c0.1-7.9-4.4-20.5-22.2-21.2h-30.7l-0.4,1.5h25.8
			c2.6,0.1,4.4,2,3.6,5.1l-4.6,16.8c-1.8,5-6.4,4.8-6.4,4.8c-4.7-0.4-3.4-4.9-3.4-4.9l2.1-7.7c0.7-2.6-1.2-3.9-2.8-3.9H254l-0.4,1.5
			h7.3c2.7,0.1,3.3,2.1,2.8,3.9c0,0-0.9,3.2-2,7.2c-1,3.9-4.6,4-5.2,4h-7.1l-0.5,1.8h6.7c0.8,0,4.4,0.1,3.3,4c-1.1,4-2,7.2-2,7.2
			c-0.5,1.8-2.2,3.8-4.9,3.9h-7.3l-0.4,1.5h17.1c1.6-0.1,4.2-1.3,5-3.9l2.1-7.7c0,0,1.1-4.5,6.1-4.9c0,0,4.8-0.3,3.7,4.8l-4.6,16.8
			c-0.9,3.1-3.7,5-6.4,5.1h-25.8l-0.4,1.6h30.8c18.2-0.7,29.6-13.3,33.9-21.2c0,0,3.4-6.4,10.8-7l1.8-0.1c0,0,0.1,0,0.2-0.1
			c0.1-0.3,0.4-1.5,0.4-1.6C319,28.2,319,28.2,318.9,28.2">
   </path>
   <g>
    <g>
     <defs>
      <path id="SVGID_1_" d="M318.9,28.2c-0.1,0-1.8-0.1-1.8-0.1c-7.1-0.5-7-7-7-7c0.1-7.9-4.4-20.5-22.2-21.2h-30.7l-0.4,1.5h25.8
						c2.6,0.1,4.4,2,3.6,5.1l-4.6,16.8c-1.8,5-6.4,4.8-6.4,4.8c-4.7-0.4-3.4-4.9-3.4-4.9l2.1-7.7c0.7-2.6-1.2-3.9-2.8-3.9H254
						l-0.4,1.5h7.3c2.7,0.1,3.3,2.1,2.8,3.9c0,0-0.9,3.2-2,7.2c-1,3.9-4.6,4-5.2,4h-7.1l-0.5,1.8h6.7c0.8,0,4.4,0.1,3.3,4
						c-1.1,4-2,7.2-2,7.2c-0.5,1.8-2.2,3.8-4.9,3.9h-7.3l-0.4,1.5h17.1c1.6-0.1,4.2-1.3,5-3.9l2.1-7.7c0,0,1.1-4.5,6.1-4.9
						c0,0,4.8-0.3,3.7,4.8l-4.6,16.8c-0.9,3.1-3.7,5-6.4,5.1h-25.8l-0.4,1.6h30.8c18.2-0.7,29.6-13.3,33.9-21.2c0,0,3.4-6.4,10.8-7
						l1.8-0.1c0,0,0.1,0,0.2-0.1c0.1-0.3,0.4-1.5,0.4-1.6C319,28.2,319,28.2,318.9,28.2">
      </path>
     </defs>
     <use href="#SVGID_1_" style="overflow:visible;fill:#0A468C;">
     </use>
     <clipPath id="SVGID_2_">
      <use xlink:href="#SVGID_1_" style="overflow:visible;">
      </use>
     </clipPath>
     <rect x="248" y="-1.6" class="st1" width="72.1" height="30.7">
     </rect>
    </g>
   </g>
  </g>
  <g>
   <path class="st0" d="M43.4,30.7c-1-1.2-2.8-2.7-6.3-2.7H8.3L0,58.3h8.1l6.5-23.6h7.2l-6.4,23.6h8.1l6.4-23.6H33
			c1.3,0,2.2,0.3,2.7,1c0.7,0.9,0.5,2.4,0.3,3.1l-5.3,19.5h8.1l5.7-21C45.1,34.9,44.7,32.5,43.4,30.7z">
   </path>
   <path class="st0" d="M76.9,31c-1.4-1.8-4-2.9-6.8-2.9H52.6l-1.7,6.3h15.3c1.6,0,2.7,0.4,3.3,1.1c0.6,0.7,0.7,1.9,0.3,3.3L69.4,40
			H56.6c-5.8,0-10.3,3.5-11.9,9.1c-0.8,2.8-0.5,5.2,0.8,6.8c1.2,1.6,3.4,2.4,6.2,2.4h20.8l5.3-19.4C78.7,35.6,78.4,32.9,76.9,31z
			 M66.2,52h-9.8c-0.9,0-2.3-0.1-2.8-0.8c-0.3-0.4-0.4-1.1-0.2-2c0.7-2.6,2.7-2.9,4.7-2.9h9.7L66.2,52z">
   </path>
   <path class="st0" d="M123.6,31c-1.4-1.8-4-2.9-6.8-2.9H99.4l-1.7,6.3H113c1.6,0,2.7,0.4,3.3,1.1c0.6,0.7,0.7,1.9,0.3,3.3l-0.3,1.2
			h-12.8c-5.8,0-10.3,3.5-11.9,9.1c-0.8,2.8-0.5,5.2,0.8,6.8c1.2,1.6,3.4,2.4,6.2,2.4h20.8l5.3-19.4C125.5,35.6,125.2,32.9,123.6,31
			z M112.9,52h-9.8c-0.9,0-2.3-0.1-2.8-0.8c-0.3-0.4-0.4-1.1-0.2-2c0.7-2.6,2.7-2.9,4.7-2.9h9.7L112.9,52z">
   </path>
   <path class="st0" d="M152.2,28.1l-6.5,23.6h-8c-1.3,0-2.2-0.3-2.7-1c-0.8-0.9-0.5-2.4-0.3-3.2L140,28h-8l-5.5,20.2
			c-0.9,3.1-0.6,5.6,0.8,7.3c1.8,2.2,5,2.7,7.3,2.7h9.3l-0.8,3c-0.5,1.8-2.6,3.8-5.6,3.8h-14.9l-1.7,6.3h17.3
			c4.8,0,11.4-4.2,13-10.2l9.1-33.1L152.2,28.1L152.2,28.1z">
   </path>
   <path class="st0" d="M188.5,42.4c-1.2-1.6-3.4-2.4-6.2-2.4H174c-1,0-2.4-0.1-2.9-0.8c-0.3-0.4-0.4-1.1-0.2-1.9
			c0.7-2.6,2.8-2.9,4.8-2.9h16.1l1.7-6.3h-19.3c-5.8,0-10.3,3.5-11.9,9.1c-0.8,2.8-0.5,5.1,0.8,6.8c1.2,1.6,3.4,2.4,6.2,2.4h8.3
			c1,0,2.3,0.1,2.9,0.8c0.3,0.4,0.4,1.1,0.2,2c-0.7,2.6-2.8,2.9-4.8,2.9h-17.7l-1.7,6.3h20.9c5.8,0,10.3-3.5,11.9-9.1
			C190.1,46.4,189.8,44.1,188.5,42.4z">
   </path>
   <polygon class="st0" points="198.8,28.1 190.6,58.3 198.7,58.3 206.9,28.1 		">
   </polygon>
   <path class="st0" d="M236.7,31c-1.4-1.8-4-2.9-6.8-2.9h-17.5l-1.7,6.3H226c1.6,0,2.7,0.4,3.3,1.1c0.6,0.7,0.7,1.9,0.3,3.3
			l-0.3,1.2h-12.8c-5.8,0-10.3,3.5-11.9,9.1c-0.8,2.8-0.5,5.2,0.8,6.8c1.2,1.6,3.4,2.4,6.2,2.4h20.8l5.3-19.4
			C238.6,35.6,238.2,32.9,236.7,31z M226,52h-9.8c-0.9,0-2.3-0.1-2.8-0.8c-0.3-0.4-0.4-1.1-0.2-2c0.7-2.6,2.7-2.9,4.7-2.9h9.7
			L226,52z">
   </path>
   <polygon class="st0" points="87.7,19.9 77.2,58.3 85.3,58.3 95.8,19.9 		">
   </polygon>
  </g>
  <g>
   <g>
    <path class="st0" d="M166.1,66.1c-0.7-0.9-2-1-2.4-1H155l-0.5,1.9h8c0.7,0,1.2,0.2,1.5,0.6c0.2,0.3,0.2,0.8,0.1,1.2
				c-0.1,0.4-0.5,1.7-0.5,1.7h-6.1c-2.9,0-4.9,1.5-5.6,4.2c-0.3,1.3,0,2.2,0.5,2.9c0.6,0.7,1.6,1.1,3.1,1.1h8.2l2.6-9.7
				C166.8,67.7,166.7,66.8,166.1,66.1z M161.9,76.8h-5.3c-1,0-1.6-0.2-1.9-0.6c-0.3-0.4-0.4-0.9-0.2-1.6c0.4-1.5,1.5-2.2,3.3-2.2
				h5.4L161.9,76.8z">
    </path>
    <polygon class="st0" points="168.5,78.7 172.1,65.1 169.8,65.1 166.1,78.7 			">
    </polygon>
    <polygon class="st0" points="181.7,78.7 186.4,61.3 184.1,61.3 179.3,78.7 			">
    </polygon>
    <polygon class="st0" points="186.4,78.7 190,65.1 187.7,65.1 184,78.7 			">
    </polygon>
    <path class="st0" d="M199.4,65.1h-7.1l-3.7,13.6h2.4l3.2-11.7h4.4c1,0,1.6,0.2,1.9,0.7c0.4,0.6,0.2,1.4,0,2.5l-2.3,8.5h2.4
				l2.5-9.1c0.4-1.5,0.2-2.6-0.3-3.3C202.1,65.5,201,65.1,199.4,65.1z">
    </path>
    <path class="st0" d="M207.2,70.7c0.6-1.5,2.2-3.7,5-3.7h4.8l0.5-1.9h-5.6c-4,0-6.8,3.4-7.7,6.8c-0.6,2.2-0.4,4.1,0.5,5.3
				c0.7,1,1.9,1.4,3.4,1.4h5.6l0.5-1.9c0,0-3.7,0-4.8,0c-1.2,0-2-0.3-2.5-0.8c-0.6-0.7-0.6-1.9-0.3-3.1v-0.1h8.5l0.5-1.9h-8.4V70.7z
				">
    </path>
    <path class="st0" d="M230.6,67.1l0.5-1.9h-7.5c-3.8,0-5,2.5-5.5,3.9c-0.3,1.1-0.1,2,0.3,2.5c0.5,0.7,1.4,1.1,2.9,1.1h3.7
				c2.2,0,1.9,1.7,1.7,2.2c-0.6,1.7-2.4,1.9-4.3,1.9H216l-0.5,1.9h9c2.3,0,4.2-1.4,4.8-3.9c0.3-1.2,0-2.2-0.5-2.9
				c-0.5-0.6-1.4-1.1-3-1.1h-3.2c-0.3,0-1.4,0-1.7-0.5c-0.2-0.4-0.2-0.8-0.1-1.3c0.5-1.7,2-1.9,2.7-1.9
				C223.5,67.1,230.6,67.1,230.6,67.1z">
    </path>
    <path class="st0" d="M178.3,65.1c-4.1,0-4.9,3.8-5,4.1c-0.1,0.3-2.6,9.6-2.6,9.6h2.4c0,0,2.4-9,2.5-9.3c0.1-0.4,0.8-2.5,3.1-2.5
				c1.6,0,2,0,2,0l0.5-2h-2.9V65.1z">
    </path>
   </g>
  </g>
 </g>
</svg>