<svg version="1.1" id="svg4403" xmlns="http://www.w3.org/2000/svg" xmlns:xlink="http://www.w3.org/1999/xlink" x="0px" y="0px" viewBox="0 0 1010.5 223.7" style="enable-background:new 0 0 1010.5 223.7;" xml:space="preserve">
 <style type="text/css">
  .st0{fill:#00269A;}
 </style>
 <g id="g896" transform="matrix(10.544921,0,0,-10.544921,-12182.9,6882.7342)">
  <g id="g897">
   <g id="g3458" transform="translate(1164.3223,643.6157)">
    <path id="path3456" class="st0" d="M-9,8.8h2.4l4.3-5.4v5.4H0v-9.1h-2.4l-4.2,5.4v-5.4H-9V8.8z">
    </path>
   </g>
   <g id="g3462" transform="translate(1181.3281,637.1714)">
    <path id="path3460" class="st0" d="M-9,8.8c0.5,0.5,0.7,1.2,0.7,1.9c0,0.7-0.2,1.4-0.7,1.8c-0.5,0.5-1.1,0.7-1.9,0.7
				c-0.8,0-1.4-0.3-1.9-0.8c-0.5-0.5-0.7-1.1-0.7-1.9c0-0.8,0.2-1.4,0.7-1.9c0.5-0.5,1.1-0.7,1.9-0.7C-10.1,8-9.5,8.2-9,8.8
				 M-14.5,7.2c-0.9,0.9-1.4,2.1-1.4,3.5c0,1.4,0.5,2.6,1.5,3.5c1,0.9,2.1,1.3,3.5,1.3s2.6-0.5,3.6-1.4c1-0.9,1.4-2.1,1.4-3.4
				c0-1.4-0.5-2.6-1.5-3.6c-1-0.9-2.1-1.4-3.6-1.4C-12.3,5.8-13.5,6.2-14.5,7.2">
    </path>
   </g>
   <g id="g3466" transform="translate(1188.8369,639.5215)">
    <path id="path3464" class="st0" d="M-9,8.8c0.8,0,1.2,0.4,1.2,1.1S-8.2,11-9,11h-0.7V8.8H-9z M-12.1,12.9h3.6
				c0.9,0,1.6-0.2,2.2-0.7c0.6-0.5,0.9-1.2,0.9-2.1c0-1.3-0.5-2.1-1.6-2.5l2.4-3.8h-2.8L-9.2,7h-0.5V3.8h-2.4V12.9z">
    </path>
   </g>
   <g id="g3470" transform="translate(1195.5684,641.2451)">
    <path id="path3468" class="st0" d="M-9,8.8h-1.9v2.4h6.2V8.8h-1.9V2H-9V8.8z">
    </path>
   </g>
   <g id="g3474" transform="translate(1201.3584,643.6157)">
    <path id="path3472" class="st0" d="M-9,8.8h2.4V5.5h3.3v3.2h2.4v-9.1h-2.4v3.5h-3.3v-3.5H-9V8.8z">
    </path>
   </g>
   <g id="g3478" transform="translate(1214.2822,639.5215)">
    <path id="path3476" class="st0" d="M-9,8.8c0.8,0,1.2,0.4,1.2,1.1S-8.2,11-9,11h-0.7V8.8H-9z M-12.1,12.9h3.6
				c0.9,0,1.6-0.2,2.2-0.7c0.6-0.5,0.9-1.2,0.9-2.1c0-1.3-0.5-2.1-1.6-2.5l2.4-3.8h-2.8L-9.2,7h-0.5V3.8h-2.4V12.9z">
    </path>
   </g>
   <g id="g3482" transform="translate(1226.0283,637.1714)">
    <path id="path3480" class="st0" d="M-9,8.8c0.5,0.5,0.7,1.2,0.7,1.9c0,0.7-0.2,1.4-0.7,1.8c-0.5,0.5-1.1,0.7-1.9,0.7
				c-0.8,0-1.4-0.3-1.9-0.8c-0.5-0.5-0.7-1.1-0.7-1.9c0-0.8,0.2-1.4,0.7-1.9c0.5-0.5,1.1-0.7,1.9-0.7C-10.1,8-9.5,8.2-9,8.8
				 M-14.5,7.2c-1,0.9-1.4,2.1-1.4,3.5c0,1.4,0.5,2.6,1.5,3.5c1,0.9,2.1,1.3,3.5,1.3c1.4,0,2.6-0.5,3.6-1.4c1-0.9,1.4-2.1,1.4-3.4
				c0-1.4-0.5-2.6-1.5-3.6c-1-0.9-2.1-1.4-3.6-1.4C-12.3,5.8-13.5,6.2-14.5,7.2">
    </path>
   </g>
   <g id="g3486" transform="translate(1233.7988,639.4385)">
    <path id="path3484" class="st0" d="M-9,8.8c0.9,0,1.4,0.4,1.4,1.2c0,0.8-0.5,1.2-1.4,1.2h-0.8V8.8H-9z M-12.1,12.9h4.1
				c0.9,0,1.6-0.3,2.1-0.9c0.5-0.5,0.8-1.3,0.8-2.2C-5.2,9-5.5,8.3-6,7.8C-6.5,7.3-7.2,7-8,7h-1.8V3.8h-2.4V12.9z">
    </path>
   </g>
  </g>
  <g id="g898">
   <g id="g3442" transform="translate(1175.7617,624.1201)">
    <path id="path3440" class="st0" d="M-9,8.8c-0.9,0.9-1.3,2.1-1.3,3.5c0,1.4,0.5,2.5,1.3,3.5c0.9,1,2,1.4,3.4,1.4
				c1.8,0,3.2-0.8,4.1-2.3l-1.9-1c0,0.1-0.1,0.2-0.3,0.4c-0.5,0.6-1.2,0.9-1.9,0.9s-1.4-0.3-1.8-0.9c-0.3-0.5-0.5-1.2-0.5-2
				c0-0.8,0.2-1.5,0.6-2c0.4-0.5,1.1-0.8,1.9-0.8c0.5,0,0.9,0.2,1.3,0.5c0.4,0.3,0.7,0.7,0.7,1.2h-2.1v1.9h4.6v-0.5
				c0-1.5-0.4-2.8-1.2-3.6c-0.8-0.9-2-1.4-3.5-1.4C-7,7.4-8.1,7.8-9,8.8">
    </path>
   </g>
   <g id="g3502" transform="translate(1188.3262,628.0596)">
    <path id="path3500" class="st0" d="M-9,8.8c0.8,0,1.2,0.4,1.2,1.1c0,0.8-0.4,1.1-1.2,1.1h-0.7V8.8H-9z M-12.1,12.9h3.6
				c0.9,0,1.6-0.2,2.2-0.7c0.6-0.5,0.9-1.2,0.9-2.1c0-1.3-0.5-2.1-1.6-2.5l2.4-3.8h-2.8L-9.2,7h-0.5V3.8h-2.4L-12.1,12.9z">
    </path>
   </g>
   <g id="g3446" transform="translate(1194.8555,623.5264)">
    <path id="path3444" class="st0" d="M-9,8.8c-0.8,0.6-1.2,1.4-1.2,2.5v6.1h2.4v-5.6c0-1.1,0.5-1.6,1.6-1.6c0.5,0,0.9,0.1,1.2,0.4
				c0.3,0.3,0.4,0.7,0.4,1.1v5.8h2.4v-5.9c0-1.2-0.4-2-1.2-2.7C-4.1,8.2-5.1,8-6.2,8C-7.3,8-8.3,8.2-9,8.8">
    </path>
   </g>
   <g id="g3494" transform="translate(1208.7061,627.4556)">
    <path id="path3492" class="st0" d="M-9,8.8l3,4.7h0h2.4V4.4H-6v5.3h0L-8.3,6h-1.3L-12,9.7h0V4.4h-2.4v9.1h2.4L-9,8.8z">
    </path>
   </g>
   <g id="g3498" transform="translate(1221.4023,627.4556)">
    <path id="path3496" class="st0" d="M-9,8.8l3,4.7h0h2.4V4.4H-6v5.3h0L-8.3,6h-1.3L-12,9.7h0l0-5.3h-2.4v9.1h2.4L-9,8.8z">
    </path>
   </g>
   <g id="g3450" transform="translate(1233.6416,626.5762)">
    <path id="path3448" class="st0" d="M-9,8.8l-1,2.8l-1-2.8H-9z M-11.3,14.3h2.7l3.4-9.1h-2.6l-0.6,1.7h-3.1l-0.6-1.7h-2.5
				L-11.3,14.3z">
    </path>
   </g>
   <g id="g3454" transform="translate(1238.7461,632.1538)">
    <path id="path3452" class="st0" d="M-9,8.8h2.4l4.2-5.4v5.4h2.4v-9.1h-2.4l-4.2,5.4v-5.4H-9V8.8z">
    </path>
   </g>
  </g>
  <g id="g899" transform="translate(1238.7461,643.6157)">
   <path id="path3488" class="st0" d="M-9,8.8V6.4h19v-18.2h2.4V8.8H-9z">
   </path>
  </g>
 </g>
</svg>