<svg width="160" height="40" viewBox="0 0 160 40" fill="none" xmlns="http://www.w3.org/2000/svg" xmlns:xlink="http://www.w3.org/1999/xlink">
 <g clip-path="url(#clip0)">
  <path d="M24.2802 0.253975V5.05132H31.6004V23.0668H36.7816V5.05132H44.1017V0.253975H24.2802Z" fill="#6785C1">
  </path>
  <path d="M102.054 18.1904C101.269 18.1904 100.389 17.7897 100.389 15.8369C100.389 13.8841 101.258 13.5342 102.054 13.5342H111.823V18.1904H102.054ZM109.577 0.253967H96.5452V5.09648H109.25C111.112 5.09648 111.84 5.94306 111.84 8.12727C111.84 8.12727 111.84 8.7481 111.84 8.93435H101.309C97.3071 8.93435 95.3148 10.9379 95.3148 15.4644V16.5424C95.3148 21.1986 97.3805 23.0611 101.523 23.0611H116.965V8.06519C116.965 2.31966 115.069 0.253967 109.588 0.253967" fill="#6785C1">
  </path>
  <path d="M145.106 18.1904C144.321 18.1904 143.441 17.7897 143.441 15.8369C143.441 13.8841 144.31 13.5342 145.106 13.5342H154.881V18.1904H145.106ZM152.629 0.253967H139.58V5.09648H152.285C154.147 5.09648 154.875 5.94306 154.875 8.12727V8.93435H144.349C140.342 8.93435 138.35 10.9379 138.35 15.4644V16.5424C138.35 21.1986 140.421 23.0611 144.558 23.0611H160V8.06519C160 2.31966 158.109 0.253967 152.623 0.253967" fill="#6785C1">
  </path>
  <path d="M45.7498 0.253975V5.05132H53.07V23.0668H58.2567V5.05132H65.5769V0.253975H45.7498Z" fill="#6785C1">
  </path>
  <path d="M118.015 0.253975V5.05132H125.335V23.0668H130.516V5.05132H137.842V0.253975H118.015Z" fill="#6785C1">
  </path>
  <path d="M88.0116 15.1709C88.0116 17.3664 87.2779 18.2073 85.4097 18.2073H77.0623V5.11341H85.4097C87.2779 5.11341 88.0116 5.96 88.0116 8.14985V15.1709ZM93.3056 15.075V8.25144C93.3056 2.26886 90.9859 0.253967 85.7596 0.253967H71.8756V23.0611H85.9854C91.539 23.0611 93.2943 20.3069 93.2943 15.075" fill="#6785C1">
  </path>
  <path d="M16.9657 17.6317C16.8584 17.4285 9.92769 3.92817 9.06416 2.60185C8.08776 1.0667 6.90254 0 4.62239 0C2.50591 0 0 0.936896 0 6.01644V23.0724H5.11341V8.84969C5.11341 7.82814 5.04569 6.31556 5.0344 6.02772C5.02311 5.73988 5.03439 5.5367 5.1642 5.46333C5.29401 5.38996 5.45769 5.51976 5.55928 5.70601C5.66087 5.89226 12.078 18.5968 13.4608 20.7415C14.4428 22.271 15.6281 23.349 17.9082 23.349C20.0191 23.349 22.5306 22.4008 22.5306 17.3212V0.225754H17.3946V14.4541C17.3946 15.4757 17.4567 16.9939 17.468 17.2761C17.4793 17.5583 17.468 17.7558 17.3438 17.8405C17.2197 17.9251 17.0503 17.7784 16.9487 17.5921" fill="#6785C1">
  </path>
  <path d="M49.8529 30.8498C50.284 31.0951 50.6495 31.4407 50.9187 31.8572C51.1879 32.2738 51.3528 32.749 51.3994 33.2428H50.2424C50.1991 32.9665 50.1014 32.7016 49.9552 32.4633C49.8089 32.225 49.6168 32.018 49.3901 31.8544C48.9025 31.5434 48.3312 31.3897 47.7534 31.4142C47.3785 31.4081 47.007 31.4861 46.6661 31.6423C46.3253 31.7986 46.0237 32.0292 45.7836 32.3172C45.195 33.0923 44.91 34.0557 44.9822 35.0263C44.9416 35.9183 45.1718 36.8017 45.6425 37.5604C45.8863 37.8948 46.2124 38.1605 46.5892 38.3316C46.966 38.5027 47.3807 38.5734 47.7929 38.5368C48.4895 38.5627 49.1691 38.318 49.6892 37.8539C49.9636 37.5562 50.1735 37.205 50.3056 36.8223C50.4377 36.4396 50.4892 36.0337 50.4568 35.6302H47.759V34.6538H51.5405V39.5301H50.7898L50.5076 38.2038C50.2133 38.5607 49.8647 38.8692 49.4748 39.1181C48.8856 39.4328 48.2232 39.5847 47.5558 39.5584C46.5962 39.5734 45.6686 39.2129 44.9709 38.5537C44.1368 37.6006 43.7093 36.3586 43.78 35.094C43.7142 33.8308 44.1274 32.5892 44.937 31.6173C45.2899 31.2189 45.7248 30.9016 46.212 30.6872C46.6991 30.4729 47.2269 30.3666 47.759 30.3757C48.486 30.3529 49.2067 30.5161 49.8529 30.8498V30.8498ZM60.2886 33.4629C60.5831 33.7964 60.8082 34.1854 60.9507 34.6069C61.0931 35.0285 61.1501 35.4742 61.1182 35.918C61.1556 36.8359 60.8985 37.7416 60.3845 38.5029C60.1227 38.8478 59.7794 39.1222 59.3854 39.3014C58.9913 39.4807 58.5589 39.5593 58.1269 39.5301C57.7395 39.5459 57.3535 39.4721 56.9992 39.3145C56.6449 39.1569 56.3316 38.9198 56.0838 38.6215C55.5478 37.9299 55.2793 37.0682 55.3275 36.1946C55.2777 35.2623 55.5596 34.3426 56.1233 33.5984C56.3814 33.2817 56.7094 33.0293 57.0815 32.8608C57.4537 32.6924 57.8598 32.6126 58.268 32.6276C58.6437 32.6235 59.0164 32.6954 59.3636 32.8389C59.7108 32.9825 60.0254 33.1947 60.2886 33.4629ZM59.6339 37.7692C59.8956 37.1976 60.0267 36.5749 60.0176 35.9462C60.0372 35.4419 59.9406 34.9399 59.7354 34.4788C59.6046 34.1918 59.3889 33.9519 59.1174 33.7914C58.8459 33.6309 58.5317 33.5577 58.2172 33.5814C57.9372 33.5623 57.6575 33.624 57.4114 33.759C57.1653 33.8941 56.9631 34.0969 56.8288 34.3434C56.5244 34.9056 56.3745 35.5386 56.3942 36.1776C56.3707 36.7813 56.5216 37.3789 56.8288 37.899C56.9748 38.1275 57.1799 38.3121 57.4224 38.4333C57.6649 38.5545 57.9356 38.6079 58.2059 38.5876C58.4992 38.6144 58.7936 38.5502 59.049 38.4037C59.3045 38.2573 59.5087 38.0358 59.6339 37.7692V37.7692ZM101.19 33.4629C101.487 33.7953 101.714 34.1839 101.857 34.6057C102.001 35.0274 102.058 35.4737 102.025 35.918C102.063 36.8359 101.806 37.7416 101.292 38.5029C101.03 38.8482 100.687 39.1228 100.293 39.3022C99.8988 39.4815 99.4662 39.5599 99.0342 39.5301C98.6425 39.5465 98.2524 39.4714 97.8948 39.3107C97.5372 39.1501 97.222 38.9083 96.9742 38.6045C96.4404 37.9118 96.1722 37.051 96.2179 36.1776C96.1681 35.2454 96.45 34.3256 97.0137 33.5814C97.2715 33.2645 97.5994 33.0118 97.9716 32.8433C98.3438 32.6748 98.7501 32.5952 99.1584 32.6107C99.5374 32.6059 99.9133 32.6791 100.263 32.8257C100.612 32.9723 100.928 33.1892 101.19 33.4629V33.4629ZM100.541 37.7692C100.803 37.1976 100.934 36.5749 100.925 35.9462C100.944 35.4419 100.848 34.9399 100.643 34.4788C100.513 34.1923 100.298 33.9526 100.028 33.792C99.7571 33.6315 99.4438 33.558 99.1301 33.5814C98.8493 33.5619 98.5687 33.6233 98.3216 33.7584C98.0745 33.8934 97.8713 34.0964 97.7361 34.3434C97.4342 34.9066 97.2844 35.5388 97.3015 36.1776C97.2808 36.781 97.4315 37.3778 97.7361 37.899C97.8809 38.131 98.0861 38.3193 98.3296 38.4435C98.5732 38.5678 98.846 38.6235 99.1188 38.6045C99.4132 38.6295 99.7081 38.5626 99.9628 38.413C100.218 38.2634 100.42 38.0385 100.541 37.7692V37.7692ZM72.2029 35.3593C72.3052 35.3569 72.4049 35.3268 72.4914 35.2721C72.5779 35.2174 72.6479 35.1403 72.6939 35.0489C72.7458 34.9121 72.7689 34.766 72.7617 34.6199C72.7748 34.4627 72.7462 34.3047 72.6789 34.162C72.6115 34.0193 72.5077 33.897 72.3779 33.8072C72.0442 33.621 71.6646 33.5329 71.283 33.5532C71.0648 33.5304 70.8444 33.5612 70.6408 33.6428C70.4372 33.7244 70.2566 33.8545 70.1147 34.0217C69.9622 34.2499 69.8744 34.5151 69.8607 34.7892H68.873C68.8468 34.4662 68.9023 34.1418 69.0345 33.8459C69.1666 33.55 69.3712 33.2921 69.6293 33.096C70.133 32.771 70.7232 32.6057 71.3225 32.622C71.9522 32.595 72.5766 32.7477 73.1229 33.0622C73.3481 33.2097 73.53 33.4145 73.65 33.6555C73.77 33.8965 73.8238 34.165 73.8058 34.4337V38.1869C73.8004 38.2855 73.824 38.3836 73.8735 38.4691C73.9101 38.5055 73.9546 38.5331 74.0035 38.5498C74.0524 38.5664 74.1045 38.5716 74.1557 38.565H74.3137L74.5 38.5368V39.3495C74.3363 39.3947 74.2122 39.4285 74.1219 39.4455C74.0316 39.4624 73.9243 39.4455 73.7719 39.4455C73.6159 39.4551 73.4601 39.4224 73.321 39.3509C73.1819 39.2794 73.0647 39.1717 72.9818 39.0391C72.8843 38.8509 72.823 38.6461 72.8012 38.4352C72.5537 38.7554 72.2373 39.0158 71.8756 39.1971C71.4667 39.418 71.0082 39.5307 70.5436 39.5245C70.2796 39.5331 70.0167 39.4875 69.7711 39.3904C69.5255 39.2933 69.3024 39.1469 69.1157 38.9601C68.9323 38.7815 68.7875 38.5671 68.6904 38.3302C68.5933 38.0933 68.546 37.839 68.5513 37.583C68.5376 37.3218 68.5811 37.0608 68.6785 36.8181C68.776 36.5754 68.9252 36.3568 69.1157 36.1776C69.5176 35.8279 70.0189 35.6128 70.5492 35.5624L72.2029 35.3593ZM69.9848 38.3336C70.209 38.5125 70.4882 38.6082 70.775 38.6045C71.1502 38.6025 71.5196 38.5116 71.853 38.3393C72.1289 38.2129 72.3604 38.0064 72.5174 37.7467C72.6744 37.4871 72.7497 37.1862 72.7334 36.8831V35.997C72.5789 36.0932 72.4118 36.1673 72.2368 36.2171C72.0407 36.2718 71.8407 36.3114 71.6385 36.3357L71.0008 36.4147C70.6998 36.4457 70.4071 36.5318 70.1372 36.6687C69.9786 36.7591 69.8485 36.8921 69.7617 37.0528C69.6749 37.2134 69.6349 37.3951 69.6462 37.5773C69.64 37.721 69.6674 37.8642 69.7262 37.9955C69.785 38.1268 69.8735 38.2425 69.9848 38.3336V38.3336ZM112.314 35.3593C112.416 35.3559 112.514 35.3253 112.6 35.2707C112.685 35.216 112.754 35.1394 112.8 35.0489C112.854 34.9126 112.879 34.7665 112.873 34.6199C112.886 34.4621 112.856 34.3039 112.788 34.1611C112.719 34.0184 112.615 33.8963 112.484 33.8072C112.151 33.6195 111.771 33.5313 111.389 33.5532C111.171 33.5319 110.951 33.5633 110.747 33.6448C110.544 33.7264 110.363 33.8556 110.22 34.0217C110.07 34.2509 109.983 34.5156 109.966 34.7892H108.984C108.957 34.4666 109.011 34.1424 109.143 33.8464C109.274 33.5504 109.478 33.2924 109.735 33.096C110.24 32.7726 110.829 32.6075 111.428 32.622C112.058 32.5941 112.683 32.7468 113.229 33.0622C113.455 33.2088 113.637 33.4135 113.757 33.6547C113.878 33.8959 113.931 34.1649 113.912 34.4337V38.1869C113.906 38.2855 113.93 38.3836 113.979 38.4691C114.017 38.506 114.062 38.5338 114.112 38.5505C114.162 38.5671 114.215 38.5721 114.267 38.565H114.425L114.611 38.5368V39.3495C114.448 39.3947 114.324 39.4285 114.233 39.4455C114.143 39.4624 114.03 39.4455 113.883 39.4455C113.727 39.4551 113.572 39.4224 113.432 39.3509C113.293 39.2794 113.176 39.1717 113.093 39.0391C112.993 38.8516 112.93 38.6466 112.907 38.4352C112.661 38.7568 112.344 39.0175 111.981 39.1971C111.574 39.4175 111.118 39.5302 110.655 39.5245C110.391 39.5335 110.128 39.488 109.882 39.3909C109.637 39.2938 109.414 39.1471 109.227 38.9601C109.043 38.7823 108.897 38.568 108.8 38.331C108.703 38.0939 108.656 37.8391 108.663 37.583C108.65 37.3219 108.694 37.0612 108.792 36.8187C108.889 36.5762 109.038 36.3575 109.227 36.1776C109.629 35.8279 110.13 35.6128 110.661 35.5624L112.314 35.3593ZM110.091 38.3336C110.317 38.5133 110.598 38.609 110.886 38.6045C111.26 38.6024 111.627 38.5115 111.959 38.3393C112.235 38.2129 112.466 38.0064 112.623 37.7467C112.78 37.4871 112.856 37.1862 112.839 36.8831V35.997C112.685 36.0943 112.518 36.1684 112.343 36.2171C112.158 36.2703 111.969 36.31 111.778 36.3357L111.14 36.4147C110.839 36.4457 110.547 36.5318 110.277 36.6687C110.118 36.7586 109.987 36.8915 109.901 37.0523C109.814 37.213 109.774 37.395 109.786 37.5773C109.779 37.72 109.805 37.8623 109.862 37.9934C109.919 38.1245 110.005 38.2409 110.113 38.3336H110.091ZM80.8269 30.3757H81.8766V39.5301H80.8269V30.3757ZM83.4738 32.6333H84.4785V33.8693C84.7295 33.5357 85.0514 33.262 85.421 33.0678C85.7738 32.9017 86.1599 32.8187 86.5498 32.8251C86.9111 32.7851 87.276 32.854 87.5979 33.023C87.9197 33.1919 88.1837 33.4532 88.3559 33.7733C88.55 34.241 88.6368 34.7463 88.6098 35.252V39.5358H87.5375V35.3198C87.5505 35.0006 87.4927 34.6826 87.3682 34.3885C87.2811 34.1951 87.136 34.0335 86.9529 33.9263C86.7698 33.8191 86.5579 33.7716 86.3466 33.7903C86.1391 33.7839 85.9317 33.8086 85.7314 33.8636C85.4297 33.9596 85.1641 34.1445 84.9695 34.3942C84.804 34.5765 84.6875 34.7979 84.6309 35.0376C84.5655 35.353 84.5371 35.675 84.5462 35.997V39.5358H83.4908L83.4738 32.6333ZM90.0152 32.6333H91.0142V33.8693C91.2652 33.5357 91.5871 33.262 91.9567 33.0678C92.3095 32.9017 92.6956 32.8187 93.0855 32.8251C93.4467 32.7859 93.8113 32.8551 94.133 33.024C94.4547 33.1929 94.7187 33.4537 94.8915 33.7733C95.0857 34.241 95.1725 34.7463 95.1455 35.252V39.5358H94.0732V35.3198C94.0862 35.0006 94.0284 34.6826 93.9039 34.3885C93.8168 34.1951 93.6716 34.0335 93.4886 33.9263C93.3055 33.8191 93.0936 33.7716 92.8823 33.7903C92.6747 33.7839 92.4674 33.8086 92.2671 33.8636C91.9654 33.9596 91.6998 34.1445 91.5052 34.3942C91.3397 34.5765 91.2232 34.7979 91.1665 35.0376C91.1012 35.353 91.0728 35.675 91.0819 35.997V39.5358H90.0321L90.0152 32.6333ZM103.527 32.6333L105.35 38.2377L107.24 32.6333H108.46L105.897 39.5245H104.763L102.257 32.6333H103.527ZM115.594 30.3757H116.666V32.6333H117.665V33.525H116.666V38.1135C116.653 38.2006 116.667 38.2896 116.706 38.3683C116.746 38.4471 116.809 38.5118 116.886 38.5537C117.016 38.6076 117.157 38.6308 117.298 38.6215H117.462H117.665V39.4681C117.542 39.5088 117.415 39.5371 117.287 39.5527C117.146 39.5618 117.004 39.5618 116.863 39.5527C116.677 39.5744 116.489 39.5508 116.314 39.484C116.139 39.4171 115.983 39.3091 115.859 39.1689C115.672 38.8701 115.58 38.522 115.594 38.17V33.525H114.747V32.6502H115.599L115.594 30.3757ZM123.213 33.4629C123.509 33.7953 123.736 34.1839 123.88 34.6057C124.023 35.0274 124.081 35.4737 124.048 35.918C124.086 36.8351 123.831 37.7404 123.32 38.5029C123.059 38.8482 122.715 39.1228 122.321 39.3022C121.927 39.4815 121.494 39.5599 121.062 39.5301C120.676 39.5462 120.29 39.4731 119.936 39.3165C119.582 39.1599 119.268 38.9241 119.019 38.6271C118.487 37.9339 118.218 37.0734 118.263 36.2002C118.212 35.2661 118.494 34.3441 119.059 33.5984C119.317 33.2817 119.645 33.0293 120.017 32.8608C120.389 32.6924 120.795 32.6126 121.204 32.6276C121.581 32.6207 121.957 32.6912 122.306 32.8348C122.655 32.9785 122.972 33.1923 123.235 33.4629H123.213ZM122.564 37.7692C122.825 37.1976 122.957 36.5749 122.948 35.9462C122.967 35.4419 122.871 34.9399 122.665 34.4788C122.534 34.1923 122.318 33.9529 122.047 33.7925C121.775 33.6321 121.461 33.5585 121.147 33.5814C120.867 33.563 120.588 33.625 120.342 33.7599C120.096 33.8949 119.894 34.0973 119.759 34.3434C119.457 34.9066 119.307 35.5388 119.324 36.1776C119.303 36.7811 119.453 37.3782 119.759 37.899C119.906 38.1279 120.112 38.3128 120.355 38.434C120.599 38.5552 120.87 38.6083 121.142 38.5876C121.438 38.6189 121.736 38.5568 121.995 38.41C122.254 38.2633 122.461 38.0392 122.586 37.7692H122.564ZM125.228 32.6276H126.227V33.8693C126.376 33.5718 126.583 33.3071 126.836 33.0904C126.983 32.94 127.158 32.8212 127.352 32.7416C127.547 32.662 127.755 32.6232 127.965 32.6276H128.055L128.304 32.6558V33.7846C128.244 33.7798 128.183 33.7798 128.123 33.7846H127.965C127.733 33.7683 127.501 33.8063 127.286 33.8954C127.072 33.9846 126.881 34.1225 126.729 34.2982C126.448 34.7062 126.3 35.1912 126.306 35.6866V39.5527H125.25L125.228 32.6276ZM67.0613 33.4685C66.8239 33.1967 66.5291 32.9807 66.1983 32.8363C65.8675 32.6919 65.5088 32.6225 65.148 32.6333C64.7836 32.6345 64.4245 32.7194 64.0982 32.8816C63.7738 33.0564 63.4923 33.3013 63.2742 33.5984V30.3757H62.247V39.5301H63.2742V38.5537C63.4308 38.7857 63.621 38.993 63.8386 39.1689C64.1964 39.4156 64.6233 39.5421 65.0577 39.5301C65.4514 39.5431 65.8419 39.4557 66.1925 39.2759C66.543 39.0962 66.842 38.8302 67.0613 38.5029C67.5667 37.7466 67.8196 36.8496 67.7837 35.9406C67.849 35.0564 67.5925 34.1784 67.0613 33.4685V33.4685ZM66.2824 37.8539C66.1528 38.0778 65.9643 38.2619 65.7375 38.3863C65.5106 38.5106 65.2541 38.5705 64.9956 38.5594C64.6532 38.5778 64.3143 38.482 64.0324 38.2868C63.7504 38.0917 63.5412 37.8084 63.4379 37.4814C63.2702 37.0032 63.1937 36.4978 63.2121 35.9914C63.1543 35.3333 63.3569 34.6787 63.7765 34.1684C63.9356 33.9906 64.1304 33.8483 64.3483 33.7511C64.5662 33.6538 64.8022 33.6037 65.0408 33.604C65.2914 33.5934 65.5403 33.6501 65.7616 33.7682C65.9829 33.8863 66.1686 34.0615 66.2993 34.2756C66.5974 34.789 66.746 35.3755 66.7283 35.9688C66.7521 36.6272 66.5939 37.2795 66.2711 37.8539H66.2824ZM76.7237 38.5312C76.6442 38.4905 76.579 38.4266 76.5366 38.348C76.4943 38.2693 76.4769 38.1797 76.4867 38.0909V30.3757H75.4312V38.1474C75.4134 38.4999 75.5061 38.8491 75.6965 39.1463C75.8183 39.288 75.9733 39.3972 76.1476 39.4642C76.322 39.5311 76.5102 39.5538 76.6955 39.5301H76.9495V38.6045C76.866 38.598 76.785 38.5729 76.7124 38.5312H76.7237ZM54.464 38.5312C54.385 38.4903 54.3205 38.4261 54.2791 38.3474C54.2377 38.2687 54.2215 38.1792 54.2326 38.0909V30.3757H53.1716V38.1474C53.1577 38.4994 53.2501 38.8475 53.4368 39.1463C53.561 39.2865 53.7172 39.3946 53.8921 39.4614C54.067 39.5282 54.2555 39.5518 54.4414 39.5301H54.6954V38.6045C54.61 38.5988 54.527 38.5737 54.4527 38.5312H54.464ZM7.34278 30.387V31.4819H4.30068V39.5301H3.05903V31.4819H0.0169373V30.387H7.34278ZM12.9472 32.6445V37.1032C12.9368 37.3894 12.9889 37.6745 13.0996 37.9386C13.1968 38.135 13.3514 38.2974 13.5428 38.4042C13.7343 38.511 13.9537 38.5573 14.1719 38.5368C14.5087 38.5558 14.8421 38.4617 15.1192 38.2694C15.3964 38.0772 15.6013 37.7978 15.7014 37.4757C15.8674 36.9816 15.942 36.4614 15.9216 35.9406V32.6333H17.0504V39.327H16.0062V38.3449C15.8735 38.589 15.6954 38.8055 15.4813 38.9827C15.059 39.3386 14.5209 39.5273 13.9688 39.5132C13.5974 39.5545 13.2221 39.4863 12.8891 39.3168C12.5561 39.1473 12.28 38.884 12.095 38.5594C11.89 38.1344 11.795 37.6648 11.8184 37.1936V32.6333L12.9472 32.6445ZM19.1555 37.2613C19.1635 37.5617 19.2619 37.8528 19.4377 38.0966C19.6284 38.29 19.8607 38.4374 20.117 38.5273C20.3733 38.6173 20.6467 38.6476 20.9164 38.6158C21.2994 38.624 21.6781 38.5347 22.017 38.3562C22.1672 38.2804 22.2924 38.1628 22.3774 38.0177C22.4625 37.8725 22.504 37.7059 22.4968 37.5378C22.4969 37.4074 22.4612 37.2794 22.3935 37.168C22.3258 37.0565 22.2287 36.9657 22.113 36.9057C21.8047 36.7707 21.4831 36.6686 21.1535 36.6009L20.2617 36.3865C19.8196 36.2963 19.3934 36.1402 18.9975 35.9237C18.7767 35.8065 18.5924 35.6307 18.465 35.4156C18.3375 35.2006 18.2718 34.9545 18.2751 34.7046C18.267 34.4202 18.3238 34.1378 18.4412 33.8786C18.5585 33.6195 18.7333 33.3905 18.9524 33.2089C19.4775 32.8092 20.1276 32.6092 20.7866 32.6445C21.1907 32.6074 21.5979 32.6656 21.9753 32.8146C22.3527 32.9637 22.6898 33.1992 22.9595 33.5024C23.2275 33.8341 23.3695 34.25 23.3603 34.6764H22.3161C22.2975 34.4326 22.205 34.2002 22.0509 34.0104C21.8674 33.8503 21.653 33.7297 21.421 33.6559C21.1889 33.5821 20.9442 33.5568 20.702 33.5814C20.3598 33.5576 20.0187 33.6404 19.7256 33.8185C19.6224 33.8852 19.538 33.9774 19.4807 34.0861C19.4234 34.1948 19.395 34.3164 19.3982 34.4393C19.3988 34.5804 19.4394 34.7184 19.5153 34.8373C19.5913 34.9562 19.6994 35.0511 19.8272 35.1109C20.0598 35.2373 20.3114 35.3249 20.5722 35.3706L21.3115 35.5568C21.8807 35.6612 22.4306 35.8515 22.9426 36.1212C23.156 36.2632 23.3279 36.4591 23.4409 36.6891C23.554 36.9191 23.604 37.175 23.586 37.4306C23.5877 37.714 23.5281 37.9944 23.4112 38.2526C23.2943 38.5108 23.1229 38.7406 22.9087 38.9262C22.3322 39.3919 21.5987 39.6182 20.86 39.5584C20.4818 39.5961 20.0999 39.5571 19.7372 39.4436C19.3745 39.3301 19.0384 39.1446 18.7492 38.898C18.3344 38.4595 18.0989 37.8817 18.0888 37.2782L19.1555 37.2613ZM34.5466 35.9575C34.5127 36.8645 34.7654 37.7591 35.269 38.5142C35.4895 38.8416 35.7896 39.1075 36.141 39.2872C36.4924 39.4668 36.8837 39.5543 37.2782 39.5414C37.7113 39.557 38.1376 39.4301 38.4917 39.1802C38.7095 39.0067 38.8998 38.8012 39.0561 38.5707V39.5414H40.0833V30.3757H39.0561V33.604C38.8403 33.3027 38.5559 33.057 38.2264 32.8872C37.9017 32.7208 37.5415 32.6356 37.1766 32.6389C36.8165 32.6274 36.4584 32.6965 36.1284 32.841C35.7984 32.9855 35.5048 33.2018 35.269 33.4742C34.7325 34.1816 34.4735 35.061 34.5409 35.9462L34.5466 35.9575ZM35.6358 36.0083C35.6177 35.4164 35.7621 34.8307 36.0535 34.3151C36.1859 34.1016 36.3728 33.9273 36.5951 33.8103C36.8173 33.6932 37.0668 33.6376 37.3177 33.6492C37.5563 33.6488 37.7923 33.699 38.0102 33.7962C38.2281 33.8935 38.4229 34.0357 38.582 34.2136C39.0005 34.7245 39.203 35.3786 39.1464 36.0365C39.163 36.5424 39.0885 37.0471 38.9262 37.5265C38.8219 37.8525 38.6123 38.1345 38.3304 38.3286C38.0485 38.5226 37.7102 38.6177 37.3685 38.5989C37.1091 38.611 36.8514 38.5517 36.6234 38.4273C36.3955 38.3028 36.2061 38.1182 36.0761 37.8934C35.7577 37.3136 35.6035 36.658 35.6302 35.997L35.6358 36.0083ZM24.9688 30.3644H26.0355V32.622H27.0345V33.525H26.0298V38.1135C26.0186 38.2003 26.0343 38.2885 26.0746 38.3662C26.115 38.4439 26.1781 38.5073 26.2556 38.5481C26.3836 38.6031 26.523 38.6264 26.662 38.6158H26.8256H27.0288V39.4681C26.905 39.5042 26.7786 39.5306 26.6507 39.5471C26.5152 39.5471 26.3798 39.5471 26.2274 39.5471C26.0405 39.5692 25.8511 39.5458 25.6752 39.479C25.4993 39.4122 25.3422 39.3039 25.2171 39.1633C25.0392 38.8633 24.951 38.5185 24.9632 38.17V33.525H24.1053V32.6502H24.9632L24.9688 30.3644ZM32.193 32.9606C32.5921 33.1441 32.9336 33.4329 33.1807 33.7959C33.4028 34.1383 33.5526 34.5224 33.621 34.9247C33.6999 35.3983 33.7339 35.8783 33.7225 36.3582H28.9365C28.9285 36.9256 29.0917 37.4823 29.4049 37.9555C29.5656 38.1587 29.7735 38.3195 30.0106 38.4238C30.2477 38.5281 30.5068 38.5727 30.7651 38.5537C31.0201 38.5646 31.2744 38.5198 31.5103 38.4223C31.7462 38.3248 31.958 38.1771 32.1309 37.9893C32.3225 37.7695 32.4615 37.509 32.5373 37.2274H33.6322C33.5815 37.5069 33.4842 37.7759 33.3444 38.0232C33.1935 38.2926 33.0032 38.538 32.78 38.7513C32.4391 39.0822 32.0099 39.3075 31.544 39.4003C31.2522 39.4717 30.9526 39.5059 30.6522 39.5019C30.2638 39.5064 29.8788 39.4294 29.522 39.2758C29.1652 39.1222 28.8446 38.8954 28.5809 38.6102C27.9838 37.9301 27.6795 37.0416 27.7343 36.1381C27.6921 35.2098 27.9957 34.2988 28.5865 33.5814C28.8642 33.2578 29.2116 33.0013 29.6026 32.8312C29.9936 32.6612 30.4181 32.5819 30.8441 32.5994C31.316 32.6112 31.7784 32.7351 32.193 32.9606V32.9606ZM32.5825 35.5229C32.5608 35.1295 32.457 34.745 32.2777 34.3942C32.128 34.1317 31.907 33.9171 31.6402 33.7753C31.3735 33.6334 31.072 33.5701 30.7708 33.5927C30.5312 33.5916 30.2942 33.6413 30.0752 33.7386C29.8563 33.8359 29.6606 33.9786 29.5009 34.1571C29.1456 34.5329 28.9442 35.0284 28.9365 35.5455L32.5825 35.5229ZM7.61369 32.6333H8.60701V33.8749C8.76298 33.5815 8.96712 33.3163 9.21092 33.0904C9.51306 32.7965 9.91818 32.6324 10.3397 32.6333H10.4357H10.684V33.762H10.509H10.3341C10.1042 33.748 9.87418 33.787 9.66181 33.876C9.44943 33.9651 9.26041 34.1018 9.10933 34.2756C8.82753 34.6839 8.676 35.168 8.67474 35.664V39.5301H7.63062L7.61369 32.6333Z" fill="#231F20">
  </path>
 </g>
 <defs>
  <clipPath id="clip0">
   <rect width="160" height="39.5723" fill="white">
   </rect>
  </clipPath>
 </defs>
</svg>