<?xml version="1.0" encoding="UTF-8"?> <!-- Generator: Adobe Illustrator 19.0.0, SVG Export Plug-In . SVG Version: 6.00 Build 0) --> <svg xmlns="http://www.w3.org/2000/svg" xmlns:xlink="http://www.w3.org/1999/xlink" version="1.1" id="Calque_1" x="0px" y="0px" viewBox="-32 34 34 34" style="enable-background:new -32 34 34 34;" xml:space="preserve"> <style type="text/css"> .st0{fill:#00ABC7;} .st1{fill:#0E2356;} </style> <g id="Symbols"> <g id="Menu-Mobile" transform="translate(-30.000000, -15.000000)"> <g id="Tête-octo" transform="translate(30.000000, 14.000000)"> <g id="Group-3" transform="translate(28.000000, 0.418600)"> <g id="Clip-2"> </g> <path id="Fill-1" class="st0" d="M-27.1,35.6c1,1,1,2.5,0,3.5s-2.5,1-3.5,0s-1-2.5,0-3.5C-29.6,34.7-28,34.7-27.1,35.6"></path> </g> <path id="Fill-4" class="st0" d="M-8.9,45.8c1,1,1,2.5,0,3.5s-2.5,1-3.5,0s-1-2.5,0-3.5C-11.4,44.9-9.9,44.9-8.9,45.8"></path> <g id="Group-8" transform="translate(0.000000, 0.418600)"> <g id="Clip-7"> </g> <path id="Fill-6" class="st1" d="M-15,61.3c-5.3,0-9.7-4.3-9.7-9.7c0-5.3,4.3-9.7,9.7-9.7s9.7,4.3,9.7,9.7 C-5.4,56.9-9.7,61.3-15,61.3 M-15,34.9c-9.2,0-16.7,7.5-16.7,16.7s7.5,16.7,16.7,16.7S1.7,60.8,1.7,51.6S-5.8,34.9-15,34.9"></path> </g> </g> </g> </g> </svg> 