<svg version="1.1" id="Layer_1" xmlns="http://www.w3.org/2000/svg" xmlns:xlink="http://www.w3.org/1999/xlink" x="0px" y="0px" viewBox="-463 450.1 151.2 180.9" style="enable-background:new -463 450.1 151.2 180.9;" xml:space="preserve">
 <style type="text/css">
  .st0{fill:#0F059E;}
 </style>
 <g transform="translate(0.000000,260.000000) scale(0.100000,-0.100000)">
  <path class="st0" d="M-4628.2-1914.4c0-9,6-16,13-16c18,0,53-39,62-68c4-13,7-326,7-696c0-608-1-676-16-708c-9-19-28-41-41-48
		c-24-13-33-29-17-31c4-1,76-2,159-3c118-1,154,1,158,12c2,7-6,17-20,22c-13,5-32,24-41,42c-15,29-18,69-19,316l-1,282l75,1
		c42,1,85,3,96,4c55,6,125,17,172,27c65,14,72,9,131-95c77-134,126-295,138-453c6-80,6-81-25-116c-17-20-28-38-24-40
		c18-9,327-2,330,7c1,6-13,20-32,32c-49,32-60,53-95,183c-55,204-129,370-210,478c-22,29-40,54-40,56s25,18,56,36
		c214,120,295,351,194,549c-51,100-135,170-259,215c-51,18-87,20-403,24C-4592.2-1899.4-4628.2-1900.4-4628.2-1914.4z
		 M-3940.2-2017.4c117-47,187-140,196-262c16-226-138-382-429-436c-72-13-197-18-204-7c-5,8-7,662-2,721c1,11,36,12,194,9
		C-4020.2-1996.4-3986.2-1999.4-3940.2-2017.4z">
  </path>
  <path class="st0" d="M-4254.2-2129.4c-9-9-3-18,20-29c56-25,61-48,62-274c0-114,3-211,7-214c8-8,90,13,129,33l28,13l2,193l3,192
		l93-1c103-1,103-1,60,61l-20,30h-190C-4164.2-2125.4-4251.2-2127.4-4254.2-2129.4z">
  </path>
  <path class="st0" d="M-3544.2-2156.4c4-11,12-40,18-65c8-33,19-51,40-65c65-42,118-153,118-248c0-150-86-275-241-349l-67-32l16-37
		c10-22,24-38,34-38c23,0,81-83,128-183c53-114,89-251,97-369c5-94,5-97-21-123c-14-14-26-30-26-35c0-6,67-10,165-10
		c177,0,195,6,132,45c-43,27-72,83-97,189c-41,169-128,366-211,475c-22,29-39,54-37,56c2,1,28,15,58,31s80,54,111,85
		c143,144,166,346,58,505c-56,82-165,160-248,179C-3547.2-2139.4-3550.2-2140.4-3544.2-2156.4z">
  </path>
  <path class="st0" d="M-4053.2-2841.4c-16-4-50-10-75-13l-45-6v-373c-1-346-2-374-19-404c-11-17-30-36-43-42c-53-24-21-31,142-31
		c91,0,165,4,165,9s-11,16-25,25c-51,33-54,52-56,350c-1,152,0,278,2,281c3,3,57,11,101,14c11,1-13,54-30,68c-8,7-27,9-43,6
		c-31-6-34,1-29,83C-4006.2-2836.4-4013.2-2831.4-4053.2-2841.4z">
  </path>
 </g>
</svg>