<svg version="1.1" id="Layer_1" xmlns="http://www.w3.org/2000/svg" xmlns:xlink="http://www.w3.org/1999/xlink" x="0px" y="0px" viewBox="1149 238 100 100" enable-background="new 1149 238 100 100" xml:space="preserve">
 <g>
  <path fill="#FFFFFF" d="M1247.9,288c0,27-21.9,48.9-48.9,48.9c-27,0-48.9-21.9-48.9-48.9c0-27,21.9-48.9,48.9-48.9
		C1226,239.1,1247.9,261,1247.9,288">
  </path>
  <path fill="#FFE900" d="M1199.1,319.5c17.4,0,31.6-14.1,31.6-31.6c0-17.4-14.1-31.6-31.6-31.6c-17.4,0-31.6,14.1-31.6,31.6
		C1167.5,305.4,1181.6,319.5,1199.1,319.5">
  </path>
  <polyline fill="#1D1D1B" points="1229.1,286.3 1232.1,285.5 1234.5,295.3 1239.1,294.2 1239,291.5 1237.7,291.8 1235.9,284.6 
		1239.1,283.8 1238.3,280.2 1235.1,281 1234.1,277 1230.6,279.4 1231.2,281.9 1228.2,282.7 1229,286.3 	">
  </polyline>
  <path fill="#1D1D1B" d="M1228.6,283c-1.2-1.2-2.9-2-5.1-2c-4.8,0-7.1,3.8-7.1,7v0c0,3.2,2.3,7,7.1,7c4.8,0,7.1-3.8,7.1-7
		c0-1.4-0.4-2.8-1.2-4L1228.6,283z M1226.6,288c0,1.9-1.4,3.3-3.2,3.3c-1.7,0-3.2-1.4-3.2-3.3v0c0-1.9,1.4-3.3,3.2-3.3
		C1225.2,284.7,1226.6,286.1,1226.6,288 M1216.3,288c0-3.2-2.3-7-7.1-7c-4.8,0-7.1,3.8-7.1,7v0c0,3.2,2.3,7,7.1,7
		C1214,295,1216.3,291.2,1216.3,288 M1212.4,288c0,1.9-1.4,3.3-3.2,3.3c-1.7,0-3.2-1.4-3.2-3.3v0c0-1.9,1.4-3.3,3.2-3.3
		C1210.9,284.7,1212.4,286.1,1212.4,288 M1198.2,286.5h4c-0.7-3.2-3.5-5.5-7-5.5c-3.9,0-6.9,3.1-6.9,7c0,3.9,3.1,7,7,7
		c3.6,0,6.2-2.4,6.9-5.4h-4c-0.4,0.8-1.2,1.8-2.8,1.8c-1.9,0-3.1-1.4-3.1-3.3c0-0.9,0.3-1.8,0.9-2.4c0.6-0.6,1.4-1,2.3-0.9
		C1196.9,284.6,1197.7,285.6,1198.2,286.5 M1184.1,285.1h3.9c-0.3-3.5-3.3-4.1-5.1-4.1c-2.7,0-5.1,1.7-5.1,4.5
		c0,1.8,1.4,2.9,3.1,3.4c2.5,1,3.5,1.1,3.5,2c0,0.6-0.7,1-1.4,1c-0.2,0-1.3,0-1.5-1.2h-3.9c0.4,3.5,3.4,4.4,5.4,4.4
		c2.9,0,5.4-1.7,5.4-4.6c0-2.8-2.4-3.5-4.6-4.1c-1-0.3-2-0.7-2-1.3c0-0.4,0.3-0.9,1.1-0.9C1184,284.1,1184.1,284.8,1184.1,285.1">
  </path>
 </g>
</svg>