<svg version="1.1" id="Layer_1" xmlns:x="ns_extend;" xmlns:i="ns_ai;" xmlns:graph="ns_graphs;" xmlns="http://www.w3.org/2000/svg" xmlns:xlink="http://www.w3.org/1999/xlink" x="0px" y="0px" viewBox="0 0 302.4 50" style="enable-background:new 0 0 302.4 50;" xml:space="preserve">
 <style type="text/css">
  .st0{fill-rule:evenodd;clip-rule:evenodd;fill:#009999;}
 </style>
 <metadata>
  <sfw xmlns="ns_sfw;">
   <slices>
   </slices>
   <sliceSourceBounds bottomLeftOrigin="true" height="50" width="302.4" x="-37.5" y="-210.8">
   </sliceSourceBounds>
  </sfw>
 </metadata>
 <g id="Siemens">
  <path id="path-1_1_" class="st0" d="M18.6,0c3,0,7.4,0.6,13.2,1.8v9.2c-4.3-1.8-8.2-2.7-11.9-2.7c-5.2,0-7.7,1.5-7.7,4.5
		c0,1.1,0.5,2,1.6,2.7c0.9,0.6,3.3,1.8,7.2,3.6c5.6,2.6,9.4,4.9,11.2,6.8c2.2,2.3,3.3,5.3,3.3,8.9c0,5.2-2.2,9.2-6.5,11.9
		c-3.5,2.2-8.1,3.3-13.7,3.3c-4.7,0-9.5-0.6-14.3-1.8v-9.5c5.2,1.7,9.8,2.6,13.7,2.6c5.5,0,8.3-1.5,8.3-4.6c0-1.1-0.4-2.1-1.2-2.9
		c-0.8-0.8-2.9-2-6.3-3.4c-6.1-2.6-10-4.8-11.8-6.7C1.2,21.4,0,18.3,0,14.6C0,9.8,1.7,6.2,5.2,3.7C8.6,1.2,13.1,0,18.6,0z M285.6,0
		c3.1,0,7.1,0.5,12,1.5l1.1,0.2v9.2c-4.3-1.8-8.3-2.7-11.9-2.7c-5.1,0-7.7,1.5-7.7,4.5c0,1.1,0.5,2,1.6,2.7c0.8,0.5,3.2,1.7,7.2,3.6
		c5.6,2.6,9.3,4.9,11.2,6.8c2.2,2.3,3.3,5.3,3.3,8.9c0,5.2-2.2,9.2-6.5,11.9c-3.5,2.2-8.1,3.3-13.7,3.3c-4.7,0-9.5-0.6-14.3-1.8
		v-9.5c5.1,1.7,9.7,2.6,13.7,2.6c5.5,0,8.2-1.5,8.2-4.6c0-1.1-0.4-2.1-1.2-2.9c-0.8-0.8-2.9-2-6.3-3.4c-6-2.6-10-4.8-11.9-6.7
		c-2.4-2.4-3.6-5.5-3.6-9.2c0-4.7,1.7-8.4,5.2-10.9C275.6,1.2,280.1,0,285.6,0z M125.9,0.8l11.6,30.8l11.9-30.8h15.8V49H153V14.9
		l-13.5,34.6h-8l-13.2-34.6V49h-9.1V0.8H125.9z M55.5,0.8V49H42.7V0.8H55.5z M100.3,0.8v8.7H79.7v10.9h17.9v8H79.7v11.4h21.1V49
		H67.3V0.8H100.3z M210,0.8v8.7h-20.6v10.9h17.9v8h-17.9v11.4h21.1V49H177V0.8H210z M233.9,0.8l15.8,32.3V0.8h9.1V49h-14.5
		l-16.2-32.7V49H219V0.8H233.9z">
  </path>
 </g>
</svg>