<svg version="1.1" id="Layer_1" xmlns="http://www.w3.org/2000/svg" xmlns:xlink="http://www.w3.org/1999/xlink" x="0px" y="0px" viewBox="0 0 124 45.5" style="enable-background:new 0 0 124 45.5;" xml:space="preserve">
 <style type="text/css">
  .st0{fill-rule:evenodd;clip-rule:evenodd;fill:#F99F1C;}
	.st1{fill:#232F67;}
 </style>
 <g>
  <path class="st0" d="M0,42.8h85.8l-1.7,2.7H0C0,45.5,0,42.8,0,42.8z M101.5,41.6h-3.2l6.4-10.1c0,0,1-2.1-0.3-4.3l-8.9-14.7
		c0,0-0.8-1.4,0-2.7L98.1,6l10.4,17c0,0,2.7,3.6-0.2,8L101.5,41.6z M109.1,38.5l3.9-5.9c0,0,1.1-2.4,4.1-2.4h4.1l2.9,4.5
		c0,0-2.3-0.2-3.3,1.4l-4.2,6.4c0,0-1.4,3-5.1,3H91.5l7.6-11.6c0,0,1.1-1.4-0.4-3.6l-6.7-10.8c0,0-1.7-1.6,0.1-4.3l2-3l9.4,15.2
		c0,0,1.7,2.1,0,4.6l-7,11h14.8c0,0,1.7,0.3,3.1-1.8l3.7-5.7c0,0,0.8-1.9,2.7-2.7h-3c0,0-1.6,0.1-2.7,1.9l-3.3,5.1
		c0,0-1.2,2.1-3.8,2.1h-5.2l6.3-9.7c0,0,3.4-4.5,1-8.6L99.5,6.3c0,0-0.8-1.5,0.1-2.9l2.3-3.4l11.8,19c0,0,1.7,2.8,1.7,5
		c0,2.2-1.4,4.7-2.1,6l-5.2,8.1c0,0-0.6,0.8-0.2,1.1C108.3,39.5,108.7,39,109.1,38.5L109.1,38.5z">
  </path>
  <path class="st1" d="M24.3,22.9c0,3.5,3.4,4.3,4.1,4.3H33v-5.6h-1.8v4h-2.5v0c-0.3,0-2.6-0.6-2.6-2.8c0-2.9,2.7-2.9,2.7-2.9H33
		v-1.6h-4.5C27.3,18.4,24.3,19.5,24.3,22.9z">
  </path>
  <path class="st1" d="M41,32.9c0-2.5-2.5-2.6-2.5-2.6h-5.2v8.8H35v-7.4h2.6c0.3,0,1.4,0.1,1.4,1.4c0,1.4-1.4,1.4-1.4,1.4h-1.9
		l3.7,4.6h2.3l-2.7-3.3C41.2,35,41,32.9,41,32.9z">
  </path>
  <path class="st1" d="M40.3,18.4h-2l-4.2,8.8h2l1.1-2.6h4.1l1.1,2.6h2L40.3,18.4z M40.7,23.1h-2.8l1.4-3.1L40.7,23.1L40.7,23.1z">
  </path>
  <rect x="28.6" y="30.3" class="st1" width="1.8" height="8.8">
  </rect>
  <path class="st1" d="M5.9,22.2H3.3c-0.7,0-1.4-0.2-1.4-1.2S3,20,3,20h4.9v-1.6H2.3c0,0-2.2,0-2.2,2.7c0,2.7,2.3,2.5,2.3,2.5h3
		c0.3,0,1-0.1,1,1.1s-1,1-1,1H0.2v1.5l0,0v0h5.7c0,0,2.3,0,2.3-2.6C8.1,22,5.9,22.2,5.9,22.2z">
  </path>
  <polygon class="st1" points="45.1,30.3 43.2,30.3 43.2,39.1 49.5,39.1 49.5,37.6 45.1,37.6 	">
  </polygon>
  <polygon class="st1" points="82.4,25.8 77.4,25.8 77.4,23.6 81.7,23.6 81.7,22 77.4,22 77.4,19.9 82.4,19.9 82.4,18.4 75.5,18.4 
		75.5,18.4 75.5,27.2 82.4,27.2 	">
  </polygon>
  <rect x="10.1" y="18.4" class="st1" width="1.8" height="8.8">
  </rect>
  <path class="st1" d="M21.2,30.3L17,39.1h2l1.1-2.6h4.1l1.1,2.6h2l-4.1-8.8H21.2z M20.7,35l1.4-3.2l1.3,3.2H20.7z">
  </path>
  <path class="st1" d="M20.8,21.2v6h1.9v-5.8c0-3.2-3-3-3-3h-2.2l-1.2,1.3v-1.3h-1.8l0,0v8.8h1.8V20h3.2C20.7,20,20.8,21.2,20.8,21.2
		z">
  </path>
  <rect x="50.9" y="30.3" class="st1" width="1.8" height="8.8">
  </rect>
  <path class="st1" d="M59.2,17.9L59.2,17.9c-2.7,0-4.8,2.2-4.8,4.8c0,2.6,2.2,4.8,4.8,4.8c2.7,0,4.8-2.2,4.8-4.8
		C64,20,61.9,17.9,59.2,17.9z M59.2,25.7c-1.7,0-3.1-1.4-3.1-3c0-1.7,1.4-3.1,3.1-3.1c1.7,0,3.1,1.4,3.1,3.1
		C62.3,24.4,60.9,25.7,59.2,25.7z">
  </path>
  <path class="st1" d="M60.4,30.3h-2.2L57,31.6v-1.4h-1.8v0v8.8H57v-7.3h3.2c1.3,0,1.3,1.2,1.3,1.2v6.1h1.9v-5.8
		C63.3,30.1,60.4,30.3,60.4,30.3z">
  </path>
  <polygon class="st1" points="65.8,30.3 65.8,39.1 72.7,39.1 72.7,37.6 67.6,37.6 67.6,35.5 71.9,35.5 71.9,33.9 67.6,33.9 
		67.6,31.7 72.7,31.7 72.7,30.3 65.8,30.3 	">
  </polygon>
  <path class="st1" d="M80.5,34.1h-2.6c-0.7,0-1.4-0.2-1.4-1.2s1.1-1,1.1-1h4.9v-1.6h-5.6c0,0-2.2,0-2.2,2.7c0,2.7,2.3,2.5,2.3,2.5h3
		c0.3,0,1-0.1,1,1.1s-1,1-1,1h-5.1v1.5l0,0h5.7c0,0,2.3,0,2.3-2.6S80.5,34.1,80.5,34.1z">
  </path>
  <path class="st1" d="M73.2,21c0-2.5-2.5-2.6-2.5-2.6h-5.2v8.8c0,0,1.8,0,1.8,0v-7.4h2.6c0.3,0,1.4,0.1,1.4,1.4
		c0,1.4-1.4,1.4-1.4,1.4H68l3.7,4.6H74l-2.7-3.3C73.5,23.1,73.2,21,73.2,21z">
  </path>
  <path class="st1" d="M50.8,18.4h-5.1v8.8h1.9v-4.3l1,1.3h2.1c0.9,0,2.8-0.6,2.8-3.1C53.3,18.6,50.8,18.4,50.8,18.4z M49.9,22.7
		h-2.5v-2.9h2.5c0,0,1.6-0.1,1.6,1.5C51.5,22.6,50.2,22.7,49.9,22.7z">
  </path>
 </g>
</svg>