<svg id="logo_smatis" viewBox="0 0 401.432 512" xmlns="http://www.w3.org/2000/svg">
<g class="ugo">
<g transform="translate(120.981 433.546)">
<path d="M131.127,484.122l2.289-14.292h2.742l3.555,8.555,3.555-8.555h2.742l2.289,14.292H145l-1.133-8.528-3.582,8.528h-1.155l-3.582-8.528-1.133,8.528H131.1Z" fill="#153557" transform="translate(-131.1 -469.818)"></path>
<path d="M160.495,472.618h-4.782v2.769h4.542v2.786h-4.542v3.173h4.782v2.786H152.42V469.84h8.075v2.786Z" fill="#153557" transform="translate(-132.746 -469.819)"></path>
<path d="M163.35,484.122l2.289-14.292h2.742l3.555,8.555,3.555-8.555h2.742l2.289,14.292h-3.3l-1.133-8.528-3.582,8.528h-1.155l-3.582-8.528-1.133,8.528h-3.3Z" fill="#153557" transform="translate(-133.583 -469.818)"></path>
<path d="M189.023,469.831a5.444,5.444,0,0,1,3.644,1.089,3.676,3.676,0,0,1,1.022,2.7,3.328,3.328,0,0,1-.471,1.818,2.665,2.665,0,0,1-1.2,1.053,3.768,3.768,0,0,1,1.973.969,3.484,3.484,0,0,1,.924,2.546A3.867,3.867,0,0,1,193.8,482.9a5.414,5.414,0,0,1-3.773,1.218H184.65V469.823h4.373Zm-1.115,5.8h.533a3.06,3.06,0,0,0,1.671-.4,1.532,1.532,0,0,0,.582-1.262,1.457,1.457,0,0,0-.556-1.2,2.779,2.779,0,0,0-1.715-.36h-.516v3.24Zm0,5.915h.8a3.6,3.6,0,0,0,2.444-.582,1.587,1.587,0,0,0,.471-1.2,1.533,1.533,0,0,0-.444-1.156,3.707,3.707,0,0,0-2.351-.533h-.889v3.471Z" fill="#153557" transform="translate(-135.232 -469.819)"></path>
<path d="M203.462,469.836a5.125,5.125,0,0,1,3.644,1.244,4.31,4.31,0,0,1,1.244,3.191,3.924,3.924,0,0,1-1.116,2.915,4.4,4.4,0,0,1-2,1.089l4.391,5.848H205.6l-3.857-5.64v5.64h-3.3V469.836h5.013Zm-1.715,6.5h.747a2.741,2.741,0,0,0,1.973-.618,1.947,1.947,0,0,0,.533-1.4,1.743,1.743,0,0,0-.667-1.458,3.234,3.234,0,0,0-1.817-.444h-.773Z" fill="#153557" transform="translate(-136.299 -469.824)"></path>
<path d="M220.615,472.618h-4.782v2.769h4.529v2.786H215.82v3.173H220.6v2.786H212.54V469.84h8.075v2.786Z" fill="#153557" transform="translate(-137.386 -469.819)"></path>
</g>
<g transform="translate(86.984 452.654)">
<path d="M98.78,490.924a7.555,7.555,0,0,1,5.639,1.973,6.813,6.813,0,0,1,2.058,5.12,6.888,6.888,0,0,1-1.947,5.058,7.706,7.706,0,0,1-5.64,2.142H94.26V490.924Zm-1.231,11.51h.889a5.181,5.181,0,0,0,3.258-.96,4.445,4.445,0,0,0,1.4-3.453,4.111,4.111,0,0,0-1.182-3.084,4.715,4.715,0,0,0-3.471-1.218h-.889Z" fill="#153557" transform="translate(-94.26 -490.568)"></path>
<path d="M122.259,499.371a6.075,6.075,0,0,1-1.587,4.52,6.929,6.929,0,0,1-8.915,0,6.075,6.075,0,0,1-1.587-4.52v-8.444h3.3v8.382a3.4,3.4,0,0,0,.747,2.4,3.031,3.031,0,0,0,4,0,3.354,3.354,0,0,0,.747-2.4v-8.4h3.3Z" fill="#153557" transform="translate(-95.497 -490.554)"></path>
<path d="M138.879,497.389h7.111v.147a9.253,9.253,0,0,1-2.223,6.019,6.553,6.553,0,0,1-5.1,1.945,6.756,6.756,0,0,1-5.231-1.991,7.554,7.554,0,0,1-2.1-5.444,7.653,7.653,0,0,1,2.057-5.427A7.359,7.359,0,0,1,139,490.563a7.2,7.2,0,0,1,4,1.071,7.947,7.947,0,0,1,2.315,2.546l-2.982,1.6a4.366,4.366,0,0,0-1.262-1.542,3.6,3.6,0,0,0-2.186-.684,3.843,3.843,0,0,0-2.951,1.156,4.888,4.888,0,0,0-1.218,3.386,4.478,4.478,0,0,0,1.2,3.275,3.756,3.756,0,0,0,2.889,1.116,3.6,3.6,0,0,0,2.484-.773,3.308,3.308,0,0,0,1.022-1.689h-3.453v-2.667Z" fill="#153557" transform="translate(-97.123 -490.535)"></path>
<path d="M154.882,490.916a5.123,5.123,0,0,1,3.644,1.244,4.31,4.31,0,0,1,1.244,3.191,3.924,3.924,0,0,1-1.115,2.915,4.4,4.4,0,0,1-2,1.089l4.391,5.849h-4.031l-3.857-5.64v5.64h-3.3V490.916h5.013Zm-1.715,6.5h.747a2.741,2.741,0,0,0,1.973-.618,1.912,1.912,0,0,0,.533-1.4,1.742,1.742,0,0,0-.667-1.458,3.233,3.233,0,0,0-1.818-.445h-.787Z" fill="#153557" transform="translate(-98.553 -490.56)"></path>
<path d="M176.564,492.669a7.448,7.448,0,0,1,2.222,5.4,7.369,7.369,0,0,1-2.222,5.333,7.645,7.645,0,0,1-5.528,2.1,7.853,7.853,0,0,1-5.573-2.1,7.271,7.271,0,0,1-2.222-5.333,7.883,7.883,0,0,1,2.222-5.417,8.444,8.444,0,0,1,11.11-.027Zm-8.675,2.187a4.4,4.4,0,0,0-1.262,3.24A4.257,4.257,0,0,0,171,502.486a4.354,4.354,0,0,0,3.173-1.218,4.289,4.289,0,0,0,1.244-3.191,4.476,4.476,0,0,0-1.244-3.213,4.6,4.6,0,0,0-3.146-1.217,4.315,4.315,0,0,0-3.111,1.218Z" fill="#153557" transform="translate(-99.588 -490.553)"></path>
<path d="M194.869,499.371a6.075,6.075,0,0,1-1.587,4.52,6.928,6.928,0,0,1-8.915,0,6.075,6.075,0,0,1-1.587-4.52v-8.444h3.3v8.382a3.4,3.4,0,0,0,.747,2.4,3.031,3.031,0,0,0,4,0,3.354,3.354,0,0,0,.747-2.4v-8.4h3.3Z" fill="#153557" transform="translate(-101.103 -490.554)"></path>
<path d="M204.286,490.92a5.36,5.36,0,0,1,3.746,1.182,4.4,4.4,0,0,1,1.4,3.471,4.622,4.622,0,0,1-1.218,3.369,4.889,4.889,0,0,1-3.644,1.262h-2.013v5.013h-3.3v-14.3Zm-1.733,6.582h1.182a2.515,2.515,0,0,0,1.778-.533,2,2,0,0,0,.533-1.413,1.858,1.858,0,0,0-.533-1.4,2.578,2.578,0,0,0-1.844-.533h-1.115Z" fill="#153557" transform="translate(-102.362 -490.564)"></path>
<path d="M220.615,493.7h-4.782v2.769h4.529v2.786H215.82v3.173H220.6v2.786H212.54V490.92h8.075v2.786Z" fill="#153557" transform="translate(-103.389 -490.555)"></path>
</g>
<g transform="translate(214.781 420.906)">
<path d="M401.044,456.18a29.1,29.1,0,1,0,29.1,29.1A29.1,29.1,0,0,0,401.044,456.18Zm0,45.081a15.972,15.972,0,1,1,15.972-15.972A15.972,15.972,0,0,1,401.044,501.261Z" fill="#153557" transform="translate(-243.498 -456.126)"></path>
<path d="M277.83,485.252a15.974,15.974,0,1,1-31.948,0v-28.8H232.75v28.8a29.109,29.109,0,0,0,58.217,0v-28.8H277.835Z" fill="#153557" transform="translate(-232.75 -456.143)"></path>
<path d="M331.414,539.262a16,16,0,0,1-15.972-15.972H302.31a29.109,29.109,0,1,0,58.217,0H347.4a16,16,0,0,1-15.981,15.972Z" fill="#c7d30d" transform="translate(-238.12 -461.304)"></path>
<path d="M331.445,456.12a29.122,29.122,0,1,0,25.633,15.337h3.471V458.324H342.555a28.924,28.924,0,0,0-11.11-2.2Zm15.972,29.1a15.972,15.972,0,1,1-15.972-15.972,15.972,15.972,0,0,1,15.972,15.972Z" fill="#153557" transform="translate(-238.15 -456.12)"></path>
</g>
</g>
<rect class="square" fill="#063d7a" height="401.428" width="401.428"></rect>
<g class="logo-inner" transform="translate(64.43 121.856)">
<path class="mutuelle" d="M98.126,141.471a9.19,9.19,0,0,0-7.51,3.422,7.786,7.786,0,0,0-6.822-3.422,8.812,8.812,0,0,0-6.222,2.511V141.76H72.51v24.287h5.151V151.262a4.64,4.64,0,0,1,4.808-5.186c2.964,0,4.671,1.893,4.671,5.186v14.785h5.146V151.035a4.577,4.577,0,0,1,4.809-4.946c2.964,0,4.671,1.893,4.671,5.186V166.06h5.151V150.582a9.1,9.1,0,0,0-2.6-6.884,8.888,8.888,0,0,0-6.164-2.222Zm29.473.284h-.156v14.785a4.64,4.64,0,0,1-4.809,5.186c-2.964,0-4.671-1.893-4.671-5.186V141.756h-5.146v15.492a8.857,8.857,0,0,0,2.462,6.884,8.444,8.444,0,0,0,6.026,2.222,8.7,8.7,0,0,0,6.222-2.511v2.222h5.048v-24.3H127.6Zm17.1.444v-7.288h-5.128V142.2H136.82v4h2.751v13.039a6.435,6.435,0,0,0,6.737,6.831h3.04v-4.444H147.2c-1.653,0-2.493-.889-2.493-2.631V146.187h4.644v-4H144.69Zm24.065-.444h-.156v14.785a4.64,4.64,0,0,1-4.808,5.186c-2.964,0-4.671-1.893-4.671-5.186V141.756h-5.146v15.492a8.857,8.857,0,0,0,2.462,6.884,8.444,8.444,0,0,0,6.026,2.222,8.7,8.7,0,0,0,6.222-2.511v2.222h5.048v-24.3h-4.973Zm20.487-.284c-6.377,0-10.337,4.751-10.337,12.412,0,10.3,5.951,12.466,10.946,12.466a11.43,11.43,0,0,0,9.1-3.782l.12-.111-.12-.111-3.071-2.889-.111-.111-.111.111a7.026,7.026,0,0,1-5.7,2.418,5.724,5.724,0,0,1-5.951-6.4h15.554v-2.289a12.777,12.777,0,0,0-2.711-8.444,9.666,9.666,0,0,0-7.622-3.275Zm-5.24,10.319a7.253,7.253,0,0,1,.6-3.044,4.826,4.826,0,0,1,4.631-2.933,4.764,4.764,0,0,1,4.586,2.933,7.222,7.222,0,0,1,.635,3.044Zm28.126,9.839c-1.733,0-2.435-.764-2.435-2.631V132.05h-5.151v27.224a6.288,6.288,0,0,0,6.737,6.782h3.138v-4.444h-2.289Zm13.777,0c-1.733,0-2.444-.764-2.444-2.631V132.05h-5.142v27.224a6.288,6.288,0,0,0,6.737,6.782H228.2v-4.444h-2.289Zm21.851-16.887a9.666,9.666,0,0,0-7.622-3.275c-6.377,0-10.337,4.751-10.337,12.412,0,10.3,5.951,12.466,10.955,12.466a11.43,11.43,0,0,0,9.1-3.782l.12-.111-.12-.111-3.071-2.889-.111-.111-.111.111a7.026,7.026,0,0,1-5.7,2.418,5.724,5.724,0,0,1-5.933-6.4h15.554v-2.307a12.777,12.777,0,0,0-2.711-8.444Zm-12.843,7.039a7.253,7.253,0,0,1,.6-3.044,4.826,4.826,0,0,1,4.631-2.933,4.764,4.764,0,0,1,4.586,2.933,7.222,7.222,0,0,1,.635,3.044Z" fill="#c8d400" transform="translate(-70.026 -132.05)"></path>
<g class="smatis" fill="#fff">
<path d="M91.827,245.87a28.753,28.753,0,0,1-22.007-7.555l6.919-6.95a20.3,20.3,0,0,0,15.11,5.5c6.4,0,11.47-2.28,11.47-7.253,0-3.555-1.964-5.8-7.031-6.222l-8.368-.729c-9.817-.831-15.5-5.288-15.5-14.514,0-10.261,8.786-16.074,19.741-16.074a28.682,28.682,0,0,1,19.425,5.906l-6.617,6.746a19.759,19.759,0,0,0-12.946-3.875c-6.3,0-9.506,2.8-9.506,6.746,0,3.111,1.653,5.488,7.235,6.017l8.27.729c9.817.822,15.6,5.493,15.6,14.83,0,10.99-9.3,16.692-21.807,16.692Z" transform="translate(-69.82 -136.71)"></path>
<path d="M189.438,240.516V208.608c0-8.195-4.653-11.719-10.537-11.719a10.293,10.293,0,0,0-10.852,11.2V240.64H157.512V208.6c0-8.195-4.653-11.719-10.537-11.719A10.448,10.448,0,0,0,136.131,208.6V240.64H125.59V188.063h10.337v5.288a18.963,18.963,0,0,1,13.954-5.906,16.7,16.7,0,0,1,14.874,7.679,19.851,19.851,0,0,1,16.443-7.679,18.874,18.874,0,0,1,13.226,4.782,19.553,19.553,0,0,1,5.582,14.821v33.459H189.46Z" transform="translate(-74.128 -136.338)"></path>
<path d="M287.148,244.013A13.652,13.652,0,0,1,272.789,229.4V200.466h-6v-8.1h6V176.41h10.528v15.954H293.45v8.093H283.317v28.411a5.333,5.333,0,0,0,5.777,6.119h4.337v9.026h-6.3Z" transform="translate(-85.028 -135.476)"></path>
<path d="M347.407,245.869a28.754,28.754,0,0,1-22.007-7.555l6.919-6.95a20.3,20.3,0,0,0,15.11,5.5c6.413,0,11.47-2.28,11.47-7.253,0-3.555-1.964-5.8-7.031-6.222l-8.368-.729c-9.817-.831-15.5-5.288-15.5-14.514,0-10.261,8.786-16.074,19.74-16.074a28.722,28.722,0,0,1,19.434,5.906l-6.617,6.746a19.762,19.762,0,0,0-12.888-3.84c-6.3,0-9.506,2.8-9.506,6.746,0,3.111,1.653,5.488,7.235,6.017l8.27.729c9.817.822,15.6,5.493,15.6,14.83,0,10.99-9.3,16.692-21.807,16.692Z" transform="translate(-89.554 -136.71)"></path>
<path d="M234.811,192.02c-1.422,0-2.742.053-7.133.156v9.088c4.209-.156,5.382-.231,6.728-.231,8.159,0,11.47,3.213,11.47,9.857v3.729H232.033c-12,0-18.087,6.328-18.087,15.145a16.19,16.19,0,0,0,4.133,11.306,18.5,18.5,0,0,0,14.052,4.773,17.207,17.207,0,0,0,13.954-5.4v4.773h10.346V210.068c0-11.923-7.226-18.043-21.594-18.043Zm11.057,34.219a10.6,10.6,0,0,1-2.271,7.777,12.443,12.443,0,0,1-9.817,3.009c-6.608,0-9.608-2.693-9.608-7.466s3.213-7.555,9.4-7.555h12.292v4.244Z" transform="translate(-80.953 -136.678)"></path>
<rect height="51.573" transform="translate(218.803 56.955)" width="10.537"></rect>
</g>
<rect class="line" fill="#c8d400" height="10.51" transform="translate(218.803 40.232)" width="10.51"></rect>
<rect class="line" fill="#c8d400" height="10.279" transform="translate(51.462 116.483)" width="74.349"></rect>
</g>
<g class="france" transform="translate(66.172 259.75)">
<path d="M74.643,284.29v5.9h8.039v2.631H74.643v8.164H71.71V281.65H84.064v2.631H74.643Z" fill="#fff" transform="translate(-71.71 -281.498)"></path>
<path d="M137.873,301l-4.071-8.146h-3.671V301H127.2V281.666h7.5a5.537,5.537,0,0,1,6.008,5.648,5.084,5.084,0,0,1-3.857,5.128L141.295,301h-3.422Zm-3.4-16.7h-4.346v6.062h4.346a3.04,3.04,0,1,0,0-6.062Z" fill="#fff" transform="translate(-76.002 -281.514)"></path>
<path d="M195.65,300.988l-1.333-3.884h-7.63l-1.333,3.884h-3.111l7.088-19.34h2.364l7.075,19.34Zm-5.075-14.968-3.018,8.582h5.951Z" fill="#fff" transform="translate(-80.237 -281.505)"></path>
<path d="M253.276,300.982l-8.933-13.612v13.612H241.41V281.65h2.667l8.932,13.586V281.65h2.933v19.332Z" fill="#fff" transform="translate(-84.81 -281.498)"></path>
<path d="M307.119,301.147a7,7,0,0,1-5.084-2.066c-1.9-1.9-1.875-4.04-1.875-7.768s-.027-5.871,1.875-7.768a7.026,7.026,0,0,1,5.084-2.066,6.666,6.666,0,0,1,6.893,5.942H311a4,4,0,0,0-6.764-2.142c-.951,1.035-1.173,2.142-1.173,6.026s.222,5,1.173,6.035a4.026,4.026,0,0,0,6.791-2.151h2.964a6.666,6.666,0,0,1-6.893,5.942Z" fill="#fff" transform="translate(-89.347 -281.473)"></path>
<path d="M357.67,300.982V281.65h12.354v2.631H360.6v5.648h8.039v2.613H360.6v5.813h9.421v2.626Z" fill="#fff" transform="translate(-93.786 -281.498)"></path>
</g>
</svg>