<svg xmlns="http://www.w3.org/2000/svg" xml:space="preserve" viewBox="0 0 147 31" y="0" x="0" id="Calque_2" version="1.1" focusable="false" aria-label="Sociéte générale" xmlns:xlink="http://www.w3.org/1999/xlink">
 <style id="style2" type="text/css">
 </style>
 <path id="rect4" fill="#e60028" d="M1.311 1.885h28.3v14.5h-28.3z">
 </path>
 <path id="rect6" d="M1.311 15.985h28.3v14.2h-28.3z">
 </path>
 <g transform="translate(-410.389 -281.615)" id="g22">
  <g id="g20">
   <g id="g18">
    <g id="g16">
     <g id="g14">
      <g id="g12">
       <g id="g10">
        <path id="rect8" fill="#fff" d="M416.6 296.8H435v1.7h-18.4z">
        </path>
       </g>
      </g>
     </g>
    </g>
   </g>
  </g>
 </g>
 <g transform="translate(-410.389 -281.615)" id="g92">
  <path id="path62" d="M458.9 286.6c-1.5-.6-3.2-1.1-4.6-1.1-2.1 0-3.2.5-3.2 1.3 0 2.3 9.5.5 9.5 5.5 0 2.1-1.9 3.7-5.8 3.7-2.3 0-4.1-.5-6.2-1.6l.9-1.9c1.8 1 3.5 1.5 5.3 1.5 2.3 0 3.5-.7 3.5-1.7 0-2.6-9.5-.6-9.5-5.3 0-2 1.9-3.4 5.4-3.4 2.1 0 3.8.5 5.5 1.3z">
  </path>
  <path id="path64" d="M469.4 296c-3.8 0-6.9-2.5-6.9-6.3 0-3.7 3.1-6.3 6.9-6.3 3.8 0 6.9 2.6 6.9 6.3 0 3.8-3.1 6.3-6.9 6.3m0-10.5c-2.8 0-4.6 1.9-4.6 4.3s1.8 4.3 4.6 4.3 4.6-1.8 4.6-4.3c0-2.4-1.8-4.3-4.6-4.3">
  </path>
  <path id="path66" d="M485.3 296c-4 0-7-2.5-7-6.3 0-3.7 3-6.3 7-6.3 2.3 0 4 .7 5.5 1.8l-1.2 1.7c-1.1-.8-2.5-1.5-4.3-1.5-2.9 0-4.7 1.8-4.7 4.2 0 2.4 1.8 4.2 4.7 4.2 1.8 0 3.3-.6 4.3-1.4l1.2 1.7c-1.4 1.3-3.2 1.9-5.5 1.9">
  </path>
  <path id="rect68" d="M493.3 283.8h2.2v11.9h-2.2z">
  </path>
  <path id="polygon70" d="M510 295.7h-11.2v-11.9h10.8v2H501v2.9h6.7v1.9H501v3.1h9z">
  </path>
  <path id="polygon72" d="M516 285.8h-4.9v-2H523v2h-4.8v9.9H516z">
  </path>
  <path id="polygon74" d="M536 295.7h-11.2v-11.9h10.8v2H527v2.9h6.7v1.9H527v3.1h9z">
  </path>
  <path id="path76" d="M455.3 309.7c1.2 0 2.4-.3 3.4-.7v-3.4h2.1v4.6c-1.5 1-3.6 1.6-5.6 1.6-4 0-7-2.5-7-6.3 0-3.7 3-6.3 7-6.3 2.3 0 4 .6 5.5 1.8l-1.2 1.7c-1.1-.8-2.5-1.4-4.3-1.4-2.9-.1-4.7 1.8-4.7 4.2.1 2.5 1.9 4.2 4.8 4.2">
  </path>
  <path id="polygon78" d="M474.9 311.5h-11.2v-11.9h10.8v2h-8.6v2.9h6.7v1.9h-6.7v3.1h9z">
  </path>
  <path id="path80" d="M479.2 311.5H477v-11.9h2.2l7.7 8.9h.1c-.1-2.2-.1-4.1-.1-5.8v-3.1h2.1v11.9h-2.2l-7.7-8.9c.1 1.8.1 4.8.1 5.8z">
  </path>
  <path id="polygon82" d="M503.4 311.5h-11.2v-11.9H503v2h-8.6v2.9h6.7v1.9h-6.7v3.1h9z">
  </path>
  <path id="path84" d="M511.4 307.1h-3.5v4.4h-2.2v-11.9h7.6c2.5 0 4.1 1.6 4.1 3.8 0 2.1-1.5 3.4-3.4 3.7l3.5 4.4h-2.8zm1.7-1.9c1.4 0 2.2-.7 2.2-1.7 0-1.1-.7-1.8-1.9-1.8H508v3.6h5.1z">
  </path>
  <path id="path86" d="M522 308.6l-1.4 2.9h-2.4l5.8-11.9h2.3l5.8 11.9h-2.4l-1.4-2.9zm1-1.9h4.6l-2.3-4.8z">
  </path>
  <path id="polygon88" d="M543.9 311.5h-10.1v-11.9h2.2v9.9h7.9z">
  </path>
  <path id="polygon90" d="M556.6 311.5h-11.2v-11.9h10.8v2h-8.6v2.9h6.7v1.9h-6.7v3.1h9z">
  </path>
 </g>
</svg>