<svg version="1.1" id="Layer_1" xmlns:x="ns_extend;" xmlns:i="ns_ai;" xmlns:graph="ns_graphs;" xmlns="http://www.w3.org/2000/svg" xmlns:xlink="http://www.w3.org/1999/xlink" x="0px" y="0px" viewBox="0 0 443.2 90" style="enable-background:new 0 0 443.2 90;" xml:space="preserve">
 <style type="text/css">
  .st0{fill:url(#SVGID_1_);}
	.st1{fill:#011F3D;}
 </style>
 <metadata>
  <sfw xmlns="ns_sfw;">
   <slices>
   </slices>
   <sliceSourceBounds bottomLeftOrigin="true" height="90" width="443.2" x="1652" y="0">
   </sliceSourceBounds>
  </sfw>
 </metadata>
 <g>
  <g>
   <linearGradient id="SVGID_1_" gradientUnits="userSpaceOnUse" x1="0" y1="-289.4" x2="72.7853" y2="-289.4" gradientTransform="matrix(1 0 0 -1 0 -244.4)">
    <stop offset="0" style="stop-color:#8E3CF7">
    </stop>
    <stop offset="1" style="stop-color:#3CC1B7">
    </stop>
   </linearGradient>
   <path class="st0" d="M39.6,37.4C27.8,34.4,17,30.5,17,17H0c0,25.4,16.6,31.4,33.2,35.6c11.8,3,22.6,5.8,22.6,20.4h17
			C72.8,47.4,56,41.6,39.6,37.4z">
   </path>
   <path class="st1" d="M13.7,90h25c9.4,0,17.1-7.2,17.1-17H13.7V90z">
   </path>
   <path class="st1" d="M59,0H34.1C24.7,0,17,7.2,17,17h42V0z">
   </path>
  </g>
  <path class="st1" d="M110.7,49c-6.8-1-9.5-2.6-9.5-5c0-2.3,3-3.5,6.1-3.5c3.3,0,6.8,1.8,8.5,5l7.5-4.6c-3-5.8-8.1-8.9-16-8.9
		c-8.2,0-15.2,5-15.2,12.3c0,7,5,10.9,13.5,12.2c6.5,1,9.2,2.4,9.2,5c0,2.2-2.6,3.9-6.7,3.9c-4.1,0-7.4-2.8-8.8-6l-8.4,4.6
		c2.4,6.1,8.9,9.8,17,9.8c9.2,0,16.3-4.6,16.3-12.7C124.1,53.4,118.9,50.3,110.7,49z">
  </path>
  <path class="st1" d="M148.9,32c-12.3,0-21.3,8.7-21.3,21s9,21,21.3,21c12.3,0,21.4-8.7,21.4-21S161.2,32,148.9,32z M148.9,65.3
		c-6.9,0-11.9-5-11.9-12.3s5-12.3,11.9-12.3c6.9,0,11.9,5,11.9,12.3S155.7,65.3,148.9,65.3z">
  </path>
  <path class="st1" d="M386,32c-12.3,0-20.7,8.7-20.7,21s8.4,21,20.7,21c9,0,14-3,18-8.2l-7.2-5.4c-2.4,3.1-5.5,5.2-10.8,5.2
		c-6.2,0-10.4-4-11.3-10h31.5v-3.4C406.1,40.4,398,32,386,32z M375.2,48c1.6-4.8,5.4-8,10.8-8c5.8,0,9.5,3.6,10.7,8H375.2z">
  </path>
  <path class="st1" d="M417.7,33l-6.4,15.5h3.6l1.4-3.5h6.2l1.4,3.5h3.6L421,33H417.7z M417.4,42.1l2-5.3l2,5.3H417.4z">
  </path>
  <path class="st1" d="M216.4,21.1h-9.1V33H203h-14.7v-7.4h11V17h-11.5c-5.6,0-8.7,3-8.7,8.6V33h-8.3v8.6h8.3V73h9.1V41.6H203h4.2
		v22.8c0,5.6,3,8.6,8.7,8.6h11.6v-8.6h-11.2V41.6h11.2V33h-11.2L216.4,21.1L216.4,21.1z">
  </path>
  <path class="st1" d="M434.9,40.4v2.6h5c-0.6,1.6-1.8,2.9-4.1,2.9c-2.9,0-4.8-2.2-4.8-5c0-2.8,2-5,4.7-5c2.1,0,3.3,1,4,2.1l2.6-1.8
		c-1.2-2-3.5-3.3-6.6-3.3c-4.5,0-7.8,3.6-7.8,8s3.2,8,7.8,8c4.5,0,7.5-3.1,7.5-7.5v-0.9L434.9,40.4L434.9,40.4z">
  </path>
  <path class="st1" d="M339.7,41.6V73h9.1V41.6h15.1V33h-15.5C342.7,33,339.7,36,339.7,41.6z">
  </path>
  <polygon class="st1" points="273.6,59.8 266.1,33 255.4,33 247.9,59.8 240.5,33 230.6,33 242.6,73 252.5,73 260.7,44 269,73 
		278.9,73 290.9,33 281.1,33 	">
  </polygon>
  <path class="st1" d="M323.4,37.4c-2.2-3.2-6.4-5.4-12-5.4c-11.6,0-19.9,8.6-19.9,21s8.3,21,19.9,21c6.2,0,9.8-2.5,12-5.5V73h9.1V33
		h-9.1L323.4,37.4L323.4,37.4z M312.3,65.4c-6.8,0-11.5-5-11.5-12.4s4.7-12.4,11.5-12.4c6.8,0,11.5,5,11.5,12.4
		S319.1,65.4,312.3,65.4z">
  </path>
 </g>
</svg>