<svg version="1.1" id="Layer_1" xmlns:x="ns_extend;" xmlns:i="ns_ai;" xmlns:graph="ns_graphs;" xmlns="http://www.w3.org/2000/svg" xmlns:xlink="http://www.w3.org/1999/xlink" x="0px" y="0px" viewBox="0 0 404.5 51.4" style="enable-background:new 0 0 404.5 51.4;" xml:space="preserve">
 <style type="text/css">
  .st0{fill:#F48120;}
	.st1{fill:#231F20;}
	.st2{fill:#DA202C;}
 </style>
 <metadata>
  <sfw xmlns="ns_sfw;">
   <slices>
   </slices>
   <sliceSourceBounds bottomLeftOrigin="true" height="51.4" width="404.5" x="0" y="58">
   </sliceSourceBounds>
  </sfw>
 </metadata>
 <g>
  <path class="st0" d="M220,41.9c-0.3,0.2-0.7,0.5-1.1,0.7l-0.1,0.1h0.1c7.2,2,14.4,1.9,15.7-2.6c1.8-5.8-9.7-12.1-15.1-15
		c-1.2-0.6-1.7-0.2-0.9,0.6C222,29.6,226.8,37.3,220,41.9">
  </path>
  <path class="st1" d="M282.2,16.4h-6.1v-5.1h6.1V3.7h5.9v7.6h9.7v5.1h-9.7v15.3c0,3.8,1.1,5.9,6,5.9c1.9,0,4-0.5,4-0.5v5.3
		c-2,0.3-3.5,0.4-5.9,0.4c-9.3,0-10-6.7-10-10.4">
  </path>
  <rect x="360.6" y="11.2" class="st1" width="6" height="31.6">
  </rect>
  <g>
   <path class="st1" d="M377.3,26.8c0,8.6,7.1,10.8,10.5,10.8c6.4,0,10.9-3.6,10.9-10.9s-5.1-10.6-11-10.6
			C384.4,16.1,377.3,18.1,377.3,26.8 M371.1,26.8c0-11.9,9.6-15.9,16.3-15.9c7.6,0,11.3,4.4,11.3,4.4l0.3-3.9h5.5v31.7H399l-0.3-4.2
			c0,0-3.8,4.2-11.3,4.2C379.8,42.9,371.1,38.5,371.1,26.8">
   </path>
  </g>
  <path class="st1" d="M367.5,4c0-2.2-1.8-4-4-4s-3.9,1.8-3.9,4s1.8,4,3.9,4C365.8,7.9,367.5,6.1,367.5,4">
  </path>
  <path class="st1" d="M356.2,16.7v-5.4c-6-0.5-10.2,0.9-13.4,4.3l-0.3-4.4h-5.7v31.6h6V26.5C342.7,21.9,346.4,16.1,356.2,16.7">
  </path>
  <path class="st1" d="M299.3,26.9c0-9.9,7.3-16.2,17.1-16.2c9.7,0,16.4,7.1,16.4,15.7c0,0,0,1.3-0.1,2.6l-27,0.1
		c0.3,4.9,5.9,8.6,11.7,8.6c6.3,0,10-3.9,10-3.9l4.3,3.8c-4.4,4.2-9.2,5.5-14.3,5.5c-10.7,0-18-6.2-18-15.9 M326.1,24.2
		c0-4.3-4.3-7.9-9.6-7.9c-5.7,0-10.4,3.5-10.8,7.9H326.1z">
  </path>
  <path class="st1" d="M263.2,24c-6.1-1.1-12.1-1.8-12.1-4.7c0-1.8,1.8-3.5,7.2-3.5c4,0,8.5,0.9,9.8,3.7l5.6-2.4
		c-2.1-4.3-8.5-6.4-15.8-6.4c-6.4,0-13.2,2.4-13.2,8.9c0,5.6,5.1,7.3,13.5,8.9c5.6,1.1,10.8,1.6,10.8,4.6c0,1.9-2.5,4.3-8.9,4.3
		c-4.5,0-9.1-0.9-10.5-4.2l-5.4,2.3c2.2,5,8.1,7.5,15,7.5c13.7,0,16.3-6.5,16.3-10.2C275.4,26.9,269.3,25.1,263.2,24">
  </path>
  <g>
   <path class="st1" d="M89.1,16.1c-5.9,0-11,3.3-11,10.6S82.6,37.6,89,37.6c3.4,0,10.5-1.4,10.5-10.8S92.4,16.1,89.1,16.1
			 M89.4,42.9c-7.6,0-11.3-4.8-11.3-4.8v13.3h-5.8V11.3h5.5l0.3,3.9c0,0,3.7-4.3,11.3-4.3c6.7,0,16.3,3.4,16.3,15.9
			C105.6,39.3,97,42.9,89.4,42.9">
   </path>
  </g>
  <path class="st1" d="M134.5,26.8c0,8.6,7.1,10.8,10.5,10.8c6.4,0,10.9-3.6,10.9-10.9s-5.1-10.6-11-10.6
		C141.6,16.1,134.5,18.1,134.5,26.8 M128.4,26.8c0-11.9,9.6-15.9,16.3-15.9c7.6,0,11.3,4.4,11.3,4.4l0.3-3.9h5.5v31.7h-5.5l-0.3-4.2
		c0,0-3.8,4.2-11.3,4.2C137,42.9,128.4,38.5,128.4,26.8">
  </path>
  <path class="st1" d="M128.8,16.7v-5.4c-6-0.5-10.2,0.9-13.4,4.3l-0.3-4.4h-5.7v31.6h6V26.5C115.4,21.9,119.1,16.1,128.8,16.7">
  </path>
  <path class="st1" d="M19.1,24C13,22.9,7,22.2,7,19.3c0-1.8,1.8-3.5,7.2-3.5c4,0,8.5,0.9,9.8,3.7l5.6-2.4c-2.2-4.3-8.5-6.4-15.8-6.4
		c-6.4,0-13.2,2.4-13.2,8.9c0,5.6,5.1,7.3,13.5,8.9c5.6,1.1,10.8,1.6,10.8,4.6c0,1.9-2.5,4.3-8.9,4.3c-4.5,0-9.1-0.9-10.5-4.2
		L0,35.7c2.2,5,8.1,7.5,15,7.5c13.7,0,16.3-6.5,16.3-10.2C31.3,26.9,25.2,25.1,19.1,24">
  </path>
  <path class="st1" d="M51.4,10.8c-8.1,0-17.6,4-17.6,15.9c0,11.8,8.6,16.3,17.6,16.3S69,38.4,69,26.7C69,14.9,59.5,10.8,51.4,10.8
		 M51.4,37.6c-5,0-11.5-2.1-11.5-10.8s7.3-10.5,11.5-10.5c4.3,0,11.5,1.8,11.5,10.5C62.9,35.4,56.4,37.6,51.4,37.6">
  </path>
  <path class="st2" d="M218.8,42.6c0,0-9.1,5.7-25.1,5.7c-6.2,0-11.4-1-13.7-3.1c-2.3-2.3-3.6-6.2-3.6-9.7c0-3,1.3-5.6,3.9-5.6
		C187,29.9,208.1,40.6,218.8,42.6">
  </path>
  <path class="st0" d="M188.5,9.5c0.3-0.2,0.7-0.5,1.1-0.7l0.1-0.1h-0.1c-7.2-2-14.4-1.9-15.7,2.6c-1.8,5.8,9.7,12.1,15.1,15
		c1.2,0.6,1.7,0.2,0.9-0.6C186.5,21.8,181.6,14,188.5,9.5">
  </path>
  <path class="st2" d="M189.7,8.7c0,0,9.1-5.7,25.1-5.7c6.2,0,11.4,1,13.7,3.1c2.3,2.3,3.6,6.2,3.6,9.7c0,3-1.3,5.6-3.9,5.6
		C221.4,21.5,200.3,10.7,189.7,8.7">
  </path>
 </g>
</svg>