<svg version="1.1" id="Layer_1" xmlns="http://www.w3.org/2000/svg" xmlns:xlink="http://www.w3.org/1999/xlink" x="0px" y="0px" viewBox="0 0 260.6 94.8" style="enable-background:new 0 0 260.6 94.8;" xml:space="preserve">
 <style type="text/css">
  .st0{fill:#0075BD;}
	.st1{fill-rule:evenodd;clip-rule:evenodd;fill:#0075BD;}
	.st2{fill:url(#SVGID_1_);}
	.st3{fill:url(#SVGID_2_);}
	.st4{fill:url(#SVGID_3_);}
	.st5{fill:url(#SVGID_4_);}
	.st6{clip-path:url(#SVGID_6_);fill:url(#SVGID_7_);}
	.st7{clip-path:url(#SVGID_9_);fill:url(#SVGID_10_);}
	.st8{clip-path:url(#SVGID_12_);fill:url(#SVGID_13_);}
	.st9{fill:url(#SVGID_14_);}
	.st10{clip-path:url(#SVGID_16_);fill:url(#SVGID_17_);}
	.st11{clip-path:url(#SVGID_19_);fill:url(#SVGID_20_);}
	.st12{fill:url(#SVGID_21_);}
	.st13{fill:url(#SVGID_22_);}
	.st14{fill:url(#SVGID_23_);}
	.st15{fill:url(#SVGID_24_);}
	.st16{fill:none;}
 </style>
 <g>
  <g>
   <g>
    <g>
     <polygon class="st0" points="160.1,35.4 164.9,35.4 164.9,27 168.2,27 168.2,23.6 156.8,23.6 156.8,27 160.1,27 				">
     </polygon>
     <polygon class="st0" points="171.7,35.4 174.1,28.4 176.5,35.4 181.2,35.4 176.6,23.6 171.6,23.6 167.1,35.4 				">
     </polygon>
     <polygon class="st0" points="183.4,35.4 188.1,35.4 188.1,27 191.5,27 191.5,23.6 180,23.6 180,27 183.4,27 				">
     </polygon>
     <polygon class="st0" points="194.9,35.4 197.4,28.4 199.8,35.4 204.4,35.4 199.9,23.6 194.9,23.6 190.3,35.4 				">
     </polygon>
     <path class="st0" d="M207.8,43.9c0.6,1.3,1.4,2.8,2.1,4.1l3.1,5.2h2.2V41.4h-2v4.1c0,1.8,0,3.3,0.2,4.9l0,0
					c-0.5-1.3-1.2-2.7-2-4l-3.1-5.1h-2.5v11.8l2,0V49C207.9,47,207.9,45.5,207.8,43.9L207.8,43.9z">
     </path>
     <path class="st0" d="M197.1,49.9h3.8l1.1,3.3h2.3l-3.8-11.8h-2.8l-3.8,11.8h2.2L197.1,49.9z M198.4,45.3
					c0.2-0.7,0.4-1.5,0.6-2.2h0c0.2,0.7,0.4,1.5,0.6,2.2l0.9,2.9h-3.1L198.4,45.3z">
     </path>
     <path class="st0" d="M161.8,51.6c-1.1,0-2.2-0.4-2.9-0.8l-0.5,1.8c0.6,0.4,1.9,0.8,3.2,0.8c3.1,0,4.5-1.7,4.5-3.6
					c0-1.7-1-2.7-3-3.5c-1.6-0.6-2.3-1-2.3-1.9c0-0.7,0.6-1.4,2-1.4c1.1,0,1.9,0.3,2.4,0.6l0.5-1.7c-0.6-0.3-1.6-0.6-2.8-0.6
					c-2.6,0-4.2,1.5-4.2,3.4c0,1.7,1.3,2.7,3.2,3.4c1.5,0.5,2.1,1.1,2.1,2C164,51,163.2,51.6,161.8,51.6z">
     </path>
     <path class="st0" d="M130.7,43c1,0,1.8,0.2,2.3,0.5l0.5-1.7c-0.4-0.2-1.4-0.5-2.9-0.5c-3.6,0-6.3,2.4-6.3,6.2c0,3.6,2.3,6,6,6
					c1.4,0,2.6-0.3,3.1-0.5l-0.4-1.7c-0.6,0.3-1.5,0.4-2.4,0.4c-2.6,0-4.1-1.7-4.1-4.3C126.6,44.5,128.3,43,130.7,43z">
     </path>
     <polygon class="st0" points="191.2,53.2 191.2,43.2 194.6,43.2 194.6,41.4 185.7,41.4 185.7,43.2 189,43.2 189,53.2 				">
     </polygon>
     <path class="st0" d="M234.5,41.4l-1.4,3c-0.4,0.9-0.7,1.6-1,2.4h0c-0.3-0.8-0.6-1.5-1-2.3l-1.4-3H227l3.7,6.9v4.9h2.2v-5
					l3.9-6.9H234.5z">
     </path>
     <path class="st0" d="M139.8,41.2c-3.3,0-5.6,2.6-5.6,6.2c0,3.5,2.1,6,5.5,6h0c3.2,0,5.7-2.3,5.7-6.2
					C145.3,43.8,143.2,41.2,139.8,41.2z M139.7,51.7L139.7,51.7c-2.1,0-3.3-2-3.3-4.3c0-2.4,1.1-4.4,3.3-4.4c2.2,0,3.3,2.1,3.3,4.3
					C143,49.7,141.8,51.7,139.7,51.7z">
     </path>
     <path class="st0" d="M223.6,43c1,0,1.8,0.2,2.3,0.5l0.5-1.7c-0.4-0.2-1.4-0.5-2.9-0.5c-3.6,0-6.3,2.4-6.3,6.2c0,3.6,2.3,6,6,6
					c1.4,0,2.6-0.3,3.1-0.5l-0.4-1.7c-0.6,0.3-1.5,0.4-2.4,0.4c-2.6,0-4.1-1.7-4.1-4.3C219.4,44.5,221.2,43,223.6,43z">
     </path>
     <polygon class="st0" points="182,41.4 179.8,41.4 179.8,53.2 186.9,53.2 186.9,51.4 182,51.4 				">
     </polygon>
     <path class="st0" d="M177.4,48.1v-6.8h-2.2v6.9c0,2.3-0.9,3.4-2.5,3.4c-1.5,0-2.4-1.1-2.4-3.4v-6.9h-2.2v6.8
					c0,3.7,1.8,5.3,4.5,5.3C175.5,53.4,177.4,51.8,177.4,48.1z">
     </path>
     <path class="st0" d="M156.5,41.4h-2v4.1c0,1.8,0,3.3,0.2,4.9l0,0c-0.5-1.3-1.2-2.7-2-4l-3.1-5.1h-2.5v11.8l2,0V49
					c0-1.9,0-3.5-0.1-5l0.1,0c0.6,1.3,1.4,2.8,2.1,4.1l3.1,5.2h2.2V41.4z">
     </path>
     <rect x="184.7" y="59.1" class="st0" width="2.2" height="11.8">
     </rect>
     <path class="st0" d="M169.8,65.4L169.8,65.4c1.1-0.4,2.1-1.5,2.1-3c0-1-0.4-1.8-1-2.4c-0.8-0.7-2.2-0.9-3.6-0.9
					c-1.5,0-2.4,0.1-3.3,0.3l0,11.6h2.1v-4.8h1.1c1.2,0,1.8,0.5,2.1,2.1c0.3,1.5,0.6,2.4,0.8,2.8h2.2c-0.2-0.5-0.6-1.8-0.9-3.3
					C171.1,66.6,170.6,65.7,169.8,65.4z M167.4,64.6h-1.3v-3.7c0.2-0.1,0.7-0.1,1.3-0.1c1.4,0,2.3,0.6,2.3,1.9
					C169.8,63.8,168.9,64.6,167.4,64.6z">
     </path>
     <path class="st0" d="M179.3,64.5c-0.5,1.4-0.9,2.9-1.2,4.3h0c-0.3-1.4-0.7-2.8-1.2-4.3l-1.6-5.4H173l3.8,11.8h2.5l4.1-11.8h-2.3
					L179.3,64.5z">
     </path>
     <polygon class="st0" points="201.8,65.7 206.3,65.7 206.3,64 201.8,64 201.8,60.9 206.5,60.9 206.5,59.1 199.6,59.1 199.6,71 
					206.8,71 206.8,69.2 201.8,69.2 				">
     </polygon>
     <path class="st0" d="M195.1,60.7c1,0,1.8,0.2,2.3,0.5l0.5-1.7c-0.4-0.2-1.4-0.5-2.9-0.5c-3.6,0-6.3,2.4-6.3,6.2c0,3.6,2.3,6,6,6
					c1.4,0,2.6-0.3,3.1-0.5l-0.4-1.7c-0.6,0.3-1.5,0.4-2.4,0.4c-2.6,0-4.1-1.7-4.1-4.3C191,62.2,192.7,60.7,195.1,60.7z">
     </path>
     <path class="st0" d="M150,64.1c-1.6-0.6-2.3-1-2.3-1.9c0-0.7,0.6-1.4,2-1.4c1.1,0,1.9,0.3,2.4,0.6l0.5-1.7
					c-0.6-0.3-1.6-0.6-2.8-0.6c-2.6,0-4.2,1.5-4.2,3.4c0,1.7,1.3,2.7,3.2,3.4c1.5,0.5,2.1,1.1,2.1,2c0,1-0.8,1.6-2.2,1.6
					c-1.1,0-2.2-0.4-2.9-0.8l-0.5,1.8c0.6,0.4,1.9,0.8,3.2,0.8c3.1,0,4.5-1.7,4.5-3.6C153,65.9,152,64.9,150,64.1z">
     </path>
     <polygon class="st0" points="157.1,65.7 161.6,65.7 161.6,64 157.1,64 157.1,60.9 161.9,60.9 161.9,59.1 155,59.1 155,71 
					162.1,71 162.1,69.2 157.1,69.2 				">
     </polygon>
     <path class="st0" d="M212.8,64.1c-1.6-0.6-2.3-1-2.3-1.9c0-0.7,0.6-1.4,2-1.4c1.1,0,1.9,0.3,2.4,0.6l0.5-1.7
					c-0.6-0.3-1.6-0.6-2.8-0.6c-2.6,0-4.2,1.5-4.2,3.4c0,1.7,1.3,2.7,3.2,3.4c1.5,0.5,2.1,1.1,2.1,2c0,1-0.8,1.6-2.2,1.6
					c-1.1,0-2.2-0.4-2.9-0.8l-0.5,1.8c0.6,0.4,1.9,0.8,3.2,0.8c3.1,0,4.5-1.7,4.5-3.6C215.9,65.9,214.9,64.9,212.8,64.1z">
     </path>
    </g>
    <rect x="110.3" y="23.6" class="st1" width="2.2" height="47.4">
    </rect>
    <linearGradient id="SVGID_1_" gradientUnits="userSpaceOnUse" x1="32.554" y1="67.3522" x2="42.4499" y2="58.5354">
     <stop offset="0" style="stop-color:#BE3F8B">
     </stop>
     <stop offset="0.9497" style="stop-color:#664092">
     </stop>
    </linearGradient>
    <path class="st2" d="M34.6,64.5c-3,0-4.3-1.7-4.4-4.1c0.2,2.9,1.1,6.7,4.3,8.6c0.7,0.4,1.4,0.8,2.3,1c0.5,0.2,1.1,0.3,1.8,0.3
				c2.1-0.8,3.9-2,6.6-6.4c-0.7-0.6-3.3-5.8-3.6-6.4C40.8,61.7,37.7,64.5,34.6,64.5">
    </path>
    <linearGradient id="SVGID_2_" gradientUnits="userSpaceOnUse" x1="52.6055" y1="38.1119" x2="52.6055" y2="70.782">
     <stop offset="0" style="stop-color:#E53121">
     </stop>
     <stop offset="1" style="stop-color:#E72F7C">
     </stop>
    </linearGradient>
    <path class="st3" d="M44.5,42.5c-2.1,2.1-3.7,5.2-4.3,8.3c0,0.3,0,0.7,0,1c0,0.2,0,0.3,0,0.5c0,1.2,0.1,2.3,0.3,3.4
				c0.2,1.1,0.5,2.7,1.3,4.4c0.3,0.6,0.6,1.3,0.9,2c0.4,0.8,0.9,1.5,1.4,2.3c0.6,0.8,1.2,1.5,2,2.1c3.1,2.8,7.3,4.5,12.4,4.5
				c1.6,0,3.5-0.1,5.2-0.4c0,0,0,0,0,0c0.5-0.1,0.9-0.2,1.3-0.3c-9-1.3-12.9-5.5-14.7-7.5c-0.2-0.2-0.4-0.5-0.6-0.7
				c-0.1-0.1-0.2-0.3-0.4-0.4c-0.3-0.4-0.6-0.8-0.9-1.3c-0.2-0.3-0.3-0.5-0.4-0.8c-0.2-0.4-0.3-0.7-0.5-1.1c-0.6-1.6-1-3.4-1-5.3
				c0-0.1,0-0.3,0-0.4c0-0.1,0-0.1,0-0.2c0-0.1,0-0.2,0-0.2c0-0.3,0-0.6,0-0.8c0,0,0-0.1,0-0.1c0-0.3,0-0.5,0.1-0.8
				c0.7-6.5,4.9-11.3,12.3-11.3c1.9,0,3.4,0.3,4.8,0.7c-0.3-0.1-0.7-0.3-1-0.4c-2.2-0.8-4.6-1.2-7-1.2
				C51.7,38.1,47.6,39.4,44.5,42.5">
    </path>
    <linearGradient id="SVGID_3_" gradientUnits="userSpaceOnUse" x1="32.2363" y1="23.5948" x2="32.2363" y2="70.9971">
     <stop offset="0" style="stop-color:#E53121">
     </stop>
     <stop offset="1" style="stop-color:#E72F7C">
     </stop>
    </linearGradient>
    <path class="st4" d="M26.9,23.6c-1.8,0-3.2,1.4-3.2,3.1l0,28.5c0,2.7,0.6,9.1,2.7,11.9c1.1,1.4,2.4,2.4,4,3.1
				c1.3,0.5,2.7,0.8,4.1,0.8c0.8,0,1.6-0.1,2.4-0.2c0.3-0.1,0.6-0.1,0.9-0.2c0.3-0.1,0.5-0.2,0.8-0.3c-0.6-0.1-1.2-0.2-1.8-0.4
				c-0.9-0.3-1.7-0.6-2.4-1c-3.2-2-4.1-5.8-4.3-9.3l0-20.6h8.1c1.4,0,2.6-1.2,2.6-2.6c0-1.4-1.2-2.6-2.6-2.6h-8.1v-7.1
				C30.1,25,28.8,23.6,26.9,23.6">
    </path>
    <linearGradient id="SVGID_4_" gradientUnits="userSpaceOnUse" x1="26.8938" y1="23.5948" x2="26.8938" y2="45.7547">
     <stop offset="0" style="stop-color:#FFCB00">
     </stop>
     <stop offset="1" style="stop-color:#E84D22">
     </stop>
    </linearGradient>
    <path class="st5" d="M26.9,23.6c-1.8,0-3.2,1.4-3.2,3.1c0,0,0,13.5,0,19c0-7.3,2.8-12,6.4-12v-7.1C30.1,25,28.8,23.6,26.9,23.6">
    </path>
    <g>
     <defs>
      <polyline id="SVGID_5_" points="80.1,36.4 80.1,36.4 80.1,36.4 					">
      </polyline>
     </defs>
     <clipPath id="SVGID_6_">
      <use href="#SVGID_5_" style="overflow:visible;">
      </use>
     </clipPath>
     <linearGradient id="SVGID_7_" gradientUnits="userSpaceOnUse" x1="80.0112" y1="36.3908" x2="80.1826" y2="36.3908">
      <stop offset="0" style="stop-color:#92C03A">
      </stop>
      <stop offset="0.34" style="stop-color:#5EC0CB">
      </stop>
      <stop offset="0.69" style="stop-color:#7F9CD1">
      </stop>
      <stop offset="1" style="stop-color:#977DB7">
      </stop>
     </linearGradient>
     <rect x="80.1" y="36.4" class="st6" width="0" height="0">
     </rect>
    </g>
    <g>
     <defs>
      <path id="SVGID_8_" d="M81,35.5L81,35.5C81,35.5,81,35.5,81,35.5C81,35.5,81,35.5,81,35.5 M81,35.5L81,35.5L81,35.5L81,35.5z
						 M81,35.5C81,35.5,81,35.5,81,35.5C81,35.5,81,35.5,81,35.5z">
      </path>
     </defs>
     <clipPath id="SVGID_9_">
      <use xlink:href="#SVGID_8_" style="overflow:visible;">
      </use>
     </clipPath>
     <linearGradient id="SVGID_10_" gradientUnits="userSpaceOnUse" x1="74.9795" y1="35.5303" x2="86.9415" y2="35.5303">
      <stop offset="0" style="stop-color:#92C03A">
      </stop>
      <stop offset="0.34" style="stop-color:#5EC0CB">
      </stop>
      <stop offset="0.69" style="stop-color:#7F9CD1">
      </stop>
      <stop offset="1" style="stop-color:#977DB7">
      </stop>
     </linearGradient>
     <rect x="81" y="35.5" class="st7" width="0" height="0">
     </rect>
    </g>
    <g>
     <defs>
      <path id="SVGID_11_" d="M93.6,69.4L93.6,69.4C93.6,69.4,93.6,69.4,93.6,69.4C93.6,69.4,93.6,69.4,93.6,69.4 M93.6,69.4
						C93.6,69.4,93.6,69.4,93.6,69.4C93.6,69.4,93.6,69.4,93.6,69.4z">
      </path>
     </defs>
     <clipPath id="SVGID_12_">
      <use xlink:href="#SVGID_11_" style="overflow:visible;">
      </use>
     </clipPath>
     <linearGradient id="SVGID_13_" gradientUnits="userSpaceOnUse" x1="97.523" y1="69.4232" x2="156.7377" y2="69.4232">
      <stop offset="0" style="stop-color:#92C03A">
      </stop>
      <stop offset="0.34" style="stop-color:#5EC0CB">
      </stop>
      <stop offset="0.69" style="stop-color:#7F9CD1">
      </stop>
      <stop offset="1" style="stop-color:#977DB7">
      </stop>
     </linearGradient>
     <rect x="93.6" y="69.4" class="st8" width="0" height="0">
     </rect>
    </g>
    <linearGradient id="SVGID_14_" gradientUnits="userSpaceOnUse" x1="94.2389" y1="60.7875" x2="78.5921" y2="70.9486">
     <stop offset="0" style="stop-color:#C73E88">
     </stop>
     <stop offset="0.8442" style="stop-color:#6B4790">
     </stop>
    </linearGradient>
    <path class="st9" d="M92.1,60.9c0,3.2-2.3,4.7-5.8,4.7c-2.8,0-4.8-0.9-6.2-1.5c-2.3-0.9-4,0.7-4,2.4c0,1.1,0.8,1.8,1.7,2.3
				c0.9,0.5,1.9,0.8,2.8,1.1c1.9,0.6,4,0.8,6,0.8c1.4,0,2.8-0.1,4.1-0.4c1.3-0.3,2.7-0.7,3.7-1.6c0.1-0.1,0.2-0.2,0.3-0.3
				c0.6-0.9,0.7-2.1,0.7-3c0-3-1.5-5.7-3.8-7.8c-0.7-0.7-1.3-1.4-2.4-2C91.2,57.1,92.1,58.7,92.1,60.9">
    </path>
    <g>
     <defs>
      <path id="SVGID_15_" d="M63.7,70.3C63.7,70.3,63.7,70.3,63.7,70.3C63.7,70.3,63.7,70.3,63.7,70.3">
      </path>
     </defs>
     <clipPath id="SVGID_16_">
      <use xlink:href="#SVGID_15_" style="overflow:visible;">
      </use>
     </clipPath>
     <linearGradient id="SVGID_17_" gradientUnits="userSpaceOnUse" x1="2.0554" y1="70.3318" x2="88.6786" y2="70.3318">
      <stop offset="0" style="stop-color:#92C03A">
      </stop>
      <stop offset="0.34" style="stop-color:#5EC0CB">
      </stop>
      <stop offset="0.69" style="stop-color:#7F9CD1">
      </stop>
      <stop offset="1" style="stop-color:#977DB7">
      </stop>
     </linearGradient>
     <rect x="63.7" y="70.3" class="st10" width="0" height="0">
     </rect>
    </g>
    <g>
     <defs>
      <path id="SVGID_18_" d="M79.7,36.7L79.7,36.7L79.7,36.7z">
      </path>
     </defs>
     <clipPath id="SVGID_19_">
      <use xlink:href="#SVGID_18_" style="overflow:visible;">
      </use>
     </clipPath>
     <linearGradient id="SVGID_20_" gradientUnits="userSpaceOnUse" x1="79.6292" y1="36.7169" x2="79.7475" y2="36.7169">
      <stop offset="0" style="stop-color:#92C03A">
      </stop>
      <stop offset="0.34" style="stop-color:#5EC0CB">
      </stop>
      <stop offset="0.69" style="stop-color:#7F9CD1">
      </stop>
      <stop offset="1" style="stop-color:#977DB7">
      </stop>
     </linearGradient>
     <rect x="79.7" y="36.7" class="st11" width="0" height="0">
     </rect>
    </g>
    <linearGradient id="SVGID_21_" gradientUnits="userSpaceOnUse" x1="55.445" y1="68.476" x2="86.3887" y2="41.8602">
     <stop offset="2.791880e-02" style="stop-color:#C53E85">
     </stop>
     <stop offset="0.8597" style="stop-color:#5E378C">
     </stop>
    </linearGradient>
    <path class="st12" d="M79.7,36.7L79.7,36.7c-0.1,0.1-0.2,0.2-0.4,0.3c-0.9,0.9-1.6,1.9-2.2,3c-0.5,1-0.9,2-1.2,3
				c-0.4,1.2-0.7,2.4-0.9,3.6c-0.9,4-1.5,8.2-3.4,11.7c-1.5,2.8-3.8,4.7-6.7,6.1c-1.7,0.7-3.5,1.2-5.9,1.2c-1.2,0-2.2-0.1-3.3-0.3
				c-2.5-0.6-4.5-1.8-6-3.6c0.2,0.3,0.4,0.5,0.6,0.7c1.8,2,5.7,6.3,14.7,7.5c0.9-0.2,1.7-0.5,2.5-0.9c0.9-0.5,1.7-1,2.5-1.5
				c1.3-0.9,2.4-1.9,3.4-3.1c1.6-1.9,2.9-4,3.9-6.3c0.4-0.9,0.7-1.8,1-2.8c0.2-0.5,0.3-1.1,0.4-1.6c0.4-1.7,0.9-3.9,1.2-5.6
				c0,0-1.3-3.3-1.4-5.3c-0.1-1.4,0.2-2.8,0.6-4.2c0.1-0.7,0.3-0.9,0.6-1.5c0-0.1,0.1-0.1,0.1-0.2c0,0,0.5-0.3,0.4-0.4
				c0,0,0.8-0.9,0.8-0.9C80.9,35.7,79.8,36.6,79.7,36.7">
    </path>
    <linearGradient id="SVGID_22_" gradientUnits="userSpaceOnUse" x1="40.2463" y1="42.2694" x2="70.6632" y2="42.2694">
     <stop offset="0" style="stop-color:#FFCB00">
     </stop>
     <stop offset="1" style="stop-color:#E84D22">
     </stop>
    </linearGradient>
    <path class="st13" d="M53,34.5c-1.5,0.4-3,1-4.3,1.8c-1.3,0.8-2.5,1.7-3.5,2.8c-0.2,0.2-0.3,0.3-0.5,0.5c-0.5,0.6-1,1.2-1.5,1.9
				c-0.3,0.4-0.5,0.8-0.8,1.3c0,0,0,0,0,0c-1.2,2.3-2,5-2.2,7.9c0.5-3.1,2.2-6.2,4.3-8.3c4.8-4.8,12.1-5.3,18.2-3.1
				c0.3,0.1,0.7,0.2,1,0.4c0.7,0.3,1.5,0.6,2.2,1c0.2,0.1,0.4,0.2,0.6,0.3c0.5,0.3,0.9,0.5,1.5,0.5c0.2,0,0.4,0,0.7-0.1
				c1.1-0.3,1.9-1.3,1.9-2.6c0-1-0.5-1.6-1.2-2.1c-2.2-1.6-5.2-2.3-7.8-2.6c-1.1-0.1-2.2-0.2-3.3-0.2C56.5,33.8,54.8,34,53,34.5">
    </path>
    <linearGradient id="SVGID_23_" gradientUnits="userSpaceOnUse" x1="78.8592" y1="40.5162" x2="97.3722" y2="40.5162">
     <stop offset="0" style="stop-color:#FFCB00">
     </stop>
     <stop offset="1" style="stop-color:#E84D22">
     </stop>
    </linearGradient>
    <path class="st14" d="M81.3,35.4c-1.1,0.7-1.8,1.9-2.2,3.1c-0.2,0.8-0.4,1.6-0.2,2.4c0.3,1.3,1.4,2.2,2.4,2.9
				c1.9,1.3,4,2.2,6,3.4c-1-0.8-2-1.6-2.7-2.7c-0.6-1.1-0.9-2.5-0.3-3.7c0.5-0.9,1.4-1.5,2.4-1.8c1-0.3,2-0.2,3-0.1
				c1.2,0.2,2.3,0.5,3.4,0.9c0.6,0.2,1.1,0.4,1.7,0.4c0.7,0,1.4-0.4,1.9-0.9c0.4-0.6,0.6-1.3,0.5-2c-0.3-1.1-1.3-1.9-2.3-2.4
				c-1.5-0.7-3.1-0.9-4.8-1c-1.4-0.1-2.9-0.2-4.3,0c-1.4,0.2-2.8,0.5-4.1,1.2c-0.1,0-0.1,0.1-0.2,0.1L81.3,35.4z">
    </path>
    <linearGradient id="SVGID_24_" gradientUnits="userSpaceOnUse" x1="77.9765" y1="39.4717" x2="98.189" y2="66.1008">
     <stop offset="0" style="stop-color:#E53121">
     </stop>
     <stop offset="1" style="stop-color:#E72F7C">
     </stop>
    </linearGradient>
    <path class="st15" d="M80.1,48.4c1,1.6,2.6,2.7,4.1,3.8c1.7,1.2,3.3,2.4,5,3.5c1.2,0.8,2.3,1.8,3.2,2.9c1.7,2,3.2,4.4,3.1,7.1
				c0,0.5-0.1,1-0.2,1.4c-0.2,0.8-0.7,1.8-1.5,2.3c3.8-2.2,5.3-6.6,4.3-10.8c-0.9-4.1-4.2-6.8-7.5-9.2c-0.6-0.5-1.3-0.9-2-1.4
				c-0.7-0.4-1.4-0.8-2-1.2c-0.6-0.3-1.1-0.7-1.7-1c-0.8-0.5-1.6-1-2.3-1.5c-1.2-0.8-2.5-1.8-3.1-3.1c-0.4-0.8-0.6-1.7-0.4-2.6
				C78.2,41.7,78.4,45.6,80.1,48.4">
    </path>
   </g>
  </g>
  <rect class="st16" width="260.6" height="94.8">
  </rect>
 </g>
</svg>