<svg width="171px" height="55px" viewBox="0 0 171 55" version="1.1"
    xmlns="http://www.w3.org/2000/svg" xmlns:xlink="http://www.w3.org/1999/xlink">
    <g id="Page-1" stroke="none" stroke-width="1" fill="none" fill-rule="evenodd">
        <g id="HOME-V1" transform="translate(-93.000000, -5847.000000)">
            <g id="FOOTER" transform="translate(0.000000, 5783.000000)">
                <g id="Icon/Logo/Bleu" transform="translate(93.000000, 64.000000)">
                    <g id="Logo">
                        <path
                            d="M10.237686,39.1349585 L10.237686,33.0922742 L10.2396694,33.0922742 L10.2332231,21.6665894 L20.4649587,21.6660796 L20.4649587,13.2089725 L10.2332231,13.2089725 L10.2332231,0 L0,6.84409325 L0.00644628099,13.0116791 L0.00644628099,23.4901516 L0.00644628099,33.0922742 L0.0133884298,33.0922742 L0.00694214876,39.3944478 C0.00694214876,48.7921398 5.96082645,55 16.3601653,55 C17.8750413,55 19.2986777,54.8613338 20.52,54.6446679 L20.52,45.9036011 C19.6710744,46.0545025 18.791405,46.1192473 17.8690909,46.1192473 C12.1666116,46.1192473 10.237686,43.2745516 10.237686,39.1349585"
                            id="Fill-1" fill="#28274D"></path>
                        <polygon id="Fill-3" fill="#28274D"
                            points="160.056 55 160.244509 54.880964 171 48.1695544 171 13.75 160.056 13.75"></polygon>
                        <path
                            d="M37.6346515,29.6807732 C38.7310062,23.54756 42.6865502,20.3879495 47.8296043,20.3879495 C52.9651867,20.3879495 56.4181311,23.289468 57.263435,29.6807732 L37.6346515,29.6807732 Z M47.7424339,12.375 C35.9480286,12.375 27.36,21.1586969 27.36,33.7759671 C27.36,46.1351453 35.0230261,55 47.6587503,55 C59.189652,55 64.930446,48.8320049 66.6549257,41.8781398 L56.8599605,41.8781398 C55.9040747,44.2201229 53.4906997,46.7284544 48.0811532,46.7284544 C42.1839506,46.7284544 38.2249197,42.8948811 37.4672843,36.0761111 L67.032,36.0761111 L67.032,33.9453399 C67.032,20.9046376 59.958744,12.375 47.7424339,12.375 Z"
                            id="Fill-6" fill="#28274D"></path>
                        <path
                            d="M85.0086651,24.3101008 C85.0086651,21.6672097 87.2531495,19.9629154 92.1739658,19.9629154 C96.6624242,19.9629154 99.3387562,21.7529033 99.5975585,25.4185726 L108.834809,25.4185726 C108.661763,17.1486371 102.878273,12.375 92.2597228,12.375 C81.4691484,12.375 74.8219626,17.0644557 74.8219626,24.5656693 C74.8219626,41.2744072 99.2519783,34.7107823 99.2519783,43.1505928 C99.2519783,45.7924758 96.9217369,47.4125887 91.483316,47.4125887 C85.6993149,47.4125887 83.2822957,45.4512136 83.0229829,41.8707338 L73.872,41.7865524 C73.9587779,50.2263629 79.7422685,55 91.483316,55 C102.705228,55 109.525459,50.3962379 109.439191,42.8940161 C109.439191,25.6746452 85.0086651,32.5790282 85.0086651,24.3101008"
                            id="Fill-8" fill="#28274D"></path>
                        <path
                            d="M127.416311,24.3101008 C127.416311,21.6672097 129.660827,19.9629154 134.581713,19.9629154 C139.070745,19.9629154 141.746604,21.7529033 142.005921,25.4185726 L151.243301,25.4185726 C151.069743,17.1486371 145.286171,12.375 134.667982,12.375 C123.877255,12.375 117.229976,17.0644557 117.229976,24.5656693 C117.229976,41.2744072 141.659825,34.7107823 141.659825,43.1505928 C141.659825,45.7924758 139.330062,47.4125887 133.890543,47.4125887 C128.106971,47.4125887 125.690428,45.4512136 125.430601,41.8707338 L116.28,41.7865524 C116.366779,50.2263629 122.150351,55 133.890543,55 C145.114144,55 151.933961,50.3962379 151.847182,42.8940161 C151.847182,25.6746452 127.416311,32.5790282 127.416311,24.3101008"
                            id="Fill-10" fill="#28274D"></path>
                        <polygon id="Clip-13" points="0 55 171 55 171 0 0 0"></polygon>
                        <polygon id="Fill-12" fill="#28274D"
                            points="160.056 8.25 171 8.25 171 0 160.056 0"></polygon>
                    </g>
                </g>
            </g>
        </g>
    </g>
</svg>