<svg version="1.1" viewBox="0 0 72 24" xmlns="http://www.w3.org/2000/svg">
  <defs>
    <linearGradient id="a" x1="52.62" x2="70.5" y1="12.84" y2="8.05" gradientUnits="userSpaceOnUse">
      <stop stop-color="#202e39" offset="0"/>
      <stop stop-color="#1e323f" offset=".04"/>
      <stop stop-color="#1a3c4f" offset=".1"/>
      <stop stop-color="#134e6a" offset=".16"/>
      <stop stop-color="#096690" offset=".23"/>
      <stop stop-color="#007eb4" offset=".28"/>
      <stop stop-color="#0084bc" offset=".34"/>
      <stop stop-color="#0093d2" offset=".43"/>
      <stop stop-color="#009fe3" offset=".48"/>
      <stop stop-color="#18a6cd" offset=".51"/>
      <stop stop-color="#44b3a4" offset=".57"/>
      <stop stop-color="#69be81" offset=".63"/>
      <stop stop-color="#88c765" offset=".69"/>
      <stop stop-color="#a0ce4f" offset=".76"/>
      <stop stop-color="#b1d33f" offset=".83"/>
      <stop stop-color="#bbd636" offset=".9"/>
      <stop stop-color="#bed733" offset="1"/>
    </linearGradient>
  </defs>
  <path d="M58.13,7.29a1.83,1.83,0,0,0-1.25,1.25l-1.38,4.8-.34-1.21a1.33,1.33,0,0,0-2.56.73l.79,2.75a1.33,1.33,0,0,0,2.55,0l1.34-4.67,1.24,4.31a1.81,1.81,0,0,0,3.49,0l2.6-9.06,2.45,8.56a2.52,2.52,0,0,0,4.84-1.39L68.85,2.71a2.52,2.52,0,0,0-4.85,0h0L61.35,12l-1-3.43A1.82,1.82,0,0,0,58.13,7.29Z" fill="url(#a)"/>
  <path d="M51.08,15.11v.06c0,.69-.15,1.25-1.28,1.25s-1.28-.56-1.28-1.25v-.06c0-.69.15-1.25,1.28-1.25S51.08,14.42,51.08,15.11Zm-3.36,8.75a2.93,2.93,0,0,1-1.94-.62,3.35,3.35,0,0,1-.89-2.65V16.33H43.62c-.65,0-.81-.12-.81-1.18S43,14,43.62,14h1.25a0,0,0,0,0,0,0v-1.7c0-.78.14-1,1.42-1s1.42.2,1.42,1v8c0,.83.08,1,.35,1.19s1.15.07,1.82,0c.51-.08.54.13.68.9s.11,1.06-.39,1.18A10.29,10.29,0,0,1,47.72,23.86ZM35.26,16.4c-.51.1-.55-.11-.71-.88s-.16-1.06.34-1.19a11.59,11.59,0,0,1,3.38-.47,3.17,3.17,0,0,1,3.2,1.91,7.44,7.44,0,0,1,.33,3.05v3.59a1,1,0,0,1-.67,1A7.89,7.89,0,0,1,38,24c-2.38,0-4.27-.71-4.27-3.07s1.64-3.09,3.93-3.09a13.13,13.13,0,0,1,1.54.07,0,0,0,0,0,0,0v-.53c0-.87-.43-1.39-1.57-1.38A12.76,12.76,0,0,0,35.26,16.4ZM38.09,22a3.37,3.37,0,0,0,1.13-.19.05.05,0,0,0,0-.06V19.9a.06.06,0,0,0-.06-.06,6.82,6.82,0,0,0-1.2-.1c-1,0-1.59.25-1.59,1.16S37,22,38.09,22Zm-6.42,1.17a4.25,4.25,0,0,1-2.58.81A10.43,10.43,0,0,1,26,23.46c-.52-.16-.52-.3-.41-1.1s.2-1.12.68-1a14.63,14.63,0,0,0,2.62.47c.55,0,1.05-.22,1.08-.81s-.48-1-1.54-1.25c-1.21-.34-2.8-.92-2.86-3,0-1.64,1.23-2.94,3.33-2.94a8.28,8.28,0,0,1,2.87.47c.51.14.52.42.35,1.19s-.2,1-.71.88A8.35,8.35,0,0,0,29.15,16c-.42,0-.89.23-.89.73s.63.74,1.31,1a7.37,7.37,0,0,1,2.2,1.06,2.41,2.41,0,0,1,.88,1.95A2.88,2.88,0,0,1,31.67,23.19ZM17.41,16.4c-.52.1-.55-.11-.72-.88s-.15-1.06.35-1.19a11.43,11.43,0,0,1,3.38-.47,3.15,3.15,0,0,1,3.19,1.91A7.25,7.25,0,0,1,24,18.82v3.59a1,1,0,0,1-.67,1,7.89,7.89,0,0,1-3.11.6c-2.39,0-4.27-.71-4.27-3.07s1.63-3.09,3.93-3.09a13.13,13.13,0,0,1,1.54.07,0,0,0,0,0,0,0v-.53c0-.87-.43-1.39-1.58-1.38A12.77,12.77,0,0,0,17.41,16.4ZM20.24,22a3.31,3.31,0,0,0,1.12-.19.06.06,0,0,0,.05-.06V19.9a.06.06,0,0,0-.06-.06,6.82,6.82,0,0,0-1.2-.1c-.95,0-1.59.25-1.59,1.16S19.15,22,20.24,22Zm-7.41,1.84c-1.28,0-1.42-.2-1.42-1V14.94c0-.78.14-1,1.42-1s1.42.19,1.42,1v7.94C14.25,23.66,14.11,23.86,12.83,23.86ZM9,11.27c-1.19,0-1.36.2-1.56,1L5.16,20.87l-2.3-8.62c-.2-.78-.37-1-1.57-1s-1.42.19-1.23,1L3.11,22.88c.26.78.77,1,2.05,1s1.8-.2,2.06-1l3.05-10.64C10.46,11.46,10.22,11.27,9,11.27Z" fill="#202e39"/>
</svg>
