<?xml version="1.0" encoding="utf-8"?>
<!-- Generator: Adobe Illustrator 21.1.0, SVG Export Plug-In . SVG Version: 6.00 Build 0)  -->
<svg version="1.1" id="Layer_1" xmlns="http://www.w3.org/2000/svg" xmlns:xlink="http://www.w3.org/1999/xlink" x="0px" y="0px"
	 viewBox="0 0 79.9 24.8" style="enable-background:new 0 0 79.9 24.8;" xml:space="preserve">
<style type="text/css">
	.st0{fill:#FFFFFF;}
</style>
<g id="YPca">
	<path d="M56.1,15.5c0,0.7-0.5,1.2-1.2,1.2c-0.7,0-1.2-0.5-1.2-1.2c0-0.7,0.5-1.2,1.2-1.2h0C55.6,14.3,56.1,14.9,56.1,15.5z"/>
	<path d="M67.7,12.5c-0.5,2.3-2.4,4.2-5.4,4.2c-3.4,0-5.7-2.5-5.7-6.1c0-3.5,2.4-6.1,5.8-6.1c2.8,0,4.7,1.5,5.4,4l-2.5,0.5
		c-0.5-1.5-1.5-2.2-2.8-2.2c-1.6,0-3.1,1.2-3.1,3.8s1.5,3.8,3.1,3.8c1.4,0,2.5-1,2.9-2.4L67.7,12.5z"/>
	<path d="M76.2,14.8c-0.9,1.3-2.4,2-4,2c-2.1,0-3.6-1.2-3.6-3.1c0-1.9,1.3-3,4.2-3.6l3.4-0.8V9.1c0-1.5-0.8-2.3-2.3-2.3
		c-1.4,0-2.3,0.7-2.8,1.9L68.7,8c0.8-2.1,2.8-3.3,5.3-3.3c3.2,0,4.9,1.7,4.9,4.3v6c0,0.4,0,1.2,0.1,1.6h-2.8
		C76.2,16,76.2,15.4,76.2,14.8z M73,14.8c1.2,0,2.7-0.8,3.1-2.1v-1.6l-3,0.7c-1.3,0.3-1.9,0.8-1.9,1.6S71.9,14.8,73,14.8L73,14.8z"
		/>
	<path d="M49.5,6.8c-1.6,0-3.3,1.7-3.6,2.4c-0.3,0.7-1.6,5.4-1.6,5.4c0.4,0,0.8,0.1,1.1,0.1c0.4,0.1,0.8,0.1,1.2,0.1
		c2.7,0,4.3-3,4.3-5.2C51,8.1,50.8,6.8,49.5,6.8 M32,22.3c1.8,0,2.6-2.3,3.3-4.5c0-0.2,0.1-0.3,0.1-0.5l0.1-0.4
		c-1.2,0.3-2.2,0.6-3,1C29.2,19.5,30.4,22.3,32,22.3z M38.4,23.8c0-0.1,2.3-7.6,2.3-7.6c-0.8,0-1.7,0-2.2,0.2c-1.4,6.1-3,8.1-7,8.1
		c-1.5,0-3.6-0.6-3.6-3c0-2.4,1.6-4.7,8.1-6.5c0.1-0.3,0.2-0.6,0.3-1l0.2-0.6c-1.2,0.9-2.6,1.4-4.1,1.4c-1.1,0-2.7-0.9-2.7-2.6
		c0-0.2,0-0.4,0.1-0.7c0.5-2.2,1.1-4.4,1.9-6.5c0.2-0.5,0.6-0.4,0.6-0.4h2c0,0,0.5,0,0.3,0.4c-0.8,2.1-1.7,4.3-2,6.4
		c-0.1,0.5,0.1,0.9,0.3,1.2c0.8,0.8,2.5-0.2,3.5-1.3c0.9-1.1,1.4-2.6,1.8-4c0.2-0.5,0.4-1.6,0.5-2.2c0.1-0.4,0.6-0.4,0.6-0.4h2.3
		c0.4,0,0.3,0.3,0.3,0.3l-2.9,9.5c0.7-0.1,1.4-0.2,2.1-0.2h0.2c0.1,0,0,0,0,0l2.9-9.3c0-0.2,0.3-0.4,0.5-0.3c0.7,0,2.2,0,2.3,0
		c0.2,0,0.4,0.1,0.3,0.4c-0.2,0.4-0.3,1-0.3,1c1.1-0.9,2.3-1.2,3-1.2c3.4,0,4.2,2.7,4.2,4.7c0,3.2-3,7.3-6.7,7.3
		c-0.7,0-1.3-0.1-2-0.2c-0.5-0.1-1.1-0.2-1.7-0.2c-0.3,0.9-0.5,1.9-0.8,2.9v0c0,0.2-0.1,0.4-0.2,0.6c-0.3,1.2-1.1,3.9-1.1,4
		c0,0.2-0.2,0.3-0.3,0.3c-0.1,0-2.2,0-2.8,0C38.5,24.1,38.4,23.9,38.4,23.8L38.4,23.8z"/>
	<path d="M43.7,22.6h1.1v0.1h-0.5v1.3h-0.2v-1.3h-0.5V22.6z"/>
	<path d="M46.1,22.6h0.3v1.4h-0.2v-1.3L46.1,23l-0.4,1.1h-0.1L45.2,23l-0.1-0.2v1.3H45v-1.4h0.3l0.3,1l0.1,0.2l0.1-0.2L46.1,22.6z"
		/>
	<path d="M17.8,24.3c-5.2,2.4-14.5-4.3-17-9.5S1.4,4.5,6.6,2c1.7-0.8,3.5-1.2,5.3-1.2c3.4,0,6.6,1.6,8.2,5.1
		C22.6,11,23,21.8,17.8,24.3z"/>
	<path d="M6.1,6.2h3.3c1.1,0,3,0.2,4,2.2l4.9,10.4c-0.5,0.5-1.3,0.5-1.8,0c0,0-0.1-0.1-0.1-0.2l-4.2-6c-0.6-0.9-1.8-1.1-2.7-0.5
		c-0.1,0-0.1,0.1-0.2,0.2l-1.2,1.1c-0.5,0.5-1.3,0.5-1.8,0l-0.1-0.1l1.1-1.5C8,10.7,8.1,9.3,7.4,8.2L6.1,6.2z M8,17.1
		c-0.2,0.3-0.2,0.6-0.2,1c0,0.7,0.9,1.3,0.9,1.3l3.1-5.3c0.1-0.3,0.1-0.6,0-0.8c-0.7-1-1.6-0.7-1.6-0.7L8,17.1z"/>
	<path d="M17.8,24.3c-5.2,2.4-14.5-4.3-17-9.5S1.4,4.5,6.6,2c1.7-0.8,3.5-1.2,5.3-1.2c3.4,0,6.6,1.6,8.2,5.1
		C22.6,11,23,21.8,17.8,24.3z"/>
	<path class="st0" d="M6.1,6.2h3.3c1.1,0,3,0.2,4,2.2l4.9,10.4c-0.5,0.5-1.3,0.5-1.8,0c0,0-0.1-0.1-0.1-0.2l-4.2-6
		c-0.6-0.9-1.8-1.1-2.7-0.5c-0.1,0-0.1,0.1-0.2,0.2l-1.2,1.1c-0.5,0.5-1.3,0.5-1.8,0l-0.1-0.1l1.1-1.5C8,10.7,8.1,9.3,7.4,8.2
		L6.1,6.2z M8,17.1c-0.2,0.3-0.2,0.6-0.2,1c0,0.7,0.9,1.3,0.9,1.3l3.1-5.3c0.1-0.3,0.1-0.6,0-0.8c-0.7-1-1.6-0.7-1.6-0.7L8,17.1z"/>
</g>
</svg>
