<svg width="134" height="41" viewBox="0 0 134 41" fill="none" xmlns="http://www.w3.org/2000/svg">
      <defs>
            <linearGradient id="paint0_linear" x1="-12.836" y1="64.038" x2="48.596" y2="-11.345"
                  gradientUnits="userSpaceOnUse">
                  <stop stop-color="#EE2238" />
                  <stop offset="1" stop-color="#BF1D67" />
            </linearGradient>
            <linearGradient id="paint1_linear" x1="-11.746" y1="49.295" x2="49.706" y2="-26.211"
                  gradientUnits="userSpaceOnUse">
                  <stop stop-color="#EE2238" />
                  <stop offset="1" stop-color="#BF1D67" />
            </linearGradient>
      </defs>
      <path
            d="M39.81 27.397a.215.215 0 01-.007.022l-.008.022C36.95 35.347 29.384 41 20.5 41 9.178 41 0 31.821 0 20.5c0-.5.017-.993.052-1.483L.054 19v-.003l.01-.051-.002.029 23.187-4.203L10.733 27.29a3.111 3.111 0 00-.497 2.33 3.148 3.148 0 003.247 2.576l.85-.155h.002l25.476-4.643z"
            fill="url(#paint0_linear)" />
      <path
            d="M41 20.5a20.354 20.354 0 01-.068 1.672l-.001.02-22.225 4.051 12.07-11.95.003-.002.12-.12.003-.003c.255-.263.461-.57.611-.902a3.141 3.141 0 00.227-1.863 3.173 3.173 0 00-3.127-2.6h-.039l-1.064.194L1.122 13.81l-.008.023.01-.043c0-.007.004-.015.006-.022C3.916 5.753 11.536 0 20.5 0 31.822 0 41 9.178 41 20.5z"
            fill="url(#paint1_linear)" />
      <g transform="translate(0, 8)">
            <path
                  d="M13.3411 24.2179C13.1412 24.2179 12.9412 24.1986 12.7461 24.1615C11.4463 23.9139 10.4538 22.9174 10.2167 21.6225C10.0998 20.979 10.1829 20.3267 10.457 19.7357C10.528 19.5809 10.6126 19.4318 10.7166 19.2786L23.19 6.80442L0.0405273 10.9988L0.0421399 10.973C0.169534 9.22894 0.520271 7.50751 1.08468 5.85703C1.08871 5.84252 1.09435 5.82881 1.1 5.8143L1.10725 5.79333L27.5061 0.976543L28.5704 0.783033L28.6123 0.782227C28.7985 0.782227 28.9872 0.798352 29.1735 0.83141C30.4837 1.06524 31.523 2.09729 31.7601 3.39945C31.8762 4.03642 31.7971 4.68468 31.5311 5.27408C31.3795 5.61192 31.1723 5.91669 30.9159 6.18196L18.7659 18.2118L40.9582 14.1675L40.9558 14.1933C40.8107 15.9736 40.4333 17.7265 39.8351 19.4019L39.831 19.4132L14.345 24.0575L14.3433 24.0591L14.3329 24.0599L13.4863 24.2147C13.4363 24.2163 13.3887 24.2179 13.3411 24.2179Z"
                  fill="white" />
      </g>
      <path
            d="M60.9574 28.165H54.3293L61.685 18.3848C61.8447 18.18 61.9246 17.9128 61.9246 17.5476C61.9246 16.7281 61.5164 16.3184 60.7001 16.3184H51.8182C51.0019 16.3184 50.5938 16.7281 50.5938 17.5476C50.5938 18.367 51.0019 18.7768 51.8182 18.7768H58.4641L51.0906 28.5569C50.9309 28.7618 50.8511 29.029 50.8511 29.3942C50.8511 30.2137 51.2592 30.6234 52.0755 30.6234H60.9574C61.7737 30.6234 62.1819 30.2137 62.1819 29.3942C62.1819 28.5747 61.7737 28.165 60.9574 28.165Z"
            fill="black" />
      <path
            d="M74.8436 17.1203C73.8676 16.5235 72.7052 16.2207 71.3565 16.2207C69.9812 16.2207 68.7656 16.5325 67.7097 17.1471C66.6538 17.7617 65.8198 18.6167 65.2253 19.7123C64.6219 20.799 64.3291 22.0638 64.3291 23.489C64.3291 24.9053 64.6485 26.1523 65.2785 27.2389C65.9085 28.3256 66.7869 29.1807 67.9138 29.8042C69.0318 30.4188 70.3184 30.7306 71.7558 30.7306C72.5544 30.7306 73.3884 30.5792 74.2669 30.2852C75.1453 29.9913 75.8817 29.6083 76.4674 29.1362C76.7602 28.9135 76.9021 28.6374 76.8844 28.3256C76.8666 28.0139 76.7069 27.7199 76.4141 27.4616C76.1923 27.2657 75.9261 27.1766 75.6156 27.1855C75.3139 27.1944 75.0299 27.2924 74.7726 27.4884C74.4266 27.7467 73.9652 27.9783 73.4062 28.1831C72.8383 28.388 72.2882 28.486 71.7558 28.486C70.762 28.486 69.8925 28.2722 69.1205 27.8357C68.3574 27.3993 67.7541 26.8114 67.3193 26.0543C67.0265 25.5555 66.849 25.0032 66.7514 24.4065H76.6448C76.9909 24.4065 77.2748 24.2996 77.5055 24.0769C77.7273 23.8631 77.8427 23.587 77.8427 23.2574C77.8427 21.8768 77.5854 20.6654 77.0707 19.6055C76.5561 18.5544 75.8108 17.726 74.8436 17.1203ZM68.81 19.1245C69.5109 18.688 70.3627 18.4742 71.3476 18.4742C72.2172 18.4742 72.9537 18.6791 73.5659 19.0799C74.1693 19.4807 74.6395 20.0241 74.9767 20.7099C75.2074 21.1998 75.3582 21.7343 75.4381 22.3222H66.778C66.8668 21.8234 67.0087 21.3513 67.2128 20.9237C67.5766 20.1577 68.109 19.5609 68.81 19.1245Z"
            fill="black" />
      <path
            d="M91.5253 16.9595C90.5759 16.4429 89.5022 16.1846 88.3044 16.1846C87.1598 16.1846 86.1216 16.434 85.2077 16.9417C84.7019 17.2178 84.2672 17.5563 83.8768 17.9393V17.6543C83.8768 17.2534 83.7525 16.9328 83.513 16.6834C83.2734 16.4429 82.9451 16.3182 82.5458 16.3182C82.1643 16.3182 81.8448 16.4429 81.5964 16.6834C81.3479 16.9239 81.2148 17.2534 81.2148 17.6543V29.3138C81.2148 29.6969 81.3391 30.0175 81.5964 30.2669C81.8448 30.5163 82.1643 30.6499 82.5458 30.6499C82.9451 30.6499 83.2645 30.5252 83.513 30.2669C83.7525 30.0175 83.8768 29.6969 83.8768 29.3138V21.9386C83.8768 21.2973 84.0542 20.7273 84.4003 20.2285C84.7463 19.7297 85.2166 19.3377 85.8111 19.0349C86.4056 18.7409 87.0622 18.5895 87.7898 18.5895C88.5883 18.5895 89.2982 18.7409 89.9104 19.0438C90.5226 19.3466 91.0195 19.8187 91.3833 20.4422C91.7471 21.0657 91.9335 21.8763 91.9335 22.8739V29.3049C91.9335 29.6879 92.0577 30.0086 92.315 30.258C92.5634 30.5074 92.8829 30.641 93.2644 30.641C93.6459 30.641 93.9654 30.5163 94.2138 30.258C94.4623 30.0086 94.5954 29.6879 94.5954 29.3049V22.8739C94.5954 21.4309 94.3203 20.2106 93.779 19.213C93.22 18.2332 92.4747 17.4761 91.5253 16.9595Z"
            fill="black" />
      <path
            d="M100.576 16.3271C100.194 16.3271 99.8746 16.4518 99.6262 16.6923C99.3777 16.9328 99.2446 17.2624 99.2446 17.6632V29.2961C99.2446 29.6791 99.3689 29.9997 99.6262 30.2491C99.8746 30.4986 100.194 30.6322 100.576 30.6322C100.975 30.6322 101.294 30.5075 101.543 30.2491C101.782 29.9997 101.907 29.6791 101.907 29.2961V17.6543C101.907 17.2535 101.782 16.9328 101.543 16.6834C101.294 16.4429 100.975 16.3271 100.576 16.3271Z"
            fill="black" />
      <path
            d="M100.575 10.5469C100.105 10.5469 99.7053 10.7161 99.3593 11.0546C99.0221 11.3931 98.8535 11.8028 98.8535 12.266C98.8535 12.7291 99.0221 13.1389 99.3593 13.4774C99.6965 13.8158 100.105 13.9851 100.575 13.9851C101.045 13.9851 101.444 13.8158 101.79 13.4774C102.128 13.1389 102.296 12.7291 102.296 12.266C102.296 11.8028 102.128 11.3931 101.79 11.0546C101.453 10.7161 101.045 10.5469 100.575 10.5469Z"
            fill="black" />
      <path
            d="M112.572 22.5179L117.354 18.2335C117.611 17.9931 117.753 17.708 117.771 17.3963C117.789 17.0845 117.674 16.7906 117.434 16.5323C117.212 16.274 116.937 16.1314 116.618 16.1136C116.298 16.0958 116.005 16.2116 115.748 16.4521L109.422 22.126V11.4819C109.422 11.0988 109.306 10.7871 109.067 10.5555C108.836 10.3239 108.525 10.1992 108.144 10.1992C107.762 10.1992 107.452 10.315 107.221 10.5555C106.99 10.7871 106.866 11.0988 106.866 11.4819V29.3409C106.866 29.7239 106.982 30.0356 107.221 30.2672C107.452 30.4988 107.762 30.6235 108.144 30.6235C108.525 30.6235 108.836 30.5077 109.067 30.2672C109.297 30.0356 109.422 29.7239 109.422 29.3409V25.3415L110.717 24.1836L115.668 30.3385C115.89 30.6146 116.174 30.766 116.511 30.7928C116.848 30.8195 117.159 30.7215 117.434 30.4899C117.727 30.2494 117.886 29.9644 117.913 29.6437C117.94 29.3231 117.842 29.0202 117.611 28.7441L112.572 22.5179Z"
            fill="black" />
      <path
            d="M133.051 19.7747C132.421 18.6791 131.56 17.8062 130.486 17.1738C129.413 16.5414 128.197 16.2207 126.839 16.2207C125.482 16.2207 124.266 16.5414 123.184 17.1738C122.101 17.8062 121.241 18.6791 120.602 19.7747C119.972 20.8703 119.652 22.1084 119.652 23.489C119.652 24.8696 119.945 26.0988 120.522 27.1855C121.108 28.2722 121.897 29.1362 122.909 29.7775C123.911 30.4099 125.056 30.7306 126.325 30.7306C127.594 30.7306 128.729 30.4099 129.741 29.7775C130.362 29.3856 130.894 28.9046 131.356 28.3434V29.3143C131.356 29.6973 131.48 30.018 131.737 30.2674C131.986 30.5168 132.305 30.6504 132.687 30.6504C133.068 30.6504 133.388 30.5257 133.636 30.2674C133.885 30.018 134.018 29.6973 134.018 29.3143V23.4801C134 22.1084 133.681 20.8703 133.051 19.7747ZM129.209 27.7378C128.516 28.1653 127.727 28.3791 126.839 28.3791C125.97 28.3791 125.189 28.1653 124.479 27.7378C123.778 27.3102 123.219 26.7312 122.811 25.983C122.403 25.2437 122.199 24.4065 122.199 23.489C122.199 22.5448 122.403 21.7076 122.811 20.9683C123.219 20.229 123.778 19.6411 124.479 19.2135C125.18 18.786 125.97 18.5722 126.839 18.5722C127.727 18.5722 128.516 18.786 129.209 19.2135C129.901 19.6411 130.451 20.229 130.85 20.9683C131.249 21.7076 131.453 22.5537 131.453 23.489C131.453 24.4154 131.249 25.2437 130.85 25.983C130.442 26.7223 129.901 27.3102 129.209 27.7378Z"
            fill="black" />
</svg>