<?xml version="1.0" encoding="utf-8"?>
<!-- Generator: Adobe Illustrator 17.0.0, SVG Export Plug-In . SVG Version: 6.00 Build 0)  -->
<!DOCTYPE svg PUBLIC "-//W3C//DTD SVG 1.0//EN" "http://www.w3.org/TR/2001/REC-SVG-20010904/DTD/svg10.dtd">
<svg version="1.0" xmlns="http://www.w3.org/2000/svg" xmlns:xlink="http://www.w3.org/1999/xlink" x="0px" y="0px" width="792px"
	 height="1135.925px" viewBox="0 0 792 1135.925" enable-background="new 0 0 792 1135.925" xml:space="preserve">
<g id="jacket_2_">
	<path id="shoulders_2_" fill-rule="evenodd" clip-rule="evenodd" fill="#495061" d="M595.042,490.403
		c0,0,1.275-34.418-24.249-56.648c-25.523-22.231-87.921-48.58-178.784-47.207c-90.863,1.373,35.346,101.803,35.346,101.803
		L595.042,490.403z"/>
	<path id="shoulders_1_" fill-rule="evenodd" clip-rule="evenodd" fill="#495061" d="M193.028,490.403
		c0,0-1.275-34.464,24.255-56.724c25.53-22.261,87.943-48.645,178.828-47.271c90.885,1.374-35.355,101.94-35.355,101.94
		s-56.796,0.696-104.288,1.278C222.346,490.043,193.028,490.403,193.028,490.403z"/>
</g>
<g id="jacket_1_">
	<path id="shoulders" fill-rule="evenodd" clip-rule="evenodd" fill="#495061" d="M394.055,396.684
		c111.025,0,201.028,42.879,201.028,95.774s-90.003,95.774-201.028,95.774s-201.028-42.88-201.028-95.774
		S283.031,396.684,394.055,396.684z"/>
	<path id="shirt" fill-rule="evenodd" clip-rule="evenodd" fill="#FFFFFF" d="M318.002,423.402l63.11,33.007H436.3l8.732-18.21
		l20.555-29.595l52.621,13.153l57.554,163.186l-60.021,254.849L585,925.925l10.083,38.692c0,0-175.072,32.029-225.283,30.552
		c-50.211-1.477-211.305-18.908-211.305-18.908l30.421-103.995l87.982-399.341L318.002,423.402z"/>
	<path id="sleeve_1_" fill-rule="evenodd" clip-rule="evenodd" fill="#3D4251" d="M18.467,750.316
		c0,0,112.496-241.475,106.698-280.064c-5.798-38.59-0.748-54.595,12.326-61.637c13.074-7.043,150.61,13.098,150.61,13.098
		s37.97,25.431,35.438,36.212c-2.532,10.781,8.212,318.954-10.059,357.206c-18.271,38.252-31.759,171.602-43.988,186.204
		c-12.228,14.603-112.047-68.52-113.875-83.854c-1.828-15.334,44.733-154.742,34.645-197.213
		c-10.088-42.472-11.556-80.899-11.556-80.899L68.542,776.511L18.467,750.316z"/>
	<path id="hand" fill-rule="evenodd" clip-rule="evenodd" fill="#F5E0D4" d="M699.136,997.01c0,0,36.326,42.562,34.783,62.735
		c-1.542,20.173-3.473,53.945-19.324,61.48c-15.851,7.535-71.306,6.79-80.303-15.893c-8.996-22.683,6.441-100.794,6.441-100.794
		L699.136,997.01z"/>
	<path id="handle" fill-rule="evenodd" clip-rule="evenodd" fill="#F1F1F1" d="M614.126,960.758l16.45,52.279
		c0,0,20.571,10.553,44.71,6.151c24.139-4.403,32.056-24.218,32.056-24.218l-17.715-52.664L614.126,960.758z"/>
	<path id="sleeve" fill-rule="evenodd" clip-rule="evenodd" fill="#363A47" d="M638.241,435.195c0,0,43.999,464.025,64.479,518.283
		c20.48,54.258-87.439,27.351-87.439,27.351l-19.412-44.832c0,0-33.125-257.871-33.126-271.589
		C562.742,650.691,638.241,435.195,638.241,435.195z"/>
	<path id="sleeve_2_" fill-rule="evenodd" clip-rule="evenodd" fill="#3D4251" d="M451.808,390.508c0,0,1.313,0.103,3.695,0.285
		c21.342,1.633,128.514,9.651,146.145,7.42c19.599-2.48,45.886,23.65,34.282,48.154c-11.604,24.504-46.645,245.279-46.608,285.457
		c0.036,40.179,11.953,184.889,13.573,199.221c1.62,14.332-143.582,49.451-158.273,34.117c-7.978-8.327,0.178-91.15,23.433-201.824
		c19.571-93.14,54.846-214.882,50.393-240.31c-9.745-55.642-46.223-97.079-46.223-97.079"/>
</g>
<g id="head">
	<path id="ear_1_" fill-rule="evenodd" clip-rule="evenodd" fill="#EBCFC2" d="M281.423,203.989c0,0-11.463-4.608-20.133,0.824
		c-8.67,5.432-11.941,29.186-4.52,39.57c7.422,10.383,15.031,22.937,23.009,23.907c7.979,0.969,17.257-1.649,17.257-1.649
		l-3.287-31.738L281.423,203.989z"/>
	<path id="ear" fill-rule="evenodd" clip-rule="evenodd" fill="#EBCFC2" d="M500.941,203.903c0,0,11.469-4.595,20.144,0.822
		c8.675,5.417,11.948,29.106,4.522,39.46c-7.425,10.355-15.039,22.874-23.022,23.841c-7.983,0.967-17.266-1.644-17.266-1.644
		l3.289-31.651L500.941,203.903z"/>
	<path id="earring" fill-rule="evenodd" clip-rule="evenodd" fill="#4189C6" d="M509.986,260.216c4.087,0,7.4,3.313,7.4,7.399
		c0,4.086-3.313,7.399-7.4,7.399c-4.087,0-7.4-3.313-7.4-7.399C502.586,263.529,505.899,260.216,509.986,260.216z"/>
	<path id="neck" fill-rule="evenodd" clip-rule="evenodd" fill="#F5E0D4" d="M446.27,348.185H335.68v83.31l55.37,25l55.22-25
		V348.185z"/>
	<path id="face" fill-rule="evenodd" clip-rule="evenodd" fill="#F5E0D4" d="M385.833,45.238
		c69.763-1.072,109.353,34.35,125.797,86.731c20.207,64.371-9.413,137.683-33.71,179.217c-9.957,17.021-18.84,33.648-34.532,44.804
		c-10.57,7.515-25.525,12.109-40.699,14.798c-19.135,3.39-45.278-4-55.91-10.276c-37.977-22.419-67.749-96-78.931-146.744
		c-5.022-22.79-4.018-55.379,2.055-76.044c11.928-40.586,34.336-69.057,71.943-83.854c9.257-3.643,19.697-5.377,30.421-7.399
		C376.789,46.061,381.312,45.649,385.833,45.238z"/>
	<path id="eye" fill-rule="evenodd" clip-rule="evenodd" fill="#FFFFFF" d="M339.996,189.927c12.828,0,23.227,10.398,23.227,23.224
		c0,12.826-10.399,23.224-23.227,23.224s-23.227-10.398-23.227-23.224C316.769,200.325,327.168,189.927,339.996,189.927z"/>
	<path id="pupill" fill-rule="evenodd" clip-rule="evenodd" fill="#333333" d="M349.25,212.945c0,5.45-4.42,9.87-9.87,9.87
		c-4.04,0-7.51-2.43-9.03-5.9c0.6,0.35,1.3,0.55,2.04,0.55c2.27,0,4.11-1.84,4.11-4.11s-1.84-4.11-4.11-4.11
		c-0.91,0-1.75,0.3-2.44,0.81c1.23-4.04,4.99-6.97,9.43-6.97C344.83,203.085,349.25,207.495,349.25,212.945z"/>
	<path id="eye_1_" fill-rule="evenodd" clip-rule="evenodd" fill="#FFFFFF" d="M444.996,189.927
		c12.828,0,23.227,10.398,23.227,23.224c0,12.826-10.399,23.224-23.227,23.224s-23.227-10.398-23.227-23.224
		C421.769,200.325,432.168,189.927,444.996,189.927z"/>
	<path id="pupill_1_" fill-rule="evenodd" clip-rule="evenodd" fill="#333333" d="M454.25,212.945c0,5.45-4.42,9.87-9.87,9.87
		c-4.04,0-7.51-2.43-9.03-5.9c0.6,0.35,1.3,0.55,2.04,0.55c2.27,0,4.11-1.84,4.11-4.11s-1.84-4.11-4.11-4.11
		c-0.91,0-1.75,0.3-2.44,0.81c1.23-4.04,4.99-6.97,9.43-6.97C449.83,203.085,454.25,207.495,454.25,212.945z"/>
	<path id="glasses" fill-rule="evenodd" clip-rule="evenodd" fill="#4189C6" d="M380.9,213.768h25.077v10.276H380.9V213.768z"/>
	<path id="glasses_2_" fill-rule="evenodd" clip-rule="evenodd" fill="#4189C6" d="M373.5,181.705h-66.6
		c-4.54,0-8.22,3.68-8.22,8.22v50.97c0,4.54,3.68,8.22,8.22,8.22h66.6c4.54,0,8.22-3.68,8.22-8.22v-50.97
		C381.72,185.385,378.04,181.705,373.5,181.705z M371.78,233.835c0,3.36-2.78,6.09-6.21,6.09h-50.35c-3.44,0-6.22-2.73-6.22-6.09
		v-37.74c0-3.36,2.78-6.09,6.22-6.09h50.35c3.43,0,6.21,2.73,6.21,6.09V233.835z"/>
	<path id="glasses_1_" fill-rule="evenodd" clip-rule="evenodd" fill="#4189C6" d="M477.5,181.705h-66.6
		c-4.54,0-8.22,3.68-8.22,8.22v50.97c0,4.54,3.68,8.22,8.22,8.22h66.6c4.54,0,8.22-3.68,8.22-8.22v-50.97
		C485.72,185.385,482.04,181.705,477.5,181.705z M475.78,233.835c0,3.36-2.78,6.09-6.21,6.09h-50.35c-3.44,0-6.22-2.73-6.22-6.09
		v-37.74c0-3.36,2.78-6.09,6.22-6.09h50.35c3.43,0,6.21,2.73,6.21,6.09V233.835z"/>
	<path id="eyebrows_1_" fill-rule="evenodd" clip-rule="evenodd" fill="#B08F7E" d="M341.8,151.061
		c-24.698,0.54-39.009,8.574-39.009,16.937c0,8.364,13.151,5.992,22.995,2.066c9.844-3.926,22.872-3.621,28.332,0.413
		c5.46,4.034,17.164,5.165,17.656-3.305C372.267,158.702,350.221,150.878,341.8,151.061z"/>
	<path id="eyebrows" fill-rule="evenodd" clip-rule="evenodd" fill="#B08F7E" d="M442.565,150.878
		c24.728,0.537,39.055,8.531,39.055,16.853c0,8.322-13.166,5.962-23.022,2.055c-9.855-3.906-22.9-3.603-28.366,0.411
		c-5.466,4.014-17.184,5.14-17.677-3.288C412.062,158.48,434.134,150.694,442.565,150.878z"/>
	<path id="beard_1_" fill-rule="evenodd" clip-rule="evenodd" fill="#B08F7E" d="M504.52,253.395
		c-7.69,22.29-17.52,42.26-26.6,57.79c-9.96,17.02-18.84,33.65-34.53,44.81c-10.57,7.51-25.53,12.1-40.7,14.79
		c-19.14,3.39-45.28-4-55.91-10.27c-27.23-16.07-50.24-58.45-65.21-99.85c-0.05-2.84,0.14-5.52,0.67-7.85
		c0.41-0.13,0.82-0.27,1.23-0.41c6.1-2.35,12.36,4.16,15.62,6.58c11.95,8.86,20.54,20.07,31.24,30
		c-2.25-8.18,4.44-26.45,12.75-19.31c3.76,2.73,0.55,12.25,1.64,17.26c18.14,12.21,20-9.94,28.78-14.39
		c5.9-1.13,11.45,3.89,17.27,4.94c9.49,1.7,14.05-4.87,22.2-5.35c8.17,4.72,8.23,20.15,22.61,17.27c3.57-0.72,5.17-0.5,6.57-3.29
		c2.72-5.18-1.67-13.47,1.24-16.86c2.9-3.38,3.29-0.54,4.93-0.82c5.96,2.76,11.39,11.2,8.22,20.14c3.43-3.7,6.85-7.4,10.28-11.09
		c10.42-10.56,19.89-18.84,34.12-25.9c0.82,0.14,1.65,0.27,2.47,0.41C503.78,252.465,504.15,252.925,504.52,253.395z"/>
	<path id="mounth" fill-rule="evenodd" clip-rule="evenodd" fill="#EBCFC2" d="M360.756,303.787c0,0,8.352,14.478,31.655,13.976
		c23.303-0.503,31.244-13.976,31.244-13.976s-15.235-4.932-27.544-4.932c-5.288,0-10.737,2.929-17.677,4.111
		C371.493,304.147,360.756,303.787,360.756,303.787z"/>
	<path id="angular_1_" fill-rule="evenodd" clip-rule="evenodd" fill="#979A9B" d="M431.377,367.185
		c-6.226,2.244-12.452,4.499-18.678,6.743c1.034,8.582,2.08,17.164,3.113,25.746c5.392,2.857,10.796,5.725,16.188,8.582
		c4.757-2.673,9.514-5.345,14.27-8.03v-28.296C441.302,370.348,436.346,368.766,431.377,367.185z M440.393,397.173
		c0-0.074-2.789-5.468-2.789-5.468s-6.438,0-9.962,0c-1.034,1.839-2.079,3.678-3.113,5.517h-4.358
		c3.736-8.582,11.83-25.746,11.83-25.746l12.452,25.746L440.393,397.173z"/>
	<polygon id="angular" fill-rule="evenodd" clip-rule="evenodd" fill="#979A9B" points="435.73,387.412 428.881,387.412 
		432.003,378.831 	"/>
	<path id="spring_boot" fill-rule="evenodd" clip-rule="evenodd" fill="#979A9B" d="M362.406,370.317
		c-5.438-1.343-13.797-0.763-20.371-0.691c-2.418,1.622-4.519,4.226-6.356,7.153c0,5.395,0.389,19.66,0.389,25.564
		c1.694,2.451,3.467,4.492,4.93,5.609h20.371c3.173-1.492,4.192-5.293,5.87-8.287c1.84-3.108,3.684-6.215,5.524-9.323
		C373.745,386.448,364.347,372.938,362.406,370.317z M350.322,376.187h1.726c0.231,0.345,0.459,0.691,0.691,1.036
		c0.114,3.912,0.231,7.827,0.345,11.74c-1.105,0.68-1.088,0.932-2.417,0.691C348.668,388.195,349.227,378.313,350.322,376.187z
		 M353.774,400.011c-13.487,3.308-15.351-11.377-11.74-19.336c0.805-0.691,1.612-1.381,2.417-2.072
		c0.691,0.114,1.381,0.231,2.072,0.345c0.114,0.345,0.231,0.691,0.345,1.036c-3.474,5.203-7.758,14.308,2.072,16.919
		c11.567,3.073,13.317-11.819,6.906-16.228v-1.381c0.459-0.345,0.922-0.691,1.381-1.036
		C366.646,383.141,363.197,397.701,353.774,400.011z"/>
	<path id="collar_1_" fill-rule="evenodd" clip-rule="evenodd" fill="#FFFFFF" d="M446.676,389.696l-59.609,69.878l36.588,9.043
		l40.699-45.215c0,0-0.045-13.113-3.289-19.319C457.821,397.877,446.676,389.696,446.676,389.696z"/>
	<path id="collar" fill-rule="evenodd" clip-rule="evenodd" fill="#FFFFFF" d="M335.679,389.696l59.609,69.878l-36.588,9.043
		l-40.699-45.215c0,0,0.045-13.113,3.289-19.319C324.535,397.877,335.679,389.696,335.679,389.696z"/>
	<path id="hears" fill-rule="evenodd" clip-rule="evenodd" fill="#B08F7E" d="M265.381,195.682c0,0,6.133-17.02,6.578-23.841
		c0.445-6.821,5.171-46.943,19.733-67.001c9.368-14.438,23.076-17.432,36.588-14.387c13.512,3.046,29.166,11.175,45.221,9.043
		c16.055-2.132,56.817-22.612,73.587-14.798c16.77,7.815,44.946,21.469,48.099,47.27c3.152,25.801,21.377,66.59,21.377,66.59
		s9.441-65.867,9.455-83.443c0.014-17.576-45.749-69.159-55.087-79.332S431.38-0.89,413.377,0.023
		c-18.003,0.914-42.247,15.528-51.799,16.442c-9.552,0.914-15.831-3.592-26.31-1.644c-10.48,1.948-21.592,1.371-53.443,34.528
		c-31.85,33.157-28.534,82.852-26.31,110.572C257.739,187.641,265.381,195.682,265.381,195.682z"/>
	<path fill-rule="evenodd" clip-rule="evenodd" fill="#D5AD98" d="M352.123,87.987c0,0-7.832-11.734,2.056-33.295
		c9.887-21.561,10.277-31.651,10.277-31.651s-5.6,13.958-13.155,31.651C343.746,72.385,352.123,87.987,352.123,87.987z"/>
	<path fill-rule="evenodd" clip-rule="evenodd" fill="#D5AD98" d="M380.9,91.276c0,0,22.204-25.629,36.588-36.994
		c14.384-11.365,32.066-24.252,32.066-24.252s-13.968,3.438-34.943,21.375C393.635,69.341,380.9,91.276,380.9,91.276z"/>
	<path fill-rule="evenodd" clip-rule="evenodd" fill="#D5AD98" d="M365.69,87.576c0,0-0.479-23.829,11.1-50.148
		c11.578-26.318,34.944-30.418,34.944-30.418s-17.107,7.784-29.188,31.24S365.69,87.576,365.69,87.576z"/>
</g>
<g id="tie_2_">
	<path id="tie" fill-rule="evenodd" clip-rule="evenodd" fill="#3373AA" d="M408.106,466.641c0,0-92.462-40.278-96.344-8.15
		c-3.882,32.129-9.554,56.89,14.031,58.623C349.379,518.847,408.106,466.641,408.106,466.641z"/>
	<path id="tie_1_" fill-rule="evenodd" clip-rule="evenodd" fill="#4189C6" d="M392.254,460.814
		c23.392-15.73,69.958-43.411,78.269-20.748c11.188,30.505,22.413,53.396-0.092,60.533c-15.816,5.016-54.636-11.997-76.317-22.555
		C392.333,462.807,394.009,475.829,392.254,460.814z"/>
</g>
<g id="jacket">
	<path id="coffee" fill-rule="evenodd" clip-rule="evenodd" fill="#D6D6D6" d="M352.765,323.131
		c35.563,0.436,63.647,15.195,63.535,28.857c-0.112,13.662,4.066,79.384-42.489,84.647c-46.555,5.263-75.653-38.674-77.036-72.72
		C295.392,329.871,317.202,322.695,352.765,323.131z"/>
	<path id="hand_1_" fill-rule="evenodd" clip-rule="evenodd" fill="#F5E0D4" d="M219.152,523.413
		c-7.214-15.43-6.058-119.263,12.711-127.127s46.569-20.664,58.934-20.032c12.365,0.632,21.388,0.078,27.734,6.549
		c6.346,6.471,22.125,26.981,20.03,38.908c-2.095,11.927-38.212,21.134-46.223,29.663c-8.011,8.529-11.99,41.9-17.334,49.31
		s-19.444,40.146-38.134,35.441C218.181,531.422,226.366,538.844,219.152,523.413z"/>
	<path id="handle_1_" fill-rule="evenodd" clip-rule="evenodd" fill="#F1F1F1" d="M192.188,493.365c0,0,29.855,12.451,38.519,20.032
		c8.664,7.581,30.815,47.384,30.815,47.384l-45.068,51.621c0,0-34.283-17.694-43.141-26.966
		c-8.858-9.273-26.578-43.531-26.578-43.531L192.188,493.365z"/>
	<path id="sleeve_3_" fill-rule="evenodd" clip-rule="evenodd" fill="#495061" d="M137.876,534.97
		c0,0-181.231,200.73-128.269,253.098c52.962,52.368,77.424,19.647,77.424,19.647L234.56,615.869c0,0-43.14-29.001-57.394-42.761
		C162.913,559.349,137.876,534.97,137.876,534.97z"/>
</g>
</svg>
